<?xml version="1.0" encoding="utf-8" standalone="no"?>
<!DOCTYPE svg PUBLIC "-//W3C//DTD SVG 1.1//EN"
  "http://www.w3.org/Graphics/SVG/1.1/DTD/svg11.dtd">
<!-- Created with matplotlib (http://matplotlib.org/) -->
<svg height="345.6pt" version="1.1" viewBox="0 0 460.8 345.6" width="460.8pt" xmlns="http://www.w3.org/2000/svg" xmlns:xlink="http://www.w3.org/1999/xlink">
 <defs>
  <style type="text/css">
*{stroke-linecap:butt;stroke-linejoin:round;}
  </style>
 </defs>
 <g id="figure_1">
  <g id="patch_1">
   <path d="M 0 345.6 
L 460.8 345.6 
L 460.8 0 
L 0 0 
z
" style="fill:#ffffff;"/>
  </g>
  <g id="axes_1">
   <g id="patch_2">
    <path d="M 33.64 291.322725 
L 447.48 291.322725 
L 447.48 13.32 
L 33.64 13.32 
z
" style="fill:#ffffff;"/>
   </g>
   <g id="patch_3">
    <path clip-path="url(#p933cafdc64)" d="M 52.450909 291.322725 
L 69.551736 291.322725 
L 69.551736 39.166058 
L 52.450909 39.166058 
z
" style="fill:#1f77b4;"/>
   </g>
   <g id="patch_4">
    <path clip-path="url(#p933cafdc64)" d="M 137.955041 291.322725 
L 155.055868 291.322725 
L 155.055868 114.813058 
L 137.955041 114.813058 
z
" style="fill:#1f77b4;"/>
   </g>
   <g id="patch_5">
    <path clip-path="url(#p933cafdc64)" d="M 223.459174 291.322725 
L 240.56 291.322725 
L 240.56 291.322725 
L 223.459174 291.322725 
z
" style="fill:#1f77b4;"/>
   </g>
   <g id="patch_6">
    <path clip-path="url(#p933cafdc64)" d="M 308.963306 291.322725 
L 326.064132 291.322725 
L 326.064132 95.200873 
L 308.963306 95.200873 
z
" style="fill:#1f77b4;"/>
   </g>
   <g id="patch_7">
    <path clip-path="url(#p933cafdc64)" d="M 394.467438 291.322725 
L 411.568264 291.322725 
L 411.568264 26.558225 
L 394.467438 26.558225 
z
" style="fill:#1f77b4;"/>
   </g>
   <g id="patch_8">
    <path clip-path="url(#p933cafdc64)" d="M 69.551736 291.322725 
L 86.652562 291.322725 
L 86.652562 228.283559 
L 69.551736 228.283559 
z
" style="fill:#ff7f0e;"/>
   </g>
   <g id="patch_9">
    <path clip-path="url(#p933cafdc64)" d="M 155.055868 291.322725 
L 172.156694 291.322725 
L 172.156694 114.813058 
L 155.055868 114.813058 
z
" style="fill:#ff7f0e;"/>
   </g>
   <g id="patch_10">
    <path clip-path="url(#p933cafdc64)" d="M 240.56 291.322725 
L 257.660826 291.322725 
L 257.660826 291.322725 
L 240.56 291.322725 
z
" style="fill:#ff7f0e;"/>
   </g>
   <g id="patch_11">
    <path clip-path="url(#p933cafdc64)" d="M 326.064132 291.322725 
L 343.164959 291.322725 
L 343.164959 193.261799 
L 326.064132 193.261799 
z
" style="fill:#ff7f0e;"/>
   </g>
   <g id="patch_12">
    <path clip-path="url(#p933cafdc64)" d="M 411.568264 291.322725 
L 428.669091 291.322725 
L 428.669091 203.067892 
L 411.568264 203.067892 
z
" style="fill:#ff7f0e;"/>
   </g>
   <g id="matplotlib.axis_1">
    <g id="xtick_1">
     <g id="line2d_1">
      <defs>
       <path d="M 0 0 
L 0 3.5 
" id="m8a636251cc" style="stroke:#000000;stroke-width:0.8;"/>
      </defs>
      <g>
       <use style="stroke:#000000;stroke-width:0.8;" x="69.551736" xlink:href="#m8a636251cc" y="291.322725"/>
      </g>
     </g>
     <g id="text_1">
      <text style="font-family:DejaVu Sans;font-size:9px;font-style:normal;font-weight:normal;" transform="translate(58.826219 315.5022)rotate(-25)">Africa</text>
     </g>
    </g>
    <g id="xtick_2">
     <g id="line2d_2">
      <g>
       <use style="stroke:#000000;stroke-width:0.8;" x="155.055868" xlink:href="#m8a636251cc" y="291.322725"/>
      </g>
     </g>
     <g id="text_2">
      <text style="font-family:DejaVu Sans;font-size:9px;font-style:normal;font-weight:normal;" transform="translate(141.010928 318.597944)rotate(-25)">Eurasia</text>
     </g>
    </g>
    <g id="xtick_3">
     <g id="line2d_3">
      <g>
       <use style="stroke:#000000;stroke-width:0.8;" x="240.56" xlink:href="#m8a636251cc" y="291.322725"/>
      </g>
     </g>
     <g id="text_3">
      <text style="font-family:DejaVu Sans;font-size:9px;font-style:normal;font-weight:normal;" transform="translate(212.083313 332.057214)rotate(-25)">North America</text>
     </g>
    </g>
    <g id="xtick_4">
     <g id="line2d_4">
      <g>
       <use style="stroke:#000000;stroke-width:0.8;" x="326.064132" xlink:href="#m8a636251cc" y="291.322725"/>
      </g>
     </g>
     <g id="text_4">
      <text style="font-family:DejaVu Sans;font-size:9px;font-style:normal;font-weight:normal;" transform="translate(306.132936 324.087558)rotate(-25)">Papunesia</text>
     </g>
    </g>
    <g id="xtick_5">
     <g id="line2d_5">
      <g>
       <use style="stroke:#000000;stroke-width:0.8;" x="411.568264" xlink:href="#m8a636251cc" y="291.322725"/>
      </g>
     </g>
     <g id="text_5">
      <text style="font-family:DejaVu Sans;font-size:9px;font-style:normal;font-weight:normal;" transform="translate(382.645504 332.473228)rotate(-25)">South America</text>
     </g>
    </g>
   </g>
   <g id="matplotlib.axis_2">
    <g id="ytick_1">
     <g id="line2d_6">
      <defs>
       <path d="M 0 0 
L -3.5 0 
" id="ma3c5a1db22" style="stroke:#000000;stroke-width:0.8;"/>
      </defs>
      <g>
       <use style="stroke:#000000;stroke-width:0.8;" x="33.64" xlink:href="#ma3c5a1db22" y="291.322725"/>
      </g>
     </g>
     <g id="text_6">
      <text style="font-family:DejaVu Sans;font-size:10px;font-style:normal;font-weight:normal;text-anchor:end;" transform="rotate(-0, 26.64, 295.121944)" x="26.64" y="295.121944">0.0</text>
     </g>
    </g>
    <g id="ytick_2">
     <g id="line2d_7">
      <g>
       <use style="stroke:#000000;stroke-width:0.8;" x="33.64" xlink:href="#ma3c5a1db22" y="247.195309"/>
      </g>
     </g>
     <g id="text_7">
      <text style="font-family:DejaVu Sans;font-size:10px;font-style:normal;font-weight:normal;text-anchor:end;" transform="rotate(-0, 26.64, 250.994527)" x="26.64" y="250.994527">0.1</text>
     </g>
    </g>
    <g id="ytick_3">
     <g id="line2d_8">
      <g>
       <use style="stroke:#000000;stroke-width:0.8;" x="33.64" xlink:href="#ma3c5a1db22" y="203.067892"/>
      </g>
     </g>
     <g id="text_8">
      <text style="font-family:DejaVu Sans;font-size:10px;font-style:normal;font-weight:normal;text-anchor:end;" transform="rotate(-0, 26.64, 206.867111)" x="26.64" y="206.867111">0.2</text>
     </g>
    </g>
    <g id="ytick_4">
     <g id="line2d_9">
      <g>
       <use style="stroke:#000000;stroke-width:0.8;" x="33.64" xlink:href="#ma3c5a1db22" y="158.940475"/>
      </g>
     </g>
     <g id="text_9">
      <text style="font-family:DejaVu Sans;font-size:10px;font-style:normal;font-weight:normal;text-anchor:end;" transform="rotate(-0, 26.64, 162.739694)" x="26.64" y="162.739694">0.3</text>
     </g>
    </g>
    <g id="ytick_5">
     <g id="line2d_10">
      <g>
       <use style="stroke:#000000;stroke-width:0.8;" x="33.64" xlink:href="#ma3c5a1db22" y="114.813058"/>
      </g>
     </g>
     <g id="text_10">
      <text style="font-family:DejaVu Sans;font-size:10px;font-style:normal;font-weight:normal;text-anchor:end;" transform="rotate(-0, 26.64, 118.612277)" x="26.64" y="118.612277">0.4</text>
     </g>
    </g>
    <g id="ytick_6">
     <g id="line2d_11">
      <g>
       <use style="stroke:#000000;stroke-width:0.8;" x="33.64" xlink:href="#ma3c5a1db22" y="70.685642"/>
      </g>
     </g>
     <g id="text_11">
      <text style="font-family:DejaVu Sans;font-size:10px;font-style:normal;font-weight:normal;text-anchor:end;" transform="rotate(-0, 26.64, 74.484861)" x="26.64" y="74.484861">0.5</text>
     </g>
    </g>
    <g id="ytick_7">
     <g id="line2d_12">
      <g>
       <use style="stroke:#000000;stroke-width:0.8;" x="33.64" xlink:href="#ma3c5a1db22" y="26.558225"/>
      </g>
     </g>
     <g id="text_12">
      <text style="font-family:DejaVu Sans;font-size:10px;font-style:normal;font-weight:normal;text-anchor:end;" transform="rotate(-0, 26.64, 30.357444)" x="26.64" y="30.357444">0.6</text>
     </g>
    </g>
   </g>
   <g id="patch_13">
    <path d="M 33.64 291.322725 
L 33.64 13.32 
" style="fill:none;stroke:#000000;stroke-linecap:square;stroke-linejoin:miter;stroke-width:0.8;"/>
   </g>
   <g id="patch_14">
    <path d="M 447.48 291.322725 
L 447.48 13.32 
" style="fill:none;stroke:#000000;stroke-linecap:square;stroke-linejoin:miter;stroke-width:0.8;"/>
   </g>
   <g id="patch_15">
    <path d="M 33.64 291.322725 
L 447.48 291.322725 
" style="fill:none;stroke:#000000;stroke-linecap:square;stroke-linejoin:miter;stroke-width:0.8;"/>
   </g>
   <g id="patch_16">
    <path d="M 33.64 13.32 
L 447.48 13.32 
" style="fill:none;stroke:#000000;stroke-linecap:square;stroke-linejoin:miter;stroke-width:0.8;"/>
   </g>
   <g id="legend_1">
    <g id="patch_17">
     <path d="M 207.842031 286.322725 
L 273.277969 286.322725 
Q 275.277969 286.322725 275.277969 284.322725 
L 275.277969 255.966475 
Q 275.277969 253.966475 273.277969 253.966475 
L 207.842031 253.966475 
Q 205.842031 253.966475 205.842031 255.966475 
L 205.842031 284.322725 
Q 205.842031 286.322725 207.842031 286.322725 
z
" style="fill:#ffffff;opacity:0.8;stroke:#cccccc;stroke-linejoin:miter;"/>
    </g>
    <g id="patch_18">
     <path d="M 209.842031 265.564913 
L 229.842031 265.564913 
L 229.842031 258.564913 
L 209.842031 258.564913 
z
" style="fill:#1f77b4;"/>
    </g>
    <g id="text_13">
     <text style="font-family:DejaVu Sans;font-size:10px;font-style:normal;font-weight:normal;text-anchor:start;" transform="rotate(-0, 237.842031, 265.564913)" x="237.842031" y="265.564913">Scores</text>
    </g>
    <g id="patch_19">
     <path d="M 209.842031 280.243038 
L 229.842031 280.243038 
L 229.842031 273.243038 
L 209.842031 273.243038 
z
" style="fill:#ff7f0e;"/>
    </g>
    <g id="text_14">
     <text style="font-family:DejaVu Sans;font-size:10px;font-style:normal;font-weight:normal;text-anchor:start;" transform="rotate(-0, 237.842031, 280.243038)" x="237.842031" y="280.243038">Bases</text>
    </g>
   </g>
  </g>
 </g>
 <defs>
  <clipPath id="p933cafdc64">
   <rect height="278.002725" width="413.84" x="33.64" y="13.32"/>
  </clipPath>
 </defs>
</svg>
