<?xml version="1.0" encoding="utf-8" standalone="no"?>
<!DOCTYPE svg PUBLIC "-//W3C//DTD SVG 1.1//EN"
  "http://www.w3.org/Graphics/SVG/1.1/DTD/svg11.dtd">
<!-- Created with matplotlib (http://matplotlib.org/) -->
<svg height="345.6pt" version="1.1" viewBox="0 0 460.8 345.6" width="460.8pt" xmlns="http://www.w3.org/2000/svg" xmlns:xlink="http://www.w3.org/1999/xlink">
 <defs>
  <style type="text/css">
*{stroke-linecap:butt;stroke-linejoin:round;}
  </style>
 </defs>
 <g id="figure_1">
  <g id="patch_1">
   <path d="M 0 345.6 
L 460.8 345.6 
L 460.8 0 
L 0 0 
z
" style="fill:#ffffff;"/>
  </g>
  <g id="axes_1">
   <g id="patch_2">
    <path d="M 33.64 295.581689 
L 447.366794 295.581689 
L 447.366794 13.32 
L 33.64 13.32 
z
" style="fill:#ffffff;"/>
   </g>
   <g id="patch_3">
    <path clip-path="url(#p02cfc67fcc)" d="M 52.445763 295.581689 
L 61.400889 295.581689 
L 61.400889 26.761033 
L 52.445763 26.761033 
z
" style="fill:#1f77b4;"/>
   </g>
   <g id="patch_4">
    <path clip-path="url(#p02cfc67fcc)" d="M 97.22139 295.581689 
L 106.176516 295.581689 
L 106.176516 183.573082 
L 97.22139 183.573082 
z
" style="fill:#1f77b4;"/>
   </g>
   <g id="patch_5">
    <path clip-path="url(#p02cfc67fcc)" d="M 141.997017 295.581689 
L 150.952143 295.581689 
L 150.952143 96.953093 
L 141.997017 96.953093 
z
" style="fill:#1f77b4;"/>
   </g>
   <g id="patch_6">
    <path clip-path="url(#p02cfc67fcc)" d="M 186.772644 295.581689 
L 195.72777 295.581689 
L 195.72777 141.009812 
L 186.772644 141.009812 
z
" style="fill:#1f77b4;"/>
   </g>
   <g id="patch_7">
    <path clip-path="url(#p02cfc67fcc)" d="M 231.548271 295.581689 
L 240.503397 295.581689 
L 240.503397 116.367918 
L 231.548271 116.367918 
z
" style="fill:#1f77b4;"/>
   </g>
   <g id="patch_8">
    <path clip-path="url(#p02cfc67fcc)" d="M 276.323898 295.581689 
L 285.279024 295.581689 
L 285.279024 101.082038 
L 276.323898 101.082038 
z
" style="fill:#1f77b4;"/>
   </g>
   <g id="patch_9">
    <path clip-path="url(#p02cfc67fcc)" d="M 321.099525 295.581689 
L 330.054651 295.581689 
L 330.054651 178.403454 
L 321.099525 178.403454 
z
" style="fill:#1f77b4;"/>
   </g>
   <g id="patch_10">
    <path clip-path="url(#p02cfc67fcc)" d="M 365.875152 295.581689 
L 374.830278 295.581689 
L 374.830278 235.843765 
L 365.875152 235.843765 
z
" style="fill:#1f77b4;"/>
   </g>
   <g id="patch_11">
    <path clip-path="url(#p02cfc67fcc)" d="M 410.650779 295.581689 
L 419.605905 295.581689 
L 419.605905 163.731558 
L 410.650779 163.731558 
z
" style="fill:#1f77b4;"/>
   </g>
   <g id="patch_12">
    <path clip-path="url(#p02cfc67fcc)" d="M 61.400889 295.581689 
L 70.356014 295.581689 
L 70.356014 26.761033 
L 61.400889 26.761033 
z
" style="fill:#ff7f0e;"/>
   </g>
   <g id="patch_13">
    <path clip-path="url(#p02cfc67fcc)" d="M 106.176516 295.581689 
L 115.131641 295.581689 
L 115.131641 161.171361 
L 106.176516 161.171361 
z
" style="fill:#ff7f0e;"/>
   </g>
   <g id="patch_14">
    <path clip-path="url(#p02cfc67fcc)" d="M 150.952143 295.581689 
L 159.907268 295.581689 
L 159.907268 141.756536 
L 150.952143 141.756536 
z
" style="fill:#ff7f0e;"/>
   </g>
   <g id="patch_15">
    <path clip-path="url(#p02cfc67fcc)" d="M 195.72777 295.581689 
L 204.682895 295.581689 
L 204.682895 174.612394 
L 195.72777 174.612394 
z
" style="fill:#ff7f0e;"/>
   </g>
   <g id="patch_16">
    <path clip-path="url(#p02cfc67fcc)" d="M 240.503397 295.581689 
L 249.458522 295.581689 
L 249.458522 116.367918 
L 240.503397 116.367918 
z
" style="fill:#ff7f0e;"/>
   </g>
   <g id="patch_17">
    <path clip-path="url(#p02cfc67fcc)" d="M 285.279024 295.581689 
L 294.234149 295.581689 
L 294.234149 116.895017 
L 285.279024 116.895017 
z
" style="fill:#ff7f0e;"/>
   </g>
   <g id="patch_18">
    <path clip-path="url(#p02cfc67fcc)" d="M 330.054651 295.581689 
L 339.009776 295.581689 
L 339.009776 185.296291 
L 330.054651 185.296291 
z
" style="fill:#ff7f0e;"/>
   </g>
   <g id="patch_19">
    <path clip-path="url(#p02cfc67fcc)" d="M 374.830278 295.581689 
L 383.785403 295.581689 
L 383.785403 168.638601 
L 374.830278 168.638601 
z
" style="fill:#ff7f0e;"/>
   </g>
   <g id="patch_20">
    <path clip-path="url(#p02cfc67fcc)" d="M 419.605905 295.581689 
L 428.56103 295.581689 
L 428.56103 156.21098 
L 419.605905 156.21098 
z
" style="fill:#ff7f0e;"/>
   </g>
   <g id="matplotlib.axis_1">
    <g id="xtick_1">
     <g id="line2d_1">
      <defs>
       <path d="M 0 0 
L 0 3.5 
" id="m0d9d704f3a" style="stroke:#000000;stroke-width:0.8;"/>
      </defs>
      <g>
       <use style="stroke:#000000;stroke-width:0.8;" x="61.400889" xlink:href="#m0d9d704f3a" y="295.581689"/>
      </g>
     </g>
     <g id="text_1">
      <text style="font-family:DejaVu Sans;font-size:9px;font-style:normal;font-weight:normal;" transform="translate(18.869029 332.324473)rotate(-15)">Complex Sentences</text>
     </g>
    </g>
    <g id="xtick_2">
     <g id="line2d_2">
      <g>
       <use style="stroke:#000000;stroke-width:0.8;" x="106.176516" xlink:href="#m0d9d704f3a" y="295.581689"/>
      </g>
     </g>
     <g id="text_2">
      <text style="font-family:DejaVu Sans;font-size:9px;font-style:normal;font-weight:normal;" transform="translate(90.139624 318.125862)rotate(-15)">Lexicon</text>
     </g>
    </g>
    <g id="xtick_3">
     <g id="line2d_3">
      <g>
       <use style="stroke:#000000;stroke-width:0.8;" x="150.952143" xlink:href="#m0d9d704f3a" y="295.581689"/>
      </g>
     </g>
     <g id="text_3">
      <text style="font-family:DejaVu Sans;font-size:9px;font-style:normal;font-weight:normal;" transform="translate(126.02496 322.890154)rotate(-15)">Morphology</text>
     </g>
    </g>
    <g id="xtick_4">
     <g id="line2d_4">
      <g>
       <use style="stroke:#000000;stroke-width:0.8;" x="195.72777" xlink:href="#m0d9d704f3a" y="295.581689"/>
      </g>
     </g>
     <g id="text_4">
      <text style="font-family:DejaVu Sans;font-size:9px;font-style:normal;font-weight:normal;" transform="translate(153.580318 332.118469)rotate(-15)">Nominal Categories</text>
     </g>
    </g>
    <g id="xtick_5">
     <g id="line2d_5">
      <g>
       <use style="stroke:#000000;stroke-width:0.8;" x="240.503397" xlink:href="#m0d9d704f3a" y="295.581689"/>
      </g>
     </g>
     <g id="text_5">
      <text style="font-family:DejaVu Sans;font-size:9px;font-style:normal;font-weight:normal;" transform="translate(206.758595 327.615503)rotate(-15)">Nominal Syntax</text>
     </g>
    </g>
    <g id="xtick_6">
     <g id="line2d_6">
      <g>
       <use style="stroke:#000000;stroke-width:0.8;" x="285.279024" xlink:href="#m0d9d704f3a" y="295.581689"/>
      </g>
     </g>
     <g id="text_6">
      <text style="font-family:DejaVu Sans;font-size:9px;font-style:normal;font-weight:normal;" transform="translate(263.272937 321.324744)rotate(-15)">Phonology</text>
     </g>
    </g>
    <g id="xtick_7">
     <g id="line2d_7">
      <g>
       <use style="stroke:#000000;stroke-width:0.8;" x="330.054651" xlink:href="#m0d9d704f3a" y="295.581689"/>
      </g>
     </g>
     <g id="text_7">
      <text style="font-family:DejaVu Sans;font-size:9px;font-style:normal;font-weight:normal;" transform="translate(297.609094 326.919239)rotate(-15)">Simple Clauses</text>
     </g>
    </g>
    <g id="xtick_8">
     <g id="line2d_8">
      <g>
       <use style="stroke:#000000;stroke-width:0.8;" x="374.830278" xlink:href="#m0d9d704f3a" y="295.581689"/>
      </g>
     </g>
     <g id="text_8">
      <text style="font-family:DejaVu Sans;font-size:9px;font-style:normal;font-weight:normal;" transform="translate(336.600939 330.018759)rotate(-15)">Verbal Categories</text>
     </g>
    </g>
    <g id="xtick_9">
     <g id="line2d_9">
      <g>
       <use style="stroke:#000000;stroke-width:0.8;" x="419.605905" xlink:href="#m0d9d704f3a" y="295.581689"/>
      </g>
     </g>
     <g id="text_9">
      <text style="font-family:DejaVu Sans;font-size:9px;font-style:normal;font-weight:normal;" transform="translate(394.938843 322.750756)rotate(-15)">Word Order</text>
     </g>
    </g>
   </g>
   <g id="matplotlib.axis_2">
    <g id="ytick_1">
     <g id="line2d_10">
      <defs>
       <path d="M 0 0 
L -3.5 0 
" id="m0f7e7e253f" style="stroke:#000000;stroke-width:0.8;"/>
      </defs>
      <g>
       <use style="stroke:#000000;stroke-width:0.8;" x="33.64" xlink:href="#m0f7e7e253f" y="295.581689"/>
      </g>
     </g>
     <g id="text_10">
      <text style="font-family:DejaVu Sans;font-size:10px;font-style:normal;font-weight:normal;text-anchor:end;" transform="rotate(-0, 26.64, 299.380908)" x="26.64" y="299.380908">0.0</text>
     </g>
    </g>
    <g id="ytick_2">
     <g id="line2d_11">
      <g>
       <use style="stroke:#000000;stroke-width:0.8;" x="33.64" xlink:href="#m0f7e7e253f" y="241.817558"/>
      </g>
     </g>
     <g id="text_11">
      <text style="font-family:DejaVu Sans;font-size:10px;font-style:normal;font-weight:normal;text-anchor:end;" transform="rotate(-0, 26.64, 245.616776)" x="26.64" y="245.616776">0.2</text>
     </g>
    </g>
    <g id="ytick_3">
     <g id="line2d_12">
      <g>
       <use style="stroke:#000000;stroke-width:0.8;" x="33.64" xlink:href="#m0f7e7e253f" y="188.053426"/>
      </g>
     </g>
     <g id="text_12">
      <text style="font-family:DejaVu Sans;font-size:10px;font-style:normal;font-weight:normal;text-anchor:end;" transform="rotate(-0, 26.64, 191.852645)" x="26.64" y="191.852645">0.4</text>
     </g>
    </g>
    <g id="ytick_4">
     <g id="line2d_13">
      <g>
       <use style="stroke:#000000;stroke-width:0.8;" x="33.64" xlink:href="#m0f7e7e253f" y="134.289295"/>
      </g>
     </g>
     <g id="text_13">
      <text style="font-family:DejaVu Sans;font-size:10px;font-style:normal;font-weight:normal;text-anchor:end;" transform="rotate(-0, 26.64, 138.088514)" x="26.64" y="138.088514">0.6</text>
     </g>
    </g>
    <g id="ytick_5">
     <g id="line2d_14">
      <g>
       <use style="stroke:#000000;stroke-width:0.8;" x="33.64" xlink:href="#m0f7e7e253f" y="80.525164"/>
      </g>
     </g>
     <g id="text_14">
      <text style="font-family:DejaVu Sans;font-size:10px;font-style:normal;font-weight:normal;text-anchor:end;" transform="rotate(-0, 26.64, 84.324383)" x="26.64" y="84.324383">0.8</text>
     </g>
    </g>
    <g id="ytick_6">
     <g id="line2d_15">
      <g>
       <use style="stroke:#000000;stroke-width:0.8;" x="33.64" xlink:href="#m0f7e7e253f" y="26.761033"/>
      </g>
     </g>
     <g id="text_15">
      <text style="font-family:DejaVu Sans;font-size:10px;font-style:normal;font-weight:normal;text-anchor:end;" transform="rotate(-0, 26.64, 30.560252)" x="26.64" y="30.560252">1.0</text>
     </g>
    </g>
   </g>
   <g id="patch_21">
    <path d="M 33.64 295.581689 
L 33.64 13.32 
" style="fill:none;stroke:#000000;stroke-linecap:square;stroke-linejoin:miter;stroke-width:0.8;"/>
   </g>
   <g id="patch_22">
    <path d="M 447.366794 295.581689 
L 447.366794 13.32 
" style="fill:none;stroke:#000000;stroke-linecap:square;stroke-linejoin:miter;stroke-width:0.8;"/>
   </g>
   <g id="patch_23">
    <path d="M 33.64 295.581689 
L 447.366794 295.581689 
" style="fill:none;stroke:#000000;stroke-linecap:square;stroke-linejoin:miter;stroke-width:0.8;"/>
   </g>
   <g id="patch_24">
    <path d="M 33.64 13.32 
L 447.366794 13.32 
" style="fill:none;stroke:#000000;stroke-linecap:square;stroke-linejoin:miter;stroke-width:0.8;"/>
   </g>
   <g id="legend_1">
    <g id="patch_25">
     <path d="M 374.930856 50.67625 
L 440.366794 50.67625 
Q 442.366794 50.67625 442.366794 48.67625 
L 442.366794 20.32 
Q 442.366794 18.32 440.366794 18.32 
L 374.930856 18.32 
Q 372.930856 18.32 372.930856 20.32 
L 372.930856 48.67625 
Q 372.930856 50.67625 374.930856 50.67625 
z
" style="fill:#ffffff;opacity:0.8;stroke:#cccccc;stroke-linejoin:miter;"/>
    </g>
    <g id="patch_26">
     <path d="M 376.930856 29.918437 
L 396.930856 29.918437 
L 396.930856 22.918437 
L 376.930856 22.918437 
z
" style="fill:#1f77b4;"/>
    </g>
    <g id="text_16">
     <text style="font-family:DejaVu Sans;font-size:10px;font-style:normal;font-weight:normal;text-anchor:start;" transform="rotate(-0, 404.930856, 29.918437)" x="404.930856" y="29.918437">Scores</text>
    </g>
    <g id="patch_27">
     <path d="M 376.930856 44.596563 
L 396.930856 44.596563 
L 396.930856 37.596563 
L 376.930856 37.596563 
z
" style="fill:#ff7f0e;"/>
    </g>
    <g id="text_17">
     <text style="font-family:DejaVu Sans;font-size:10px;font-style:normal;font-weight:normal;text-anchor:start;" transform="rotate(-0, 404.930856, 44.596563)" x="404.930856" y="44.596563">Bases</text>
    </g>
   </g>
  </g>
 </g>
 <defs>
  <clipPath id="p02cfc67fcc">
   <rect height="282.261689" width="413.726794" x="33.64" y="13.32"/>
  </clipPath>
 </defs>
</svg>
