<?xml version="1.0" encoding="utf-8" standalone="no"?>
<!DOCTYPE svg PUBLIC "-//W3C//DTD SVG 1.1//EN"
  "http://www.w3.org/Graphics/SVG/1.1/DTD/svg11.dtd">
<!-- Created with matplotlib (http://matplotlib.org/) -->
<svg height="345.6pt" version="1.1" viewBox="0 0 460.8 345.6" width="460.8pt" xmlns="http://www.w3.org/2000/svg" xmlns:xlink="http://www.w3.org/1999/xlink">
 <defs>
  <style type="text/css">
*{stroke-linecap:butt;stroke-linejoin:round;}
  </style>
 </defs>
 <g id="figure_1">
  <g id="patch_1">
   <path d="M 0 345.6 
L 460.8 345.6 
L 460.8 0 
L 0 0 
z
" style="fill:#ffffff;"/>
  </g>
  <g id="axes_1">
   <g id="patch_2">
    <path d="M 33.64 312.208295 
L 447.48 312.208295 
L 447.48 13.32 
L 33.64 13.32 
z
" style="fill:#ffffff;"/>
   </g>
   <g id="patch_3">
    <path clip-path="url(#p855d609fca)" d="M 52.450909 312.208295 
L 55.413257 312.208295 
L 55.413257 153.612173 
L 52.450909 153.612173 
z
" style="fill:#1f77b4;"/>
   </g>
   <g id="patch_4">
    <path clip-path="url(#p855d609fca)" d="M 67.262649 312.208295 
L 70.224996 312.208295 
L 70.224996 149.061895 
L 67.262649 149.061895 
z
" style="fill:#1f77b4;"/>
   </g>
   <g id="patch_5">
    <path clip-path="url(#p855d609fca)" d="M 82.074388 312.208295 
L 85.036736 312.208295 
L 85.036736 187.470387 
L 82.074388 187.470387 
z
" style="fill:#1f77b4;"/>
   </g>
   <g id="patch_6">
    <path clip-path="url(#p855d609fca)" d="M 96.886127 312.208295 
L 99.848475 312.208295 
L 99.848475 171.030733 
L 96.886127 171.030733 
z
" style="fill:#1f77b4;"/>
   </g>
   <g id="patch_7">
    <path clip-path="url(#p855d609fca)" d="M 111.697867 312.208295 
L 114.660215 312.208295 
L 114.660215 102.785465 
L 111.697867 102.785465 
z
" style="fill:#1f77b4;"/>
   </g>
   <g id="patch_8">
    <path clip-path="url(#p855d609fca)" d="M 126.509606 312.208295 
L 129.471954 312.208295 
L 129.471954 190.966316 
L 126.509606 190.966316 
z
" style="fill:#1f77b4;"/>
   </g>
   <g id="patch_9">
    <path clip-path="url(#p855d609fca)" d="M 141.321346 312.208295 
L 144.283694 312.208295 
L 144.283694 154.841809 
L 141.321346 154.841809 
z
" style="fill:#1f77b4;"/>
   </g>
   <g id="patch_10">
    <path clip-path="url(#p855d609fca)" d="M 156.133085 312.208295 
L 159.095433 312.208295 
L 159.095433 126.503266 
L 156.133085 126.503266 
z
" style="fill:#1f77b4;"/>
   </g>
   <g id="patch_11">
    <path clip-path="url(#p855d609fca)" d="M 170.944825 312.208295 
L 173.907173 312.208295 
L 173.907173 45.781515 
L 170.944825 45.781515 
z
" style="fill:#1f77b4;"/>
   </g>
   <g id="patch_12">
    <path clip-path="url(#p855d609fca)" d="M 185.756564 312.208295 
L 188.718912 312.208295 
L 188.718912 27.552776 
L 185.756564 27.552776 
z
" style="fill:#1f77b4;"/>
   </g>
   <g id="patch_13">
    <path clip-path="url(#p855d609fca)" d="M 200.568304 312.208295 
L 203.530651 312.208295 
L 203.530651 152.994061 
L 200.568304 152.994061 
z
" style="fill:#1f77b4;"/>
   </g>
   <g id="patch_14">
    <path clip-path="url(#p855d609fca)" d="M 215.380043 312.208295 
L 218.342391 312.208295 
L 218.342391 148.374693 
L 215.380043 148.374693 
z
" style="fill:#1f77b4;"/>
   </g>
   <g id="patch_15">
    <path clip-path="url(#p855d609fca)" d="M 230.191782 312.208295 
L 233.15413 312.208295 
L 233.15413 122.849183 
L 230.191782 122.849183 
z
" style="fill:#1f77b4;"/>
   </g>
   <g id="patch_16">
    <path clip-path="url(#p855d609fca)" d="M 245.003522 312.208295 
L 247.96587 312.208295 
L 247.96587 28.497656 
L 245.003522 28.497656 
z
" style="fill:#1f77b4;"/>
   </g>
   <g id="patch_17">
    <path clip-path="url(#p855d609fca)" d="M 259.815261 312.208295 
L 262.777609 312.208295 
L 262.777609 149.439992 
L 259.815261 149.439992 
z
" style="fill:#1f77b4;"/>
   </g>
   <g id="patch_18">
    <path clip-path="url(#p855d609fca)" d="M 274.627001 312.208295 
L 277.589349 312.208295 
L 277.589349 188.360206 
L 274.627001 188.360206 
z
" style="fill:#1f77b4;"/>
   </g>
   <g id="patch_19">
    <path clip-path="url(#p855d609fca)" d="M 289.43874 312.208295 
L 292.401088 312.208295 
L 292.401088 201.040825 
L 289.43874 201.040825 
z
" style="fill:#1f77b4;"/>
   </g>
   <g id="patch_20">
    <path clip-path="url(#p855d609fca)" d="M 304.25048 312.208295 
L 307.212827 312.208295 
L 307.212827 83.913577 
L 304.25048 83.913577 
z
" style="fill:#1f77b4;"/>
   </g>
   <g id="patch_21">
    <path clip-path="url(#p855d609fca)" d="M 319.062219 312.208295 
L 322.024567 312.208295 
L 322.024567 104.809781 
L 319.062219 104.809781 
z
" style="fill:#1f77b4;"/>
   </g>
   <g id="patch_22">
    <path clip-path="url(#p855d609fca)" d="M 333.873958 312.208295 
L 336.836306 312.208295 
L 336.836306 205.137547 
L 333.873958 205.137547 
z
" style="fill:#1f77b4;"/>
   </g>
   <g id="patch_23">
    <path clip-path="url(#p855d609fca)" d="M 348.685698 312.208295 
L 351.648046 312.208295 
L 351.648046 157.083543 
L 348.685698 157.083543 
z
" style="fill:#1f77b4;"/>
   </g>
   <g id="patch_24">
    <path clip-path="url(#p855d609fca)" d="M 363.497437 312.208295 
L 366.459785 312.208295 
L 366.459785 77.46427 
L 363.497437 77.46427 
z
" style="fill:#1f77b4;"/>
   </g>
   <g id="patch_25">
    <path clip-path="url(#p855d609fca)" d="M 378.309177 312.208295 
L 381.271525 312.208295 
L 381.271525 101.616055 
L 378.309177 101.616055 
z
" style="fill:#1f77b4;"/>
   </g>
   <g id="patch_26">
    <path clip-path="url(#p855d609fca)" d="M 393.120916 312.208295 
L 396.083264 312.208295 
L 396.083264 182.759377 
L 393.120916 182.759377 
z
" style="fill:#1f77b4;"/>
   </g>
   <g id="patch_27">
    <path clip-path="url(#p855d609fca)" d="M 407.932656 312.208295 
L 410.895004 312.208295 
L 410.895004 125.04096 
L 407.932656 125.04096 
z
" style="fill:#1f77b4;"/>
   </g>
   <g id="patch_28">
    <path clip-path="url(#p855d609fca)" d="M 422.744395 312.208295 
L 425.706743 312.208295 
L 425.706743 171.696582 
L 422.744395 171.696582 
z
" style="fill:#1f77b4;"/>
   </g>
   <g id="patch_29">
    <path clip-path="url(#p855d609fca)" d="M 55.413257 312.208295 
L 58.375605 312.208295 
L 58.375605 157.923584 
L 55.413257 157.923584 
z
" style="fill:#ff7f0e;"/>
   </g>
   <g id="patch_30">
    <path clip-path="url(#p855d609fca)" d="M 70.224996 312.208295 
L 73.187344 312.208295 
L 73.187344 143.04531 
L 70.224996 143.04531 
z
" style="fill:#ff7f0e;"/>
   </g>
   <g id="patch_31">
    <path clip-path="url(#p855d609fca)" d="M 85.036736 312.208295 
L 87.999084 312.208295 
L 87.999084 188.564571 
L 85.036736 188.564571 
z
" style="fill:#ff7f0e;"/>
   </g>
   <g id="patch_32">
    <path clip-path="url(#p855d609fca)" d="M 99.848475 312.208295 
L 102.810823 312.208295 
L 102.810823 179.034894 
L 99.848475 179.034894 
z
" style="fill:#ff7f0e;"/>
   </g>
   <g id="patch_33">
    <path clip-path="url(#p855d609fca)" d="M 114.660215 312.208295 
L 117.622563 312.208295 
L 117.622563 111.328552 
L 114.660215 111.328552 
z
" style="fill:#ff7f0e;"/>
   </g>
   <g id="patch_34">
    <path clip-path="url(#p855d609fca)" d="M 129.471954 312.208295 
L 132.434302 312.208295 
L 132.434302 167.68067 
L 129.471954 167.68067 
z
" style="fill:#ff7f0e;"/>
   </g>
   <g id="patch_35">
    <path clip-path="url(#p855d609fca)" d="M 144.283694 312.208295 
L 147.246042 312.208295 
L 147.246042 154.841809 
L 144.283694 154.841809 
z
" style="fill:#ff7f0e;"/>
   </g>
   <g id="patch_36">
    <path clip-path="url(#p855d609fca)" d="M 159.095433 312.208295 
L 162.057781 312.208295 
L 162.057781 115.634919 
L 159.095433 115.634919 
z
" style="fill:#ff7f0e;"/>
   </g>
   <g id="patch_37">
    <path clip-path="url(#p855d609fca)" d="M 173.907173 312.208295 
L 176.86952 312.208295 
L 176.86952 45.781515 
L 173.907173 45.781515 
z
" style="fill:#ff7f0e;"/>
   </g>
   <g id="patch_38">
    <path clip-path="url(#p855d609fca)" d="M 188.718912 312.208295 
L 191.68126 312.208295 
L 191.68126 27.552776 
L 188.718912 27.552776 
z
" style="fill:#ff7f0e;"/>
   </g>
   <g id="patch_39">
    <path clip-path="url(#p855d609fca)" d="M 203.530651 312.208295 
L 206.492999 312.208295 
L 206.492999 135.132503 
L 203.530651 135.132503 
z
" style="fill:#ff7f0e;"/>
   </g>
   <g id="patch_40">
    <path clip-path="url(#p855d609fca)" d="M 218.342391 312.208295 
L 221.304739 312.208295 
L 221.304739 135.132503 
L 218.342391 135.132503 
z
" style="fill:#ff7f0e;"/>
   </g>
   <g id="patch_41">
    <path clip-path="url(#p855d609fca)" d="M 233.15413 312.208295 
L 236.116478 312.208295 
L 236.116478 107.361855 
L 233.15413 107.361855 
z
" style="fill:#ff7f0e;"/>
   </g>
   <g id="patch_42">
    <path clip-path="url(#p855d609fca)" d="M 247.96587 312.208295 
L 250.928218 312.208295 
L 250.928218 28.497656 
L 247.96587 28.497656 
z
" style="fill:#ff7f0e;"/>
   </g>
   <g id="patch_43">
    <path clip-path="url(#p855d609fca)" d="M 262.777609 312.208295 
L 265.739957 312.208295 
L 265.739957 161.486428 
L 262.777609 161.486428 
z
" style="fill:#ff7f0e;"/>
   </g>
   <g id="patch_44">
    <path clip-path="url(#p855d609fca)" d="M 277.589349 312.208295 
L 280.551696 312.208295 
L 280.551696 212.746012 
L 277.589349 212.746012 
z
" style="fill:#ff7f0e;"/>
   </g>
   <g id="patch_45">
    <path clip-path="url(#p855d609fca)" d="M 292.401088 312.208295 
L 295.363436 312.208295 
L 295.363436 188.063335 
L 292.401088 188.063335 
z
" style="fill:#ff7f0e;"/>
   </g>
   <g id="patch_46">
    <path clip-path="url(#p855d609fca)" d="M 307.212827 312.208295 
L 310.175175 312.208295 
L 310.175175 78.739884 
L 307.212827 78.739884 
z
" style="fill:#ff7f0e;"/>
   </g>
   <g id="patch_47">
    <path clip-path="url(#p855d609fca)" d="M 322.024567 312.208295 
L 324.986915 312.208295 
L 324.986915 102.051526 
L 322.024567 102.051526 
z
" style="fill:#ff7f0e;"/>
   </g>
   <g id="patch_48">
    <path clip-path="url(#p855d609fca)" d="M 336.836306 312.208295 
L 339.798654 312.208295 
L 339.798654 187.724419 
L 336.836306 187.724419 
z
" style="fill:#ff7f0e;"/>
   </g>
   <g id="patch_49">
    <path clip-path="url(#p855d609fca)" d="M 351.648046 312.208295 
L 354.610394 312.208295 
L 354.610394 218.147106 
L 351.648046 218.147106 
z
" style="fill:#ff7f0e;"/>
   </g>
   <g id="patch_50">
    <path clip-path="url(#p855d609fca)" d="M 366.459785 312.208295 
L 369.422133 312.208295 
L 369.422133 88.858712 
L 366.459785 88.858712 
z
" style="fill:#ff7f0e;"/>
   </g>
   <g id="patch_51">
    <path clip-path="url(#p855d609fca)" d="M 381.271525 312.208295 
L 384.233873 312.208295 
L 384.233873 107.645546 
L 381.271525 107.645546 
z
" style="fill:#ff7f0e;"/>
   </g>
   <g id="patch_52">
    <path clip-path="url(#p855d609fca)" d="M 396.083264 312.208295 
L 399.045612 312.208295 
L 399.045612 259.251381 
L 396.083264 259.251381 
z
" style="fill:#ff7f0e;"/>
   </g>
   <g id="patch_53">
    <path clip-path="url(#p855d609fca)" d="M 410.895004 312.208295 
L 413.857351 312.208295 
L 413.857351 134.990369 
L 410.895004 134.990369 
z
" style="fill:#ff7f0e;"/>
   </g>
   <g id="patch_54">
    <path clip-path="url(#p855d609fca)" d="M 425.706743 312.208295 
L 428.669091 312.208295 
L 428.669091 186.514094 
L 425.706743 186.514094 
z
" style="fill:#ff7f0e;"/>
   </g>
   <g id="matplotlib.axis_1">
    <g id="xtick_1">
     <g id="line2d_1">
      <defs>
       <path d="M 0 0 
L 0 3.5 
" id="m1c0f0d1717" style="stroke:#000000;stroke-width:0.8;"/>
      </defs>
      <g>
       <use style="stroke:#000000;stroke-width:0.8;" x="55.413257" xlink:href="#m1c0f0d1717" y="312.208295"/>
      </g>
     </g>
     <g id="text_1">
      <text style="font-family:DejaVu Sans;font-size:6px;font-style:normal;font-weight:normal;" transform="translate(51.083775 333.432411)rotate(-45)">100A</text>
     </g>
    </g>
    <g id="xtick_2">
     <g id="line2d_2">
      <g>
       <use style="stroke:#000000;stroke-width:0.8;" x="70.224996" xlink:href="#m1c0f0d1717" y="312.208295"/>
      </g>
     </g>
     <g id="text_2">
      <text style="font-family:DejaVu Sans;font-size:6px;font-style:normal;font-weight:normal;" transform="translate(65.895514 333.432411)rotate(-45)">101A</text>
     </g>
    </g>
    <g id="xtick_3">
     <g id="line2d_3">
      <g>
       <use style="stroke:#000000;stroke-width:0.8;" x="85.036736" xlink:href="#m1c0f0d1717" y="312.208295"/>
      </g>
     </g>
     <g id="text_3">
      <text style="font-family:DejaVu Sans;font-size:6px;font-style:normal;font-weight:normal;" transform="translate(80.707254 333.432411)rotate(-45)">102A</text>
     </g>
    </g>
    <g id="xtick_4">
     <g id="line2d_4">
      <g>
       <use style="stroke:#000000;stroke-width:0.8;" x="99.848475" xlink:href="#m1c0f0d1717" y="312.208295"/>
      </g>
     </g>
     <g id="text_4">
      <text style="font-family:DejaVu Sans;font-size:6px;font-style:normal;font-weight:normal;" transform="translate(95.518993 333.432411)rotate(-45)">103A</text>
     </g>
    </g>
    <g id="xtick_5">
     <g id="line2d_5">
      <g>
       <use style="stroke:#000000;stroke-width:0.8;" x="114.660215" xlink:href="#m1c0f0d1717" y="312.208295"/>
      </g>
     </g>
     <g id="text_5">
      <text style="font-family:DejaVu Sans;font-size:6px;font-style:normal;font-weight:normal;" transform="translate(110.330733 333.432411)rotate(-45)">104A</text>
     </g>
    </g>
    <g id="xtick_6">
     <g id="line2d_6">
      <g>
       <use style="stroke:#000000;stroke-width:0.8;" x="129.471954" xlink:href="#m1c0f0d1717" y="312.208295"/>
      </g>
     </g>
     <g id="text_6">
      <text style="font-family:DejaVu Sans;font-size:6px;font-style:normal;font-weight:normal;" transform="translate(125.142472 333.432411)rotate(-45)">105A</text>
     </g>
    </g>
    <g id="xtick_7">
     <g id="line2d_7">
      <g>
       <use style="stroke:#000000;stroke-width:0.8;" x="144.283694" xlink:href="#m1c0f0d1717" y="312.208295"/>
      </g>
     </g>
     <g id="text_7">
      <text style="font-family:DejaVu Sans;font-size:6px;font-style:normal;font-weight:normal;" transform="translate(139.954211 333.432411)rotate(-45)">106A</text>
     </g>
    </g>
    <g id="xtick_8">
     <g id="line2d_8">
      <g>
       <use style="stroke:#000000;stroke-width:0.8;" x="159.095433" xlink:href="#m1c0f0d1717" y="312.208295"/>
      </g>
     </g>
     <g id="text_8">
      <text style="font-family:DejaVu Sans;font-size:6px;font-style:normal;font-weight:normal;" transform="translate(154.765951 333.432411)rotate(-45)">107A</text>
     </g>
    </g>
    <g id="xtick_9">
     <g id="line2d_9">
      <g>
       <use style="stroke:#000000;stroke-width:0.8;" x="173.907173" xlink:href="#m1c0f0d1717" y="312.208295"/>
      </g>
     </g>
     <g id="text_9">
      <text style="font-family:DejaVu Sans;font-size:6px;font-style:normal;font-weight:normal;" transform="translate(169.57769 333.432411)rotate(-45)">108A</text>
     </g>
    </g>
    <g id="xtick_10">
     <g id="line2d_10">
      <g>
       <use style="stroke:#000000;stroke-width:0.8;" x="188.718912" xlink:href="#m1c0f0d1717" y="312.208295"/>
      </g>
     </g>
     <g id="text_10">
      <text style="font-family:DejaVu Sans;font-size:6px;font-style:normal;font-weight:normal;" transform="translate(184.385121 333.441029)rotate(-45)">108B</text>
     </g>
    </g>
    <g id="xtick_11">
     <g id="line2d_11">
      <g>
       <use style="stroke:#000000;stroke-width:0.8;" x="203.530651" xlink:href="#m1c0f0d1717" y="312.208295"/>
      </g>
     </g>
     <g id="text_11">
      <text style="font-family:DejaVu Sans;font-size:6px;font-style:normal;font-weight:normal;" transform="translate(199.201169 333.432411)rotate(-45)">109A</text>
     </g>
    </g>
    <g id="xtick_12">
     <g id="line2d_12">
      <g>
       <use style="stroke:#000000;stroke-width:0.8;" x="218.342391" xlink:href="#m1c0f0d1717" y="312.208295"/>
      </g>
     </g>
     <g id="text_12">
      <text style="font-family:DejaVu Sans;font-size:6px;font-style:normal;font-weight:normal;" transform="translate(214.0086 333.441029)rotate(-45)">109B</text>
     </g>
    </g>
    <g id="xtick_13">
     <g id="line2d_13">
      <g>
       <use style="stroke:#000000;stroke-width:0.8;" x="233.15413" xlink:href="#m1c0f0d1717" y="312.208295"/>
      </g>
     </g>
     <g id="text_13">
      <text style="font-family:DejaVu Sans;font-size:6px;font-style:normal;font-weight:normal;" transform="translate(228.824648 333.432411)rotate(-45)">110A</text>
     </g>
    </g>
    <g id="xtick_14">
     <g id="line2d_14">
      <g>
       <use style="stroke:#000000;stroke-width:0.8;" x="247.96587" xlink:href="#m1c0f0d1717" y="312.208295"/>
      </g>
     </g>
     <g id="text_14">
      <text style="font-family:DejaVu Sans;font-size:6px;font-style:normal;font-weight:normal;" transform="translate(243.636387 333.432411)rotate(-45)">111A</text>
     </g>
    </g>
    <g id="xtick_15">
     <g id="line2d_15">
      <g>
       <use style="stroke:#000000;stroke-width:0.8;" x="262.777609" xlink:href="#m1c0f0d1717" y="312.208295"/>
      </g>
     </g>
     <g id="text_15">
      <text style="font-family:DejaVu Sans;font-size:6px;font-style:normal;font-weight:normal;" transform="translate(258.448127 333.432411)rotate(-45)">112A</text>
     </g>
    </g>
    <g id="xtick_16">
     <g id="line2d_16">
      <g>
       <use style="stroke:#000000;stroke-width:0.8;" x="277.589349" xlink:href="#m1c0f0d1717" y="312.208295"/>
      </g>
     </g>
     <g id="text_16">
      <text style="font-family:DejaVu Sans;font-size:6px;font-style:normal;font-weight:normal;" transform="translate(273.259866 333.432411)rotate(-45)">113A</text>
     </g>
    </g>
    <g id="xtick_17">
     <g id="line2d_17">
      <g>
       <use style="stroke:#000000;stroke-width:0.8;" x="292.401088" xlink:href="#m1c0f0d1717" y="312.208295"/>
      </g>
     </g>
     <g id="text_17">
      <text style="font-family:DejaVu Sans;font-size:6px;font-style:normal;font-weight:normal;" transform="translate(288.071606 333.432411)rotate(-45)">114A</text>
     </g>
    </g>
    <g id="xtick_18">
     <g id="line2d_18">
      <g>
       <use style="stroke:#000000;stroke-width:0.8;" x="307.212827" xlink:href="#m1c0f0d1717" y="312.208295"/>
      </g>
     </g>
     <g id="text_18">
      <text style="font-family:DejaVu Sans;font-size:6px;font-style:normal;font-weight:normal;" transform="translate(302.883345 333.432411)rotate(-45)">115A</text>
     </g>
    </g>
    <g id="xtick_19">
     <g id="line2d_19">
      <g>
       <use style="stroke:#000000;stroke-width:0.8;" x="322.024567" xlink:href="#m1c0f0d1717" y="312.208295"/>
      </g>
     </g>
     <g id="text_19">
      <text style="font-family:DejaVu Sans;font-size:6px;font-style:normal;font-weight:normal;" transform="translate(317.695085 333.432411)rotate(-45)">116A</text>
     </g>
    </g>
    <g id="xtick_20">
     <g id="line2d_20">
      <g>
       <use style="stroke:#000000;stroke-width:0.8;" x="336.836306" xlink:href="#m1c0f0d1717" y="312.208295"/>
      </g>
     </g>
     <g id="text_20">
      <text style="font-family:DejaVu Sans;font-size:6px;font-style:normal;font-weight:normal;" transform="translate(332.506824 333.432411)rotate(-45)">117A</text>
     </g>
    </g>
    <g id="xtick_21">
     <g id="line2d_21">
      <g>
       <use style="stroke:#000000;stroke-width:0.8;" x="351.648046" xlink:href="#m1c0f0d1717" y="312.208295"/>
      </g>
     </g>
     <g id="text_21">
      <text style="font-family:DejaVu Sans;font-size:6px;font-style:normal;font-weight:normal;" transform="translate(347.318564 333.432411)rotate(-45)">118A</text>
     </g>
    </g>
    <g id="xtick_22">
     <g id="line2d_22">
      <g>
       <use style="stroke:#000000;stroke-width:0.8;" x="366.459785" xlink:href="#m1c0f0d1717" y="312.208295"/>
      </g>
     </g>
     <g id="text_22">
      <text style="font-family:DejaVu Sans;font-size:6px;font-style:normal;font-weight:normal;" transform="translate(362.130303 333.432411)rotate(-45)">119A</text>
     </g>
    </g>
    <g id="xtick_23">
     <g id="line2d_23">
      <g>
       <use style="stroke:#000000;stroke-width:0.8;" x="381.271525" xlink:href="#m1c0f0d1717" y="312.208295"/>
      </g>
     </g>
     <g id="text_23">
      <text style="font-family:DejaVu Sans;font-size:6px;font-style:normal;font-weight:normal;" transform="translate(376.942042 333.432411)rotate(-45)">120A</text>
     </g>
    </g>
    <g id="xtick_24">
     <g id="line2d_24">
      <g>
       <use style="stroke:#000000;stroke-width:0.8;" x="396.083264" xlink:href="#m1c0f0d1717" y="312.208295"/>
      </g>
     </g>
     <g id="text_24">
      <text style="font-family:DejaVu Sans;font-size:6px;font-style:normal;font-weight:normal;" transform="translate(391.753782 333.432411)rotate(-45)">121A</text>
     </g>
    </g>
    <g id="xtick_25">
     <g id="line2d_25">
      <g>
       <use style="stroke:#000000;stroke-width:0.8;" x="410.895004" xlink:href="#m1c0f0d1717" y="312.208295"/>
      </g>
     </g>
     <g id="text_25">
      <text style="font-family:DejaVu Sans;font-size:6px;font-style:normal;font-weight:normal;" transform="translate(407.915211 330.733031)rotate(-45)">98A</text>
     </g>
    </g>
    <g id="xtick_26">
     <g id="line2d_26">
      <g>
       <use style="stroke:#000000;stroke-width:0.8;" x="425.706743" xlink:href="#m1c0f0d1717" y="312.208295"/>
      </g>
     </g>
     <g id="text_26">
      <text style="font-family:DejaVu Sans;font-size:6px;font-style:normal;font-weight:normal;" transform="translate(422.726951 330.733031)rotate(-45)">99A</text>
     </g>
    </g>
   </g>
   <g id="matplotlib.axis_2">
    <g id="ytick_1">
     <g id="line2d_27">
      <defs>
       <path d="M 0 0 
L -3.5 0 
" id="m0e96f2aead" style="stroke:#000000;stroke-width:0.8;"/>
      </defs>
      <g>
       <use style="stroke:#000000;stroke-width:0.8;" x="33.64" xlink:href="#m0e96f2aead" y="312.208295"/>
      </g>
     </g>
     <g id="text_27">
      <text style="font-family:DejaVu Sans;font-size:10px;font-style:normal;font-weight:normal;text-anchor:end;" transform="rotate(-0, 26.64, 316.007514)" x="26.64" y="316.007514">0.0</text>
     </g>
    </g>
    <g id="ytick_2">
     <g id="line2d_28">
      <g>
       <use style="stroke:#000000;stroke-width:0.8;" x="33.64" xlink:href="#m0e96f2aead" y="247.537137"/>
      </g>
     </g>
     <g id="text_28">
      <text style="font-family:DejaVu Sans;font-size:10px;font-style:normal;font-weight:normal;text-anchor:end;" transform="rotate(-0, 26.64, 251.336355)" x="26.64" y="251.336355">0.2</text>
     </g>
    </g>
    <g id="ytick_3">
     <g id="line2d_29">
      <g>
       <use style="stroke:#000000;stroke-width:0.8;" x="33.64" xlink:href="#m0e96f2aead" y="182.865978"/>
      </g>
     </g>
     <g id="text_29">
      <text style="font-family:DejaVu Sans;font-size:10px;font-style:normal;font-weight:normal;text-anchor:end;" transform="rotate(-0, 26.64, 186.665196)" x="26.64" y="186.665196">0.4</text>
     </g>
    </g>
    <g id="ytick_4">
     <g id="line2d_30">
      <g>
       <use style="stroke:#000000;stroke-width:0.8;" x="33.64" xlink:href="#m0e96f2aead" y="118.194819"/>
      </g>
     </g>
     <g id="text_30">
      <text style="font-family:DejaVu Sans;font-size:10px;font-style:normal;font-weight:normal;text-anchor:end;" transform="rotate(-0, 26.64, 121.994038)" x="26.64" y="121.994038">0.6</text>
     </g>
    </g>
    <g id="ytick_5">
     <g id="line2d_31">
      <g>
       <use style="stroke:#000000;stroke-width:0.8;" x="33.64" xlink:href="#m0e96f2aead" y="53.52366"/>
      </g>
     </g>
     <g id="text_31">
      <text style="font-family:DejaVu Sans;font-size:10px;font-style:normal;font-weight:normal;text-anchor:end;" transform="rotate(-0, 26.64, 57.322879)" x="26.64" y="57.322879">0.8</text>
     </g>
    </g>
   </g>
   <g id="patch_55">
    <path d="M 33.64 312.208295 
L 33.64 13.32 
" style="fill:none;stroke:#000000;stroke-linecap:square;stroke-linejoin:miter;stroke-width:0.8;"/>
   </g>
   <g id="patch_56">
    <path d="M 447.48 312.208295 
L 447.48 13.32 
" style="fill:none;stroke:#000000;stroke-linecap:square;stroke-linejoin:miter;stroke-width:0.8;"/>
   </g>
   <g id="patch_57">
    <path d="M 33.64 312.208295 
L 447.48 312.208295 
" style="fill:none;stroke:#000000;stroke-linecap:square;stroke-linejoin:miter;stroke-width:0.8;"/>
   </g>
   <g id="patch_58">
    <path d="M 33.64 13.32 
L 447.48 13.32 
" style="fill:none;stroke:#000000;stroke-linecap:square;stroke-linejoin:miter;stroke-width:0.8;"/>
   </g>
   <g id="legend_1">
    <g id="patch_59">
     <path d="M 375.044062 50.67625 
L 440.48 50.67625 
Q 442.48 50.67625 442.48 48.67625 
L 442.48 20.32 
Q 442.48 18.32 440.48 18.32 
L 375.044062 18.32 
Q 373.044062 18.32 373.044062 20.32 
L 373.044062 48.67625 
Q 373.044062 50.67625 375.044062 50.67625 
z
" style="fill:#ffffff;opacity:0.8;stroke:#cccccc;stroke-linejoin:miter;"/>
    </g>
    <g id="patch_60">
     <path d="M 377.044062 29.918438 
L 397.044062 29.918438 
L 397.044062 22.918438 
L 377.044062 22.918438 
z
" style="fill:#1f77b4;"/>
    </g>
    <g id="text_32">
     <text style="font-family:DejaVu Sans;font-size:10px;font-style:normal;font-weight:normal;text-anchor:start;" transform="rotate(-0, 405.044062, 29.918438)" x="405.044062" y="29.918438">Scores</text>
    </g>
    <g id="patch_61">
     <path d="M 377.044062 44.596563 
L 397.044062 44.596563 
L 397.044062 37.596563 
L 377.044062 37.596563 
z
" style="fill:#ff7f0e;"/>
    </g>
    <g id="text_33">
     <text style="font-family:DejaVu Sans;font-size:10px;font-style:normal;font-weight:normal;text-anchor:start;" transform="rotate(-0, 405.044062, 44.596563)" x="405.044062" y="44.596563">Bases</text>
    </g>
   </g>
  </g>
 </g>
 <defs>
  <clipPath id="p855d609fca">
   <rect height="298.888295" width="413.84" x="33.64" y="13.32"/>
  </clipPath>
 </defs>
</svg>
