<?xml version="1.0" encoding="utf-8" standalone="no"?>
<!DOCTYPE svg PUBLIC "-//W3C//DTD SVG 1.1//EN"
  "http://www.w3.org/Graphics/SVG/1.1/DTD/svg11.dtd">
<!-- Created with matplotlib (http://matplotlib.org/) -->
<svg height="345.6pt" version="1.1" viewBox="0 0 460.8 345.6" width="460.8pt" xmlns="http://www.w3.org/2000/svg" xmlns:xlink="http://www.w3.org/1999/xlink">
 <defs>
  <style type="text/css">
*{stroke-linecap:butt;stroke-linejoin:round;}
  </style>
 </defs>
 <g id="figure_1">
  <g id="patch_1">
   <path d="M 0 345.6 
L 460.8 345.6 
L 460.8 0 
L 0 0 
z
" style="fill:#ffffff;"/>
  </g>
  <g id="axes_1">
   <g id="patch_2">
    <path d="M 57.6 307.584 
L 414.72 307.584 
L 414.72 41.472 
L 57.6 41.472 
z
" style="fill:#ffffff;"/>
   </g>
   <g id="patch_3">
    <path clip-path="url(#p79305f819a)" d="M 73.832727 307.584 
L 76.389062 307.584 
L 76.389062 156.62881 
L 73.832727 156.62881 
z
" style="fill:#1f77b4;"/>
   </g>
   <g id="patch_4">
    <path clip-path="url(#p79305f819a)" d="M 86.614402 307.584 
L 89.170737 307.584 
L 89.170737 195.098813 
L 86.614402 195.098813 
z
" style="fill:#1f77b4;"/>
   </g>
   <g id="patch_5">
    <path clip-path="url(#p79305f819a)" d="M 99.396077 307.584 
L 101.952412 307.584 
L 101.952412 206.366805 
L 99.396077 206.366805 
z
" style="fill:#1f77b4;"/>
   </g>
   <g id="patch_6">
    <path clip-path="url(#p79305f819a)" d="M 112.177752 307.584 
L 114.734087 307.584 
L 114.734087 199.511229 
L 112.177752 199.511229 
z
" style="fill:#1f77b4;"/>
   </g>
   <g id="patch_7">
    <path clip-path="url(#p79305f819a)" d="M 124.959427 307.584 
L 127.515762 307.584 
L 127.515762 172.884351 
L 124.959427 172.884351 
z
" style="fill:#1f77b4;"/>
   </g>
   <g id="patch_8">
    <path clip-path="url(#p79305f819a)" d="M 137.741102 307.584 
L 140.297437 307.584 
L 140.297437 118.3406 
L 137.741102 118.3406 
z
" style="fill:#1f77b4;"/>
   </g>
   <g id="patch_9">
    <path clip-path="url(#p79305f819a)" d="M 150.522777 307.584 
L 153.079112 307.584 
L 153.079112 178.150657 
L 150.522777 178.150657 
z
" style="fill:#1f77b4;"/>
   </g>
   <g id="patch_10">
    <path clip-path="url(#p79305f819a)" d="M 163.304452 307.584 
L 165.860787 307.584 
L 165.860787 97.485417 
L 163.304452 97.485417 
z
" style="fill:#1f77b4;"/>
   </g>
   <g id="patch_11">
    <path clip-path="url(#p79305f819a)" d="M 176.086127 307.584 
L 178.642462 307.584 
L 178.642462 167.47443 
L 176.086127 167.47443 
z
" style="fill:#1f77b4;"/>
   </g>
   <g id="patch_12">
    <path clip-path="url(#p79305f819a)" d="M 188.867802 307.584 
L 191.424137 307.584 
L 191.424137 172.137565 
L 188.867802 172.137565 
z
" style="fill:#1f77b4;"/>
   </g>
   <g id="patch_13">
    <path clip-path="url(#p79305f819a)" d="M 201.649477 307.584 
L 204.205812 307.584 
L 204.205812 179.671709 
L 201.649477 179.671709 
z
" style="fill:#1f77b4;"/>
   </g>
   <g id="patch_14">
    <path clip-path="url(#p79305f819a)" d="M 214.431152 307.584 
L 216.987487 307.584 
L 216.987487 203.451857 
L 214.431152 203.451857 
z
" style="fill:#1f77b4;"/>
   </g>
   <g id="patch_15">
    <path clip-path="url(#p79305f819a)" d="M 227.212827 307.584 
L 229.769162 307.584 
L 229.769162 190.933794 
L 227.212827 190.933794 
z
" style="fill:#1f77b4;"/>
   </g>
   <g id="patch_16">
    <path clip-path="url(#p79305f819a)" d="M 239.994503 307.584 
L 242.550838 307.584 
L 242.550838 193.180686 
L 239.994503 193.180686 
z
" style="fill:#1f77b4;"/>
   </g>
   <g id="patch_17">
    <path clip-path="url(#p79305f819a)" d="M 252.776178 307.584 
L 255.332513 307.584 
L 255.332513 144.224617 
L 252.776178 144.224617 
z
" style="fill:#1f77b4;"/>
   </g>
   <g id="patch_18">
    <path clip-path="url(#p79305f819a)" d="M 265.557853 307.584 
L 268.114188 307.584 
L 268.114188 70.373763 
L 265.557853 70.373763 
z
" style="fill:#1f77b4;"/>
   </g>
   <g id="patch_19">
    <path clip-path="url(#p79305f819a)" d="M 278.339528 307.584 
L 280.895863 307.584 
L 280.895863 99.717895 
L 278.339528 99.717895 
z
" style="fill:#1f77b4;"/>
   </g>
   <g id="patch_20">
    <path clip-path="url(#p79305f819a)" d="M 291.121203 307.584 
L 293.677538 307.584 
L 293.677538 137.327848 
L 291.121203 137.327848 
z
" style="fill:#1f77b4;"/>
   </g>
   <g id="patch_21">
    <path clip-path="url(#p79305f819a)" d="M 303.902878 307.584 
L 306.459213 307.584 
L 306.459213 128.771738 
L 303.902878 128.771738 
z
" style="fill:#1f77b4;"/>
   </g>
   <g id="patch_22">
    <path clip-path="url(#p79305f819a)" d="M 316.684553 307.584 
L 319.240888 307.584 
L 319.240888 127.548801 
L 316.684553 127.548801 
z
" style="fill:#1f77b4;"/>
   </g>
   <g id="patch_23">
    <path clip-path="url(#p79305f819a)" d="M 329.466228 307.584 
L 332.022563 307.584 
L 332.022563 189.321629 
L 329.466228 189.321629 
z
" style="fill:#1f77b4;"/>
   </g>
   <g id="patch_24">
    <path clip-path="url(#p79305f819a)" d="M 342.247903 307.584 
L 344.804238 307.584 
L 344.804238 54.144 
L 342.247903 54.144 
z
" style="fill:#1f77b4;"/>
   </g>
   <g id="patch_25">
    <path clip-path="url(#p79305f819a)" d="M 355.029578 307.584 
L 357.585913 307.584 
L 357.585913 141.70085 
L 355.029578 141.70085 
z
" style="fill:#1f77b4;"/>
   </g>
   <g id="patch_26">
    <path clip-path="url(#p79305f819a)" d="M 367.811253 307.584 
L 370.367588 307.584 
L 370.367588 149.926461 
L 367.811253 149.926461 
z
" style="fill:#1f77b4;"/>
   </g>
   <g id="patch_27">
    <path clip-path="url(#p79305f819a)" d="M 380.592928 307.584 
L 383.149263 307.584 
L 383.149263 149.799913 
L 380.592928 149.799913 
z
" style="fill:#1f77b4;"/>
   </g>
   <g id="patch_28">
    <path clip-path="url(#p79305f819a)" d="M 393.374603 307.584 
L 395.930938 307.584 
L 395.930938 54.985264 
L 393.374603 54.985264 
z
" style="fill:#1f77b4;"/>
   </g>
   <g id="patch_29">
    <path clip-path="url(#p79305f819a)" d="M 76.389062 307.584 
L 78.945397 307.584 
L 78.945397 156.971544 
L 76.389062 156.971544 
z
" style="fill:#ff7f0e;"/>
   </g>
   <g id="patch_30">
    <path clip-path="url(#p79305f819a)" d="M 89.170737 307.584 
L 91.727072 307.584 
L 91.727072 213.987942 
L 89.170737 213.987942 
z
" style="fill:#ff7f0e;"/>
   </g>
   <g id="patch_31">
    <path clip-path="url(#p79305f819a)" d="M 101.952412 307.584 
L 104.508747 307.584 
L 104.508747 234.840073 
L 101.952412 234.840073 
z
" style="fill:#ff7f0e;"/>
   </g>
   <g id="patch_32">
    <path clip-path="url(#p79305f819a)" d="M 114.734087 307.584 
L 117.290422 307.584 
L 117.290422 178.905373 
L 114.734087 178.905373 
z
" style="fill:#ff7f0e;"/>
   </g>
   <g id="patch_33">
    <path clip-path="url(#p79305f819a)" d="M 127.515762 307.584 
L 130.072097 307.584 
L 130.072097 170.174118 
L 127.515762 170.174118 
z
" style="fill:#ff7f0e;"/>
   </g>
   <g id="patch_34">
    <path clip-path="url(#p79305f819a)" d="M 140.297437 307.584 
L 142.853772 307.584 
L 142.853772 120.473166 
L 140.297437 120.473166 
z
" style="fill:#ff7f0e;"/>
   </g>
   <g id="patch_35">
    <path clip-path="url(#p79305f819a)" d="M 153.079112 307.584 
L 155.635447 307.584 
L 155.635447 231.886596 
L 153.079112 231.886596 
z
" style="fill:#ff7f0e;"/>
   </g>
   <g id="patch_36">
    <path clip-path="url(#p79305f819a)" d="M 165.860787 307.584 
L 168.417122 307.584 
L 168.417122 108.727085 
L 165.860787 108.727085 
z
" style="fill:#ff7f0e;"/>
   </g>
   <g id="patch_37">
    <path clip-path="url(#p79305f819a)" d="M 178.642462 307.584 
L 181.198797 307.584 
L 181.198797 167.47443 
L 178.642462 167.47443 
z
" style="fill:#ff7f0e;"/>
   </g>
   <g id="patch_38">
    <path clip-path="url(#p79305f819a)" d="M 191.424137 307.584 
L 193.980472 307.584 
L 193.980472 170.218255 
L 191.424137 170.218255 
z
" style="fill:#ff7f0e;"/>
   </g>
   <g id="patch_39">
    <path clip-path="url(#p79305f819a)" d="M 204.205812 307.584 
L 206.762147 307.584 
L 206.762147 173.390396 
L 204.205812 173.390396 
z
" style="fill:#ff7f0e;"/>
   </g>
   <g id="patch_40">
    <path clip-path="url(#p79305f819a)" d="M 216.987487 307.584 
L 219.543822 307.584 
L 219.543822 196.751111 
L 216.987487 196.751111 
z
" style="fill:#ff7f0e;"/>
   </g>
   <g id="patch_41">
    <path clip-path="url(#p79305f819a)" d="M 229.769162 307.584 
L 232.325497 307.584 
L 232.325497 189.014485 
L 229.769162 189.014485 
z
" style="fill:#ff7f0e;"/>
   </g>
   <g id="patch_42">
    <path clip-path="url(#p79305f819a)" d="M 242.550838 307.584 
L 245.107173 307.584 
L 245.107173 197.499131 
L 242.550838 197.499131 
z
" style="fill:#ff7f0e;"/>
   </g>
   <g id="patch_43">
    <path clip-path="url(#p79305f819a)" d="M 255.332513 307.584 
L 257.888848 307.584 
L 257.888848 125.201161 
L 255.332513 125.201161 
z
" style="fill:#ff7f0e;"/>
   </g>
   <g id="patch_44">
    <path clip-path="url(#p79305f819a)" d="M 268.114188 307.584 
L 270.670523 307.584 
L 270.670523 70.373763 
L 268.114188 70.373763 
z
" style="fill:#ff7f0e;"/>
   </g>
   <g id="patch_45">
    <path clip-path="url(#p79305f819a)" d="M 280.895863 307.584 
L 283.452198 307.584 
L 283.452198 99.717895 
L 280.895863 99.717895 
z
" style="fill:#ff7f0e;"/>
   </g>
   <g id="patch_46">
    <path clip-path="url(#p79305f819a)" d="M 293.677538 307.584 
L 296.233873 307.584 
L 296.233873 128.732867 
L 293.677538 128.732867 
z
" style="fill:#ff7f0e;"/>
   </g>
   <g id="patch_47">
    <path clip-path="url(#p79305f819a)" d="M 306.459213 307.584 
L 309.015548 307.584 
L 309.015548 125.453742 
L 306.459213 125.453742 
z
" style="fill:#ff7f0e;"/>
   </g>
   <g id="patch_48">
    <path clip-path="url(#p79305f819a)" d="M 319.240888 307.584 
L 321.797223 307.584 
L 321.797223 132.566995 
L 319.240888 132.566995 
z
" style="fill:#ff7f0e;"/>
   </g>
   <g id="patch_49">
    <path clip-path="url(#p79305f819a)" d="M 332.022563 307.584 
L 334.578898 307.584 
L 334.578898 197.052861 
L 332.022563 197.052861 
z
" style="fill:#ff7f0e;"/>
   </g>
   <g id="patch_50">
    <path clip-path="url(#p79305f819a)" d="M 344.804238 307.584 
L 347.360573 307.584 
L 347.360573 54.144 
L 344.804238 54.144 
z
" style="fill:#ff7f0e;"/>
   </g>
   <g id="patch_51">
    <path clip-path="url(#p79305f819a)" d="M 357.585913 307.584 
L 360.142248 307.584 
L 360.142248 149.926461 
L 357.585913 149.926461 
z
" style="fill:#ff7f0e;"/>
   </g>
   <g id="patch_52">
    <path clip-path="url(#p79305f819a)" d="M 370.367588 307.584 
L 372.923923 307.584 
L 372.923923 149.926461 
L 370.367588 149.926461 
z
" style="fill:#ff7f0e;"/>
   </g>
   <g id="patch_53">
    <path clip-path="url(#p79305f819a)" d="M 383.149263 307.584 
L 385.705598 307.584 
L 385.705598 149.799913 
L 383.149263 149.799913 
z
" style="fill:#ff7f0e;"/>
   </g>
   <g id="patch_54">
    <path clip-path="url(#p79305f819a)" d="M 395.930938 307.584 
L 398.487273 307.584 
L 398.487273 54.985264 
L 395.930938 54.985264 
z
" style="fill:#ff7f0e;"/>
   </g>
   <g id="matplotlib.axis_1">
    <g id="xtick_1">
     <g id="line2d_1">
      <defs>
       <path d="M 0 0 
L 0 3.5 
" id="mf49b6b4783" style="stroke:#000000;stroke-width:0.8;"/>
      </defs>
      <g>
       <use style="stroke:#000000;stroke-width:0.8;" x="76.389062" xlink:href="#mf49b6b4783" y="307.584"/>
      </g>
     </g>
     <g id="text_1">
      <text style="font-family:DejaVu Sans;font-size:6px;font-style:normal;font-weight:normal;" transform="translate(72.05958 328.808116)rotate(-45)">101A</text>
     </g>
    </g>
    <g id="xtick_2">
     <g id="line2d_2">
      <g>
       <use style="stroke:#000000;stroke-width:0.8;" x="89.170737" xlink:href="#mf49b6b4783" y="307.584"/>
      </g>
     </g>
     <g id="text_2">
      <text style="font-family:DejaVu Sans;font-size:6px;font-style:normal;font-weight:normal;" transform="translate(84.841255 328.808116)rotate(-45)">113A</text>
     </g>
    </g>
    <g id="xtick_3">
     <g id="line2d_3">
      <g>
       <use style="stroke:#000000;stroke-width:0.8;" x="101.952412" xlink:href="#mf49b6b4783" y="307.584"/>
      </g>
     </g>
     <g id="text_3">
      <text style="font-family:DejaVu Sans;font-size:6px;font-style:normal;font-weight:normal;" transform="translate(97.62293 328.808116)rotate(-45)">121A</text>
     </g>
    </g>
    <g id="xtick_4">
     <g id="line2d_4">
      <g>
       <use style="stroke:#000000;stroke-width:0.8;" x="114.734087" xlink:href="#mf49b6b4783" y="307.584"/>
      </g>
     </g>
     <g id="text_4">
      <text style="font-family:DejaVu Sans;font-size:6px;font-style:normal;font-weight:normal;" transform="translate(110.404605 328.808116)rotate(-45)">105A</text>
     </g>
    </g>
    <g id="xtick_5">
     <g id="line2d_5">
      <g>
       <use style="stroke:#000000;stroke-width:0.8;" x="127.515762" xlink:href="#mf49b6b4783" y="307.584"/>
      </g>
     </g>
     <g id="text_5">
      <text style="font-family:DejaVu Sans;font-size:6px;font-style:normal;font-weight:normal;" transform="translate(124.53597 326.108736)rotate(-45)">99A</text>
     </g>
    </g>
    <g id="xtick_6">
     <g id="line2d_6">
      <g>
       <use style="stroke:#000000;stroke-width:0.8;" x="140.297437" xlink:href="#mf49b6b4783" y="307.584"/>
      </g>
     </g>
     <g id="text_6">
      <text style="font-family:DejaVu Sans;font-size:6px;font-style:normal;font-weight:normal;" transform="translate(135.967955 328.808116)rotate(-45)">116A</text>
     </g>
    </g>
    <g id="xtick_7">
     <g id="line2d_7">
      <g>
       <use style="stroke:#000000;stroke-width:0.8;" x="153.079112" xlink:href="#mf49b6b4783" y="307.584"/>
      </g>
     </g>
     <g id="text_7">
      <text style="font-family:DejaVu Sans;font-size:6px;font-style:normal;font-weight:normal;" transform="translate(148.74963 328.808116)rotate(-45)">118A</text>
     </g>
    </g>
    <g id="xtick_8">
     <g id="line2d_8">
      <g>
       <use style="stroke:#000000;stroke-width:0.8;" x="165.860787" xlink:href="#mf49b6b4783" y="307.584"/>
      </g>
     </g>
     <g id="text_8">
      <text style="font-family:DejaVu Sans;font-size:6px;font-style:normal;font-weight:normal;" transform="translate(161.531305 328.808116)rotate(-45)">119A</text>
     </g>
    </g>
    <g id="xtick_9">
     <g id="line2d_9">
      <g>
       <use style="stroke:#000000;stroke-width:0.8;" x="178.642462" xlink:href="#mf49b6b4783" y="307.584"/>
      </g>
     </g>
     <g id="text_9">
      <text style="font-family:DejaVu Sans;font-size:6px;font-style:normal;font-weight:normal;" transform="translate(174.31298 328.808116)rotate(-45)">106A</text>
     </g>
    </g>
    <g id="xtick_10">
     <g id="line2d_10">
      <g>
       <use style="stroke:#000000;stroke-width:0.8;" x="191.424137" xlink:href="#mf49b6b4783" y="307.584"/>
      </g>
     </g>
     <g id="text_10">
      <text style="font-family:DejaVu Sans;font-size:6px;font-style:normal;font-weight:normal;" transform="translate(187.094655 328.808116)rotate(-45)">100A</text>
     </g>
    </g>
    <g id="xtick_11">
     <g id="line2d_11">
      <g>
       <use style="stroke:#000000;stroke-width:0.8;" x="204.205812" xlink:href="#mf49b6b4783" y="307.584"/>
      </g>
     </g>
     <g id="text_11">
      <text style="font-family:DejaVu Sans;font-size:6px;font-style:normal;font-weight:normal;" transform="translate(199.87633 328.808116)rotate(-45)">112A</text>
     </g>
    </g>
    <g id="xtick_12">
     <g id="line2d_12">
      <g>
       <use style="stroke:#000000;stroke-width:0.8;" x="216.987487" xlink:href="#mf49b6b4783" y="307.584"/>
      </g>
     </g>
     <g id="text_12">
      <text style="font-family:DejaVu Sans;font-size:6px;font-style:normal;font-weight:normal;" transform="translate(212.658005 328.808116)rotate(-45)">117A</text>
     </g>
    </g>
    <g id="xtick_13">
     <g id="line2d_13">
      <g>
       <use style="stroke:#000000;stroke-width:0.8;" x="229.769162" xlink:href="#mf49b6b4783" y="307.584"/>
      </g>
     </g>
     <g id="text_13">
      <text style="font-family:DejaVu Sans;font-size:6px;font-style:normal;font-weight:normal;" transform="translate(225.43968 328.808116)rotate(-45)">103A</text>
     </g>
    </g>
    <g id="xtick_14">
     <g id="line2d_14">
      <g>
       <use style="stroke:#000000;stroke-width:0.8;" x="242.550838" xlink:href="#mf49b6b4783" y="307.584"/>
      </g>
     </g>
     <g id="text_14">
      <text style="font-family:DejaVu Sans;font-size:6px;font-style:normal;font-weight:normal;" transform="translate(238.221355 328.808116)rotate(-45)">102A</text>
     </g>
    </g>
    <g id="xtick_15">
     <g id="line2d_15">
      <g>
       <use style="stroke:#000000;stroke-width:0.8;" x="255.332513" xlink:href="#mf49b6b4783" y="307.584"/>
      </g>
     </g>
     <g id="text_15">
      <text style="font-family:DejaVu Sans;font-size:6px;font-style:normal;font-weight:normal;" transform="translate(251.00303 328.808116)rotate(-45)">110A</text>
     </g>
    </g>
    <g id="xtick_16">
     <g id="line2d_16">
      <g>
       <use style="stroke:#000000;stroke-width:0.8;" x="268.114188" xlink:href="#mf49b6b4783" y="307.584"/>
      </g>
     </g>
     <g id="text_16">
      <text style="font-family:DejaVu Sans;font-size:6px;font-style:normal;font-weight:normal;" transform="translate(263.784705 328.808116)rotate(-45)">108A</text>
     </g>
    </g>
    <g id="xtick_17">
     <g id="line2d_17">
      <g>
       <use style="stroke:#000000;stroke-width:0.8;" x="280.895863" xlink:href="#mf49b6b4783" y="307.584"/>
      </g>
     </g>
     <g id="text_17">
      <text style="font-family:DejaVu Sans;font-size:6px;font-style:normal;font-weight:normal;" transform="translate(276.56638 328.808116)rotate(-45)">115A</text>
     </g>
    </g>
    <g id="xtick_18">
     <g id="line2d_18">
      <g>
       <use style="stroke:#000000;stroke-width:0.8;" x="293.677538" xlink:href="#mf49b6b4783" y="307.584"/>
      </g>
     </g>
     <g id="text_18">
      <text style="font-family:DejaVu Sans;font-size:6px;font-style:normal;font-weight:normal;" transform="translate(289.348055 328.808116)rotate(-45)">104A</text>
     </g>
    </g>
    <g id="xtick_19">
     <g id="line2d_19">
      <g>
       <use style="stroke:#000000;stroke-width:0.8;" x="306.459213" xlink:href="#mf49b6b4783" y="307.584"/>
      </g>
     </g>
     <g id="text_19">
      <text style="font-family:DejaVu Sans;font-size:6px;font-style:normal;font-weight:normal;" transform="translate(302.12973 328.808116)rotate(-45)">120A</text>
     </g>
    </g>
    <g id="xtick_20">
     <g id="line2d_20">
      <g>
       <use style="stroke:#000000;stroke-width:0.8;" x="319.240888" xlink:href="#mf49b6b4783" y="307.584"/>
      </g>
     </g>
     <g id="text_20">
      <text style="font-family:DejaVu Sans;font-size:6px;font-style:normal;font-weight:normal;" transform="translate(314.911405 328.808116)rotate(-45)">107A</text>
     </g>
    </g>
    <g id="xtick_21">
     <g id="line2d_21">
      <g>
       <use style="stroke:#000000;stroke-width:0.8;" x="332.022563" xlink:href="#mf49b6b4783" y="307.584"/>
      </g>
     </g>
     <g id="text_21">
      <text style="font-family:DejaVu Sans;font-size:6px;font-style:normal;font-weight:normal;" transform="translate(327.69308 328.808116)rotate(-45)">114A</text>
     </g>
    </g>
    <g id="xtick_22">
     <g id="line2d_22">
      <g>
       <use style="stroke:#000000;stroke-width:0.8;" x="344.804238" xlink:href="#mf49b6b4783" y="307.584"/>
      </g>
     </g>
     <g id="text_22">
      <text style="font-family:DejaVu Sans;font-size:6px;font-style:normal;font-weight:normal;" transform="translate(340.470446 328.816734)rotate(-45)">108B</text>
     </g>
    </g>
    <g id="xtick_23">
     <g id="line2d_23">
      <g>
       <use style="stroke:#000000;stroke-width:0.8;" x="357.585913" xlink:href="#mf49b6b4783" y="307.584"/>
      </g>
     </g>
     <g id="text_23">
      <text style="font-family:DejaVu Sans;font-size:6px;font-style:normal;font-weight:normal;" transform="translate(353.25643 328.808116)rotate(-45)">109A</text>
     </g>
    </g>
    <g id="xtick_24">
     <g id="line2d_24">
      <g>
       <use style="stroke:#000000;stroke-width:0.8;" x="370.367588" xlink:href="#mf49b6b4783" y="307.584"/>
      </g>
     </g>
     <g id="text_24">
      <text style="font-family:DejaVu Sans;font-size:6px;font-style:normal;font-weight:normal;" transform="translate(366.033797 328.816734)rotate(-45)">109B</text>
     </g>
    </g>
    <g id="xtick_25">
     <g id="line2d_25">
      <g>
       <use style="stroke:#000000;stroke-width:0.8;" x="383.149263" xlink:href="#mf49b6b4783" y="307.584"/>
      </g>
     </g>
     <g id="text_25">
      <text style="font-family:DejaVu Sans;font-size:6px;font-style:normal;font-weight:normal;" transform="translate(380.169471 326.108736)rotate(-45)">98A</text>
     </g>
    </g>
    <g id="xtick_26">
     <g id="line2d_26">
      <g>
       <use style="stroke:#000000;stroke-width:0.8;" x="395.930938" xlink:href="#mf49b6b4783" y="307.584"/>
      </g>
     </g>
     <g id="text_26">
      <text style="font-family:DejaVu Sans;font-size:6px;font-style:normal;font-weight:normal;" transform="translate(391.601455 328.808116)rotate(-45)">111A</text>
     </g>
    </g>
   </g>
   <g id="matplotlib.axis_2">
    <g id="ytick_1">
     <g id="line2d_27">
      <defs>
       <path d="M 0 0 
L -3.5 0 
" id="mb237a2a831" style="stroke:#000000;stroke-width:0.8;"/>
      </defs>
      <g>
       <use style="stroke:#000000;stroke-width:0.8;" x="57.6" xlink:href="#mb237a2a831" y="307.584"/>
      </g>
     </g>
     <g id="text_27">
      <text style="font-family:DejaVu Sans;font-size:10px;font-style:normal;font-weight:normal;text-anchor:end;" transform="rotate(-0, 50.6, 311.383219)" x="50.6" y="311.383219">0.0</text>
     </g>
    </g>
    <g id="ytick_2">
     <g id="line2d_28">
      <g>
       <use style="stroke:#000000;stroke-width:0.8;" x="57.6" xlink:href="#mb237a2a831" y="250.004725"/>
      </g>
     </g>
     <g id="text_28">
      <text style="font-family:DejaVu Sans;font-size:10px;font-style:normal;font-weight:normal;text-anchor:end;" transform="rotate(-0, 50.6, 253.803943)" x="50.6" y="253.803943">0.2</text>
     </g>
    </g>
    <g id="ytick_3">
     <g id="line2d_29">
      <g>
       <use style="stroke:#000000;stroke-width:0.8;" x="57.6" xlink:href="#mb237a2a831" y="192.425449"/>
      </g>
     </g>
     <g id="text_29">
      <text style="font-family:DejaVu Sans;font-size:10px;font-style:normal;font-weight:normal;text-anchor:end;" transform="rotate(-0, 50.6, 196.224668)" x="50.6" y="196.224668">0.4</text>
     </g>
    </g>
    <g id="ytick_4">
     <g id="line2d_30">
      <g>
       <use style="stroke:#000000;stroke-width:0.8;" x="57.6" xlink:href="#mb237a2a831" y="134.846174"/>
      </g>
     </g>
     <g id="text_30">
      <text style="font-family:DejaVu Sans;font-size:10px;font-style:normal;font-weight:normal;text-anchor:end;" transform="rotate(-0, 50.6, 138.645393)" x="50.6" y="138.645393">0.6</text>
     </g>
    </g>
    <g id="ytick_5">
     <g id="line2d_31">
      <g>
       <use style="stroke:#000000;stroke-width:0.8;" x="57.6" xlink:href="#mb237a2a831" y="77.266899"/>
      </g>
     </g>
     <g id="text_31">
      <text style="font-family:DejaVu Sans;font-size:10px;font-style:normal;font-weight:normal;text-anchor:end;" transform="rotate(-0, 50.6, 81.066118)" x="50.6" y="81.066118">0.8</text>
     </g>
    </g>
   </g>
   <g id="patch_55">
    <path d="M 57.6 307.584 
L 57.6 41.472 
" style="fill:none;stroke:#000000;stroke-linecap:square;stroke-linejoin:miter;stroke-width:0.8;"/>
   </g>
   <g id="patch_56">
    <path d="M 414.72 307.584 
L 414.72 41.472 
" style="fill:none;stroke:#000000;stroke-linecap:square;stroke-linejoin:miter;stroke-width:0.8;"/>
   </g>
   <g id="patch_57">
    <path d="M 57.6 307.584 
L 414.72 307.584 
" style="fill:none;stroke:#000000;stroke-linecap:square;stroke-linejoin:miter;stroke-width:0.8;"/>
   </g>
   <g id="patch_58">
    <path d="M 57.6 41.472 
L 414.72 41.472 
" style="fill:none;stroke:#000000;stroke-linecap:square;stroke-linejoin:miter;stroke-width:0.8;"/>
   </g>
   <g id="legend_1">
    <g id="patch_59">
     <path d="M 64.6 78.82825 
L 130.035937 78.82825 
Q 132.035937 78.82825 132.035937 76.82825 
L 132.035937 48.472 
Q 132.035937 46.472 130.035937 46.472 
L 64.6 46.472 
Q 62.6 46.472 62.6 48.472 
L 62.6 76.82825 
Q 62.6 78.82825 64.6 78.82825 
z
" style="fill:#ffffff;opacity:0.8;stroke:#cccccc;stroke-linejoin:miter;"/>
    </g>
    <g id="patch_60">
     <path d="M 66.6 58.070437 
L 86.6 58.070437 
L 86.6 51.070437 
L 66.6 51.070437 
z
" style="fill:#1f77b4;"/>
    </g>
    <g id="text_32">
     <text style="font-family:DejaVu Sans;font-size:10px;font-style:normal;font-weight:normal;text-anchor:start;" transform="rotate(-0, 94.6, 58.070437)" x="94.6" y="58.070437">Scores</text>
    </g>
    <g id="patch_61">
     <path d="M 66.6 72.748562 
L 86.6 72.748562 
L 86.6 65.748562 
L 66.6 65.748562 
z
" style="fill:#ff7f0e;"/>
    </g>
    <g id="text_33">
     <text style="font-family:DejaVu Sans;font-size:10px;font-style:normal;font-weight:normal;text-anchor:start;" transform="rotate(-0, 94.6, 72.748562)" x="94.6" y="72.748562">Bases</text>
    </g>
   </g>
  </g>
 </g>
 <defs>
  <clipPath id="p79305f819a">
   <rect height="266.112" width="357.12" x="57.6" y="41.472"/>
  </clipPath>
 </defs>
</svg>
