<?xml version="1.0" encoding="utf-8" standalone="no"?>
<!DOCTYPE svg PUBLIC "-//W3C//DTD SVG 1.1//EN"
  "http://www.w3.org/Graphics/SVG/1.1/DTD/svg11.dtd">
<!-- Created with matplotlib (http://matplotlib.org/) -->
<svg height="345.6pt" version="1.1" viewBox="0 0 460.8 345.6" width="460.8pt" xmlns="http://www.w3.org/2000/svg" xmlns:xlink="http://www.w3.org/1999/xlink">
 <defs>
  <style type="text/css">
*{stroke-linecap:butt;stroke-linejoin:round;}
  </style>
 </defs>
 <g id="figure_1">
  <g id="patch_1">
   <path d="M 0 345.6 
L 460.8 345.6 
L 460.8 0 
L 0 0 
z
" style="fill:#ffffff;"/>
  </g>
  <g id="axes_1">
   <g id="patch_2">
    <path d="M 33.64 312.749156 
L 447.48 312.749156 
L 447.48 13.32 
L 33.64 13.32 
z
" style="fill:#ffffff;"/>
   </g>
   <g id="patch_3">
    <path clip-path="url(#pb267c294b0)" d="M 52.450909 312.749156 
L 64.207727 312.749156 
L 64.207727 52.74034 
L 52.450909 52.74034 
z
" style="fill:#1f77b4;"/>
   </g>
   <g id="patch_4">
    <path clip-path="url(#pb267c294b0)" d="M 111.235 312.749156 
L 122.991818 312.749156 
L 122.991818 148.904084 
L 111.235 148.904084 
z
" style="fill:#1f77b4;"/>
   </g>
   <g id="patch_5">
    <path clip-path="url(#pb267c294b0)" d="M 170.019091 312.749156 
L 181.775909 312.749156 
L 181.775909 124.690921 
L 170.019091 124.690921 
z
" style="fill:#1f77b4;"/>
   </g>
   <g id="patch_6">
    <path clip-path="url(#pb267c294b0)" d="M 228.803182 312.749156 
L 240.56 312.749156 
L 240.56 124.020015 
L 228.803182 124.020015 
z
" style="fill:#1f77b4;"/>
   </g>
   <g id="patch_7">
    <path clip-path="url(#pb267c294b0)" d="M 287.587273 312.749156 
L 299.344091 312.749156 
L 299.344091 118.624194 
L 287.587273 118.624194 
z
" style="fill:#1f77b4;"/>
   </g>
   <g id="patch_8">
    <path clip-path="url(#pb267c294b0)" d="M 346.371364 312.749156 
L 358.128182 312.749156 
L 358.128182 98.162441 
L 346.371364 98.162441 
z
" style="fill:#1f77b4;"/>
   </g>
   <g id="patch_9">
    <path clip-path="url(#pb267c294b0)" d="M 405.155455 312.749156 
L 416.912273 312.749156 
L 416.912273 27.578531 
L 405.155455 27.578531 
z
" style="fill:#1f77b4;"/>
   </g>
   <g id="patch_10">
    <path clip-path="url(#pb267c294b0)" d="M 64.207727 312.749156 
L 75.964545 312.749156 
L 75.964545 52.74034 
L 64.207727 52.74034 
z
" style="fill:#ff7f0e;"/>
   </g>
   <g id="patch_11">
    <path clip-path="url(#pb267c294b0)" d="M 122.991818 312.749156 
L 134.748636 312.749156 
L 134.748636 130.347805 
L 122.991818 130.347805 
z
" style="fill:#ff7f0e;"/>
   </g>
   <g id="patch_12">
    <path clip-path="url(#pb267c294b0)" d="M 181.775909 312.749156 
L 193.532727 312.749156 
L 193.532727 121.990934 
L 181.775909 121.990934 
z
" style="fill:#ff7f0e;"/>
   </g>
   <g id="patch_13">
    <path clip-path="url(#pb267c294b0)" d="M 240.56 312.749156 
L 252.316818 312.749156 
L 252.316818 129.689989 
L 240.56 129.689989 
z
" style="fill:#ff7f0e;"/>
   </g>
   <g id="patch_14">
    <path clip-path="url(#pb267c294b0)" d="M 299.344091 312.749156 
L 311.100909 312.749156 
L 311.100909 113.764216 
L 299.344091 113.764216 
z
" style="fill:#ff7f0e;"/>
   </g>
   <g id="patch_15">
    <path clip-path="url(#pb267c294b0)" d="M 358.128182 312.749156 
L 369.885 312.749156 
L 369.885 98.162441 
L 358.128182 98.162441 
z
" style="fill:#ff7f0e;"/>
   </g>
   <g id="patch_16">
    <path clip-path="url(#pb267c294b0)" d="M 416.912273 312.749156 
L 428.669091 312.749156 
L 428.669091 27.578531 
L 416.912273 27.578531 
z
" style="fill:#ff7f0e;"/>
   </g>
   <g id="matplotlib.axis_1">
    <g id="xtick_1">
     <g id="line2d_1">
      <defs>
       <path d="M 0 0 
L 0 3.5 
" id="mea8020e731" style="stroke:#000000;stroke-width:0.8;"/>
      </defs>
      <g>
       <use style="stroke:#000000;stroke-width:0.8;" x="64.207727" xlink:href="#mea8020e731" y="312.749156"/>
      </g>
     </g>
     <g id="text_1">
      <text style="font-family:DejaVu Sans;font-size:9px;font-style:normal;font-weight:normal;" transform="translate(53.580398 332.394354)rotate(-15)">122A</text>
     </g>
    </g>
    <g id="xtick_2">
     <g id="line2d_2">
      <g>
       <use style="stroke:#000000;stroke-width:0.8;" x="122.991818" xlink:href="#mea8020e731" y="312.749156"/>
      </g>
     </g>
     <g id="text_2">
      <text style="font-family:DejaVu Sans;font-size:9px;font-style:normal;font-weight:normal;" transform="translate(112.364489 332.394354)rotate(-15)">123A</text>
     </g>
    </g>
    <g id="xtick_3">
     <g id="line2d_3">
      <g>
       <use style="stroke:#000000;stroke-width:0.8;" x="181.775909" xlink:href="#mea8020e731" y="312.749156"/>
      </g>
     </g>
     <g id="text_3">
      <text style="font-family:DejaVu Sans;font-size:9px;font-style:normal;font-weight:normal;" transform="translate(171.14858 332.394354)rotate(-15)">124A</text>
     </g>
    </g>
    <g id="xtick_4">
     <g id="line2d_4">
      <g>
       <use style="stroke:#000000;stroke-width:0.8;" x="240.56" xlink:href="#mea8020e731" y="312.749156"/>
      </g>
     </g>
     <g id="text_4">
      <text style="font-family:DejaVu Sans;font-size:9px;font-style:normal;font-weight:normal;" transform="translate(229.93267 332.394354)rotate(-15)">125A</text>
     </g>
    </g>
    <g id="xtick_5">
     <g id="line2d_5">
      <g>
       <use style="stroke:#000000;stroke-width:0.8;" x="299.344091" xlink:href="#mea8020e731" y="312.749156"/>
      </g>
     </g>
     <g id="text_5">
      <text style="font-family:DejaVu Sans;font-size:9px;font-style:normal;font-weight:normal;" transform="translate(288.716761 332.394354)rotate(-15)">126A</text>
     </g>
    </g>
    <g id="xtick_6">
     <g id="line2d_6">
      <g>
       <use style="stroke:#000000;stroke-width:0.8;" x="358.128182" xlink:href="#mea8020e731" y="312.749156"/>
      </g>
     </g>
     <g id="text_6">
      <text style="font-family:DejaVu Sans;font-size:9px;font-style:normal;font-weight:normal;" transform="translate(347.500852 332.394354)rotate(-15)">127A</text>
     </g>
    </g>
    <g id="xtick_7">
     <g id="line2d_7">
      <g>
       <use style="stroke:#000000;stroke-width:0.8;" x="416.912273" xlink:href="#mea8020e731" y="312.749156"/>
      </g>
     </g>
     <g id="text_7">
      <text style="font-family:DejaVu Sans;font-size:9px;font-style:normal;font-weight:normal;" transform="translate(406.284943 332.394354)rotate(-15)">128A</text>
     </g>
    </g>
   </g>
   <g id="matplotlib.axis_2">
    <g id="ytick_1">
     <g id="line2d_8">
      <defs>
       <path d="M 0 0 
L -3.5 0 
" id="ma93c55c772" style="stroke:#000000;stroke-width:0.8;"/>
      </defs>
      <g>
       <use style="stroke:#000000;stroke-width:0.8;" x="33.64" xlink:href="#ma93c55c772" y="312.749156"/>
      </g>
     </g>
     <g id="text_8">
      <text style="font-family:DejaVu Sans;font-size:10px;font-style:normal;font-weight:normal;text-anchor:end;" transform="rotate(-0, 26.64, 316.548375)" x="26.64" y="316.548375">0.0</text>
     </g>
    </g>
    <g id="ytick_2">
     <g id="line2d_9">
      <g>
       <use style="stroke:#000000;stroke-width:0.8;" x="33.64" xlink:href="#ma93c55c772" y="278.729311"/>
      </g>
     </g>
     <g id="text_9">
      <text style="font-family:DejaVu Sans;font-size:10px;font-style:normal;font-weight:normal;text-anchor:end;" transform="rotate(-0, 26.64, 282.52853)" x="26.64" y="282.52853">0.1</text>
     </g>
    </g>
    <g id="ytick_3">
     <g id="line2d_10">
      <g>
       <use style="stroke:#000000;stroke-width:0.8;" x="33.64" xlink:href="#ma93c55c772" y="244.709466"/>
      </g>
     </g>
     <g id="text_10">
      <text style="font-family:DejaVu Sans;font-size:10px;font-style:normal;font-weight:normal;text-anchor:end;" transform="rotate(-0, 26.64, 248.508685)" x="26.64" y="248.508685">0.2</text>
     </g>
    </g>
    <g id="ytick_4">
     <g id="line2d_11">
      <g>
       <use style="stroke:#000000;stroke-width:0.8;" x="33.64" xlink:href="#ma93c55c772" y="210.689621"/>
      </g>
     </g>
     <g id="text_11">
      <text style="font-family:DejaVu Sans;font-size:10px;font-style:normal;font-weight:normal;text-anchor:end;" transform="rotate(-0, 26.64, 214.488839)" x="26.64" y="214.488839">0.3</text>
     </g>
    </g>
    <g id="ytick_5">
     <g id="line2d_12">
      <g>
       <use style="stroke:#000000;stroke-width:0.8;" x="33.64" xlink:href="#ma93c55c772" y="176.669776"/>
      </g>
     </g>
     <g id="text_12">
      <text style="font-family:DejaVu Sans;font-size:10px;font-style:normal;font-weight:normal;text-anchor:end;" transform="rotate(-0, 26.64, 180.468994)" x="26.64" y="180.468994">0.4</text>
     </g>
    </g>
    <g id="ytick_6">
     <g id="line2d_13">
      <g>
       <use style="stroke:#000000;stroke-width:0.8;" x="33.64" xlink:href="#ma93c55c772" y="142.64993"/>
      </g>
     </g>
     <g id="text_13">
      <text style="font-family:DejaVu Sans;font-size:10px;font-style:normal;font-weight:normal;text-anchor:end;" transform="rotate(-0, 26.64, 146.449149)" x="26.64" y="146.449149">0.5</text>
     </g>
    </g>
    <g id="ytick_7">
     <g id="line2d_14">
      <g>
       <use style="stroke:#000000;stroke-width:0.8;" x="33.64" xlink:href="#ma93c55c772" y="108.630085"/>
      </g>
     </g>
     <g id="text_14">
      <text style="font-family:DejaVu Sans;font-size:10px;font-style:normal;font-weight:normal;text-anchor:end;" transform="rotate(-0, 26.64, 112.429304)" x="26.64" y="112.429304">0.6</text>
     </g>
    </g>
    <g id="ytick_8">
     <g id="line2d_15">
      <g>
       <use style="stroke:#000000;stroke-width:0.8;" x="33.64" xlink:href="#ma93c55c772" y="74.61024"/>
      </g>
     </g>
     <g id="text_15">
      <text style="font-family:DejaVu Sans;font-size:10px;font-style:normal;font-weight:normal;text-anchor:end;" transform="rotate(-0, 26.64, 78.409459)" x="26.64" y="78.409459">0.7</text>
     </g>
    </g>
    <g id="ytick_9">
     <g id="line2d_16">
      <g>
       <use style="stroke:#000000;stroke-width:0.8;" x="33.64" xlink:href="#ma93c55c772" y="40.590395"/>
      </g>
     </g>
     <g id="text_16">
      <text style="font-family:DejaVu Sans;font-size:10px;font-style:normal;font-weight:normal;text-anchor:end;" transform="rotate(-0, 26.64, 44.389614)" x="26.64" y="44.389614">0.8</text>
     </g>
    </g>
   </g>
   <g id="patch_17">
    <path d="M 33.64 312.749156 
L 33.64 13.32 
" style="fill:none;stroke:#000000;stroke-linecap:square;stroke-linejoin:miter;stroke-width:0.8;"/>
   </g>
   <g id="patch_18">
    <path d="M 447.48 312.749156 
L 447.48 13.32 
" style="fill:none;stroke:#000000;stroke-linecap:square;stroke-linejoin:miter;stroke-width:0.8;"/>
   </g>
   <g id="patch_19">
    <path d="M 33.64 312.749156 
L 447.48 312.749156 
" style="fill:none;stroke:#000000;stroke-linecap:square;stroke-linejoin:miter;stroke-width:0.8;"/>
   </g>
   <g id="patch_20">
    <path d="M 33.64 13.32 
L 447.48 13.32 
" style="fill:none;stroke:#000000;stroke-linecap:square;stroke-linejoin:miter;stroke-width:0.8;"/>
   </g>
   <g id="legend_1">
    <g id="patch_21">
     <path d="M 40.64 50.67625 
L 106.075937 50.67625 
Q 108.075937 50.67625 108.075937 48.67625 
L 108.075937 20.32 
Q 108.075937 18.32 106.075937 18.32 
L 40.64 18.32 
Q 38.64 18.32 38.64 20.32 
L 38.64 48.67625 
Q 38.64 50.67625 40.64 50.67625 
z
" style="fill:#ffffff;opacity:0.8;stroke:#cccccc;stroke-linejoin:miter;"/>
    </g>
    <g id="patch_22">
     <path d="M 42.64 29.918437 
L 62.64 29.918437 
L 62.64 22.918437 
L 42.64 22.918437 
z
" style="fill:#1f77b4;"/>
    </g>
    <g id="text_17">
     <text style="font-family:DejaVu Sans;font-size:10px;font-style:normal;font-weight:normal;text-anchor:start;" transform="rotate(-0, 70.64, 29.918437)" x="70.64" y="29.918437">Scores</text>
    </g>
    <g id="patch_23">
     <path d="M 42.64 44.596563 
L 62.64 44.596563 
L 62.64 37.596563 
L 42.64 37.596563 
z
" style="fill:#ff7f0e;"/>
    </g>
    <g id="text_18">
     <text style="font-family:DejaVu Sans;font-size:10px;font-style:normal;font-weight:normal;text-anchor:start;" transform="rotate(-0, 70.64, 44.596563)" x="70.64" y="44.596563">Bases</text>
    </g>
   </g>
  </g>
 </g>
 <defs>
  <clipPath id="pb267c294b0">
   <rect height="299.429156" width="413.84" x="33.64" y="13.32"/>
  </clipPath>
 </defs>
</svg>
