<?xml version="1.0" encoding="utf-8" standalone="no"?>
<!DOCTYPE svg PUBLIC "-//W3C//DTD SVG 1.1//EN"
  "http://www.w3.org/Graphics/SVG/1.1/DTD/svg11.dtd">
<!-- Created with matplotlib (http://matplotlib.org/) -->
<svg height="345.6pt" version="1.1" viewBox="0 0 460.8 345.6" width="460.8pt" xmlns="http://www.w3.org/2000/svg" xmlns:xlink="http://www.w3.org/1999/xlink">
 <defs>
  <style type="text/css">
*{stroke-linecap:butt;stroke-linejoin:round;}
  </style>
 </defs>
 <g id="figure_1">
  <g id="patch_1">
   <path d="M 0 345.6 
L 460.8 345.6 
L 460.8 0 
L 0 0 
z
" style="fill:#ffffff;"/>
  </g>
  <g id="axes_1">
   <g id="patch_2">
    <path d="M 57.6 307.584 
L 414.72 307.584 
L 414.72 41.472 
L 57.6 41.472 
z
" style="fill:#ffffff;"/>
   </g>
   <g id="patch_3">
    <path clip-path="url(#p68f188955e)" d="M 73.832727 307.584 
L 75.568848 307.584 
L 75.568848 129.554286 
L 73.832727 129.554286 
z
" style="fill:#1f77b4;"/>
   </g>
   <g id="patch_4">
    <path clip-path="url(#p68f188955e)" d="M 82.51333 307.584 
L 84.249451 307.584 
L 84.249451 153.184376 
L 82.51333 153.184376 
z
" style="fill:#1f77b4;"/>
   </g>
   <g id="patch_5">
    <path clip-path="url(#p68f188955e)" d="M 91.193933 307.584 
L 92.930053 307.584 
L 92.930053 54.144 
L 91.193933 54.144 
z
" style="fill:#1f77b4;"/>
   </g>
   <g id="patch_6">
    <path clip-path="url(#p68f188955e)" d="M 99.874536 307.584 
L 101.610656 307.584 
L 101.610656 89.984 
L 99.874536 89.984 
z
" style="fill:#1f77b4;"/>
   </g>
   <g id="patch_7">
    <path clip-path="url(#p68f188955e)" d="M 108.555139 307.584 
L 110.291259 307.584 
L 110.291259 104.9728 
L 108.555139 104.9728 
z
" style="fill:#1f77b4;"/>
   </g>
   <g id="patch_8">
    <path clip-path="url(#p68f188955e)" d="M 117.235741 307.584 
L 118.971862 307.584 
L 118.971862 146.095543 
L 117.235741 146.095543 
z
" style="fill:#1f77b4;"/>
   </g>
   <g id="patch_9">
    <path clip-path="url(#p68f188955e)" d="M 125.916344 307.584 
L 127.652465 307.584 
L 127.652465 142.533908 
L 125.916344 142.533908 
z
" style="fill:#1f77b4;"/>
   </g>
   <g id="patch_10">
    <path clip-path="url(#p68f188955e)" d="M 134.596947 307.584 
L 136.333068 307.584 
L 136.333068 221.696 
L 134.596947 221.696 
z
" style="fill:#1f77b4;"/>
   </g>
   <g id="patch_11">
    <path clip-path="url(#p68f188955e)" d="M 143.27755 307.584 
L 145.01367 307.584 
L 145.01367 182.674286 
L 143.27755 182.674286 
z
" style="fill:#1f77b4;"/>
   </g>
   <g id="patch_12">
    <path clip-path="url(#p68f188955e)" d="M 151.958153 307.584 
L 153.694273 307.584 
L 153.694273 134.762057 
L 151.958153 134.762057 
z
" style="fill:#1f77b4;"/>
   </g>
   <g id="patch_13">
    <path clip-path="url(#p68f188955e)" d="M 160.638755 307.584 
L 162.374876 307.584 
L 162.374876 142.0032 
L 160.638755 142.0032 
z
" style="fill:#1f77b4;"/>
   </g>
   <g id="patch_14">
    <path clip-path="url(#p68f188955e)" d="M 169.319358 307.584 
L 171.055479 307.584 
L 171.055479 202.761739 
L 169.319358 202.761739 
z
" style="fill:#1f77b4;"/>
   </g>
   <g id="patch_15">
    <path clip-path="url(#p68f188955e)" d="M 177.999961 307.584 
L 179.736082 307.584 
L 179.736082 54.144 
L 177.999961 54.144 
z
" style="fill:#1f77b4;"/>
   </g>
   <g id="patch_16">
    <path clip-path="url(#p68f188955e)" d="M 186.680564 307.584 
L 188.416684 307.584 
L 188.416684 126.555429 
L 186.680564 126.555429 
z
" style="fill:#1f77b4;"/>
   </g>
   <g id="patch_17">
    <path clip-path="url(#p68f188955e)" d="M 195.361167 307.584 
L 197.097287 307.584 
L 197.097287 214.037099 
L 195.361167 214.037099 
z
" style="fill:#1f77b4;"/>
   </g>
   <g id="patch_18">
    <path clip-path="url(#p68f188955e)" d="M 204.04177 307.584 
L 205.77789 307.584 
L 205.77789 180.864 
L 204.04177 180.864 
z
" style="fill:#1f77b4;"/>
   </g>
   <g id="patch_19">
    <path clip-path="url(#p68f188955e)" d="M 212.722372 307.584 
L 214.458493 307.584 
L 214.458493 177.664 
L 212.722372 177.664 
z
" style="fill:#1f77b4;"/>
   </g>
   <g id="patch_20">
    <path clip-path="url(#p68f188955e)" d="M 221.402975 307.584 
L 223.139096 307.584 
L 223.139096 117.504 
L 221.402975 117.504 
z
" style="fill:#1f77b4;"/>
   </g>
   <g id="patch_21">
    <path clip-path="url(#p68f188955e)" d="M 230.083578 307.584 
L 231.819699 307.584 
L 231.819699 54.144 
L 230.083578 54.144 
z
" style="fill:#1f77b4;"/>
   </g>
   <g id="patch_22">
    <path clip-path="url(#p68f188955e)" d="M 238.764181 307.584 
L 240.500301 307.584 
L 240.500301 72.246857 
L 238.764181 72.246857 
z
" style="fill:#1f77b4;"/>
   </g>
   <g id="patch_23">
    <path clip-path="url(#p68f188955e)" d="M 247.444784 307.584 
L 249.180904 307.584 
L 249.180904 121.069714 
L 247.444784 121.069714 
z
" style="fill:#1f77b4;"/>
   </g>
   <g id="patch_24">
    <path clip-path="url(#p68f188955e)" d="M 256.125386 307.584 
L 257.861507 307.584 
L 257.861507 157.455613 
L 256.125386 157.455613 
z
" style="fill:#1f77b4;"/>
   </g>
   <g id="patch_25">
    <path clip-path="url(#p68f188955e)" d="M 264.805989 307.584 
L 266.54211 307.584 
L 266.54211 152.704 
L 264.805989 152.704 
z
" style="fill:#1f77b4;"/>
   </g>
   <g id="patch_26">
    <path clip-path="url(#p68f188955e)" d="M 273.486592 307.584 
L 275.222713 307.584 
L 275.222713 123.779657 
L 273.486592 123.779657 
z
" style="fill:#1f77b4;"/>
   </g>
   <g id="patch_27">
    <path clip-path="url(#p68f188955e)" d="M 282.167195 307.584 
L 283.903316 307.584 
L 283.903316 141.116825 
L 282.167195 141.116825 
z
" style="fill:#1f77b4;"/>
   </g>
   <g id="patch_28">
    <path clip-path="url(#p68f188955e)" d="M 290.847798 307.584 
L 292.583918 307.584 
L 292.583918 175.488 
L 290.847798 175.488 
z
" style="fill:#1f77b4;"/>
   </g>
   <g id="patch_29">
    <path clip-path="url(#p68f188955e)" d="M 299.528401 307.584 
L 301.264521 307.584 
L 301.264521 61.824 
L 299.528401 61.824 
z
" style="fill:#1f77b4;"/>
   </g>
   <g id="patch_30">
    <path clip-path="url(#p68f188955e)" d="M 308.209003 307.584 
L 309.945124 307.584 
L 309.945124 63.195429 
L 308.209003 63.195429 
z
" style="fill:#1f77b4;"/>
   </g>
   <g id="patch_31">
    <path clip-path="url(#p68f188955e)" d="M 316.889606 307.584 
L 318.625727 307.584 
L 318.625727 115.412114 
L 316.889606 115.412114 
z
" style="fill:#1f77b4;"/>
   </g>
   <g id="patch_32">
    <path clip-path="url(#p68f188955e)" d="M 325.570209 307.584 
L 327.30633 307.584 
L 327.30633 101.76 
L 325.570209 101.76 
z
" style="fill:#1f77b4;"/>
   </g>
   <g id="patch_33">
    <path clip-path="url(#p68f188955e)" d="M 334.250812 307.584 
L 335.986932 307.584 
L 335.986932 54.144 
L 334.250812 54.144 
z
" style="fill:#1f77b4;"/>
   </g>
   <g id="patch_34">
    <path clip-path="url(#p68f188955e)" d="M 342.931415 307.584 
L 344.667535 307.584 
L 344.667535 135.808 
L 342.931415 135.808 
z
" style="fill:#1f77b4;"/>
   </g>
   <g id="patch_35">
    <path clip-path="url(#p68f188955e)" d="M 351.612018 307.584 
L 353.348138 307.584 
L 353.348138 145.472 
L 351.612018 145.472 
z
" style="fill:#1f77b4;"/>
   </g>
   <g id="patch_36">
    <path clip-path="url(#p68f188955e)" d="M 360.29262 307.584 
L 362.028741 307.584 
L 362.028741 200.881853 
L 360.29262 200.881853 
z
" style="fill:#1f77b4;"/>
   </g>
   <g id="patch_37">
    <path clip-path="url(#p68f188955e)" d="M 368.973223 307.584 
L 370.709344 307.584 
L 370.709344 137.298824 
L 368.973223 137.298824 
z
" style="fill:#1f77b4;"/>
   </g>
   <g id="patch_38">
    <path clip-path="url(#p68f188955e)" d="M 377.653826 307.584 
L 379.389947 307.584 
L 379.389947 193.536 
L 377.653826 193.536 
z
" style="fill:#1f77b4;"/>
   </g>
   <g id="patch_39">
    <path clip-path="url(#p68f188955e)" d="M 386.334429 307.584 
L 388.070549 307.584 
L 388.070549 171.637459 
L 386.334429 171.637459 
z
" style="fill:#1f77b4;"/>
   </g>
   <g id="patch_40">
    <path clip-path="url(#p68f188955e)" d="M 395.015032 307.584 
L 396.751152 307.584 
L 396.751152 140.736 
L 395.015032 140.736 
z
" style="fill:#1f77b4;"/>
   </g>
   <g id="patch_41">
    <path clip-path="url(#p68f188955e)" d="M 75.568848 307.584 
L 77.304968 307.584 
L 77.304968 154.496 
L 75.568848 154.496 
z
" style="fill:#ff7f0e;"/>
   </g>
   <g id="patch_42">
    <path clip-path="url(#p68f188955e)" d="M 84.249451 307.584 
L 85.985571 307.584 
L 85.985571 129.529976 
L 84.249451 129.529976 
z
" style="fill:#ff7f0e;"/>
   </g>
   <g id="patch_43">
    <path clip-path="url(#p68f188955e)" d="M 92.930053 307.584 
L 94.666174 307.584 
L 94.666174 54.144 
L 92.930053 54.144 
z
" style="fill:#ff7f0e;"/>
   </g>
   <g id="patch_44">
    <path clip-path="url(#p68f188955e)" d="M 101.610656 307.584 
L 103.346777 307.584 
L 103.346777 89.984 
L 101.610656 89.984 
z
" style="fill:#ff7f0e;"/>
   </g>
   <g id="patch_45">
    <path clip-path="url(#p68f188955e)" d="M 110.291259 307.584 
L 112.02738 307.584 
L 112.02738 99.904 
L 110.291259 99.904 
z
" style="fill:#ff7f0e;"/>
   </g>
   <g id="patch_46">
    <path clip-path="url(#p68f188955e)" d="M 118.971862 307.584 
L 120.707982 307.584 
L 120.707982 146.095543 
L 118.971862 146.095543 
z
" style="fill:#ff7f0e;"/>
   </g>
   <g id="patch_47">
    <path clip-path="url(#p68f188955e)" d="M 127.652465 307.584 
L 129.388585 307.584 
L 129.388585 142.533908 
L 127.652465 142.533908 
z
" style="fill:#ff7f0e;"/>
   </g>
   <g id="patch_48">
    <path clip-path="url(#p68f188955e)" d="M 136.333068 307.584 
L 138.069188 307.584 
L 138.069188 207.616 
L 136.333068 207.616 
z
" style="fill:#ff7f0e;"/>
   </g>
   <g id="patch_49">
    <path clip-path="url(#p68f188955e)" d="M 145.01367 307.584 
L 146.749791 307.584 
L 146.749791 182.674286 
L 145.01367 182.674286 
z
" style="fill:#ff7f0e;"/>
   </g>
   <g id="patch_50">
    <path clip-path="url(#p68f188955e)" d="M 153.694273 307.584 
L 155.430394 307.584 
L 155.430394 156.726857 
L 153.694273 156.726857 
z
" style="fill:#ff7f0e;"/>
   </g>
   <g id="patch_51">
    <path clip-path="url(#p68f188955e)" d="M 162.374876 307.584 
L 164.110997 307.584 
L 164.110997 186.496 
L 162.374876 186.496 
z
" style="fill:#ff7f0e;"/>
   </g>
   <g id="patch_52">
    <path clip-path="url(#p68f188955e)" d="M 171.055479 307.584 
L 172.791599 307.584 
L 172.791599 212.601043 
L 171.055479 212.601043 
z
" style="fill:#ff7f0e;"/>
   </g>
   <g id="patch_53">
    <path clip-path="url(#p68f188955e)" d="M 179.736082 307.584 
L 181.472202 307.584 
L 181.472202 54.144 
L 179.736082 54.144 
z
" style="fill:#ff7f0e;"/>
   </g>
   <g id="patch_54">
    <path clip-path="url(#p68f188955e)" d="M 188.416684 307.584 
L 190.152805 307.584 
L 190.152805 126.555429 
L 188.416684 126.555429 
z
" style="fill:#ff7f0e;"/>
   </g>
   <g id="patch_55">
    <path clip-path="url(#p68f188955e)" d="M 197.097287 307.584 
L 198.833408 307.584 
L 198.833408 215.220747 
L 197.097287 215.220747 
z
" style="fill:#ff7f0e;"/>
   </g>
   <g id="patch_56">
    <path clip-path="url(#p68f188955e)" d="M 205.77789 307.584 
L 207.514011 307.584 
L 207.514011 180.864 
L 205.77789 180.864 
z
" style="fill:#ff7f0e;"/>
   </g>
   <g id="patch_57">
    <path clip-path="url(#p68f188955e)" d="M 214.458493 307.584 
L 216.194614 307.584 
L 216.194614 180.992 
L 214.458493 180.992 
z
" style="fill:#ff7f0e;"/>
   </g>
   <g id="patch_58">
    <path clip-path="url(#p68f188955e)" d="M 223.139096 307.584 
L 224.875216 307.584 
L 224.875216 117.504 
L 223.139096 117.504 
z
" style="fill:#ff7f0e;"/>
   </g>
   <g id="patch_59">
    <path clip-path="url(#p68f188955e)" d="M 231.819699 307.584 
L 233.555819 307.584 
L 233.555819 54.144 
L 231.819699 54.144 
z
" style="fill:#ff7f0e;"/>
   </g>
   <g id="patch_60">
    <path clip-path="url(#p68f188955e)" d="M 240.500301 307.584 
L 242.236422 307.584 
L 242.236422 72.246857 
L 240.500301 72.246857 
z
" style="fill:#ff7f0e;"/>
   </g>
   <g id="patch_61">
    <path clip-path="url(#p68f188955e)" d="M 249.180904 307.584 
L 250.917025 307.584 
L 250.917025 121.069714 
L 249.180904 121.069714 
z
" style="fill:#ff7f0e;"/>
   </g>
   <g id="patch_62">
    <path clip-path="url(#p68f188955e)" d="M 257.861507 307.584 
L 259.597628 307.584 
L 259.597628 167.593213 
L 257.861507 167.593213 
z
" style="fill:#ff7f0e;"/>
   </g>
   <g id="patch_63">
    <path clip-path="url(#p68f188955e)" d="M 266.54211 307.584 
L 268.27823 307.584 
L 268.27823 124.544 
L 266.54211 124.544 
z
" style="fill:#ff7f0e;"/>
   </g>
   <g id="patch_64">
    <path clip-path="url(#p68f188955e)" d="M 275.222713 307.584 
L 276.958833 307.584 
L 276.958833 123.779657 
L 275.222713 123.779657 
z
" style="fill:#ff7f0e;"/>
   </g>
   <g id="patch_65">
    <path clip-path="url(#p68f188955e)" d="M 283.903316 307.584 
L 285.639436 307.584 
L 285.639436 146.646425 
L 283.903316 146.646425 
z
" style="fill:#ff7f0e;"/>
   </g>
   <g id="patch_66">
    <path clip-path="url(#p68f188955e)" d="M 292.583918 307.584 
L 294.320039 307.584 
L 294.320039 173.952 
L 292.583918 173.952 
z
" style="fill:#ff7f0e;"/>
   </g>
   <g id="patch_67">
    <path clip-path="url(#p68f188955e)" d="M 301.264521 307.584 
L 303.000642 307.584 
L 303.000642 61.824 
L 301.264521 61.824 
z
" style="fill:#ff7f0e;"/>
   </g>
   <g id="patch_68">
    <path clip-path="url(#p68f188955e)" d="M 309.945124 307.584 
L 311.681245 307.584 
L 311.681245 63.195429 
L 309.945124 63.195429 
z
" style="fill:#ff7f0e;"/>
   </g>
   <g id="patch_69">
    <path clip-path="url(#p68f188955e)" d="M 318.625727 307.584 
L 320.361847 307.584 
L 320.361847 119.636114 
L 318.625727 119.636114 
z
" style="fill:#ff7f0e;"/>
   </g>
   <g id="patch_70">
    <path clip-path="url(#p68f188955e)" d="M 327.30633 307.584 
L 329.04245 307.584 
L 329.04245 101.76 
L 327.30633 101.76 
z
" style="fill:#ff7f0e;"/>
   </g>
   <g id="patch_71">
    <path clip-path="url(#p68f188955e)" d="M 335.986932 307.584 
L 337.723053 307.584 
L 337.723053 54.144 
L 335.986932 54.144 
z
" style="fill:#ff7f0e;"/>
   </g>
   <g id="patch_72">
    <path clip-path="url(#p68f188955e)" d="M 344.667535 307.584 
L 346.403656 307.584 
L 346.403656 141.44 
L 344.667535 141.44 
z
" style="fill:#ff7f0e;"/>
   </g>
   <g id="patch_73">
    <path clip-path="url(#p68f188955e)" d="M 353.348138 307.584 
L 355.084259 307.584 
L 355.084259 156 
L 353.348138 156 
z
" style="fill:#ff7f0e;"/>
   </g>
   <g id="patch_74">
    <path clip-path="url(#p68f188955e)" d="M 362.028741 307.584 
L 363.764861 307.584 
L 363.764861 212.145853 
L 362.028741 212.145853 
z
" style="fill:#ff7f0e;"/>
   </g>
   <g id="patch_75">
    <path clip-path="url(#p68f188955e)" d="M 370.709344 307.584 
L 372.445464 307.584 
L 372.445464 130.937976 
L 370.709344 130.937976 
z
" style="fill:#ff7f0e;"/>
   </g>
   <g id="patch_76">
    <path clip-path="url(#p68f188955e)" d="M 379.389947 307.584 
L 381.126067 307.584 
L 381.126067 193.536 
L 379.389947 193.536 
z
" style="fill:#ff7f0e;"/>
   </g>
   <g id="patch_77">
    <path clip-path="url(#p68f188955e)" d="M 388.070549 307.584 
L 389.80667 307.584 
L 389.80667 153.399718 
L 388.070549 153.399718 
z
" style="fill:#ff7f0e;"/>
   </g>
   <g id="patch_78">
    <path clip-path="url(#p68f188955e)" d="M 396.751152 307.584 
L 398.487273 307.584 
L 398.487273 148.656 
L 396.751152 148.656 
z
" style="fill:#ff7f0e;"/>
   </g>
   <g id="matplotlib.axis_1">
    <g id="xtick_1">
     <g id="line2d_1">
      <defs>
       <path d="M 0 0 
L 0 3.5 
" id="m4356b91031" style="stroke:#000000;stroke-width:0.8;"/>
      </defs>
      <g>
       <use style="stroke:#000000;stroke-width:0.8;" x="75.568848" xlink:href="#m4356b91031" y="307.584"/>
      </g>
     </g>
     <g id="text_1">
      <text style="font-family:DejaVu Sans;font-size:6px;font-style:normal;font-weight:normal;" transform="translate(72.589056 326.108736)rotate(-45)">85A</text>
     </g>
    </g>
    <g id="xtick_2">
     <g id="line2d_2">
      <g>
       <use style="stroke:#000000;stroke-width:0.8;" x="84.249451" xlink:href="#m4356b91031" y="307.584"/>
      </g>
     </g>
     <g id="text_2">
      <text style="font-family:DejaVu Sans;font-size:6px;font-style:normal;font-weight:normal;" transform="translate(80.150993 328.346066)rotate(-45)">143F</text>
     </g>
    </g>
    <g id="xtick_3">
     <g id="line2d_3">
      <g>
       <use style="stroke:#000000;stroke-width:0.8;" x="92.930053" xlink:href="#m4356b91031" y="307.584"/>
      </g>
     </g>
     <g id="text_3">
      <text style="font-family:DejaVu Sans;font-size:6px;font-style:normal;font-weight:normal;" transform="translate(88.598582 328.812093)rotate(-45)">144X</text>
     </g>
    </g>
    <g id="xtick_4">
     <g id="line2d_4">
      <g>
       <use style="stroke:#000000;stroke-width:0.8;" x="101.610656" xlink:href="#m4356b91031" y="307.584"/>
      </g>
     </g>
     <g id="text_4">
      <text style="font-family:DejaVu Sans;font-size:6px;font-style:normal;font-weight:normal;" transform="translate(97.341168 328.688129)rotate(-45)">144K</text>
     </g>
    </g>
    <g id="xtick_5">
     <g id="line2d_5">
      <g>
       <use style="stroke:#000000;stroke-width:0.8;" x="110.291259" xlink:href="#m4356b91031" y="307.584"/>
      </g>
     </g>
     <g id="text_5">
      <text style="font-family:DejaVu Sans;font-size:6px;font-style:normal;font-weight:normal;" transform="translate(107.311467 326.108736)rotate(-45)">89A</text>
     </g>
    </g>
    <g id="xtick_6">
     <g id="line2d_6">
      <g>
       <use style="stroke:#000000;stroke-width:0.8;" x="118.971862" xlink:href="#m4356b91031" y="307.584"/>
      </g>
     </g>
     <g id="text_6">
      <text style="font-family:DejaVu Sans;font-size:6px;font-style:normal;font-weight:normal;" transform="translate(115.99207 326.108736)rotate(-45)">91A</text>
     </g>
    </g>
    <g id="xtick_7">
     <g id="line2d_7">
      <g>
       <use style="stroke:#000000;stroke-width:0.8;" x="127.652465" xlink:href="#m4356b91031" y="307.584"/>
      </g>
     </g>
     <g id="text_7">
      <text style="font-family:DejaVu Sans;font-size:6px;font-style:normal;font-weight:normal;" transform="translate(124.672673 326.108736)rotate(-45)">93A</text>
     </g>
    </g>
    <g id="xtick_8">
     <g id="line2d_8">
      <g>
       <use style="stroke:#000000;stroke-width:0.8;" x="136.333068" xlink:href="#m4356b91031" y="307.584"/>
      </g>
     </g>
     <g id="text_8">
      <text style="font-family:DejaVu Sans;font-size:6px;font-style:normal;font-weight:normal;" transform="translate(131.821284 329.172718)rotate(-45)">144D</text>
     </g>
    </g>
    <g id="xtick_9">
     <g id="line2d_9">
      <g>
       <use style="stroke:#000000;stroke-width:0.8;" x="145.01367" xlink:href="#m4356b91031" y="307.584"/>
      </g>
     </g>
     <g id="text_9">
      <text style="font-family:DejaVu Sans;font-size:6px;font-style:normal;font-weight:normal;" transform="translate(140.953331 328.269831)rotate(-45)">144L</text>
     </g>
    </g>
    <g id="xtick_10">
     <g id="line2d_10">
      <g>
       <use style="stroke:#000000;stroke-width:0.8;" x="153.694273" xlink:href="#m4356b91031" y="307.584"/>
      </g>
     </g>
     <g id="text_10">
      <text style="font-family:DejaVu Sans;font-size:6px;font-style:normal;font-weight:normal;" transform="translate(150.714481 326.108736)rotate(-45)">83A</text>
     </g>
    </g>
    <g id="xtick_11">
     <g id="line2d_11">
      <g>
       <use style="stroke:#000000;stroke-width:0.8;" x="162.374876" xlink:href="#m4356b91031" y="307.584"/>
      </g>
     </g>
     <g id="text_11">
      <text style="font-family:DejaVu Sans;font-size:6px;font-style:normal;font-weight:normal;" transform="translate(159.395084 326.108736)rotate(-45)">95A</text>
     </g>
    </g>
    <g id="xtick_12">
     <g id="line2d_12">
      <g>
       <use style="stroke:#000000;stroke-width:0.8;" x="171.055479" xlink:href="#m4356b91031" y="307.584"/>
      </g>
     </g>
     <g id="text_12">
      <text style="font-family:DejaVu Sans;font-size:6px;font-style:normal;font-weight:normal;" transform="translate(168.075687 326.108736)rotate(-45)">97A</text>
     </g>
    </g>
    <g id="xtick_13">
     <g id="line2d_13">
      <g>
       <use style="stroke:#000000;stroke-width:0.8;" x="179.736082" xlink:href="#m4356b91031" y="307.584"/>
      </g>
     </g>
     <g id="text_13">
      <text style="font-family:DejaVu Sans;font-size:6px;font-style:normal;font-weight:normal;" transform="translate(174.76026 330.100795)rotate(-45)">144W</text>
     </g>
    </g>
    <g id="xtick_14">
     <g id="line2d_14">
      <g>
       <use style="stroke:#000000;stroke-width:0.8;" x="188.416684" xlink:href="#m4356b91031" y="307.584"/>
      </g>
     </g>
     <g id="text_14">
      <text style="font-family:DejaVu Sans;font-size:6px;font-style:normal;font-weight:normal;" transform="translate(184.064332 328.853857)rotate(-45)">144R</text>
     </g>
    </g>
    <g id="xtick_15">
     <g id="line2d_15">
      <g>
       <use style="stroke:#000000;stroke-width:0.8;" x="197.097287" xlink:href="#m4356b91031" y="307.584"/>
      </g>
     </g>
     <g id="text_15">
      <text style="font-family:DejaVu Sans;font-size:6px;font-style:normal;font-weight:normal;" transform="translate(194.117495 326.108736)rotate(-45)">92A</text>
     </g>
    </g>
    <g id="xtick_16">
     <g id="line2d_16">
      <g>
       <use style="stroke:#000000;stroke-width:0.8;" x="205.77789" xlink:href="#m4356b91031" y="307.584"/>
      </g>
     </g>
     <g id="text_16">
      <text style="font-family:DejaVu Sans;font-size:6px;font-style:normal;font-weight:normal;" transform="translate(201.603861 328.49721)rotate(-45)">144T</text>
     </g>
    </g>
    <g id="xtick_17">
     <g id="line2d_17">
      <g>
       <use style="stroke:#000000;stroke-width:0.8;" x="214.458493" xlink:href="#m4356b91031" y="307.584"/>
      </g>
     </g>
     <g id="text_17">
      <text style="font-family:DejaVu Sans;font-size:6px;font-style:normal;font-weight:normal;" transform="translate(211.478701 326.108736)rotate(-45)">81A</text>
     </g>
    </g>
    <g id="xtick_18">
     <g id="line2d_18">
      <g>
       <use style="stroke:#000000;stroke-width:0.8;" x="223.139096" xlink:href="#m4356b91031" y="307.584"/>
      </g>
     </g>
     <g id="text_18">
      <text style="font-family:DejaVu Sans;font-size:6px;font-style:normal;font-weight:normal;" transform="translate(218.809614 328.808116)rotate(-45)">144V</text>
     </g>
    </g>
    <g id="xtick_19">
     <g id="line2d_19">
      <g>
       <use style="stroke:#000000;stroke-width:0.8;" x="231.819699" xlink:href="#m4356b91031" y="307.584"/>
      </g>
     </g>
     <g id="text_19">
      <text style="font-family:DejaVu Sans;font-size:6px;font-style:normal;font-weight:normal;" transform="translate(227.271455 329.245638)rotate(-45)">144Q</text>
     </g>
    </g>
    <g id="xtick_20">
     <g id="line2d_20">
      <g>
       <use style="stroke:#000000;stroke-width:0.8;" x="240.500301" xlink:href="#m4356b91031" y="307.584"/>
      </g>
     </g>
     <g id="text_20">
      <text style="font-family:DejaVu Sans;font-size:6px;font-style:normal;font-weight:normal;" transform="translate(236.342845 328.464064)rotate(-45)">144P</text>
     </g>
    </g>
    <g id="xtick_21">
     <g id="line2d_21">
      <g>
       <use style="stroke:#000000;stroke-width:0.8;" x="249.180904" xlink:href="#m4356b91031" y="307.584"/>
      </g>
     </g>
     <g id="text_21">
      <text style="font-family:DejaVu Sans;font-size:6px;font-style:normal;font-weight:normal;" transform="translate(246.201112 326.108736)rotate(-45)">94A</text>
     </g>
    </g>
    <g id="xtick_22">
     <g id="line2d_22">
      <g>
       <use style="stroke:#000000;stroke-width:0.8;" x="257.861507" xlink:href="#m4356b91031" y="307.584"/>
      </g>
     </g>
     <g id="text_22">
      <text style="font-family:DejaVu Sans;font-size:6px;font-style:normal;font-weight:normal;" transform="translate(254.881715 326.108736)rotate(-45)">96A</text>
     </g>
    </g>
    <g id="xtick_23">
     <g id="line2d_23">
      <g>
       <use style="stroke:#000000;stroke-width:0.8;" x="266.54211" xlink:href="#m4356b91031" y="307.584"/>
      </g>
     </g>
     <g id="text_23">
      <text style="font-family:DejaVu Sans;font-size:6px;font-style:normal;font-weight:normal;" transform="translate(262.317036 328.599298)rotate(-45)">144S</text>
     </g>
    </g>
    <g id="xtick_24">
     <g id="line2d_24">
      <g>
       <use style="stroke:#000000;stroke-width:0.8;" x="275.222713" xlink:href="#m4356b91031" y="307.584"/>
      </g>
     </g>
     <g id="text_24">
      <text style="font-family:DejaVu Sans;font-size:6px;font-style:normal;font-weight:normal;" transform="translate(272.242921 326.108736)rotate(-45)">90A</text>
     </g>
    </g>
    <g id="xtick_25">
     <g id="line2d_25">
      <g>
       <use style="stroke:#000000;stroke-width:0.8;" x="283.903316" xlink:href="#m4356b91031" y="307.584"/>
      </g>
     </g>
     <g id="text_25">
      <text style="font-family:DejaVu Sans;font-size:6px;font-style:normal;font-weight:normal;" transform="translate(280.923523 326.108736)rotate(-45)">87A</text>
     </g>
    </g>
    <g id="xtick_26">
     <g id="line2d_26">
      <g>
       <use style="stroke:#000000;stroke-width:0.8;" x="292.583918" xlink:href="#m4356b91031" y="307.584"/>
      </g>
     </g>
     <g id="text_26">
      <text style="font-family:DejaVu Sans;font-size:6px;font-style:normal;font-weight:normal;" transform="translate(289.079762 327.157463)rotate(-45)">144I</text>
     </g>
    </g>
    <g id="xtick_27">
     <g id="line2d_27">
      <g>
       <use style="stroke:#000000;stroke-width:0.8;" x="301.264521" xlink:href="#m4356b91031" y="307.584"/>
      </g>
     </g>
     <g id="text_27">
      <text style="font-family:DejaVu Sans;font-size:6px;font-style:normal;font-weight:normal;" transform="translate(296.790855 329.096483)rotate(-45)">144H</text>
     </g>
    </g>
    <g id="xtick_28">
     <g id="line2d_28">
      <g>
       <use style="stroke:#000000;stroke-width:0.8;" x="309.945124" xlink:href="#m4356b91031" y="307.584"/>
      </g>
     </g>
     <g id="text_28">
      <text style="font-family:DejaVu Sans;font-size:6px;font-style:normal;font-weight:normal;" transform="translate(306.935169 326.169061)rotate(-45)">90C</text>
     </g>
    </g>
    <g id="xtick_29">
     <g id="line2d_29">
      <g>
       <use style="stroke:#000000;stroke-width:0.8;" x="318.625727" xlink:href="#m4356b91031" y="307.584"/>
      </g>
     </g>
     <g id="text_29">
      <text style="font-family:DejaVu Sans;font-size:6px;font-style:normal;font-weight:normal;" transform="translate(315.645935 326.108736)rotate(-45)">82A</text>
     </g>
    </g>
    <g id="xtick_30">
     <g id="line2d_30">
      <g>
       <use style="stroke:#000000;stroke-width:0.8;" x="327.30633" xlink:href="#m4356b91031" y="307.584"/>
      </g>
     </g>
     <g id="text_30">
      <text style="font-family:DejaVu Sans;font-size:6px;font-style:normal;font-weight:normal;" transform="translate(323.802174 327.157463)rotate(-45)">144J</text>
     </g>
    </g>
    <g id="xtick_31">
     <g id="line2d_31">
      <g>
       <use style="stroke:#000000;stroke-width:0.8;" x="335.986932" xlink:href="#m4356b91031" y="307.584"/>
      </g>
     </g>
     <g id="text_31">
      <text style="font-family:DejaVu Sans;font-size:6px;font-style:normal;font-weight:normal;" transform="translate(331.464874 329.193268)rotate(-45)">143G</text>
     </g>
    </g>
    <g id="xtick_32">
     <g id="line2d_32">
      <g>
       <use style="stroke:#000000;stroke-width:0.8;" x="344.667535" xlink:href="#m4356b91031" y="307.584"/>
      </g>
     </g>
     <g id="text_32">
      <text style="font-family:DejaVu Sans;font-size:6px;font-style:normal;font-weight:normal;" transform="translate(341.687743 326.108736)rotate(-45)">88A</text>
     </g>
    </g>
    <g id="xtick_33">
     <g id="line2d_33">
      <g>
       <use style="stroke:#000000;stroke-width:0.8;" x="353.348138" xlink:href="#m4356b91031" y="307.584"/>
      </g>
     </g>
     <g id="text_33">
      <text style="font-family:DejaVu Sans;font-size:6px;font-style:normal;font-weight:normal;" transform="translate(350.368346 326.108736)rotate(-45)">86A</text>
     </g>
    </g>
    <g id="xtick_34">
     <g id="line2d_34">
      <g>
       <use style="stroke:#000000;stroke-width:0.8;" x="362.028741" xlink:href="#m4356b91031" y="307.584"/>
      </g>
     </g>
     <g id="text_34">
      <text style="font-family:DejaVu Sans;font-size:6px;font-style:normal;font-weight:normal;" transform="translate(357.699259 328.808116)rotate(-45)">144A</text>
     </g>
    </g>
    <g id="xtick_35">
     <g id="line2d_35">
      <g>
       <use style="stroke:#000000;stroke-width:0.8;" x="370.709344" xlink:href="#m4356b91031" y="307.584"/>
      </g>
     </g>
     <g id="text_35">
      <text style="font-family:DejaVu Sans;font-size:6px;font-style:normal;font-weight:normal;" transform="translate(366.490568 328.586703)rotate(-45)">143E</text>
     </g>
    </g>
    <g id="xtick_36">
     <g id="line2d_36">
      <g>
       <use style="stroke:#000000;stroke-width:0.8;" x="379.389947" xlink:href="#m4356b91031" y="307.584"/>
      </g>
     </g>
     <g id="text_36">
      <text style="font-family:DejaVu Sans;font-size:6px;font-style:normal;font-weight:normal;" transform="translate(376.410154 326.108736)rotate(-45)">84A</text>
     </g>
    </g>
    <g id="xtick_37">
     <g id="line2d_37">
      <g>
       <use style="stroke:#000000;stroke-width:0.8;" x="388.070549" xlink:href="#m4356b91031" y="307.584"/>
      </g>
     </g>
     <g id="text_37">
      <text style="font-family:DejaVu Sans;font-size:6px;font-style:normal;font-weight:normal;" transform="translate(383.741067 328.808116)rotate(-45)">143A</text>
     </g>
    </g>
    <g id="xtick_38">
     <g id="line2d_38">
      <g>
       <use style="stroke:#000000;stroke-width:0.8;" x="396.751152" xlink:href="#m4356b91031" y="307.584"/>
      </g>
     </g>
     <g id="text_38">
      <text style="font-family:DejaVu Sans;font-size:6px;font-style:normal;font-weight:normal;" transform="translate(392.417361 328.816734)rotate(-45)">144B</text>
     </g>
    </g>
   </g>
   <g id="matplotlib.axis_2">
    <g id="ytick_1">
     <g id="line2d_39">
      <defs>
       <path d="M 0 0 
L -3.5 0 
" id="m76807e48c7" style="stroke:#000000;stroke-width:0.8;"/>
      </defs>
      <g>
       <use style="stroke:#000000;stroke-width:0.8;" x="57.6" xlink:href="#m76807e48c7" y="307.584"/>
      </g>
     </g>
     <g id="text_39">
      <text style="font-family:DejaVu Sans;font-size:10px;font-style:normal;font-weight:normal;text-anchor:end;" transform="rotate(-0, 50.6, 311.383219)" x="50.6" y="311.383219">0.0</text>
     </g>
    </g>
    <g id="ytick_2">
     <g id="line2d_40">
      <g>
       <use style="stroke:#000000;stroke-width:0.8;" x="57.6" xlink:href="#m76807e48c7" y="256.896"/>
      </g>
     </g>
     <g id="text_40">
      <text style="font-family:DejaVu Sans;font-size:10px;font-style:normal;font-weight:normal;text-anchor:end;" transform="rotate(-0, 50.6, 260.695219)" x="50.6" y="260.695219">0.2</text>
     </g>
    </g>
    <g id="ytick_3">
     <g id="line2d_41">
      <g>
       <use style="stroke:#000000;stroke-width:0.8;" x="57.6" xlink:href="#m76807e48c7" y="206.208"/>
      </g>
     </g>
     <g id="text_41">
      <text style="font-family:DejaVu Sans;font-size:10px;font-style:normal;font-weight:normal;text-anchor:end;" transform="rotate(-0, 50.6, 210.007219)" x="50.6" y="210.007219">0.4</text>
     </g>
    </g>
    <g id="ytick_4">
     <g id="line2d_42">
      <g>
       <use style="stroke:#000000;stroke-width:0.8;" x="57.6" xlink:href="#m76807e48c7" y="155.52"/>
      </g>
     </g>
     <g id="text_42">
      <text style="font-family:DejaVu Sans;font-size:10px;font-style:normal;font-weight:normal;text-anchor:end;" transform="rotate(-0, 50.6, 159.319219)" x="50.6" y="159.319219">0.6</text>
     </g>
    </g>
    <g id="ytick_5">
     <g id="line2d_43">
      <g>
       <use style="stroke:#000000;stroke-width:0.8;" x="57.6" xlink:href="#m76807e48c7" y="104.832"/>
      </g>
     </g>
     <g id="text_43">
      <text style="font-family:DejaVu Sans;font-size:10px;font-style:normal;font-weight:normal;text-anchor:end;" transform="rotate(-0, 50.6, 108.631219)" x="50.6" y="108.631219">0.8</text>
     </g>
    </g>
    <g id="ytick_6">
     <g id="line2d_44">
      <g>
       <use style="stroke:#000000;stroke-width:0.8;" x="57.6" xlink:href="#m76807e48c7" y="54.144"/>
      </g>
     </g>
     <g id="text_44">
      <text style="font-family:DejaVu Sans;font-size:10px;font-style:normal;font-weight:normal;text-anchor:end;" transform="rotate(-0, 50.6, 57.943219)" x="50.6" y="57.943219">1.0</text>
     </g>
    </g>
   </g>
   <g id="patch_79">
    <path d="M 57.6 307.584 
L 57.6 41.472 
" style="fill:none;stroke:#000000;stroke-linecap:square;stroke-linejoin:miter;stroke-width:0.8;"/>
   </g>
   <g id="patch_80">
    <path d="M 414.72 307.584 
L 414.72 41.472 
" style="fill:none;stroke:#000000;stroke-linecap:square;stroke-linejoin:miter;stroke-width:0.8;"/>
   </g>
   <g id="patch_81">
    <path d="M 57.6 307.584 
L 414.72 307.584 
" style="fill:none;stroke:#000000;stroke-linecap:square;stroke-linejoin:miter;stroke-width:0.8;"/>
   </g>
   <g id="patch_82">
    <path d="M 57.6 41.472 
L 414.72 41.472 
" style="fill:none;stroke:#000000;stroke-linecap:square;stroke-linejoin:miter;stroke-width:0.8;"/>
   </g>
   <g id="legend_1">
    <g id="patch_83">
     <path d="M 342.284063 78.82825 
L 407.72 78.82825 
Q 409.72 78.82825 409.72 76.82825 
L 409.72 48.472 
Q 409.72 46.472 407.72 46.472 
L 342.284063 46.472 
Q 340.284063 46.472 340.284063 48.472 
L 340.284063 76.82825 
Q 340.284063 78.82825 342.284063 78.82825 
z
" style="fill:#ffffff;opacity:0.8;stroke:#cccccc;stroke-linejoin:miter;"/>
    </g>
    <g id="patch_84">
     <path d="M 344.284063 58.070437 
L 364.284063 58.070437 
L 364.284063 51.070437 
L 344.284063 51.070437 
z
" style="fill:#1f77b4;"/>
    </g>
    <g id="text_45">
     <text style="font-family:DejaVu Sans;font-size:10px;font-style:normal;font-weight:normal;text-anchor:start;" transform="rotate(-0, 372.284063, 58.070437)" x="372.284063" y="58.070437">Scores</text>
    </g>
    <g id="patch_85">
     <path d="M 344.284063 72.748562 
L 364.284063 72.748562 
L 364.284063 65.748562 
L 344.284063 65.748562 
z
" style="fill:#ff7f0e;"/>
    </g>
    <g id="text_46">
     <text style="font-family:DejaVu Sans;font-size:10px;font-style:normal;font-weight:normal;text-anchor:start;" transform="rotate(-0, 372.284063, 72.748562)" x="372.284063" y="72.748562">Bases</text>
    </g>
   </g>
  </g>
 </g>
 <defs>
  <clipPath id="p68f188955e">
   <rect height="266.112" width="357.12" x="57.6" y="41.472"/>
  </clipPath>
 </defs>
</svg>
