<?xml version="1.0" encoding="utf-8" standalone="no"?>
<!DOCTYPE svg PUBLIC "-//W3C//DTD SVG 1.1//EN"
  "http://www.w3.org/Graphics/SVG/1.1/DTD/svg11.dtd">
<!-- Created with matplotlib (http://matplotlib.org/) -->
<svg height="345.6pt" version="1.1" viewBox="0 0 460.8 345.6" width="460.8pt" xmlns="http://www.w3.org/2000/svg" xmlns:xlink="http://www.w3.org/1999/xlink">
 <defs>
  <style type="text/css">
*{stroke-linecap:butt;stroke-linejoin:round;}
  </style>
 </defs>
 <g id="figure_1">
  <g id="patch_1">
   <path d="M 0 345.6 
L 460.8 345.6 
L 460.8 0 
L 0 0 
z
" style="fill:#ffffff;"/>
  </g>
  <g id="axes_1">
   <g id="patch_2">
    <path d="M 33.64 310.999143 
L 447.48 310.999143 
L 447.48 13.32 
L 33.64 13.32 
z
" style="fill:#ffffff;"/>
   </g>
   <g id="patch_3">
    <path clip-path="url(#pef925e1308)" d="M 52.450909 310.999143 
L 54.462771 310.999143 
L 54.462771 158.926144 
L 52.450909 158.926144 
z
" style="fill:#1f77b4;"/>
   </g>
   <g id="patch_4">
    <path clip-path="url(#pef925e1308)" d="M 62.510219 310.999143 
L 64.522081 310.999143 
L 64.522081 120.514139 
L 62.510219 120.514139 
z
" style="fill:#1f77b4;"/>
   </g>
   <g id="patch_5">
    <path clip-path="url(#pef925e1308)" d="M 72.569528 310.999143 
L 74.58139 310.999143 
L 74.58139 138.284092 
L 72.569528 138.284092 
z
" style="fill:#1f77b4;"/>
   </g>
   <g id="patch_6">
    <path clip-path="url(#pef925e1308)" d="M 82.628838 310.999143 
L 84.6407 310.999143 
L 84.6407 27.495197 
L 82.628838 27.495197 
z
" style="fill:#1f77b4;"/>
   </g>
   <g id="patch_7">
    <path clip-path="url(#pef925e1308)" d="M 92.688148 310.999143 
L 94.70001 310.999143 
L 94.70001 191.639611 
L 92.688148 191.639611 
z
" style="fill:#1f77b4;"/>
   </g>
   <g id="patch_8">
    <path clip-path="url(#pef925e1308)" d="M 102.747457 310.999143 
L 104.759319 310.999143 
L 104.759319 124.359045 
L 102.747457 124.359045 
z
" style="fill:#1f77b4;"/>
   </g>
   <g id="patch_9">
    <path clip-path="url(#pef925e1308)" d="M 112.806767 310.999143 
L 114.818629 310.999143 
L 114.818629 214.922806 
L 112.806767 214.922806 
z
" style="fill:#1f77b4;"/>
   </g>
   <g id="patch_10">
    <path clip-path="url(#pef925e1308)" d="M 122.866077 310.999143 
L 124.877939 310.999143 
L 124.877939 36.086226 
L 122.866077 36.086226 
z
" style="fill:#1f77b4;"/>
   </g>
   <g id="patch_11">
    <path clip-path="url(#pef925e1308)" d="M 132.925386 310.999143 
L 134.937248 310.999143 
L 134.937248 163.23345 
L 132.925386 163.23345 
z
" style="fill:#1f77b4;"/>
   </g>
   <g id="patch_12">
    <path clip-path="url(#pef925e1308)" d="M 142.984696 310.999143 
L 144.996558 310.999143 
L 144.996558 80.759575 
L 142.984696 80.759575 
z
" style="fill:#1f77b4;"/>
   </g>
   <g id="patch_13">
    <path clip-path="url(#pef925e1308)" d="M 153.044006 310.999143 
L 155.055868 310.999143 
L 155.055868 67.586664 
L 153.044006 67.586664 
z
" style="fill:#1f77b4;"/>
   </g>
   <g id="patch_14">
    <path clip-path="url(#pef925e1308)" d="M 163.103316 310.999143 
L 165.115177 310.999143 
L 165.115177 171.272198 
L 163.103316 171.272198 
z
" style="fill:#1f77b4;"/>
   </g>
   <g id="patch_15">
    <path clip-path="url(#pef925e1308)" d="M 173.162625 310.999143 
L 175.174487 310.999143 
L 175.174487 47.745479 
L 173.162625 47.745479 
z
" style="fill:#1f77b4;"/>
   </g>
   <g id="patch_16">
    <path clip-path="url(#pef925e1308)" d="M 183.221935 310.999143 
L 185.233797 310.999143 
L 185.233797 27.495197 
L 183.221935 27.495197 
z
" style="fill:#1f77b4;"/>
   </g>
   <g id="patch_17">
    <path clip-path="url(#pef925e1308)" d="M 193.281245 310.999143 
L 195.293106 310.999143 
L 195.293106 108.496325 
L 193.281245 108.496325 
z
" style="fill:#1f77b4;"/>
   </g>
   <g id="patch_18">
    <path clip-path="url(#pef925e1308)" d="M 203.340554 310.999143 
L 205.352416 310.999143 
L 205.352416 137.746732 
L 203.340554 137.746732 
z
" style="fill:#1f77b4;"/>
   </g>
   <g id="patch_19">
    <path clip-path="url(#pef925e1308)" d="M 213.399864 310.999143 
L 215.411726 310.999143 
L 215.411726 169.24717 
L 213.399864 169.24717 
z
" style="fill:#1f77b4;"/>
   </g>
   <g id="patch_20">
    <path clip-path="url(#pef925e1308)" d="M 223.459174 310.999143 
L 225.471035 310.999143 
L 225.471035 98.371184 
L 223.459174 98.371184 
z
" style="fill:#1f77b4;"/>
   </g>
   <g id="patch_21">
    <path clip-path="url(#pef925e1308)" d="M 233.518483 310.999143 
L 235.530345 310.999143 
L 235.530345 27.495197 
L 233.518483 27.495197 
z
" style="fill:#1f77b4;"/>
   </g>
   <g id="patch_22">
    <path clip-path="url(#pef925e1308)" d="M 243.577793 310.999143 
L 245.589655 310.999143 
L 245.589655 27.495197 
L 243.577793 27.495197 
z
" style="fill:#1f77b4;"/>
   </g>
   <g id="patch_23">
    <path clip-path="url(#pef925e1308)" d="M 253.637103 310.999143 
L 255.648965 310.999143 
L 255.648965 165.667575 
L 253.637103 165.667575 
z
" style="fill:#1f77b4;"/>
   </g>
   <g id="patch_24">
    <path clip-path="url(#pef925e1308)" d="M 263.696412 310.999143 
L 265.708274 310.999143 
L 265.708274 96.031151 
L 263.696412 96.031151 
z
" style="fill:#1f77b4;"/>
   </g>
   <g id="patch_25">
    <path clip-path="url(#pef925e1308)" d="M 273.755722 310.999143 
L 275.767584 310.999143 
L 275.767584 117.676452 
L 273.755722 117.676452 
z
" style="fill:#1f77b4;"/>
   </g>
   <g id="patch_26">
    <path clip-path="url(#pef925e1308)" d="M 283.815032 310.999143 
L 285.826894 310.999143 
L 285.826894 183.422367 
L 283.815032 183.422367 
z
" style="fill:#1f77b4;"/>
   </g>
   <g id="patch_27">
    <path clip-path="url(#pef925e1308)" d="M 293.874341 310.999143 
L 295.886203 310.999143 
L 295.886203 111.850917 
L 293.874341 111.850917 
z
" style="fill:#1f77b4;"/>
   </g>
   <g id="patch_28">
    <path clip-path="url(#pef925e1308)" d="M 303.933651 310.999143 
L 305.945513 310.999143 
L 305.945513 129.656846 
L 303.933651 129.656846 
z
" style="fill:#1f77b4;"/>
   </g>
   <g id="patch_29">
    <path clip-path="url(#pef925e1308)" d="M 313.992961 310.999143 
L 316.004823 310.999143 
L 316.004823 124.785045 
L 313.992961 124.785045 
z
" style="fill:#1f77b4;"/>
   </g>
   <g id="patch_30">
    <path clip-path="url(#pef925e1308)" d="M 324.05227 310.999143 
L 326.064132 310.999143 
L 326.064132 118.846469 
L 324.05227 118.846469 
z
" style="fill:#1f77b4;"/>
   </g>
   <g id="patch_31">
    <path clip-path="url(#pef925e1308)" d="M 334.11158 310.999143 
L 336.123442 310.999143 
L 336.123442 84.353489 
L 334.11158 84.353489 
z
" style="fill:#1f77b4;"/>
   </g>
   <g id="patch_32">
    <path clip-path="url(#pef925e1308)" d="M 344.17089 310.999143 
L 346.182752 310.999143 
L 346.182752 105.391281 
L 344.17089 105.391281 
z
" style="fill:#1f77b4;"/>
   </g>
   <g id="patch_33">
    <path clip-path="url(#pef925e1308)" d="M 354.230199 310.999143 
L 356.242061 310.999143 
L 356.242061 37.620338 
L 354.230199 37.620338 
z
" style="fill:#1f77b4;"/>
   </g>
   <g id="patch_34">
    <path clip-path="url(#pef925e1308)" d="M 364.289509 310.999143 
L 366.301371 310.999143 
L 366.301371 130.354356 
L 364.289509 130.354356 
z
" style="fill:#1f77b4;"/>
   </g>
   <g id="patch_35">
    <path clip-path="url(#pef925e1308)" d="M 374.348819 310.999143 
L 376.360681 310.999143 
L 376.360681 206.355379 
L 374.348819 206.355379 
z
" style="fill:#1f77b4;"/>
   </g>
   <g id="patch_36">
    <path clip-path="url(#pef925e1308)" d="M 384.408128 310.999143 
L 386.41999 310.999143 
L 386.41999 126.370227 
L 384.408128 126.370227 
z
" style="fill:#1f77b4;"/>
   </g>
   <g id="patch_37">
    <path clip-path="url(#pef925e1308)" d="M 394.467438 310.999143 
L 396.4793 310.999143 
L 396.4793 102.359876 
L 394.467438 102.359876 
z
" style="fill:#1f77b4;"/>
   </g>
   <g id="patch_38">
    <path clip-path="url(#pef925e1308)" d="M 404.526748 310.999143 
L 406.53861 310.999143 
L 406.53861 125.776565 
L 404.526748 125.776565 
z
" style="fill:#1f77b4;"/>
   </g>
   <g id="patch_39">
    <path clip-path="url(#pef925e1308)" d="M 414.586057 310.999143 
L 416.597919 310.999143 
L 416.597919 143.061998 
L 414.586057 143.061998 
z
" style="fill:#1f77b4;"/>
   </g>
   <g id="patch_40">
    <path clip-path="url(#pef925e1308)" d="M 424.645367 310.999143 
L 426.657229 310.999143 
L 426.657229 193.742496 
L 424.645367 193.742496 
z
" style="fill:#1f77b4;"/>
   </g>
   <g id="patch_41">
    <path clip-path="url(#pef925e1308)" d="M 54.462771 310.999143 
L 56.474633 310.999143 
L 56.474633 138.524978 
L 54.462771 138.524978 
z
" style="fill:#ff7f0e;"/>
   </g>
   <g id="patch_42">
    <path clip-path="url(#pef925e1308)" d="M 64.522081 310.999143 
L 66.533943 310.999143 
L 66.533943 113.398746 
L 64.522081 113.398746 
z
" style="fill:#ff7f0e;"/>
   </g>
   <g id="patch_43">
    <path clip-path="url(#pef925e1308)" d="M 74.58139 310.999143 
L 76.593252 310.999143 
L 76.593252 111.823724 
L 74.58139 111.823724 
z
" style="fill:#ff7f0e;"/>
   </g>
   <g id="patch_44">
    <path clip-path="url(#pef925e1308)" d="M 84.6407 310.999143 
L 86.652562 310.999143 
L 86.652562 27.495197 
L 84.6407 27.495197 
z
" style="fill:#ff7f0e;"/>
   </g>
   <g id="patch_45">
    <path clip-path="url(#pef925e1308)" d="M 94.70001 310.999143 
L 96.711872 310.999143 
L 96.711872 204.239786 
L 94.70001 204.239786 
z
" style="fill:#ff7f0e;"/>
   </g>
   <g id="patch_46">
    <path clip-path="url(#pef925e1308)" d="M 104.759319 310.999143 
L 106.771181 310.999143 
L 106.771181 133.218544 
L 104.759319 133.218544 
z
" style="fill:#ff7f0e;"/>
   </g>
   <g id="patch_47">
    <path clip-path="url(#pef925e1308)" d="M 114.818629 310.999143 
L 116.830491 310.999143 
L 116.830491 199.172587 
L 114.818629 199.172587 
z
" style="fill:#ff7f0e;"/>
   </g>
   <g id="patch_48">
    <path clip-path="url(#pef925e1308)" d="M 124.877939 310.999143 
L 126.889801 310.999143 
L 126.889801 36.086226 
L 124.877939 36.086226 
z
" style="fill:#ff7f0e;"/>
   </g>
   <g id="patch_49">
    <path clip-path="url(#pef925e1308)" d="M 134.937248 310.999143 
L 136.94911 310.999143 
L 136.94911 161.515244 
L 134.937248 161.515244 
z
" style="fill:#ff7f0e;"/>
   </g>
   <g id="patch_50">
    <path clip-path="url(#pef925e1308)" d="M 144.996558 310.999143 
L 147.00842 310.999143 
L 147.00842 80.759575 
L 144.996558 80.759575 
z
" style="fill:#ff7f0e;"/>
   </g>
   <g id="patch_51">
    <path clip-path="url(#pef925e1308)" d="M 155.055868 310.999143 
L 157.06773 310.999143 
L 157.06773 67.586664 
L 155.055868 67.586664 
z
" style="fill:#ff7f0e;"/>
   </g>
   <g id="patch_52">
    <path clip-path="url(#pef925e1308)" d="M 165.115177 310.999143 
L 167.127039 310.999143 
L 167.127039 171.272198 
L 165.115177 171.272198 
z
" style="fill:#ff7f0e;"/>
   </g>
   <g id="patch_53">
    <path clip-path="url(#pef925e1308)" d="M 175.174487 310.999143 
L 177.186349 310.999143 
L 177.186349 47.745479 
L 175.174487 47.745479 
z
" style="fill:#ff7f0e;"/>
   </g>
   <g id="patch_54">
    <path clip-path="url(#pef925e1308)" d="M 185.233797 310.999143 
L 187.245659 310.999143 
L 187.245659 27.495197 
L 185.233797 27.495197 
z
" style="fill:#ff7f0e;"/>
   </g>
   <g id="patch_55">
    <path clip-path="url(#pef925e1308)" d="M 195.293106 310.999143 
L 197.304968 310.999143 
L 197.304968 108.496325 
L 195.293106 108.496325 
z
" style="fill:#ff7f0e;"/>
   </g>
   <g id="patch_56">
    <path clip-path="url(#pef925e1308)" d="M 205.352416 310.999143 
L 207.364278 310.999143 
L 207.364278 106.246293 
L 205.352416 106.246293 
z
" style="fill:#ff7f0e;"/>
   </g>
   <g id="patch_57">
    <path clip-path="url(#pef925e1308)" d="M 215.411726 310.999143 
L 217.423588 310.999143 
L 217.423588 169.24717 
L 215.411726 169.24717 
z
" style="fill:#ff7f0e;"/>
   </g>
   <g id="patch_58">
    <path clip-path="url(#pef925e1308)" d="M 225.471035 310.999143 
L 227.482897 310.999143 
L 227.482897 98.371184 
L 225.471035 98.371184 
z
" style="fill:#ff7f0e;"/>
   </g>
   <g id="patch_59">
    <path clip-path="url(#pef925e1308)" d="M 235.530345 310.999143 
L 237.542207 310.999143 
L 237.542207 27.495197 
L 235.530345 27.495197 
z
" style="fill:#ff7f0e;"/>
   </g>
   <g id="patch_60">
    <path clip-path="url(#pef925e1308)" d="M 245.589655 310.999143 
L 247.601517 310.999143 
L 247.601517 27.495197 
L 245.589655 27.495197 
z
" style="fill:#ff7f0e;"/>
   </g>
   <g id="patch_61">
    <path clip-path="url(#pef925e1308)" d="M 255.648965 310.999143 
L 257.660826 310.999143 
L 257.660826 169.390354 
L 255.648965 169.390354 
z
" style="fill:#ff7f0e;"/>
   </g>
   <g id="patch_62">
    <path clip-path="url(#pef925e1308)" d="M 265.708274 310.999143 
L 267.720136 310.999143 
L 267.720136 100.756217 
L 265.708274 100.756217 
z
" style="fill:#ff7f0e;"/>
   </g>
   <g id="patch_63">
    <path clip-path="url(#pef925e1308)" d="M 275.767584 310.999143 
L 277.779446 310.999143 
L 277.779446 142.246794 
L 275.767584 142.246794 
z
" style="fill:#ff7f0e;"/>
   </g>
   <g id="patch_64">
    <path clip-path="url(#pef925e1308)" d="M 285.826894 310.999143 
L 287.838755 310.999143 
L 287.838755 183.422367 
L 285.826894 183.422367 
z
" style="fill:#ff7f0e;"/>
   </g>
   <g id="patch_65">
    <path clip-path="url(#pef925e1308)" d="M 295.886203 310.999143 
L 297.898065 310.999143 
L 297.898065 139.751305 
L 295.886203 139.751305 
z
" style="fill:#ff7f0e;"/>
   </g>
   <g id="patch_66">
    <path clip-path="url(#pef925e1308)" d="M 305.945513 310.999143 
L 307.957375 310.999143 
L 307.957375 141.433715 
L 305.945513 141.433715 
z
" style="fill:#ff7f0e;"/>
   </g>
   <g id="patch_67">
    <path clip-path="url(#pef925e1308)" d="M 316.004823 310.999143 
L 318.016684 310.999143 
L 318.016684 130.970585 
L 316.004823 130.970585 
z
" style="fill:#ff7f0e;"/>
   </g>
   <g id="patch_68">
    <path clip-path="url(#pef925e1308)" d="M 326.064132 310.999143 
L 328.075994 310.999143 
L 328.075994 125.146556 
L 326.064132 125.146556 
z
" style="fill:#ff7f0e;"/>
   </g>
   <g id="patch_69">
    <path clip-path="url(#pef925e1308)" d="M 336.123442 310.999143 
L 338.135304 310.999143 
L 338.135304 78.68341 
L 336.123442 78.68341 
z
" style="fill:#ff7f0e;"/>
   </g>
   <g id="patch_70">
    <path clip-path="url(#pef925e1308)" d="M 346.182752 310.999143 
L 348.194614 310.999143 
L 348.194614 105.391281 
L 346.182752 105.391281 
z
" style="fill:#ff7f0e;"/>
   </g>
   <g id="patch_71">
    <path clip-path="url(#pef925e1308)" d="M 356.242061 310.999143 
L 358.253923 310.999143 
L 358.253923 37.620338 
L 356.242061 37.620338 
z
" style="fill:#ff7f0e;"/>
   </g>
   <g id="patch_72">
    <path clip-path="url(#pef925e1308)" d="M 366.301371 310.999143 
L 368.313233 310.999143 
L 368.313233 130.354356 
L 366.301371 130.354356 
z
" style="fill:#ff7f0e;"/>
   </g>
   <g id="patch_73">
    <path clip-path="url(#pef925e1308)" d="M 376.360681 310.999143 
L 378.372543 310.999143 
L 378.372543 207.679436 
L 376.360681 207.679436 
z
" style="fill:#ff7f0e;"/>
   </g>
   <g id="patch_74">
    <path clip-path="url(#pef925e1308)" d="M 386.41999 310.999143 
L 388.431852 310.999143 
L 388.431852 126.370227 
L 386.41999 126.370227 
z
" style="fill:#ff7f0e;"/>
   </g>
   <g id="patch_75">
    <path clip-path="url(#pef925e1308)" d="M 396.4793 310.999143 
L 398.491162 310.999143 
L 398.491162 102.359876 
L 396.4793 102.359876 
z
" style="fill:#ff7f0e;"/>
   </g>
   <g id="patch_76">
    <path clip-path="url(#pef925e1308)" d="M 406.53861 310.999143 
L 408.550472 310.999143 
L 408.550472 175.547258 
L 406.53861 175.547258 
z
" style="fill:#ff7f0e;"/>
   </g>
   <g id="patch_77">
    <path clip-path="url(#pef925e1308)" d="M 416.597919 310.999143 
L 418.609781 310.999143 
L 418.609781 154.402156 
L 416.597919 154.402156 
z
" style="fill:#ff7f0e;"/>
   </g>
   <g id="patch_78">
    <path clip-path="url(#pef925e1308)" d="M 426.657229 310.999143 
L 428.669091 310.999143 
L 428.669091 204.748973 
L 426.657229 204.748973 
z
" style="fill:#ff7f0e;"/>
   </g>
   <g id="matplotlib.axis_1">
    <g id="xtick_1">
     <g id="line2d_1">
      <defs>
       <path d="M 0 0 
L 0 3.5 
" id="m3fc4bee1d4" style="stroke:#000000;stroke-width:0.8;"/>
      </defs>
      <g>
       <use style="stroke:#000000;stroke-width:0.8;" x="54.462771" xlink:href="#m3fc4bee1d4" y="310.999143"/>
      </g>
     </g>
     <g id="text_1">
      <text style="font-family:DejaVu Sans;font-size:6px;font-style:normal;font-weight:normal;" transform="translate(50.133289 332.223259)rotate(-45)">143A</text>
     </g>
    </g>
    <g id="xtick_2">
     <g id="line2d_2">
      <g>
       <use style="stroke:#000000;stroke-width:0.8;" x="64.522081" xlink:href="#m3fc4bee1d4" y="310.999143"/>
      </g>
     </g>
     <g id="text_2">
      <text style="font-family:DejaVu Sans;font-size:6px;font-style:normal;font-weight:normal;" transform="translate(60.303305 332.001846)rotate(-45)">143E</text>
     </g>
    </g>
    <g id="xtick_3">
     <g id="line2d_3">
      <g>
       <use style="stroke:#000000;stroke-width:0.8;" x="74.58139" xlink:href="#m3fc4bee1d4" y="310.999143"/>
      </g>
     </g>
     <g id="text_3">
      <text style="font-family:DejaVu Sans;font-size:6px;font-style:normal;font-weight:normal;" transform="translate(70.482933 331.761209)rotate(-45)">143F</text>
     </g>
    </g>
    <g id="xtick_4">
     <g id="line2d_4">
      <g>
       <use style="stroke:#000000;stroke-width:0.8;" x="84.6407" xlink:href="#m3fc4bee1d4" y="310.999143"/>
      </g>
     </g>
     <g id="text_4">
      <text style="font-family:DejaVu Sans;font-size:6px;font-style:normal;font-weight:normal;" transform="translate(80.118642 332.608411)rotate(-45)">143G</text>
     </g>
    </g>
    <g id="xtick_5">
     <g id="line2d_5">
      <g>
       <use style="stroke:#000000;stroke-width:0.8;" x="94.70001" xlink:href="#m3fc4bee1d4" y="310.999143"/>
      </g>
     </g>
     <g id="text_5">
      <text style="font-family:DejaVu Sans;font-size:6px;font-style:normal;font-weight:normal;" transform="translate(90.370527 332.223259)rotate(-45)">144A</text>
     </g>
    </g>
    <g id="xtick_6">
     <g id="line2d_6">
      <g>
       <use style="stroke:#000000;stroke-width:0.8;" x="104.759319" xlink:href="#m3fc4bee1d4" y="310.999143"/>
      </g>
     </g>
     <g id="text_6">
      <text style="font-family:DejaVu Sans;font-size:6px;font-style:normal;font-weight:normal;" transform="translate(100.425528 332.231877)rotate(-45)">144B</text>
     </g>
    </g>
    <g id="xtick_7">
     <g id="line2d_7">
      <g>
       <use style="stroke:#000000;stroke-width:0.8;" x="114.818629" xlink:href="#m3fc4bee1d4" y="310.999143"/>
      </g>
     </g>
     <g id="text_7">
      <text style="font-family:DejaVu Sans;font-size:6px;font-style:normal;font-weight:normal;" transform="translate(110.306846 332.587861)rotate(-45)">144D</text>
     </g>
    </g>
    <g id="xtick_8">
     <g id="line2d_8">
      <g>
       <use style="stroke:#000000;stroke-width:0.8;" x="124.877939" xlink:href="#m3fc4bee1d4" y="310.999143"/>
      </g>
     </g>
     <g id="text_8">
      <text style="font-family:DejaVu Sans;font-size:6px;font-style:normal;font-weight:normal;" transform="translate(120.404273 332.511626)rotate(-45)">144H</text>
     </g>
    </g>
    <g id="xtick_9">
     <g id="line2d_9">
      <g>
       <use style="stroke:#000000;stroke-width:0.8;" x="134.937248" xlink:href="#m3fc4bee1d4" y="310.999143"/>
      </g>
     </g>
     <g id="text_9">
      <text style="font-family:DejaVu Sans;font-size:6px;font-style:normal;font-weight:normal;" transform="translate(131.433092 330.572606)rotate(-45)">144I</text>
     </g>
    </g>
    <g id="xtick_10">
     <g id="line2d_10">
      <g>
       <use style="stroke:#000000;stroke-width:0.8;" x="144.996558" xlink:href="#m3fc4bee1d4" y="310.999143"/>
      </g>
     </g>
     <g id="text_10">
      <text style="font-family:DejaVu Sans;font-size:6px;font-style:normal;font-weight:normal;" transform="translate(141.492402 330.572606)rotate(-45)">144J</text>
     </g>
    </g>
    <g id="xtick_11">
     <g id="line2d_11">
      <g>
       <use style="stroke:#000000;stroke-width:0.8;" x="155.055868" xlink:href="#m3fc4bee1d4" y="310.999143"/>
      </g>
     </g>
     <g id="text_11">
      <text style="font-family:DejaVu Sans;font-size:6px;font-style:normal;font-weight:normal;" transform="translate(150.786379 332.103272)rotate(-45)">144K</text>
     </g>
    </g>
    <g id="xtick_12">
     <g id="line2d_12">
      <g>
       <use style="stroke:#000000;stroke-width:0.8;" x="165.115177" xlink:href="#m3fc4bee1d4" y="310.999143"/>
      </g>
     </g>
     <g id="text_12">
      <text style="font-family:DejaVu Sans;font-size:6px;font-style:normal;font-weight:normal;" transform="translate(161.054838 331.684974)rotate(-45)">144L</text>
     </g>
    </g>
    <g id="xtick_13">
     <g id="line2d_13">
      <g>
       <use style="stroke:#000000;stroke-width:0.8;" x="175.174487" xlink:href="#m3fc4bee1d4" y="310.999143"/>
      </g>
     </g>
     <g id="text_13">
      <text style="font-family:DejaVu Sans;font-size:6px;font-style:normal;font-weight:normal;" transform="translate(171.017031 331.879207)rotate(-45)">144P</text>
     </g>
    </g>
    <g id="xtick_14">
     <g id="line2d_14">
      <g>
       <use style="stroke:#000000;stroke-width:0.8;" x="185.233797" xlink:href="#m3fc4bee1d4" y="310.999143"/>
      </g>
     </g>
     <g id="text_14">
      <text style="font-family:DejaVu Sans;font-size:6px;font-style:normal;font-weight:normal;" transform="translate(180.685553 332.660781)rotate(-45)">144Q</text>
     </g>
    </g>
    <g id="xtick_15">
     <g id="line2d_15">
      <g>
       <use style="stroke:#000000;stroke-width:0.8;" x="195.293106" xlink:href="#m3fc4bee1d4" y="310.999143"/>
      </g>
     </g>
     <g id="text_15">
      <text style="font-family:DejaVu Sans;font-size:6px;font-style:normal;font-weight:normal;" transform="translate(190.940754 332.269)rotate(-45)">144R</text>
     </g>
    </g>
    <g id="xtick_16">
     <g id="line2d_16">
      <g>
       <use style="stroke:#000000;stroke-width:0.8;" x="205.352416" xlink:href="#m3fc4bee1d4" y="310.999143"/>
      </g>
     </g>
     <g id="text_16">
      <text style="font-family:DejaVu Sans;font-size:6px;font-style:normal;font-weight:normal;" transform="translate(201.127343 332.014441)rotate(-45)">144S</text>
     </g>
    </g>
    <g id="xtick_17">
     <g id="line2d_17">
      <g>
       <use style="stroke:#000000;stroke-width:0.8;" x="215.411726" xlink:href="#m3fc4bee1d4" y="310.999143"/>
      </g>
     </g>
     <g id="text_17">
      <text style="font-family:DejaVu Sans;font-size:6px;font-style:normal;font-weight:normal;" transform="translate(211.237697 331.912353)rotate(-45)">144T</text>
     </g>
    </g>
    <g id="xtick_18">
     <g id="line2d_18">
      <g>
       <use style="stroke:#000000;stroke-width:0.8;" x="225.471035" xlink:href="#m3fc4bee1d4" y="310.999143"/>
      </g>
     </g>
     <g id="text_18">
      <text style="font-family:DejaVu Sans;font-size:6px;font-style:normal;font-weight:normal;" transform="translate(221.141553 332.223259)rotate(-45)">144V</text>
     </g>
    </g>
    <g id="xtick_19">
     <g id="line2d_19">
      <g>
       <use style="stroke:#000000;stroke-width:0.8;" x="235.530345" xlink:href="#m3fc4bee1d4" y="310.999143"/>
      </g>
     </g>
     <g id="text_19">
      <text style="font-family:DejaVu Sans;font-size:6px;font-style:normal;font-weight:normal;" transform="translate(230.554523 333.515938)rotate(-45)">144W</text>
     </g>
    </g>
    <g id="xtick_20">
     <g id="line2d_20">
      <g>
       <use style="stroke:#000000;stroke-width:0.8;" x="245.589655" xlink:href="#m3fc4bee1d4" y="310.999143"/>
      </g>
     </g>
     <g id="text_20">
      <text style="font-family:DejaVu Sans;font-size:6px;font-style:normal;font-weight:normal;" transform="translate(241.258184 332.227236)rotate(-45)">144X</text>
     </g>
    </g>
    <g id="xtick_21">
     <g id="line2d_21">
      <g>
       <use style="stroke:#000000;stroke-width:0.8;" x="255.648965" xlink:href="#m3fc4bee1d4" y="310.999143"/>
      </g>
     </g>
     <g id="text_21">
      <text style="font-family:DejaVu Sans;font-size:6px;font-style:normal;font-weight:normal;" transform="translate(252.669172 329.523879)rotate(-45)">81A</text>
     </g>
    </g>
    <g id="xtick_22">
     <g id="line2d_22">
      <g>
       <use style="stroke:#000000;stroke-width:0.8;" x="265.708274" xlink:href="#m3fc4bee1d4" y="310.999143"/>
      </g>
     </g>
     <g id="text_22">
      <text style="font-family:DejaVu Sans;font-size:6px;font-style:normal;font-weight:normal;" transform="translate(262.728482 329.523879)rotate(-45)">82A</text>
     </g>
    </g>
    <g id="xtick_23">
     <g id="line2d_23">
      <g>
       <use style="stroke:#000000;stroke-width:0.8;" x="275.767584" xlink:href="#m3fc4bee1d4" y="310.999143"/>
      </g>
     </g>
     <g id="text_23">
      <text style="font-family:DejaVu Sans;font-size:6px;font-style:normal;font-weight:normal;" transform="translate(272.787792 329.523879)rotate(-45)">83A</text>
     </g>
    </g>
    <g id="xtick_24">
     <g id="line2d_24">
      <g>
       <use style="stroke:#000000;stroke-width:0.8;" x="285.826894" xlink:href="#m3fc4bee1d4" y="310.999143"/>
      </g>
     </g>
     <g id="text_24">
      <text style="font-family:DejaVu Sans;font-size:6px;font-style:normal;font-weight:normal;" transform="translate(282.847101 329.523879)rotate(-45)">84A</text>
     </g>
    </g>
    <g id="xtick_25">
     <g id="line2d_25">
      <g>
       <use style="stroke:#000000;stroke-width:0.8;" x="295.886203" xlink:href="#m3fc4bee1d4" y="310.999143"/>
      </g>
     </g>
     <g id="text_25">
      <text style="font-family:DejaVu Sans;font-size:6px;font-style:normal;font-weight:normal;" transform="translate(292.906411 329.523879)rotate(-45)">85A</text>
     </g>
    </g>
    <g id="xtick_26">
     <g id="line2d_26">
      <g>
       <use style="stroke:#000000;stroke-width:0.8;" x="305.945513" xlink:href="#m3fc4bee1d4" y="310.999143"/>
      </g>
     </g>
     <g id="text_26">
      <text style="font-family:DejaVu Sans;font-size:6px;font-style:normal;font-weight:normal;" transform="translate(302.965721 329.523879)rotate(-45)">86A</text>
     </g>
    </g>
    <g id="xtick_27">
     <g id="line2d_27">
      <g>
       <use style="stroke:#000000;stroke-width:0.8;" x="316.004823" xlink:href="#m3fc4bee1d4" y="310.999143"/>
      </g>
     </g>
     <g id="text_27">
      <text style="font-family:DejaVu Sans;font-size:6px;font-style:normal;font-weight:normal;" transform="translate(313.02503 329.523879)rotate(-45)">87A</text>
     </g>
    </g>
    <g id="xtick_28">
     <g id="line2d_28">
      <g>
       <use style="stroke:#000000;stroke-width:0.8;" x="326.064132" xlink:href="#m3fc4bee1d4" y="310.999143"/>
      </g>
     </g>
     <g id="text_28">
      <text style="font-family:DejaVu Sans;font-size:6px;font-style:normal;font-weight:normal;" transform="translate(323.08434 329.523879)rotate(-45)">88A</text>
     </g>
    </g>
    <g id="xtick_29">
     <g id="line2d_29">
      <g>
       <use style="stroke:#000000;stroke-width:0.8;" x="336.123442" xlink:href="#m3fc4bee1d4" y="310.999143"/>
      </g>
     </g>
     <g id="text_29">
      <text style="font-family:DejaVu Sans;font-size:6px;font-style:normal;font-weight:normal;" transform="translate(333.14365 329.523879)rotate(-45)">89A</text>
     </g>
    </g>
    <g id="xtick_30">
     <g id="line2d_30">
      <g>
       <use style="stroke:#000000;stroke-width:0.8;" x="346.182752" xlink:href="#m3fc4bee1d4" y="310.999143"/>
      </g>
     </g>
     <g id="text_30">
      <text style="font-family:DejaVu Sans;font-size:6px;font-style:normal;font-weight:normal;" transform="translate(343.202959 329.523879)rotate(-45)">90A</text>
     </g>
    </g>
    <g id="xtick_31">
     <g id="line2d_31">
      <g>
       <use style="stroke:#000000;stroke-width:0.8;" x="356.242061" xlink:href="#m3fc4bee1d4" y="310.999143"/>
      </g>
     </g>
     <g id="text_31">
      <text style="font-family:DejaVu Sans;font-size:6px;font-style:normal;font-weight:normal;" transform="translate(353.232107 329.584204)rotate(-45)">90C</text>
     </g>
    </g>
    <g id="xtick_32">
     <g id="line2d_32">
      <g>
       <use style="stroke:#000000;stroke-width:0.8;" x="366.301371" xlink:href="#m3fc4bee1d4" y="310.999143"/>
      </g>
     </g>
     <g id="text_32">
      <text style="font-family:DejaVu Sans;font-size:6px;font-style:normal;font-weight:normal;" transform="translate(363.321579 329.523879)rotate(-45)">91A</text>
     </g>
    </g>
    <g id="xtick_33">
     <g id="line2d_33">
      <g>
       <use style="stroke:#000000;stroke-width:0.8;" x="376.360681" xlink:href="#m3fc4bee1d4" y="310.999143"/>
      </g>
     </g>
     <g id="text_33">
      <text style="font-family:DejaVu Sans;font-size:6px;font-style:normal;font-weight:normal;" transform="translate(373.380888 329.523879)rotate(-45)">92A</text>
     </g>
    </g>
    <g id="xtick_34">
     <g id="line2d_34">
      <g>
       <use style="stroke:#000000;stroke-width:0.8;" x="386.41999" xlink:href="#m3fc4bee1d4" y="310.999143"/>
      </g>
     </g>
     <g id="text_34">
      <text style="font-family:DejaVu Sans;font-size:6px;font-style:normal;font-weight:normal;" transform="translate(383.440198 329.523879)rotate(-45)">93A</text>
     </g>
    </g>
    <g id="xtick_35">
     <g id="line2d_35">
      <g>
       <use style="stroke:#000000;stroke-width:0.8;" x="396.4793" xlink:href="#m3fc4bee1d4" y="310.999143"/>
      </g>
     </g>
     <g id="text_35">
      <text style="font-family:DejaVu Sans;font-size:6px;font-style:normal;font-weight:normal;" transform="translate(393.499508 329.523879)rotate(-45)">94A</text>
     </g>
    </g>
    <g id="xtick_36">
     <g id="line2d_36">
      <g>
       <use style="stroke:#000000;stroke-width:0.8;" x="406.53861" xlink:href="#m3fc4bee1d4" y="310.999143"/>
      </g>
     </g>
     <g id="text_36">
      <text style="font-family:DejaVu Sans;font-size:6px;font-style:normal;font-weight:normal;" transform="translate(403.558817 329.523879)rotate(-45)">95A</text>
     </g>
    </g>
    <g id="xtick_37">
     <g id="line2d_37">
      <g>
       <use style="stroke:#000000;stroke-width:0.8;" x="416.597919" xlink:href="#m3fc4bee1d4" y="310.999143"/>
      </g>
     </g>
     <g id="text_37">
      <text style="font-family:DejaVu Sans;font-size:6px;font-style:normal;font-weight:normal;" transform="translate(413.618127 329.523879)rotate(-45)">96A</text>
     </g>
    </g>
    <g id="xtick_38">
     <g id="line2d_38">
      <g>
       <use style="stroke:#000000;stroke-width:0.8;" x="426.657229" xlink:href="#m3fc4bee1d4" y="310.999143"/>
      </g>
     </g>
     <g id="text_38">
      <text style="font-family:DejaVu Sans;font-size:6px;font-style:normal;font-weight:normal;" transform="translate(423.677437 329.523879)rotate(-45)">97A</text>
     </g>
    </g>
   </g>
   <g id="matplotlib.axis_2">
    <g id="ytick_1">
     <g id="line2d_39">
      <defs>
       <path d="M 0 0 
L -3.5 0 
" id="m6fc39d3763" style="stroke:#000000;stroke-width:0.8;"/>
      </defs>
      <g>
       <use style="stroke:#000000;stroke-width:0.8;" x="33.64" xlink:href="#m6fc39d3763" y="310.999143"/>
      </g>
     </g>
     <g id="text_39">
      <text style="font-family:DejaVu Sans;font-size:10px;font-style:normal;font-weight:normal;text-anchor:end;" transform="rotate(-0, 26.64, 314.798362)" x="26.64" y="314.798362">0.0</text>
     </g>
    </g>
    <g id="ytick_2">
     <g id="line2d_40">
      <g>
       <use style="stroke:#000000;stroke-width:0.8;" x="33.64" xlink:href="#m6fc39d3763" y="254.298354"/>
      </g>
     </g>
     <g id="text_40">
      <text style="font-family:DejaVu Sans;font-size:10px;font-style:normal;font-weight:normal;text-anchor:end;" transform="rotate(-0, 26.64, 258.097573)" x="26.64" y="258.097573">0.2</text>
     </g>
    </g>
    <g id="ytick_3">
     <g id="line2d_41">
      <g>
       <use style="stroke:#000000;stroke-width:0.8;" x="33.64" xlink:href="#m6fc39d3763" y="197.597565"/>
      </g>
     </g>
     <g id="text_41">
      <text style="font-family:DejaVu Sans;font-size:10px;font-style:normal;font-weight:normal;text-anchor:end;" transform="rotate(-0, 26.64, 201.396783)" x="26.64" y="201.396783">0.4</text>
     </g>
    </g>
    <g id="ytick_4">
     <g id="line2d_42">
      <g>
       <use style="stroke:#000000;stroke-width:0.8;" x="33.64" xlink:href="#m6fc39d3763" y="140.896776"/>
      </g>
     </g>
     <g id="text_42">
      <text style="font-family:DejaVu Sans;font-size:10px;font-style:normal;font-weight:normal;text-anchor:end;" transform="rotate(-0, 26.64, 144.695994)" x="26.64" y="144.695994">0.6</text>
     </g>
    </g>
    <g id="ytick_5">
     <g id="line2d_43">
      <g>
       <use style="stroke:#000000;stroke-width:0.8;" x="33.64" xlink:href="#m6fc39d3763" y="84.195986"/>
      </g>
     </g>
     <g id="text_43">
      <text style="font-family:DejaVu Sans;font-size:10px;font-style:normal;font-weight:normal;text-anchor:end;" transform="rotate(-0, 26.64, 87.995205)" x="26.64" y="87.995205">0.8</text>
     </g>
    </g>
    <g id="ytick_6">
     <g id="line2d_44">
      <g>
       <use style="stroke:#000000;stroke-width:0.8;" x="33.64" xlink:href="#m6fc39d3763" y="27.495197"/>
      </g>
     </g>
     <g id="text_44">
      <text style="font-family:DejaVu Sans;font-size:10px;font-style:normal;font-weight:normal;text-anchor:end;" transform="rotate(-0, 26.64, 31.294416)" x="26.64" y="31.294416">1.0</text>
     </g>
    </g>
   </g>
   <g id="patch_79">
    <path d="M 33.64 310.999143 
L 33.64 13.32 
" style="fill:none;stroke:#000000;stroke-linecap:square;stroke-linejoin:miter;stroke-width:0.8;"/>
   </g>
   <g id="patch_80">
    <path d="M 447.48 310.999143 
L 447.48 13.32 
" style="fill:none;stroke:#000000;stroke-linecap:square;stroke-linejoin:miter;stroke-width:0.8;"/>
   </g>
   <g id="patch_81">
    <path d="M 33.64 310.999143 
L 447.48 310.999143 
" style="fill:none;stroke:#000000;stroke-linecap:square;stroke-linejoin:miter;stroke-width:0.8;"/>
   </g>
   <g id="patch_82">
    <path d="M 33.64 13.32 
L 447.48 13.32 
" style="fill:none;stroke:#000000;stroke-linecap:square;stroke-linejoin:miter;stroke-width:0.8;"/>
   </g>
   <g id="legend_1">
    <g id="patch_83">
     <path d="M 375.044062 50.67625 
L 440.48 50.67625 
Q 442.48 50.67625 442.48 48.67625 
L 442.48 20.32 
Q 442.48 18.32 440.48 18.32 
L 375.044062 18.32 
Q 373.044062 18.32 373.044062 20.32 
L 373.044062 48.67625 
Q 373.044062 50.67625 375.044062 50.67625 
z
" style="fill:#ffffff;opacity:0.8;stroke:#cccccc;stroke-linejoin:miter;"/>
    </g>
    <g id="patch_84">
     <path d="M 377.044062 29.918437 
L 397.044062 29.918437 
L 397.044062 22.918437 
L 377.044062 22.918437 
z
" style="fill:#1f77b4;"/>
    </g>
    <g id="text_45">
     <text style="font-family:DejaVu Sans;font-size:10px;font-style:normal;font-weight:normal;text-anchor:start;" transform="rotate(-0, 405.044062, 29.918437)" x="405.044062" y="29.918437">Scores</text>
    </g>
    <g id="patch_85">
     <path d="M 377.044062 44.596563 
L 397.044062 44.596563 
L 397.044062 37.596563 
L 377.044062 37.596563 
z
" style="fill:#ff7f0e;"/>
    </g>
    <g id="text_46">
     <text style="font-family:DejaVu Sans;font-size:10px;font-style:normal;font-weight:normal;text-anchor:start;" transform="rotate(-0, 405.044062, 44.596563)" x="405.044062" y="44.596563">Bases</text>
    </g>
   </g>
  </g>
 </g>
 <defs>
  <clipPath id="pef925e1308">
   <rect height="297.679143" width="413.84" x="33.64" y="13.32"/>
  </clipPath>
 </defs>
</svg>
