<?xml version="1.0" encoding="utf-8" standalone="no"?>
<!DOCTYPE svg PUBLIC "-//W3C//DTD SVG 1.1//EN"
  "http://www.w3.org/Graphics/SVG/1.1/DTD/svg11.dtd">
<!-- Created with matplotlib (http://matplotlib.org/) -->
<svg height="345.6pt" version="1.1" viewBox="0 0 460.8 345.6" width="460.8pt" xmlns="http://www.w3.org/2000/svg" xmlns:xlink="http://www.w3.org/1999/xlink">
 <defs>
  <style type="text/css">
*{stroke-linecap:butt;stroke-linejoin:round;}
  </style>
 </defs>
 <g id="figure_1">
  <g id="patch_1">
   <path d="M 0 345.6 
L 460.8 345.6 
L 460.8 0 
L 0 0 
z
" style="fill:#ffffff;"/>
  </g>
  <g id="axes_1">
   <g id="patch_2">
    <path d="M 33.64 310.999143 
L 447.48 310.999143 
L 447.48 13.32 
L 33.64 13.32 
z
" style="fill:#ffffff;"/>
   </g>
   <g id="patch_3">
    <path clip-path="url(#p59b7e3d0fd)" d="M 52.450909 310.999143 
L 54.360646 310.999143 
L 54.360646 157.981131 
L 52.450909 157.981131 
z
" style="fill:#1f77b4;"/>
   </g>
   <g id="patch_4">
    <path clip-path="url(#p59b7e3d0fd)" d="M 61.999594 310.999143 
L 63.909331 310.999143 
L 63.909331 310.999143 
L 61.999594 310.999143 
z
" style="fill:#1f77b4;"/>
   </g>
   <g id="patch_5">
    <path clip-path="url(#p59b7e3d0fd)" d="M 71.548279 310.999143 
L 73.458016 310.999143 
L 73.458016 128.574545 
L 71.548279 128.574545 
z
" style="fill:#1f77b4;"/>
   </g>
   <g id="patch_6">
    <path clip-path="url(#p59b7e3d0fd)" d="M 81.096964 310.999143 
L 83.006701 310.999143 
L 83.006701 142.064145 
L 81.096964 142.064145 
z
" style="fill:#1f77b4;"/>
   </g>
   <g id="patch_7">
    <path clip-path="url(#p59b7e3d0fd)" d="M 90.645648 310.999143 
L 92.555385 310.999143 
L 92.555385 27.495197 
L 90.645648 27.495197 
z
" style="fill:#1f77b4;"/>
   </g>
   <g id="patch_8">
    <path clip-path="url(#p59b7e3d0fd)" d="M 100.194333 310.999143 
L 102.10407 310.999143 
L 102.10407 193.828062 
L 100.194333 193.828062 
z
" style="fill:#1f77b4;"/>
   </g>
   <g id="patch_9">
    <path clip-path="url(#p59b7e3d0fd)" d="M 109.743018 310.999143 
L 111.652755 310.999143 
L 111.652755 100.26121 
L 109.743018 100.26121 
z
" style="fill:#1f77b4;"/>
   </g>
   <g id="patch_10">
    <path clip-path="url(#p59b7e3d0fd)" d="M 119.291703 310.999143 
L 121.20144 310.999143 
L 121.20144 191.297477 
L 119.291703 191.297477 
z
" style="fill:#1f77b4;"/>
   </g>
   <g id="patch_11">
    <path clip-path="url(#p59b7e3d0fd)" d="M 128.840388 310.999143 
L 130.750125 310.999143 
L 130.750125 36.086226 
L 128.840388 36.086226 
z
" style="fill:#1f77b4;"/>
   </g>
   <g id="patch_12">
    <path clip-path="url(#p59b7e3d0fd)" d="M 138.389072 310.999143 
L 140.298809 310.999143 
L 140.298809 163.23345 
L 138.389072 163.23345 
z
" style="fill:#1f77b4;"/>
   </g>
   <g id="patch_13">
    <path clip-path="url(#p59b7e3d0fd)" d="M 147.937757 310.999143 
L 149.847494 310.999143 
L 149.847494 80.759575 
L 147.937757 80.759575 
z
" style="fill:#1f77b4;"/>
   </g>
   <g id="patch_14">
    <path clip-path="url(#p59b7e3d0fd)" d="M 157.486442 310.999143 
L 159.396179 310.999143 
L 159.396179 67.586664 
L 157.486442 67.586664 
z
" style="fill:#1f77b4;"/>
   </g>
   <g id="patch_15">
    <path clip-path="url(#p59b7e3d0fd)" d="M 167.035127 310.999143 
L 168.944864 310.999143 
L 168.944864 241.641928 
L 167.035127 241.641928 
z
" style="fill:#1f77b4;"/>
   </g>
   <g id="patch_16">
    <path clip-path="url(#p59b7e3d0fd)" d="M 176.583812 310.999143 
L 178.493549 310.999143 
L 178.493549 40.995385 
L 176.583812 40.995385 
z
" style="fill:#1f77b4;"/>
   </g>
   <g id="patch_17">
    <path clip-path="url(#p59b7e3d0fd)" d="M 186.132497 310.999143 
L 188.042234 310.999143 
L 188.042234 27.495197 
L 186.132497 27.495197 
z
" style="fill:#1f77b4;"/>
   </g>
   <g id="patch_18">
    <path clip-path="url(#p59b7e3d0fd)" d="M 195.681181 310.999143 
L 197.590918 310.999143 
L 197.590918 118.621466 
L 195.681181 118.621466 
z
" style="fill:#1f77b4;"/>
   </g>
   <g id="patch_19">
    <path clip-path="url(#p59b7e3d0fd)" d="M 205.229866 310.999143 
L 207.139603 310.999143 
L 207.139603 165.309615 
L 205.229866 165.309615 
z
" style="fill:#1f77b4;"/>
   </g>
   <g id="patch_20">
    <path clip-path="url(#p59b7e3d0fd)" d="M 214.778551 310.999143 
L 216.688288 310.999143 
L 216.688288 133.809177 
L 214.778551 133.809177 
z
" style="fill:#1f77b4;"/>
   </g>
   <g id="patch_21">
    <path clip-path="url(#p59b7e3d0fd)" d="M 224.327236 310.999143 
L 226.236973 310.999143 
L 226.236973 62.93319 
L 224.327236 62.93319 
z
" style="fill:#1f77b4;"/>
   </g>
   <g id="patch_22">
    <path clip-path="url(#p59b7e3d0fd)" d="M 233.875921 310.999143 
L 235.785658 310.999143 
L 235.785658 27.495197 
L 233.875921 27.495197 
z
" style="fill:#1f77b4;"/>
   </g>
   <g id="patch_23">
    <path clip-path="url(#p59b7e3d0fd)" d="M 243.424605 310.999143 
L 245.334342 310.999143 
L 245.334342 27.495197 
L 243.424605 27.495197 
z
" style="fill:#1f77b4;"/>
   </g>
   <g id="patch_24">
    <path clip-path="url(#p59b7e3d0fd)" d="M 252.97329 310.999143 
L 254.883027 310.999143 
L 254.883027 168.817619 
L 252.97329 168.817619 
z
" style="fill:#1f77b4;"/>
   </g>
   <g id="patch_25">
    <path clip-path="url(#p59b7e3d0fd)" d="M 262.521975 310.999143 
L 264.431712 310.999143 
L 264.431712 98.393684 
L 262.521975 98.393684 
z
" style="fill:#1f77b4;"/>
   </g>
   <g id="patch_26">
    <path clip-path="url(#p59b7e3d0fd)" d="M 272.07066 310.999143 
L 273.980397 310.999143 
L 273.980397 121.771509 
L 272.07066 121.771509 
z
" style="fill:#1f77b4;"/>
   </g>
   <g id="patch_27">
    <path clip-path="url(#p59b7e3d0fd)" d="M 281.619345 310.999143 
L 283.529082 310.999143 
L 283.529082 166.412131 
L 281.619345 166.412131 
z
" style="fill:#1f77b4;"/>
   </g>
   <g id="patch_28">
    <path clip-path="url(#p59b7e3d0fd)" d="M 291.16803 310.999143 
L 293.077766 310.999143 
L 293.077766 92.770651 
L 291.16803 92.770651 
z
" style="fill:#1f77b4;"/>
   </g>
   <g id="patch_29">
    <path clip-path="url(#p59b7e3d0fd)" d="M 300.716714 310.999143 
L 302.626451 310.999143 
L 302.626451 118.202141 
L 300.716714 118.202141 
z
" style="fill:#1f77b4;"/>
   </g>
   <g id="patch_30">
    <path clip-path="url(#p59b7e3d0fd)" d="M 310.265399 310.999143 
L 312.175136 310.999143 
L 312.175136 117.050629 
L 310.265399 117.050629 
z
" style="fill:#1f77b4;"/>
   </g>
   <g id="patch_31">
    <path clip-path="url(#p59b7e3d0fd)" d="M 319.814084 310.999143 
L 321.723821 310.999143 
L 321.723821 112.602632 
L 319.814084 112.602632 
z
" style="fill:#1f77b4;"/>
   </g>
   <g id="patch_32">
    <path clip-path="url(#p59b7e3d0fd)" d="M 329.362769 310.999143 
L 331.272506 310.999143 
L 331.272506 63.878204 
L 329.362769 63.878204 
z
" style="fill:#1f77b4;"/>
   </g>
   <g id="patch_33">
    <path clip-path="url(#p59b7e3d0fd)" d="M 338.911454 310.999143 
L 340.821191 310.999143 
L 340.821191 105.391281 
L 338.911454 105.391281 
z
" style="fill:#1f77b4;"/>
   </g>
   <g id="patch_34">
    <path clip-path="url(#p59b7e3d0fd)" d="M 348.460138 310.999143 
L 350.369875 310.999143 
L 350.369875 27.495197 
L 348.460138 27.495197 
z
" style="fill:#1f77b4;"/>
   </g>
   <g id="patch_35">
    <path clip-path="url(#p59b7e3d0fd)" d="M 358.008823 310.999143 
L 359.91856 310.999143 
L 359.91856 54.495573 
L 358.008823 54.495573 
z
" style="fill:#1f77b4;"/>
   </g>
   <g id="patch_36">
    <path clip-path="url(#p59b7e3d0fd)" d="M 367.557508 310.999143 
L 369.467245 310.999143 
L 369.467245 119.014198 
L 367.557508 119.014198 
z
" style="fill:#1f77b4;"/>
   </g>
   <g id="patch_37">
    <path clip-path="url(#p59b7e3d0fd)" d="M 377.106193 310.999143 
L 379.01593 310.999143 
L 379.01593 219.440176 
L 377.106193 219.440176 
z
" style="fill:#1f77b4;"/>
   </g>
   <g id="patch_38">
    <path clip-path="url(#p59b7e3d0fd)" d="M 386.654878 310.999143 
L 388.564615 310.999143 
L 388.564615 108.414977 
L 386.654878 108.414977 
z
" style="fill:#1f77b4;"/>
   </g>
   <g id="patch_39">
    <path clip-path="url(#p59b7e3d0fd)" d="M 396.203563 310.999143 
L 398.113299 310.999143 
L 398.113299 118.560101 
L 396.203563 118.560101 
z
" style="fill:#1f77b4;"/>
   </g>
   <g id="patch_40">
    <path clip-path="url(#p59b7e3d0fd)" d="M 405.752247 310.999143 
L 407.661984 310.999143 
L 407.661984 125.776565 
L 405.752247 125.776565 
z
" style="fill:#1f77b4;"/>
   </g>
   <g id="patch_41">
    <path clip-path="url(#p59b7e3d0fd)" d="M 415.300932 310.999143 
L 417.210669 310.999143 
L 417.210669 135.974399 
L 415.300932 135.974399 
z
" style="fill:#1f77b4;"/>
   </g>
   <g id="patch_42">
    <path clip-path="url(#p59b7e3d0fd)" d="M 424.849617 310.999143 
L 426.759354 310.999143 
L 426.759354 197.577332 
L 424.849617 197.577332 
z
" style="fill:#1f77b4;"/>
   </g>
   <g id="patch_43">
    <path clip-path="url(#p59b7e3d0fd)" d="M 54.360646 310.999143 
L 56.270383 310.999143 
L 56.270383 138.524978 
L 54.360646 138.524978 
z
" style="fill:#ff7f0e;"/>
   </g>
   <g id="patch_44">
    <path clip-path="url(#p59b7e3d0fd)" d="M 63.909331 310.999143 
L 65.819068 310.999143 
L 65.819068 310.999143 
L 63.909331 310.999143 
z
" style="fill:#ff7f0e;"/>
   </g>
   <g id="patch_45">
    <path clip-path="url(#p59b7e3d0fd)" d="M 73.458016 310.999143 
L 75.367753 310.999143 
L 75.367753 113.398746 
L 73.458016 113.398746 
z
" style="fill:#ff7f0e;"/>
   </g>
   <g id="patch_46">
    <path clip-path="url(#p59b7e3d0fd)" d="M 83.006701 310.999143 
L 84.916437 310.999143 
L 84.916437 111.823724 
L 83.006701 111.823724 
z
" style="fill:#ff7f0e;"/>
   </g>
   <g id="patch_47">
    <path clip-path="url(#p59b7e3d0fd)" d="M 92.555385 310.999143 
L 94.465122 310.999143 
L 94.465122 27.495197 
L 92.555385 27.495197 
z
" style="fill:#ff7f0e;"/>
   </g>
   <g id="patch_48">
    <path clip-path="url(#p59b7e3d0fd)" d="M 102.10407 310.999143 
L 104.013807 310.999143 
L 104.013807 204.239786 
L 102.10407 204.239786 
z
" style="fill:#ff7f0e;"/>
   </g>
   <g id="patch_49">
    <path clip-path="url(#p59b7e3d0fd)" d="M 111.652755 310.999143 
L 113.562492 310.999143 
L 113.562492 130.974137 
L 111.652755 130.974137 
z
" style="fill:#ff7f0e;"/>
   </g>
   <g id="patch_50">
    <path clip-path="url(#p59b7e3d0fd)" d="M 121.20144 310.999143 
L 123.111177 310.999143 
L 123.111177 199.172587 
L 121.20144 199.172587 
z
" style="fill:#ff7f0e;"/>
   </g>
   <g id="patch_51">
    <path clip-path="url(#p59b7e3d0fd)" d="M 130.750125 310.999143 
L 132.659862 310.999143 
L 132.659862 36.086226 
L 130.750125 36.086226 
z
" style="fill:#ff7f0e;"/>
   </g>
   <g id="patch_52">
    <path clip-path="url(#p59b7e3d0fd)" d="M 140.298809 310.999143 
L 142.208546 310.999143 
L 142.208546 161.515244 
L 140.298809 161.515244 
z
" style="fill:#ff7f0e;"/>
   </g>
   <g id="patch_53">
    <path clip-path="url(#p59b7e3d0fd)" d="M 149.847494 310.999143 
L 151.757231 310.999143 
L 151.757231 80.759575 
L 149.847494 80.759575 
z
" style="fill:#ff7f0e;"/>
   </g>
   <g id="patch_54">
    <path clip-path="url(#p59b7e3d0fd)" d="M 159.396179 310.999143 
L 161.305916 310.999143 
L 161.305916 67.586664 
L 159.396179 67.586664 
z
" style="fill:#ff7f0e;"/>
   </g>
   <g id="patch_55">
    <path clip-path="url(#p59b7e3d0fd)" d="M 168.944864 310.999143 
L 170.854601 310.999143 
L 170.854601 206.203934 
L 168.944864 206.203934 
z
" style="fill:#ff7f0e;"/>
   </g>
   <g id="patch_56">
    <path clip-path="url(#p59b7e3d0fd)" d="M 178.493549 310.999143 
L 180.403286 310.999143 
L 180.403286 40.995385 
L 178.493549 40.995385 
z
" style="fill:#ff7f0e;"/>
   </g>
   <g id="patch_57">
    <path clip-path="url(#p59b7e3d0fd)" d="M 188.042234 310.999143 
L 189.95197 310.999143 
L 189.95197 27.495197 
L 188.042234 27.495197 
z
" style="fill:#ff7f0e;"/>
   </g>
   <g id="patch_58">
    <path clip-path="url(#p59b7e3d0fd)" d="M 197.590918 310.999143 
L 199.500655 310.999143 
L 199.500655 105.121278 
L 197.590918 105.121278 
z
" style="fill:#ff7f0e;"/>
   </g>
   <g id="patch_59">
    <path clip-path="url(#p59b7e3d0fd)" d="M 207.139603 310.999143 
L 209.04934 310.999143 
L 209.04934 167.278393 
L 207.139603 167.278393 
z
" style="fill:#ff7f0e;"/>
   </g>
   <g id="patch_60">
    <path clip-path="url(#p59b7e3d0fd)" d="M 216.688288 310.999143 
L 218.598025 310.999143 
L 218.598025 133.809177 
L 216.688288 133.809177 
z
" style="fill:#ff7f0e;"/>
   </g>
   <g id="patch_61">
    <path clip-path="url(#p59b7e3d0fd)" d="M 226.236973 310.999143 
L 228.14671 310.999143 
L 228.14671 62.93319 
L 226.236973 62.93319 
z
" style="fill:#ff7f0e;"/>
   </g>
   <g id="patch_62">
    <path clip-path="url(#p59b7e3d0fd)" d="M 235.785658 310.999143 
L 237.695395 310.999143 
L 237.695395 27.495197 
L 235.785658 27.495197 
z
" style="fill:#ff7f0e;"/>
   </g>
   <g id="patch_63">
    <path clip-path="url(#p59b7e3d0fd)" d="M 245.334342 310.999143 
L 247.244079 310.999143 
L 247.244079 27.495197 
L 245.334342 27.495197 
z
" style="fill:#ff7f0e;"/>
   </g>
   <g id="patch_64">
    <path clip-path="url(#p59b7e3d0fd)" d="M 254.883027 310.999143 
L 256.792764 310.999143 
L 256.792764 169.390354 
L 254.883027 169.390354 
z
" style="fill:#ff7f0e;"/>
   </g>
   <g id="patch_65">
    <path clip-path="url(#p59b7e3d0fd)" d="M 264.431712 310.999143 
L 266.341449 310.999143 
L 266.341449 100.756217 
L 264.431712 100.756217 
z
" style="fill:#ff7f0e;"/>
   </g>
   <g id="patch_66">
    <path clip-path="url(#p59b7e3d0fd)" d="M 273.980397 310.999143 
L 275.890134 310.999143 
L 275.890134 142.246794 
L 273.980397 142.246794 
z
" style="fill:#ff7f0e;"/>
   </g>
   <g id="patch_67">
    <path clip-path="url(#p59b7e3d0fd)" d="M 283.529082 310.999143 
L 285.438819 310.999143 
L 285.438819 166.412131 
L 283.529082 166.412131 
z
" style="fill:#ff7f0e;"/>
   </g>
   <g id="patch_68">
    <path clip-path="url(#p59b7e3d0fd)" d="M 293.077766 310.999143 
L 294.987503 310.999143 
L 294.987503 139.751305 
L 293.077766 139.751305 
z
" style="fill:#ff7f0e;"/>
   </g>
   <g id="patch_69">
    <path clip-path="url(#p59b7e3d0fd)" d="M 302.626451 310.999143 
L 304.536188 310.999143 
L 304.536188 141.433715 
L 302.626451 141.433715 
z
" style="fill:#ff7f0e;"/>
   </g>
   <g id="patch_70">
    <path clip-path="url(#p59b7e3d0fd)" d="M 312.175136 310.999143 
L 314.084873 310.999143 
L 314.084873 130.970585 
L 312.175136 130.970585 
z
" style="fill:#ff7f0e;"/>
   </g>
   <g id="patch_71">
    <path clip-path="url(#p59b7e3d0fd)" d="M 321.723821 310.999143 
L 323.633558 310.999143 
L 323.633558 125.146556 
L 321.723821 125.146556 
z
" style="fill:#ff7f0e;"/>
   </g>
   <g id="patch_72">
    <path clip-path="url(#p59b7e3d0fd)" d="M 331.272506 310.999143 
L 333.182243 310.999143 
L 333.182243 78.68341 
L 331.272506 78.68341 
z
" style="fill:#ff7f0e;"/>
   </g>
   <g id="patch_73">
    <path clip-path="url(#p59b7e3d0fd)" d="M 340.821191 310.999143 
L 342.730928 310.999143 
L 342.730928 105.391281 
L 340.821191 105.391281 
z
" style="fill:#ff7f0e;"/>
   </g>
   <g id="patch_74">
    <path clip-path="url(#p59b7e3d0fd)" d="M 350.369875 310.999143 
L 352.279612 310.999143 
L 352.279612 27.495197 
L 350.369875 27.495197 
z
" style="fill:#ff7f0e;"/>
   </g>
   <g id="patch_75">
    <path clip-path="url(#p59b7e3d0fd)" d="M 359.91856 310.999143 
L 361.828297 310.999143 
L 361.828297 54.495573 
L 359.91856 54.495573 
z
" style="fill:#ff7f0e;"/>
   </g>
   <g id="patch_76">
    <path clip-path="url(#p59b7e3d0fd)" d="M 369.467245 310.999143 
L 371.376982 310.999143 
L 371.376982 130.354356 
L 369.467245 130.354356 
z
" style="fill:#ff7f0e;"/>
   </g>
   <g id="patch_77">
    <path clip-path="url(#p59b7e3d0fd)" d="M 379.01593 310.999143 
L 380.925667 310.999143 
L 380.925667 207.679436 
L 379.01593 207.679436 
z
" style="fill:#ff7f0e;"/>
   </g>
   <g id="patch_78">
    <path clip-path="url(#p59b7e3d0fd)" d="M 388.564615 310.999143 
L 390.474352 310.999143 
L 390.474352 126.370227 
L 388.564615 126.370227 
z
" style="fill:#ff7f0e;"/>
   </g>
   <g id="patch_79">
    <path clip-path="url(#p59b7e3d0fd)" d="M 398.113299 310.999143 
L 400.023036 310.999143 
L 400.023036 102.359876 
L 398.113299 102.359876 
z
" style="fill:#ff7f0e;"/>
   </g>
   <g id="patch_80">
    <path clip-path="url(#p59b7e3d0fd)" d="M 407.661984 310.999143 
L 409.571721 310.999143 
L 409.571721 175.547258 
L 407.661984 175.547258 
z
" style="fill:#ff7f0e;"/>
   </g>
   <g id="patch_81">
    <path clip-path="url(#p59b7e3d0fd)" d="M 417.210669 310.999143 
L 419.120406 310.999143 
L 419.120406 154.402156 
L 417.210669 154.402156 
z
" style="fill:#ff7f0e;"/>
   </g>
   <g id="patch_82">
    <path clip-path="url(#p59b7e3d0fd)" d="M 426.759354 310.999143 
L 428.669091 310.999143 
L 428.669091 204.748973 
L 426.759354 204.748973 
z
" style="fill:#ff7f0e;"/>
   </g>
   <g id="matplotlib.axis_1">
    <g id="xtick_1">
     <g id="line2d_1">
      <defs>
       <path d="M 0 0 
L 0 3.5 
" id="me6a1138cb7" style="stroke:#000000;stroke-width:0.8;"/>
      </defs>
      <g>
       <use style="stroke:#000000;stroke-width:0.8;" x="54.360646" xlink:href="#me6a1138cb7" y="310.999143"/>
      </g>
     </g>
     <g id="text_1">
      <text style="font-family:DejaVu Sans;font-size:6px;font-style:normal;font-weight:normal;" transform="translate(50.031164 332.223259)rotate(-45)">143A</text>
     </g>
    </g>
    <g id="xtick_2">
     <g id="line2d_2">
      <g>
       <use style="stroke:#000000;stroke-width:0.8;" x="63.909331" xlink:href="#me6a1138cb7" y="310.999143"/>
      </g>
     </g>
     <g id="text_2">
      <text style="font-family:DejaVu Sans;font-size:6px;font-style:normal;font-weight:normal;" transform="translate(59.57554 332.231877)rotate(-45)">143B</text>
     </g>
    </g>
    <g id="xtick_3">
     <g id="line2d_3">
      <g>
       <use style="stroke:#000000;stroke-width:0.8;" x="73.458016" xlink:href="#me6a1138cb7" y="310.999143"/>
      </g>
     </g>
     <g id="text_3">
      <text style="font-family:DejaVu Sans;font-size:6px;font-style:normal;font-weight:normal;" transform="translate(69.23924 332.001846)rotate(-45)">143E</text>
     </g>
    </g>
    <g id="xtick_4">
     <g id="line2d_4">
      <g>
       <use style="stroke:#000000;stroke-width:0.8;" x="83.006701" xlink:href="#me6a1138cb7" y="310.999143"/>
      </g>
     </g>
     <g id="text_4">
      <text style="font-family:DejaVu Sans;font-size:6px;font-style:normal;font-weight:normal;" transform="translate(78.908243 331.761209)rotate(-45)">143F</text>
     </g>
    </g>
    <g id="xtick_5">
     <g id="line2d_5">
      <g>
       <use style="stroke:#000000;stroke-width:0.8;" x="92.555385" xlink:href="#me6a1138cb7" y="310.999143"/>
      </g>
     </g>
     <g id="text_5">
      <text style="font-family:DejaVu Sans;font-size:6px;font-style:normal;font-weight:normal;" transform="translate(88.033327 332.608411)rotate(-45)">143G</text>
     </g>
    </g>
    <g id="xtick_6">
     <g id="line2d_6">
      <g>
       <use style="stroke:#000000;stroke-width:0.8;" x="102.10407" xlink:href="#me6a1138cb7" y="310.999143"/>
      </g>
     </g>
     <g id="text_6">
      <text style="font-family:DejaVu Sans;font-size:6px;font-style:normal;font-weight:normal;" transform="translate(97.774588 332.223259)rotate(-45)">144A</text>
     </g>
    </g>
    <g id="xtick_7">
     <g id="line2d_7">
      <g>
       <use style="stroke:#000000;stroke-width:0.8;" x="111.652755" xlink:href="#me6a1138cb7" y="310.999143"/>
      </g>
     </g>
     <g id="text_7">
      <text style="font-family:DejaVu Sans;font-size:6px;font-style:normal;font-weight:normal;" transform="translate(107.318964 332.231877)rotate(-45)">144B</text>
     </g>
    </g>
    <g id="xtick_8">
     <g id="line2d_8">
      <g>
       <use style="stroke:#000000;stroke-width:0.8;" x="121.20144" xlink:href="#me6a1138cb7" y="310.999143"/>
      </g>
     </g>
     <g id="text_8">
      <text style="font-family:DejaVu Sans;font-size:6px;font-style:normal;font-weight:normal;" transform="translate(116.689657 332.587861)rotate(-45)">144D</text>
     </g>
    </g>
    <g id="xtick_9">
     <g id="line2d_9">
      <g>
       <use style="stroke:#000000;stroke-width:0.8;" x="130.750125" xlink:href="#me6a1138cb7" y="310.999143"/>
      </g>
     </g>
     <g id="text_9">
      <text style="font-family:DejaVu Sans;font-size:6px;font-style:normal;font-weight:normal;" transform="translate(126.276459 332.511626)rotate(-45)">144H</text>
     </g>
    </g>
    <g id="xtick_10">
     <g id="line2d_10">
      <g>
       <use style="stroke:#000000;stroke-width:0.8;" x="140.298809" xlink:href="#me6a1138cb7" y="310.999143"/>
      </g>
     </g>
     <g id="text_10">
      <text style="font-family:DejaVu Sans;font-size:6px;font-style:normal;font-weight:normal;" transform="translate(136.794653 330.572606)rotate(-45)">144I</text>
     </g>
    </g>
    <g id="xtick_11">
     <g id="line2d_11">
      <g>
       <use style="stroke:#000000;stroke-width:0.8;" x="149.847494" xlink:href="#me6a1138cb7" y="310.999143"/>
      </g>
     </g>
     <g id="text_11">
      <text style="font-family:DejaVu Sans;font-size:6px;font-style:normal;font-weight:normal;" transform="translate(146.343338 330.572606)rotate(-45)">144J</text>
     </g>
    </g>
    <g id="xtick_12">
     <g id="line2d_12">
      <g>
       <use style="stroke:#000000;stroke-width:0.8;" x="159.396179" xlink:href="#me6a1138cb7" y="310.999143"/>
      </g>
     </g>
     <g id="text_12">
      <text style="font-family:DejaVu Sans;font-size:6px;font-style:normal;font-weight:normal;" transform="translate(155.12669 332.103272)rotate(-45)">144K</text>
     </g>
    </g>
    <g id="xtick_13">
     <g id="line2d_13">
      <g>
       <use style="stroke:#000000;stroke-width:0.8;" x="168.944864" xlink:href="#me6a1138cb7" y="310.999143"/>
      </g>
     </g>
     <g id="text_13">
      <text style="font-family:DejaVu Sans;font-size:6px;font-style:normal;font-weight:normal;" transform="translate(164.884524 331.684974)rotate(-45)">144L</text>
     </g>
    </g>
    <g id="xtick_14">
     <g id="line2d_14">
      <g>
       <use style="stroke:#000000;stroke-width:0.8;" x="178.493549" xlink:href="#me6a1138cb7" y="310.999143"/>
      </g>
     </g>
     <g id="text_14">
      <text style="font-family:DejaVu Sans;font-size:6px;font-style:normal;font-weight:normal;" transform="translate(174.336092 331.879207)rotate(-45)">144P</text>
     </g>
    </g>
    <g id="xtick_15">
     <g id="line2d_15">
      <g>
       <use style="stroke:#000000;stroke-width:0.8;" x="188.042234" xlink:href="#me6a1138cb7" y="310.999143"/>
      </g>
     </g>
     <g id="text_15">
      <text style="font-family:DejaVu Sans;font-size:6px;font-style:normal;font-weight:normal;" transform="translate(183.49399 332.660781)rotate(-45)">144Q</text>
     </g>
    </g>
    <g id="xtick_16">
     <g id="line2d_16">
      <g>
       <use style="stroke:#000000;stroke-width:0.8;" x="197.590918" xlink:href="#me6a1138cb7" y="310.999143"/>
      </g>
     </g>
     <g id="text_16">
      <text style="font-family:DejaVu Sans;font-size:6px;font-style:normal;font-weight:normal;" transform="translate(193.238566 332.269)rotate(-45)">144R</text>
     </g>
    </g>
    <g id="xtick_17">
     <g id="line2d_17">
      <g>
       <use style="stroke:#000000;stroke-width:0.8;" x="207.139603" xlink:href="#me6a1138cb7" y="310.999143"/>
      </g>
     </g>
     <g id="text_17">
      <text style="font-family:DejaVu Sans;font-size:6px;font-style:normal;font-weight:normal;" transform="translate(202.91453 332.014441)rotate(-45)">144S</text>
     </g>
    </g>
    <g id="xtick_18">
     <g id="line2d_18">
      <g>
       <use style="stroke:#000000;stroke-width:0.8;" x="216.688288" xlink:href="#me6a1138cb7" y="310.999143"/>
      </g>
     </g>
     <g id="text_18">
      <text style="font-family:DejaVu Sans;font-size:6px;font-style:normal;font-weight:normal;" transform="translate(212.514259 331.912353)rotate(-45)">144T</text>
     </g>
    </g>
    <g id="xtick_19">
     <g id="line2d_19">
      <g>
       <use style="stroke:#000000;stroke-width:0.8;" x="226.236973" xlink:href="#me6a1138cb7" y="310.999143"/>
      </g>
     </g>
     <g id="text_19">
      <text style="font-family:DejaVu Sans;font-size:6px;font-style:normal;font-weight:normal;" transform="translate(221.907491 332.223259)rotate(-45)">144V</text>
     </g>
    </g>
    <g id="xtick_20">
     <g id="line2d_20">
      <g>
       <use style="stroke:#000000;stroke-width:0.8;" x="235.785658" xlink:href="#me6a1138cb7" y="310.999143"/>
      </g>
     </g>
     <g id="text_20">
      <text style="font-family:DejaVu Sans;font-size:6px;font-style:normal;font-weight:normal;" transform="translate(230.809836 333.515938)rotate(-45)">144W</text>
     </g>
    </g>
    <g id="xtick_21">
     <g id="line2d_21">
      <g>
       <use style="stroke:#000000;stroke-width:0.8;" x="245.334342" xlink:href="#me6a1138cb7" y="310.999143"/>
      </g>
     </g>
     <g id="text_21">
      <text style="font-family:DejaVu Sans;font-size:6px;font-style:normal;font-weight:normal;" transform="translate(241.002871 332.227236)rotate(-45)">144X</text>
     </g>
    </g>
    <g id="xtick_22">
     <g id="line2d_22">
      <g>
       <use style="stroke:#000000;stroke-width:0.8;" x="254.883027" xlink:href="#me6a1138cb7" y="310.999143"/>
      </g>
     </g>
     <g id="text_22">
      <text style="font-family:DejaVu Sans;font-size:6px;font-style:normal;font-weight:normal;" transform="translate(251.903235 329.523879)rotate(-45)">81A</text>
     </g>
    </g>
    <g id="xtick_23">
     <g id="line2d_23">
      <g>
       <use style="stroke:#000000;stroke-width:0.8;" x="264.431712" xlink:href="#me6a1138cb7" y="310.999143"/>
      </g>
     </g>
     <g id="text_23">
      <text style="font-family:DejaVu Sans;font-size:6px;font-style:normal;font-weight:normal;" transform="translate(261.45192 329.523879)rotate(-45)">82A</text>
     </g>
    </g>
    <g id="xtick_24">
     <g id="line2d_24">
      <g>
       <use style="stroke:#000000;stroke-width:0.8;" x="273.980397" xlink:href="#me6a1138cb7" y="310.999143"/>
      </g>
     </g>
     <g id="text_24">
      <text style="font-family:DejaVu Sans;font-size:6px;font-style:normal;font-weight:normal;" transform="translate(271.000605 329.523879)rotate(-45)">83A</text>
     </g>
    </g>
    <g id="xtick_25">
     <g id="line2d_25">
      <g>
       <use style="stroke:#000000;stroke-width:0.8;" x="283.529082" xlink:href="#me6a1138cb7" y="310.999143"/>
      </g>
     </g>
     <g id="text_25">
      <text style="font-family:DejaVu Sans;font-size:6px;font-style:normal;font-weight:normal;" transform="translate(280.54929 329.523879)rotate(-45)">84A</text>
     </g>
    </g>
    <g id="xtick_26">
     <g id="line2d_26">
      <g>
       <use style="stroke:#000000;stroke-width:0.8;" x="293.077766" xlink:href="#me6a1138cb7" y="310.999143"/>
      </g>
     </g>
     <g id="text_26">
      <text style="font-family:DejaVu Sans;font-size:6px;font-style:normal;font-weight:normal;" transform="translate(290.097974 329.523879)rotate(-45)">85A</text>
     </g>
    </g>
    <g id="xtick_27">
     <g id="line2d_27">
      <g>
       <use style="stroke:#000000;stroke-width:0.8;" x="302.626451" xlink:href="#me6a1138cb7" y="310.999143"/>
      </g>
     </g>
     <g id="text_27">
      <text style="font-family:DejaVu Sans;font-size:6px;font-style:normal;font-weight:normal;" transform="translate(299.646659 329.523879)rotate(-45)">86A</text>
     </g>
    </g>
    <g id="xtick_28">
     <g id="line2d_28">
      <g>
       <use style="stroke:#000000;stroke-width:0.8;" x="312.175136" xlink:href="#me6a1138cb7" y="310.999143"/>
      </g>
     </g>
     <g id="text_28">
      <text style="font-family:DejaVu Sans;font-size:6px;font-style:normal;font-weight:normal;" transform="translate(309.195344 329.523879)rotate(-45)">87A</text>
     </g>
    </g>
    <g id="xtick_29">
     <g id="line2d_29">
      <g>
       <use style="stroke:#000000;stroke-width:0.8;" x="321.723821" xlink:href="#me6a1138cb7" y="310.999143"/>
      </g>
     </g>
     <g id="text_29">
      <text style="font-family:DejaVu Sans;font-size:6px;font-style:normal;font-weight:normal;" transform="translate(318.744029 329.523879)rotate(-45)">88A</text>
     </g>
    </g>
    <g id="xtick_30">
     <g id="line2d_30">
      <g>
       <use style="stroke:#000000;stroke-width:0.8;" x="331.272506" xlink:href="#me6a1138cb7" y="310.999143"/>
      </g>
     </g>
     <g id="text_30">
      <text style="font-family:DejaVu Sans;font-size:6px;font-style:normal;font-weight:normal;" transform="translate(328.292714 329.523879)rotate(-45)">89A</text>
     </g>
    </g>
    <g id="xtick_31">
     <g id="line2d_31">
      <g>
       <use style="stroke:#000000;stroke-width:0.8;" x="340.821191" xlink:href="#me6a1138cb7" y="310.999143"/>
      </g>
     </g>
     <g id="text_31">
      <text style="font-family:DejaVu Sans;font-size:6px;font-style:normal;font-weight:normal;" transform="translate(337.841398 329.523879)rotate(-45)">90A</text>
     </g>
    </g>
    <g id="xtick_32">
     <g id="line2d_32">
      <g>
       <use style="stroke:#000000;stroke-width:0.8;" x="350.369875" xlink:href="#me6a1138cb7" y="310.999143"/>
      </g>
     </g>
     <g id="text_32">
      <text style="font-family:DejaVu Sans;font-size:6px;font-style:normal;font-weight:normal;" transform="translate(347.385774 329.532496)rotate(-45)">90B</text>
     </g>
    </g>
    <g id="xtick_33">
     <g id="line2d_33">
      <g>
       <use style="stroke:#000000;stroke-width:0.8;" x="359.91856" xlink:href="#me6a1138cb7" y="310.999143"/>
      </g>
     </g>
     <g id="text_33">
      <text style="font-family:DejaVu Sans;font-size:6px;font-style:normal;font-weight:normal;" transform="translate(356.908606 329.584204)rotate(-45)">90C</text>
     </g>
    </g>
    <g id="xtick_34">
     <g id="line2d_34">
      <g>
       <use style="stroke:#000000;stroke-width:0.8;" x="369.467245" xlink:href="#me6a1138cb7" y="310.999143"/>
      </g>
     </g>
     <g id="text_34">
      <text style="font-family:DejaVu Sans;font-size:6px;font-style:normal;font-weight:normal;" transform="translate(366.487453 329.523879)rotate(-45)">91A</text>
     </g>
    </g>
    <g id="xtick_35">
     <g id="line2d_35">
      <g>
       <use style="stroke:#000000;stroke-width:0.8;" x="379.01593" xlink:href="#me6a1138cb7" y="310.999143"/>
      </g>
     </g>
     <g id="text_35">
      <text style="font-family:DejaVu Sans;font-size:6px;font-style:normal;font-weight:normal;" transform="translate(376.036138 329.523879)rotate(-45)">92A</text>
     </g>
    </g>
    <g id="xtick_36">
     <g id="line2d_36">
      <g>
       <use style="stroke:#000000;stroke-width:0.8;" x="388.564615" xlink:href="#me6a1138cb7" y="310.999143"/>
      </g>
     </g>
     <g id="text_36">
      <text style="font-family:DejaVu Sans;font-size:6px;font-style:normal;font-weight:normal;" transform="translate(385.584823 329.523879)rotate(-45)">93A</text>
     </g>
    </g>
    <g id="xtick_37">
     <g id="line2d_37">
      <g>
       <use style="stroke:#000000;stroke-width:0.8;" x="398.113299" xlink:href="#me6a1138cb7" y="310.999143"/>
      </g>
     </g>
     <g id="text_37">
      <text style="font-family:DejaVu Sans;font-size:6px;font-style:normal;font-weight:normal;" transform="translate(395.133507 329.523879)rotate(-45)">94A</text>
     </g>
    </g>
    <g id="xtick_38">
     <g id="line2d_38">
      <g>
       <use style="stroke:#000000;stroke-width:0.8;" x="407.661984" xlink:href="#me6a1138cb7" y="310.999143"/>
      </g>
     </g>
     <g id="text_38">
      <text style="font-family:DejaVu Sans;font-size:6px;font-style:normal;font-weight:normal;" transform="translate(404.682192 329.523879)rotate(-45)">95A</text>
     </g>
    </g>
    <g id="xtick_39">
     <g id="line2d_39">
      <g>
       <use style="stroke:#000000;stroke-width:0.8;" x="417.210669" xlink:href="#me6a1138cb7" y="310.999143"/>
      </g>
     </g>
     <g id="text_39">
      <text style="font-family:DejaVu Sans;font-size:6px;font-style:normal;font-weight:normal;" transform="translate(414.230877 329.523879)rotate(-45)">96A</text>
     </g>
    </g>
    <g id="xtick_40">
     <g id="line2d_40">
      <g>
       <use style="stroke:#000000;stroke-width:0.8;" x="426.759354" xlink:href="#me6a1138cb7" y="310.999143"/>
      </g>
     </g>
     <g id="text_40">
      <text style="font-family:DejaVu Sans;font-size:6px;font-style:normal;font-weight:normal;" transform="translate(423.779562 329.523879)rotate(-45)">97A</text>
     </g>
    </g>
   </g>
   <g id="matplotlib.axis_2">
    <g id="ytick_1">
     <g id="line2d_41">
      <defs>
       <path d="M 0 0 
L -3.5 0 
" id="ma79c447c51" style="stroke:#000000;stroke-width:0.8;"/>
      </defs>
      <g>
       <use style="stroke:#000000;stroke-width:0.8;" x="33.64" xlink:href="#ma79c447c51" y="310.999143"/>
      </g>
     </g>
     <g id="text_41">
      <text style="font-family:DejaVu Sans;font-size:10px;font-style:normal;font-weight:normal;text-anchor:end;" transform="rotate(-0, 26.64, 314.798362)" x="26.64" y="314.798362">0.0</text>
     </g>
    </g>
    <g id="ytick_2">
     <g id="line2d_42">
      <g>
       <use style="stroke:#000000;stroke-width:0.8;" x="33.64" xlink:href="#ma79c447c51" y="254.298354"/>
      </g>
     </g>
     <g id="text_42">
      <text style="font-family:DejaVu Sans;font-size:10px;font-style:normal;font-weight:normal;text-anchor:end;" transform="rotate(-0, 26.64, 258.097573)" x="26.64" y="258.097573">0.2</text>
     </g>
    </g>
    <g id="ytick_3">
     <g id="line2d_43">
      <g>
       <use style="stroke:#000000;stroke-width:0.8;" x="33.64" xlink:href="#ma79c447c51" y="197.597565"/>
      </g>
     </g>
     <g id="text_43">
      <text style="font-family:DejaVu Sans;font-size:10px;font-style:normal;font-weight:normal;text-anchor:end;" transform="rotate(-0, 26.64, 201.396783)" x="26.64" y="201.396783">0.4</text>
     </g>
    </g>
    <g id="ytick_4">
     <g id="line2d_44">
      <g>
       <use style="stroke:#000000;stroke-width:0.8;" x="33.64" xlink:href="#ma79c447c51" y="140.896776"/>
      </g>
     </g>
     <g id="text_44">
      <text style="font-family:DejaVu Sans;font-size:10px;font-style:normal;font-weight:normal;text-anchor:end;" transform="rotate(-0, 26.64, 144.695994)" x="26.64" y="144.695994">0.6</text>
     </g>
    </g>
    <g id="ytick_5">
     <g id="line2d_45">
      <g>
       <use style="stroke:#000000;stroke-width:0.8;" x="33.64" xlink:href="#ma79c447c51" y="84.195986"/>
      </g>
     </g>
     <g id="text_45">
      <text style="font-family:DejaVu Sans;font-size:10px;font-style:normal;font-weight:normal;text-anchor:end;" transform="rotate(-0, 26.64, 87.995205)" x="26.64" y="87.995205">0.8</text>
     </g>
    </g>
    <g id="ytick_6">
     <g id="line2d_46">
      <g>
       <use style="stroke:#000000;stroke-width:0.8;" x="33.64" xlink:href="#ma79c447c51" y="27.495197"/>
      </g>
     </g>
     <g id="text_46">
      <text style="font-family:DejaVu Sans;font-size:10px;font-style:normal;font-weight:normal;text-anchor:end;" transform="rotate(-0, 26.64, 31.294416)" x="26.64" y="31.294416">1.0</text>
     </g>
    </g>
   </g>
   <g id="patch_83">
    <path d="M 33.64 310.999143 
L 33.64 13.32 
" style="fill:none;stroke:#000000;stroke-linecap:square;stroke-linejoin:miter;stroke-width:0.8;"/>
   </g>
   <g id="patch_84">
    <path d="M 447.48 310.999143 
L 447.48 13.32 
" style="fill:none;stroke:#000000;stroke-linecap:square;stroke-linejoin:miter;stroke-width:0.8;"/>
   </g>
   <g id="patch_85">
    <path d="M 33.64 310.999143 
L 447.48 310.999143 
" style="fill:none;stroke:#000000;stroke-linecap:square;stroke-linejoin:miter;stroke-width:0.8;"/>
   </g>
   <g id="patch_86">
    <path d="M 33.64 13.32 
L 447.48 13.32 
" style="fill:none;stroke:#000000;stroke-linecap:square;stroke-linejoin:miter;stroke-width:0.8;"/>
   </g>
   <g id="legend_1">
    <g id="patch_87">
     <path d="M 375.044062 50.67625 
L 440.48 50.67625 
Q 442.48 50.67625 442.48 48.67625 
L 442.48 20.32 
Q 442.48 18.32 440.48 18.32 
L 375.044062 18.32 
Q 373.044062 18.32 373.044062 20.32 
L 373.044062 48.67625 
Q 373.044062 50.67625 375.044062 50.67625 
z
" style="fill:#ffffff;opacity:0.8;stroke:#cccccc;stroke-linejoin:miter;"/>
    </g>
    <g id="patch_88">
     <path d="M 377.044062 29.918437 
L 397.044062 29.918437 
L 397.044062 22.918437 
L 377.044062 22.918437 
z
" style="fill:#1f77b4;"/>
    </g>
    <g id="text_47">
     <text style="font-family:DejaVu Sans;font-size:10px;font-style:normal;font-weight:normal;text-anchor:start;" transform="rotate(-0, 405.044062, 29.918437)" x="405.044062" y="29.918437">Scores</text>
    </g>
    <g id="patch_89">
     <path d="M 377.044062 44.596563 
L 397.044062 44.596563 
L 397.044062 37.596563 
L 377.044062 37.596563 
z
" style="fill:#ff7f0e;"/>
    </g>
    <g id="text_48">
     <text style="font-family:DejaVu Sans;font-size:10px;font-style:normal;font-weight:normal;text-anchor:start;" transform="rotate(-0, 405.044062, 44.596563)" x="405.044062" y="44.596563">Bases</text>
    </g>
   </g>
  </g>
 </g>
 <defs>
  <clipPath id="p59b7e3d0fd">
   <rect height="297.679143" width="413.84" x="33.64" y="13.32"/>
  </clipPath>
 </defs>
</svg>
