<?xml version="1.0" encoding="utf-8" standalone="no"?>
<!DOCTYPE svg PUBLIC "-//W3C//DTD SVG 1.1//EN"
  "http://www.w3.org/Graphics/SVG/1.1/DTD/svg11.dtd">
<!-- Created with matplotlib (http://matplotlib.org/) -->
<svg height="345.6pt" version="1.1" viewBox="0 0 460.8 345.6" width="460.8pt" xmlns="http://www.w3.org/2000/svg" xmlns:xlink="http://www.w3.org/1999/xlink">
 <defs>
  <style type="text/css">
*{stroke-linecap:butt;stroke-linejoin:round;}
  </style>
 </defs>
 <g id="figure_1">
  <g id="patch_1">
   <path d="M 0 345.6 
L 460.8 345.6 
L 460.8 0 
L 0 0 
z
" style="fill:#ffffff;"/>
  </g>
  <g id="axes_1">
   <g id="patch_2">
    <path d="M 56.09 303.64 
L 445.500719 303.64 
L 445.500719 13.32 
L 56.09 13.32 
z
" style="fill:#ffffff;"/>
   </g>
   <g id="66A">
    <defs>
     <path d="M 0 3 
C 0.795609 3 1.55874 2.683901 2.12132 2.12132 
C 2.683901 1.55874 3 0.795609 3 0 
C 3 -0.795609 2.683901 -1.55874 2.12132 -2.12132 
C 1.55874 -2.683901 0.795609 -3 0 -3 
C -0.795609 -3 -1.55874 -2.683901 -2.12132 -2.12132 
C -2.683901 -1.55874 -3 -0.795609 -3 0 
C -3 0.795609 -2.683901 1.55874 -2.12132 2.12132 
C -1.55874 2.683901 -0.795609 3 0 3 
z
" id="md59a3c6cce" style="stroke:#1f77b4;"/>
    </defs>
    <g clip-path="url(#p3ad89d6e7b)">
     <use style="fill:#1f77b4;stroke:#1f77b4;" x="142.28403" xlink:href="#md59a3c6cce" y="248.309973"/>
    </g>
   </g>
   <g id="67A">
    <defs>
     <path d="M 0 3 
C 0.795609 3 1.55874 2.683901 2.12132 2.12132 
C 2.683901 1.55874 3 0.795609 3 0 
C 3 -0.795609 2.683901 -1.55874 2.12132 -2.12132 
C 1.55874 -2.683901 0.795609 -3 0 -3 
C -0.795609 -3 -1.55874 -2.683901 -2.12132 -2.12132 
C -2.683901 -1.55874 -3 -0.795609 -3 0 
C -3 0.795609 -2.683901 1.55874 -2.12132 2.12132 
C -1.55874 2.683901 -0.795609 3 0 3 
z
" id="m83a3dfd5a4" style="stroke:#ff7f0e;"/>
    </defs>
    <g clip-path="url(#p3ad89d6e7b)">
     <use style="fill:#ff7f0e;stroke:#ff7f0e;" x="142.28403" xlink:href="#m83a3dfd5a4" y="213.632439"/>
    </g>
   </g>
   <g id="76A">
    <defs>
     <path d="M 0 3 
C 0.795609 3 1.55874 2.683901 2.12132 2.12132 
C 2.683901 1.55874 3 0.795609 3 0 
C 3 -0.795609 2.683901 -1.55874 2.12132 -2.12132 
C 1.55874 -2.683901 0.795609 -3 0 -3 
C -0.795609 -3 -1.55874 -2.683901 -2.12132 -2.12132 
C -2.683901 -1.55874 -3 -0.795609 -3 0 
C -3 0.795609 -2.683901 1.55874 -2.12132 2.12132 
C -1.55874 2.683901 -0.795609 3 0 3 
z
" id="m4566e39e57" style="stroke:#2ca02c;"/>
    </defs>
    <g clip-path="url(#p3ad89d6e7b)">
     <use style="fill:#2ca02c;stroke:#2ca02c;" x="136.682432" xlink:href="#m4566e39e57" y="152.617911"/>
    </g>
   </g>
   <g id="65A">
    <defs>
     <path d="M 0 3 
C 0.795609 3 1.55874 2.683901 2.12132 2.12132 
C 2.683901 1.55874 3 0.795609 3 0 
C 3 -0.795609 2.683901 -1.55874 2.12132 -2.12132 
C 1.55874 -2.683901 0.795609 -3 0 -3 
C -0.795609 -3 -1.55874 -2.683901 -2.12132 -2.12132 
C -2.683901 -1.55874 -3 -0.795609 -3 0 
C -3 0.795609 -2.683901 1.55874 -2.12132 2.12132 
C -1.55874 2.683901 -0.795609 3 0 3 
z
" id="m07323857b1" style="stroke:#d62728;"/>
    </defs>
    <g clip-path="url(#p3ad89d6e7b)">
     <use style="fill:#d62728;stroke:#d62728;" x="142.28403" xlink:href="#m07323857b1" y="147.258398"/>
    </g>
   </g>
   <g id="72A">
    <defs>
     <path d="M 0 3 
C 0.795609 3 1.55874 2.683901 2.12132 2.12132 
C 2.683901 1.55874 3 0.795609 3 0 
C 3 -0.795609 2.683901 -1.55874 2.12132 -2.12132 
C 1.55874 -2.683901 0.795609 -3 0 -3 
C -0.795609 -3 -1.55874 -2.683901 -2.12132 -2.12132 
C -2.683901 -1.55874 -3 -0.795609 -3 0 
C -3 0.795609 -2.683901 1.55874 -2.12132 2.12132 
C -1.55874 2.683901 -0.795609 3 0 3 
z
" id="maaac1db174" style="stroke:#9467bd;"/>
    </defs>
    <g clip-path="url(#p3ad89d6e7b)">
     <use style="fill:#9467bd;stroke:#9467bd;" x="185.22962" xlink:href="#maaac1db174" y="222.074789"/>
    </g>
   </g>
   <g id="69A">
    <defs>
     <path d="M 0 3 
C 0.795609 3 1.55874 2.683901 2.12132 2.12132 
C 2.683901 1.55874 3 0.795609 3 0 
C 3 -0.795609 2.683901 -1.55874 2.12132 -2.12132 
C 1.55874 -2.683901 0.795609 -3 0 -3 
C -0.795609 -3 -1.55874 -2.683901 -2.12132 -2.12132 
C -2.683901 -1.55874 -3 -0.795609 -3 0 
C -3 0.795609 -2.683901 1.55874 -2.12132 2.12132 
C -1.55874 2.683901 -0.795609 3 0 3 
z
" id="m3cb705540a" style="stroke:#8c564b;"/>
    </defs>
    <g clip-path="url(#p3ad89d6e7b)">
     <use style="fill:#8c564b;stroke:#8c564b;" x="351.410379" xlink:href="#m3cb705540a" y="211.674617"/>
    </g>
   </g>
   <g id="78A">
    <defs>
     <path d="M 0 3 
C 0.795609 3 1.55874 2.683901 2.12132 2.12132 
C 2.683901 1.55874 3 0.795609 3 0 
C 3 -0.795609 2.683901 -1.55874 2.12132 -2.12132 
C 1.55874 -2.683901 0.795609 -3 0 -3 
C -0.795609 -3 -1.55874 -2.683901 -2.12132 -2.12132 
C -2.683901 -1.55874 -3 -0.795609 -3 0 
C -3 0.795609 -2.683901 1.55874 -2.12132 2.12132 
C -1.55874 2.683901 -0.795609 3 0 3 
z
" id="me5f82eac8a" style="stroke:#e377c2;"/>
    </defs>
    <g clip-path="url(#p3ad89d6e7b)">
     <use style="fill:#e377c2;stroke:#e377c2;" x="184.29602" xlink:href="#me5f82eac8a" y="199.694551"/>
    </g>
   </g>
   <g id="68A">
    <defs>
     <path d="M 0 3 
C 0.795609 3 1.55874 2.683901 2.12132 2.12132 
C 2.683901 1.55874 3 0.795609 3 0 
C 3 -0.795609 2.683901 -1.55874 2.12132 -2.12132 
C 1.55874 -2.683901 0.795609 -3 0 -3 
C -0.795609 -3 -1.55874 -2.683901 -2.12132 -2.12132 
C -2.683901 -1.55874 -3 -0.795609 -3 0 
C -3 0.795609 -2.683901 1.55874 -2.12132 2.12132 
C -1.55874 2.683901 -0.795609 3 0 3 
z
" id="m316fee610c" style="stroke:#7f7f7f;"/>
    </defs>
    <g clip-path="url(#p3ad89d6e7b)">
     <use style="fill:#7f7f7f;stroke:#7f7f7f;" x="142.28403" xlink:href="#m316fee610c" y="231.137044"/>
    </g>
   </g>
   <g id="79A">
    <defs>
     <path d="M 0 3 
C 0.795609 3 1.55874 2.683901 2.12132 2.12132 
C 2.683901 1.55874 3 0.795609 3 0 
C 3 -0.795609 2.683901 -1.55874 2.12132 -2.12132 
C 1.55874 -2.683901 0.795609 -3 0 -3 
C -0.795609 -3 -1.55874 -2.683901 -2.12132 -2.12132 
C -2.683901 -1.55874 -3 -0.795609 -3 0 
C -3 0.795609 -2.683901 1.55874 -2.12132 2.12132 
C -1.55874 2.683901 -0.795609 3 0 3 
z
" id="m15c5dd862b" style="stroke:#bcbd22;"/>
    </defs>
    <g clip-path="url(#p3ad89d6e7b)">
     <use style="fill:#bcbd22;stroke:#bcbd22;" x="126.412834" xlink:href="#m15c5dd862b" y="203.626035"/>
    </g>
   </g>
   <g id="77A">
    <defs>
     <path d="M 0 3 
C 0.795609 3 1.55874 2.683901 2.12132 2.12132 
C 2.683901 1.55874 3 0.795609 3 0 
C 3 -0.795609 2.683901 -1.55874 2.12132 -2.12132 
C 1.55874 -2.683901 0.795609 -3 0 -3 
C -0.795609 -3 -1.55874 -2.683901 -2.12132 -2.12132 
C -2.683901 -1.55874 -3 -0.795609 -3 0 
C -3 0.795609 -2.683901 1.55874 -2.12132 2.12132 
C -1.55874 2.683901 -0.795609 3 0 3 
z
" id="mdc45833a63" style="stroke:#17becf;"/>
    </defs>
    <g clip-path="url(#p3ad89d6e7b)">
     <use style="fill:#17becf;stroke:#17becf;" x="184.29602" xlink:href="#mdc45833a63" y="63.019062"/>
    </g>
   </g>
   <g id="75A">
    <g clip-path="url(#p3ad89d6e7b)">
     <use style="fill:#1f77b4;stroke:#1f77b4;" x="143.21763" xlink:href="#md59a3c6cce" y="136.97525"/>
    </g>
   </g>
   <g id="71A">
    <g clip-path="url(#p3ad89d6e7b)">
     <use style="fill:#ff7f0e;stroke:#ff7f0e;" x="195.499217" xlink:href="#m83a3dfd5a4" y="189.973784"/>
    </g>
   </g>
   <g id="74A">
    <g clip-path="url(#p3ad89d6e7b)">
     <use style="fill:#2ca02c;stroke:#2ca02c;" x="145.08483" xlink:href="#m4566e39e57" y="182.057142"/>
    </g>
   </g>
   <g id="70A">
    <g clip-path="url(#p3ad89d6e7b)">
     <use style="fill:#d62728;stroke:#d62728;" x="211.370413" xlink:href="#m07323857b1" y="189.943461"/>
    </g>
   </g>
   <g id="79B">
    <g clip-path="url(#p3ad89d6e7b)">
     <use style="fill:#9467bd;stroke:#9467bd;" x="126.412834" xlink:href="#maaac1db174" y="179.313545"/>
    </g>
   </g>
   <g id="80A">
    <g clip-path="url(#p3ad89d6e7b)">
     <use style="fill:#8c564b;stroke:#8c564b;" x="126.412834" xlink:href="#m3cb705540a" y="179.313545"/>
    </g>
   </g>
   <g id="73A">
    <g clip-path="url(#p3ad89d6e7b)">
     <use style="fill:#e377c2;stroke:#e377c2;" x="154.420827" xlink:href="#me5f82eac8a" y="179.313545"/>
    </g>
   </g>
   <g id="44A">
    <g clip-path="url(#p3ad89d6e7b)">
     <use style="fill:#7f7f7f;stroke:#7f7f7f;" x="178.694421" xlink:href="#m316fee610c" y="183.747641"/>
    </g>
   </g>
   <g id="42A">
    <g clip-path="url(#p3ad89d6e7b)">
     <use style="fill:#bcbd22;stroke:#bcbd22;" x="122.678435" xlink:href="#m15c5dd862b" y="179.313545"/>
    </g>
   </g>
   <g id="39A">
    <g clip-path="url(#p3ad89d6e7b)">
     <use style="fill:#17becf;stroke:#17becf;" x="125.479234" xlink:href="#mdc45833a63" y="186.067015"/>
    </g>
   </g>
   <g id="30A">
    <g clip-path="url(#p3ad89d6e7b)">
     <use style="fill:#1f77b4;stroke:#1f77b4;" x="132.014433" xlink:href="#md59a3c6cce" y="189.068557"/>
    </g>
   </g>
   <g id="41A">
    <g clip-path="url(#p3ad89d6e7b)">
     <use style="fill:#ff7f0e;stroke:#ff7f0e;" x="127.346434" xlink:href="#m83a3dfd5a4" y="186.755985"/>
    </g>
   </g>
   <g id="53A">
    <g clip-path="url(#p3ad89d6e7b)">
     <use style="fill:#2ca02c;stroke:#2ca02c;" x="171.225623" xlink:href="#m4566e39e57" y="236.449211"/>
    </g>
   </g>
   <g id="47A">
    <g clip-path="url(#p3ad89d6e7b)">
     <use style="fill:#d62728;stroke:#d62728;" x="126.412834" xlink:href="#m07323857b1" y="71.624212"/>
    </g>
   </g>
   <g id="45A">
    <g clip-path="url(#p3ad89d6e7b)">
     <use style="fill:#9467bd;stroke:#9467bd;" x="139.483231" xlink:href="#maaac1db174" y="286.827707"/>
    </g>
   </g>
   <g id="51A">
    <g clip-path="url(#p3ad89d6e7b)">
     <use style="fill:#8c564b;stroke:#8c564b;" x="311.265589" xlink:href="#m3cb705540a" y="144.935469"/>
    </g>
   </g>
   <g id="31A">
    <g clip-path="url(#p3ad89d6e7b)">
     <use style="fill:#e377c2;stroke:#e377c2;" x="132.014433" xlink:href="#me5f82eac8a" y="193.946062"/>
    </g>
   </g>
   <g id="40A">
    <g clip-path="url(#p3ad89d6e7b)">
     <use style="fill:#7f7f7f;stroke:#7f7f7f;" x="125.479234" xlink:href="#m316fee610c" y="178.947732"/>
    </g>
   </g>
   <g id="52A">
    <g clip-path="url(#p3ad89d6e7b)">
     <use style="fill:#bcbd22;stroke:#bcbd22;" x="156.288027" xlink:href="#m15c5dd862b" y="228.596676"/>
    </g>
   </g>
   <g id="57A">
    <g clip-path="url(#p3ad89d6e7b)">
     <use style="fill:#17becf;stroke:#17becf;" x="299.128792" xlink:href="#mdc45833a63" y="201.111023"/>
    </g>
   </g>
   <g id="34A">
    <g clip-path="url(#p3ad89d6e7b)">
     <use style="fill:#1f77b4;stroke:#1f77b4;" x="139.483231" xlink:href="#md59a3c6cce" y="245.216008"/>
    </g>
   </g>
   <g id="49A">
    <g clip-path="url(#p3ad89d6e7b)">
     <use style="fill:#ff7f0e;stroke:#ff7f0e;" x="147.885629" xlink:href="#m83a3dfd5a4" y="179.313545"/>
    </g>
   </g>
   <g id="55A">
    <g clip-path="url(#p3ad89d6e7b)">
     <use style="fill:#2ca02c;stroke:#2ca02c;" x="161.889625" xlink:href="#m4566e39e57" y="184.191051"/>
    </g>
   </g>
   <g id="32A">
    <g clip-path="url(#p3ad89d6e7b)">
     <use style="fill:#d62728;stroke:#d62728;" x="132.014433" xlink:href="#m07323857b1" y="204.676575"/>
    </g>
   </g>
   <g id="35A">
    <g clip-path="url(#p3ad89d6e7b)">
     <use style="fill:#9467bd;stroke:#9467bd;" x="138.549631" xlink:href="#maaac1db174" y="179.313545"/>
    </g>
   </g>
   <g id="56A">
    <g clip-path="url(#p3ad89d6e7b)">
     <use style="fill:#8c564b;stroke:#8c564b;" x="97.471241" xlink:href="#m3cb705540a" y="127.890699"/>
    </g>
   </g>
   <g id="33A">
    <g clip-path="url(#p3ad89d6e7b)">
     <use style="fill:#e377c2;stroke:#e377c2;" x="334.605583" xlink:href="#me5f82eac8a" y="224.964475"/>
    </g>
   </g>
   <g id="43A">
    <g clip-path="url(#p3ad89d6e7b)">
     <use style="fill:#7f7f7f;stroke:#7f7f7f;" x="129.213634" xlink:href="#m316fee610c" y="184.191051"/>
    </g>
   </g>
   <g id="37A">
    <g clip-path="url(#p3ad89d6e7b)">
     <use style="fill:#bcbd22;stroke:#bcbd22;" x="242.179206" xlink:href="#m15c5dd862b" y="158.635414"/>
    </g>
   </g>
   <g id="50A">
    <g clip-path="url(#p3ad89d6e7b)">
     <use style="fill:#17becf;stroke:#17becf;" x="147.885629" xlink:href="#mdc45833a63" y="156.442552"/>
    </g>
   </g>
   <g id="38A">
    <g clip-path="url(#p3ad89d6e7b)">
     <use style="fill:#1f77b4;stroke:#1f77b4;" x="227.241609" xlink:href="#md59a3c6cce" y="229.336332"/>
    </g>
   </g>
   <g id="48A">
    <g clip-path="url(#p3ad89d6e7b)">
     <use style="fill:#ff7f0e;stroke:#ff7f0e;" x="180.561621" xlink:href="#m83a3dfd5a4" y="182.240049"/>
    </g>
   </g>
   <g id="54A">
    <g clip-path="url(#p3ad89d6e7b)">
     <use style="fill:#2ca02c;stroke:#2ca02c;" x="135.748832" xlink:href="#m4566e39e57" y="234.499039"/>
    </g>
   </g>
   <g id="36A">
    <g clip-path="url(#p3ad89d6e7b)">
     <use style="fill:#d62728;stroke:#d62728;" x="137.616031" xlink:href="#m07323857b1" y="230.527355"/>
    </g>
   </g>
   <g id="46A">
    <g clip-path="url(#p3ad89d6e7b)">
     <use style="fill:#9467bd;stroke:#9467bd;" x="145.08483" xlink:href="#maaac1db174" y="130.502755"/>
    </g>
   </g>
   <g id="90C">
    <g clip-path="url(#p3ad89d6e7b)">
     <use style="fill:#8c564b;stroke:#8c564b;" x="250.581604" xlink:href="#m3cb705540a" y="179.313545"/>
    </g>
   </g>
   <g id="144B">
    <g clip-path="url(#p3ad89d6e7b)">
     <use style="fill:#e377c2;stroke:#e377c2;" x="224.44081" xlink:href="#me5f82eac8a" y="177.874281"/>
    </g>
   </g>
   <g id="83A">
    <g clip-path="url(#p3ad89d6e7b)">
     <use style="fill:#7f7f7f;stroke:#7f7f7f;" x="426.09836" xlink:href="#m316fee610c" y="154.358022"/>
    </g>
   </g>
   <g id="87A">
    <g clip-path="url(#p3ad89d6e7b)">
     <use style="fill:#bcbd22;stroke:#bcbd22;" x="396.223168" xlink:href="#m15c5dd862b" y="186.249113"/>
    </g>
   </g>
   <g id="144A">
    <g clip-path="url(#p3ad89d6e7b)">
     <use style="fill:#17becf;stroke:#17becf;" x="362.613576" xlink:href="#mdc45833a63" y="213.86115"/>
    </g>
   </g>
   <g id="97A">
    <g clip-path="url(#p3ad89d6e7b)">
     <use style="fill:#1f77b4;stroke:#1f77b4;" x="387.82077" xlink:href="#md59a3c6cce" y="209.745802"/>
    </g>
   </g>
   <g id="143B">
    <g clip-path="url(#p3ad89d6e7b)">
     <use style="fill:#ff7f0e;stroke:#ff7f0e;" x="75.998447" xlink:href="#m83a3dfd5a4" y="179.313545"/>
    </g>
   </g>
   <g id="95A">
    <g clip-path="url(#p3ad89d6e7b)">
     <use style="fill:#2ca02c;stroke:#2ca02c;" x="362.613576" xlink:href="#m4566e39e57" y="169.110222"/>
    </g>
   </g>
   <g id="144S">
    <g clip-path="url(#p3ad89d6e7b)">
     <use style="fill:#d62728;stroke:#d62728;" x="182.42882" xlink:href="#m07323857b1" y="189.470122"/>
    </g>
   </g>
   <g id="93A">
    <g clip-path="url(#p3ad89d6e7b)">
     <use style="fill:#9467bd;stroke:#9467bd;" x="312.199188" xlink:href="#maaac1db174" y="199.512861"/>
    </g>
   </g>
   <g id="144K">
    <g clip-path="url(#p3ad89d6e7b)">
     <use style="fill:#8c564b;stroke:#8c564b;" x="189.897619" xlink:href="#m3cb705540a" y="179.313545"/>
    </g>
   </g>
   <g id="144X">
    <g clip-path="url(#p3ad89d6e7b)">
     <use style="fill:#e377c2;stroke:#e377c2;" x="118.010436" xlink:href="#me5f82eac8a" y="179.313545"/>
    </g>
   </g>
   <g id="86A">
    <g clip-path="url(#p3ad89d6e7b)">
     <use style="fill:#7f7f7f;stroke:#7f7f7f;" x="387.82077" xlink:href="#m316fee610c" y="140.035506"/>
    </g>
   </g>
   <g id="143A">
    <g clip-path="url(#p3ad89d6e7b)">
     <use style="fill:#bcbd22;stroke:#bcbd22;" x="390.621569" xlink:href="#m15c5dd862b" y="196.482308"/>
    </g>
   </g>
   <g id="144V">
    <g clip-path="url(#p3ad89d6e7b)">
     <use style="fill:#17becf;stroke:#17becf;" x="118.010436" xlink:href="#mdc45833a63" y="179.313545"/>
    </g>
   </g>
   <g id="143G">
    <g clip-path="url(#p3ad89d6e7b)">
     <use style="fill:#1f77b4;stroke:#1f77b4;" x="390.621569" xlink:href="#md59a3c6cce" y="179.313545"/>
    </g>
   </g>
   <g id="144H">
    <g clip-path="url(#p3ad89d6e7b)">
     <use style="fill:#ff7f0e;stroke:#ff7f0e;" x="179.628021" xlink:href="#m83a3dfd5a4" y="179.313545"/>
    </g>
   </g>
   <g id="90B">
    <g clip-path="url(#p3ad89d6e7b)">
     <use style="fill:#2ca02c;stroke:#2ca02c;" x="104.00644" xlink:href="#m4566e39e57" y="179.313545"/>
    </g>
   </g>
   <g id="92A">
    <g clip-path="url(#p3ad89d6e7b)">
     <use style="fill:#d62728;stroke:#d62728;" x="300.995991" xlink:href="#m07323857b1" y="186.862066"/>
    </g>
   </g>
   <g id="144D">
    <g clip-path="url(#p3ad89d6e7b)">
     <use style="fill:#9467bd;stroke:#9467bd;" x="191.764818" xlink:href="#maaac1db174" y="210.092288"/>
    </g>
   </g>
   <g id="84A">
    <g clip-path="url(#p3ad89d6e7b)">
     <use style="fill:#8c564b;stroke:#8c564b;" x="206.702414" xlink:href="#m3cb705540a" y="179.313545"/>
    </g>
   </g>
   <g id="143E">
    <g clip-path="url(#p3ad89d6e7b)">
     <use style="fill:#e377c2;stroke:#e377c2;" x="390.621569" xlink:href="#me5f82eac8a" y="194.456019"/>
    </g>
   </g>
   <g id="143F">
    <g clip-path="url(#p3ad89d6e7b)">
     <use style="fill:#7f7f7f;stroke:#7f7f7f;" x="390.621569" xlink:href="#m316fee610c" y="198.794039"/>
    </g>
   </g>
   <g id="144T">
    <g clip-path="url(#p3ad89d6e7b)">
     <use style="fill:#bcbd22;stroke:#bcbd22;" x="118.010436" xlink:href="#m15c5dd862b" y="179.313545"/>
    </g>
   </g>
   <g id="81A">
    <g clip-path="url(#p3ad89d6e7b)">
     <use style="fill:#17becf;stroke:#17becf;" x="403.691966" xlink:href="#mdc45833a63" y="216.068782"/>
    </g>
   </g>
   <g id="144L">
    <g clip-path="url(#p3ad89d6e7b)">
     <use style="fill:#1f77b4;stroke:#1f77b4;" x="191.764818" xlink:href="#md59a3c6cce" y="242.152122"/>
    </g>
   </g>
   <g id="91A">
    <g clip-path="url(#p3ad89d6e7b)">
     <use style="fill:#ff7f0e;stroke:#ff7f0e;" x="225.37441" xlink:href="#m83a3dfd5a4" y="68.704489"/>
    </g>
   </g>
   <g id="96A">
    <g clip-path="url(#p3ad89d6e7b)">
     <use style="fill:#2ca02c;stroke:#2ca02c;" x="294.460793" xlink:href="#m4566e39e57" y="179.313545"/>
    </g>
   </g>
   <g id="144I">
    <g clip-path="url(#p3ad89d6e7b)">
     <use style="fill:#d62728;stroke:#d62728;" x="179.628021" xlink:href="#m07323857b1" y="172.867052"/>
    </g>
   </g>
   <g id="90A">
    <g clip-path="url(#p3ad89d6e7b)">
     <use style="fill:#9467bd;stroke:#9467bd;" x="288.859194" xlink:href="#maaac1db174" y="179.313545"/>
    </g>
   </g>
   <g id="89A">
    <g clip-path="url(#p3ad89d6e7b)">
     <use style="fill:#8c564b;stroke:#8c564b;" x="354.211178" xlink:href="#m3cb705540a" y="46.576163"/>
    </g>
   </g>
   <g id="144Q">
    <g clip-path="url(#p3ad89d6e7b)">
     <use style="fill:#e377c2;stroke:#e377c2;" x="161.889625" xlink:href="#me5f82eac8a" y="179.313545"/>
    </g>
   </g>
   <g id="82A">
    <g clip-path="url(#p3ad89d6e7b)">
     <use style="fill:#7f7f7f;stroke:#7f7f7f;" x="424.231161" xlink:href="#m316fee610c" y="212.142466"/>
    </g>
   </g>
   <g id="144P">
    <g clip-path="url(#p3ad89d6e7b)">
     <use style="fill:#bcbd22;stroke:#bcbd22;" x="161.889625" xlink:href="#m15c5dd862b" y="179.313545"/>
    </g>
   </g>
   <g id="144R">
    <g clip-path="url(#p3ad89d6e7b)">
     <use style="fill:#17becf;stroke:#17becf;" x="161.889625" xlink:href="#mdc45833a63" y="179.313545"/>
    </g>
   </g>
   <g id="85A">
    <g clip-path="url(#p3ad89d6e7b)">
     <use style="fill:#1f77b4;stroke:#1f77b4;" x="371.015974" xlink:href="#md59a3c6cce" y="136.088705"/>
    </g>
   </g>
   <g id="144W">
    <g clip-path="url(#p3ad89d6e7b)">
     <use style="fill:#ff7f0e;stroke:#ff7f0e;" x="118.010436" xlink:href="#m83a3dfd5a4" y="179.313545"/>
    </g>
   </g>
   <g id="88A">
    <g clip-path="url(#p3ad89d6e7b)">
     <use style="fill:#2ca02c;stroke:#2ca02c;" x="368.215175" xlink:href="#m4566e39e57" y="98.172045"/>
    </g>
   </g>
   <g id="94A">
    <g clip-path="url(#p3ad89d6e7b)">
     <use style="fill:#d62728;stroke:#d62728;" x="254.316003" xlink:href="#m07323857b1" y="185.169761"/>
    </g>
   </g>
   <g id="144J">
    <g clip-path="url(#p3ad89d6e7b)">
     <use style="fill:#9467bd;stroke:#9467bd;" x="189.897619" xlink:href="#maaac1db174" y="179.313545"/>
    </g>
   </g>
   <g id="98A">
    <g clip-path="url(#p3ad89d6e7b)">
     <use style="fill:#8c564b;stroke:#8c564b;" x="125.479234" xlink:href="#m3cb705540a" y="191.019559"/>
    </g>
   </g>
   <g id="112A">
    <g clip-path="url(#p3ad89d6e7b)">
     <use style="fill:#e377c2;stroke:#e377c2;" x="350.476779" xlink:href="#me5f82eac8a" y="237.794439"/>
    </g>
   </g>
   <g id="120A">
    <g clip-path="url(#p3ad89d6e7b)">
     <use style="fill:#7f7f7f;stroke:#7f7f7f;" x="188.964019" xlink:href="#m316fee610c" y="203.426097"/>
    </g>
   </g>
   <g id="109B">
    <g clip-path="url(#p3ad89d6e7b)">
     <use style="fill:#bcbd22;stroke:#bcbd22;" x="123.612035" xlink:href="#m15c5dd862b" y="185.166552"/>
    </g>
   </g>
   <g id="109A">
    <g clip-path="url(#p3ad89d6e7b)">
     <use style="fill:#17becf;stroke:#17becf;" x="123.612035" xlink:href="#mdc45833a63" y="221.538809"/>
    </g>
   </g>
   <g id="106A">
    <g clip-path="url(#p3ad89d6e7b)">
     <use style="fill:#1f77b4;stroke:#1f77b4;" x="119.877636" xlink:href="#md59a3c6cce" y="179.313545"/>
    </g>
   </g>
   <g id="113A">
    <g clip-path="url(#p3ad89d6e7b)">
     <use style="fill:#ff7f0e;stroke:#ff7f0e;" x="148.819229" xlink:href="#m83a3dfd5a4" y="161.897309"/>
    </g>
   </g>
   <g id="100A">
    <g clip-path="url(#p3ad89d6e7b)">
     <use style="fill:#2ca02c;stroke:#2ca02c;" x="179.628021" xlink:href="#m4566e39e57" y="182.971674"/>
    </g>
   </g>
   <g id="107A">
    <g clip-path="url(#p3ad89d6e7b)">
     <use style="fill:#d62728;stroke:#d62728;" x="176.827222" xlink:href="#m07323857b1" y="148.463321"/>
    </g>
   </g>
   <g id="114A">
    <g clip-path="url(#p3ad89d6e7b)">
     <use style="fill:#9467bd;stroke:#9467bd;" x="148.819229" xlink:href="#maaac1db174" y="188.712555"/>
    </g>
   </g>
   <g id="110A">
    <g clip-path="url(#p3ad89d6e7b)">
     <use style="fill:#8c564b;stroke:#8c564b;" x="106.807239" xlink:href="#m3cb705540a" y="214.416806"/>
    </g>
   </g>
   <g id="103A">
    <g clip-path="url(#p3ad89d6e7b)">
     <use style="fill:#e377c2;stroke:#e377c2;" x="179.628021" xlink:href="#me5f82eac8a" y="177.118668"/>
    </g>
   </g>
   <g id="99A">
    <g clip-path="url(#p3ad89d6e7b)">
     <use style="fill:#7f7f7f;stroke:#7f7f7f;" x="121.744835" xlink:href="#m316fee610c" y="202.098465"/>
    </g>
   </g>
   <g id="104A">
    <g clip-path="url(#p3ad89d6e7b)">
     <use style="fill:#bcbd22;stroke:#bcbd22;" x="178.694421" xlink:href="#m15c5dd862b" y="180.798967"/>
    </g>
   </g>
   <g id="119A">
    <g clip-path="url(#p3ad89d6e7b)">
     <use style="fill:#17becf;stroke:#17becf;" x="188.964019" xlink:href="#mdc45833a63" y="220.900699"/>
    </g>
   </g>
   <g id="102A">
    <g clip-path="url(#p3ad89d6e7b)">
     <use style="fill:#1f77b4;stroke:#1f77b4;" x="179.628021" xlink:href="#md59a3c6cce" y="169.866312"/>
    </g>
   </g>
   <g id="118A">
    <g clip-path="url(#p3ad89d6e7b)">
     <use style="fill:#ff7f0e;stroke:#ff7f0e;" x="188.964019" xlink:href="#m83a3dfd5a4" y="149.258702"/>
    </g>
   </g>
   <g id="115A">
    <g clip-path="url(#p3ad89d6e7b)">
     <use style="fill:#2ca02c;stroke:#2ca02c;" x="128.280034" xlink:href="#m4566e39e57" y="179.313545"/>
    </g>
   </g>
   <g id="116A">
    <g clip-path="url(#p3ad89d6e7b)">
     <use style="fill:#d62728;stroke:#d62728;" x="319.667987" xlink:href="#m07323857b1" y="179.313545"/>
    </g>
   </g>
   <g id="101A">
    <g clip-path="url(#p3ad89d6e7b)">
     <use style="fill:#9467bd;stroke:#9467bd;" x="254.316003" xlink:href="#maaac1db174" y="181.752298"/>
    </g>
   </g>
   <g id="108B">
    <g clip-path="url(#p3ad89d6e7b)">
     <use style="fill:#8c564b;stroke:#8c564b;" x="122.678435" xlink:href="#m3cb705540a" y="179.313545"/>
    </g>
   </g>
   <g id="121A">
    <g clip-path="url(#p3ad89d6e7b)">
     <use style="fill:#e377c2;stroke:#e377c2;" x="121.744835" xlink:href="#me5f82eac8a" y="186.485087"/>
    </g>
   </g>
   <g id="117A">
    <g clip-path="url(#p3ad89d6e7b)">
     <use style="fill:#7f7f7f;stroke:#7f7f7f;" x="145.08483" xlink:href="#m316fee610c" y="232.235399"/>
    </g>
   </g>
   <g id="108A">
    <g clip-path="url(#p3ad89d6e7b)">
     <use style="fill:#bcbd22;stroke:#bcbd22;" x="125.479234" xlink:href="#m15c5dd862b" y="179.313545"/>
    </g>
   </g>
   <g id="105A">
    <g clip-path="url(#p3ad89d6e7b)">
     <use style="fill:#17becf;stroke:#17becf;" x="164.690425" xlink:href="#mdc45833a63" y="199.116553"/>
    </g>
   </g>
   <g id="111A">
    <g clip-path="url(#p3ad89d6e7b)">
     <use style="fill:#1f77b4;stroke:#1f77b4;" x="154.420827" xlink:href="#md59a3c6cce" y="179.313545"/>
    </g>
   </g>
   <g id="21B">
    <g clip-path="url(#p3ad89d6e7b)">
     <use style="fill:#ff7f0e;stroke:#ff7f0e;" x="110.541638" xlink:href="#m83a3dfd5a4" y="179.313545"/>
    </g>
   </g>
   <g id="25A">
    <g clip-path="url(#p3ad89d6e7b)">
     <use style="fill:#2ca02c;stroke:#2ca02c;" x="129.213634" xlink:href="#m4566e39e57" y="179.313545"/>
    </g>
   </g>
   <g id="20A">
    <g clip-path="url(#p3ad89d6e7b)">
     <use style="fill:#d62728;stroke:#d62728;" x="111.475238" xlink:href="#m07323857b1" y="179.313545"/>
    </g>
   </g>
   <g id="28A">
    <g clip-path="url(#p3ad89d6e7b)">
     <use style="fill:#9467bd;stroke:#9467bd;" x="126.412834" xlink:href="#maaac1db174" y="179.313545"/>
    </g>
   </g>
   <g id="24A">
    <g clip-path="url(#p3ad89d6e7b)">
     <use style="fill:#8c564b;stroke:#8c564b;" x="129.213634" xlink:href="#m3cb705540a" y="100.010528"/>
    </g>
   </g>
   <g id="29A">
    <g clip-path="url(#p3ad89d6e7b)">
     <use style="fill:#e377c2;stroke:#e377c2;" x="125.479234" xlink:href="#me5f82eac8a" y="169.420516"/>
    </g>
   </g>
   <g id="22A">
    <g clip-path="url(#p3ad89d6e7b)">
     <use style="fill:#7f7f7f;stroke:#7f7f7f;" x="108.674439" xlink:href="#m316fee610c" y="179.313545"/>
    </g>
   </g>
   <g id="27A">
    <g clip-path="url(#p3ad89d6e7b)">
     <use style="fill:#bcbd22;stroke:#bcbd22;" x="170.292023" xlink:href="#m15c5dd862b" y="181.238876"/>
    </g>
   </g>
   <g id="21A">
    <g clip-path="url(#p3ad89d6e7b)">
     <use style="fill:#17becf;stroke:#17becf;" x="110.541638" xlink:href="#mdc45833a63" y="223.277608"/>
    </g>
   </g>
   <g id="23A">
    <g clip-path="url(#p3ad89d6e7b)">
     <use style="fill:#1f77b4;stroke:#1f77b4;" x="129.213634" xlink:href="#md59a3c6cce" y="181.403905"/>
    </g>
   </g>
   <g id="25B">
    <g clip-path="url(#p3ad89d6e7b)">
     <use style="fill:#ff7f0e;stroke:#ff7f0e;" x="129.213634" xlink:href="#m83a3dfd5a4" y="179.313545"/>
    </g>
   </g>
   <g id="26A">
    <g clip-path="url(#p3ad89d6e7b)">
     <use style="fill:#2ca02c;stroke:#2ca02c;" x="317.800787" xlink:href="#m4566e39e57" y="219.441069"/>
    </g>
   </g>
   <g id="138A">
    <g clip-path="url(#p3ad89d6e7b)">
     <use style="fill:#d62728;stroke:#d62728;" x="144.15123" xlink:href="#m07323857b1" y="187.592469"/>
    </g>
   </g>
   <g id="132A">
    <g clip-path="url(#p3ad89d6e7b)">
     <use style="fill:#9467bd;stroke:#9467bd;" x="135.748832" xlink:href="#maaac1db174" y="197.552082"/>
    </g>
   </g>
   <g id="134A">
    <g clip-path="url(#p3ad89d6e7b)">
     <use style="fill:#8c564b;stroke:#8c564b;" x="135.748832" xlink:href="#m3cb705540a" y="219.281995"/>
    </g>
   </g>
   <g id="129A">
    <g clip-path="url(#p3ad89d6e7b)">
     <use style="fill:#e377c2;stroke:#e377c2;" x="261.784801" xlink:href="#me5f82eac8a" y="181.937482"/>
    </g>
   </g>
   <g id="130A">
    <g clip-path="url(#p3ad89d6e7b)">
     <use style="fill:#7f7f7f;stroke:#7f7f7f;" x="258.050402" xlink:href="#m316fee610c" y="179.313545"/>
    </g>
   </g>
   <g id="135A">
    <g clip-path="url(#p3ad89d6e7b)">
     <use style="fill:#bcbd22;stroke:#bcbd22;" x="135.748832" xlink:href="#m15c5dd862b" y="179.313545"/>
    </g>
   </g>
   <g id="136A">
    <g clip-path="url(#p3ad89d6e7b)">
     <use style="fill:#17becf;stroke:#17becf;" x="126.412834" xlink:href="#mdc45833a63" y="179.313545"/>
    </g>
   </g>
   <g id="137B">
    <g clip-path="url(#p3ad89d6e7b)">
     <use style="fill:#1f77b4;stroke:#1f77b4;" x="126.412834" xlink:href="#md59a3c6cce" y="208.57858"/>
    </g>
   </g>
   <g id="133A">
    <g clip-path="url(#p3ad89d6e7b)">
     <use style="fill:#ff7f0e;stroke:#ff7f0e;" x="135.748832" xlink:href="#m83a3dfd5a4" y="288.265351"/>
    </g>
   </g>
   <g id="137A">
    <g clip-path="url(#p3ad89d6e7b)">
     <use style="fill:#2ca02c;stroke:#2ca02c;" x="126.412834" xlink:href="#m4566e39e57" y="179.313545"/>
    </g>
   </g>
   <g id="136B">
    <g clip-path="url(#p3ad89d6e7b)">
     <use style="fill:#d62728;stroke:#d62728;" x="126.412834" xlink:href="#m07323857b1" y="185.166552"/>
    </g>
   </g>
   <g id="131A">
    <g clip-path="url(#p3ad89d6e7b)">
     <use style="fill:#9467bd;stroke:#9467bd;" x="124.545635" xlink:href="#maaac1db174" y="179.313545"/>
    </g>
   </g>
   <g id="61A">
    <g clip-path="url(#p3ad89d6e7b)">
     <use style="fill:#8c564b;stroke:#8c564b;" x="106.807239" xlink:href="#m3cb705540a" y="179.313545"/>
    </g>
   </g>
   <g id="60A">
    <g clip-path="url(#p3ad89d6e7b)">
     <use style="fill:#e377c2;stroke:#e377c2;" x="104.940039" xlink:href="#me5f82eac8a" y="201.262321"/>
    </g>
   </g>
   <g id="58B">
    <g clip-path="url(#p3ad89d6e7b)">
     <use style="fill:#7f7f7f;stroke:#7f7f7f;" x="125.479234" xlink:href="#m316fee610c" y="179.313545"/>
    </g>
   </g>
   <g id="58A">
    <g clip-path="url(#p3ad89d6e7b)">
     <use style="fill:#bcbd22;stroke:#bcbd22;" x="126.412834" xlink:href="#m15c5dd862b" y="179.313545"/>
    </g>
   </g>
   <g id="64A">
    <g clip-path="url(#p3ad89d6e7b)">
     <use style="fill:#17becf;stroke:#17becf;" x="148.819229" xlink:href="#mdc45833a63" y="179.313545"/>
    </g>
   </g>
   <g id="63A">
    <g clip-path="url(#p3ad89d6e7b)">
     <use style="fill:#1f77b4;stroke:#1f77b4;" x="144.15123" xlink:href="#md59a3c6cce" y="183.690202"/>
    </g>
   </g>
   <g id="59A">
    <g clip-path="url(#p3ad89d6e7b)">
     <use style="fill:#ff7f0e;stroke:#ff7f0e;" x="126.412834" xlink:href="#m83a3dfd5a4" y="179.313545"/>
    </g>
   </g>
   <g id="62A">
    <g clip-path="url(#p3ad89d6e7b)">
     <use style="fill:#2ca02c;stroke:#2ca02c;" x="119.877636" xlink:href="#m4566e39e57" y="173.685654"/>
    </g>
   </g>
   <g id="126A">
    <g clip-path="url(#p3ad89d6e7b)">
     <use style="fill:#d62728;stroke:#d62728;" x="123.612035" xlink:href="#m07323857b1" y="185.584624"/>
    </g>
   </g>
   <g id="127A">
    <g clip-path="url(#p3ad89d6e7b)">
     <use style="fill:#9467bd;stroke:#9467bd;" x="122.678435" xlink:href="#maaac1db174" y="179.313545"/>
    </g>
   </g>
   <g id="128A">
    <g clip-path="url(#p3ad89d6e7b)">
     <use style="fill:#8c564b;stroke:#8c564b;" x="108.674439" xlink:href="#m3cb705540a" y="179.313545"/>
    </g>
   </g>
   <g id="125A">
    <g clip-path="url(#p3ad89d6e7b)">
     <use style="fill:#e377c2;stroke:#e377c2;" x="121.744835" xlink:href="#me5f82eac8a" y="171.997287"/>
    </g>
   </g>
   <g id="124A">
    <g clip-path="url(#p3ad89d6e7b)">
     <use style="fill:#7f7f7f;stroke:#7f7f7f;" x="147.885629" xlink:href="#m316fee610c" y="182.797478"/>
    </g>
   </g>
   <g id="122A">
    <g clip-path="url(#p3ad89d6e7b)">
     <use style="fill:#bcbd22;stroke:#bcbd22;" x="118.944036" xlink:href="#m15c5dd862b" y="179.313545"/>
    </g>
   </g>
   <g id="123A">
    <g clip-path="url(#p3ad89d6e7b)">
     <use style="fill:#17becf;stroke:#17becf;" x="106.807239" xlink:href="#mdc45833a63" y="203.257664"/>
    </g>
   </g>
   <g id="2A">
    <g clip-path="url(#p3ad89d6e7b)">
     <use style="fill:#1f77b4;stroke:#1f77b4;" x="218.839211" xlink:href="#md59a3c6cce" y="186.212649"/>
    </g>
   </g>
   <g id="9A">
    <g clip-path="url(#p3ad89d6e7b)">
     <use style="fill:#ff7f0e;stroke:#ff7f0e;" x="174.960022" xlink:href="#m83a3dfd5a4" y="187.060172"/>
    </g>
   </g>
   <g id="19A">
    <g clip-path="url(#p3ad89d6e7b)">
     <use style="fill:#2ca02c;stroke:#2ca02c;" x="218.839211" xlink:href="#m4566e39e57" y="179.313545"/>
    </g>
   </g>
   <g id="10A">
    <g clip-path="url(#p3ad89d6e7b)">
     <use style="fill:#d62728;stroke:#d62728;" x="135.748832" xlink:href="#m07323857b1" y="179.313545"/>
    </g>
   </g>
   <g id="16A">
    <g clip-path="url(#p3ad89d6e7b)">
     <use style="fill:#9467bd;stroke:#9467bd;" x="220.706411" xlink:href="#maaac1db174" y="179.313545"/>
    </g>
   </g>
   <g id="5A">
    <g clip-path="url(#p3ad89d6e7b)">
     <use style="fill:#8c564b;stroke:#8c564b;" x="218.839211" xlink:href="#m3cb705540a" y="28.711804"/>
    </g>
   </g>
   <g id="8A">
    <g clip-path="url(#p3ad89d6e7b)">
     <use style="fill:#e377c2;stroke:#e377c2;" x="218.839211" xlink:href="#me5f82eac8a" y="182.240049"/>
    </g>
   </g>
   <g id="7A">
    <g clip-path="url(#p3ad89d6e7b)">
     <use style="fill:#7f7f7f;stroke:#7f7f7f;" x="218.839211" xlink:href="#m316fee610c" y="179.313545"/>
    </g>
   </g>
   <g id="3A">
    <g clip-path="url(#p3ad89d6e7b)">
     <use style="fill:#bcbd22;stroke:#bcbd22;" x="218.839211" xlink:href="#m15c5dd862b" y="184.312989"/>
    </g>
   </g>
   <g id="17A">
    <g clip-path="url(#p3ad89d6e7b)">
     <use style="fill:#17becf;stroke:#17becf;" x="156.288027" xlink:href="#mdc45833a63" y="191.592581"/>
    </g>
   </g>
   <g id="4A">
    <g clip-path="url(#p3ad89d6e7b)">
     <use style="fill:#1f77b4;stroke:#1f77b4;" x="218.839211" xlink:href="#md59a3c6cce" y="227.600269"/>
    </g>
   </g>
   <g id="13A">
    <g clip-path="url(#p3ad89d6e7b)">
     <use style="fill:#ff7f0e;stroke:#ff7f0e;" x="201.100816" xlink:href="#m83a3dfd5a4" y="179.313545"/>
    </g>
   </g>
   <g id="6A">
    <g clip-path="url(#p3ad89d6e7b)">
     <use style="fill:#2ca02c;stroke:#2ca02c;" x="218.839211" xlink:href="#m4566e39e57" y="179.313545"/>
    </g>
   </g>
   <g id="11A">
    <g clip-path="url(#p3ad89d6e7b)">
     <use style="fill:#d62728;stroke:#d62728;" x="217.905612" xlink:href="#m07323857b1" y="179.313545"/>
    </g>
   </g>
   <g id="1A">
    <g clip-path="url(#p3ad89d6e7b)">
     <use style="fill:#9467bd;stroke:#9467bd;" x="217.905612" xlink:href="#maaac1db174" y="148.866148"/>
    </g>
   </g>
   <g id="18A">
    <g clip-path="url(#p3ad89d6e7b)">
     <use style="fill:#8c564b;stroke:#8c564b;" x="218.839211" xlink:href="#m3cb705540a" y="179.313545"/>
    </g>
   </g>
   <g id="14A">
    <g clip-path="url(#p3ad89d6e7b)">
     <use style="fill:#e377c2;stroke:#e377c2;" x="220.706411" xlink:href="#me5f82eac8a" y="156.141858"/>
    </g>
   </g>
   <g id="12A">
    <g clip-path="url(#p3ad89d6e7b)">
     <use style="fill:#7f7f7f;stroke:#7f7f7f;" x="192.698418" xlink:href="#m316fee610c" y="184.078335"/>
    </g>
   </g>
   <g id="15A">
    <g clip-path="url(#p3ad89d6e7b)">
     <use style="fill:#bcbd22;stroke:#bcbd22;" x="220.706411" xlink:href="#m15c5dd862b" y="180.373873"/>
    </g>
   </g>
   <g id="142A">
    <g clip-path="url(#p3ad89d6e7b)">
     <use style="fill:#17becf;stroke:#17becf;" x="107.740839" xlink:href="#mdc45833a63" y="179.313545"/>
    </g>
   </g>
   <g id="matplotlib.axis_1">
    <g id="xtick_1">
     <g id="line2d_1">
      <defs>
       <path d="M 0 0 
L 0 3.5 
" id="md9109c3053" style="stroke:#000000;stroke-width:0.8;"/>
      </defs>
      <g>
       <use style="stroke:#000000;stroke-width:0.8;" x="66.662449" xlink:href="#md9109c3053" y="303.64"/>
      </g>
     </g>
     <g id="text_1">
      <text style="font-family:DejaVu Sans;font-size:10px;font-style:normal;font-weight:normal;text-anchor:middle;" transform="rotate(-0, 66.662449, 318.238437)" x="66.662449" y="318.238437">0</text>
     </g>
    </g>
    <g id="xtick_2">
     <g id="line2d_2">
      <g>
       <use style="stroke:#000000;stroke-width:0.8;" x="113.342437" xlink:href="#md9109c3053" y="303.64"/>
      </g>
     </g>
     <g id="text_2">
      <text style="font-family:DejaVu Sans;font-size:10px;font-style:normal;font-weight:normal;text-anchor:middle;" transform="rotate(-0, 113.342437, 318.238437)" x="113.342437" y="318.238437">50</text>
     </g>
    </g>
    <g id="xtick_3">
     <g id="line2d_3">
      <g>
       <use style="stroke:#000000;stroke-width:0.8;" x="160.022426" xlink:href="#md9109c3053" y="303.64"/>
      </g>
     </g>
     <g id="text_3">
      <text style="font-family:DejaVu Sans;font-size:10px;font-style:normal;font-weight:normal;text-anchor:middle;" transform="rotate(-0, 160.022426, 318.238437)" x="160.022426" y="318.238437">100</text>
     </g>
    </g>
    <g id="xtick_4">
     <g id="line2d_4">
      <g>
       <use style="stroke:#000000;stroke-width:0.8;" x="206.702414" xlink:href="#md9109c3053" y="303.64"/>
      </g>
     </g>
     <g id="text_4">
      <text style="font-family:DejaVu Sans;font-size:10px;font-style:normal;font-weight:normal;text-anchor:middle;" transform="rotate(-0, 206.702414, 318.238437)" x="206.702414" y="318.238437">150</text>
     </g>
    </g>
    <g id="xtick_5">
     <g id="line2d_5">
      <g>
       <use style="stroke:#000000;stroke-width:0.8;" x="253.382403" xlink:href="#md9109c3053" y="303.64"/>
      </g>
     </g>
     <g id="text_5">
      <text style="font-family:DejaVu Sans;font-size:10px;font-style:normal;font-weight:normal;text-anchor:middle;" transform="rotate(-0, 253.382403, 318.238437)" x="253.382403" y="318.238437">200</text>
     </g>
    </g>
    <g id="xtick_6">
     <g id="line2d_6">
      <g>
       <use style="stroke:#000000;stroke-width:0.8;" x="300.062391" xlink:href="#md9109c3053" y="303.64"/>
      </g>
     </g>
     <g id="text_6">
      <text style="font-family:DejaVu Sans;font-size:10px;font-style:normal;font-weight:normal;text-anchor:middle;" transform="rotate(-0, 300.062391, 318.238437)" x="300.062391" y="318.238437">250</text>
     </g>
    </g>
    <g id="xtick_7">
     <g id="line2d_7">
      <g>
       <use style="stroke:#000000;stroke-width:0.8;" x="346.74238" xlink:href="#md9109c3053" y="303.64"/>
      </g>
     </g>
     <g id="text_7">
      <text style="font-family:DejaVu Sans;font-size:10px;font-style:normal;font-weight:normal;text-anchor:middle;" transform="rotate(-0, 346.74238, 318.238437)" x="346.74238" y="318.238437">300</text>
     </g>
    </g>
    <g id="xtick_8">
     <g id="line2d_8">
      <g>
       <use style="stroke:#000000;stroke-width:0.8;" x="393.422368" xlink:href="#md9109c3053" y="303.64"/>
      </g>
     </g>
     <g id="text_8">
      <text style="font-family:DejaVu Sans;font-size:10px;font-style:normal;font-weight:normal;text-anchor:middle;" transform="rotate(-0, 393.422368, 318.238437)" x="393.422368" y="318.238437">350</text>
     </g>
    </g>
    <g id="xtick_9">
     <g id="line2d_9">
      <g>
       <use style="stroke:#000000;stroke-width:0.8;" x="440.102357" xlink:href="#md9109c3053" y="303.64"/>
      </g>
     </g>
     <g id="text_9">
      <text style="font-family:DejaVu Sans;font-size:10px;font-style:normal;font-weight:normal;text-anchor:middle;" transform="rotate(-0, 440.102357, 318.238437)" x="440.102357" y="318.238437">400</text>
     </g>
    </g>
    <g id="text_10">
     <text style="font-family:DejaVu Sans;font-size:10px;font-style:normal;font-weight:normal;text-anchor:middle;" transform="rotate(-0, 250.795359, 331.916562)" x="250.795359" y="331.916562">Amount of languages tested</text>
    </g>
   </g>
   <g id="matplotlib.axis_2">
    <g id="ytick_1">
     <g id="line2d_10">
      <defs>
       <path d="M 0 0 
L -3.5 0 
" id="m61179e5f43" style="stroke:#000000;stroke-width:0.8;"/>
      </defs>
      <g>
       <use style="stroke:#000000;stroke-width:0.8;" x="56.09" xlink:href="#m61179e5f43" y="267.108649"/>
      </g>
     </g>
     <g id="text_11">
      <text style="font-family:DejaVu Sans;font-size:10px;font-style:normal;font-weight:normal;text-anchor:end;" transform="rotate(-0, 49.09, 270.907867)" x="49.09" y="270.907867">−0.2</text>
     </g>
    </g>
    <g id="ytick_2">
     <g id="line2d_11">
      <g>
       <use style="stroke:#000000;stroke-width:0.8;" x="56.09" xlink:href="#m61179e5f43" y="223.211097"/>
      </g>
     </g>
     <g id="text_12">
      <text style="font-family:DejaVu Sans;font-size:10px;font-style:normal;font-weight:normal;text-anchor:end;" transform="rotate(-0, 49.09, 227.010316)" x="49.09" y="227.010316">−0.1</text>
     </g>
    </g>
    <g id="ytick_3">
     <g id="line2d_12">
      <g>
       <use style="stroke:#000000;stroke-width:0.8;" x="56.09" xlink:href="#m61179e5f43" y="179.313545"/>
      </g>
     </g>
     <g id="text_13">
      <text style="font-family:DejaVu Sans;font-size:10px;font-style:normal;font-weight:normal;text-anchor:end;" transform="rotate(-0, 49.09, 183.112764)" x="49.09" y="183.112764">0.0</text>
     </g>
    </g>
    <g id="ytick_4">
     <g id="line2d_13">
      <g>
       <use style="stroke:#000000;stroke-width:0.8;" x="56.09" xlink:href="#m61179e5f43" y="135.415993"/>
      </g>
     </g>
     <g id="text_14">
      <text style="font-family:DejaVu Sans;font-size:10px;font-style:normal;font-weight:normal;text-anchor:end;" transform="rotate(-0, 49.09, 139.215212)" x="49.09" y="139.215212">0.1</text>
     </g>
    </g>
    <g id="ytick_5">
     <g id="line2d_14">
      <g>
       <use style="stroke:#000000;stroke-width:0.8;" x="56.09" xlink:href="#m61179e5f43" y="91.518442"/>
      </g>
     </g>
     <g id="text_15">
      <text style="font-family:DejaVu Sans;font-size:10px;font-style:normal;font-weight:normal;text-anchor:end;" transform="rotate(-0, 49.09, 95.317661)" x="49.09" y="95.317661">0.2</text>
     </g>
    </g>
    <g id="ytick_6">
     <g id="line2d_15">
      <g>
       <use style="stroke:#000000;stroke-width:0.8;" x="56.09" xlink:href="#m61179e5f43" y="47.62089"/>
      </g>
     </g>
     <g id="text_16">
      <text style="font-family:DejaVu Sans;font-size:10px;font-style:normal;font-weight:normal;text-anchor:end;" transform="rotate(-0, 49.09, 51.420109)" x="49.09" y="51.420109">0.3</text>
     </g>
    </g>
    <g id="text_17">
     <text style="font-family:DejaVu Sans;font-size:10px;font-style:normal;font-weight:normal;text-anchor:middle;" transform="rotate(-90, 18.7275, 158.48)" x="18.7275" y="158.48">Score - base</text>
    </g>
   </g>
   <g id="line2d_16">
    <path clip-path="url(#p3ad89d6e7b)" d="M 75.998447 186.258805 
L 97.471241 185.661841 
L 104.00644 185.480156 
L 104.940039 185.454201 
L 106.807239 185.402291 
L 107.740839 185.376337 
L 108.674439 185.350382 
L 110.541638 185.298472 
L 111.475238 185.272517 
L 118.010436 185.090832 
L 118.944036 185.064877 
L 119.877636 185.038922 
L 121.744835 184.987012 
L 122.678435 184.961057 
L 123.612035 184.935102 
L 124.545635 184.909147 
L 125.479234 184.883192 
L 126.412834 184.857237 
L 127.346434 184.831282 
L 128.280034 184.805327 
L 129.213634 184.779372 
L 132.014433 184.701508 
L 135.748832 184.597688 
L 136.682432 184.571733 
L 137.616031 184.545778 
L 138.549631 184.519823 
L 139.483231 184.493868 
L 142.28403 184.416003 
L 143.21763 184.390048 
L 144.15123 184.364093 
L 145.08483 184.338138 
L 147.885629 184.260273 
L 148.819229 184.234318 
L 154.420827 184.078589 
L 156.288027 184.026679 
L 161.889625 183.870949 
L 164.690425 183.793084 
L 170.292023 183.637354 
L 171.225623 183.611399 
L 174.960022 183.50758 
L 176.827222 183.45567 
L 178.694421 183.40376 
L 179.628021 183.377805 
L 180.561621 183.35185 
L 182.42882 183.29994 
L 184.29602 183.24803 
L 185.22962 183.222075 
L 188.964019 183.118255 
L 189.897619 183.0923 
L 191.764818 183.04039 
L 192.698418 183.014435 
L 195.499217 182.93657 
L 201.100816 182.780841 
L 206.702414 182.625111 
L 211.370413 182.495336 
L 217.905612 182.313651 
L 218.839211 182.287697 
L 220.706411 182.235787 
L 224.44081 182.131967 
L 225.37441 182.106012 
L 227.241609 182.054102 
L 242.179206 181.638823 
L 250.581604 181.405228 
L 254.316003 181.301408 
L 258.050402 181.197588 
L 261.784801 181.093768 
L 288.859194 180.341075 
L 294.460793 180.185345 
L 299.128792 180.05557 
L 300.995991 180.00366 
L 311.265589 179.718156 
L 312.199188 179.692201 
L 317.800787 179.536471 
L 319.667987 179.484561 
L 334.605583 179.069282 
L 350.476779 178.628047 
L 351.410379 178.602092 
L 354.211178 178.524228 
L 362.613576 178.290633 
L 368.215175 178.134903 
L 371.015974 178.057038 
L 387.82077 177.589849 
L 390.621569 177.511984 
L 396.223168 177.356254 
L 403.691966 177.148615 
L 424.231161 176.577606 
L 426.09836 176.525696 
" style="fill:none;stroke:#1f77b4;stroke-linecap:square;stroke-width:1.5;"/>
   </g>
   <g id="patch_3">
    <path d="M 56.09 303.64 
L 56.09 13.32 
" style="fill:none;stroke:#000000;stroke-linecap:square;stroke-linejoin:miter;stroke-width:0.8;"/>
   </g>
   <g id="patch_4">
    <path d="M 445.500719 303.64 
L 445.500719 13.32 
" style="fill:none;stroke:#000000;stroke-linecap:square;stroke-linejoin:miter;stroke-width:0.8;"/>
   </g>
   <g id="patch_5">
    <path d="M 56.09 303.64 
L 445.500719 303.64 
" style="fill:none;stroke:#000000;stroke-linecap:square;stroke-linejoin:miter;stroke-width:0.8;"/>
   </g>
   <g id="patch_6">
    <path d="M 56.09 13.32 
L 445.500719 13.32 
" style="fill:none;stroke:#000000;stroke-linecap:square;stroke-linejoin:miter;stroke-width:0.8;"/>
   </g>
  </g>
 </g>
 <defs>
  <clipPath id="p3ad89d6e7b">
   <rect height="290.32" width="389.410719" x="56.09" y="13.32"/>
  </clipPath>
 </defs>
</svg>
