<?xml version="1.0" encoding="utf-8" standalone="no"?>
<!DOCTYPE svg PUBLIC "-//W3C//DTD SVG 1.1//EN"
  "http://www.w3.org/Graphics/SVG/1.1/DTD/svg11.dtd">
<!-- Created with matplotlib (http://matplotlib.org/) -->
<svg height="345.6pt" version="1.1" viewBox="0 0 460.8 345.6" width="460.8pt" xmlns="http://www.w3.org/2000/svg" xmlns:xlink="http://www.w3.org/1999/xlink">
 <defs>
  <style type="text/css">
*{stroke-linecap:butt;stroke-linejoin:round;}
  </style>
 </defs>
 <g id="figure_1">
  <g id="patch_1">
   <path d="M 0 345.6 
L 460.8 345.6 
L 460.8 0 
L 0 0 
z
" style="fill:#ffffff;"/>
  </g>
  <g id="axes_1">
   <g id="patch_2">
    <path d="M 56.09 303.64 
L 446.10983 303.64 
L 446.10983 13.32 
L 56.09 13.32 
z
" style="fill:#ffffff;"/>
   </g>
   <g id="142A">
    <defs>
     <path d="M 0 3 
C 0.795609 3 1.55874 2.683901 2.12132 2.12132 
C 2.683901 1.55874 3 0.795609 3 0 
C 3 -0.795609 2.683901 -1.55874 2.12132 -2.12132 
C 1.55874 -2.683901 0.795609 -3 0 -3 
C -0.795609 -3 -1.55874 -2.683901 -2.12132 -2.12132 
C -2.683901 -1.55874 -3 -0.795609 -3 0 
C -3 0.795609 -2.683901 1.55874 -2.12132 2.12132 
C -1.55874 2.683901 -0.795609 3 0 3 
z
" id="m08823fccb8" style="stroke:#1f77b4;"/>
    </defs>
    <g clip-path="url(#p0b864a6bfd)">
     <use style="fill:#1f77b4;stroke:#1f77b4;" x="107.751563" xlink:href="#m08823fccb8" y="178.820736"/>
    </g>
   </g>
   <g id="25B">
    <defs>
     <path d="M 0 3 
C 0.795609 3 1.55874 2.683901 2.12132 2.12132 
C 2.683901 1.55874 3 0.795609 3 0 
C 3 -0.795609 2.683901 -1.55874 2.12132 -2.12132 
C 1.55874 -2.683901 0.795609 -3 0 -3 
C -0.795609 -3 -1.55874 -2.683901 -2.12132 -2.12132 
C -2.683901 -1.55874 -3 -0.795609 -3 0 
C -3 0.795609 -2.683901 1.55874 -2.12132 2.12132 
C -1.55874 2.683901 -0.795609 3 0 3 
z
" id="m72b6866018" style="stroke:#ff7f0e;"/>
    </defs>
    <g clip-path="url(#p0b864a6bfd)">
     <use style="fill:#ff7f0e;stroke:#ff7f0e;" x="129.219494" xlink:href="#m72b6866018" y="178.820736"/>
    </g>
   </g>
   <g id="29A">
    <defs>
     <path d="M 0 3 
C 0.795609 3 1.55874 2.683901 2.12132 2.12132 
C 2.683901 1.55874 3 0.795609 3 0 
C 3 -0.795609 2.683901 -1.55874 2.12132 -2.12132 
C 1.55874 -2.683901 0.795609 -3 0 -3 
C -0.795609 -3 -1.55874 -2.683901 -2.12132 -2.12132 
C -2.683901 -1.55874 -3 -0.795609 -3 0 
C -3 0.795609 -2.683901 1.55874 -2.12132 2.12132 
C -1.55874 2.683901 -0.795609 3 0 3 
z
" id="mfe21db0123" style="stroke:#2ca02c;"/>
    </defs>
    <g clip-path="url(#p0b864a6bfd)">
     <use style="fill:#2ca02c;stroke:#2ca02c;" x="125.485941" xlink:href="#mfe21db0123" y="168.897691"/>
    </g>
   </g>
   <g id="20A">
    <defs>
     <path d="M 0 3 
C 0.795609 3 1.55874 2.683901 2.12132 2.12132 
C 2.683901 1.55874 3 0.795609 3 0 
C 3 -0.795609 2.683901 -1.55874 2.12132 -2.12132 
C 1.55874 -2.683901 0.795609 -3 0 -3 
C -0.795609 -3 -1.55874 -2.683901 -2.12132 -2.12132 
C -2.683901 -1.55874 -3 -0.795609 -3 0 
C -3 0.795609 -2.683901 1.55874 -2.12132 2.12132 
C -1.55874 2.683901 -0.795609 3 0 3 
z
" id="mb8f1336be5" style="stroke:#d62728;"/>
    </defs>
    <g clip-path="url(#p0b864a6bfd)">
     <use style="fill:#d62728;stroke:#d62728;" x="111.485116" xlink:href="#mb8f1336be5" y="178.820736"/>
    </g>
   </g>
   <g id="27A">
    <defs>
     <path d="M 0 3 
C 0.795609 3 1.55874 2.683901 2.12132 2.12132 
C 2.683901 1.55874 3 0.795609 3 0 
C 3 -0.795609 2.683901 -1.55874 2.12132 -2.12132 
C 1.55874 -2.683901 0.795609 -3 0 -3 
C -0.795609 -3 -1.55874 -2.683901 -2.12132 -2.12132 
C -2.683901 -1.55874 -3 -0.795609 -3 0 
C -3 0.795609 -2.683901 1.55874 -2.12132 2.12132 
C -1.55874 2.683901 -0.795609 3 0 3 
z
" id="m0d9d42c7e1" style="stroke:#9467bd;"/>
    </defs>
    <g clip-path="url(#p0b864a6bfd)">
     <use style="fill:#9467bd;stroke:#9467bd;" x="170.288579" xlink:href="#m0d9d42c7e1" y="180.751908"/>
    </g>
   </g>
   <g id="24A">
    <defs>
     <path d="M 0 3 
C 0.795609 3 1.55874 2.683901 2.12132 2.12132 
C 2.683901 1.55874 3 0.795609 3 0 
C 3 -0.795609 2.683901 -1.55874 2.12132 -2.12132 
C 1.55874 -2.683901 0.795609 -3 0 -3 
C -0.795609 -3 -1.55874 -2.683901 -2.12132 -2.12132 
C -2.683901 -1.55874 -3 -0.795609 -3 0 
C -3 0.795609 -2.683901 1.55874 -2.12132 2.12132 
C -1.55874 2.683901 -0.795609 3 0 3 
z
" id="ma1dc1b3de7" style="stroke:#8c564b;"/>
    </defs>
    <g clip-path="url(#p0b864a6bfd)">
     <use style="fill:#8c564b;stroke:#8c564b;" x="129.219494" xlink:href="#ma1dc1b3de7" y="99.277109"/>
    </g>
   </g>
   <g id="21A">
    <defs>
     <path d="M 0 3 
C 0.795609 3 1.55874 2.683901 2.12132 2.12132 
C 2.683901 1.55874 3 0.795609 3 0 
C 3 -0.795609 2.683901 -1.55874 2.12132 -2.12132 
C 1.55874 -2.683901 0.795609 -3 0 -3 
C -0.795609 -3 -1.55874 -2.683901 -2.12132 -2.12132 
C -2.683901 -1.55874 -3 -0.795609 -3 0 
C -3 0.795609 -2.683901 1.55874 -2.12132 2.12132 
C -1.55874 2.683901 -0.795609 3 0 3 
z
" id="m362f30f516" style="stroke:#e377c2;"/>
    </defs>
    <g clip-path="url(#p0b864a6bfd)">
     <use style="fill:#e377c2;stroke:#e377c2;" x="110.551728" xlink:href="#m362f30f516" y="222.918188"/>
    </g>
   </g>
   <g id="21B">
    <defs>
     <path d="M 0 3 
C 0.795609 3 1.55874 2.683901 2.12132 2.12132 
C 2.683901 1.55874 3 0.795609 3 0 
C 3 -0.795609 2.683901 -1.55874 2.12132 -2.12132 
C 1.55874 -2.683901 0.795609 -3 0 -3 
C -0.795609 -3 -1.55874 -2.683901 -2.12132 -2.12132 
C -2.683901 -1.55874 -3 -0.795609 -3 0 
C -3 0.795609 -2.683901 1.55874 -2.12132 2.12132 
C -1.55874 2.683901 -0.795609 3 0 3 
z
" id="m747e32e230" style="stroke:#7f7f7f;"/>
    </defs>
    <g clip-path="url(#p0b864a6bfd)">
     <use style="fill:#7f7f7f;stroke:#7f7f7f;" x="110.551728" xlink:href="#m747e32e230" y="178.820736"/>
    </g>
   </g>
   <g id="26A">
    <defs>
     <path d="M 0 3 
C 0.795609 3 1.55874 2.683901 2.12132 2.12132 
C 2.683901 1.55874 3 0.795609 3 0 
C 3 -0.795609 2.683901 -1.55874 2.12132 -2.12132 
C 1.55874 -2.683901 0.795609 -3 0 -3 
C -0.795609 -3 -1.55874 -2.683901 -2.12132 -2.12132 
C -2.683901 -1.55874 -3 -0.795609 -3 0 
C -3 0.795609 -2.683901 1.55874 -2.12132 2.12132 
C -1.55874 2.683901 -0.795609 3 0 3 
z
" id="m633de5422c" style="stroke:#bcbd22;"/>
    </defs>
    <g clip-path="url(#p0b864a6bfd)">
     <use style="fill:#bcbd22;stroke:#bcbd22;" x="317.763931" xlink:href="#m633de5422c" y="219.070008"/>
    </g>
   </g>
   <g id="28A">
    <defs>
     <path d="M 0 3 
C 0.795609 3 1.55874 2.683901 2.12132 2.12132 
C 2.683901 1.55874 3 0.795609 3 0 
C 3 -0.795609 2.683901 -1.55874 2.12132 -2.12132 
C 1.55874 -2.683901 0.795609 -3 0 -3 
C -0.795609 -3 -1.55874 -2.683901 -2.12132 -2.12132 
C -2.683901 -1.55874 -3 -0.795609 -3 0 
C -3 0.795609 -2.683901 1.55874 -2.12132 2.12132 
C -1.55874 2.683901 -0.795609 3 0 3 
z
" id="m9a14a3cf65" style="stroke:#17becf;"/>
    </defs>
    <g clip-path="url(#p0b864a6bfd)">
     <use style="fill:#17becf;stroke:#17becf;" x="126.419329" xlink:href="#m9a14a3cf65" y="178.820736"/>
    </g>
   </g>
   <g id="22A">
    <g clip-path="url(#p0b864a6bfd)">
     <use style="fill:#1f77b4;stroke:#1f77b4;" x="108.684952" xlink:href="#m08823fccb8" y="178.820736"/>
    </g>
   </g>
   <g id="25A">
    <g clip-path="url(#p0b864a6bfd)">
     <use style="fill:#ff7f0e;stroke:#ff7f0e;" x="129.219494" xlink:href="#m72b6866018" y="178.820736"/>
    </g>
   </g>
   <g id="23A">
    <g clip-path="url(#p0b864a6bfd)">
     <use style="fill:#2ca02c;stroke:#2ca02c;" x="129.219494" xlink:href="#mfe21db0123" y="180.917437"/>
    </g>
   </g>
   <g id="108B">
    <g clip-path="url(#p0b864a6bfd)">
     <use style="fill:#d62728;stroke:#d62728;" x="122.685776" xlink:href="#mb8f1336be5" y="178.820736"/>
    </g>
   </g>
   <g id="106A">
    <g clip-path="url(#p0b864a6bfd)">
     <use style="fill:#9467bd;stroke:#9467bd;" x="119.885611" xlink:href="#m0d9d42c7e1" y="178.820736"/>
    </g>
   </g>
   <g id="100A">
    <g clip-path="url(#p0b864a6bfd)">
     <use style="fill:#8c564b;stroke:#8c564b;" x="179.622462" xlink:href="#ma1dc1b3de7" y="182.489964"/>
    </g>
   </g>
   <g id="102A">
    <g clip-path="url(#p0b864a6bfd)">
     <use style="fill:#e377c2;stroke:#e377c2;" x="179.622462" xlink:href="#m362f30f516" y="169.344839"/>
    </g>
   </g>
   <g id="116A">
    <g clip-path="url(#p0b864a6bfd)">
     <use style="fill:#7f7f7f;stroke:#7f7f7f;" x="319.630708" xlink:href="#m747e32e230" y="178.820736"/>
    </g>
   </g>
   <g id="117A">
    <g clip-path="url(#p0b864a6bfd)">
     <use style="fill:#bcbd22;stroke:#bcbd22;" x="145.087095" xlink:href="#m633de5422c" y="231.903157"/>
    </g>
   </g>
   <g id="118A">
    <g clip-path="url(#p0b864a6bfd)">
     <use style="fill:#17becf;stroke:#17becf;" x="188.956345" xlink:href="#m9a14a3cf65" y="148.674704"/>
    </g>
   </g>
   <g id="121A">
    <g clip-path="url(#p0b864a6bfd)">
     <use style="fill:#1f77b4;stroke:#1f77b4;" x="121.752388" xlink:href="#m08823fccb8" y="186.014036"/>
    </g>
   </g>
   <g id="111A">
    <g clip-path="url(#p0b864a6bfd)">
     <use style="fill:#ff7f0e;stroke:#ff7f0e;" x="154.420978" xlink:href="#m72b6866018" y="178.820736"/>
    </g>
   </g>
   <g id="99A">
    <g clip-path="url(#p0b864a6bfd)">
     <use style="fill:#2ca02c;stroke:#2ca02c;" x="121.752388" xlink:href="#mfe21db0123" y="201.674786"/>
    </g>
   </g>
   <g id="108A">
    <g clip-path="url(#p0b864a6bfd)">
     <use style="fill:#d62728;stroke:#d62728;" x="125.485941" xlink:href="#mb8f1336be5" y="178.820736"/>
    </g>
   </g>
   <g id="103A">
    <g clip-path="url(#p0b864a6bfd)">
     <use style="fill:#9467bd;stroke:#9467bd;" x="179.622462" xlink:href="#m0d9d42c7e1" y="176.619199"/>
    </g>
   </g>
   <g id="98A">
    <g clip-path="url(#p0b864a6bfd)">
     <use style="fill:#8c564b;stroke:#8c564b;" x="125.485941" xlink:href="#ma1dc1b3de7" y="190.562266"/>
    </g>
   </g>
   <g id="115A">
    <g clip-path="url(#p0b864a6bfd)">
     <use style="fill:#e377c2;stroke:#e377c2;" x="128.286106" xlink:href="#m362f30f516" y="178.820736"/>
    </g>
   </g>
   <g id="120A">
    <g clip-path="url(#p0b864a6bfd)">
     <use style="fill:#7f7f7f;stroke:#7f7f7f;" x="188.956345" xlink:href="#m747e32e230" y="203.006446"/>
    </g>
   </g>
   <g id="109B">
    <g clip-path="url(#p0b864a6bfd)">
     <use style="fill:#bcbd22;stroke:#bcbd22;" x="123.619164" xlink:href="#m633de5422c" y="184.691501"/>
    </g>
   </g>
   <g id="101A">
    <g clip-path="url(#p0b864a6bfd)">
     <use style="fill:#17becf;stroke:#17becf;" x="254.293526" xlink:href="#m9a14a3cf65" y="181.266888"/>
    </g>
   </g>
   <g id="109A">
    <g clip-path="url(#p0b864a6bfd)">
     <use style="fill:#1f77b4;stroke:#1f77b4;" x="123.619164" xlink:href="#m08823fccb8" y="221.174113"/>
    </g>
   </g>
   <g id="104A">
    <g clip-path="url(#p0b864a6bfd)">
     <use style="fill:#ff7f0e;stroke:#ff7f0e;" x="178.689074" xlink:href="#m72b6866018" y="180.310665"/>
    </g>
   </g>
   <g id="105A">
    <g clip-path="url(#p0b864a6bfd)">
     <use style="fill:#2ca02c;stroke:#2ca02c;" x="164.68825" xlink:href="#mfe21db0123" y="198.683827"/>
    </g>
   </g>
   <g id="114A">
    <g clip-path="url(#p0b864a6bfd)">
     <use style="fill:#d62728;stroke:#d62728;" x="148.820649" xlink:href="#mb8f1336be5" y="188.248263"/>
    </g>
   </g>
   <g id="113A">
    <g clip-path="url(#p0b864a6bfd)">
     <use style="fill:#9467bd;stroke:#9467bd;" x="148.820649" xlink:href="#m0d9d42c7e1" y="161.351658"/>
    </g>
   </g>
   <g id="110A">
    <g clip-path="url(#p0b864a6bfd)">
     <use style="fill:#8c564b;stroke:#8c564b;" x="106.818175" xlink:href="#ma1dc1b3de7" y="214.030501"/>
    </g>
   </g>
   <g id="107A">
    <g clip-path="url(#p0b864a6bfd)">
     <use style="fill:#e377c2;stroke:#e377c2;" x="176.822298" xlink:href="#m362f30f516" y="147.876911"/>
    </g>
   </g>
   <g id="119A">
    <g clip-path="url(#p0b864a6bfd)">
     <use style="fill:#7f7f7f;stroke:#7f7f7f;" x="188.956345" xlink:href="#m747e32e230" y="220.534067"/>
    </g>
   </g>
   <g id="112A">
    <g clip-path="url(#p0b864a6bfd)">
     <use style="fill:#bcbd22;stroke:#bcbd22;" x="350.432521" xlink:href="#m633de5422c" y="237.479063"/>
    </g>
   </g>
   <g id="3A">
    <g clip-path="url(#p0b864a6bfd)">
     <use style="fill:#17becf;stroke:#17becf;" x="218.824771" xlink:href="#m9a14a3cf65" y="183.835347"/>
    </g>
   </g>
   <g id="11A">
    <g clip-path="url(#p0b864a6bfd)">
     <use style="fill:#1f77b4;stroke:#1f77b4;" x="217.891383" xlink:href="#m08823fccb8" y="178.820736"/>
    </g>
   </g>
   <g id="18A">
    <g clip-path="url(#p0b864a6bfd)">
     <use style="fill:#ff7f0e;stroke:#ff7f0e;" x="218.824771" xlink:href="#m72b6866018" y="178.820736"/>
    </g>
   </g>
   <g id="17A">
    <g clip-path="url(#p0b864a6bfd)">
     <use style="fill:#2ca02c;stroke:#2ca02c;" x="156.287755" xlink:href="#mfe21db0123" y="191.137026"/>
    </g>
   </g>
   <g id="8A">
    <g clip-path="url(#p0b864a6bfd)">
     <use style="fill:#d62728;stroke:#d62728;" x="218.824771" xlink:href="#mb8f1336be5" y="181.756118"/>
    </g>
   </g>
   <g id="9A">
    <g clip-path="url(#p0b864a6bfd)">
     <use style="fill:#9467bd;stroke:#9467bd;" x="174.955521" xlink:href="#m0d9d42c7e1" y="186.590866"/>
    </g>
   </g>
   <g id="5A">
    <g clip-path="url(#p0b864a6bfd)">
     <use style="fill:#8c564b;stroke:#8c564b;" x="218.824771" xlink:href="#ma1dc1b3de7" y="27.762062"/>
    </g>
   </g>
   <g id="10A">
    <g clip-path="url(#p0b864a6bfd)">
     <use style="fill:#e377c2;stroke:#e377c2;" x="135.753212" xlink:href="#m362f30f516" y="178.820736"/>
    </g>
   </g>
   <g id="2A">
    <g clip-path="url(#p0b864a6bfd)">
     <use style="fill:#7f7f7f;stroke:#7f7f7f;" x="218.824771" xlink:href="#m747e32e230" y="185.740771"/>
    </g>
   </g>
   <g id="13A">
    <g clip-path="url(#p0b864a6bfd)">
     <use style="fill:#bcbd22;stroke:#bcbd22;" x="201.090393" xlink:href="#m633de5422c" y="178.820736"/>
    </g>
   </g>
   <g id="4A">
    <g clip-path="url(#p0b864a6bfd)">
     <use style="fill:#17becf;stroke:#17becf;" x="218.824771" xlink:href="#m9a14a3cf65" y="227.253963"/>
    </g>
   </g>
   <g id="6A">
    <g clip-path="url(#p0b864a6bfd)">
     <use style="fill:#1f77b4;stroke:#1f77b4;" x="218.824771" xlink:href="#m08823fccb8" y="178.820736"/>
    </g>
   </g>
   <g id="1A">
    <g clip-path="url(#p0b864a6bfd)">
     <use style="fill:#ff7f0e;stroke:#ff7f0e;" x="217.891383" xlink:href="#m72b6866018" y="148.28096"/>
    </g>
   </g>
   <g id="7A">
    <g clip-path="url(#p0b864a6bfd)">
     <use style="fill:#2ca02c;stroke:#2ca02c;" x="218.824771" xlink:href="#mfe21db0123" y="178.820736"/>
    </g>
   </g>
   <g id="19A">
    <g clip-path="url(#p0b864a6bfd)">
     <use style="fill:#d62728;stroke:#d62728;" x="218.824771" xlink:href="#mb8f1336be5" y="178.820736"/>
    </g>
   </g>
   <g id="14A">
    <g clip-path="url(#p0b864a6bfd)">
     <use style="fill:#9467bd;stroke:#9467bd;" x="220.691548" xlink:href="#m0d9d42c7e1" y="155.578745"/>
    </g>
   </g>
   <g id="12A">
    <g clip-path="url(#p0b864a6bfd)">
     <use style="fill:#8c564b;stroke:#8c564b;" x="192.689899" xlink:href="#ma1dc1b3de7" y="183.599982"/>
    </g>
   </g>
   <g id="16A">
    <g clip-path="url(#p0b864a6bfd)">
     <use style="fill:#e377c2;stroke:#e377c2;" x="220.691548" xlink:href="#m362f30f516" y="178.820736"/>
    </g>
   </g>
   <g id="15A">
    <g clip-path="url(#p0b864a6bfd)">
     <use style="fill:#7f7f7f;stroke:#7f7f7f;" x="220.691548" xlink:href="#m747e32e230" y="179.88428"/>
    </g>
   </g>
   <g id="68A">
    <g clip-path="url(#p0b864a6bfd)">
     <use style="fill:#bcbd22;stroke:#bcbd22;" x="142.28693" xlink:href="#m633de5422c" y="230.801469"/>
    </g>
   </g>
   <g id="65A">
    <g clip-path="url(#p0b864a6bfd)">
     <use style="fill:#17becf;stroke:#17becf;" x="142.28693" xlink:href="#m9a14a3cf65" y="146.668332"/>
    </g>
   </g>
   <g id="66A">
    <g clip-path="url(#p0b864a6bfd)">
     <use style="fill:#1f77b4;stroke:#1f77b4;" x="142.28693" xlink:href="#m08823fccb8" y="248.026502"/>
    </g>
   </g>
   <g id="69A">
    <g clip-path="url(#p0b864a6bfd)">
     <use style="fill:#ff7f0e;stroke:#ff7f0e;" x="351.36591" xlink:href="#m72b6866018" y="211.279992"/>
    </g>
   </g>
   <g id="73A">
    <g clip-path="url(#p0b864a6bfd)">
     <use style="fill:#2ca02c;stroke:#2ca02c;" x="154.420978" xlink:href="#mfe21db0123" y="178.820736"/>
    </g>
   </g>
   <g id="76A">
    <g clip-path="url(#p0b864a6bfd)">
     <use style="fill:#d62728;stroke:#d62728;" x="136.686601" xlink:href="#mb8f1336be5" y="152.044106"/>
    </g>
   </g>
   <g id="71A">
    <g clip-path="url(#p0b864a6bfd)">
     <use style="fill:#9467bd;stroke:#9467bd;" x="195.490064" xlink:href="#m0d9d42c7e1" y="189.513318"/>
    </g>
   </g>
   <g id="77A">
    <g clip-path="url(#p0b864a6bfd)">
     <use style="fill:#8c564b;stroke:#8c564b;" x="184.289404" xlink:href="#ma1dc1b3de7" y="62.17341"/>
    </g>
   </g>
   <g id="74A">
    <g clip-path="url(#p0b864a6bfd)">
     <use style="fill:#e377c2;stroke:#e377c2;" x="145.087095" xlink:href="#m362f30f516" y="181.572657"/>
    </g>
   </g>
   <g id="72A">
    <g clip-path="url(#p0b864a6bfd)">
     <use style="fill:#7f7f7f;stroke:#7f7f7f;" x="185.222792" xlink:href="#m747e32e230" y="221.711719"/>
    </g>
   </g>
   <g id="79B">
    <g clip-path="url(#p0b864a6bfd)">
     <use style="fill:#bcbd22;stroke:#bcbd22;" x="126.419329" xlink:href="#m633de5422c" y="178.820736"/>
    </g>
   </g>
   <g id="80A">
    <g clip-path="url(#p0b864a6bfd)">
     <use style="fill:#17becf;stroke:#17becf;" x="126.419329" xlink:href="#m9a14a3cf65" y="178.820736"/>
    </g>
   </g>
   <g id="75A">
    <g clip-path="url(#p0b864a6bfd)">
     <use style="fill:#1f77b4;stroke:#1f77b4;" x="143.220319" xlink:href="#m08823fccb8" y="136.353985"/>
    </g>
   </g>
   <g id="79A">
    <g clip-path="url(#p0b864a6bfd)">
     <use style="fill:#ff7f0e;stroke:#ff7f0e;" x="126.419329" xlink:href="#m72b6866018" y="203.206991"/>
    </g>
   </g>
   <g id="70A">
    <g clip-path="url(#p0b864a6bfd)">
     <use style="fill:#2ca02c;stroke:#2ca02c;" x="211.357665" xlink:href="#mfe21db0123" y="189.482903"/>
    </g>
   </g>
   <g id="67A">
    <g clip-path="url(#p0b864a6bfd)">
     <use style="fill:#d62728;stroke:#d62728;" x="142.28693" xlink:href="#mb8f1336be5" y="213.243755"/>
    </g>
   </g>
   <g id="78A">
    <g clip-path="url(#p0b864a6bfd)">
     <use style="fill:#9467bd;stroke:#9467bd;" x="184.289404" xlink:href="#m0d9d42c7e1" y="199.263579"/>
    </g>
   </g>
   <g id="42A">
    <g clip-path="url(#p0b864a6bfd)">
     <use style="fill:#8c564b;stroke:#8c564b;" x="122.685776" xlink:href="#ma1dc1b3de7" y="178.820736"/>
    </g>
   </g>
   <g id="45A">
    <g clip-path="url(#p0b864a6bfd)">
     <use style="fill:#e377c2;stroke:#e377c2;" x="139.486766" xlink:href="#m362f30f516" y="286.661101"/>
    </g>
   </g>
   <g id="48A">
    <g clip-path="url(#p0b864a6bfd)">
     <use style="fill:#7f7f7f;stroke:#7f7f7f;" x="180.555851" xlink:href="#m747e32e230" y="181.756118"/>
    </g>
   </g>
   <g id="50A">
    <g clip-path="url(#p0b864a6bfd)">
     <use style="fill:#bcbd22;stroke:#bcbd22;" x="147.88726" xlink:href="#m633de5422c" y="155.880351"/>
    </g>
   </g>
   <g id="56A">
    <g clip-path="url(#p0b864a6bfd)">
     <use style="fill:#17becf;stroke:#17becf;" x="97.484292" xlink:href="#m9a14a3cf65" y="127.24187"/>
    </g>
   </g>
   <g id="37A">
    <g clip-path="url(#p0b864a6bfd)">
     <use style="fill:#1f77b4;stroke:#1f77b4;" x="242.159479" xlink:href="#m08823fccb8" y="158.079866"/>
    </g>
   </g>
   <g id="33A">
    <g clip-path="url(#p0b864a6bfd)">
     <use style="fill:#ff7f0e;stroke:#ff7f0e;" x="334.56492" xlink:href="#m72b6866018" y="224.610172"/>
    </g>
   </g>
   <g id="40A">
    <g clip-path="url(#p0b864a6bfd)">
     <use style="fill:#2ca02c;stroke:#2ca02c;" x="125.485941" xlink:href="#mfe21db0123" y="178.453813"/>
    </g>
   </g>
   <g id="53A">
    <g clip-path="url(#p0b864a6bfd)">
     <use style="fill:#d62728;stroke:#d62728;" x="171.221968" xlink:href="#mb8f1336be5" y="236.129754"/>
    </g>
   </g>
   <g id="52A">
    <g clip-path="url(#p0b864a6bfd)">
     <use style="fill:#9467bd;stroke:#9467bd;" x="156.287755" xlink:href="#m0d9d42c7e1" y="228.253394"/>
    </g>
   </g>
   <g id="31A">
    <g clip-path="url(#p0b864a6bfd)">
     <use style="fill:#8c564b;stroke:#8c564b;" x="132.019659" xlink:href="#ma1dc1b3de7" y="193.497649"/>
    </g>
   </g>
   <g id="39A">
    <g clip-path="url(#p0b864a6bfd)">
     <use style="fill:#e377c2;stroke:#e377c2;" x="125.485941" xlink:href="#m362f30f516" y="185.594695"/>
    </g>
   </g>
   <g id="43A">
    <g clip-path="url(#p0b864a6bfd)">
     <use style="fill:#7f7f7f;stroke:#7f7f7f;" x="129.219494" xlink:href="#m747e32e230" y="183.71304"/>
    </g>
   </g>
   <g id="44A">
    <g clip-path="url(#p0b864a6bfd)">
     <use style="fill:#bcbd22;stroke:#bcbd22;" x="178.689074" xlink:href="#m633de5422c" y="183.268285"/>
    </g>
   </g>
   <g id="49A">
    <g clip-path="url(#p0b864a6bfd)">
     <use style="fill:#17becf;stroke:#17becf;" x="147.88726" xlink:href="#m9a14a3cf65" y="178.820736"/>
    </g>
   </g>
   <g id="38A">
    <g clip-path="url(#p0b864a6bfd)">
     <use style="fill:#1f77b4;stroke:#1f77b4;" x="227.225266" xlink:href="#m08823fccb8" y="228.995293"/>
    </g>
   </g>
   <g id="36A">
    <g clip-path="url(#p0b864a6bfd)">
     <use style="fill:#ff7f0e;stroke:#ff7f0e;" x="137.619989" xlink:href="#m72b6866018" y="230.189931"/>
    </g>
   </g>
   <g id="30A">
    <g clip-path="url(#p0b864a6bfd)">
     <use style="fill:#2ca02c;stroke:#2ca02c;" x="132.019659" xlink:href="#mfe21db0123" y="188.605344"/>
    </g>
   </g>
   <g id="35A">
    <g clip-path="url(#p0b864a6bfd)">
     <use style="fill:#d62728;stroke:#d62728;" x="138.553377" xlink:href="#mb8f1336be5" y="178.820736"/>
    </g>
   </g>
   <g id="34A">
    <g clip-path="url(#p0b864a6bfd)">
     <use style="fill:#9467bd;stroke:#9467bd;" x="139.486766" xlink:href="#m0d9d42c7e1" y="244.923149"/>
    </g>
   </g>
   <g id="47A">
    <g clip-path="url(#p0b864a6bfd)">
     <use style="fill:#8c564b;stroke:#8c564b;" x="126.419329" xlink:href="#ma1dc1b3de7" y="70.804668"/>
    </g>
   </g>
   <g id="51A">
    <g clip-path="url(#p0b864a6bfd)">
     <use style="fill:#e377c2;stroke:#e377c2;" x="311.230213" xlink:href="#m362f30f516" y="144.338355"/>
    </g>
   </g>
   <g id="32A">
    <g clip-path="url(#p0b864a6bfd)">
     <use style="fill:#7f7f7f;stroke:#7f7f7f;" x="132.019659" xlink:href="#m747e32e230" y="204.260718"/>
    </g>
   </g>
   <g id="55A">
    <g clip-path="url(#p0b864a6bfd)">
     <use style="fill:#bcbd22;stroke:#bcbd22;" x="161.888085" xlink:href="#m633de5422c" y="183.71304"/>
    </g>
   </g>
   <g id="41A">
    <g clip-path="url(#p0b864a6bfd)">
     <use style="fill:#17becf;stroke:#17becf;" x="127.352718" xlink:href="#m9a14a3cf65" y="186.285756"/>
    </g>
   </g>
   <g id="54A">
    <g clip-path="url(#p0b864a6bfd)">
     <use style="fill:#1f77b4;stroke:#1f77b4;" x="135.753212" xlink:href="#m08823fccb8" y="234.173664"/>
    </g>
   </g>
   <g id="46A">
    <g clip-path="url(#p0b864a6bfd)">
     <use style="fill:#ff7f0e;stroke:#ff7f0e;" x="145.087095" xlink:href="#m72b6866018" y="129.861851"/>
    </g>
   </g>
   <g id="57A">
    <g clip-path="url(#p0b864a6bfd)">
     <use style="fill:#2ca02c;stroke:#2ca02c;" x="299.096165" xlink:href="#mfe21db0123" y="200.684348"/>
    </g>
   </g>
   <g id="84A">
    <g clip-path="url(#p0b864a6bfd)">
     <use style="fill:#d62728;stroke:#d62728;" x="206.690723" xlink:href="#mb8f1336be5" y="178.820736"/>
    </g>
   </g>
   <g id="144P">
    <g clip-path="url(#p0b864a6bfd)">
     <use style="fill:#9467bd;stroke:#9467bd;" x="161.888085" xlink:href="#m0d9d42c7e1" y="178.820736"/>
    </g>
   </g>
   <g id="97A">
    <g clip-path="url(#p0b864a6bfd)">
     <use style="fill:#8c564b;stroke:#8c564b;" x="387.768053" xlink:href="#ma1dc1b3de7" y="209.345326"/>
    </g>
   </g>
   <g id="144X">
    <g clip-path="url(#p0b864a6bfd)">
     <use style="fill:#e377c2;stroke:#e377c2;" x="118.018835" xlink:href="#m362f30f516" y="178.820736"/>
    </g>
   </g>
   <g id="144J">
    <g clip-path="url(#p0b864a6bfd)">
     <use style="fill:#7f7f7f;stroke:#7f7f7f;" x="189.889734" xlink:href="#m747e32e230" y="178.820736"/>
    </g>
   </g>
   <g id="94A">
    <g clip-path="url(#p0b864a6bfd)">
     <use style="fill:#bcbd22;stroke:#bcbd22;" x="254.293526" xlink:href="#m633de5422c" y="184.694719"/>
    </g>
   </g>
   <g id="144I">
    <g clip-path="url(#p0b864a6bfd)">
     <use style="fill:#17becf;stroke:#17becf;" x="179.622462" xlink:href="#m9a14a3cf65" y="172.354683"/>
    </g>
   </g>
   <g id="144D">
    <g clip-path="url(#p0b864a6bfd)">
     <use style="fill:#1f77b4;stroke:#1f77b4;" x="191.75651" xlink:href="#m08823fccb8" y="209.692863"/>
    </g>
   </g>
   <g id="144S">
    <g clip-path="url(#p0b864a6bfd)">
     <use style="fill:#ff7f0e;stroke:#ff7f0e;" x="182.422627" xlink:href="#m72b6866018" y="189.008128"/>
    </g>
   </g>
   <g id="81A">
    <g clip-path="url(#p0b864a6bfd)">
     <use style="fill:#2ca02c;stroke:#2ca02c;" x="403.635655" xlink:href="#mfe21db0123" y="215.687489"/>
    </g>
   </g>
   <g id="90A">
    <g clip-path="url(#p0b864a6bfd)">
     <use style="fill:#d62728;stroke:#d62728;" x="288.828894" xlink:href="#mb8f1336be5" y="178.820736"/>
    </g>
   </g>
   <g id="143F">
    <g clip-path="url(#p0b864a6bfd)">
     <use style="fill:#9467bd;stroke:#9467bd;" x="390.568218" xlink:href="#m0d9d42c7e1" y="198.360334"/>
    </g>
   </g>
   <g id="82A">
    <g clip-path="url(#p0b864a6bfd)">
     <use style="fill:#8c564b;stroke:#8c564b;" x="424.170197" xlink:href="#ma1dc1b3de7" y="211.749261"/>
    </g>
   </g>
   <g id="87A">
    <g clip-path="url(#p0b864a6bfd)">
     <use style="fill:#e377c2;stroke:#e377c2;" x="396.168548" xlink:href="#m362f30f516" y="185.777347"/>
    </g>
   </g>
   <g id="89A">
    <g clip-path="url(#p0b864a6bfd)">
     <use style="fill:#7f7f7f;stroke:#7f7f7f;" x="354.166075" xlink:href="#m747e32e230" y="45.680622"/>
    </g>
   </g>
   <g id="144R">
    <g clip-path="url(#p0b864a6bfd)">
     <use style="fill:#bcbd22;stroke:#bcbd22;" x="161.888085" xlink:href="#m633de5422c" y="178.820736"/>
    </g>
   </g>
   <g id="144T">
    <g clip-path="url(#p0b864a6bfd)">
     <use style="fill:#17becf;stroke:#17becf;" x="118.018835" xlink:href="#m9a14a3cf65" y="178.820736"/>
    </g>
   </g>
   <g id="95A">
    <g clip-path="url(#p0b864a6bfd)">
     <use style="fill:#1f77b4;stroke:#1f77b4;" x="362.566569" xlink:href="#m08823fccb8" y="168.586455"/>
    </g>
   </g>
   <g id="96A">
    <g clip-path="url(#p0b864a6bfd)">
     <use style="fill:#ff7f0e;stroke:#ff7f0e;" x="294.429223" xlink:href="#m72b6866018" y="178.820736"/>
    </g>
   </g>
   <g id="144B">
    <g clip-path="url(#p0b864a6bfd)">
     <use style="fill:#2ca02c;stroke:#2ca02c;" x="224.425101" xlink:href="#mfe21db0123" y="177.377105"/>
    </g>
   </g>
   <g id="86A">
    <g clip-path="url(#p0b864a6bfd)">
     <use style="fill:#d62728;stroke:#d62728;" x="387.768053" xlink:href="#mb8f1336be5" y="139.423525"/>
    </g>
   </g>
   <g id="90C">
    <g clip-path="url(#p0b864a6bfd)">
     <use style="fill:#9467bd;stroke:#9467bd;" x="250.559973" xlink:href="#m0d9d42c7e1" y="178.820736"/>
    </g>
   </g>
   <g id="143A">
    <g clip-path="url(#p0b864a6bfd)">
     <use style="fill:#8c564b;stroke:#8c564b;" x="390.568218" xlink:href="#ma1dc1b3de7" y="196.04159"/>
    </g>
   </g>
   <g id="85A">
    <g clip-path="url(#p0b864a6bfd)">
     <use style="fill:#e377c2;stroke:#e377c2;" x="370.967064" xlink:href="#m362f30f516" y="135.464749"/>
    </g>
   </g>
   <g id="90B">
    <g clip-path="url(#p0b864a6bfd)">
     <use style="fill:#7f7f7f;stroke:#7f7f7f;" x="104.01801" xlink:href="#m747e32e230" y="178.820736"/>
    </g>
   </g>
   <g id="144Q">
    <g clip-path="url(#p0b864a6bfd)">
     <use style="fill:#bcbd22;stroke:#bcbd22;" x="161.888085" xlink:href="#m633de5422c" y="178.820736"/>
    </g>
   </g>
   <g id="91A">
    <g clip-path="url(#p0b864a6bfd)">
     <use style="fill:#17becf;stroke:#17becf;" x="225.358489" xlink:href="#m9a14a3cf65" y="67.876087"/>
    </g>
   </g>
   <g id="143E">
    <g clip-path="url(#p0b864a6bfd)">
     <use style="fill:#1f77b4;stroke:#1f77b4;" x="390.568218" xlink:href="#m08823fccb8" y="194.009152"/>
    </g>
   </g>
   <g id="143G">
    <g clip-path="url(#p0b864a6bfd)">
     <use style="fill:#ff7f0e;stroke:#ff7f0e;" x="390.568218" xlink:href="#m72b6866018" y="178.820736"/>
    </g>
   </g>
   <g id="143B">
    <g clip-path="url(#p0b864a6bfd)">
     <use style="fill:#2ca02c;stroke:#2ca02c;" x="76.016361" xlink:href="#mfe21db0123" y="178.820736"/>
    </g>
   </g>
   <g id="92A">
    <g clip-path="url(#p0b864a6bfd)">
     <use style="fill:#d62728;stroke:#d62728;" x="300.962942" xlink:href="#mb8f1336be5" y="186.392159"/>
    </g>
   </g>
   <g id="83A">
    <g clip-path="url(#p0b864a6bfd)">
     <use style="fill:#9467bd;stroke:#9467bd;" x="426.036974" xlink:href="#m0d9d42c7e1" y="153.789496"/>
    </g>
   </g>
   <g id="144K">
    <g clip-path="url(#p0b864a6bfd)">
     <use style="fill:#8c564b;stroke:#8c564b;" x="189.889734" xlink:href="#ma1dc1b3de7" y="178.820736"/>
    </g>
   </g>
   <g id="144A">
    <g clip-path="url(#p0b864a6bfd)">
     <use style="fill:#e377c2;stroke:#e377c2;" x="362.566569" xlink:href="#m362f30f516" y="213.473159"/>
    </g>
   </g>
   <g id="88A">
    <g clip-path="url(#p0b864a6bfd)">
     <use style="fill:#7f7f7f;stroke:#7f7f7f;" x="368.166899" xlink:href="#m747e32e230" y="97.433049"/>
    </g>
   </g>
   <g id="93A">
    <g clip-path="url(#p0b864a6bfd)">
     <use style="fill:#bcbd22;stroke:#bcbd22;" x="312.163601" xlink:href="#m633de5422c" y="199.081337"/>
    </g>
   </g>
   <g id="144V">
    <g clip-path="url(#p0b864a6bfd)">
     <use style="fill:#17becf;stroke:#17becf;" x="118.018835" xlink:href="#m9a14a3cf65" y="178.820736"/>
    </g>
   </g>
   <g id="144W">
    <g clip-path="url(#p0b864a6bfd)">
     <use style="fill:#1f77b4;stroke:#1f77b4;" x="118.018835" xlink:href="#m08823fccb8" y="178.820736"/>
    </g>
   </g>
   <g id="144H">
    <g clip-path="url(#p0b864a6bfd)">
     <use style="fill:#ff7f0e;stroke:#ff7f0e;" x="179.622462" xlink:href="#m72b6866018" y="178.820736"/>
    </g>
   </g>
   <g id="144L">
    <g clip-path="url(#p0b864a6bfd)">
     <use style="fill:#2ca02c;stroke:#2ca02c;" x="191.75651" xlink:href="#mfe21db0123" y="241.849968"/>
    </g>
   </g>
   <g id="64A">
    <g clip-path="url(#p0b864a6bfd)">
     <use style="fill:#d62728;stroke:#d62728;" x="148.820649" xlink:href="#mb8f1336be5" y="178.820736"/>
    </g>
   </g>
   <g id="63A">
    <g clip-path="url(#p0b864a6bfd)">
     <use style="fill:#9467bd;stroke:#9467bd;" x="144.153707" xlink:href="#m0d9d42c7e1" y="183.210672"/>
    </g>
   </g>
   <g id="61A">
    <g clip-path="url(#p0b864a6bfd)">
     <use style="fill:#8c564b;stroke:#8c564b;" x="106.818175" xlink:href="#ma1dc1b3de7" y="178.820736"/>
    </g>
   </g>
   <g id="59A">
    <g clip-path="url(#p0b864a6bfd)">
     <use style="fill:#e377c2;stroke:#e377c2;" x="126.419329" xlink:href="#m362f30f516" y="178.820736"/>
    </g>
   </g>
   <g id="60A">
    <g clip-path="url(#p0b864a6bfd)">
     <use style="fill:#7f7f7f;stroke:#7f7f7f;" x="104.951398" xlink:href="#m747e32e230" y="200.836105"/>
    </g>
   </g>
   <g id="62A">
    <g clip-path="url(#p0b864a6bfd)">
     <use style="fill:#bcbd22;stroke:#bcbd22;" x="119.885611" xlink:href="#m633de5422c" y="173.175769"/>
    </g>
   </g>
   <g id="58A">
    <g clip-path="url(#p0b864a6bfd)">
     <use style="fill:#17becf;stroke:#17becf;" x="126.419329" xlink:href="#m9a14a3cf65" y="178.820736"/>
    </g>
   </g>
   <g id="58B">
    <g clip-path="url(#p0b864a6bfd)">
     <use style="fill:#1f77b4;stroke:#1f77b4;" x="125.485941" xlink:href="#m08823fccb8" y="178.820736"/>
    </g>
   </g>
   <g id="129A">
    <g clip-path="url(#p0b864a6bfd)">
     <use style="fill:#ff7f0e;stroke:#ff7f0e;" x="261.760633" xlink:href="#m72b6866018" y="181.452634"/>
    </g>
   </g>
   <g id="135A">
    <g clip-path="url(#p0b864a6bfd)">
     <use style="fill:#2ca02c;stroke:#2ca02c;" x="135.753212" xlink:href="#mfe21db0123" y="178.820736"/>
    </g>
   </g>
   <g id="136B">
    <g clip-path="url(#p0b864a6bfd)">
     <use style="fill:#d62728;stroke:#d62728;" x="126.419329" xlink:href="#mb8f1336be5" y="184.691501"/>
    </g>
   </g>
   <g id="134A">
    <g clip-path="url(#p0b864a6bfd)">
     <use style="fill:#9467bd;stroke:#9467bd;" x="135.753212" xlink:href="#m0d9d42c7e1" y="218.910451"/>
    </g>
   </g>
   <g id="138A">
    <g clip-path="url(#p0b864a6bfd)">
     <use style="fill:#8c564b;stroke:#8c564b;" x="144.153707" xlink:href="#ma1dc1b3de7" y="187.124778"/>
    </g>
   </g>
   <g id="136A">
    <g clip-path="url(#p0b864a6bfd)">
     <use style="fill:#e377c2;stroke:#e377c2;" x="126.419329" xlink:href="#m362f30f516" y="178.820736"/>
    </g>
   </g>
   <g id="131A">
    <g clip-path="url(#p0b864a6bfd)">
     <use style="fill:#7f7f7f;stroke:#7f7f7f;" x="124.552553" xlink:href="#m747e32e230" y="178.820736"/>
    </g>
   </g>
   <g id="137A">
    <g clip-path="url(#p0b864a6bfd)">
     <use style="fill:#bcbd22;stroke:#bcbd22;" x="126.419329" xlink:href="#m633de5422c" y="178.820736"/>
    </g>
   </g>
   <g id="130A">
    <g clip-path="url(#p0b864a6bfd)">
     <use style="fill:#17becf;stroke:#17becf;" x="258.02708" xlink:href="#m9a14a3cf65" y="178.820736"/>
    </g>
   </g>
   <g id="132A">
    <g clip-path="url(#p0b864a6bfd)">
     <use style="fill:#1f77b4;stroke:#1f77b4;" x="135.753212" xlink:href="#m08823fccb8" y="197.114609"/>
    </g>
   </g>
   <g id="137B">
    <g clip-path="url(#p0b864a6bfd)">
     <use style="fill:#ff7f0e;stroke:#ff7f0e;" x="126.419329" xlink:href="#m72b6866018" y="208.174561"/>
    </g>
   </g>
   <g id="133A">
    <g clip-path="url(#p0b864a6bfd)">
     <use style="fill:#2ca02c;stroke:#2ca02c;" x="135.753212" xlink:href="#mfe21db0123" y="288.103106"/>
    </g>
   </g>
   <g id="125A">
    <g clip-path="url(#p0b864a6bfd)">
     <use style="fill:#d62728;stroke:#d62728;" x="121.752388" xlink:href="#mb8f1336be5" y="171.482279"/>
    </g>
   </g>
   <g id="123A">
    <g clip-path="url(#p0b864a6bfd)">
     <use style="fill:#9467bd;stroke:#9467bd;" x="106.818175" xlink:href="#m0d9d42c7e1" y="202.837502"/>
    </g>
   </g>
   <g id="126A">
    <g clip-path="url(#p0b864a6bfd)">
     <use style="fill:#8c564b;stroke:#8c564b;" x="123.619164" xlink:href="#ma1dc1b3de7" y="185.110841"/>
    </g>
   </g>
   <g id="127A">
    <g clip-path="url(#p0b864a6bfd)">
     <use style="fill:#e377c2;stroke:#e377c2;" x="122.685776" xlink:href="#m362f30f516" y="178.820736"/>
    </g>
   </g>
   <g id="128A">
    <g clip-path="url(#p0b864a6bfd)">
     <use style="fill:#7f7f7f;stroke:#7f7f7f;" x="108.684952" xlink:href="#m747e32e230" y="178.820736"/>
    </g>
   </g>
   <g id="124A">
    <g clip-path="url(#p0b864a6bfd)">
     <use style="fill:#bcbd22;stroke:#bcbd22;" x="147.88726" xlink:href="#m633de5422c" y="182.315239"/>
    </g>
   </g>
   <g id="122A">
    <g clip-path="url(#p0b864a6bfd)">
     <use style="fill:#17becf;stroke:#17becf;" x="118.952223" xlink:href="#m9a14a3cf65" y="178.820736"/>
    </g>
   </g>
   <g id="matplotlib.axis_1">
    <g id="xtick_1">
     <g id="line2d_1">
      <defs>
       <path d="M 0 0 
L 0 3.5 
" id="m74712245eb" style="stroke:#000000;stroke-width:0.8;"/>
      </defs>
      <g>
       <use style="stroke:#000000;stroke-width:0.8;" x="66.682478" xlink:href="#m74712245eb" y="303.64"/>
      </g>
     </g>
     <g id="text_1">
      <text style="font-family:DejaVu Sans;font-size:10px;font-style:normal;font-weight:normal;text-anchor:middle;" transform="rotate(-0, 66.682478, 318.238437)" x="66.682478" y="318.238437">0</text>
     </g>
    </g>
    <g id="xtick_2">
     <g id="line2d_2">
      <g>
       <use style="stroke:#000000;stroke-width:0.8;" x="113.351893" xlink:href="#m74712245eb" y="303.64"/>
      </g>
     </g>
     <g id="text_2">
      <text style="font-family:DejaVu Sans;font-size:10px;font-style:normal;font-weight:normal;text-anchor:middle;" transform="rotate(-0, 113.351893, 318.238437)" x="113.351893" y="318.238437">50</text>
     </g>
    </g>
    <g id="xtick_3">
     <g id="line2d_3">
      <g>
       <use style="stroke:#000000;stroke-width:0.8;" x="160.021308" xlink:href="#m74712245eb" y="303.64"/>
      </g>
     </g>
     <g id="text_3">
      <text style="font-family:DejaVu Sans;font-size:10px;font-style:normal;font-weight:normal;text-anchor:middle;" transform="rotate(-0, 160.021308, 318.238437)" x="160.021308" y="318.238437">100</text>
     </g>
    </g>
    <g id="xtick_4">
     <g id="line2d_4">
      <g>
       <use style="stroke:#000000;stroke-width:0.8;" x="206.690723" xlink:href="#m74712245eb" y="303.64"/>
      </g>
     </g>
     <g id="text_4">
      <text style="font-family:DejaVu Sans;font-size:10px;font-style:normal;font-weight:normal;text-anchor:middle;" transform="rotate(-0, 206.690723, 318.238437)" x="206.690723" y="318.238437">150</text>
     </g>
    </g>
    <g id="xtick_5">
     <g id="line2d_5">
      <g>
       <use style="stroke:#000000;stroke-width:0.8;" x="253.360138" xlink:href="#m74712245eb" y="303.64"/>
      </g>
     </g>
     <g id="text_5">
      <text style="font-family:DejaVu Sans;font-size:10px;font-style:normal;font-weight:normal;text-anchor:middle;" transform="rotate(-0, 253.360138, 318.238437)" x="253.360138" y="318.238437">200</text>
     </g>
    </g>
    <g id="xtick_6">
     <g id="line2d_6">
      <g>
       <use style="stroke:#000000;stroke-width:0.8;" x="300.029553" xlink:href="#m74712245eb" y="303.64"/>
      </g>
     </g>
     <g id="text_6">
      <text style="font-family:DejaVu Sans;font-size:10px;font-style:normal;font-weight:normal;text-anchor:middle;" transform="rotate(-0, 300.029553, 318.238437)" x="300.029553" y="318.238437">250</text>
     </g>
    </g>
    <g id="xtick_7">
     <g id="line2d_7">
      <g>
       <use style="stroke:#000000;stroke-width:0.8;" x="346.698968" xlink:href="#m74712245eb" y="303.64"/>
      </g>
     </g>
     <g id="text_7">
      <text style="font-family:DejaVu Sans;font-size:10px;font-style:normal;font-weight:normal;text-anchor:middle;" transform="rotate(-0, 346.698968, 318.238437)" x="346.698968" y="318.238437">300</text>
     </g>
    </g>
    <g id="xtick_8">
     <g id="line2d_8">
      <g>
       <use style="stroke:#000000;stroke-width:0.8;" x="393.368383" xlink:href="#m74712245eb" y="303.64"/>
      </g>
     </g>
     <g id="text_8">
      <text style="font-family:DejaVu Sans;font-size:10px;font-style:normal;font-weight:normal;text-anchor:middle;" transform="rotate(-0, 393.368383, 318.238437)" x="393.368383" y="318.238437">350</text>
     </g>
    </g>
    <g id="xtick_9">
     <g id="line2d_9">
      <g>
       <use style="stroke:#000000;stroke-width:0.8;" x="440.037798" xlink:href="#m74712245eb" y="303.64"/>
      </g>
     </g>
     <g id="text_9">
      <text style="font-family:DejaVu Sans;font-size:10px;font-style:normal;font-weight:normal;text-anchor:middle;" transform="rotate(-0, 440.037798, 318.238437)" x="440.037798" y="318.238437">400</text>
     </g>
    </g>
    <g id="text_10">
     <text style="font-family:DejaVu Sans;font-size:10px;font-style:normal;font-weight:normal;text-anchor:middle;" transform="rotate(-0, 251.099915, 331.916562)" x="251.099915" y="331.916562">Amount of languages tested</text>
    </g>
   </g>
   <g id="matplotlib.axis_2">
    <g id="ytick_1">
     <g id="line2d_10">
      <defs>
       <path d="M 0 0 
L -3.5 0 
" id="m9b9ba3cb72" style="stroke:#000000;stroke-width:0.8;"/>
      </defs>
      <g>
       <use style="stroke:#000000;stroke-width:0.8;" x="56.09" xlink:href="#m9b9ba3cb72" y="266.882213"/>
      </g>
     </g>
     <g id="text_11">
      <text style="font-family:DejaVu Sans;font-size:10px;font-style:normal;font-weight:normal;text-anchor:end;" transform="rotate(-0, 49.09, 270.681432)" x="49.09" y="270.681432">−0.2</text>
     </g>
    </g>
    <g id="ytick_2">
     <g id="line2d_11">
      <g>
       <use style="stroke:#000000;stroke-width:0.8;" x="56.09" xlink:href="#m9b9ba3cb72" y="222.851474"/>
      </g>
     </g>
     <g id="text_12">
      <text style="font-family:DejaVu Sans;font-size:10px;font-style:normal;font-weight:normal;text-anchor:end;" transform="rotate(-0, 49.09, 226.650693)" x="49.09" y="226.650693">−0.1</text>
     </g>
    </g>
    <g id="ytick_3">
     <g id="line2d_12">
      <g>
       <use style="stroke:#000000;stroke-width:0.8;" x="56.09" xlink:href="#m9b9ba3cb72" y="178.820736"/>
      </g>
     </g>
     <g id="text_13">
      <text style="font-family:DejaVu Sans;font-size:10px;font-style:normal;font-weight:normal;text-anchor:end;" transform="rotate(-0, 49.09, 182.619954)" x="49.09" y="182.619954">0.0</text>
     </g>
    </g>
    <g id="ytick_4">
     <g id="line2d_13">
      <g>
       <use style="stroke:#000000;stroke-width:0.8;" x="56.09" xlink:href="#m9b9ba3cb72" y="134.789997"/>
      </g>
     </g>
     <g id="text_14">
      <text style="font-family:DejaVu Sans;font-size:10px;font-style:normal;font-weight:normal;text-anchor:end;" transform="rotate(-0, 49.09, 138.589216)" x="49.09" y="138.589216">0.1</text>
     </g>
    </g>
    <g id="ytick_5">
     <g id="line2d_14">
      <g>
       <use style="stroke:#000000;stroke-width:0.8;" x="56.09" xlink:href="#m9b9ba3cb72" y="90.759258"/>
      </g>
     </g>
     <g id="text_15">
      <text style="font-family:DejaVu Sans;font-size:10px;font-style:normal;font-weight:normal;text-anchor:end;" transform="rotate(-0, 49.09, 94.558477)" x="49.09" y="94.558477">0.2</text>
     </g>
    </g>
    <g id="ytick_6">
     <g id="line2d_15">
      <g>
       <use style="stroke:#000000;stroke-width:0.8;" x="56.09" xlink:href="#m9b9ba3cb72" y="46.728519"/>
      </g>
     </g>
     <g id="text_16">
      <text style="font-family:DejaVu Sans;font-size:10px;font-style:normal;font-weight:normal;text-anchor:end;" transform="rotate(-0, 49.09, 50.527738)" x="49.09" y="50.527738">0.3</text>
     </g>
    </g>
    <g id="text_17">
     <text style="font-family:DejaVu Sans;font-size:10px;font-style:normal;font-weight:normal;text-anchor:middle;" transform="rotate(-90, 18.7275, 158.48)" x="18.7275" y="158.48">Score - base</text>
    </g>
   </g>
   <g id="line2d_16">
    <path clip-path="url(#p0b864a6bfd)" d="M 76.016361 185.787068 
L 97.484292 185.188292 
L 104.01801 185.006057 
L 104.951398 184.980023 
L 106.818175 184.927955 
L 107.751563 184.901922 
L 108.684952 184.875888 
L 110.551728 184.823821 
L 111.485116 184.797787 
L 118.018835 184.615551 
L 118.952223 184.589517 
L 119.885611 184.563484 
L 121.752388 184.511416 
L 122.685776 184.485382 
L 123.619164 184.459349 
L 124.552553 184.433315 
L 125.485941 184.407281 
L 126.419329 184.381248 
L 127.352718 184.355214 
L 128.286106 184.32918 
L 129.219494 184.303146 
L 132.019659 184.225045 
L 135.753212 184.12091 
L 136.686601 184.094877 
L 137.619989 184.068843 
L 138.553377 184.042809 
L 139.486766 184.016776 
L 142.28693 183.938675 
L 143.220319 183.912641 
L 144.153707 183.886607 
L 145.087095 183.860573 
L 147.88726 183.782472 
L 148.820649 183.756439 
L 154.420978 183.600236 
L 156.287755 183.548169 
L 161.888085 183.391967 
L 164.68825 183.313866 
L 170.288579 183.157663 
L 171.221968 183.13163 
L 174.955521 183.027495 
L 176.822298 182.975427 
L 178.689074 182.92336 
L 179.622462 182.897326 
L 180.555851 182.871293 
L 182.422627 182.819225 
L 184.289404 182.767158 
L 185.222792 182.741124 
L 188.956345 182.636989 
L 189.889734 182.610956 
L 191.75651 182.558888 
L 192.689899 182.532854 
L 195.490064 182.454753 
L 201.090393 182.298551 
L 206.690723 182.142349 
L 211.357665 182.01218 
L 217.891383 181.829944 
L 218.824771 181.803911 
L 220.691548 181.751843 
L 224.425101 181.647708 
L 225.358489 181.621675 
L 227.225266 181.569607 
L 242.159479 181.153068 
L 250.559973 180.918765 
L 254.293526 180.81463 
L 258.02708 180.710495 
L 261.760633 180.60636 
L 288.828894 179.851383 
L 294.429223 179.69518 
L 299.096165 179.565012 
L 300.962942 179.512944 
L 311.230213 179.226574 
L 312.163601 179.20054 
L 317.763931 179.044338 
L 319.630708 178.99227 
L 334.56492 178.575731 
L 350.432521 178.133158 
L 351.36591 178.107124 
L 354.166075 178.029023 
L 362.566569 177.79472 
L 368.166899 177.638518 
L 370.967064 177.560416 
L 387.768053 177.09181 
L 390.568218 177.013709 
L 396.168548 176.857506 
L 403.635655 176.649237 
L 424.170197 176.076495 
L 426.036974 176.024428 
" style="fill:none;stroke:#1f77b4;stroke-linecap:square;stroke-width:1.5;"/>
   </g>
   <g id="patch_3">
    <path d="M 56.09 303.64 
L 56.09 13.32 
" style="fill:none;stroke:#000000;stroke-linecap:square;stroke-linejoin:miter;stroke-width:0.8;"/>
   </g>
   <g id="patch_4">
    <path d="M 446.10983 303.64 
L 446.10983 13.32 
" style="fill:none;stroke:#000000;stroke-linecap:square;stroke-linejoin:miter;stroke-width:0.8;"/>
   </g>
   <g id="patch_5">
    <path d="M 56.09 303.64 
L 446.10983 303.64 
" style="fill:none;stroke:#000000;stroke-linecap:square;stroke-linejoin:miter;stroke-width:0.8;"/>
   </g>
   <g id="patch_6">
    <path d="M 56.09 13.32 
L 446.10983 13.32 
" style="fill:none;stroke:#000000;stroke-linecap:square;stroke-linejoin:miter;stroke-width:0.8;"/>
   </g>
  </g>
 </g>
 <defs>
  <clipPath id="p0b864a6bfd">
   <rect height="290.32" width="390.01983" x="56.09" y="13.32"/>
  </clipPath>
 </defs>
</svg>
