<?xml version="1.0" encoding="utf-8" standalone="no"?>
<!DOCTYPE svg PUBLIC "-//W3C//DTD SVG 1.1//EN"
  "http://www.w3.org/Graphics/SVG/1.1/DTD/svg11.dtd">
<!-- Created with matplotlib (http://matplotlib.org/) -->
<svg height="345.6pt" version="1.1" viewBox="0 0 460.8 345.6" width="460.8pt" xmlns="http://www.w3.org/2000/svg" xmlns:xlink="http://www.w3.org/1999/xlink">
 <defs>
  <style type="text/css">
*{stroke-linecap:butt;stroke-linejoin:round;}
  </style>
 </defs>
 <g id="figure_1">
  <g id="patch_1">
   <path d="M 0 345.6 
L 460.8 345.6 
L 460.8 0 
L 0 0 
z
" style="fill:#ffffff;"/>
  </g>
  <g id="axes_1">
   <g id="patch_2">
    <path d="M 57.6 307.584 
L 414.72 307.584 
L 414.72 41.472 
L 57.6 41.472 
z
" style="fill:#ffffff;"/>
   </g>
   <g id="63A">
    <defs>
     <path d="M 0 3 
C 0.795609 3 1.55874 2.683901 2.12132 2.12132 
C 2.683901 1.55874 3 0.795609 3 0 
C 3 -0.795609 2.683901 -1.55874 2.12132 -2.12132 
C 1.55874 -2.683901 0.795609 -3 0 -3 
C -0.795609 -3 -1.55874 -2.683901 -2.12132 -2.12132 
C -2.683901 -1.55874 -3 -0.795609 -3 0 
C -3 0.795609 -2.683901 1.55874 -2.12132 2.12132 
C -1.55874 2.683901 -0.795609 3 0 3 
z
" id="m4819f75b6d" style="stroke:#1f77b4;"/>
    </defs>
    <g clip-path="url(#p8c944ce630)">
     <use style="fill:#1f77b4;stroke:#1f77b4;" x="138.072966" xlink:href="#m4819f75b6d" y="198.327673"/>
    </g>
   </g>
   <g id="58A">
    <defs>
     <path d="M 0 3 
C 0.795609 3 1.55874 2.683901 2.12132 2.12132 
C 2.683901 1.55874 3 0.795609 3 0 
C 3 -0.795609 2.683901 -1.55874 2.12132 -2.12132 
C 1.55874 -2.683901 0.795609 -3 0 -3 
C -0.795609 -3 -1.55874 -2.683901 -2.12132 -2.12132 
C -2.683901 -1.55874 -3 -0.795609 -3 0 
C -3 0.795609 -2.683901 1.55874 -2.12132 2.12132 
C -1.55874 2.683901 -0.795609 3 0 3 
z
" id="m8ba9b2c929" style="stroke:#ff7f0e;"/>
    </defs>
    <g clip-path="url(#p8c944ce630)">
     <use style="fill:#ff7f0e;stroke:#ff7f0e;" x="121.813701" xlink:href="#m8ba9b2c929" y="194.296147"/>
    </g>
   </g>
   <g id="64A">
    <defs>
     <path d="M 0 3 
C 0.795609 3 1.55874 2.683901 2.12132 2.12132 
C 2.683901 1.55874 3 0.795609 3 0 
C 3 -0.795609 2.683901 -1.55874 2.12132 -2.12132 
C 1.55874 -2.683901 0.795609 -3 0 -3 
C -0.795609 -3 -1.55874 -2.683901 -2.12132 -2.12132 
C -2.683901 -1.55874 -3 -0.795609 -3 0 
C -3 0.795609 -2.683901 1.55874 -2.12132 2.12132 
C -1.55874 2.683901 -0.795609 3 0 3 
z
" id="mdf68085482" style="stroke:#2ca02c;"/>
    </defs>
    <g clip-path="url(#p8c944ce630)">
     <use style="fill:#2ca02c;stroke:#2ca02c;" x="142.35172" xlink:href="#mdf68085482" y="194.296147"/>
    </g>
   </g>
   <g id="61A">
    <defs>
     <path d="M 0 3 
C 0.795609 3 1.55874 2.683901 2.12132 2.12132 
C 2.683901 1.55874 3 0.795609 3 0 
C 3 -0.795609 2.683901 -1.55874 2.12132 -2.12132 
C 1.55874 -2.683901 0.795609 -3 0 -3 
C -0.795609 -3 -1.55874 -2.683901 -2.12132 -2.12132 
C -2.683901 -1.55874 -3 -0.795609 -3 0 
C -3 0.795609 -2.683901 1.55874 -2.12132 2.12132 
C -1.55874 2.683901 -0.795609 3 0 3 
z
" id="m65ac223afa" style="stroke:#d62728;"/>
    </defs>
    <g clip-path="url(#p8c944ce630)">
     <use style="fill:#d62728;stroke:#d62728;" x="103.842934" xlink:href="#m65ac223afa" y="194.296147"/>
    </g>
   </g>
   <g id="59A">
    <defs>
     <path d="M 0 3 
C 0.795609 3 1.55874 2.683901 2.12132 2.12132 
C 2.683901 1.55874 3 0.795609 3 0 
C 3 -0.795609 2.683901 -1.55874 2.12132 -2.12132 
C 1.55874 -2.683901 0.795609 -3 0 -3 
C -0.795609 -3 -1.55874 -2.683901 -2.12132 -2.12132 
C -2.683901 -1.55874 -3 -0.795609 -3 0 
C -3 0.795609 -2.683901 1.55874 -2.12132 2.12132 
C -1.55874 2.683901 -0.795609 3 0 3 
z
" id="m807e99d82d" style="stroke:#9467bd;"/>
    </defs>
    <g clip-path="url(#p8c944ce630)">
     <use style="fill:#9467bd;stroke:#9467bd;" x="121.813701" xlink:href="#m807e99d82d" y="194.296147"/>
    </g>
   </g>
   <g id="62A">
    <defs>
     <path d="M 0 3 
C 0.795609 3 1.55874 2.683901 2.12132 2.12132 
C 2.683901 1.55874 3 0.795609 3 0 
C 3 -0.795609 2.683901 -1.55874 2.12132 -2.12132 
C 1.55874 -2.683901 0.795609 -3 0 -3 
C -0.795609 -3 -1.55874 -2.683901 -2.12132 -2.12132 
C -2.683901 -1.55874 -3 -0.795609 -3 0 
C -3 0.795609 -2.683901 1.55874 -2.12132 2.12132 
C -1.55874 2.683901 -0.795609 3 0 3 
z
" id="m61c7014ce5" style="stroke:#8c564b;"/>
    </defs>
    <g clip-path="url(#p8c944ce630)">
     <use style="fill:#8c564b;stroke:#8c564b;" x="115.823445" xlink:href="#m61c7014ce5" y="189.112055"/>
    </g>
   </g>
   <g id="58B">
    <defs>
     <path d="M 0 3 
C 0.795609 3 1.55874 2.683901 2.12132 2.12132 
C 2.683901 1.55874 3 0.795609 3 0 
C 3 -0.795609 2.683901 -1.55874 2.12132 -2.12132 
C 1.55874 -2.683901 0.795609 -3 0 -3 
C -0.795609 -3 -1.55874 -2.683901 -2.12132 -2.12132 
C -2.683901 -1.55874 -3 -0.795609 -3 0 
C -3 0.795609 -2.683901 1.55874 -2.12132 2.12132 
C -1.55874 2.683901 -0.795609 3 0 3 
z
" id="mff355249d9" style="stroke:#e377c2;"/>
    </defs>
    <g clip-path="url(#p8c944ce630)">
     <use style="fill:#e377c2;stroke:#e377c2;" x="120.95795" xlink:href="#mff355249d9" y="194.296147"/>
    </g>
   </g>
   <g id="60A">
    <defs>
     <path d="M 0 3 
C 0.795609 3 1.55874 2.683901 2.12132 2.12132 
C 2.683901 1.55874 3 0.795609 3 0 
C 3 -0.795609 2.683901 -1.55874 2.12132 -2.12132 
C 1.55874 -2.683901 0.795609 -3 0 -3 
C -0.795609 -3 -1.55874 -2.683901 -2.12132 -2.12132 
C -2.683901 -1.55874 -3 -0.795609 -3 0 
C -3 0.795609 -2.683901 1.55874 -2.12132 2.12132 
C -1.55874 2.683901 -0.795609 3 0 3 
z
" id="m80f4ef7a62" style="stroke:#7f7f7f;"/>
    </defs>
    <g clip-path="url(#p8c944ce630)">
     <use style="fill:#7f7f7f;stroke:#7f7f7f;" x="102.131432" xlink:href="#m80f4ef7a62" y="214.514106"/>
    </g>
   </g>
   <g id="137A">
    <defs>
     <path d="M 0 3 
C 0.795609 3 1.55874 2.683901 2.12132 2.12132 
C 2.683901 1.55874 3 0.795609 3 0 
C 3 -0.795609 2.683901 -1.55874 2.12132 -2.12132 
C 1.55874 -2.683901 0.795609 -3 0 -3 
C -0.795609 -3 -1.55874 -2.683901 -2.12132 -2.12132 
C -2.683901 -1.55874 -3 -0.795609 -3 0 
C -3 0.795609 -2.683901 1.55874 -2.12132 2.12132 
C -1.55874 2.683901 -0.795609 3 0 3 
z
" id="mc4c995aefb" style="stroke:#bcbd22;"/>
    </defs>
    <g clip-path="url(#p8c944ce630)">
     <use style="fill:#bcbd22;stroke:#bcbd22;" x="121.813701" xlink:href="#mc4c995aefb" y="194.296147"/>
    </g>
   </g>
   <g id="134A">
    <defs>
     <path d="M 0 3 
C 0.795609 3 1.55874 2.683901 2.12132 2.12132 
C 2.683901 1.55874 3 0.795609 3 0 
C 3 -0.795609 2.683901 -1.55874 2.12132 -2.12132 
C 1.55874 -2.683901 0.795609 -3 0 -3 
C -0.795609 -3 -1.55874 -2.683901 -2.12132 -2.12132 
C -2.683901 -1.55874 -3 -0.795609 -3 0 
C -3 0.795609 -2.683901 1.55874 -2.12132 2.12132 
C -1.55874 2.683901 -0.795609 3 0 3 
z
" id="ma9bd9733f2" style="stroke:#17becf;"/>
    </defs>
    <g clip-path="url(#p8c944ce630)">
     <use style="fill:#17becf;stroke:#17becf;" x="130.371209" xlink:href="#ma9bd9733f2" y="231.112801"/>
    </g>
   </g>
   <g id="130A">
    <g clip-path="url(#p8c944ce630)">
     <use style="fill:#1f77b4;stroke:#1f77b4;" x="242.474563" xlink:href="#m4819f75b6d" y="194.296147"/>
    </g>
   </g>
   <g id="136B">
    <g clip-path="url(#p8c944ce630)">
     <use style="fill:#ff7f0e;stroke:#ff7f0e;" x="121.813701" xlink:href="#m8ba9b2c929" y="199.687603"/>
    </g>
   </g>
   <g id="132A">
    <g clip-path="url(#p8c944ce630)">
     <use style="fill:#2ca02c;stroke:#2ca02c;" x="130.371209" xlink:href="#mdf68085482" y="211.096445"/>
    </g>
   </g>
   <g id="137B">
    <g clip-path="url(#p8c944ce630)">
     <use style="fill:#d62728;stroke:#d62728;" x="121.813701" xlink:href="#m65ac223afa" y="221.253426"/>
    </g>
   </g>
   <g id="131A">
    <g clip-path="url(#p8c944ce630)">
     <use style="fill:#9467bd;stroke:#9467bd;" x="120.102199" xlink:href="#m807e99d82d" y="194.296147"/>
    </g>
   </g>
   <g id="138A">
    <g clip-path="url(#p8c944ce630)">
     <use style="fill:#8c564b;stroke:#8c564b;" x="138.072966" xlink:href="#m61c7014ce5" y="201.922219"/>
    </g>
   </g>
   <g id="133A">
    <g clip-path="url(#p8c944ce630)">
     <use style="fill:#e377c2;stroke:#e377c2;" x="130.371209" xlink:href="#mff355249d9" y="294.656329"/>
    </g>
   </g>
   <g id="129A">
    <g clip-path="url(#p8c944ce630)">
     <use style="fill:#7f7f7f;stroke:#7f7f7f;" x="245.897566" xlink:href="#m80f4ef7a62" y="196.713168"/>
    </g>
   </g>
   <g id="135A">
    <g clip-path="url(#p8c944ce630)">
     <use style="fill:#bcbd22;stroke:#bcbd22;" x="130.371209" xlink:href="#mc4c995aefb" y="194.296147"/>
    </g>
   </g>
   <g id="136A">
    <g clip-path="url(#p8c944ce630)">
     <use style="fill:#17becf;stroke:#17becf;" x="121.813701" xlink:href="#ma9bd9733f2" y="194.296147"/>
    </g>
   </g>
   <g id="85A">
    <g clip-path="url(#p8c944ce630)">
     <use style="fill:#1f77b4;stroke:#1f77b4;" x="346.020409" xlink:href="#m4819f75b6d" y="154.479892"/>
    </g>
   </g>
   <g id="143F">
    <g clip-path="url(#p8c944ce630)">
     <use style="fill:#ff7f0e;stroke:#ff7f0e;" x="363.991176" xlink:href="#m8ba9b2c929" y="212.240466"/>
    </g>
   </g>
   <g id="96A">
    <g clip-path="url(#p8c944ce630)">
     <use style="fill:#2ca02c;stroke:#2ca02c;" x="275.848844" xlink:href="#mdf68085482" y="194.296147"/>
    </g>
   </g>
   <g id="144X">
    <g clip-path="url(#p8c944ce630)">
     <use style="fill:#d62728;stroke:#d62728;" x="114.111943" xlink:href="#m65ac223afa" y="194.296147"/>
    </g>
   </g>
   <g id="144K">
    <g clip-path="url(#p8c944ce630)">
     <use style="fill:#9467bd;stroke:#9467bd;" x="180.004755" xlink:href="#m807e99d82d" y="194.296147"/>
    </g>
   </g>
   <g id="90B">
    <g clip-path="url(#p8c944ce630)">
     <use style="fill:#8c564b;stroke:#8c564b;" x="101.275682" xlink:href="#m61c7014ce5" y="194.296147"/>
    </g>
   </g>
   <g id="143B">
    <g clip-path="url(#p8c944ce630)">
     <use style="fill:#e377c2;stroke:#e377c2;" x="75.603158" xlink:href="#mff355249d9" y="194.296147"/>
    </g>
   </g>
   <g id="144A">
    <g clip-path="url(#p8c944ce630)">
     <use style="fill:#7f7f7f;stroke:#7f7f7f;" x="338.318652" xlink:href="#m80f4ef7a62" y="226.119427"/>
    </g>
   </g>
   <g id="89A">
    <g clip-path="url(#p8c944ce630)">
     <use style="fill:#bcbd22;stroke:#bcbd22;" x="330.616895" xlink:href="#mc4c995aefb" y="72.02605"/>
    </g>
   </g>
   <g id="87A">
    <g clip-path="url(#p8c944ce630)">
     <use style="fill:#17becf;stroke:#17becf;" x="369.12568" xlink:href="#ma9bd9733f2" y="200.684796"/>
    </g>
   </g>
   <g id="144I">
    <g clip-path="url(#p8c944ce630)">
     <use style="fill:#1f77b4;stroke:#1f77b4;" x="170.591496" xlink:href="#m4819f75b6d" y="188.358005"/>
    </g>
   </g>
   <g id="91A">
    <g clip-path="url(#p8c944ce630)">
     <use style="fill:#ff7f0e;stroke:#ff7f0e;" x="212.523285" xlink:href="#m8ba9b2c929" y="92.409401"/>
    </g>
   </g>
   <g id="143E">
    <g clip-path="url(#p8c944ce630)">
     <use style="fill:#2ca02c;stroke:#2ca02c;" x="363.991176" xlink:href="#mdf68085482" y="208.244529"/>
    </g>
   </g>
   <g id="93A">
    <g clip-path="url(#p8c944ce630)">
     <use style="fill:#d62728;stroke:#d62728;" x="292.108109" xlink:href="#m65ac223afa" y="212.902604"/>
    </g>
   </g>
   <g id="144P">
    <g clip-path="url(#p8c944ce630)">
     <use style="fill:#9467bd;stroke:#9467bd;" x="154.332231" xlink:href="#m807e99d82d" y="194.296147"/>
    </g>
   </g>
   <g id="144L">
    <g clip-path="url(#p8c944ce630)">
     <use style="fill:#8c564b;stroke:#8c564b;" x="181.716256" xlink:href="#m61c7014ce5" y="252.179456"/>
    </g>
   </g>
   <g id="83A">
    <g clip-path="url(#p8c944ce630)">
     <use style="fill:#e377c2;stroke:#e377c2;" x="396.509706" xlink:href="#mff355249d9" y="171.308544"/>
    </g>
   </g>
   <g id="144W">
    <g clip-path="url(#p8c944ce630)">
     <use style="fill:#7f7f7f;stroke:#7f7f7f;" x="114.111943" xlink:href="#m80f4ef7a62" y="194.296147"/>
    </g>
   </g>
   <g id="95A">
    <g clip-path="url(#p8c944ce630)">
     <use style="fill:#bcbd22;stroke:#bcbd22;" x="338.318652" xlink:href="#mc4c995aefb" y="184.897428"/>
    </g>
   </g>
   <g id="144Q">
    <g clip-path="url(#p8c944ce630)">
     <use style="fill:#17becf;stroke:#17becf;" x="154.332231" xlink:href="#ma9bd9733f2" y="194.296147"/>
    </g>
   </g>
   <g id="144J">
    <g clip-path="url(#p8c944ce630)">
     <use style="fill:#1f77b4;stroke:#1f77b4;" x="180.004755" xlink:href="#m4819f75b6d" y="194.296147"/>
    </g>
   </g>
   <g id="144R">
    <g clip-path="url(#p8c944ce630)">
     <use style="fill:#ff7f0e;stroke:#ff7f0e;" x="154.332231" xlink:href="#m8ba9b2c929" y="194.296147"/>
    </g>
   </g>
   <g id="92A">
    <g clip-path="url(#p8c944ce630)">
     <use style="fill:#2ca02c;stroke:#2ca02c;" x="281.839099" xlink:href="#mdf68085482" y="201.249413"/>
    </g>
   </g>
   <g id="94A">
    <g clip-path="url(#p8c944ce630)">
     <use style="fill:#d62728;stroke:#d62728;" x="239.05156" xlink:href="#m65ac223afa" y="199.690558"/>
    </g>
   </g>
   <g id="81A">
    <g clip-path="url(#p8c944ce630)">
     <use style="fill:#9467bd;stroke:#9467bd;" x="375.971687" xlink:href="#m807e99d82d" y="228.152972"/>
    </g>
   </g>
   <g id="144S">
    <g clip-path="url(#p8c944ce630)">
     <use style="fill:#8c564b;stroke:#8c564b;" x="173.158748" xlink:href="#m61c7014ce5" y="203.651805"/>
    </g>
   </g>
   <g id="84A">
    <g clip-path="url(#p8c944ce630)">
     <use style="fill:#e377c2;stroke:#e377c2;" x="195.408269" xlink:href="#mff355249d9" y="194.296147"/>
    </g>
   </g>
   <g id="144V">
    <g clip-path="url(#p8c944ce630)">
     <use style="fill:#7f7f7f;stroke:#7f7f7f;" x="114.111943" xlink:href="#m80f4ef7a62" y="194.296147"/>
    </g>
   </g>
   <g id="97A">
    <g clip-path="url(#p8c944ce630)">
     <use style="fill:#bcbd22;stroke:#bcbd22;" x="361.423923" xlink:href="#mc4c995aefb" y="222.328604"/>
    </g>
   </g>
   <g id="90A">
    <g clip-path="url(#p8c944ce630)">
     <use style="fill:#17becf;stroke:#17becf;" x="270.714339" xlink:href="#ma9bd9733f2" y="194.296147"/>
    </g>
   </g>
   <g id="88A">
    <g clip-path="url(#p8c944ce630)">
     <use style="fill:#1f77b4;stroke:#1f77b4;" x="343.453157" xlink:href="#m4819f75b6d" y="119.55323"/>
    </g>
   </g>
   <g id="86A">
    <g clip-path="url(#p8c944ce630)">
     <use style="fill:#ff7f0e;stroke:#ff7f0e;" x="361.423923" xlink:href="#m8ba9b2c929" y="158.11546"/>
    </g>
   </g>
   <g id="144D">
    <g clip-path="url(#p8c944ce630)">
     <use style="fill:#2ca02c;stroke:#2ca02c;" x="181.716256" xlink:href="#mdf68085482" y="222.647768"/>
    </g>
   </g>
   <g id="144T">
    <g clip-path="url(#p8c944ce630)">
     <use style="fill:#d62728;stroke:#d62728;" x="114.111943" xlink:href="#m65ac223afa" y="194.296147"/>
    </g>
   </g>
   <g id="143G">
    <g clip-path="url(#p8c944ce630)">
     <use style="fill:#9467bd;stroke:#9467bd;" x="363.991176" xlink:href="#m807e99d82d" y="194.296147"/>
    </g>
   </g>
   <g id="82A">
    <g clip-path="url(#p8c944ce630)">
     <use style="fill:#8c564b;stroke:#8c564b;" x="394.798204" xlink:href="#m61c7014ce5" y="224.536274"/>
    </g>
   </g>
   <g id="144H">
    <g clip-path="url(#p8c944ce630)">
     <use style="fill:#e377c2;stroke:#e377c2;" x="170.591496" xlink:href="#mff355249d9" y="194.296147"/>
    </g>
   </g>
   <g id="143A">
    <g clip-path="url(#p8c944ce630)">
     <use style="fill:#7f7f7f;stroke:#7f7f7f;" x="363.991176" xlink:href="#m80f4ef7a62" y="210.111031"/>
    </g>
   </g>
   <g id="144B">
    <g clip-path="url(#p8c944ce630)">
     <use style="fill:#bcbd22;stroke:#bcbd22;" x="211.667534" xlink:href="#mc4c995aefb" y="192.970379"/>
    </g>
   </g>
   <g id="90C">
    <g clip-path="url(#p8c944ce630)">
     <use style="fill:#17becf;stroke:#17becf;" x="235.628556" xlink:href="#ma9bd9733f2" y="194.296147"/>
    </g>
   </g>
   <g id="20A">
    <g clip-path="url(#p8c944ce630)">
     <use style="fill:#1f77b4;stroke:#1f77b4;" x="108.121688" xlink:href="#m4819f75b6d" y="194.296147"/>
    </g>
   </g>
   <g id="27A">
    <g clip-path="url(#p8c944ce630)">
     <use style="fill:#ff7f0e;stroke:#ff7f0e;" x="162.033988" xlink:href="#m8ba9b2c929" y="196.069652"/>
    </g>
   </g>
   <g id="24A">
    <g clip-path="url(#p8c944ce630)">
     <use style="fill:#2ca02c;stroke:#2ca02c;" x="124.380953" xlink:href="#mdf68085482" y="121.246736"/>
    </g>
   </g>
   <g id="21A">
    <g clip-path="url(#p8c944ce630)">
     <use style="fill:#d62728;stroke:#d62728;" x="107.265937" xlink:href="#m65ac223afa" y="234.793331"/>
    </g>
   </g>
   <g id="28A">
    <g clip-path="url(#p8c944ce630)">
     <use style="fill:#9467bd;stroke:#9467bd;" x="121.813701" xlink:href="#m807e99d82d" y="194.296147"/>
    </g>
   </g>
   <g id="23A">
    <g clip-path="url(#p8c944ce630)">
     <use style="fill:#8c564b;stroke:#8c564b;" x="124.380953" xlink:href="#m61c7014ce5" y="196.221667"/>
    </g>
   </g>
   <g id="21B">
    <g clip-path="url(#p8c944ce630)">
     <use style="fill:#e377c2;stroke:#e377c2;" x="107.265937" xlink:href="#mff355249d9" y="194.296147"/>
    </g>
   </g>
   <g id="26A">
    <g clip-path="url(#p8c944ce630)">
     <use style="fill:#7f7f7f;stroke:#7f7f7f;" x="297.242614" xlink:href="#m80f4ef7a62" y="231.25933"/>
    </g>
   </g>
   <g id="29A">
    <g clip-path="url(#p8c944ce630)">
     <use style="fill:#bcbd22;stroke:#bcbd22;" x="120.95795" xlink:href="#mc4c995aefb" y="185.183254"/>
    </g>
   </g>
   <g id="25A">
    <g clip-path="url(#p8c944ce630)">
     <use style="fill:#17becf;stroke:#17becf;" x="124.380953" xlink:href="#ma9bd9733f2" y="194.296147"/>
    </g>
   </g>
   <g id="25B">
    <g clip-path="url(#p8c944ce630)">
     <use style="fill:#1f77b4;stroke:#1f77b4;" x="124.380953" xlink:href="#m4819f75b6d" y="194.296147"/>
    </g>
   </g>
   <g id="22A">
    <g clip-path="url(#p8c944ce630)">
     <use style="fill:#ff7f0e;stroke:#ff7f0e;" x="105.554435" xlink:href="#m8ba9b2c929" y="194.296147"/>
    </g>
   </g>
   <g id="19A">
    <g clip-path="url(#p8c944ce630)">
     <use style="fill:#2ca02c;stroke:#2ca02c;" x="206.533029" xlink:href="#mdf68085482" y="194.296147"/>
    </g>
   </g>
   <g id="14A">
    <g clip-path="url(#p8c944ce630)">
     <use style="fill:#d62728;stroke:#d62728;" x="208.244531" xlink:href="#m65ac223afa" y="172.951712"/>
    </g>
   </g>
   <g id="17A">
    <g clip-path="url(#p8c944ce630)">
     <use style="fill:#9467bd;stroke:#9467bd;" x="149.197726" xlink:href="#m807e99d82d" y="205.606893"/>
    </g>
   </g>
   <g id="11A">
    <g clip-path="url(#p8c944ce630)">
     <use style="fill:#8c564b;stroke:#8c564b;" x="205.677279" xlink:href="#m61c7014ce5" y="194.296147"/>
    </g>
   </g>
   <g id="5A">
    <g clip-path="url(#p8c944ce630)">
     <use style="fill:#e377c2;stroke:#e377c2;" x="206.533029" xlink:href="#mff355249d9" y="55.570422"/>
    </g>
   </g>
   <g id="4A">
    <g clip-path="url(#p8c944ce630)">
     <use style="fill:#7f7f7f;stroke:#7f7f7f;" x="206.533029" xlink:href="#m80f4ef7a62" y="238.775119"/>
    </g>
   </g>
   <g id="9A">
    <g clip-path="url(#p8c944ce630)">
     <use style="fill:#bcbd22;stroke:#bcbd22;" x="166.312742" xlink:href="#mc4c995aefb" y="201.431897"/>
    </g>
   </g>
   <g id="12A">
    <g clip-path="url(#p8c944ce630)">
     <use style="fill:#17becf;stroke:#17becf;" x="182.572007" xlink:href="#ma9bd9733f2" y="198.6852"/>
    </g>
   </g>
   <g id="6A">
    <g clip-path="url(#p8c944ce630)">
     <use style="fill:#1f77b4;stroke:#1f77b4;" x="206.533029" xlink:href="#m4819f75b6d" y="194.296147"/>
    </g>
   </g>
   <g id="2A">
    <g clip-path="url(#p8c944ce630)">
     <use style="fill:#ff7f0e;stroke:#ff7f0e;" x="206.533029" xlink:href="#m8ba9b2c929" y="200.651207"/>
    </g>
   </g>
   <g id="15A">
    <g clip-path="url(#p8c944ce630)">
     <use style="fill:#2ca02c;stroke:#2ca02c;" x="208.244531" xlink:href="#mdf68085482" y="195.27286"/>
    </g>
   </g>
   <g id="3A">
    <g clip-path="url(#p8c944ce630)">
     <use style="fill:#d62728;stroke:#d62728;" x="206.533029" xlink:href="#m65ac223afa" y="198.901349"/>
    </g>
   </g>
   <g id="7A">
    <g clip-path="url(#p8c944ce630)">
     <use style="fill:#9467bd;stroke:#9467bd;" x="206.533029" xlink:href="#m807e99d82d" y="194.296147"/>
    </g>
   </g>
   <g id="13A">
    <g clip-path="url(#p8c944ce630)">
     <use style="fill:#8c564b;stroke:#8c564b;" x="190.273764" xlink:href="#m61c7014ce5" y="194.296147"/>
    </g>
   </g>
   <g id="8A">
    <g clip-path="url(#p8c944ce630)">
     <use style="fill:#e377c2;stroke:#e377c2;" x="206.533029" xlink:href="#mff355249d9" y="196.991875"/>
    </g>
   </g>
   <g id="16A">
    <g clip-path="url(#p8c944ce630)">
     <use style="fill:#7f7f7f;stroke:#7f7f7f;" x="208.244531" xlink:href="#m80f4ef7a62" y="194.296147"/>
    </g>
   </g>
   <g id="18A">
    <g clip-path="url(#p8c944ce630)">
     <use style="fill:#bcbd22;stroke:#bcbd22;" x="206.533029" xlink:href="#mc4c995aefb" y="194.296147"/>
    </g>
   </g>
   <g id="10A">
    <g clip-path="url(#p8c944ce630)">
     <use style="fill:#17becf;stroke:#17becf;" x="130.371209" xlink:href="#ma9bd9733f2" y="194.296147"/>
    </g>
   </g>
   <g id="1A">
    <g clip-path="url(#p8c944ce630)">
     <use style="fill:#1f77b4;stroke:#1f77b4;" x="205.677279" xlink:href="#m4819f75b6d" y="166.249744"/>
    </g>
   </g>
   <g id="80A">
    <g clip-path="url(#p8c944ce630)">
     <use style="fill:#ff7f0e;stroke:#ff7f0e;" x="121.813701" xlink:href="#m8ba9b2c929" y="194.296147"/>
    </g>
   </g>
   <g id="75A">
    <g clip-path="url(#p8c944ce630)">
     <use style="fill:#2ca02c;stroke:#2ca02c;" x="137.217215" xlink:href="#mdf68085482" y="155.296527"/>
    </g>
   </g>
   <g id="66A">
    <g clip-path="url(#p8c944ce630)">
     <use style="fill:#d62728;stroke:#d62728;" x="136.361464" xlink:href="#m65ac223afa" y="257.851717"/>
    </g>
   </g>
   <g id="78A">
    <g clip-path="url(#p8c944ce630)">
     <use style="fill:#9467bd;stroke:#9467bd;" x="174.87025" xlink:href="#m807e99d82d" y="213.069966"/>
    </g>
   </g>
   <g id="77A">
    <g clip-path="url(#p8c944ce630)">
     <use style="fill:#8c564b;stroke:#8c564b;" x="174.87025" xlink:href="#m61c7014ce5" y="87.17231"/>
    </g>
   </g>
   <g id="71A">
    <g clip-path="url(#p8c944ce630)">
     <use style="fill:#e377c2;stroke:#e377c2;" x="185.139259" xlink:href="#mff355249d9" y="204.11575"/>
    </g>
   </g>
   <g id="65A">
    <g clip-path="url(#p8c944ce630)">
     <use style="fill:#7f7f7f;stroke:#7f7f7f;" x="136.361464" xlink:href="#m80f4ef7a62" y="164.768776"/>
    </g>
   </g>
   <g id="73A">
    <g clip-path="url(#p8c944ce630)">
     <use style="fill:#bcbd22;stroke:#bcbd22;" x="147.486224" xlink:href="#mc4c995aefb" y="194.296147"/>
    </g>
   </g>
   <g id="74A">
    <g clip-path="url(#p8c944ce630)">
     <use style="fill:#17becf;stroke:#17becf;" x="138.928717" xlink:href="#ma9bd9733f2" y="196.823392"/>
    </g>
   </g>
   <g id="72A">
    <g clip-path="url(#p8c944ce630)">
     <use style="fill:#1f77b4;stroke:#1f77b4;" x="175.726001" xlink:href="#m4819f75b6d" y="233.685363"/>
    </g>
   </g>
   <g id="76A">
    <g clip-path="url(#p8c944ce630)">
     <use style="fill:#ff7f0e;stroke:#ff7f0e;" x="131.226959" xlink:href="#m8ba9b2c929" y="169.705653"/>
    </g>
   </g>
   <g id="79B">
    <g clip-path="url(#p8c944ce630)">
     <use style="fill:#2ca02c;stroke:#2ca02c;" x="121.813701" xlink:href="#mdf68085482" y="194.296147"/>
    </g>
   </g>
   <g id="67A">
    <g clip-path="url(#p8c944ce630)">
     <use style="fill:#d62728;stroke:#d62728;" x="136.361464" xlink:href="#m65ac223afa" y="225.908752"/>
    </g>
   </g>
   <g id="70A">
    <g clip-path="url(#p8c944ce630)">
     <use style="fill:#9467bd;stroke:#9467bd;" x="199.687023" xlink:href="#m807e99d82d" y="204.087818"/>
    </g>
   </g>
   <g id="79A">
    <g clip-path="url(#p8c944ce630)">
     <use style="fill:#8c564b;stroke:#8c564b;" x="121.813701" xlink:href="#m61c7014ce5" y="216.691425"/>
    </g>
   </g>
   <g id="69A">
    <g clip-path="url(#p8c944ce630)">
     <use style="fill:#e377c2;stroke:#e377c2;" x="328.049642" xlink:href="#mff355249d9" y="224.105318"/>
    </g>
   </g>
   <g id="68A">
    <g clip-path="url(#p8c944ce630)">
     <use style="fill:#7f7f7f;stroke:#7f7f7f;" x="136.361464" xlink:href="#m80f4ef7a62" y="242.032994"/>
    </g>
   </g>
   <g id="101A">
    <g clip-path="url(#p8c944ce630)">
     <use style="fill:#bcbd22;stroke:#bcbd22;" x="239.05156" xlink:href="#mc4c995aefb" y="196.542587"/>
    </g>
   </g>
   <g id="113A">
    <g clip-path="url(#p8c944ce630)">
     <use style="fill:#17becf;stroke:#17becf;" x="142.35172" xlink:href="#ma9bd9733f2" y="178.253304"/>
    </g>
   </g>
   <g id="104A">
    <g clip-path="url(#p8c944ce630)">
     <use style="fill:#1f77b4;stroke:#1f77b4;" x="169.735745" xlink:href="#m4819f75b6d" y="195.664433"/>
    </g>
   </g>
   <g id="105A">
    <g clip-path="url(#p8c944ce630)">
     <use style="fill:#ff7f0e;stroke:#ff7f0e;" x="156.899483" xlink:href="#m8ba9b2c929" y="212.537547"/>
    </g>
   </g>
   <g id="99A">
    <g clip-path="url(#p8c944ce630)">
     <use style="fill:#2ca02c;stroke:#2ca02c;" x="117.534947" xlink:href="#mdf68085482" y="215.284314"/>
    </g>
   </g>
   <g id="116A">
    <g clip-path="url(#p8c944ce630)">
     <use style="fill:#d62728;stroke:#d62728;" x="298.954115" xlink:href="#m65ac223afa" y="194.296147"/>
    </g>
   </g>
   <g id="117A">
    <g clip-path="url(#p8c944ce630)">
     <use style="fill:#9467bd;stroke:#9467bd;" x="138.928717" xlink:href="#m807e99d82d" y="243.044737"/>
    </g>
   </g>
   <g id="119A">
    <g clip-path="url(#p8c944ce630)">
     <use style="fill:#8c564b;stroke:#8c564b;" x="179.149004" xlink:href="#m61c7014ce5" y="232.603859"/>
    </g>
   </g>
   <g id="98A">
    <g clip-path="url(#p8c944ce630)">
     <use style="fill:#e377c2;stroke:#e377c2;" x="120.95795" xlink:href="#mff355249d9" y="205.079058"/>
    </g>
   </g>
   <g id="106A">
    <g clip-path="url(#p8c944ce630)">
     <use style="fill:#7f7f7f;stroke:#7f7f7f;" x="115.823445" xlink:href="#m80f4ef7a62" y="194.296147"/>
    </g>
   </g>
   <g id="100A">
    <g clip-path="url(#p8c944ce630)">
     <use style="fill:#bcbd22;stroke:#bcbd22;" x="170.591496" xlink:href="#mc4c995aefb" y="197.665807"/>
    </g>
   </g>
   <g id="112A">
    <g clip-path="url(#p8c944ce630)">
     <use style="fill:#17becf;stroke:#17becf;" x="327.193891" xlink:href="#ma9bd9733f2" y="248.165407"/>
    </g>
   </g>
   <g id="118A">
    <g clip-path="url(#p8c944ce630)">
     <use style="fill:#1f77b4;stroke:#1f77b4;" x="179.149004" xlink:href="#m4819f75b6d" y="166.611341"/>
    </g>
   </g>
   <g id="103A">
    <g clip-path="url(#p8c944ce630)">
     <use style="fill:#ff7f0e;stroke:#ff7f0e;" x="170.591496" xlink:href="#m8ba9b2c929" y="192.274351"/>
    </g>
   </g>
   <g id="102A">
    <g clip-path="url(#p8c944ce630)">
     <use style="fill:#2ca02c;stroke:#2ca02c;" x="170.591496" xlink:href="#mdf68085482" y="185.593895"/>
    </g>
   </g>
   <g id="110A">
    <g clip-path="url(#p8c944ce630)">
     <use style="fill:#d62728;stroke:#d62728;" x="103.842934" xlink:href="#m65ac223afa" y="226.631266"/>
    </g>
   </g>
   <g id="108A">
    <g clip-path="url(#p8c944ce630)">
     <use style="fill:#9467bd;stroke:#9467bd;" x="120.95795" xlink:href="#m807e99d82d" y="194.296147"/>
    </g>
   </g>
   <g id="115A">
    <g clip-path="url(#p8c944ce630)">
     <use style="fill:#8c564b;stroke:#8c564b;" x="123.525202" xlink:href="#m61c7014ce5" y="194.296147"/>
    </g>
   </g>
   <g id="121A">
    <g clip-path="url(#p8c944ce630)">
     <use style="fill:#e377c2;stroke:#e377c2;" x="117.534947" xlink:href="#mff355249d9" y="200.902161"/>
    </g>
   </g>
   <g id="107A">
    <g clip-path="url(#p8c944ce630)">
     <use style="fill:#7f7f7f;stroke:#7f7f7f;" x="168.024244" xlink:href="#m80f4ef7a62" y="165.878682"/>
    </g>
   </g>
   <g id="114A">
    <g clip-path="url(#p8c944ce630)">
     <use style="fill:#bcbd22;stroke:#bcbd22;" x="142.35172" xlink:href="#mc4c995aefb" y="202.953978"/>
    </g>
   </g>
   <g id="108B">
    <g clip-path="url(#p8c944ce630)">
     <use style="fill:#17becf;stroke:#17becf;" x="118.390697" xlink:href="#ma9bd9733f2" y="194.296147"/>
    </g>
   </g>
   <g id="109A">
    <g clip-path="url(#p8c944ce630)">
     <use style="fill:#1f77b4;stroke:#1f77b4;" x="119.246448" xlink:href="#m4819f75b6d" y="233.191649"/>
    </g>
   </g>
   <g id="109B">
    <g clip-path="url(#p8c944ce630)">
     <use style="fill:#ff7f0e;stroke:#ff7f0e;" x="119.246448" xlink:href="#m8ba9b2c929" y="199.687603"/>
    </g>
   </g>
   <g id="120A">
    <g clip-path="url(#p8c944ce630)">
     <use style="fill:#2ca02c;stroke:#2ca02c;" x="179.149004" xlink:href="#mdf68085482" y="216.507253"/>
    </g>
   </g>
   <g id="111A">
    <g clip-path="url(#p8c944ce630)">
     <use style="fill:#d62728;stroke:#d62728;" x="147.486224" xlink:href="#m65ac223afa" y="194.296147"/>
    </g>
   </g>
   <g id="142A">
    <g clip-path="url(#p8c944ce630)">
     <use style="fill:#9467bd;stroke:#9467bd;" x="104.698685" xlink:href="#m807e99d82d" y="194.296147"/>
    </g>
   </g>
   <g id="32A">
    <g clip-path="url(#p8c944ce630)">
     <use style="fill:#8c564b;stroke:#8c564b;" x="126.948205" xlink:href="#m61c7014ce5" y="217.659122"/>
    </g>
   </g>
   <g id="37A">
    <g clip-path="url(#p8c944ce630)">
     <use style="fill:#e377c2;stroke:#e377c2;" x="227.926799" xlink:href="#mff355249d9" y="175.248633"/>
    </g>
   </g>
   <g id="42A">
    <g clip-path="url(#p8c944ce630)">
     <use style="fill:#7f7f7f;stroke:#7f7f7f;" x="118.390697" xlink:href="#m80f4ef7a62" y="194.296147"/>
    </g>
   </g>
   <g id="48A">
    <g clip-path="url(#p8c944ce630)">
     <use style="fill:#bcbd22;stroke:#bcbd22;" x="171.447247" xlink:href="#mc4c995aefb" y="196.991875"/>
    </g>
   </g>
   <g id="56A">
    <g clip-path="url(#p8c944ce630)">
     <use style="fill:#17becf;stroke:#17becf;" x="95.285426" xlink:href="#ma9bd9733f2" y="146.928357"/>
    </g>
   </g>
   <g id="45A">
    <g clip-path="url(#p8c944ce630)">
     <use style="fill:#1f77b4;stroke:#1f77b4;" x="133.794212" xlink:href="#m4819f75b6d" y="293.332054"/>
    </g>
   </g>
   <g id="33A">
    <g clip-path="url(#p8c944ce630)">
     <use style="fill:#ff7f0e;stroke:#ff7f0e;" x="312.646128" xlink:href="#m8ba9b2c929" y="236.347176"/>
    </g>
   </g>
   <g id="47A">
    <g clip-path="url(#p8c944ce630)">
     <use style="fill:#2ca02c;stroke:#2ca02c;" x="121.813701" xlink:href="#mdf68085482" y="95.098882"/>
    </g>
   </g>
   <g id="53A">
    <g clip-path="url(#p8c944ce630)">
     <use style="fill:#d62728;stroke:#d62728;" x="162.889739" xlink:href="#m65ac223afa" y="246.92626"/>
    </g>
   </g>
   <g id="30A">
    <g clip-path="url(#p8c944ce630)">
     <use style="fill:#9467bd;stroke:#9467bd;" x="126.948205" xlink:href="#m807e99d82d" y="203.281906"/>
    </g>
   </g>
   <g id="46A">
    <g clip-path="url(#p8c944ce630)">
     <use style="fill:#8c564b;stroke:#8c564b;" x="138.928717" xlink:href="#m61c7014ce5" y="149.334434"/>
    </g>
   </g>
   <g id="55A">
    <g clip-path="url(#p8c944ce630)">
     <use style="fill:#e377c2;stroke:#e377c2;" x="154.332231" xlink:href="#mff355249d9" y="198.789027"/>
    </g>
   </g>
   <g id="40A">
    <g clip-path="url(#p8c944ce630)">
     <use style="fill:#7f7f7f;stroke:#7f7f7f;" x="120.95795" xlink:href="#m80f4ef7a62" y="193.959181"/>
    </g>
   </g>
   <g id="39A">
    <g clip-path="url(#p8c944ce630)">
     <use style="fill:#bcbd22;stroke:#bcbd22;" x="120.95795" xlink:href="#mc4c995aefb" y="200.517057"/>
    </g>
   </g>
   <g id="57A">
    <g clip-path="url(#p8c944ce630)">
     <use style="fill:#17becf;stroke:#17becf;" x="280.127598" xlink:href="#ma9bd9733f2" y="214.374739"/>
    </g>
   </g>
   <g id="41A">
    <g clip-path="url(#p8c944ce630)">
     <use style="fill:#1f77b4;stroke:#1f77b4;" x="122.669451" xlink:href="#m4819f75b6d" y="201.151697"/>
    </g>
   </g>
   <g id="51A">
    <g clip-path="url(#p8c944ce630)">
     <use style="fill:#ff7f0e;stroke:#ff7f0e;" x="291.252358" xlink:href="#m8ba9b2c929" y="162.629026"/>
    </g>
   </g>
   <g id="44A">
    <g clip-path="url(#p8c944ce630)">
     <use style="fill:#2ca02c;stroke:#2ca02c;" x="169.735745" xlink:href="#mdf68085482" y="198.380583"/>
    </g>
   </g>
   <g id="31A">
    <g clip-path="url(#p8c944ce630)">
     <use style="fill:#d62728;stroke:#d62728;" x="126.948205" xlink:href="#m65ac223afa" y="207.774786"/>
    </g>
   </g>
   <g id="38A">
    <g clip-path="url(#p8c944ce630)">
     <use style="fill:#9467bd;stroke:#9467bd;" x="214.234786" xlink:href="#m807e99d82d" y="240.374281"/>
    </g>
   </g>
   <g id="54A">
    <g clip-path="url(#p8c944ce630)">
     <use style="fill:#8c564b;stroke:#8c564b;" x="130.371209" xlink:href="#m61c7014ce5" y="245.129872"/>
    </g>
   </g>
   <g id="35A">
    <g clip-path="url(#p8c944ce630)">
     <use style="fill:#e377c2;stroke:#e377c2;" x="132.938461" xlink:href="#mff355249d9" y="194.296147"/>
    </g>
   </g>
   <g id="49A">
    <g clip-path="url(#p8c944ce630)">
     <use style="fill:#7f7f7f;stroke:#7f7f7f;" x="141.495969" xlink:href="#m80f4ef7a62" y="194.296147"/>
    </g>
   </g>
   <g id="50A">
    <g clip-path="url(#p8c944ce630)">
     <use style="fill:#bcbd22;stroke:#bcbd22;" x="141.495969" xlink:href="#mc4c995aefb" y="173.228694"/>
    </g>
   </g>
   <g id="43A">
    <g clip-path="url(#p8c944ce630)">
     <use style="fill:#17becf;stroke:#17becf;" x="124.380953" xlink:href="#ma9bd9733f2" y="198.789027"/>
    </g>
   </g>
   <g id="52A">
    <g clip-path="url(#p8c944ce630)">
     <use style="fill:#1f77b4;stroke:#1f77b4;" x="149.197726" xlink:href="#m4819f75b6d" y="239.692953"/>
    </g>
   </g>
   <g id="36A">
    <g clip-path="url(#p8c944ce630)">
     <use style="fill:#ff7f0e;stroke:#ff7f0e;" x="132.08271" xlink:href="#m8ba9b2c929" y="241.471384"/>
    </g>
   </g>
   <g id="34A">
    <g clip-path="url(#p8c944ce630)">
     <use style="fill:#2ca02c;stroke:#2ca02c;" x="133.794212" xlink:href="#mdf68085482" y="255.001732"/>
    </g>
   </g>
   <g id="126A">
    <g clip-path="url(#p8c944ce630)">
     <use style="fill:#d62728;stroke:#d62728;" x="119.246448" xlink:href="#m65ac223afa" y="200.072707"/>
    </g>
   </g>
   <g id="125A">
    <g clip-path="url(#p8c944ce630)">
     <use style="fill:#9467bd;stroke:#9467bd;" x="117.534947" xlink:href="#m807e99d82d" y="187.556827"/>
    </g>
   </g>
   <g id="122A">
    <g clip-path="url(#p8c944ce630)">
     <use style="fill:#8c564b;stroke:#8c564b;" x="114.967694" xlink:href="#m61c7014ce5" y="194.296147"/>
    </g>
   </g>
   <g id="127A">
    <g clip-path="url(#p8c944ce630)">
     <use style="fill:#e377c2;stroke:#e377c2;" x="118.390697" xlink:href="#mff355249d9" y="194.296147"/>
    </g>
   </g>
   <g id="128A">
    <g clip-path="url(#p8c944ce630)">
     <use style="fill:#7f7f7f;stroke:#7f7f7f;" x="105.554435" xlink:href="#m80f4ef7a62" y="194.296147"/>
    </g>
   </g>
   <g id="124A">
    <g clip-path="url(#p8c944ce630)">
     <use style="fill:#bcbd22;stroke:#bcbd22;" x="141.495969" xlink:href="#mc4c995aefb" y="197.505347"/>
    </g>
   </g>
   <g id="123A">
    <g clip-path="url(#p8c944ce630)">
     <use style="fill:#17becf;stroke:#17becf;" x="103.842934" xlink:href="#ma9bd9733f2" y="216.352102"/>
    </g>
   </g>
   <g id="matplotlib.axis_1">
    <g id="xtick_1">
     <g id="line2d_1">
      <defs>
       <path d="M 0 0 
L 0 3.5 
" id="m7dd14f2b75" style="stroke:#000000;stroke-width:0.8;"/>
      </defs>
      <g>
       <use style="stroke:#000000;stroke-width:0.8;" x="67.04565" xlink:href="#m7dd14f2b75" y="307.584"/>
      </g>
     </g>
     <g id="text_1">
      <text style="font-family:DejaVu Sans;font-size:10px;font-style:normal;font-weight:normal;text-anchor:middle;" transform="rotate(-0, 67.04565, 322.182437)" x="67.04565" y="322.182437">0</text>
     </g>
    </g>
    <g id="xtick_2">
     <g id="line2d_2">
      <g>
       <use style="stroke:#000000;stroke-width:0.8;" x="109.833189" xlink:href="#m7dd14f2b75" y="307.584"/>
      </g>
     </g>
     <g id="text_2">
      <text style="font-family:DejaVu Sans;font-size:10px;font-style:normal;font-weight:normal;text-anchor:middle;" transform="rotate(-0, 109.833189, 322.182437)" x="109.833189" y="322.182437">50</text>
     </g>
    </g>
    <g id="xtick_3">
     <g id="line2d_3">
      <g>
       <use style="stroke:#000000;stroke-width:0.8;" x="152.620729" xlink:href="#m7dd14f2b75" y="307.584"/>
      </g>
     </g>
     <g id="text_3">
      <text style="font-family:DejaVu Sans;font-size:10px;font-style:normal;font-weight:normal;text-anchor:middle;" transform="rotate(-0, 152.620729, 322.182437)" x="152.620729" y="322.182437">100</text>
     </g>
    </g>
    <g id="xtick_4">
     <g id="line2d_4">
      <g>
       <use style="stroke:#000000;stroke-width:0.8;" x="195.408269" xlink:href="#m7dd14f2b75" y="307.584"/>
      </g>
     </g>
     <g id="text_4">
      <text style="font-family:DejaVu Sans;font-size:10px;font-style:normal;font-weight:normal;text-anchor:middle;" transform="rotate(-0, 195.408269, 322.182437)" x="195.408269" y="322.182437">150</text>
     </g>
    </g>
    <g id="xtick_5">
     <g id="line2d_5">
      <g>
       <use style="stroke:#000000;stroke-width:0.8;" x="238.195809" xlink:href="#m7dd14f2b75" y="307.584"/>
      </g>
     </g>
     <g id="text_5">
      <text style="font-family:DejaVu Sans;font-size:10px;font-style:normal;font-weight:normal;text-anchor:middle;" transform="rotate(-0, 238.195809, 322.182437)" x="238.195809" y="322.182437">200</text>
     </g>
    </g>
    <g id="xtick_6">
     <g id="line2d_6">
      <g>
       <use style="stroke:#000000;stroke-width:0.8;" x="280.983349" xlink:href="#m7dd14f2b75" y="307.584"/>
      </g>
     </g>
     <g id="text_6">
      <text style="font-family:DejaVu Sans;font-size:10px;font-style:normal;font-weight:normal;text-anchor:middle;" transform="rotate(-0, 280.983349, 322.182437)" x="280.983349" y="322.182437">250</text>
     </g>
    </g>
    <g id="xtick_7">
     <g id="line2d_7">
      <g>
       <use style="stroke:#000000;stroke-width:0.8;" x="323.770888" xlink:href="#m7dd14f2b75" y="307.584"/>
      </g>
     </g>
     <g id="text_7">
      <text style="font-family:DejaVu Sans;font-size:10px;font-style:normal;font-weight:normal;text-anchor:middle;" transform="rotate(-0, 323.770888, 322.182437)" x="323.770888" y="322.182437">300</text>
     </g>
    </g>
    <g id="xtick_8">
     <g id="line2d_8">
      <g>
       <use style="stroke:#000000;stroke-width:0.8;" x="366.558428" xlink:href="#m7dd14f2b75" y="307.584"/>
      </g>
     </g>
     <g id="text_8">
      <text style="font-family:DejaVu Sans;font-size:10px;font-style:normal;font-weight:normal;text-anchor:middle;" transform="rotate(-0, 366.558428, 322.182437)" x="366.558428" y="322.182437">350</text>
     </g>
    </g>
    <g id="xtick_9">
     <g id="line2d_9">
      <g>
       <use style="stroke:#000000;stroke-width:0.8;" x="409.345968" xlink:href="#m7dd14f2b75" y="307.584"/>
      </g>
     </g>
     <g id="text_9">
      <text style="font-family:DejaVu Sans;font-size:10px;font-style:normal;font-weight:normal;text-anchor:middle;" transform="rotate(-0, 409.345968, 322.182437)" x="409.345968" y="322.182437">400</text>
     </g>
    </g>
    <g id="text_10">
     <text style="font-family:DejaVu Sans;font-size:10px;font-style:normal;font-weight:normal;text-anchor:middle;" transform="rotate(-0, 236.16, 335.860562)" x="236.16" y="335.860562">Amount of languages tested</text>
    </g>
   </g>
   <g id="matplotlib.axis_2">
    <g id="ytick_1">
     <g id="line2d_10">
      <defs>
       <path d="M 0 0 
L -3.5 0 
" id="m0a27b3be0b" style="stroke:#000000;stroke-width:0.8;"/>
      </defs>
      <g>
       <use style="stroke:#000000;stroke-width:0.8;" x="57.6" xlink:href="#m0a27b3be0b" y="275.167983"/>
      </g>
     </g>
     <g id="text_11">
      <text style="font-family:DejaVu Sans;font-size:10px;font-style:normal;font-weight:normal;text-anchor:end;" transform="rotate(-0, 50.6, 278.967202)" x="50.6" y="278.967202">−0.2</text>
     </g>
    </g>
    <g id="ytick_2">
     <g id="line2d_11">
      <g>
       <use style="stroke:#000000;stroke-width:0.8;" x="57.6" xlink:href="#m0a27b3be0b" y="234.732065"/>
      </g>
     </g>
     <g id="text_12">
      <text style="font-family:DejaVu Sans;font-size:10px;font-style:normal;font-weight:normal;text-anchor:end;" transform="rotate(-0, 50.6, 238.531284)" x="50.6" y="238.531284">−0.1</text>
     </g>
    </g>
    <g id="ytick_3">
     <g id="line2d_12">
      <g>
       <use style="stroke:#000000;stroke-width:0.8;" x="57.6" xlink:href="#m0a27b3be0b" y="194.296147"/>
      </g>
     </g>
     <g id="text_13">
      <text style="font-family:DejaVu Sans;font-size:10px;font-style:normal;font-weight:normal;text-anchor:end;" transform="rotate(-0, 50.6, 198.095366)" x="50.6" y="198.095366">0.0</text>
     </g>
    </g>
    <g id="ytick_4">
     <g id="line2d_13">
      <g>
       <use style="stroke:#000000;stroke-width:0.8;" x="57.6" xlink:href="#m0a27b3be0b" y="153.860229"/>
      </g>
     </g>
     <g id="text_14">
      <text style="font-family:DejaVu Sans;font-size:10px;font-style:normal;font-weight:normal;text-anchor:end;" transform="rotate(-0, 50.6, 157.659448)" x="50.6" y="157.659448">0.1</text>
     </g>
    </g>
    <g id="ytick_5">
     <g id="line2d_14">
      <g>
       <use style="stroke:#000000;stroke-width:0.8;" x="57.6" xlink:href="#m0a27b3be0b" y="113.424311"/>
      </g>
     </g>
     <g id="text_15">
      <text style="font-family:DejaVu Sans;font-size:10px;font-style:normal;font-weight:normal;text-anchor:end;" transform="rotate(-0, 50.6, 117.22353)" x="50.6" y="117.22353">0.2</text>
     </g>
    </g>
    <g id="ytick_6">
     <g id="line2d_15">
      <g>
       <use style="stroke:#000000;stroke-width:0.8;" x="57.6" xlink:href="#m0a27b3be0b" y="72.988393"/>
      </g>
     </g>
     <g id="text_16">
      <text style="font-family:DejaVu Sans;font-size:10px;font-style:normal;font-weight:normal;text-anchor:end;" transform="rotate(-0, 50.6, 76.787612)" x="50.6" y="76.787612">0.3</text>
     </g>
    </g>
    <g id="text_17">
     <text style="font-family:DejaVu Sans;font-size:10px;font-style:normal;font-weight:normal;text-anchor:middle;" transform="rotate(-90, 20.2375, 174.528)" x="20.2375" y="174.528">Score minus base</text>
    </g>
   </g>
   <g id="line2d_16">
    <path clip-path="url(#p8c944ce630)" d="M 75.603158 200.693724 
L 95.285426 200.143835 
L 101.275682 199.976477 
L 102.131432 199.952569 
L 103.842934 199.904752 
L 104.698685 199.880844 
L 105.554435 199.856936 
L 107.265937 199.809119 
L 108.121688 199.785211 
L 114.111943 199.617854 
L 114.967694 199.593945 
L 115.823445 199.570037 
L 117.534947 199.522221 
L 118.390697 199.498312 
L 119.246448 199.474404 
L 120.102199 199.450496 
L 120.95795 199.426588 
L 121.813701 199.40268 
L 122.669451 199.378771 
L 123.525202 199.354863 
L 124.380953 199.330955 
L 126.948205 199.25923 
L 130.371209 199.163597 
L 131.226959 199.139689 
L 132.08271 199.115781 
L 132.938461 199.091873 
L 133.794212 199.067964 
L 136.361464 198.99624 
L 137.217215 198.972331 
L 138.072966 198.948423 
L 138.928717 198.924515 
L 141.495969 198.85279 
L 142.35172 198.828882 
L 147.486224 198.685433 
L 149.197726 198.637616 
L 154.332231 198.494167 
L 156.899483 198.422442 
L 162.033988 198.278993 
L 162.889739 198.255085 
L 166.312742 198.159452 
L 168.024244 198.111635 
L 169.735745 198.063819 
L 170.591496 198.039911 
L 171.447247 198.016002 
L 173.158748 197.968186 
L 174.87025 197.92037 
L 175.726001 197.896461 
L 179.149004 197.800828 
L 180.004755 197.77692 
L 181.716256 197.729104 
L 182.572007 197.705196 
L 185.139259 197.633471 
L 190.273764 197.490022 
L 195.408269 197.346572 
L 199.687023 197.227031 
L 205.677279 197.059673 
L 206.533029 197.035765 
L 208.244531 196.987949 
L 211.667534 196.892316 
L 212.523285 196.868408 
L 214.234786 196.820591 
L 227.926799 196.43806 
L 235.628556 196.222886 
L 239.05156 196.127253 
L 242.474563 196.03162 
L 245.897566 195.935987 
L 270.714339 195.242648 
L 275.848844 195.099199 
L 280.127598 194.979658 
L 281.839099 194.931841 
L 291.252358 194.668851 
L 292.108109 194.644943 
L 297.242614 194.501493 
L 298.954115 194.453677 
L 312.646128 194.071145 
L 327.193891 193.664705 
L 328.049642 193.640797 
L 330.616895 193.569073 
L 338.318652 193.353899 
L 343.453157 193.210449 
L 346.020409 193.138725 
L 361.423923 192.708376 
L 363.991176 192.636652 
L 369.12568 192.493202 
L 375.971687 192.301937 
L 394.798204 191.775956 
L 396.509706 191.728139 
" style="fill:none;stroke:#1f77b4;stroke-linecap:square;stroke-width:1.5;"/>
   </g>
   <g id="patch_3">
    <path d="M 57.6 307.584 
L 57.6 41.472 
" style="fill:none;stroke:#000000;stroke-linecap:square;stroke-linejoin:miter;stroke-width:0.8;"/>
   </g>
   <g id="patch_4">
    <path d="M 414.72 307.584 
L 414.72 41.472 
" style="fill:none;stroke:#000000;stroke-linecap:square;stroke-linejoin:miter;stroke-width:0.8;"/>
   </g>
   <g id="patch_5">
    <path d="M 57.6 307.584 
L 414.72 307.584 
" style="fill:none;stroke:#000000;stroke-linecap:square;stroke-linejoin:miter;stroke-width:0.8;"/>
   </g>
   <g id="patch_6">
    <path d="M 57.6 41.472 
L 414.72 41.472 
" style="fill:none;stroke:#000000;stroke-linecap:square;stroke-linejoin:miter;stroke-width:0.8;"/>
   </g>
  </g>
 </g>
 <defs>
  <clipPath id="p8c944ce630">
   <rect height="266.112" width="357.12" x="57.6" y="41.472"/>
  </clipPath>
 </defs>
</svg>
