<?xml version="1.0" encoding="utf-8" standalone="no"?>
<!DOCTYPE svg PUBLIC "-//W3C//DTD SVG 1.1//EN"
  "http://www.w3.org/Graphics/SVG/1.1/DTD/svg11.dtd">
<!-- Created with matplotlib (http://matplotlib.org/) -->
<svg height="345.6pt" version="1.1" viewBox="0 0 460.8 345.6" width="460.8pt" xmlns="http://www.w3.org/2000/svg" xmlns:xlink="http://www.w3.org/1999/xlink">
 <defs>
  <style type="text/css">
*{stroke-linecap:butt;stroke-linejoin:round;}
  </style>
 </defs>
 <g id="figure_1">
  <g id="patch_1">
   <path d="M 0 345.6 
L 460.8 345.6 
L 460.8 0 
L 0 0 
z
" style="fill:#ffffff;"/>
  </g>
  <g id="axes_1">
   <g id="patch_2">
    <path d="M 56.09 303.64 
L 446.143309 303.64 
L 446.143309 13.32 
L 56.09 13.32 
z
" style="fill:#ffffff;"/>
   </g>
   <g id="1A">
    <defs>
     <path d="M 0 3 
C 0.795609 3 1.55874 2.683901 2.12132 2.12132 
C 2.683901 1.55874 3 0.795609 3 0 
C 3 -0.795609 2.683901 -1.55874 2.12132 -2.12132 
C 1.55874 -2.683901 0.795609 -3 0 -3 
C -0.795609 -3 -1.55874 -2.683901 -2.12132 -2.12132 
C -2.683901 -1.55874 -3 -0.795609 -3 0 
C -3 0.795609 -2.683901 1.55874 -2.12132 2.12132 
C -1.55874 2.683901 -0.795609 3 0 3 
z
" id="mfeb980de5d" style="stroke:#1f77b4;"/>
    </defs>
    <g clip-path="url(#p5274592132)">
     <use style="fill:#1f77b4;stroke:#1f77b4;" x="221.330852" xlink:href="#mfeb980de5d" y="125.584548"/>
    </g>
   </g>
   <g id="2A">
    <defs>
     <path d="M 0 3 
C 0.795609 3 1.55874 2.683901 2.12132 2.12132 
C 2.683901 1.55874 3 0.795609 3 0 
C 3 -0.795609 2.683901 -1.55874 2.12132 -2.12132 
C 1.55874 -2.683901 0.795609 -3 0 -3 
C -0.795609 -3 -1.55874 -2.683901 -2.12132 -2.12132 
C -2.683901 -1.55874 -3 -0.795609 -3 0 
C -3 0.795609 -2.683901 1.55874 -2.12132 2.12132 
C -1.55874 2.683901 -0.795609 3 0 3 
z
" id="m59a6282a05" style="stroke:#ff7f0e;"/>
    </defs>
    <g clip-path="url(#p5274592132)">
     <use style="fill:#ff7f0e;stroke:#ff7f0e;" x="222.249773" xlink:href="#m59a6282a05" y="169.100712"/>
    </g>
   </g>
   <g id="3A">
    <defs>
     <path d="M 0 3 
C 0.795609 3 1.55874 2.683901 2.12132 2.12132 
C 2.683901 1.55874 3 0.795609 3 0 
C 3 -0.795609 2.683901 -1.55874 2.12132 -2.12132 
C 1.55874 -2.683901 0.795609 -3 0 -3 
C -0.795609 -3 -1.55874 -2.683901 -2.12132 -2.12132 
C -2.683901 -1.55874 -3 -0.795609 -3 0 
C -3 0.795609 -2.683901 1.55874 -2.12132 2.12132 
C -1.55874 2.683901 -0.795609 3 0 3 
z
" id="m19ba69062d" style="stroke:#2ca02c;"/>
    </defs>
    <g clip-path="url(#p5274592132)">
     <use style="fill:#2ca02c;stroke:#2ca02c;" x="222.249773" xlink:href="#m19ba69062d" y="171.225806"/>
    </g>
   </g>
   <g id="4A">
    <defs>
     <path d="M 0 3 
C 0.795609 3 1.55874 2.683901 2.12132 2.12132 
C 2.683901 1.55874 3 0.795609 3 0 
C 3 -0.795609 2.683901 -1.55874 2.12132 -2.12132 
C 1.55874 -2.683901 0.795609 -3 0 -3 
C -0.795609 -3 -1.55874 -2.683901 -2.12132 -2.12132 
C -2.683901 -1.55874 -3 -0.795609 -3 0 
C -3 0.795609 -2.683901 1.55874 -2.12132 2.12132 
C -1.55874 2.683901 -0.795609 3 0 3 
z
" id="m71eae82c99" style="stroke:#d62728;"/>
    </defs>
    <g clip-path="url(#p5274592132)">
     <use style="fill:#d62728;stroke:#d62728;" x="222.249773" xlink:href="#m71eae82c99" y="186.636487"/>
    </g>
   </g>
   <g id="5A">
    <defs>
     <path d="M 0 3 
C 0.795609 3 1.55874 2.683901 2.12132 2.12132 
C 2.683901 1.55874 3 0.795609 3 0 
C 3 -0.795609 2.683901 -1.55874 2.12132 -2.12132 
C 1.55874 -2.683901 0.795609 -3 0 -3 
C -0.795609 -3 -1.55874 -2.683901 -2.12132 -2.12132 
C -2.683901 -1.55874 -3 -0.795609 -3 0 
C -3 0.795609 -2.683901 1.55874 -2.12132 2.12132 
C -1.55874 2.683901 -0.795609 3 0 3 
z
" id="m7a583883e8" style="stroke:#9467bd;"/>
    </defs>
    <g clip-path="url(#p5274592132)">
     <use style="fill:#9467bd;stroke:#9467bd;" x="222.249773" xlink:href="#m7a583883e8" y="27.091779"/>
    </g>
   </g>
   <g id="6A">
    <defs>
     <path d="M 0 3 
C 0.795609 3 1.55874 2.683901 2.12132 2.12132 
C 2.683901 1.55874 3 0.795609 3 0 
C 3 -0.795609 2.683901 -1.55874 2.12132 -2.12132 
C 1.55874 -2.683901 0.795609 -3 0 -3 
C -0.795609 -3 -1.55874 -2.683901 -2.12132 -2.12132 
C -2.683901 -1.55874 -3 -0.795609 -3 0 
C -3 0.795609 -2.683901 1.55874 -2.12132 2.12132 
C -1.55874 2.683901 -0.795609 3 0 3 
z
" id="m680886972e" style="stroke:#8c564b;"/>
    </defs>
    <g clip-path="url(#p5274592132)">
     <use style="fill:#8c564b;stroke:#8c564b;" x="222.249773" xlink:href="#m680886972e" y="156.77575"/>
    </g>
   </g>
   <g id="7A">
    <defs>
     <path d="M 0 3 
C 0.795609 3 1.55874 2.683901 2.12132 2.12132 
C 2.683901 1.55874 3 0.795609 3 0 
C 3 -0.795609 2.683901 -1.55874 2.12132 -2.12132 
C 1.55874 -2.683901 0.795609 -3 0 -3 
C -0.795609 -3 -1.55874 -2.683901 -2.12132 -2.12132 
C -2.683901 -1.55874 -3 -0.795609 -3 0 
C -3 0.795609 -2.683901 1.55874 -2.12132 2.12132 
C -1.55874 2.683901 -0.795609 3 0 3 
z
" id="m16bcf780fa" style="stroke:#e377c2;"/>
    </defs>
    <g clip-path="url(#p5274592132)">
     <use style="fill:#e377c2;stroke:#e377c2;" x="222.249773" xlink:href="#m16bcf780fa" y="156.77575"/>
    </g>
   </g>
   <g id="8A">
    <defs>
     <path d="M 0 3 
C 0.795609 3 1.55874 2.683901 2.12132 2.12132 
C 2.683901 1.55874 3 0.795609 3 0 
C 3 -0.795609 2.683901 -1.55874 2.12132 -2.12132 
C 1.55874 -2.683901 0.795609 -3 0 -3 
C -0.795609 -3 -1.55874 -2.683901 -2.12132 -2.12132 
C -2.683901 -1.55874 -3 -0.795609 -3 0 
C -3 0.795609 -2.683901 1.55874 -2.12132 2.12132 
C -1.55874 2.683901 -0.795609 3 0 3 
z
" id="m76d3b2393c" style="stroke:#7f7f7f;"/>
    </defs>
    <g clip-path="url(#p5274592132)">
     <use style="fill:#7f7f7f;stroke:#7f7f7f;" x="222.249773" xlink:href="#m76d3b2393c" y="163.822113"/>
    </g>
   </g>
   <g id="9A">
    <defs>
     <path d="M 0 3 
C 0.795609 3 1.55874 2.683901 2.12132 2.12132 
C 2.683901 1.55874 3 0.795609 3 0 
C 3 -0.795609 2.683901 -1.55874 2.12132 -2.12132 
C 1.55874 -2.683901 0.795609 -3 0 -3 
C -0.795609 -3 -1.55874 -2.683901 -2.12132 -2.12132 
C -2.683901 -1.55874 -3 -0.795609 -3 0 
C -3 0.795609 -2.683901 1.55874 -2.12132 2.12132 
C -1.55874 2.683901 -0.795609 3 0 3 
z
" id="m8d86a74ab6" style="stroke:#bcbd22;"/>
    </defs>
    <g clip-path="url(#p5274592132)">
     <use style="fill:#bcbd22;stroke:#bcbd22;" x="179.060459" xlink:href="#m8d86a74ab6" y="178.325572"/>
    </g>
   </g>
   <g id="10A">
    <defs>
     <path d="M 0 3 
C 0.795609 3 1.55874 2.683901 2.12132 2.12132 
C 2.683901 1.55874 3 0.795609 3 0 
C 3 -0.795609 2.683901 -1.55874 2.12132 -2.12132 
C 1.55874 -2.683901 0.795609 -3 0 -3 
C -0.795609 -3 -1.55874 -2.683901 -2.12132 -2.12132 
C -2.683901 -1.55874 -3 -0.795609 -3 0 
C -3 0.795609 -2.683901 1.55874 -2.12132 2.12132 
C -1.55874 2.683901 -0.795609 3 0 3 
z
" id="md515ad19c7" style="stroke:#17becf;"/>
    </defs>
    <g clip-path="url(#p5274592132)">
     <use style="fill:#17becf;stroke:#17becf;" x="140.465752" xlink:href="#md515ad19c7" y="156.375419"/>
    </g>
   </g>
   <g id="11A">
    <g clip-path="url(#p5274592132)">
     <use style="fill:#1f77b4;stroke:#1f77b4;" x="221.330852" xlink:href="#mfeb980de5d" y="156.77575"/>
    </g>
   </g>
   <g id="12A">
    <g clip-path="url(#p5274592132)">
     <use style="fill:#ff7f0e;stroke:#ff7f0e;" x="196.519969" xlink:href="#m59a6282a05" y="162.133129"/>
    </g>
   </g>
   <g id="13A">
    <g clip-path="url(#p5274592132)">
     <use style="fill:#2ca02c;stroke:#2ca02c;" x="204.790263" xlink:href="#m19ba69062d" y="158.673155"/>
    </g>
   </g>
   <g id="14A">
    <g clip-path="url(#p5274592132)">
     <use style="fill:#d62728;stroke:#d62728;" x="224.087616" xlink:href="#m71eae82c99" y="135.085273"/>
    </g>
   </g>
   <g id="15A">
    <g clip-path="url(#p5274592132)">
     <use style="fill:#9467bd;stroke:#9467bd;" x="224.087616" xlink:href="#m7a583883e8" y="162.724252"/>
    </g>
   </g>
   <g id="16A">
    <g clip-path="url(#p5274592132)">
     <use style="fill:#8c564b;stroke:#8c564b;" x="224.087616" xlink:href="#m680886972e" y="161.17553"/>
    </g>
   </g>
   <g id="17A">
    <g clip-path="url(#p5274592132)">
     <use style="fill:#e377c2;stroke:#e377c2;" x="160.682027" xlink:href="#m16bcf780fa" y="158.615658"/>
    </g>
   </g>
   <g id="18A">
    <g clip-path="url(#p5274592132)">
     <use style="fill:#7f7f7f;stroke:#7f7f7f;" x="222.249773" xlink:href="#m76d3b2393c" y="156.77575"/>
    </g>
   </g>
   <g id="19A">
    <g clip-path="url(#p5274592132)">
     <use style="fill:#bcbd22;stroke:#bcbd22;" x="222.249773" xlink:href="#m8d86a74ab6" y="158.373565"/>
    </g>
   </g>
   <g id="20A">
    <g clip-path="url(#p5274592132)">
     <use style="fill:#17becf;stroke:#17becf;" x="116.573791" xlink:href="#md515ad19c7" y="156.77575"/>
    </g>
   </g>
   <g id="21A">
    <g clip-path="url(#p5274592132)">
     <use style="fill:#1f77b4;stroke:#1f77b4;" x="115.654869" xlink:href="#mfeb980de5d" y="206.563658"/>
    </g>
   </g>
   <g id="22A">
    <g clip-path="url(#p5274592132)">
     <use style="fill:#ff7f0e;stroke:#ff7f0e;" x="113.817026" xlink:href="#m59a6282a05" y="162.847446"/>
    </g>
   </g>
   <g id="23A">
    <g clip-path="url(#p5274592132)">
     <use style="fill:#2ca02c;stroke:#2ca02c;" x="134.033301" xlink:href="#m19ba69062d" y="153.414633"/>
    </g>
   </g>
   <g id="24A">
    <g clip-path="url(#p5274592132)">
     <use style="fill:#d62728;stroke:#d62728;" x="134.033301" xlink:href="#m71eae82c99" y="94.757712"/>
    </g>
   </g>
   <g id="25A">
    <g clip-path="url(#p5274592132)">
     <use style="fill:#9467bd;stroke:#9467bd;" x="134.033301" xlink:href="#m7a583883e8" y="164.907486"/>
    </g>
   </g>
   <g id="26A">
    <g clip-path="url(#p5274592132)">
     <use style="fill:#8c564b;stroke:#8c564b;" x="319.655462" xlink:href="#m680886972e" y="205.103377"/>
    </g>
   </g>
   <g id="27A">
    <g clip-path="url(#p5274592132)">
     <use style="fill:#e377c2;stroke:#e377c2;" x="174.465851" xlink:href="#m16bcf780fa" y="156.509448"/>
    </g>
   </g>
   <g id="28A">
    <g clip-path="url(#p5274592132)">
     <use style="fill:#7f7f7f;stroke:#7f7f7f;" x="131.276536" xlink:href="#m76d3b2393c" y="161.633107"/>
    </g>
   </g>
   <g id="29A">
    <g clip-path="url(#p5274592132)">
     <use style="fill:#bcbd22;stroke:#bcbd22;" x="130.357614" xlink:href="#m8d86a74ab6" y="139.347981"/>
    </g>
   </g>
   <g id="25B">
    <g clip-path="url(#p5274592132)">
     <use style="fill:#17becf;stroke:#17becf;" x="134.033301" xlink:href="#md515ad19c7" y="156.77575"/>
    </g>
   </g>
   <g id="21B">
    <g clip-path="url(#p5274592132)">
     <use style="fill:#1f77b4;stroke:#1f77b4;" x="115.654869" xlink:href="#mfeb980de5d" y="156.77575"/>
    </g>
   </g>
   <g id="30A">
    <g clip-path="url(#p5274592132)">
     <use style="fill:#ff7f0e;stroke:#ff7f0e;" x="136.790066" xlink:href="#m59a6282a05" y="169.728702"/>
    </g>
   </g>
   <g id="31A">
    <g clip-path="url(#p5274592132)">
     <use style="fill:#2ca02c;stroke:#2ca02c;" x="136.790066" xlink:href="#m19ba69062d" y="197.716329"/>
    </g>
   </g>
   <g id="32A">
    <g clip-path="url(#p5274592132)">
     <use style="fill:#d62728;stroke:#d62728;" x="136.790066" xlink:href="#m71eae82c99" y="190.205794"/>
    </g>
   </g>
   <g id="33A">
    <g clip-path="url(#p5274592132)">
     <use style="fill:#9467bd;stroke:#9467bd;" x="336.19605" xlink:href="#m7a583883e8" y="219.186715"/>
    </g>
   </g>
   <g id="34A">
    <g clip-path="url(#p5274592132)">
     <use style="fill:#8c564b;stroke:#8c564b;" x="144.141438" xlink:href="#m680886972e" y="223.735221"/>
    </g>
   </g>
   <g id="35A">
    <g clip-path="url(#p5274592132)">
     <use style="fill:#e377c2;stroke:#e377c2;" x="143.222517" xlink:href="#m16bcf780fa" y="160.087584"/>
    </g>
   </g>
   <g id="36A">
    <g clip-path="url(#p5274592132)">
     <use style="fill:#7f7f7f;stroke:#7f7f7f;" x="142.303595" xlink:href="#m76d3b2393c" y="193.205926"/>
    </g>
   </g>
   <g id="37A">
    <g clip-path="url(#p5274592132)">
     <use style="fill:#bcbd22;stroke:#bcbd22;" x="245.222813" xlink:href="#m8d86a74ab6" y="159.897329"/>
    </g>
   </g>
   <g id="38A">
    <g clip-path="url(#p5274592132)">
     <use style="fill:#17becf;stroke:#17becf;" x="230.520068" xlink:href="#md515ad19c7" y="223.989301"/>
    </g>
   </g>
   <g id="39A">
    <g clip-path="url(#p5274592132)">
     <use style="fill:#1f77b4;stroke:#1f77b4;" x="130.357614" xlink:href="#mfeb980de5d" y="180.095066"/>
    </g>
   </g>
   <g id="40A">
    <g clip-path="url(#p5274592132)">
     <use style="fill:#ff7f0e;stroke:#ff7f0e;" x="130.357614" xlink:href="#m59a6282a05" y="145.826681"/>
    </g>
   </g>
   <g id="41A">
    <g clip-path="url(#p5274592132)">
     <use style="fill:#2ca02c;stroke:#2ca02c;" x="132.195458" xlink:href="#m19ba69062d" y="116.506283"/>
    </g>
   </g>
   <g id="42A">
    <g clip-path="url(#p5274592132)">
     <use style="fill:#d62728;stroke:#d62728;" x="127.60085" xlink:href="#m71eae82c99" y="156.77575"/>
    </g>
   </g>
   <g id="43A">
    <g clip-path="url(#p5274592132)">
     <use style="fill:#9467bd;stroke:#9467bd;" x="134.033301" xlink:href="#m7a583883e8" y="164.871345"/>
    </g>
   </g>
   <g id="44A">
    <g clip-path="url(#p5274592132)">
     <use style="fill:#8c564b;stroke:#8c564b;" x="182.736145" xlink:href="#m680886972e" y="169.438646"/>
    </g>
   </g>
   <g id="45A">
    <g clip-path="url(#p5274592132)">
     <use style="fill:#e377c2;stroke:#e377c2;" x="144.141438" xlink:href="#m16bcf780fa" y="225.038961"/>
    </g>
   </g>
   <g id="46A">
    <g clip-path="url(#p5274592132)">
     <use style="fill:#7f7f7f;stroke:#7f7f7f;" x="149.654968" xlink:href="#m76d3b2393c" y="129.616216"/>
    </g>
   </g>
   <g id="47A">
    <g clip-path="url(#p5274592132)">
     <use style="fill:#bcbd22;stroke:#bcbd22;" x="131.276536" xlink:href="#m8d86a74ab6" y="82.217628"/>
    </g>
   </g>
   <g id="48A">
    <g clip-path="url(#p5274592132)">
     <use style="fill:#17becf;stroke:#17becf;" x="184.573988" xlink:href="#md515ad19c7" y="161.044336"/>
    </g>
   </g>
   <g id="49A">
    <g clip-path="url(#p5274592132)">
     <use style="fill:#1f77b4;stroke:#1f77b4;" x="152.411733" xlink:href="#mfeb980de5d" y="156.77575"/>
    </g>
   </g>
   <g id="50A">
    <g clip-path="url(#p5274592132)">
     <use style="fill:#ff7f0e;stroke:#ff7f0e;" x="152.411733" xlink:href="#m59a6282a05" y="135.958507"/>
    </g>
   </g>
   <g id="51A">
    <g clip-path="url(#p5274592132)">
     <use style="fill:#2ca02c;stroke:#2ca02c;" x="313.223011" xlink:href="#m19ba69062d" y="151.990997"/>
    </g>
   </g>
   <g id="52A">
    <g clip-path="url(#p5274592132)">
     <use style="fill:#d62728;stroke:#d62728;" x="160.682027" xlink:href="#m71eae82c99" y="206.153688"/>
    </g>
   </g>
   <g id="53A">
    <g clip-path="url(#p5274592132)">
     <use style="fill:#9467bd;stroke:#9467bd;" x="175.384772" xlink:href="#m7a583883e8" y="197.268734"/>
    </g>
   </g>
   <g id="54A">
    <g clip-path="url(#p5274592132)">
     <use style="fill:#8c564b;stroke:#8c564b;" x="140.465752" xlink:href="#m680886972e" y="219.088699"/>
    </g>
   </g>
   <g id="55A">
    <g clip-path="url(#p5274592132)">
     <use style="fill:#e377c2;stroke:#e377c2;" x="166.195556" xlink:href="#m16bcf780fa" y="178.918536"/>
    </g>
   </g>
   <g id="56A">
    <g clip-path="url(#p5274592132)">
     <use style="fill:#7f7f7f;stroke:#7f7f7f;" x="102.789967" xlink:href="#m76d3b2393c" y="80.214554"/>
    </g>
   </g>
   <g id="57A">
    <g clip-path="url(#p5274592132)">
     <use style="fill:#bcbd22;stroke:#bcbd22;" x="301.27703" xlink:href="#m8d86a74ab6" y="162.742629"/>
    </g>
   </g>
   <g id="58A">
    <g clip-path="url(#p5274592132)">
     <use style="fill:#17becf;stroke:#17becf;" x="131.276536" xlink:href="#md515ad19c7" y="159.415618"/>
    </g>
   </g>
   <g id="59A">
    <g clip-path="url(#p5274592132)">
     <use style="fill:#1f77b4;stroke:#1f77b4;" x="131.276536" xlink:href="#mfeb980de5d" y="162.295474"/>
    </g>
   </g>
   <g id="60A">
    <g clip-path="url(#p5274592132)">
     <use style="fill:#ff7f0e;stroke:#ff7f0e;" x="110.141339" xlink:href="#m59a6282a05" y="187.13423"/>
    </g>
   </g>
   <g id="61A">
    <g clip-path="url(#p5274592132)">
     <use style="fill:#2ca02c;stroke:#2ca02c;" x="111.979183" xlink:href="#m19ba69062d" y="156.77575"/>
    </g>
   </g>
   <g id="62A">
    <g clip-path="url(#p5274592132)">
     <use style="fill:#d62728;stroke:#d62728;" x="124.844085" xlink:href="#m71eae82c99" y="86.834482"/>
    </g>
   </g>
   <g id="63A">
    <g clip-path="url(#p5274592132)">
     <use style="fill:#9467bd;stroke:#9467bd;" x="148.736046" xlink:href="#m7a583883e8" y="174.61194"/>
    </g>
   </g>
   <g id="64A">
    <g clip-path="url(#p5274592132)">
     <use style="fill:#8c564b;stroke:#8c564b;" x="153.330654" xlink:href="#m680886972e" y="156.77575"/>
    </g>
   </g>
   <g id="58B">
    <g clip-path="url(#p5274592132)">
     <use style="fill:#e377c2;stroke:#e377c2;" x="130.357614" xlink:href="#m16bcf780fa" y="156.77575"/>
    </g>
   </g>
   <g id="65A">
    <g clip-path="url(#p5274592132)">
     <use style="fill:#7f7f7f;stroke:#7f7f7f;" x="146.898203" xlink:href="#m76d3b2393c" y="128.642798"/>
    </g>
   </g>
   <g id="66A">
    <g clip-path="url(#p5274592132)">
     <use style="fill:#bcbd22;stroke:#bcbd22;" x="146.898203" xlink:href="#m8d86a74ab6" y="160.284677"/>
    </g>
   </g>
   <g id="67A">
    <g clip-path="url(#p5274592132)">
     <use style="fill:#17becf;stroke:#17becf;" x="146.898203" xlink:href="#md515ad19c7" y="213.666011"/>
    </g>
   </g>
   <g id="68A">
    <g clip-path="url(#p5274592132)">
     <use style="fill:#1f77b4;stroke:#1f77b4;" x="146.898203" xlink:href="#mfeb980de5d" y="240.941873"/>
    </g>
   </g>
   <g id="69A">
    <g clip-path="url(#p5274592132)">
     <use style="fill:#ff7f0e;stroke:#ff7f0e;" x="352.736639" xlink:href="#m59a6282a05" y="178.048001"/>
    </g>
   </g>
   <g id="70A">
    <g clip-path="url(#p5274592132)">
     <use style="fill:#2ca02c;stroke:#2ca02c;" x="214.898401" xlink:href="#m19ba69062d" y="172.716485"/>
    </g>
   </g>
   <g id="71A">
    <g clip-path="url(#p5274592132)">
     <use style="fill:#d62728;stroke:#d62728;" x="199.276734" xlink:href="#m71eae82c99" y="177.207489"/>
    </g>
   </g>
   <g id="72A">
    <g clip-path="url(#p5274592132)">
     <use style="fill:#9467bd;stroke:#9467bd;" x="189.168596" xlink:href="#m7a583883e8" y="197.638646"/>
    </g>
   </g>
   <g id="73A">
    <g clip-path="url(#p5274592132)">
     <use style="fill:#8c564b;stroke:#8c564b;" x="158.844184" xlink:href="#m680886972e" y="156.77575"/>
    </g>
   </g>
   <g id="74A">
    <g clip-path="url(#p5274592132)">
     <use style="fill:#e377c2;stroke:#e377c2;" x="149.654968" xlink:href="#m16bcf780fa" y="180.455365"/>
    </g>
   </g>
   <g id="75A">
    <g clip-path="url(#p5274592132)">
     <use style="fill:#7f7f7f;stroke:#7f7f7f;" x="147.817125" xlink:href="#m76d3b2393c" y="103.130574"/>
    </g>
   </g>
   <g id="76A">
    <g clip-path="url(#p5274592132)">
     <use style="fill:#bcbd22;stroke:#bcbd22;" x="141.384673" xlink:href="#m8d86a74ab6" y="142.753024"/>
    </g>
   </g>
   <g id="77A">
    <g clip-path="url(#p5274592132)">
     <use style="fill:#17becf;stroke:#17becf;" x="188.249675" xlink:href="#md515ad19c7" y="54.706707"/>
    </g>
   </g>
   <g id="78A">
    <g clip-path="url(#p5274592132)">
     <use style="fill:#1f77b4;stroke:#1f77b4;" x="188.249675" xlink:href="#mfeb980de5d" y="188.828657"/>
    </g>
   </g>
   <g id="79A">
    <g clip-path="url(#p5274592132)">
     <use style="fill:#ff7f0e;stroke:#ff7f0e;" x="131.276536" xlink:href="#m59a6282a05" y="187.014131"/>
    </g>
   </g>
   <g id="80A">
    <g clip-path="url(#p5274592132)">
     <use style="fill:#2ca02c;stroke:#2ca02c;" x="131.276536" xlink:href="#m19ba69062d" y="156.77575"/>
    </g>
   </g>
   <g id="79B">
    <g clip-path="url(#p5274592132)">
     <use style="fill:#d62728;stroke:#d62728;" x="131.276536" xlink:href="#m71eae82c99" y="156.77575"/>
    </g>
   </g>
   <g id="81A">
    <g clip-path="url(#p5274592132)">
     <use style="fill:#9467bd;stroke:#9467bd;" x="404.196248" xlink:href="#m7a583883e8" y="196.964825"/>
    </g>
   </g>
   <g id="82A">
    <g clip-path="url(#p5274592132)">
     <use style="fill:#8c564b;stroke:#8c564b;" x="424.412523" xlink:href="#m680886972e" y="185.490915"/>
    </g>
   </g>
   <g id="83A">
    <g clip-path="url(#p5274592132)">
     <use style="fill:#e377c2;stroke:#e377c2;" x="426.250366" xlink:href="#m16bcf780fa" y="147.059932"/>
    </g>
   </g>
   <g id="84A">
    <g clip-path="url(#p5274592132)">
     <use style="fill:#7f7f7f;stroke:#7f7f7f;" x="210.303793" xlink:href="#m76d3b2393c" y="162.196907"/>
    </g>
   </g>
   <g id="85A">
    <g clip-path="url(#p5274592132)">
     <use style="fill:#bcbd22;stroke:#bcbd22;" x="372.033992" xlink:href="#m8d86a74ab6" y="124.95825"/>
    </g>
   </g>
   <g id="86A">
    <g clip-path="url(#p5274592132)">
     <use style="fill:#17becf;stroke:#17becf;" x="388.574581" xlink:href="#md515ad19c7" y="130.129229"/>
    </g>
   </g>
   <g id="87A">
    <g clip-path="url(#p5274592132)">
     <use style="fill:#1f77b4;stroke:#1f77b4;" x="396.844875" xlink:href="#mfeb980de5d" y="169.45076"/>
    </g>
   </g>
   <g id="88A">
    <g clip-path="url(#p5274592132)">
     <use style="fill:#ff7f0e;stroke:#ff7f0e;" x="369.277227" xlink:href="#m59a6282a05" y="93.976229"/>
    </g>
   </g>
   <g id="89A">
    <g clip-path="url(#p5274592132)">
     <use style="fill:#2ca02c;stroke:#2ca02c;" x="355.493404" xlink:href="#m19ba69062d" y="66.213806"/>
    </g>
   </g>
   <g id="90A">
    <g clip-path="url(#p5274592132)">
     <use style="fill:#d62728;stroke:#d62728;" x="291.168892" xlink:href="#m71eae82c99" y="156.77575"/>
    </g>
   </g>
   <g id="91A">
    <g clip-path="url(#p5274592132)">
     <use style="fill:#9467bd;stroke:#9467bd;" x="228.682224" xlink:href="#m7a583883e8" y="87.871638"/>
    </g>
   </g>
   <g id="92A">
    <g clip-path="url(#p5274592132)">
     <use style="fill:#8c564b;stroke:#8c564b;" x="303.114873" xlink:href="#m680886972e" y="171.341688"/>
    </g>
   </g>
   <g id="93A">
    <g clip-path="url(#p5274592132)">
     <use style="fill:#e377c2;stroke:#e377c2;" x="314.141932" xlink:href="#m16bcf780fa" y="233.319612"/>
    </g>
   </g>
   <g id="94A">
    <g clip-path="url(#p5274592132)">
     <use style="fill:#7f7f7f;stroke:#7f7f7f;" x="257.168794" xlink:href="#m76d3b2393c" y="168.321864"/>
    </g>
   </g>
   <g id="95A">
    <g clip-path="url(#p5274592132)">
     <use style="fill:#bcbd22;stroke:#bcbd22;" x="363.763698" xlink:href="#m8d86a74ab6" y="151.361127"/>
    </g>
   </g>
   <g id="96A">
    <g clip-path="url(#p5274592132)">
     <use style="fill:#17becf;stroke:#17becf;" x="296.682422" xlink:href="#md515ad19c7" y="165.561354"/>
    </g>
   </g>
   <g id="97A">
    <g clip-path="url(#p5274592132)">
     <use style="fill:#1f77b4;stroke:#1f77b4;" x="388.574581" xlink:href="#mfeb980de5d" y="194.422803"/>
    </g>
   </g>
   <g id="143F">
    <g clip-path="url(#p5274592132)">
     <use style="fill:#ff7f0e;stroke:#ff7f0e;" x="391.331346" xlink:href="#m59a6282a05" y="181.920184"/>
    </g>
   </g>
   <g id="90B">
    <g clip-path="url(#p5274592132)">
     <use style="fill:#2ca02c;stroke:#2ca02c;" x="109.222418" xlink:href="#m19ba69062d" y="164.871345"/>
    </g>
   </g>
   <g id="90C">
    <g clip-path="url(#p5274592132)">
     <use style="fill:#d62728;stroke:#d62728;" x="253.493107" xlink:href="#m71eae82c99" y="156.77575"/>
    </g>
   </g>
   <g id="144P">
    <g clip-path="url(#p5274592132)">
     <use style="fill:#9467bd;stroke:#9467bd;" x="166.195556" xlink:href="#m7a583883e8" y="156.77575"/>
    </g>
   </g>
   <g id="144J">
    <g clip-path="url(#p5274592132)">
     <use style="fill:#8c564b;stroke:#8c564b;" x="193.763204" xlink:href="#m680886972e" y="156.77575"/>
    </g>
   </g>
   <g id="144S">
    <g clip-path="url(#p5274592132)">
     <use style="fill:#e377c2;stroke:#e377c2;" x="186.411831" xlink:href="#m16bcf780fa" y="152.505292"/>
    </g>
   </g>
   <g id="144X">
    <g clip-path="url(#p5274592132)">
     <use style="fill:#7f7f7f;stroke:#7f7f7f;" x="123.006242" xlink:href="#m76d3b2393c" y="156.77575"/>
    </g>
   </g>
   <g id="144A">
    <g clip-path="url(#p5274592132)">
     <use style="fill:#bcbd22;stroke:#bcbd22;" x="363.763698" xlink:href="#m8d86a74ab6" y="194.162487"/>
    </g>
   </g>
   <g id="144V">
    <g clip-path="url(#p5274592132)">
     <use style="fill:#17becf;stroke:#17becf;" x="123.006242" xlink:href="#md515ad19c7" y="156.77575"/>
    </g>
   </g>
   <g id="144I">
    <g clip-path="url(#p5274592132)">
     <use style="fill:#1f77b4;stroke:#1f77b4;" x="183.655067" xlink:href="#mfeb980de5d" y="172.995246"/>
    </g>
   </g>
   <g id="144R">
    <g clip-path="url(#p5274592132)">
     <use style="fill:#ff7f0e;stroke:#ff7f0e;" x="166.195556" xlink:href="#m59a6282a05" y="166.022873"/>
    </g>
   </g>
   <g id="143B">
    <g clip-path="url(#p5274592132)">
     <use style="fill:#2ca02c;stroke:#2ca02c;" x="81.65477" xlink:href="#m19ba69062d" y="179.54461"/>
    </g>
   </g>
   <g id="144K">
    <g clip-path="url(#p5274592132)">
     <use style="fill:#d62728;stroke:#d62728;" x="193.763204" xlink:href="#m71eae82c99" y="156.77575"/>
    </g>
   </g>
   <g id="144B">
    <g clip-path="url(#p5274592132)">
     <use style="fill:#9467bd;stroke:#9467bd;" x="227.763303" xlink:href="#m7a583883e8" y="165.883294"/>
    </g>
   </g>
   <g id="144F">
    <g clip-path="url(#p5274592132)">
     <use style="fill:#8c564b;stroke:#8c564b;" x="76.141241" xlink:href="#m680886972e" y="156.77575"/>
    </g>
   </g>
   <g id="144E">
    <g clip-path="url(#p5274592132)">
     <use style="fill:#e377c2;stroke:#e377c2;" x="89.006143" xlink:href="#m16bcf780fa" y="156.77575"/>
    </g>
   </g>
   <g id="144D">
    <g clip-path="url(#p5274592132)">
     <use style="fill:#7f7f7f;stroke:#7f7f7f;" x="195.601047" xlink:href="#m76d3b2393c" y="187.162781"/>
    </g>
   </g>
   <g id="81B">
    <g clip-path="url(#p5274592132)">
     <use style="fill:#bcbd22;stroke:#bcbd22;" x="87.1683" xlink:href="#m8d86a74ab6" y="217.49271"/>
    </g>
   </g>
   <g id="143E">
    <g clip-path="url(#p5274592132)">
     <use style="fill:#17becf;stroke:#17becf;" x="391.331346" xlink:href="#md515ad19c7" y="183.619943"/>
    </g>
   </g>
   <g id="143C">
    <g clip-path="url(#p5274592132)">
     <use style="fill:#1f77b4;stroke:#1f77b4;" x="81.65477" xlink:href="#mfeb980de5d" y="111.23803"/>
    </g>
   </g>
   <g id="143A">
    <g clip-path="url(#p5274592132)">
     <use style="fill:#ff7f0e;stroke:#ff7f0e;" x="391.331346" xlink:href="#m59a6282a05" y="179.424446"/>
    </g>
   </g>
   <g id="144W">
    <g clip-path="url(#p5274592132)">
     <use style="fill:#2ca02c;stroke:#2ca02c;" x="123.006242" xlink:href="#m19ba69062d" y="156.77575"/>
    </g>
   </g>
   <g id="144Q">
    <g clip-path="url(#p5274592132)">
     <use style="fill:#d62728;stroke:#d62728;" x="166.195556" xlink:href="#m71eae82c99" y="156.77575"/>
    </g>
   </g>
   <g id="144L">
    <g clip-path="url(#p5274592132)">
     <use style="fill:#9467bd;stroke:#9467bd;" x="195.601047" xlink:href="#m7a583883e8" y="200.044538"/>
    </g>
   </g>
   <g id="144H">
    <g clip-path="url(#p5274592132)">
     <use style="fill:#8c564b;stroke:#8c564b;" x="183.655067" xlink:href="#m680886972e" y="156.77575"/>
    </g>
   </g>
   <g id="144T">
    <g clip-path="url(#p5274592132)">
     <use style="fill:#e377c2;stroke:#e377c2;" x="123.006242" xlink:href="#m16bcf780fa" y="156.77575"/>
    </g>
   </g>
   <g id="143G">
    <g clip-path="url(#p5274592132)">
     <use style="fill:#7f7f7f;stroke:#7f7f7f;" x="391.331346" xlink:href="#m76d3b2393c" y="156.77575"/>
    </g>
   </g>
   <g id="98A">
    <g clip-path="url(#p5274592132)">
     <use style="fill:#bcbd22;stroke:#bcbd22;" x="130.357614" xlink:href="#m8d86a74ab6" y="176.205177"/>
    </g>
   </g>
   <g id="99A">
    <g clip-path="url(#p5274592132)">
     <use style="fill:#17becf;stroke:#17becf;" x="126.681928" xlink:href="#md515ad19c7" y="161.112676"/>
    </g>
   </g>
   <g id="100A">
    <g clip-path="url(#p5274592132)">
     <use style="fill:#1f77b4;stroke:#1f77b4;" x="183.655067" xlink:href="#mfeb980de5d" y="161.633107"/>
    </g>
   </g>
   <g id="101A">
    <g clip-path="url(#p5274592132)">
     <use style="fill:#ff7f0e;stroke:#ff7f0e;" x="257.168794" xlink:href="#m59a6282a05" y="167.457438"/>
    </g>
   </g>
   <g id="102A">
    <g clip-path="url(#p5274592132)">
     <use style="fill:#2ca02c;stroke:#2ca02c;" x="183.655067" xlink:href="#m19ba69062d" y="176.188943"/>
    </g>
   </g>
   <g id="103A">
    <g clip-path="url(#p5274592132)">
     <use style="fill:#d62728;stroke:#d62728;" x="183.655067" xlink:href="#m71eae82c99" y="171.991788"/>
    </g>
   </g>
   <g id="104A">
    <g clip-path="url(#p5274592132)">
     <use style="fill:#9467bd;stroke:#9467bd;" x="182.736145" xlink:href="#m7a583883e8" y="162.693219"/>
    </g>
   </g>
   <g id="105A">
    <g clip-path="url(#p5274592132)">
     <use style="fill:#8c564b;stroke:#8c564b;" x="168.952321" xlink:href="#m680886972e" y="181.70166"/>
    </g>
   </g>
   <g id="106A">
    <g clip-path="url(#p5274592132)">
     <use style="fill:#e377c2;stroke:#e377c2;" x="124.844085" xlink:href="#m16bcf780fa" y="156.77575"/>
    </g>
   </g>
   <g id="107A">
    <g clip-path="url(#p5274592132)">
     <use style="fill:#7f7f7f;stroke:#7f7f7f;" x="180.898302" xlink:href="#m76d3b2393c" y="156.927543"/>
    </g>
   </g>
   <g id="108A">
    <g clip-path="url(#p5274592132)">
     <use style="fill:#bcbd22;stroke:#bcbd22;" x="130.357614" xlink:href="#m8d86a74ab6" y="156.77575"/>
    </g>
   </g>
   <g id="109A">
    <g clip-path="url(#p5274592132)">
     <use style="fill:#17becf;stroke:#17becf;" x="128.519771" xlink:href="#md515ad19c7" y="193.379403"/>
    </g>
   </g>
   <g id="110A">
    <g clip-path="url(#p5274592132)">
     <use style="fill:#1f77b4;stroke:#1f77b4;" x="111.979183" xlink:href="#mfeb980de5d" y="187.348886"/>
    </g>
   </g>
   <g id="111A">
    <g clip-path="url(#p5274592132)">
     <use style="fill:#ff7f0e;stroke:#ff7f0e;" x="158.844184" xlink:href="#m59a6282a05" y="156.77575"/>
    </g>
   </g>
   <g id="112A">
    <g clip-path="url(#p5274592132)">
     <use style="fill:#2ca02c;stroke:#2ca02c;" x="351.817717" xlink:href="#m19ba69062d" y="180.250024"/>
    </g>
   </g>
   <g id="113A">
    <g clip-path="url(#p5274592132)">
     <use style="fill:#d62728;stroke:#d62728;" x="153.330654" xlink:href="#m71eae82c99" y="150.074547"/>
    </g>
   </g>
   <g id="114A">
    <g clip-path="url(#p5274592132)">
     <use style="fill:#9467bd;stroke:#9467bd;" x="153.330654" xlink:href="#m7a583883e8" y="178.539728"/>
    </g>
   </g>
   <g id="115A">
    <g clip-path="url(#p5274592132)">
     <use style="fill:#8c564b;stroke:#8c564b;" x="133.114379" xlink:href="#m680886972e" y="167.985035"/>
    </g>
   </g>
   <g id="116A">
    <g clip-path="url(#p5274592132)">
     <use style="fill:#e377c2;stroke:#e377c2;" x="321.493305" xlink:href="#m16bcf780fa" y="163.188548"/>
    </g>
   </g>
   <g id="117A">
    <g clip-path="url(#p5274592132)">
     <use style="fill:#7f7f7f;stroke:#7f7f7f;" x="149.654968" xlink:href="#m76d3b2393c" y="199.550012"/>
    </g>
   </g>
   <g id="118A">
    <g clip-path="url(#p5274592132)">
     <use style="fill:#bcbd22;stroke:#bcbd22;" x="192.844282" xlink:href="#m8d86a74ab6" y="132.426282"/>
    </g>
   </g>
   <g id="119A">
    <g clip-path="url(#p5274592132)">
     <use style="fill:#17becf;stroke:#17becf;" x="192.844282" xlink:href="#md515ad19c7" y="188.338737"/>
    </g>
   </g>
   <g id="120A">
    <g clip-path="url(#p5274592132)">
     <use style="fill:#1f77b4;stroke:#1f77b4;" x="192.844282" xlink:href="#mfeb980de5d" y="171.555537"/>
    </g>
   </g>
   <g id="121A">
    <g clip-path="url(#p5274592132)">
     <use style="fill:#ff7f0e;stroke:#ff7f0e;" x="126.681928" xlink:href="#m59a6282a05" y="181.68972"/>
    </g>
   </g>
   <g id="109B">
    <g clip-path="url(#p5274592132)">
     <use style="fill:#2ca02c;stroke:#2ca02c;" x="128.519771" xlink:href="#m19ba69062d" y="176.899086"/>
    </g>
   </g>
   <g id="108B">
    <g clip-path="url(#p5274592132)">
     <use style="fill:#d62728;stroke:#d62728;" x="127.60085" xlink:href="#m71eae82c99" y="156.77575"/>
    </g>
   </g>
   <g id="122A">
    <g clip-path="url(#p5274592132)">
     <use style="fill:#9467bd;stroke:#9467bd;" x="123.925163" xlink:href="#m7a583883e8" y="156.77575"/>
    </g>
   </g>
   <g id="123A">
    <g clip-path="url(#p5274592132)">
     <use style="fill:#8c564b;stroke:#8c564b;" x="111.979183" xlink:href="#m680886972e" y="288.513155"/>
    </g>
   </g>
   <g id="124A">
    <g clip-path="url(#p5274592132)">
     <use style="fill:#e377c2;stroke:#e377c2;" x="152.411733" xlink:href="#m16bcf780fa" y="161.112676"/>
    </g>
   </g>
   <g id="125A">
    <g clip-path="url(#p5274592132)">
     <use style="fill:#7f7f7f;stroke:#7f7f7f;" x="126.681928" xlink:href="#m76d3b2393c" y="184.705552"/>
    </g>
   </g>
   <g id="126A">
    <g clip-path="url(#p5274592132)">
     <use style="fill:#bcbd22;stroke:#bcbd22;" x="128.519771" xlink:href="#m8d86a74ab6" y="202.280109"/>
    </g>
   </g>
   <g id="127A">
    <g clip-path="url(#p5274592132)">
     <use style="fill:#17becf;stroke:#17becf;" x="127.60085" xlink:href="#md515ad19c7" y="225.632786"/>
    </g>
   </g>
   <g id="128A">
    <g clip-path="url(#p5274592132)">
     <use style="fill:#1f77b4;stroke:#1f77b4;" x="113.817026" xlink:href="#mfeb980de5d" y="156.77575"/>
    </g>
   </g>
   <g id="129A">
    <g clip-path="url(#p5274592132)">
     <use style="fill:#ff7f0e;stroke:#ff7f0e;" x="264.520166" xlink:href="#m59a6282a05" y="158.987808"/>
    </g>
   </g>
   <g id="130A">
    <g clip-path="url(#p5274592132)">
     <use style="fill:#2ca02c;stroke:#2ca02c;" x="260.84448" xlink:href="#m19ba69062d" y="156.77575"/>
    </g>
   </g>
   <g id="131A">
    <g clip-path="url(#p5274592132)">
     <use style="fill:#d62728;stroke:#d62728;" x="129.438693" xlink:href="#m71eae82c99" y="156.77575"/>
    </g>
   </g>
   <g id="132A">
    <g clip-path="url(#p5274592132)">
     <use style="fill:#9467bd;stroke:#9467bd;" x="140.465752" xlink:href="#m7a583883e8" y="156.17031"/>
    </g>
   </g>
   <g id="133A">
    <g clip-path="url(#p5274592132)">
     <use style="fill:#8c564b;stroke:#8c564b;" x="140.465752" xlink:href="#m680886972e" y="240.170755"/>
    </g>
   </g>
   <g id="134A">
    <g clip-path="url(#p5274592132)">
     <use style="fill:#e377c2;stroke:#e377c2;" x="140.465752" xlink:href="#m16bcf780fa" y="192.436153"/>
    </g>
   </g>
   <g id="135A">
    <g clip-path="url(#p5274592132)">
     <use style="fill:#7f7f7f;stroke:#7f7f7f;" x="140.465752" xlink:href="#m76d3b2393c" y="156.77575"/>
    </g>
   </g>
   <g id="136A">
    <g clip-path="url(#p5274592132)">
     <use style="fill:#bcbd22;stroke:#bcbd22;" x="131.276536" xlink:href="#m8d86a74ab6" y="156.77575"/>
    </g>
   </g>
   <g id="137A">
    <g clip-path="url(#p5274592132)">
     <use style="fill:#17becf;stroke:#17becf;" x="131.276536" xlink:href="#md515ad19c7" y="156.77575"/>
    </g>
   </g>
   <g id="138A">
    <g clip-path="url(#p5274592132)">
     <use style="fill:#1f77b4;stroke:#1f77b4;" x="148.736046" xlink:href="#mfeb980de5d" y="204.326717"/>
    </g>
   </g>
   <g id="137B">
    <g clip-path="url(#p5274592132)">
     <use style="fill:#ff7f0e;stroke:#ff7f0e;" x="131.276536" xlink:href="#m59a6282a05" y="191.991587"/>
    </g>
   </g>
   <g id="136B">
    <g clip-path="url(#p5274592132)">
     <use style="fill:#2ca02c;stroke:#2ca02c;" x="131.276536" xlink:href="#m19ba69062d" y="171.347821"/>
    </g>
   </g>
   <g id="142A">
    <g clip-path="url(#p5274592132)">
     <use style="fill:#d62728;stroke:#d62728;" x="112.898104" xlink:href="#m71eae82c99" y="156.77575"/>
    </g>
   </g>
   <g id="matplotlib.axis_1">
    <g id="xtick_1">
     <g id="line2d_1">
      <defs>
       <path d="M 0 0 
L 0 3.5 
" id="m989b9ddd67" style="stroke:#000000;stroke-width:0.8;"/>
      </defs>
      <g>
       <use style="stroke:#000000;stroke-width:0.8;" x="72.465554" xlink:href="#m989b9ddd67" y="303.64"/>
      </g>
     </g>
     <g id="text_1">
      <text style="font-family:DejaVu Sans;font-size:10px;font-style:normal;font-weight:normal;text-anchor:middle;" transform="rotate(-0, 72.465554, 318.238437)" x="72.465554" y="318.238437">0</text>
     </g>
    </g>
    <g id="xtick_2">
     <g id="line2d_2">
      <g>
       <use style="stroke:#000000;stroke-width:0.8;" x="118.411634" xlink:href="#m989b9ddd67" y="303.64"/>
      </g>
     </g>
     <g id="text_2">
      <text style="font-family:DejaVu Sans;font-size:10px;font-style:normal;font-weight:normal;text-anchor:middle;" transform="rotate(-0, 118.411634, 318.238437)" x="118.411634" y="318.238437">50</text>
     </g>
    </g>
    <g id="xtick_3">
     <g id="line2d_3">
      <g>
       <use style="stroke:#000000;stroke-width:0.8;" x="164.357713" xlink:href="#m989b9ddd67" y="303.64"/>
      </g>
     </g>
     <g id="text_3">
      <text style="font-family:DejaVu Sans;font-size:10px;font-style:normal;font-weight:normal;text-anchor:middle;" transform="rotate(-0, 164.357713, 318.238437)" x="164.357713" y="318.238437">100</text>
     </g>
    </g>
    <g id="xtick_4">
     <g id="line2d_4">
      <g>
       <use style="stroke:#000000;stroke-width:0.8;" x="210.303793" xlink:href="#m989b9ddd67" y="303.64"/>
      </g>
     </g>
     <g id="text_4">
      <text style="font-family:DejaVu Sans;font-size:10px;font-style:normal;font-weight:normal;text-anchor:middle;" transform="rotate(-0, 210.303793, 318.238437)" x="210.303793" y="318.238437">150</text>
     </g>
    </g>
    <g id="xtick_5">
     <g id="line2d_5">
      <g>
       <use style="stroke:#000000;stroke-width:0.8;" x="256.249872" xlink:href="#m989b9ddd67" y="303.64"/>
      </g>
     </g>
     <g id="text_5">
      <text style="font-family:DejaVu Sans;font-size:10px;font-style:normal;font-weight:normal;text-anchor:middle;" transform="rotate(-0, 256.249872, 318.238437)" x="256.249872" y="318.238437">200</text>
     </g>
    </g>
    <g id="xtick_6">
     <g id="line2d_6">
      <g>
       <use style="stroke:#000000;stroke-width:0.8;" x="302.195951" xlink:href="#m989b9ddd67" y="303.64"/>
      </g>
     </g>
     <g id="text_6">
      <text style="font-family:DejaVu Sans;font-size:10px;font-style:normal;font-weight:normal;text-anchor:middle;" transform="rotate(-0, 302.195951, 318.238437)" x="302.195951" y="318.238437">250</text>
     </g>
    </g>
    <g id="xtick_7">
     <g id="line2d_7">
      <g>
       <use style="stroke:#000000;stroke-width:0.8;" x="348.142031" xlink:href="#m989b9ddd67" y="303.64"/>
      </g>
     </g>
     <g id="text_7">
      <text style="font-family:DejaVu Sans;font-size:10px;font-style:normal;font-weight:normal;text-anchor:middle;" transform="rotate(-0, 348.142031, 318.238437)" x="348.142031" y="318.238437">300</text>
     </g>
    </g>
    <g id="xtick_8">
     <g id="line2d_8">
      <g>
       <use style="stroke:#000000;stroke-width:0.8;" x="394.08811" xlink:href="#m989b9ddd67" y="303.64"/>
      </g>
     </g>
     <g id="text_8">
      <text style="font-family:DejaVu Sans;font-size:10px;font-style:normal;font-weight:normal;text-anchor:middle;" transform="rotate(-0, 394.08811, 318.238437)" x="394.08811" y="318.238437">350</text>
     </g>
    </g>
    <g id="xtick_9">
     <g id="line2d_9">
      <g>
       <use style="stroke:#000000;stroke-width:0.8;" x="440.03419" xlink:href="#m989b9ddd67" y="303.64"/>
      </g>
     </g>
     <g id="text_9">
      <text style="font-family:DejaVu Sans;font-size:10px;font-style:normal;font-weight:normal;text-anchor:middle;" transform="rotate(-0, 440.03419, 318.238437)" x="440.03419" y="318.238437">400</text>
     </g>
    </g>
    <g id="text_10">
     <text style="font-family:DejaVu Sans;font-size:10px;font-style:normal;font-weight:normal;text-anchor:middle;" transform="rotate(-0, 251.116654, 331.916562)" x="251.116654" y="331.916562">Amount of languages tested</text>
    </g>
   </g>
   <g id="matplotlib.axis_2">
    <g id="ytick_1">
     <g id="line2d_10">
      <defs>
       <path d="M 0 0 
L -3.5 0 
" id="m5f8be892ea" style="stroke:#000000;stroke-width:0.8;"/>
      </defs>
      <g>
       <use style="stroke:#000000;stroke-width:0.8;" x="56.09" xlink:href="#m5f8be892ea" y="302.496455"/>
      </g>
     </g>
     <g id="text_11">
      <text style="font-family:DejaVu Sans;font-size:10px;font-style:normal;font-weight:normal;text-anchor:end;" transform="rotate(-0, 49.09, 306.295674)" x="49.09" y="306.295674">−0.4</text>
     </g>
    </g>
    <g id="ytick_2">
     <g id="line2d_11">
      <g>
       <use style="stroke:#000000;stroke-width:0.8;" x="56.09" xlink:href="#m5f8be892ea" y="266.066279"/>
      </g>
     </g>
     <g id="text_12">
      <text style="font-family:DejaVu Sans;font-size:10px;font-style:normal;font-weight:normal;text-anchor:end;" transform="rotate(-0, 49.09, 269.865497)" x="49.09" y="269.865497">−0.3</text>
     </g>
    </g>
    <g id="ytick_3">
     <g id="line2d_12">
      <g>
       <use style="stroke:#000000;stroke-width:0.8;" x="56.09" xlink:href="#m5f8be892ea" y="229.636103"/>
      </g>
     </g>
     <g id="text_13">
      <text style="font-family:DejaVu Sans;font-size:10px;font-style:normal;font-weight:normal;text-anchor:end;" transform="rotate(-0, 49.09, 233.435321)" x="49.09" y="233.435321">−0.2</text>
     </g>
    </g>
    <g id="ytick_4">
     <g id="line2d_13">
      <g>
       <use style="stroke:#000000;stroke-width:0.8;" x="56.09" xlink:href="#m5f8be892ea" y="193.205926"/>
      </g>
     </g>
     <g id="text_14">
      <text style="font-family:DejaVu Sans;font-size:10px;font-style:normal;font-weight:normal;text-anchor:end;" transform="rotate(-0, 49.09, 197.005145)" x="49.09" y="197.005145">−0.1</text>
     </g>
    </g>
    <g id="ytick_5">
     <g id="line2d_14">
      <g>
       <use style="stroke:#000000;stroke-width:0.8;" x="56.09" xlink:href="#m5f8be892ea" y="156.77575"/>
      </g>
     </g>
     <g id="text_15">
      <text style="font-family:DejaVu Sans;font-size:10px;font-style:normal;font-weight:normal;text-anchor:end;" transform="rotate(-0, 49.09, 160.574969)" x="49.09" y="160.574969">0.0</text>
     </g>
    </g>
    <g id="ytick_6">
     <g id="line2d_15">
      <g>
       <use style="stroke:#000000;stroke-width:0.8;" x="56.09" xlink:href="#m5f8be892ea" y="120.345574"/>
      </g>
     </g>
     <g id="text_16">
      <text style="font-family:DejaVu Sans;font-size:10px;font-style:normal;font-weight:normal;text-anchor:end;" transform="rotate(-0, 49.09, 124.144793)" x="49.09" y="124.144793">0.1</text>
     </g>
    </g>
    <g id="ytick_7">
     <g id="line2d_16">
      <g>
       <use style="stroke:#000000;stroke-width:0.8;" x="56.09" xlink:href="#m5f8be892ea" y="83.915398"/>
      </g>
     </g>
     <g id="text_17">
      <text style="font-family:DejaVu Sans;font-size:10px;font-style:normal;font-weight:normal;text-anchor:end;" transform="rotate(-0, 49.09, 87.714616)" x="49.09" y="87.714616">0.2</text>
     </g>
    </g>
    <g id="ytick_8">
     <g id="line2d_17">
      <g>
       <use style="stroke:#000000;stroke-width:0.8;" x="56.09" xlink:href="#m5f8be892ea" y="47.485222"/>
      </g>
     </g>
     <g id="text_18">
      <text style="font-family:DejaVu Sans;font-size:10px;font-style:normal;font-weight:normal;text-anchor:end;" transform="rotate(-0, 49.09, 51.28444)" x="49.09" y="51.28444">0.3</text>
     </g>
    </g>
    <g id="text_19">
     <text style="font-family:DejaVu Sans;font-size:10px;font-style:normal;font-weight:normal;text-anchor:middle;" transform="rotate(-90, 18.7275, 158.48)" x="18.7275" y="158.48">Score - base</text>
    </g>
   </g>
   <g id="line2d_18">
    <path clip-path="url(#p5274592132)" d="M 76.141241 166.486143 
L 81.65477 166.427352 
L 87.1683 166.368562 
L 89.006143 166.348965 
L 102.789967 166.201989 
L 109.222418 166.1334 
L 110.141339 166.123601 
L 111.979183 166.104004 
L 112.898104 166.094206 
L 113.817026 166.084407 
L 115.654869 166.064811 
L 116.573791 166.055012 
L 123.006242 165.986423 
L 123.925163 165.976625 
L 124.844085 165.966826 
L 126.681928 165.947229 
L 127.60085 165.937431 
L 128.519771 165.927633 
L 129.438693 165.917834 
L 130.357614 165.908036 
L 131.276536 165.898237 
L 132.195458 165.888439 
L 133.114379 165.87864 
L 134.033301 165.868842 
L 136.790066 165.839447 
L 140.465752 165.800253 
L 141.384673 165.790454 
L 142.303595 165.780656 
L 143.222517 165.770858 
L 144.141438 165.761059 
L 146.898203 165.731664 
L 147.817125 165.721865 
L 148.736046 165.712067 
L 149.654968 165.702269 
L 152.411733 165.672873 
L 153.330654 165.663075 
L 158.844184 165.604284 
L 160.682027 165.584687 
L 166.195556 165.525897 
L 168.952321 165.496502 
L 174.465851 165.437711 
L 175.384772 165.427913 
L 179.060459 165.388719 
L 180.898302 165.369122 
L 182.736145 165.349525 
L 183.655067 165.339727 
L 184.573988 165.329928 
L 186.411831 165.310331 
L 188.249675 165.290735 
L 189.168596 165.280936 
L 192.844282 165.241742 
L 193.763204 165.231944 
L 195.601047 165.212347 
L 196.519969 165.202549 
L 199.276734 165.173153 
L 204.790263 165.114363 
L 210.303793 165.055572 
L 214.898401 165.00658 
L 221.330852 164.937991 
L 222.249773 164.928193 
L 224.087616 164.908596 
L 227.763303 164.869402 
L 228.682224 164.859604 
L 230.520068 164.840007 
L 245.222813 164.683232 
L 253.493107 164.595046 
L 257.168794 164.555852 
L 260.84448 164.516659 
L 264.520166 164.477465 
L 291.168892 164.19331 
L 296.682422 164.13452 
L 301.27703 164.085528 
L 303.114873 164.065931 
L 313.223011 163.958148 
L 314.141932 163.94835 
L 319.655462 163.889559 
L 321.493305 163.869962 
L 336.19605 163.713187 
L 351.817717 163.546614 
L 352.736639 163.536816 
L 355.493404 163.50742 
L 363.763698 163.419235 
L 369.277227 163.360444 
L 372.033992 163.331049 
L 388.574581 163.154677 
L 391.331346 163.125282 
L 396.844875 163.066491 
L 404.196248 162.988104 
L 424.412523 162.772538 
L 426.250366 162.752941 
" style="fill:none;stroke:#1f77b4;stroke-linecap:square;stroke-width:1.5;"/>
   </g>
   <g id="patch_3">
    <path d="M 56.09 303.64 
L 56.09 13.32 
" style="fill:none;stroke:#000000;stroke-linecap:square;stroke-linejoin:miter;stroke-width:0.8;"/>
   </g>
   <g id="patch_4">
    <path d="M 446.143309 303.64 
L 446.143309 13.32 
" style="fill:none;stroke:#000000;stroke-linecap:square;stroke-linejoin:miter;stroke-width:0.8;"/>
   </g>
   <g id="patch_5">
    <path d="M 56.09 303.64 
L 446.143309 303.64 
" style="fill:none;stroke:#000000;stroke-linecap:square;stroke-linejoin:miter;stroke-width:0.8;"/>
   </g>
   <g id="patch_6">
    <path d="M 56.09 13.32 
L 446.143309 13.32 
" style="fill:none;stroke:#000000;stroke-linecap:square;stroke-linejoin:miter;stroke-width:0.8;"/>
   </g>
  </g>
 </g>
 <defs>
  <clipPath id="p5274592132">
   <rect height="290.32" width="390.053309" x="56.09" y="13.32"/>
  </clipPath>
 </defs>
</svg>
