<?xml version="1.0" encoding="utf-8" standalone="no"?>
<!DOCTYPE svg PUBLIC "-//W3C//DTD SVG 1.1//EN"
  "http://www.w3.org/Graphics/SVG/1.1/DTD/svg11.dtd">
<!-- Created with matplotlib (http://matplotlib.org/) -->
<svg height="345.6pt" version="1.1" viewBox="0 0 460.8 345.6" width="460.8pt" xmlns="http://www.w3.org/2000/svg" xmlns:xlink="http://www.w3.org/1999/xlink">
 <defs>
  <style type="text/css">
*{stroke-linecap:butt;stroke-linejoin:round;}
  </style>
 </defs>
 <g id="figure_1">
  <g id="patch_1">
   <path d="M 0 345.6 
L 460.8 345.6 
L 460.8 0 
L 0 0 
z
" style="fill:#ffffff;"/>
  </g>
  <g id="axes_1">
   <g id="patch_2">
    <path d="M 56.09 303.64 
L 442.293192 303.64 
L 442.293192 13.32 
L 56.09 13.32 
z
" style="fill:#ffffff;"/>
   </g>
   <g id="44A">
    <defs>
     <path d="M 0 3 
C 0.795609 3 1.55874 2.683901 2.12132 2.12132 
C 2.683901 1.55874 3 0.795609 3 0 
C 3 -0.795609 2.683901 -1.55874 2.12132 -2.12132 
C 1.55874 -2.683901 0.795609 -3 0 -3 
C -0.795609 -3 -1.55874 -2.683901 -2.12132 -2.12132 
C -2.683901 -1.55874 -3 -0.795609 -3 0 
C -3 0.795609 -2.683901 1.55874 -2.12132 2.12132 
C -1.55874 2.683901 -0.795609 3 0 3 
z
" id="m067d23b9f1" style="stroke:#1f77b4;"/>
    </defs>
    <g clip-path="url(#pf147b598e3)">
     <use style="fill:#1f77b4;stroke:#1f77b4;" x="194.392622" xlink:href="#m067d23b9f1" y="163.388021"/>
    </g>
   </g>
   <g id="42A">
    <defs>
     <path d="M 0 3 
C 0.795609 3 1.55874 2.683901 2.12132 2.12132 
C 2.683901 1.55874 3 0.795609 3 0 
C 3 -0.795609 2.683901 -1.55874 2.12132 -2.12132 
C 1.55874 -2.683901 0.795609 -3 0 -3 
C -0.795609 -3 -1.55874 -2.683901 -2.12132 -2.12132 
C -2.683901 -1.55874 -3 -0.795609 -3 0 
C -3 0.795609 -2.683901 1.55874 -2.12132 2.12132 
C -1.55874 2.683901 -0.795609 3 0 3 
z
" id="m4bb8b2180a" style="stroke:#ff7f0e;"/>
    </defs>
    <g clip-path="url(#pf147b598e3)">
     <use style="fill:#ff7f0e;stroke:#ff7f0e;" x="112.387483" xlink:href="#m4bb8b2180a" y="157.999798"/>
    </g>
   </g>
   <g id="39A">
    <defs>
     <path d="M 0 3 
C 0.795609 3 1.55874 2.683901 2.12132 2.12132 
C 2.683901 1.55874 3 0.795609 3 0 
C 3 -0.795609 2.683901 -1.55874 2.12132 -2.12132 
C 1.55874 -2.683901 0.795609 -3 0 -3 
C -0.795609 -3 -1.55874 -2.683901 -2.12132 -2.12132 
C -2.683901 -1.55874 -3 -0.795609 -3 0 
C -3 0.795609 -2.683901 1.55874 -2.12132 2.12132 
C -1.55874 2.683901 -0.795609 3 0 3 
z
" id="md2bc40aaef" style="stroke:#2ca02c;"/>
    </defs>
    <g clip-path="url(#pf147b598e3)">
     <use style="fill:#2ca02c;stroke:#2ca02c;" x="116.48774" xlink:href="#md2bc40aaef" y="166.206476"/>
    </g>
   </g>
   <g id="30A">
    <defs>
     <path d="M 0 3 
C 0.795609 3 1.55874 2.683901 2.12132 2.12132 
C 2.683901 1.55874 3 0.795609 3 0 
C 3 -0.795609 2.683901 -1.55874 2.12132 -2.12132 
C 1.55874 -2.683901 0.795609 -3 0 -3 
C -0.795609 -3 -1.55874 -2.683901 -2.12132 -2.12132 
C -2.683901 -1.55874 -3 -0.795609 -3 0 
C -3 0.795609 -2.683901 1.55874 -2.12132 2.12132 
C -1.55874 2.683901 -0.795609 3 0 3 
z
" id="mb72f13442a" style="stroke:#d62728;"/>
    </defs>
    <g clip-path="url(#pf147b598e3)">
     <use style="fill:#d62728;stroke:#d62728;" x="126.055006" xlink:href="#mb72f13442a" y="169.853888"/>
    </g>
   </g>
   <g id="41A">
    <defs>
     <path d="M 0 3 
C 0.795609 3 1.55874 2.683901 2.12132 2.12132 
C 2.683901 1.55874 3 0.795609 3 0 
C 3 -0.795609 2.683901 -1.55874 2.12132 -2.12132 
C 1.55874 -2.683901 0.795609 -3 0 -3 
C -0.795609 -3 -1.55874 -2.683901 -2.12132 -2.12132 
C -2.683901 -1.55874 -3 -0.795609 -3 0 
C -3 0.795609 -2.683901 1.55874 -2.12132 2.12132 
C -1.55874 2.683901 -0.795609 3 0 3 
z
" id="m3e95fb93c3" style="stroke:#9467bd;"/>
    </defs>
    <g clip-path="url(#pf147b598e3)">
     <use style="fill:#9467bd;stroke:#9467bd;" x="119.221245" xlink:href="#m3e95fb93c3" y="167.043698"/>
    </g>
   </g>
   <g id="53A">
    <defs>
     <path d="M 0 3 
C 0.795609 3 1.55874 2.683901 2.12132 2.12132 
C 2.683901 1.55874 3 0.795609 3 0 
C 3 -0.795609 2.683901 -1.55874 2.12132 -2.12132 
C 1.55874 -2.683901 0.795609 -3 0 -3 
C -0.795609 -3 -1.55874 -2.683901 -2.12132 -2.12132 
C -2.683901 -1.55874 -3 -0.795609 -3 0 
C -3 0.795609 -2.683901 1.55874 -2.12132 2.12132 
C -1.55874 2.683901 -0.795609 3 0 3 
z
" id="mbcc3ede754" style="stroke:#8c564b;"/>
    </defs>
    <g clip-path="url(#pf147b598e3)">
     <use style="fill:#8c564b;stroke:#8c564b;" x="183.458603" xlink:href="#mbcc3ede754" y="227.42989"/>
    </g>
   </g>
   <g id="47A">
    <defs>
     <path d="M 0 3 
C 0.795609 3 1.55874 2.683901 2.12132 2.12132 
C 2.683901 1.55874 3 0.795609 3 0 
C 3 -0.795609 2.683901 -1.55874 2.12132 -2.12132 
C 1.55874 -2.683901 0.795609 -3 0 -3 
C -0.795609 -3 -1.55874 -2.683901 -2.12132 -2.12132 
C -2.683901 -1.55874 -3 -0.795609 -3 0 
C -3 0.795609 -2.683901 1.55874 -2.12132 2.12132 
C -1.55874 2.683901 -0.795609 3 0 3 
z
" id="m77947c68f4" style="stroke:#e377c2;"/>
    </defs>
    <g clip-path="url(#pf147b598e3)">
     <use style="fill:#e377c2;stroke:#e377c2;" x="117.854492" xlink:href="#m77947c68f4" y="27.137924"/>
    </g>
   </g>
   <g id="45A">
    <defs>
     <path d="M 0 3 
C 0.795609 3 1.55874 2.683901 2.12132 2.12132 
C 2.683901 1.55874 3 0.795609 3 0 
C 3 -0.795609 2.683901 -1.55874 2.12132 -2.12132 
C 1.55874 -2.683901 0.795609 -3 0 -3 
C -0.795609 -3 -1.55874 -2.683901 -2.12132 -2.12132 
C -2.683901 -1.55874 -3 -0.795609 -3 0 
C -3 0.795609 -2.683901 1.55874 -2.12132 2.12132 
C -1.55874 2.683901 -0.795609 3 0 3 
z
" id="m77791b9420" style="stroke:#7f7f7f;"/>
    </defs>
    <g clip-path="url(#pf147b598e3)">
     <use style="fill:#7f7f7f;stroke:#7f7f7f;" x="136.989025" xlink:href="#m77791b9420" y="288.648807"/>
    </g>
   </g>
   <g id="51A">
    <defs>
     <path d="M 0 3 
C 0.795609 3 1.55874 2.683901 2.12132 2.12132 
C 2.683901 1.55874 3 0.795609 3 0 
C 3 -0.795609 2.683901 -1.55874 2.12132 -2.12132 
C 1.55874 -2.683901 0.795609 -3 0 -3 
C -0.795609 -3 -1.55874 -2.683901 -2.12132 -2.12132 
C -2.683901 -1.55874 -3 -0.795609 -3 0 
C -3 0.795609 -2.683901 1.55874 -2.12132 2.12132 
C -1.55874 2.683901 -0.795609 3 0 3 
z
" id="ma7c78af5e6" style="stroke:#bcbd22;"/>
    </defs>
    <g clip-path="url(#pf147b598e3)">
     <use style="fill:#bcbd22;stroke:#bcbd22;" x="388.47145" xlink:href="#ma7c78af5e6" y="116.224264"/>
    </g>
   </g>
   <g id="31A">
    <defs>
     <path d="M 0 3 
C 0.795609 3 1.55874 2.683901 2.12132 2.12132 
C 2.683901 1.55874 3 0.795609 3 0 
C 3 -0.795609 2.683901 -1.55874 2.12132 -2.12132 
C 1.55874 -2.683901 0.795609 -3 0 -3 
C -0.795609 -3 -1.55874 -2.683901 -2.12132 -2.12132 
C -2.683901 -1.55874 -3 -0.795609 -3 0 
C -3 0.795609 -2.683901 1.55874 -2.12132 2.12132 
C -1.55874 2.683901 -0.795609 3 0 3 
z
" id="m4d96cb128a" style="stroke:#17becf;"/>
    </defs>
    <g clip-path="url(#pf147b598e3)">
     <use style="fill:#17becf;stroke:#17becf;" x="126.055006" xlink:href="#m4d96cb128a" y="175.780933"/>
    </g>
   </g>
   <g id="40A">
    <g clip-path="url(#pf147b598e3)">
     <use style="fill:#1f77b4;stroke:#1f77b4;" x="116.48774" xlink:href="#m067d23b9f1" y="157.555269"/>
    </g>
   </g>
   <g id="52A">
    <g clip-path="url(#pf147b598e3)">
     <use style="fill:#ff7f0e;stroke:#ff7f0e;" x="161.590566" xlink:href="#m4bb8b2180a" y="217.88765"/>
    </g>
   </g>
   <g id="57A">
    <g clip-path="url(#pf147b598e3)">
     <use style="fill:#2ca02c;stroke:#2ca02c;" x="370.70367" xlink:href="#md2bc40aaef" y="184.487647"/>
    </g>
   </g>
   <g id="34A">
    <g clip-path="url(#pf147b598e3)">
     <use style="fill:#d62728;stroke:#d62728;" x="136.989025" xlink:href="#mb72f13442a" y="238.083121"/>
    </g>
   </g>
   <g id="49A">
    <g clip-path="url(#pf147b598e3)">
     <use style="fill:#9467bd;stroke:#9467bd;" x="149.289795" xlink:href="#m3e95fb93c3" y="157.999798"/>
    </g>
   </g>
   <g id="55A">
    <g clip-path="url(#pf147b598e3)">
     <use style="fill:#8c564b;stroke:#8c564b;" x="169.79108" xlink:href="#mbcc3ede754" y="163.926843"/>
    </g>
   </g>
   <g id="32A">
    <g clip-path="url(#pf147b598e3)">
     <use style="fill:#e377c2;stroke:#e377c2;" x="126.055006" xlink:href="#m77947c68f4" y="188.820433"/>
    </g>
   </g>
   <g id="35A">
    <g clip-path="url(#pf147b598e3)">
     <use style="fill:#7f7f7f;stroke:#7f7f7f;" x="135.622272" xlink:href="#m77791b9420" y="157.999798"/>
    </g>
   </g>
   <g id="56A">
    <g clip-path="url(#pf147b598e3)">
     <use style="fill:#bcbd22;stroke:#bcbd22;" x="75.485171" xlink:href="#ma7c78af5e6" y="95.511807"/>
    </g>
   </g>
   <g id="33A">
    <g clip-path="url(#pf147b598e3)">
     <use style="fill:#17becf;stroke:#17becf;" x="422.640258" xlink:href="#m4d96cb128a" y="213.473873"/>
    </g>
   </g>
   <g id="43A">
    <g clip-path="url(#pf147b598e3)">
     <use style="fill:#1f77b4;stroke:#1f77b4;" x="121.954749" xlink:href="#m067d23b9f1" y="163.926843"/>
    </g>
   </g>
   <g id="37A">
    <g clip-path="url(#pf147b598e3)">
     <use style="fill:#ff7f0e;stroke:#ff7f0e;" x="287.331779" xlink:href="#m4bb8b2180a" y="132.872156"/>
    </g>
   </g>
   <g id="50A">
    <g clip-path="url(#pf147b598e3)">
     <use style="fill:#2ca02c;stroke:#2ca02c;" x="149.289795" xlink:href="#md2bc40aaef" y="130.207435"/>
    </g>
   </g>
   <g id="38A">
    <g clip-path="url(#pf147b598e3)">
     <use style="fill:#d62728;stroke:#d62728;" x="265.463742" xlink:href="#mb72f13442a" y="218.786464"/>
    </g>
   </g>
   <g id="48A">
    <g clip-path="url(#pf147b598e3)">
     <use style="fill:#9467bd;stroke:#9467bd;" x="197.126126" xlink:href="#m3e95fb93c3" y="161.556025"/>
    </g>
   </g>
   <g id="54A">
    <g clip-path="url(#pf147b598e3)">
     <use style="fill:#8c564b;stroke:#8c564b;" x="131.522015" xlink:href="#mbcc3ede754" y="225.06008"/>
    </g>
   </g>
   <g id="36A">
    <g clip-path="url(#pf147b598e3)">
     <use style="fill:#e377c2;stroke:#e377c2;" x="134.25552" xlink:href="#m77947c68f4" y="220.233772"/>
    </g>
   </g>
   <g id="46A">
    <g clip-path="url(#pf147b598e3)">
     <use style="fill:#7f7f7f;stroke:#7f7f7f;" x="145.189538" xlink:href="#m77791b9420" y="98.685925"/>
    </g>
   </g>
   <g id="matplotlib.axis_1">
    <g id="xtick_1">
     <g id="line2d_1">
      <defs>
       <path d="M 0 0 
L 0 3.5 
" id="m501539378b" style="stroke:#000000;stroke-width:0.8;"/>
      </defs>
      <g>
       <use style="stroke:#000000;stroke-width:0.8;" x="98.71996" xlink:href="#m501539378b" y="303.64"/>
      </g>
     </g>
     <g id="text_1">
      <text style="font-family:DejaVu Sans;font-size:10px;font-style:normal;font-weight:normal;text-anchor:middle;" transform="rotate(-0, 98.71996, 318.238437)" x="98.71996" y="318.238437">50</text>
     </g>
    </g>
    <g id="xtick_2">
     <g id="line2d_2">
      <g>
       <use style="stroke:#000000;stroke-width:0.8;" x="167.057575" xlink:href="#m501539378b" y="303.64"/>
      </g>
     </g>
     <g id="text_2">
      <text style="font-family:DejaVu Sans;font-size:10px;font-style:normal;font-weight:normal;text-anchor:middle;" transform="rotate(-0, 167.057575, 318.238437)" x="167.057575" y="318.238437">100</text>
     </g>
    </g>
    <g id="xtick_3">
     <g id="line2d_3">
      <g>
       <use style="stroke:#000000;stroke-width:0.8;" x="235.395191" xlink:href="#m501539378b" y="303.64"/>
      </g>
     </g>
     <g id="text_3">
      <text style="font-family:DejaVu Sans;font-size:10px;font-style:normal;font-weight:normal;text-anchor:middle;" transform="rotate(-0, 235.395191, 318.238437)" x="235.395191" y="318.238437">150</text>
     </g>
    </g>
    <g id="xtick_4">
     <g id="line2d_4">
      <g>
       <use style="stroke:#000000;stroke-width:0.8;" x="303.732807" xlink:href="#m501539378b" y="303.64"/>
      </g>
     </g>
     <g id="text_4">
      <text style="font-family:DejaVu Sans;font-size:10px;font-style:normal;font-weight:normal;text-anchor:middle;" transform="rotate(-0, 303.732807, 318.238437)" x="303.732807" y="318.238437">200</text>
     </g>
    </g>
    <g id="xtick_5">
     <g id="line2d_5">
      <g>
       <use style="stroke:#000000;stroke-width:0.8;" x="372.070422" xlink:href="#m501539378b" y="303.64"/>
      </g>
     </g>
     <g id="text_5">
      <text style="font-family:DejaVu Sans;font-size:10px;font-style:normal;font-weight:normal;text-anchor:middle;" transform="rotate(-0, 372.070422, 318.238437)" x="372.070422" y="318.238437">250</text>
     </g>
    </g>
    <g id="xtick_6">
     <g id="line2d_6">
      <g>
       <use style="stroke:#000000;stroke-width:0.8;" x="440.408038" xlink:href="#m501539378b" y="303.64"/>
      </g>
     </g>
     <g id="text_6">
      <text style="font-family:DejaVu Sans;font-size:10px;font-style:normal;font-weight:normal;text-anchor:middle;" transform="rotate(-0, 440.408038, 318.238437)" x="440.408038" y="318.238437">300</text>
     </g>
    </g>
    <g id="text_7">
     <text style="font-family:DejaVu Sans;font-size:10px;font-style:normal;font-weight:normal;text-anchor:middle;" transform="rotate(-0, 249.191596, 331.916562)" x="249.191596" y="331.916562">Amount of languages tested</text>
    </g>
   </g>
   <g id="matplotlib.axis_2">
    <g id="ytick_1">
     <g id="line2d_7">
      <defs>
       <path d="M 0 0 
L -3.5 0 
" id="m3106e74446" style="stroke:#000000;stroke-width:0.8;"/>
      </defs>
      <g>
       <use style="stroke:#000000;stroke-width:0.8;" x="56.09" xlink:href="#m3106e74446" y="264.686611"/>
      </g>
     </g>
     <g id="text_8">
      <text style="font-family:DejaVu Sans;font-size:10px;font-style:normal;font-weight:normal;text-anchor:end;" transform="rotate(-0, 49.09, 268.485829)" x="49.09" y="268.485829">−0.2</text>
     </g>
    </g>
    <g id="ytick_2">
     <g id="line2d_8">
      <g>
       <use style="stroke:#000000;stroke-width:0.8;" x="56.09" xlink:href="#m3106e74446" y="211.343204"/>
      </g>
     </g>
     <g id="text_9">
      <text style="font-family:DejaVu Sans;font-size:10px;font-style:normal;font-weight:normal;text-anchor:end;" transform="rotate(-0, 49.09, 215.142423)" x="49.09" y="215.142423">−0.1</text>
     </g>
    </g>
    <g id="ytick_3">
     <g id="line2d_9">
      <g>
       <use style="stroke:#000000;stroke-width:0.8;" x="56.09" xlink:href="#m3106e74446" y="157.999798"/>
      </g>
     </g>
     <g id="text_10">
      <text style="font-family:DejaVu Sans;font-size:10px;font-style:normal;font-weight:normal;text-anchor:end;" transform="rotate(-0, 49.09, 161.799017)" x="49.09" y="161.799017">0.0</text>
     </g>
    </g>
    <g id="ytick_4">
     <g id="line2d_10">
      <g>
       <use style="stroke:#000000;stroke-width:0.8;" x="56.09" xlink:href="#m3106e74446" y="104.656391"/>
      </g>
     </g>
     <g id="text_11">
      <text style="font-family:DejaVu Sans;font-size:10px;font-style:normal;font-weight:normal;text-anchor:end;" transform="rotate(-0, 49.09, 108.45561)" x="49.09" y="108.45561">0.1</text>
     </g>
    </g>
    <g id="ytick_5">
     <g id="line2d_11">
      <g>
       <use style="stroke:#000000;stroke-width:0.8;" x="56.09" xlink:href="#m3106e74446" y="51.312985"/>
      </g>
     </g>
     <g id="text_12">
      <text style="font-family:DejaVu Sans;font-size:10px;font-style:normal;font-weight:normal;text-anchor:end;" transform="rotate(-0, 49.09, 55.112204)" x="49.09" y="55.112204">0.2</text>
     </g>
    </g>
    <g id="text_13">
     <text style="font-family:DejaVu Sans;font-size:10px;font-style:normal;font-weight:normal;text-anchor:middle;" transform="rotate(-90, 18.7275, 158.48)" x="18.7275" y="158.48">Score - base</text>
    </g>
   </g>
   <g id="line2d_12">
    <path clip-path="url(#pf147b598e3)" d="M 75.485171 165.879456 
L 112.387483 167.750033 
L 116.48774 167.957875 
L 117.854492 168.027156 
L 119.221245 168.096436 
L 121.954749 168.234998 
L 126.055006 168.442839 
L 131.522015 168.719962 
L 134.25552 168.858523 
L 135.622272 168.927804 
L 136.989025 168.997085 
L 145.189538 169.412768 
L 149.289795 169.62061 
L 161.590566 170.244136 
L 169.79108 170.65982 
L 183.458603 171.352626 
L 194.392622 171.906872 
L 197.126126 172.045433 
L 265.463742 175.509465 
L 287.331779 176.617955 
L 370.70367 180.844074 
L 388.47145 181.744723 
L 422.640258 183.476739 
" style="fill:none;stroke:#1f77b4;stroke-linecap:square;stroke-width:1.5;"/>
   </g>
   <g id="patch_3">
    <path d="M 56.09 303.64 
L 56.09 13.32 
" style="fill:none;stroke:#000000;stroke-linecap:square;stroke-linejoin:miter;stroke-width:0.8;"/>
   </g>
   <g id="patch_4">
    <path d="M 442.293192 303.64 
L 442.293192 13.32 
" style="fill:none;stroke:#000000;stroke-linecap:square;stroke-linejoin:miter;stroke-width:0.8;"/>
   </g>
   <g id="patch_5">
    <path d="M 56.09 303.64 
L 442.293192 303.64 
" style="fill:none;stroke:#000000;stroke-linecap:square;stroke-linejoin:miter;stroke-width:0.8;"/>
   </g>
   <g id="patch_6">
    <path d="M 56.09 13.32 
L 442.293192 13.32 
" style="fill:none;stroke:#000000;stroke-linecap:square;stroke-linejoin:miter;stroke-width:0.8;"/>
   </g>
  </g>
 </g>
 <defs>
  <clipPath id="pf147b598e3">
   <rect height="290.32" width="386.203192" x="56.09" y="13.32"/>
  </clipPath>
 </defs>
</svg>
