<?xml version="1.0" encoding="utf-8" standalone="no"?>
<!DOCTYPE svg PUBLIC "-//W3C//DTD SVG 1.1//EN"
  "http://www.w3.org/Graphics/SVG/1.1/DTD/svg11.dtd">
<!-- Created with matplotlib (http://matplotlib.org/) -->
<svg height="345.6pt" version="1.1" viewBox="0 0 460.8 345.6" width="460.8pt" xmlns="http://www.w3.org/2000/svg" xmlns:xlink="http://www.w3.org/1999/xlink">
 <defs>
  <style type="text/css">
*{stroke-linecap:butt;stroke-linejoin:round;}
  </style>
 </defs>
 <g id="figure_1">
  <g id="patch_1">
   <path d="M 0 345.6 
L 460.8 345.6 
L 460.8 0 
L 0 0 
z
" style="fill:#ffffff;"/>
  </g>
  <g id="axes_1">
   <g id="patch_2">
    <path d="M 56.09 303.64 
L 447.48 303.64 
L 447.48 13.32 
L 56.09 13.32 
z
" style="fill:#ffffff;"/>
   </g>
   <g id="2A">
    <defs>
     <path d="M 0 3 
C 0.795609 3 1.55874 2.683901 2.12132 2.12132 
C 2.683901 1.55874 3 0.795609 3 0 
C 3 -0.795609 2.683901 -1.55874 2.12132 -2.12132 
C 1.55874 -2.683901 0.795609 -3 0 -3 
C -0.795609 -3 -1.55874 -2.683901 -2.12132 -2.12132 
C -2.683901 -1.55874 -3 -0.795609 -3 0 
C -3 0.795609 -2.683901 1.55874 -2.12132 2.12132 
C -1.55874 2.683901 -0.795609 3 0 3 
z
" id="mc2b2a502fe" style="stroke:#1f77b4;"/>
    </defs>
    <g clip-path="url(#p6716612651)">
     <use style="fill:#1f77b4;stroke:#1f77b4;" x="419.581096" xlink:href="#mc2b2a502fe" y="234.016984"/>
    </g>
   </g>
   <g id="9A">
    <defs>
     <path d="M 0 3 
C 0.795609 3 1.55874 2.683901 2.12132 2.12132 
C 2.683901 1.55874 3 0.795609 3 0 
C 3 -0.795609 2.683901 -1.55874 2.12132 -2.12132 
C 1.55874 -2.683901 0.795609 -3 0 -3 
C -0.795609 -3 -1.55874 -2.683901 -2.12132 -2.12132 
C -2.683901 -1.55874 -3 -0.795609 -3 0 
C -3 0.795609 -2.683901 1.55874 -2.12132 2.12132 
C -1.55874 2.683901 -0.795609 3 0 3 
z
" id="m59ab890b6f" style="stroke:#ff7f0e;"/>
    </defs>
    <g clip-path="url(#p6716612651)">
     <use style="fill:#ff7f0e;stroke:#ff7f0e;" x="237.663505" xlink:href="#m59ab890b6f" y="235.132892"/>
    </g>
   </g>
   <g id="19A">
    <defs>
     <path d="M 0 3 
C 0.795609 3 1.55874 2.683901 2.12132 2.12132 
C 2.683901 1.55874 3 0.795609 3 0 
C 3 -0.795609 2.683901 -1.55874 2.12132 -2.12132 
C 1.55874 -2.683901 0.795609 -3 0 -3 
C -0.795609 -3 -1.55874 -2.683901 -2.12132 -2.12132 
C -2.683901 -1.55874 -3 -0.795609 -3 0 
C -3 0.795609 -2.683901 1.55874 -2.12132 2.12132 
C -1.55874 2.683901 -0.795609 3 0 3 
z
" id="m5ebfbad166" style="stroke:#2ca02c;"/>
    </defs>
    <g clip-path="url(#p6716612651)">
     <use style="fill:#2ca02c;stroke:#2ca02c;" x="419.581096" xlink:href="#m5ebfbad166" y="224.933146"/>
    </g>
   </g>
   <g id="10A">
    <defs>
     <path d="M 0 3 
C 0.795609 3 1.55874 2.683901 2.12132 2.12132 
C 2.683901 1.55874 3 0.795609 3 0 
C 3 -0.795609 2.683901 -1.55874 2.12132 -2.12132 
C 1.55874 -2.683901 0.795609 -3 0 -3 
C -0.795609 -3 -1.55874 -2.683901 -2.12132 -2.12132 
C -2.683901 -1.55874 -3 -0.795609 -3 0 
C -3 0.795609 -2.683901 1.55874 -2.12132 2.12132 
C -1.55874 2.683901 -0.795609 3 0 3 
z
" id="m74ba1f702d" style="stroke:#d62728;"/>
    </defs>
    <g clip-path="url(#p6716612651)">
     <use style="fill:#d62728;stroke:#d62728;" x="75.098849" xlink:href="#m74ba1f702d" y="224.933146"/>
    </g>
   </g>
   <g id="16A">
    <defs>
     <path d="M 0 3 
C 0.795609 3 1.55874 2.683901 2.12132 2.12132 
C 2.683901 1.55874 3 0.795609 3 0 
C 3 -0.795609 2.683901 -1.55874 2.12132 -2.12132 
C 1.55874 -2.683901 0.795609 -3 0 -3 
C -0.795609 -3 -1.55874 -2.683901 -2.12132 -2.12132 
C -2.683901 -1.55874 -3 -0.795609 -3 0 
C -3 0.795609 -2.683901 1.55874 -2.12132 2.12132 
C -1.55874 2.683901 -0.795609 3 0 3 
z
" id="m43fb1eaf10" style="stroke:#9467bd;"/>
    </defs>
    <g clip-path="url(#p6716612651)">
     <use style="fill:#9467bd;stroke:#9467bd;" x="427.32227" xlink:href="#m43fb1eaf10" y="224.933146"/>
    </g>
   </g>
   <g id="5A">
    <defs>
     <path d="M 0 3 
C 0.795609 3 1.55874 2.683901 2.12132 2.12132 
C 2.683901 1.55874 3 0.795609 3 0 
C 3 -0.795609 2.683901 -1.55874 2.12132 -2.12132 
C 1.55874 -2.683901 0.795609 -3 0 -3 
C -0.795609 -3 -1.55874 -2.683901 -2.12132 -2.12132 
C -2.683901 -1.55874 -3 -0.795609 -3 0 
C -3 0.795609 -2.683901 1.55874 -2.12132 2.12132 
C -1.55874 2.683901 -0.795609 3 0 3 
z
" id="m0aed608190" style="stroke:#8c564b;"/>
    </defs>
    <g clip-path="url(#p6716612651)">
     <use style="fill:#8c564b;stroke:#8c564b;" x="419.581096" xlink:href="#m0aed608190" y="26.640465"/>
    </g>
   </g>
   <g id="8A">
    <defs>
     <path d="M 0 3 
C 0.795609 3 1.55874 2.683901 2.12132 2.12132 
C 2.683901 1.55874 3 0.795609 3 0 
C 3 -0.795609 2.683901 -1.55874 2.12132 -2.12132 
C 1.55874 -2.683901 0.795609 -3 0 -3 
C -0.795609 -3 -1.55874 -2.683901 -2.12132 -2.12132 
C -2.683901 -1.55874 -3 -0.795609 -3 0 
C -3 0.795609 -2.683901 1.55874 -2.12132 2.12132 
C -1.55874 2.683901 -0.795609 3 0 3 
z
" id="m3111805e88" style="stroke:#e377c2;"/>
    </defs>
    <g clip-path="url(#p6716612651)">
     <use style="fill:#e377c2;stroke:#e377c2;" x="419.581096" xlink:href="#m3111805e88" y="228.786383"/>
    </g>
   </g>
   <g id="7A">
    <defs>
     <path d="M 0 3 
C 0.795609 3 1.55874 2.683901 2.12132 2.12132 
C 2.683901 1.55874 3 0.795609 3 0 
C 3 -0.795609 2.683901 -1.55874 2.12132 -2.12132 
C 1.55874 -2.683901 0.795609 -3 0 -3 
C -0.795609 -3 -1.55874 -2.683901 -2.12132 -2.12132 
C -2.683901 -1.55874 -3 -0.795609 -3 0 
C -3 0.795609 -2.683901 1.55874 -2.12132 2.12132 
C -1.55874 2.683901 -0.795609 3 0 3 
z
" id="mbba9031018" style="stroke:#7f7f7f;"/>
    </defs>
    <g clip-path="url(#p6716612651)">
     <use style="fill:#7f7f7f;stroke:#7f7f7f;" x="419.581096" xlink:href="#mbba9031018" y="224.933146"/>
    </g>
   </g>
   <g id="3A">
    <defs>
     <path d="M 0 3 
C 0.795609 3 1.55874 2.683901 2.12132 2.12132 
C 2.683901 1.55874 3 0.795609 3 0 
C 3 -0.795609 2.683901 -1.55874 2.12132 -2.12132 
C 1.55874 -2.683901 0.795609 -3 0 -3 
C -0.795609 -3 -1.55874 -2.683901 -2.12132 -2.12132 
C -2.683901 -1.55874 -3 -0.795609 -3 0 
C -3 0.795609 -2.683901 1.55874 -2.12132 2.12132 
C -1.55874 2.683901 -0.795609 3 0 3 
z
" id="m2905c6a2d3" style="stroke:#bcbd22;"/>
    </defs>
    <g clip-path="url(#p6716612651)">
     <use style="fill:#bcbd22;stroke:#bcbd22;" x="419.581096" xlink:href="#m2905c6a2d3" y="231.51576"/>
    </g>
   </g>
   <g id="17A">
    <defs>
     <path d="M 0 3 
C 0.795609 3 1.55874 2.683901 2.12132 2.12132 
C 2.683901 1.55874 3 0.795609 3 0 
C 3 -0.795609 2.683901 -1.55874 2.12132 -2.12132 
C 1.55874 -2.683901 0.795609 -3 0 -3 
C -0.795609 -3 -1.55874 -2.683901 -2.12132 -2.12132 
C -2.683901 -1.55874 -3 -0.795609 -3 0 
C -3 0.795609 -2.683901 1.55874 -2.12132 2.12132 
C -1.55874 2.683901 -0.795609 3 0 3 
z
" id="m1da182bd2d" style="stroke:#17becf;"/>
    </defs>
    <g clip-path="url(#p6716612651)">
     <use style="fill:#17becf;stroke:#17becf;" x="160.251764" xlink:href="#m1da182bd2d" y="241.100575"/>
    </g>
   </g>
   <g id="4A">
    <g clip-path="url(#p6716612651)">
     <use style="fill:#1f77b4;stroke:#1f77b4;" x="419.581096" xlink:href="#mc2b2a502fe" y="288.51079"/>
    </g>
   </g>
   <g id="13A">
    <g clip-path="url(#p6716612651)">
     <use style="fill:#ff7f0e;stroke:#ff7f0e;" x="346.039942" xlink:href="#m59ab890b6f" y="224.933146"/>
    </g>
   </g>
   <g id="6A">
    <g clip-path="url(#p6716612651)">
     <use style="fill:#2ca02c;stroke:#2ca02c;" x="419.581096" xlink:href="#m5ebfbad166" y="224.933146"/>
    </g>
   </g>
   <g id="11A">
    <g clip-path="url(#p6716612651)">
     <use style="fill:#d62728;stroke:#d62728;" x="415.710509" xlink:href="#m74ba1f702d" y="224.933146"/>
    </g>
   </g>
   <g id="1A">
    <g clip-path="url(#p6716612651)">
     <use style="fill:#9467bd;stroke:#9467bd;" x="415.710509" xlink:href="#m43fb1eaf10" y="184.843995"/>
    </g>
   </g>
   <g id="18A">
    <g clip-path="url(#p6716612651)">
     <use style="fill:#8c564b;stroke:#8c564b;" x="419.581096" xlink:href="#m0aed608190" y="224.933146"/>
    </g>
   </g>
   <g id="14A">
    <g clip-path="url(#p6716612651)">
     <use style="fill:#e377c2;stroke:#e377c2;" x="427.32227" xlink:href="#m3111805e88" y="194.423699"/>
    </g>
   </g>
   <g id="12A">
    <g clip-path="url(#p6716612651)">
     <use style="fill:#7f7f7f;stroke:#7f7f7f;" x="311.204659" xlink:href="#mbba9031018" y="231.206799"/>
    </g>
   </g>
   <g id="15A">
    <g clip-path="url(#p6716612651)">
     <use style="fill:#bcbd22;stroke:#bcbd22;" x="427.32227" xlink:href="#m2905c6a2d3" y="226.329247"/>
    </g>
   </g>
   <g id="matplotlib.axis_1">
    <g id="xtick_1">
     <g id="line2d_1">
      <defs>
       <path d="M 0 0 
L 0 3.5 
" id="m5ea1d26acd" style="stroke:#000000;stroke-width:0.8;"/>
      </defs>
      <g>
       <use style="stroke:#000000;stroke-width:0.8;" x="98.322371" xlink:href="#m5ea1d26acd" y="303.64"/>
      </g>
     </g>
     <g id="text_1">
      <text style="font-family:DejaVu Sans;font-size:10px;font-style:normal;font-weight:normal;text-anchor:middle;" transform="rotate(-0, 98.322371, 318.238437)" x="98.322371" y="318.238437">80</text>
     </g>
    </g>
    <g id="xtick_2">
     <g id="line2d_2">
      <g>
       <use style="stroke:#000000;stroke-width:0.8;" x="175.734112" xlink:href="#m5ea1d26acd" y="303.64"/>
      </g>
     </g>
     <g id="text_2">
      <text style="font-family:DejaVu Sans;font-size:10px;font-style:normal;font-weight:normal;text-anchor:middle;" transform="rotate(-0, 175.734112, 318.238437)" x="175.734112" y="318.238437">100</text>
     </g>
    </g>
    <g id="xtick_3">
     <g id="line2d_3">
      <g>
       <use style="stroke:#000000;stroke-width:0.8;" x="253.145853" xlink:href="#m5ea1d26acd" y="303.64"/>
      </g>
     </g>
     <g id="text_3">
      <text style="font-family:DejaVu Sans;font-size:10px;font-style:normal;font-weight:normal;text-anchor:middle;" transform="rotate(-0, 253.145853, 318.238437)" x="253.145853" y="318.238437">120</text>
     </g>
    </g>
    <g id="xtick_4">
     <g id="line2d_4">
      <g>
       <use style="stroke:#000000;stroke-width:0.8;" x="330.557594" xlink:href="#m5ea1d26acd" y="303.64"/>
      </g>
     </g>
     <g id="text_4">
      <text style="font-family:DejaVu Sans;font-size:10px;font-style:normal;font-weight:normal;text-anchor:middle;" transform="rotate(-0, 330.557594, 318.238437)" x="330.557594" y="318.238437">140</text>
     </g>
    </g>
    <g id="xtick_5">
     <g id="line2d_5">
      <g>
       <use style="stroke:#000000;stroke-width:0.8;" x="407.969335" xlink:href="#m5ea1d26acd" y="303.64"/>
      </g>
     </g>
     <g id="text_5">
      <text style="font-family:DejaVu Sans;font-size:10px;font-style:normal;font-weight:normal;text-anchor:middle;" transform="rotate(-0, 407.969335, 318.238437)" x="407.969335" y="318.238437">160</text>
     </g>
    </g>
    <g id="text_6">
     <text style="font-family:DejaVu Sans;font-size:10px;font-style:normal;font-weight:normal;text-anchor:middle;" transform="rotate(-0, 251.785, 331.916562)" x="251.785" y="331.916562">Amount of languages tested</text>
    </g>
   </g>
   <g id="matplotlib.axis_2">
    <g id="ytick_1">
     <g id="line2d_6">
      <defs>
       <path d="M 0 0 
L -3.5 0 
" id="mde7b973b41" style="stroke:#000000;stroke-width:0.8;"/>
      </defs>
      <g>
       <use style="stroke:#000000;stroke-width:0.8;" x="56.09" xlink:href="#mde7b973b41" y="282.731703"/>
      </g>
     </g>
     <g id="text_7">
      <text style="font-family:DejaVu Sans;font-size:10px;font-style:normal;font-weight:normal;text-anchor:end;" transform="rotate(-0, 49.09, 286.530921)" x="49.09" y="286.530921">−0.1</text>
     </g>
    </g>
    <g id="ytick_2">
     <g id="line2d_7">
      <g>
       <use style="stroke:#000000;stroke-width:0.8;" x="56.09" xlink:href="#mde7b973b41" y="224.933146"/>
      </g>
     </g>
     <g id="text_8">
      <text style="font-family:DejaVu Sans;font-size:10px;font-style:normal;font-weight:normal;text-anchor:end;" transform="rotate(-0, 49.09, 228.732365)" x="49.09" y="228.732365">0.0</text>
     </g>
    </g>
    <g id="ytick_3">
     <g id="line2d_8">
      <g>
       <use style="stroke:#000000;stroke-width:0.8;" x="56.09" xlink:href="#mde7b973b41" y="167.13459"/>
      </g>
     </g>
     <g id="text_9">
      <text style="font-family:DejaVu Sans;font-size:10px;font-style:normal;font-weight:normal;text-anchor:end;" transform="rotate(-0, 49.09, 170.933809)" x="49.09" y="170.933809">0.1</text>
     </g>
    </g>
    <g id="ytick_4">
     <g id="line2d_9">
      <g>
       <use style="stroke:#000000;stroke-width:0.8;" x="56.09" xlink:href="#mde7b973b41" y="109.336034"/>
      </g>
     </g>
     <g id="text_10">
      <text style="font-family:DejaVu Sans;font-size:10px;font-style:normal;font-weight:normal;text-anchor:end;" transform="rotate(-0, 49.09, 113.135253)" x="49.09" y="113.135253">0.2</text>
     </g>
    </g>
    <g id="ytick_5">
     <g id="line2d_10">
      <g>
       <use style="stroke:#000000;stroke-width:0.8;" x="56.09" xlink:href="#mde7b973b41" y="51.537478"/>
      </g>
     </g>
     <g id="text_11">
      <text style="font-family:DejaVu Sans;font-size:10px;font-style:normal;font-weight:normal;text-anchor:end;" transform="rotate(-0, 49.09, 55.336696)" x="49.09" y="55.336696">0.3</text>
     </g>
    </g>
    <g id="text_12">
     <text style="font-family:DejaVu Sans;font-size:10px;font-style:normal;font-weight:normal;text-anchor:middle;" transform="rotate(-90, 18.7275, 158.48)" x="18.7275" y="158.48">Score - base</text>
    </g>
   </g>
   <g id="line2d_11">
    <path clip-path="url(#p6716612651)" d="M 75.098849 239.419751 
L 160.251764 232.918675 
L 237.663505 227.008605 
L 311.204659 221.39404 
L 346.039942 218.734508 
L 415.710509 213.415446 
L 419.581096 213.119942 
L 427.32227 212.528936 
" style="fill:none;stroke:#1f77b4;stroke-linecap:square;stroke-width:1.5;"/>
   </g>
   <g id="patch_3">
    <path d="M 56.09 303.64 
L 56.09 13.32 
" style="fill:none;stroke:#000000;stroke-linecap:square;stroke-linejoin:miter;stroke-width:0.8;"/>
   </g>
   <g id="patch_4">
    <path d="M 447.48 303.64 
L 447.48 13.32 
" style="fill:none;stroke:#000000;stroke-linecap:square;stroke-linejoin:miter;stroke-width:0.8;"/>
   </g>
   <g id="patch_5">
    <path d="M 56.09 303.64 
L 447.48 303.64 
" style="fill:none;stroke:#000000;stroke-linecap:square;stroke-linejoin:miter;stroke-width:0.8;"/>
   </g>
   <g id="patch_6">
    <path d="M 56.09 13.32 
L 447.48 13.32 
" style="fill:none;stroke:#000000;stroke-linecap:square;stroke-linejoin:miter;stroke-width:0.8;"/>
   </g>
  </g>
 </g>
 <defs>
  <clipPath id="p6716612651">
   <rect height="290.32" width="391.39" x="56.09" y="13.32"/>
  </clipPath>
 </defs>
</svg>
