<?xml version="1.0" encoding="utf-8" standalone="no"?>
<!DOCTYPE svg PUBLIC "-//W3C//DTD SVG 1.1//EN"
  "http://www.w3.org/Graphics/SVG/1.1/DTD/svg11.dtd">
<!-- Created with matplotlib (http://matplotlib.org/) -->
<svg height="345.6pt" version="1.1" viewBox="0 0 460.8 345.6" width="460.8pt" xmlns="http://www.w3.org/2000/svg" xmlns:xlink="http://www.w3.org/1999/xlink">
 <defs>
  <style type="text/css">
*{stroke-linecap:butt;stroke-linejoin:round;}
  </style>
 </defs>
 <g id="figure_1">
  <g id="patch_1">
   <path d="M 0 345.6 
L 460.8 345.6 
L 460.8 0 
L 0 0 
z
" style="fill:#ffffff;"/>
  </g>
  <g id="axes_1">
   <g id="patch_2">
    <path d="M 56.09 303.64 
L 447.48 303.64 
L 447.48 13.32 
L 56.09 13.32 
z
" style="fill:#ffffff;"/>
   </g>
   <g id="3A">
    <defs>
     <path d="M 0 3 
C 0.795609 3 1.55874 2.683901 2.12132 2.12132 
C 2.683901 1.55874 3 0.795609 3 0 
C 3 -0.795609 2.683901 -1.55874 2.12132 -2.12132 
C 1.55874 -2.683901 0.795609 -3 0 -3 
C -0.795609 -3 -1.55874 -2.683901 -2.12132 -2.12132 
C -2.683901 -1.55874 -3 -0.795609 -3 0 
C -3 0.795609 -2.683901 1.55874 -2.12132 2.12132 
C -1.55874 2.683901 -0.795609 3 0 3 
z
" id="m5a63eb3cb8" style="stroke:#1f77b4;"/>
    </defs>
    <g clip-path="url(#pd0f7b534ef)">
     <use style="fill:#1f77b4;stroke:#1f77b4;" x="419.59244" xlink:href="#m5a63eb3cb8" y="231.532967"/>
    </g>
   </g>
   <g id="11A">
    <defs>
     <path d="M 0 3 
C 0.795609 3 1.55874 2.683901 2.12132 2.12132 
C 2.683901 1.55874 3 0.795609 3 0 
C 3 -0.795609 2.683901 -1.55874 2.12132 -2.12132 
C 1.55874 -2.683901 0.795609 -3 0 -3 
C -0.795609 -3 -1.55874 -2.683901 -2.12132 -2.12132 
C -2.683901 -1.55874 -3 -0.795609 -3 0 
C -3 0.795609 -2.683901 1.55874 -2.12132 2.12132 
C -1.55874 2.683901 -0.795609 3 0 3 
z
" id="m4bacec8d01" style="stroke:#ff7f0e;"/>
    </defs>
    <g clip-path="url(#pd0f7b534ef)">
     <use style="fill:#ff7f0e;stroke:#ff7f0e;" x="415.727525" xlink:href="#m4bacec8d01" y="224.950509"/>
    </g>
   </g>
   <g id="18A">
    <defs>
     <path d="M 0 3 
C 0.795609 3 1.55874 2.683901 2.12132 2.12132 
C 2.683901 1.55874 3 0.795609 3 0 
C 3 -0.795609 2.683901 -1.55874 2.12132 -2.12132 
C 1.55874 -2.683901 0.795609 -3 0 -3 
C -0.795609 -3 -1.55874 -2.683901 -2.12132 -2.12132 
C -2.683901 -1.55874 -3 -0.795609 -3 0 
C -3 0.795609 -2.683901 1.55874 -2.12132 2.12132 
C -1.55874 2.683901 -0.795609 3 0 3 
z
" id="m4afd8bae75" style="stroke:#2ca02c;"/>
    </defs>
    <g clip-path="url(#pd0f7b534ef)">
     <use style="fill:#2ca02c;stroke:#2ca02c;" x="419.59244" xlink:href="#m4afd8bae75" y="224.950509"/>
    </g>
   </g>
   <g id="17A">
    <defs>
     <path d="M 0 3 
C 0.795609 3 1.55874 2.683901 2.12132 2.12132 
C 2.683901 1.55874 3 0.795609 3 0 
C 3 -0.795609 2.683901 -1.55874 2.12132 -2.12132 
C 1.55874 -2.683901 0.795609 -3 0 -3 
C -0.795609 -3 -1.55874 -2.683901 -2.12132 -2.12132 
C -2.683901 -1.55874 -3 -0.795609 -3 0 
C -3 0.795609 -2.683901 1.55874 -2.12132 2.12132 
C -1.55874 2.683901 -0.795609 3 0 3 
z
" id="m299af2c60e" style="stroke:#d62728;"/>
    </defs>
    <g clip-path="url(#pd0f7b534ef)">
     <use style="fill:#d62728;stroke:#d62728;" x="160.643142" xlink:href="#m299af2c60e" y="241.117555"/>
    </g>
   </g>
   <g id="8A">
    <defs>
     <path d="M 0 3 
C 0.795609 3 1.55874 2.683901 2.12132 2.12132 
C 2.683901 1.55874 3 0.795609 3 0 
C 3 -0.795609 2.683901 -1.55874 2.12132 -2.12132 
C 1.55874 -2.683901 0.795609 -3 0 -3 
C -0.795609 -3 -1.55874 -2.683901 -2.12132 -2.12132 
C -2.683901 -1.55874 -3 -0.795609 -3 0 
C -3 0.795609 -2.683901 1.55874 -2.12132 2.12132 
C -1.55874 2.683901 -0.795609 3 0 3 
z
" id="m0ef5677413" style="stroke:#9467bd;"/>
    </defs>
    <g clip-path="url(#pd0f7b534ef)">
     <use style="fill:#9467bd;stroke:#9467bd;" x="419.59244" xlink:href="#m0ef5677413" y="228.803655"/>
    </g>
   </g>
   <g id="9A">
    <defs>
     <path d="M 0 3 
C 0.795609 3 1.55874 2.683901 2.12132 2.12132 
C 2.683901 1.55874 3 0.795609 3 0 
C 3 -0.795609 2.683901 -1.55874 2.12132 -2.12132 
C 1.55874 -2.683901 0.795609 -3 0 -3 
C -0.795609 -3 -1.55874 -2.683901 -2.12132 -2.12132 
C -2.683901 -1.55874 -3 -0.795609 -3 0 
C -3 0.795609 -2.683901 1.55874 -2.12132 2.12132 
C -1.55874 2.683901 -0.795609 3 0 3 
z
" id="m9de80361bb" style="stroke:#8c564b;"/>
    </defs>
    <g clip-path="url(#pd0f7b534ef)">
     <use style="fill:#8c564b;stroke:#8c564b;" x="237.94144" xlink:href="#m9de80361bb" y="235.150013"/>
    </g>
   </g>
   <g id="5A">
    <defs>
     <path d="M 0 3 
C 0.795609 3 1.55874 2.683901 2.12132 2.12132 
C 2.683901 1.55874 3 0.795609 3 0 
C 3 -0.795609 2.683901 -1.55874 2.12132 -2.12132 
C 1.55874 -2.683901 0.795609 -3 0 -3 
C -0.795609 -3 -1.55874 -2.683901 -2.12132 -2.12132 
C -2.683901 -1.55874 -3 -0.795609 -3 0 
C -3 0.795609 -2.683901 1.55874 -2.12132 2.12132 
C -1.55874 2.683901 -0.795609 3 0 3 
z
" id="mad1a72adb4" style="stroke:#e377c2;"/>
    </defs>
    <g clip-path="url(#pd0f7b534ef)">
     <use style="fill:#e377c2;stroke:#e377c2;" x="419.59244" xlink:href="#mad1a72adb4" y="26.662524"/>
    </g>
   </g>
   <g id="10A">
    <defs>
     <path d="M 0 3 
C 0.795609 3 1.55874 2.683901 2.12132 2.12132 
C 2.683901 1.55874 3 0.795609 3 0 
C 3 -0.795609 2.683901 -1.55874 2.12132 -2.12132 
C 1.55874 -2.683901 0.795609 -3 0 -3 
C -0.795609 -3 -1.55874 -2.683901 -2.12132 -2.12132 
C -2.683901 -1.55874 -3 -0.795609 -3 0 
C -3 0.795609 -2.683901 1.55874 -2.12132 2.12132 
C -1.55874 2.683901 -0.795609 3 0 3 
z
" id="m0f42d97ea3" style="stroke:#7f7f7f;"/>
    </defs>
    <g clip-path="url(#pd0f7b534ef)">
     <use style="fill:#7f7f7f;stroke:#7f7f7f;" x="75.615015" xlink:href="#m0f42d97ea3" y="224.950509"/>
    </g>
   </g>
   <g id="2A">
    <defs>
     <path d="M 0 3 
C 0.795609 3 1.55874 2.683901 2.12132 2.12132 
C 2.683901 1.55874 3 0.795609 3 0 
C 3 -0.795609 2.683901 -1.55874 2.12132 -2.12132 
C 1.55874 -2.683901 0.795609 -3 0 -3 
C -0.795609 -3 -1.55874 -2.683901 -2.12132 -2.12132 
C -2.683901 -1.55874 -3 -0.795609 -3 0 
C -3 0.795609 -2.683901 1.55874 -2.12132 2.12132 
C -1.55874 2.683901 -0.795609 3 0 3 
z
" id="m9632ebf179" style="stroke:#bcbd22;"/>
    </defs>
    <g clip-path="url(#pd0f7b534ef)">
     <use style="fill:#bcbd22;stroke:#bcbd22;" x="419.59244" xlink:href="#m9632ebf179" y="234.034132"/>
    </g>
   </g>
   <g id="13A">
    <defs>
     <path d="M 0 3 
C 0.795609 3 1.55874 2.683901 2.12132 2.12132 
C 2.683901 1.55874 3 0.795609 3 0 
C 3 -0.795609 2.683901 -1.55874 2.12132 -2.12132 
C 1.55874 -2.683901 0.795609 -3 0 -3 
C -0.795609 -3 -1.55874 -2.683901 -2.12132 -2.12132 
C -2.683901 -1.55874 -3 -0.795609 -3 0 
C -3 0.795609 -2.683901 1.55874 -2.12132 2.12132 
C -1.55874 2.683901 -0.795609 3 0 3 
z
" id="m01278c2331" style="stroke:#17becf;"/>
    </defs>
    <g clip-path="url(#pd0f7b534ef)">
     <use style="fill:#17becf;stroke:#17becf;" x="346.159057" xlink:href="#m01278c2331" y="224.950509"/>
    </g>
   </g>
   <g id="4A">
    <g clip-path="url(#pd0f7b534ef)">
     <use style="fill:#1f77b4;stroke:#1f77b4;" x="419.59244" xlink:href="#m5a63eb3cb8" y="288.526647"/>
    </g>
   </g>
   <g id="6A">
    <g clip-path="url(#pd0f7b534ef)">
     <use style="fill:#ff7f0e;stroke:#ff7f0e;" x="419.59244" xlink:href="#m4bacec8d01" y="224.950509"/>
    </g>
   </g>
   <g id="1A">
    <g clip-path="url(#pd0f7b534ef)">
     <use style="fill:#2ca02c;stroke:#2ca02c;" x="415.727525" xlink:href="#m4afd8bae75" y="184.862308"/>
    </g>
   </g>
   <g id="7A">
    <g clip-path="url(#pd0f7b534ef)">
     <use style="fill:#d62728;stroke:#d62728;" x="419.59244" xlink:href="#m299af2c60e" y="224.950509"/>
    </g>
   </g>
   <g id="19A">
    <g clip-path="url(#pd0f7b534ef)">
     <use style="fill:#9467bd;stroke:#9467bd;" x="419.59244" xlink:href="#m0ef5677413" y="224.950509"/>
    </g>
   </g>
   <g id="14A">
    <g clip-path="url(#pd0f7b534ef)">
     <use style="fill:#8c564b;stroke:#8c564b;" x="427.32227" xlink:href="#m9de80361bb" y="194.441785"/>
    </g>
   </g>
   <g id="12A">
    <g clip-path="url(#pd0f7b534ef)">
     <use style="fill:#e377c2;stroke:#e377c2;" x="311.374823" xlink:href="#mad1a72adb4" y="231.224014"/>
    </g>
   </g>
   <g id="16A">
    <g clip-path="url(#pd0f7b534ef)">
     <use style="fill:#7f7f7f;stroke:#7f7f7f;" x="427.32227" xlink:href="#m0f42d97ea3" y="224.950509"/>
    </g>
   </g>
   <g id="15A">
    <g clip-path="url(#pd0f7b534ef)">
     <use style="fill:#bcbd22;stroke:#bcbd22;" x="427.32227" xlink:href="#m9632ebf179" y="226.346577"/>
    </g>
   </g>
   <g id="matplotlib.axis_1">
    <g id="xtick_1">
     <g id="line2d_1">
      <defs>
       <path d="M 0 0 
L 0 3.5 
" id="mae0fb108e9" style="stroke:#000000;stroke-width:0.8;"/>
      </defs>
      <g>
       <use style="stroke:#000000;stroke-width:0.8;" x="98.804504" xlink:href="#mae0fb108e9" y="303.64"/>
      </g>
     </g>
     <g id="text_1">
      <text style="font-family:DejaVu Sans;font-size:10px;font-style:normal;font-weight:normal;text-anchor:middle;" transform="rotate(-0, 98.804504, 318.238437)" x="98.804504" y="318.238437">80</text>
     </g>
    </g>
    <g id="xtick_2">
     <g id="line2d_2">
      <g>
       <use style="stroke:#000000;stroke-width:0.8;" x="176.102802" xlink:href="#mae0fb108e9" y="303.64"/>
      </g>
     </g>
     <g id="text_2">
      <text style="font-family:DejaVu Sans;font-size:10px;font-style:normal;font-weight:normal;text-anchor:middle;" transform="rotate(-0, 176.102802, 318.238437)" x="176.102802" y="318.238437">100</text>
     </g>
    </g>
    <g id="xtick_3">
     <g id="line2d_3">
      <g>
       <use style="stroke:#000000;stroke-width:0.8;" x="253.4011" xlink:href="#mae0fb108e9" y="303.64"/>
      </g>
     </g>
     <g id="text_3">
      <text style="font-family:DejaVu Sans;font-size:10px;font-style:normal;font-weight:normal;text-anchor:middle;" transform="rotate(-0, 253.4011, 318.238437)" x="253.4011" y="318.238437">120</text>
     </g>
    </g>
    <g id="xtick_4">
     <g id="line2d_4">
      <g>
       <use style="stroke:#000000;stroke-width:0.8;" x="330.699397" xlink:href="#mae0fb108e9" y="303.64"/>
      </g>
     </g>
     <g id="text_4">
      <text style="font-family:DejaVu Sans;font-size:10px;font-style:normal;font-weight:normal;text-anchor:middle;" transform="rotate(-0, 330.699397, 318.238437)" x="330.699397" y="318.238437">140</text>
     </g>
    </g>
    <g id="xtick_5">
     <g id="line2d_5">
      <g>
       <use style="stroke:#000000;stroke-width:0.8;" x="407.997695" xlink:href="#mae0fb108e9" y="303.64"/>
      </g>
     </g>
     <g id="text_5">
      <text style="font-family:DejaVu Sans;font-size:10px;font-style:normal;font-weight:normal;text-anchor:middle;" transform="rotate(-0, 407.997695, 318.238437)" x="407.997695" y="318.238437">160</text>
     </g>
    </g>
    <g id="text_6">
     <text style="font-family:DejaVu Sans;font-size:10px;font-style:normal;font-weight:normal;text-anchor:middle;" transform="rotate(-0, 251.785, 331.916562)" x="251.785" y="331.916562">Amount of languages tested</text>
    </g>
   </g>
   <g id="matplotlib.axis_2">
    <g id="ytick_1">
     <g id="line2d_6">
      <defs>
       <path d="M 0 0 
L -3.5 0 
" id="m47aa15d83d" style="stroke:#000000;stroke-width:0.8;"/>
      </defs>
      <g>
       <use style="stroke:#000000;stroke-width:0.8;" x="56.09" xlink:href="#m47aa15d83d" y="282.747697"/>
      </g>
     </g>
     <g id="text_7">
      <text style="font-family:DejaVu Sans;font-size:10px;font-style:normal;font-weight:normal;text-anchor:end;" transform="rotate(-0, 49.09, 286.546916)" x="49.09" y="286.546916">−0.1</text>
     </g>
    </g>
    <g id="ytick_2">
     <g id="line2d_7">
      <g>
       <use style="stroke:#000000;stroke-width:0.8;" x="56.09" xlink:href="#m47aa15d83d" y="224.950509"/>
      </g>
     </g>
     <g id="text_8">
      <text style="font-family:DejaVu Sans;font-size:10px;font-style:normal;font-weight:normal;text-anchor:end;" transform="rotate(-0, 49.09, 228.749728)" x="49.09" y="228.749728">0.0</text>
     </g>
    </g>
    <g id="ytick_3">
     <g id="line2d_8">
      <g>
       <use style="stroke:#000000;stroke-width:0.8;" x="56.09" xlink:href="#m47aa15d83d" y="167.153322"/>
      </g>
     </g>
     <g id="text_9">
      <text style="font-family:DejaVu Sans;font-size:10px;font-style:normal;font-weight:normal;text-anchor:end;" transform="rotate(-0, 49.09, 170.952541)" x="49.09" y="170.952541">0.1</text>
     </g>
    </g>
    <g id="ytick_4">
     <g id="line2d_9">
      <g>
       <use style="stroke:#000000;stroke-width:0.8;" x="56.09" xlink:href="#m47aa15d83d" y="109.356135"/>
      </g>
     </g>
     <g id="text_10">
      <text style="font-family:DejaVu Sans;font-size:10px;font-style:normal;font-weight:normal;text-anchor:end;" transform="rotate(-0, 49.09, 113.155353)" x="49.09" y="113.155353">0.2</text>
     </g>
    </g>
    <g id="ytick_5">
     <g id="line2d_10">
      <g>
       <use style="stroke:#000000;stroke-width:0.8;" x="56.09" xlink:href="#m47aa15d83d" y="51.558947"/>
      </g>
     </g>
     <g id="text_11">
      <text style="font-family:DejaVu Sans;font-size:10px;font-style:normal;font-weight:normal;text-anchor:end;" transform="rotate(-0, 49.09, 55.358166)" x="49.09" y="55.358166">0.3</text>
     </g>
    </g>
    <g id="text_12">
     <text style="font-family:DejaVu Sans;font-size:10px;font-style:normal;font-weight:normal;text-anchor:middle;" transform="rotate(-90, 18.7275, 158.48)" x="18.7275" y="158.48">Score - base</text>
    </g>
   </g>
   <g id="line2d_11">
    <path clip-path="url(#pd0f7b534ef)" d="M 75.615015 239.436771 
L 160.643142 232.935849 
L 237.94144 227.025919 
L 311.374823 221.411486 
L 346.159057 218.752018 
L 415.727525 213.433082 
L 419.59244 213.137585 
L 427.32227 212.546592 
" style="fill:none;stroke:#1f77b4;stroke-linecap:square;stroke-width:1.5;"/>
   </g>
   <g id="patch_3">
    <path d="M 56.09 303.64 
L 56.09 13.32 
" style="fill:none;stroke:#000000;stroke-linecap:square;stroke-linejoin:miter;stroke-width:0.8;"/>
   </g>
   <g id="patch_4">
    <path d="M 447.48 303.64 
L 447.48 13.32 
" style="fill:none;stroke:#000000;stroke-linecap:square;stroke-linejoin:miter;stroke-width:0.8;"/>
   </g>
   <g id="patch_5">
    <path d="M 56.09 303.64 
L 447.48 303.64 
" style="fill:none;stroke:#000000;stroke-linecap:square;stroke-linejoin:miter;stroke-width:0.8;"/>
   </g>
   <g id="patch_6">
    <path d="M 56.09 13.32 
L 447.48 13.32 
" style="fill:none;stroke:#000000;stroke-linecap:square;stroke-linejoin:miter;stroke-width:0.8;"/>
   </g>
  </g>
 </g>
 <defs>
  <clipPath id="pd0f7b534ef">
   <rect height="290.32" width="391.39" x="56.09" y="13.32"/>
  </clipPath>
 </defs>
</svg>
