<?xml version="1.0" encoding="utf-8" standalone="no"?>
<!DOCTYPE svg PUBLIC "-//W3C//DTD SVG 1.1//EN"
  "http://www.w3.org/Graphics/SVG/1.1/DTD/svg11.dtd">
<!-- Created with matplotlib (http://matplotlib.org/) -->
<svg height="345.6pt" version="1.1" viewBox="0 0 460.8 345.6" width="460.8pt" xmlns="http://www.w3.org/2000/svg" xmlns:xlink="http://www.w3.org/1999/xlink">
 <defs>
  <style type="text/css">
*{stroke-linecap:butt;stroke-linejoin:round;}
  </style>
 </defs>
 <g id="figure_1">
  <g id="patch_1">
   <path d="M 0 345.6 
L 460.8 345.6 
L 460.8 0 
L 0 0 
z
" style="fill:#ffffff;"/>
  </g>
  <g id="axes_1">
   <g id="patch_2">
    <path d="M 56.09 303.64 
L 447.48 303.64 
L 447.48 13.32 
L 56.09 13.32 
z
" style="fill:#ffffff;"/>
   </g>
   <g id="1A">
    <defs>
     <path d="M 0 3 
C 0.795609 3 1.55874 2.683901 2.12132 2.12132 
C 2.683901 1.55874 3 0.795609 3 0 
C 3 -0.795609 2.683901 -1.55874 2.12132 -2.12132 
C 1.55874 -2.683901 0.795609 -3 0 -3 
C -0.795609 -3 -1.55874 -2.683901 -2.12132 -2.12132 
C -2.683901 -1.55874 -3 -0.795609 -3 0 
C -3 0.795609 -2.683901 1.55874 -2.12132 2.12132 
C -1.55874 2.683901 -0.795609 3 0 3 
z
" id="mc5dfe6b183" style="stroke:#1f77b4;"/>
    </defs>
    <g clip-path="url(#p613df5a661)">
     <use style="fill:#1f77b4;stroke:#1f77b4;" x="415.710256" xlink:href="#mc5dfe6b183" y="189.366158"/>
    </g>
   </g>
   <g id="2A">
    <defs>
     <path d="M 0 3 
C 0.795609 3 1.55874 2.683901 2.12132 2.12132 
C 2.683901 1.55874 3 0.795609 3 0 
C 3 -0.795609 2.683901 -1.55874 2.12132 -2.12132 
C 1.55874 -2.683901 0.795609 -3 0 -3 
C -0.795609 -3 -1.55874 -2.683901 -2.12132 -2.12132 
C -2.683901 -1.55874 -3 -0.795609 -3 0 
C -3 0.795609 -2.683901 1.55874 -2.12132 2.12132 
C -1.55874 2.683901 -0.795609 3 0 3 
z
" id="m3080499aff" style="stroke:#ff7f0e;"/>
    </defs>
    <g clip-path="url(#p613df5a661)">
     <use style="fill:#ff7f0e;stroke:#ff7f0e;" x="419.580927" xlink:href="#m3080499aff" y="260.898692"/>
    </g>
   </g>
   <g id="3A">
    <defs>
     <path d="M 0 3 
C 0.795609 3 1.55874 2.683901 2.12132 2.12132 
C 2.683901 1.55874 3 0.795609 3 0 
C 3 -0.795609 2.683901 -1.55874 2.12132 -2.12132 
C 1.55874 -2.683901 0.795609 -3 0 -3 
C -0.795609 -3 -1.55874 -2.683901 -2.12132 -2.12132 
C -2.683901 -1.55874 -3 -0.795609 -3 0 
C -3 0.795609 -2.683901 1.55874 -2.12132 2.12132 
C -1.55874 2.683901 -0.795609 3 0 3 
z
" id="m113686ec39" style="stroke:#2ca02c;"/>
    </defs>
    <g clip-path="url(#p613df5a661)">
     <use style="fill:#2ca02c;stroke:#2ca02c;" x="419.580927" xlink:href="#m113686ec39" y="264.391954"/>
    </g>
   </g>
   <g id="4A">
    <defs>
     <path d="M 0 3 
C 0.795609 3 1.55874 2.683901 2.12132 2.12132 
C 2.683901 1.55874 3 0.795609 3 0 
C 3 -0.795609 2.683901 -1.55874 2.12132 -2.12132 
C 1.55874 -2.683901 0.795609 -3 0 -3 
C -0.795609 -3 -1.55874 -2.683901 -2.12132 -2.12132 
C -2.683901 -1.55874 -3 -0.795609 -3 0 
C -3 0.795609 -2.683901 1.55874 -2.12132 2.12132 
C -1.55874 2.683901 -0.795609 3 0 3 
z
" id="mae193d0ca8" style="stroke:#d62728;"/>
    </defs>
    <g clip-path="url(#p613df5a661)">
     <use style="fill:#d62728;stroke:#d62728;" x="419.580927" xlink:href="#mae193d0ca8" y="289.724267"/>
    </g>
   </g>
   <g id="5A">
    <defs>
     <path d="M 0 3 
C 0.795609 3 1.55874 2.683901 2.12132 2.12132 
C 2.683901 1.55874 3 0.795609 3 0 
C 3 -0.795609 2.683901 -1.55874 2.12132 -2.12132 
C 1.55874 -2.683901 0.795609 -3 0 -3 
C -0.795609 -3 -1.55874 -2.683901 -2.12132 -2.12132 
C -2.683901 -1.55874 -3 -0.795609 -3 0 
C -3 0.795609 -2.683901 1.55874 -2.12132 2.12132 
C -1.55874 2.683901 -0.795609 3 0 3 
z
" id="mf4cab1ccc4" style="stroke:#9467bd;"/>
    </defs>
    <g clip-path="url(#p613df5a661)">
     <use style="fill:#9467bd;stroke:#9467bd;" x="419.580927" xlink:href="#mf4cab1ccc4" y="27.462241"/>
    </g>
   </g>
   <g id="6A">
    <defs>
     <path d="M 0 3 
C 0.795609 3 1.55874 2.683901 2.12132 2.12132 
C 2.683901 1.55874 3 0.795609 3 0 
C 3 -0.795609 2.683901 -1.55874 2.12132 -2.12132 
C 1.55874 -2.683901 0.795609 -3 0 -3 
C -0.795609 -3 -1.55874 -2.683901 -2.12132 -2.12132 
C -2.683901 -1.55874 -3 -0.795609 -3 0 
C -3 0.795609 -2.683901 1.55874 -2.12132 2.12132 
C -1.55874 2.683901 -0.795609 3 0 3 
z
" id="ma48ed46f88" style="stroke:#8c564b;"/>
    </defs>
    <g clip-path="url(#p613df5a661)">
     <use style="fill:#8c564b;stroke:#8c564b;" x="419.580927" xlink:href="#ma48ed46f88" y="240.638732"/>
    </g>
   </g>
   <g id="7A">
    <defs>
     <path d="M 0 3 
C 0.795609 3 1.55874 2.683901 2.12132 2.12132 
C 2.683901 1.55874 3 0.795609 3 0 
C 3 -0.795609 2.683901 -1.55874 2.12132 -2.12132 
C 1.55874 -2.683901 0.795609 -3 0 -3 
C -0.795609 -3 -1.55874 -2.683901 -2.12132 -2.12132 
C -2.683901 -1.55874 -3 -0.795609 -3 0 
C -3 0.795609 -2.683901 1.55874 -2.12132 2.12132 
C -1.55874 2.683901 -0.795609 3 0 3 
z
" id="m1ebdde3d42" style="stroke:#e377c2;"/>
    </defs>
    <g clip-path="url(#p613df5a661)">
     <use style="fill:#e377c2;stroke:#e377c2;" x="419.580927" xlink:href="#m1ebdde3d42" y="240.638732"/>
    </g>
   </g>
   <g id="8A">
    <defs>
     <path d="M 0 3 
C 0.795609 3 1.55874 2.683901 2.12132 2.12132 
C 2.683901 1.55874 3 0.795609 3 0 
C 3 -0.795609 2.683901 -1.55874 2.12132 -2.12132 
C 1.55874 -2.683901 0.795609 -3 0 -3 
C -0.795609 -3 -1.55874 -2.683901 -2.12132 -2.12132 
C -2.683901 -1.55874 -3 -0.795609 -3 0 
C -3 0.795609 -2.683901 1.55874 -2.12132 2.12132 
C -1.55874 2.683901 -0.795609 3 0 3 
z
" id="m32144ee2ea" style="stroke:#7f7f7f;"/>
    </defs>
    <g clip-path="url(#p613df5a661)">
     <use style="fill:#7f7f7f;stroke:#7f7f7f;" x="419.580927" xlink:href="#m32144ee2ea" y="252.221651"/>
    </g>
   </g>
   <g id="9A">
    <defs>
     <path d="M 0 3 
C 0.795609 3 1.55874 2.683901 2.12132 2.12132 
C 2.683901 1.55874 3 0.795609 3 0 
C 3 -0.795609 2.683901 -1.55874 2.12132 -2.12132 
C 1.55874 -2.683901 0.795609 -3 0 -3 
C -0.795609 -3 -1.55874 -2.683901 -2.12132 -2.12132 
C -2.683901 -1.55874 -3 -0.795609 -3 0 
C -3 0.795609 -2.683901 1.55874 -2.12132 2.12132 
C -1.55874 2.683901 -0.795609 3 0 3 
z
" id="m6568a1172f" style="stroke:#bcbd22;"/>
    </defs>
    <g clip-path="url(#p613df5a661)">
     <use style="fill:#bcbd22;stroke:#bcbd22;" x="237.659368" xlink:href="#m6568a1172f" y="276.062657"/>
    </g>
   </g>
   <g id="10A">
    <defs>
     <path d="M 0 3 
C 0.795609 3 1.55874 2.683901 2.12132 2.12132 
C 2.683901 1.55874 3 0.795609 3 0 
C 3 -0.795609 2.683901 -1.55874 2.12132 -2.12132 
C 1.55874 -2.683901 0.795609 -3 0 -3 
C -0.795609 -3 -1.55874 -2.683901 -2.12132 -2.12132 
C -2.683901 -1.55874 -3 -0.795609 -3 0 
C -3 0.795609 -2.683901 1.55874 -2.12132 2.12132 
C -1.55874 2.683901 -0.795609 3 0 3 
z
" id="mafd3f91ef1" style="stroke:#17becf;"/>
    </defs>
    <g clip-path="url(#p613df5a661)">
     <use style="fill:#17becf;stroke:#17becf;" x="75.091167" xlink:href="#mafd3f91ef1" y="239.980661"/>
    </g>
   </g>
   <g id="11A">
    <g clip-path="url(#p613df5a661)">
     <use style="fill:#1f77b4;stroke:#1f77b4;" x="415.710256" xlink:href="#mc5dfe6b183" y="240.638732"/>
    </g>
   </g>
   <g id="12A">
    <g clip-path="url(#p613df5a661)">
     <use style="fill:#ff7f0e;stroke:#ff7f0e;" x="311.202126" xlink:href="#m3080499aff" y="249.445273"/>
    </g>
   </g>
   <g id="13A">
    <g clip-path="url(#p613df5a661)">
     <use style="fill:#2ca02c;stroke:#2ca02c;" x="346.038169" xlink:href="#m113686ec39" y="243.757715"/>
    </g>
   </g>
   <g id="14A">
    <g clip-path="url(#p613df5a661)">
     <use style="fill:#d62728;stroke:#d62728;" x="427.32227" xlink:href="#mae193d0ca8" y="204.983594"/>
    </g>
   </g>
   <g id="15A">
    <g clip-path="url(#p613df5a661)">
     <use style="fill:#9467bd;stroke:#9467bd;" x="427.32227" xlink:href="#mf4cab1ccc4" y="250.416971"/>
    </g>
   </g>
   <g id="16A">
    <g clip-path="url(#p613df5a661)">
     <use style="fill:#8c564b;stroke:#8c564b;" x="427.32227" xlink:href="#ma48ed46f88" y="247.871157"/>
    </g>
   </g>
   <g id="17A">
    <g clip-path="url(#p613df5a661)">
     <use style="fill:#e377c2;stroke:#e377c2;" x="160.245939" xlink:href="#m1ebdde3d42" y="243.663201"/>
    </g>
   </g>
   <g id="18A">
    <g clip-path="url(#p613df5a661)">
     <use style="fill:#7f7f7f;stroke:#7f7f7f;" x="419.580927" xlink:href="#m32144ee2ea" y="240.638732"/>
    </g>
   </g>
   <g id="19A">
    <g clip-path="url(#p613df5a661)">
     <use style="fill:#bcbd22;stroke:#bcbd22;" x="419.580927" xlink:href="#m6568a1172f" y="243.265244"/>
    </g>
   </g>
   <g id="matplotlib.axis_1">
    <g id="xtick_1">
     <g id="line2d_1">
      <defs>
       <path d="M 0 0 
L 0 3.5 
" id="m2466caec1c" style="stroke:#000000;stroke-width:0.8;"/>
      </defs>
      <g>
       <use style="stroke:#000000;stroke-width:0.8;" x="98.315196" xlink:href="#m2466caec1c" y="303.64"/>
      </g>
     </g>
     <g id="text_1">
      <text style="font-family:DejaVu Sans;font-size:10px;font-style:normal;font-weight:normal;text-anchor:middle;" transform="rotate(-0, 98.315196, 318.238437)" x="98.315196" y="318.238437">80</text>
     </g>
    </g>
    <g id="xtick_2">
     <g id="line2d_2">
      <g>
       <use style="stroke:#000000;stroke-width:0.8;" x="175.728625" xlink:href="#m2466caec1c" y="303.64"/>
      </g>
     </g>
     <g id="text_2">
      <text style="font-family:DejaVu Sans;font-size:10px;font-style:normal;font-weight:normal;text-anchor:middle;" transform="rotate(-0, 175.728625, 318.238437)" x="175.728625" y="318.238437">100</text>
     </g>
    </g>
    <g id="xtick_3">
     <g id="line2d_3">
      <g>
       <use style="stroke:#000000;stroke-width:0.8;" x="253.142054" xlink:href="#m2466caec1c" y="303.64"/>
      </g>
     </g>
     <g id="text_3">
      <text style="font-family:DejaVu Sans;font-size:10px;font-style:normal;font-weight:normal;text-anchor:middle;" transform="rotate(-0, 253.142054, 318.238437)" x="253.142054" y="318.238437">120</text>
     </g>
    </g>
    <g id="xtick_4">
     <g id="line2d_4">
      <g>
       <use style="stroke:#000000;stroke-width:0.8;" x="330.555484" xlink:href="#m2466caec1c" y="303.64"/>
      </g>
     </g>
     <g id="text_4">
      <text style="font-family:DejaVu Sans;font-size:10px;font-style:normal;font-weight:normal;text-anchor:middle;" transform="rotate(-0, 330.555484, 318.238437)" x="330.555484" y="318.238437">140</text>
     </g>
    </g>
    <g id="xtick_5">
     <g id="line2d_5">
      <g>
       <use style="stroke:#000000;stroke-width:0.8;" x="407.968913" xlink:href="#m2466caec1c" y="303.64"/>
      </g>
     </g>
     <g id="text_5">
      <text style="font-family:DejaVu Sans;font-size:10px;font-style:normal;font-weight:normal;text-anchor:middle;" transform="rotate(-0, 407.968913, 318.238437)" x="407.968913" y="318.238437">160</text>
     </g>
    </g>
    <g id="text_6">
     <text style="font-family:DejaVu Sans;font-size:10px;font-style:normal;font-weight:normal;text-anchor:middle;" transform="rotate(-0, 251.785, 331.916562)" x="251.785" y="331.916562">Amount of languages tested</text>
    </g>
   </g>
   <g id="matplotlib.axis_2">
    <g id="ytick_1">
     <g id="line2d_6">
      <defs>
       <path d="M 0 0 
L -3.5 0 
" id="m9cf40233ff" style="stroke:#000000;stroke-width:0.8;"/>
      </defs>
      <g>
       <use style="stroke:#000000;stroke-width:0.8;" x="56.09" xlink:href="#m9cf40233ff" y="300.523212"/>
      </g>
     </g>
     <g id="text_7">
      <text style="font-family:DejaVu Sans;font-size:10px;font-style:normal;font-weight:normal;text-anchor:end;" transform="rotate(-0, 49.09, 304.32243)" x="49.09" y="304.32243">−0.1</text>
     </g>
    </g>
    <g id="ytick_2">
     <g id="line2d_7">
      <g>
       <use style="stroke:#000000;stroke-width:0.8;" x="56.09" xlink:href="#m9cf40233ff" y="240.638732"/>
      </g>
     </g>
     <g id="text_8">
      <text style="font-family:DejaVu Sans;font-size:10px;font-style:normal;font-weight:normal;text-anchor:end;" transform="rotate(-0, 49.09, 244.437951)" x="49.09" y="244.437951">0.0</text>
     </g>
    </g>
    <g id="ytick_3">
     <g id="line2d_8">
      <g>
       <use style="stroke:#000000;stroke-width:0.8;" x="56.09" xlink:href="#m9cf40233ff" y="180.754252"/>
      </g>
     </g>
     <g id="text_9">
      <text style="font-family:DejaVu Sans;font-size:10px;font-style:normal;font-weight:normal;text-anchor:end;" transform="rotate(-0, 49.09, 184.553471)" x="49.09" y="184.553471">0.1</text>
     </g>
    </g>
    <g id="ytick_4">
     <g id="line2d_9">
      <g>
       <use style="stroke:#000000;stroke-width:0.8;" x="56.09" xlink:href="#m9cf40233ff" y="120.869772"/>
      </g>
     </g>
     <g id="text_10">
      <text style="font-family:DejaVu Sans;font-size:10px;font-style:normal;font-weight:normal;text-anchor:end;" transform="rotate(-0, 49.09, 124.668991)" x="49.09" y="124.668991">0.2</text>
     </g>
    </g>
    <g id="ytick_5">
     <g id="line2d_10">
      <g>
       <use style="stroke:#000000;stroke-width:0.8;" x="56.09" xlink:href="#m9cf40233ff" y="60.985292"/>
      </g>
     </g>
     <g id="text_11">
      <text style="font-family:DejaVu Sans;font-size:10px;font-style:normal;font-weight:normal;text-anchor:end;" transform="rotate(-0, 49.09, 64.784511)" x="49.09" y="64.784511">0.3</text>
     </g>
    </g>
    <g id="text_12">
     <text style="font-family:DejaVu Sans;font-size:10px;font-style:normal;font-weight:normal;text-anchor:middle;" transform="rotate(-90, 18.7275, 158.48)" x="18.7275" y="158.48">Score - base</text>
    </g>
   </g>
   <g id="line2d_11">
    <path clip-path="url(#p613df5a661)" d="M 75.091167 256.548965 
L 160.245939 250.027161 
L 237.659368 244.098248 
L 311.202126 238.46578 
L 346.038169 235.797769 
L 415.710256 230.461747 
L 419.580927 230.165302 
L 427.32227 229.57241 
" style="fill:none;stroke:#1f77b4;stroke-linecap:square;stroke-width:1.5;"/>
   </g>
   <g id="patch_3">
    <path d="M 56.09 303.64 
L 56.09 13.32 
" style="fill:none;stroke:#000000;stroke-linecap:square;stroke-linejoin:miter;stroke-width:0.8;"/>
   </g>
   <g id="patch_4">
    <path d="M 447.48 303.64 
L 447.48 13.32 
" style="fill:none;stroke:#000000;stroke-linecap:square;stroke-linejoin:miter;stroke-width:0.8;"/>
   </g>
   <g id="patch_5">
    <path d="M 56.09 303.64 
L 447.48 303.64 
" style="fill:none;stroke:#000000;stroke-linecap:square;stroke-linejoin:miter;stroke-width:0.8;"/>
   </g>
   <g id="patch_6">
    <path d="M 56.09 13.32 
L 447.48 13.32 
" style="fill:none;stroke:#000000;stroke-linecap:square;stroke-linejoin:miter;stroke-width:0.8;"/>
   </g>
  </g>
 </g>
 <defs>
  <clipPath id="p613df5a661">
   <rect height="290.32" width="391.39" x="56.09" y="13.32"/>
  </clipPath>
 </defs>
</svg>
