<?xml version="1.0" encoding="utf-8" standalone="no"?>
<!DOCTYPE svg PUBLIC "-//W3C//DTD SVG 1.1//EN"
  "http://www.w3.org/Graphics/SVG/1.1/DTD/svg11.dtd">
<!-- Created with matplotlib (http://matplotlib.org/) -->
<svg height="345.6pt" version="1.1" viewBox="0 0 460.8 345.6" width="460.8pt" xmlns="http://www.w3.org/2000/svg" xmlns:xlink="http://www.w3.org/1999/xlink">
 <defs>
  <style type="text/css">
*{stroke-linecap:butt;stroke-linejoin:round;}
  </style>
 </defs>
 <g id="figure_1">
  <g id="patch_1">
   <path d="M 0 345.6 
L 460.8 345.6 
L 460.8 0 
L 0 0 
z
" style="fill:#ffffff;"/>
  </g>
  <g id="axes_1">
   <g id="patch_2">
    <path d="M 68.78 303.64 
L 447.48 303.64 
L 447.48 13.32 
L 68.78 13.32 
z
" style="fill:#ffffff;"/>
   </g>
   <g id="98A">
    <defs>
     <path d="M 0 3 
C 0.795609 3 1.55874 2.683901 2.12132 2.12132 
C 2.683901 1.55874 3 0.795609 3 0 
C 3 -0.795609 2.683901 -1.55874 2.12132 -2.12132 
C 1.55874 -2.683901 0.795609 -3 0 -3 
C -0.795609 -3 -1.55874 -2.683901 -2.12132 -2.12132 
C -2.683901 -1.55874 -3 -0.795609 -3 0 
C -3 0.795609 -2.683901 1.55874 -2.12132 2.12132 
C -1.55874 2.683901 -0.795609 3 0 3 
z
" id="m0162c7d674" style="stroke:#1f77b4;"/>
    </defs>
    <g clip-path="url(#pd76a01a332)">
     <use style="fill:#1f77b4;stroke:#1f77b4;" x="113.437175" xlink:href="#m0162c7d674" y="198.266297"/>
    </g>
   </g>
   <g id="99A">
    <defs>
     <path d="M 0 3 
C 0.795609 3 1.55874 2.683901 2.12132 2.12132 
C 2.683901 1.55874 3 0.795609 3 0 
C 3 -0.795609 2.683901 -1.55874 2.12132 -2.12132 
C 1.55874 -2.683901 0.795609 -3 0 -3 
C -0.795609 -3 -1.55874 -2.683901 -2.12132 -2.12132 
C -2.683901 -1.55874 -3 -0.795609 -3 0 
C -3 0.795609 -2.683901 1.55874 -2.12132 2.12132 
C -1.55874 2.683901 -0.795609 3 0 3 
z
" id="m2477487642" style="stroke:#ff7f0e;"/>
    </defs>
    <g clip-path="url(#pd76a01a332)">
     <use style="fill:#ff7f0e;stroke:#ff7f0e;" x="108.201636" xlink:href="#m2477487642" y="139.656617"/>
    </g>
   </g>
   <g id="100A">
    <defs>
     <path d="M 0 3 
C 0.795609 3 1.55874 2.683901 2.12132 2.12132 
C 2.683901 1.55874 3 0.795609 3 0 
C 3 -0.795609 2.683901 -1.55874 2.12132 -2.12132 
C 1.55874 -2.683901 0.795609 -3 0 -3 
C -0.795609 -3 -1.55874 -2.683901 -2.12132 -2.12132 
C -2.683901 -1.55874 -3 -0.795609 -3 0 
C -3 0.795609 -2.683901 1.55874 -2.12132 2.12132 
C -1.55874 2.683901 -0.795609 3 0 3 
z
" id="m614e9d03f8" style="stroke:#2ca02c;"/>
    </defs>
    <g clip-path="url(#pd76a01a332)">
     <use style="fill:#2ca02c;stroke:#2ca02c;" x="189.352499" xlink:href="#m614e9d03f8" y="141.677641"/>
    </g>
   </g>
   <g id="101A">
    <defs>
     <path d="M 0 3 
C 0.795609 3 1.55874 2.683901 2.12132 2.12132 
C 2.683901 1.55874 3 0.795609 3 0 
C 3 -0.795609 2.683901 -1.55874 2.12132 -2.12132 
C 1.55874 -2.683901 0.795609 -3 0 -3 
C -0.795609 -3 -1.55874 -2.683901 -2.12132 -2.12132 
C -2.683901 -1.55874 -3 -0.795609 -3 0 
C -3 0.795609 -2.683901 1.55874 -2.12132 2.12132 
C -1.55874 2.683901 -0.795609 3 0 3 
z
" id="m891834d5c9" style="stroke:#d62728;"/>
    </defs>
    <g clip-path="url(#pd76a01a332)">
     <use style="fill:#d62728;stroke:#d62728;" x="294.063291" xlink:href="#m891834d5c9" y="164.295638"/>
    </g>
   </g>
   <g id="102A">
    <defs>
     <path d="M 0 3 
C 0.795609 3 1.55874 2.683901 2.12132 2.12132 
C 2.683901 1.55874 3 0.795609 3 0 
C 3 -0.795609 2.683901 -1.55874 2.12132 -2.12132 
C 1.55874 -2.683901 0.795609 -3 0 -3 
C -0.795609 -3 -1.55874 -2.683901 -2.12132 -2.12132 
C -2.683901 -1.55874 -3 -0.795609 -3 0 
C -3 0.795609 -2.683901 1.55874 -2.12132 2.12132 
C -1.55874 2.683901 -0.795609 3 0 3 
z
" id="m7246c5ac82" style="stroke:#9467bd;"/>
    </defs>
    <g clip-path="url(#pd76a01a332)">
     <use style="fill:#9467bd;stroke:#9467bd;" x="189.352499" xlink:href="#m7246c5ac82" y="198.203253"/>
    </g>
   </g>
   <g id="103A">
    <defs>
     <path d="M 0 3 
C 0.795609 3 1.55874 2.683901 2.12132 2.12132 
C 2.683901 1.55874 3 0.795609 3 0 
C 3 -0.795609 2.683901 -1.55874 2.12132 -2.12132 
C 1.55874 -2.683901 0.795609 -3 0 -3 
C -0.795609 -3 -1.55874 -2.683901 -2.12132 -2.12132 
C -2.683901 -1.55874 -3 -0.795609 -3 0 
C -3 0.795609 -2.683901 1.55874 -2.12132 2.12132 
C -1.55874 2.683901 -0.795609 3 0 3 
z
" id="m7720139913" style="stroke:#8c564b;"/>
    </defs>
    <g clip-path="url(#pd76a01a332)">
     <use style="fill:#8c564b;stroke:#8c564b;" x="189.352499" xlink:href="#m7720139913" y="181.904173"/>
    </g>
   </g>
   <g id="104A">
    <defs>
     <path d="M 0 3 
C 0.795609 3 1.55874 2.683901 2.12132 2.12132 
C 2.683901 1.55874 3 0.795609 3 0 
C 3 -0.795609 2.683901 -1.55874 2.12132 -2.12132 
C 1.55874 -2.683901 0.795609 -3 0 -3 
C -0.795609 -3 -1.55874 -2.683901 -2.12132 -2.12132 
C -2.683901 -1.55874 -3 -0.795609 -3 0 
C -3 0.795609 -2.683901 1.55874 -2.12132 2.12132 
C -1.55874 2.683901 -0.795609 3 0 3 
z
" id="m88b31e0a14" style="stroke:#e377c2;"/>
    </defs>
    <g clip-path="url(#pd76a01a332)">
     <use style="fill:#e377c2;stroke:#e377c2;" x="188.043614" xlink:href="#m88b31e0a14" y="145.79444"/>
    </g>
   </g>
   <g id="105A">
    <defs>
     <path d="M 0 3 
C 0.795609 3 1.55874 2.683901 2.12132 2.12132 
C 2.683901 1.55874 3 0.795609 3 0 
C 3 -0.795609 2.683901 -1.55874 2.12132 -2.12132 
C 1.55874 -2.683901 0.795609 -3 0 -3 
C -0.795609 -3 -1.55874 -2.683901 -2.12132 -2.12132 
C -2.683901 -1.55874 -3 -0.795609 -3 0 
C -3 0.795609 -2.683901 1.55874 -2.12132 2.12132 
C -1.55874 2.683901 -0.795609 3 0 3 
z
" id="mfd31839e16" style="stroke:#7f7f7f;"/>
    </defs>
    <g clip-path="url(#pd76a01a332)">
     <use style="fill:#7f7f7f;stroke:#7f7f7f;" x="168.410341" xlink:href="#mfd31839e16" y="219.611142"/>
    </g>
   </g>
   <g id="106A">
    <defs>
     <path d="M 0 3 
C 0.795609 3 1.55874 2.683901 2.12132 2.12132 
C 2.683901 1.55874 3 0.795609 3 0 
C 3 -0.795609 2.683901 -1.55874 2.12132 -2.12132 
C 1.55874 -2.683901 0.795609 -3 0 -3 
C -0.795609 -3 -1.55874 -2.683901 -2.12132 -2.12132 
C -2.683901 -1.55874 -3 -0.795609 -3 0 
C -3 0.795609 -2.683901 1.55874 -2.12132 2.12132 
C -1.55874 2.683901 -0.795609 3 0 3 
z
" id="m2851e94889" style="stroke:#bcbd22;"/>
    </defs>
    <g clip-path="url(#pd76a01a332)">
     <use style="fill:#bcbd22;stroke:#bcbd22;" x="105.583866" xlink:href="#m2851e94889" y="122.814755"/>
    </g>
   </g>
   <g id="107A">
    <defs>
     <path d="M 0 3 
C 0.795609 3 1.55874 2.683901 2.12132 2.12132 
C 2.683901 1.55874 3 0.795609 3 0 
C 3 -0.795609 2.683901 -1.55874 2.12132 -2.12132 
C 1.55874 -2.683901 0.795609 -3 0 -3 
C -0.795609 -3 -1.55874 -2.683901 -2.12132 -2.12132 
C -2.683901 -1.55874 -3 -0.795609 -3 0 
C -3 0.795609 -2.683901 1.55874 -2.12132 2.12132 
C -1.55874 2.683901 -0.795609 3 0 3 
z
" id="m2ae0f89f5a" style="stroke:#17becf;"/>
    </defs>
    <g clip-path="url(#pd76a01a332)">
     <use style="fill:#17becf;stroke:#17becf;" x="185.425845" xlink:href="#m2ae0f89f5a" y="123.40422"/>
    </g>
   </g>
   <g id="108A">
    <g clip-path="url(#pd76a01a332)">
     <use style="fill:#1f77b4;stroke:#1f77b4;" x="113.437175" xlink:href="#m0162c7d674" y="122.814755"/>
    </g>
   </g>
   <g id="109A">
    <g clip-path="url(#pd76a01a332)">
     <use style="fill:#ff7f0e;stroke:#ff7f0e;" x="110.819406" xlink:href="#m2477487642" y="264.960071"/>
    </g>
   </g>
   <g id="110A">
    <g clip-path="url(#pd76a01a332)">
     <use style="fill:#2ca02c;stroke:#2ca02c;" x="87.259477" xlink:href="#m614e9d03f8" y="241.541377"/>
    </g>
   </g>
   <g id="111A">
    <g clip-path="url(#pd76a01a332)">
     <use style="fill:#d62728;stroke:#d62728;" x="154.012607" xlink:href="#m891834d5c9" y="122.814755"/>
    </g>
   </g>
   <g id="112A">
    <g clip-path="url(#pd76a01a332)">
     <use style="fill:#9467bd;stroke:#9467bd;" x="428.878436" xlink:href="#m7246c5ac82" y="213.973908"/>
    </g>
   </g>
   <g id="113A">
    <g clip-path="url(#pd76a01a332)">
     <use style="fill:#8c564b;stroke:#8c564b;" x="146.159298" xlink:href="#m7720139913" y="96.791543"/>
    </g>
   </g>
   <g id="114A">
    <g clip-path="url(#pd76a01a332)">
     <use style="fill:#e377c2;stroke:#e377c2;" x="146.159298" xlink:href="#m88b31e0a14" y="207.332209"/>
    </g>
   </g>
   <g id="115A">
    <g clip-path="url(#pd76a01a332)">
     <use style="fill:#7f7f7f;stroke:#7f7f7f;" x="117.36383" xlink:href="#mfd31839e16" y="166.344491"/>
    </g>
   </g>
   <g id="116A">
    <g clip-path="url(#pd76a01a332)">
     <use style="fill:#bcbd22;stroke:#bcbd22;" x="385.685234" xlink:href="#m2851e94889" y="147.717986"/>
    </g>
   </g>
   <g id="117A">
    <g clip-path="url(#pd76a01a332)">
     <use style="fill:#17becf;stroke:#17becf;" x="140.923758" xlink:href="#m2ae0f89f5a" y="288.922791"/>
    </g>
   </g>
   <g id="118A">
    <g clip-path="url(#pd76a01a332)">
     <use style="fill:#1f77b4;stroke:#1f77b4;" x="202.441348" xlink:href="#m0162c7d674" y="28.256904"/>
    </g>
   </g>
   <g id="119A">
    <g clip-path="url(#pd76a01a332)">
     <use style="fill:#ff7f0e;stroke:#ff7f0e;" x="202.441348" xlink:href="#m2477487642" y="245.385327"/>
    </g>
   </g>
   <g id="120A">
    <g clip-path="url(#pd76a01a332)">
     <use style="fill:#2ca02c;stroke:#2ca02c;" x="202.441348" xlink:href="#m614e9d03f8" y="180.210048"/>
    </g>
   </g>
   <g id="121A">
    <g clip-path="url(#pd76a01a332)">
     <use style="fill:#d62728;stroke:#d62728;" x="108.201636" xlink:href="#m891834d5c9" y="219.564775"/>
    </g>
   </g>
   <g id="109B">
    <g clip-path="url(#pd76a01a332)">
     <use style="fill:#9467bd;stroke:#9467bd;" x="110.819406" xlink:href="#m7246c5ac82" y="200.960995"/>
    </g>
   </g>
   <g id="108B">
    <g clip-path="url(#pd76a01a332)">
     <use style="fill:#8c564b;stroke:#8c564b;" x="109.510521" xlink:href="#m7720139913" y="122.814755"/>
    </g>
   </g>
   <g id="matplotlib.axis_1">
    <g id="xtick_1">
     <g id="line2d_1">
      <defs>
       <path d="M 0 0 
L 0 3.5 
" id="m8e407bec58" style="stroke:#000000;stroke-width:0.8;"/>
      </defs>
      <g>
       <use style="stroke:#000000;stroke-width:0.8;" x="96.421672" xlink:href="#m8e407bec58" y="303.64"/>
      </g>
     </g>
     <g id="text_1">
      <text style="font-family:DejaVu Sans;font-size:10px;font-style:normal;font-weight:normal;text-anchor:middle;" transform="rotate(-0, 96.421672, 318.238437)" x="96.421672" y="318.238437">50</text>
     </g>
    </g>
    <g id="xtick_2">
     <g id="line2d_2">
      <g>
       <use style="stroke:#000000;stroke-width:0.8;" x="161.865917" xlink:href="#m8e407bec58" y="303.64"/>
      </g>
     </g>
     <g id="text_2">
      <text style="font-family:DejaVu Sans;font-size:10px;font-style:normal;font-weight:normal;text-anchor:middle;" transform="rotate(-0, 161.865917, 318.238437)" x="161.865917" y="318.238437">100</text>
     </g>
    </g>
    <g id="xtick_3">
     <g id="line2d_3">
      <g>
       <use style="stroke:#000000;stroke-width:0.8;" x="227.310161" xlink:href="#m8e407bec58" y="303.64"/>
      </g>
     </g>
     <g id="text_3">
      <text style="font-family:DejaVu Sans;font-size:10px;font-style:normal;font-weight:normal;text-anchor:middle;" transform="rotate(-0, 227.310161, 318.238437)" x="227.310161" y="318.238437">150</text>
     </g>
    </g>
    <g id="xtick_4">
     <g id="line2d_4">
      <g>
       <use style="stroke:#000000;stroke-width:0.8;" x="292.754406" xlink:href="#m8e407bec58" y="303.64"/>
      </g>
     </g>
     <g id="text_4">
      <text style="font-family:DejaVu Sans;font-size:10px;font-style:normal;font-weight:normal;text-anchor:middle;" transform="rotate(-0, 292.754406, 318.238437)" x="292.754406" y="318.238437">200</text>
     </g>
    </g>
    <g id="xtick_5">
     <g id="line2d_5">
      <g>
       <use style="stroke:#000000;stroke-width:0.8;" x="358.198651" xlink:href="#m8e407bec58" y="303.64"/>
      </g>
     </g>
     <g id="text_5">
      <text style="font-family:DejaVu Sans;font-size:10px;font-style:normal;font-weight:normal;text-anchor:middle;" transform="rotate(-0, 358.198651, 318.238437)" x="358.198651" y="318.238437">250</text>
     </g>
    </g>
    <g id="xtick_6">
     <g id="line2d_6">
      <g>
       <use style="stroke:#000000;stroke-width:0.8;" x="423.642896" xlink:href="#m8e407bec58" y="303.64"/>
      </g>
     </g>
     <g id="text_6">
      <text style="font-family:DejaVu Sans;font-size:10px;font-style:normal;font-weight:normal;text-anchor:middle;" transform="rotate(-0, 423.642896, 318.238437)" x="423.642896" y="318.238437">300</text>
     </g>
    </g>
    <g id="text_7">
     <text style="font-family:DejaVu Sans;font-size:10px;font-style:normal;font-weight:normal;text-anchor:middle;" transform="rotate(-0, 258.13, 331.916562)" x="258.13" y="331.916562">Amount of languages tested</text>
    </g>
   </g>
   <g id="matplotlib.axis_2">
    <g id="ytick_1">
     <g id="line2d_7">
      <defs>
       <path d="M 0 0 
L -3.5 0 
" id="m1021f2438a" style="stroke:#000000;stroke-width:0.8;"/>
      </defs>
      <g>
       <use style="stroke:#000000;stroke-width:0.8;" x="68.78" xlink:href="#m1021f2438a" y="299.654307"/>
      </g>
     </g>
     <g id="text_8">
      <text style="font-family:DejaVu Sans;font-size:10px;font-style:normal;font-weight:normal;text-anchor:end;" transform="rotate(-0, 61.78, 303.453526)" x="61.78" y="303.453526">−0.125</text>
     </g>
    </g>
    <g id="ytick_2">
     <g id="line2d_8">
      <g>
       <use style="stroke:#000000;stroke-width:0.8;" x="68.78" xlink:href="#m1021f2438a" y="264.286397"/>
      </g>
     </g>
     <g id="text_9">
      <text style="font-family:DejaVu Sans;font-size:10px;font-style:normal;font-weight:normal;text-anchor:end;" transform="rotate(-0, 61.78, 268.085616)" x="61.78" y="268.085616">−0.100</text>
     </g>
    </g>
    <g id="ytick_3">
     <g id="line2d_9">
      <g>
       <use style="stroke:#000000;stroke-width:0.8;" x="68.78" xlink:href="#m1021f2438a" y="228.918486"/>
      </g>
     </g>
     <g id="text_10">
      <text style="font-family:DejaVu Sans;font-size:10px;font-style:normal;font-weight:normal;text-anchor:end;" transform="rotate(-0, 61.78, 232.717705)" x="61.78" y="232.717705">−0.075</text>
     </g>
    </g>
    <g id="ytick_4">
     <g id="line2d_10">
      <g>
       <use style="stroke:#000000;stroke-width:0.8;" x="68.78" xlink:href="#m1021f2438a" y="193.550576"/>
      </g>
     </g>
     <g id="text_11">
      <text style="font-family:DejaVu Sans;font-size:10px;font-style:normal;font-weight:normal;text-anchor:end;" transform="rotate(-0, 61.78, 197.349795)" x="61.78" y="197.349795">−0.050</text>
     </g>
    </g>
    <g id="ytick_5">
     <g id="line2d_11">
      <g>
       <use style="stroke:#000000;stroke-width:0.8;" x="68.78" xlink:href="#m1021f2438a" y="158.182666"/>
      </g>
     </g>
     <g id="text_12">
      <text style="font-family:DejaVu Sans;font-size:10px;font-style:normal;font-weight:normal;text-anchor:end;" transform="rotate(-0, 61.78, 161.981884)" x="61.78" y="161.981884">−0.025</text>
     </g>
    </g>
    <g id="ytick_6">
     <g id="line2d_12">
      <g>
       <use style="stroke:#000000;stroke-width:0.8;" x="68.78" xlink:href="#m1021f2438a" y="122.814755"/>
      </g>
     </g>
     <g id="text_13">
      <text style="font-family:DejaVu Sans;font-size:10px;font-style:normal;font-weight:normal;text-anchor:end;" transform="rotate(-0, 61.78, 126.613974)" x="61.78" y="126.613974">0.000</text>
     </g>
    </g>
    <g id="ytick_7">
     <g id="line2d_13">
      <g>
       <use style="stroke:#000000;stroke-width:0.8;" x="68.78" xlink:href="#m1021f2438a" y="87.446845"/>
      </g>
     </g>
     <g id="text_14">
      <text style="font-family:DejaVu Sans;font-size:10px;font-style:normal;font-weight:normal;text-anchor:end;" transform="rotate(-0, 61.78, 91.246063)" x="61.78" y="91.246063">0.025</text>
     </g>
    </g>
    <g id="ytick_8">
     <g id="line2d_14">
      <g>
       <use style="stroke:#000000;stroke-width:0.8;" x="68.78" xlink:href="#m1021f2438a" y="52.078934"/>
      </g>
     </g>
     <g id="text_15">
      <text style="font-family:DejaVu Sans;font-size:10px;font-style:normal;font-weight:normal;text-anchor:end;" transform="rotate(-0, 61.78, 55.878153)" x="61.78" y="55.878153">0.050</text>
     </g>
    </g>
    <g id="ytick_9">
     <g id="line2d_15">
      <g>
       <use style="stroke:#000000;stroke-width:0.8;" x="68.78" xlink:href="#m1021f2438a" y="16.711024"/>
      </g>
     </g>
     <g id="text_16">
      <text style="font-family:DejaVu Sans;font-size:10px;font-style:normal;font-weight:normal;text-anchor:end;" transform="rotate(-0, 61.78, 20.510242)" x="61.78" y="20.510242">0.075</text>
     </g>
    </g>
    <g id="text_17">
     <text style="font-family:DejaVu Sans;font-size:10px;font-style:normal;font-weight:normal;text-anchor:middle;" transform="rotate(-90, 18.6925, 158.48)" x="18.6925" y="158.48">Score - base</text>
    </g>
   </g>
   <g id="line2d_16">
    <path clip-path="url(#pd76a01a332)" d="M 87.259477 176.490439 
L 105.583866 175.810444 
L 108.201636 175.713302 
L 109.510521 175.664731 
L 110.819406 175.61616 
L 113.437175 175.519017 
L 117.36383 175.373304 
L 140.923758 174.499025 
L 146.159298 174.30474 
L 154.012607 174.013314 
L 168.410341 173.479032 
L 185.425845 172.847608 
L 188.043614 172.750466 
L 189.352499 172.701895 
L 202.441348 172.216184 
L 294.063291 168.816209 
L 385.685234 165.416234 
L 428.878436 163.813388 
" style="fill:none;stroke:#1f77b4;stroke-linecap:square;stroke-width:1.5;"/>
   </g>
   <g id="patch_3">
    <path d="M 68.78 303.64 
L 68.78 13.32 
" style="fill:none;stroke:#000000;stroke-linecap:square;stroke-linejoin:miter;stroke-width:0.8;"/>
   </g>
   <g id="patch_4">
    <path d="M 447.48 303.64 
L 447.48 13.32 
" style="fill:none;stroke:#000000;stroke-linecap:square;stroke-linejoin:miter;stroke-width:0.8;"/>
   </g>
   <g id="patch_5">
    <path d="M 68.78 303.64 
L 447.48 303.64 
" style="fill:none;stroke:#000000;stroke-linecap:square;stroke-linejoin:miter;stroke-width:0.8;"/>
   </g>
   <g id="patch_6">
    <path d="M 68.78 13.32 
L 447.48 13.32 
" style="fill:none;stroke:#000000;stroke-linecap:square;stroke-linejoin:miter;stroke-width:0.8;"/>
   </g>
  </g>
 </g>
 <defs>
  <clipPath id="pd76a01a332">
   <rect height="290.32" width="378.7" x="68.78" y="13.32"/>
  </clipPath>
 </defs>
</svg>
