<?xml version="1.0" encoding="utf-8" standalone="no"?>
<!DOCTYPE svg PUBLIC "-//W3C//DTD SVG 1.1//EN"
  "http://www.w3.org/Graphics/SVG/1.1/DTD/svg11.dtd">
<!-- Created with matplotlib (http://matplotlib.org/) -->
<svg height="345.6pt" version="1.1" viewBox="0 0 460.8 345.6" width="460.8pt" xmlns="http://www.w3.org/2000/svg" xmlns:xlink="http://www.w3.org/1999/xlink">
 <defs>
  <style type="text/css">
*{stroke-linecap:butt;stroke-linejoin:round;}
  </style>
 </defs>
 <g id="figure_1">
  <g id="patch_1">
   <path d="M 0 345.6 
L 460.8 345.6 
L 460.8 0 
L 0 0 
z
" style="fill:#ffffff;"/>
  </g>
  <g id="axes_1">
   <g id="patch_2">
    <path d="M 62.39 303.64 
L 447.48 303.64 
L 447.48 13.32 
L 62.39 13.32 
z
" style="fill:#ffffff;"/>
   </g>
   <g id="108B">
    <defs>
     <path d="M 0 3 
C 0.795609 3 1.55874 2.683901 2.12132 2.12132 
C 2.683901 1.55874 3 0.795609 3 0 
C 3 -0.795609 2.683901 -1.55874 2.12132 -2.12132 
C 1.55874 -2.683901 0.795609 -3 0 -3 
C -0.795609 -3 -1.55874 -2.683901 -2.12132 -2.12132 
C -2.683901 -1.55874 -3 -0.795609 -3 0 
C -3 0.795609 -2.683901 1.55874 -2.12132 2.12132 
C -1.55874 2.683901 -0.795609 3 0 3 
z
" id="m9b5a097e42" style="stroke:#1f77b4;"/>
    </defs>
    <g clip-path="url(#p21cc2ee109)">
     <use style="fill:#1f77b4;stroke:#1f77b4;" x="104.333143" xlink:href="#m9b5a097e42" y="118.325274"/>
    </g>
   </g>
   <g id="106A">
    <defs>
     <path d="M 0 3 
C 0.795609 3 1.55874 2.683901 2.12132 2.12132 
C 2.683901 1.55874 3 0.795609 3 0 
C 3 -0.795609 2.683901 -1.55874 2.12132 -2.12132 
C 1.55874 -2.683901 0.795609 -3 0 -3 
C -0.795609 -3 -1.55874 -2.683901 -2.12132 -2.12132 
C -2.683901 -1.55874 -3 -0.795609 -3 0 
C -3 0.795609 -2.683901 1.55874 -2.12132 2.12132 
C -1.55874 2.683901 -0.795609 3 0 3 
z
" id="m37cd9c1587" style="stroke:#ff7f0e;"/>
    </defs>
    <g clip-path="url(#p21cc2ee109)">
     <use style="fill:#ff7f0e;stroke:#ff7f0e;" x="100.354276" xlink:href="#m37cd9c1587" y="118.325274"/>
    </g>
   </g>
   <g id="100A">
    <defs>
     <path d="M 0 3 
C 0.795609 3 1.55874 2.683901 2.12132 2.12132 
C 2.683901 1.55874 3 0.795609 3 0 
C 3 -0.795609 2.683901 -1.55874 2.12132 -2.12132 
C 1.55874 -2.683901 0.795609 -3 0 -3 
C -0.795609 -3 -1.55874 -2.683901 -2.12132 -2.12132 
C -2.683901 -1.55874 -3 -0.795609 -3 0 
C -3 0.795609 -2.683901 1.55874 -2.12132 2.12132 
C -1.55874 2.683901 -0.795609 3 0 3 
z
" id="m6b31770ff3" style="stroke:#2ca02c;"/>
    </defs>
    <g clip-path="url(#p21cc2ee109)">
     <use style="fill:#2ca02c;stroke:#2ca02c;" x="185.236768" xlink:href="#m6b31770ff3" y="128.954368"/>
    </g>
   </g>
   <g id="102A">
    <defs>
     <path d="M 0 3 
C 0.795609 3 1.55874 2.683901 2.12132 2.12132 
C 2.683901 1.55874 3 0.795609 3 0 
C 3 -0.795609 2.683901 -1.55874 2.12132 -2.12132 
C 1.55874 -2.683901 0.795609 -3 0 -3 
C -0.795609 -3 -1.55874 -2.683901 -2.12132 -2.12132 
C -2.683901 -1.55874 -3 -0.795609 -3 0 
C -3 0.795609 -2.683901 1.55874 -2.12132 2.12132 
C -1.55874 2.683901 -0.795609 3 0 3 
z
" id="m9bb2ed48fd" style="stroke:#d62728;"/>
    </defs>
    <g clip-path="url(#p21cc2ee109)">
     <use style="fill:#d62728;stroke:#d62728;" x="185.236768" xlink:href="#m9bb2ed48fd" y="90.875306"/>
    </g>
   </g>
   <g id="116A">
    <defs>
     <path d="M 0 3 
C 0.795609 3 1.55874 2.683901 2.12132 2.12132 
C 2.683901 1.55874 3 0.795609 3 0 
C 3 -0.795609 2.683901 -1.55874 2.12132 -2.12132 
C 1.55874 -2.683901 0.795609 -3 0 -3 
C -0.795609 -3 -1.55874 -2.683901 -2.12132 -2.12132 
C -2.683901 -1.55874 -3 -0.795609 -3 0 
C -3 0.795609 -2.683901 1.55874 -2.12132 2.12132 
C -1.55874 2.683901 -0.795609 3 0 3 
z
" id="m3c98ce990a" style="stroke:#9467bd;"/>
    </defs>
    <g clip-path="url(#p21cc2ee109)">
     <use style="fill:#9467bd;stroke:#9467bd;" x="384.180108" xlink:href="#m3c98ce990a" y="118.325274"/>
    </g>
   </g>
   <g id="117A">
    <defs>
     <path d="M 0 3 
C 0.795609 3 1.55874 2.683901 2.12132 2.12132 
C 2.683901 1.55874 3 0.795609 3 0 
C 3 -0.795609 2.683901 -1.55874 2.12132 -2.12132 
C 1.55874 -2.683901 0.795609 -3 0 -3 
C -0.795609 -3 -1.55874 -2.683901 -2.12132 -2.12132 
C -2.683901 -1.55874 -3 -0.795609 -3 0 
C -3 0.795609 -2.683901 1.55874 -2.12132 2.12132 
C -1.55874 2.683901 -0.795609 3 0 3 
z
" id="m9d24bcb74e" style="stroke:#8c564b;"/>
    </defs>
    <g clip-path="url(#p21cc2ee109)">
     <use style="fill:#8c564b;stroke:#8c564b;" x="136.164078" xlink:href="#m9d24bcb74e" y="272.095503"/>
    </g>
   </g>
   <g id="118A">
    <defs>
     <path d="M 0 3 
C 0.795609 3 1.55874 2.683901 2.12132 2.12132 
C 2.683901 1.55874 3 0.795609 3 0 
C 3 -0.795609 2.683901 -1.55874 2.12132 -2.12132 
C 1.55874 -2.683901 0.795609 -3 0 -3 
C -0.795609 -3 -1.55874 -2.683901 -2.12132 -2.12132 
C -2.683901 -1.55874 -3 -0.795609 -3 0 
C -3 0.795609 -2.683901 1.55874 -2.12132 2.12132 
C -1.55874 2.683901 -0.795609 3 0 3 
z
" id="m43772ab55a" style="stroke:#e377c2;"/>
    </defs>
    <g clip-path="url(#p21cc2ee109)">
     <use style="fill:#e377c2;stroke:#e377c2;" x="198.499658" xlink:href="#m43772ab55a" y="30.997642"/>
    </g>
   </g>
   <g id="121A">
    <defs>
     <path d="M 0 3 
C 0.795609 3 1.55874 2.683901 2.12132 2.12132 
C 2.683901 1.55874 3 0.795609 3 0 
C 3 -0.795609 2.683901 -1.55874 2.12132 -2.12132 
C 1.55874 -2.683901 0.795609 -3 0 -3 
C -0.795609 -3 -1.55874 -2.683901 -2.12132 -2.12132 
C -2.683901 -1.55874 -3 -0.795609 -3 0 
C -3 0.795609 -2.683901 1.55874 -2.12132 2.12132 
C -1.55874 2.683901 -0.795609 3 0 3 
z
" id="m163381dfc2" style="stroke:#7f7f7f;"/>
    </defs>
    <g clip-path="url(#p21cc2ee109)">
     <use style="fill:#7f7f7f;stroke:#7f7f7f;" x="103.006854" xlink:href="#m163381dfc2" y="139.162971"/>
    </g>
   </g>
   <g id="111A">
    <defs>
     <path d="M 0 3 
C 0.795609 3 1.55874 2.683901 2.12132 2.12132 
C 2.683901 1.55874 3 0.795609 3 0 
C 3 -0.795609 2.683901 -1.55874 2.12132 -2.12132 
C 1.55874 -2.683901 0.795609 -3 0 -3 
C -0.795609 -3 -1.55874 -2.683901 -2.12132 -2.12132 
C -2.683901 -1.55874 -3 -0.795609 -3 0 
C -3 0.795609 -2.683901 1.55874 -2.12132 2.12132 
C -1.55874 2.683901 -0.795609 3 0 3 
z
" id="m54a072a4ac" style="stroke:#bcbd22;"/>
    </defs>
    <g clip-path="url(#p21cc2ee109)">
     <use style="fill:#bcbd22;stroke:#bcbd22;" x="149.426967" xlink:href="#m54a072a4ac" y="118.325274"/>
    </g>
   </g>
   <g id="99A">
    <defs>
     <path d="M 0 3 
C 0.795609 3 1.55874 2.683901 2.12132 2.12132 
C 2.683901 1.55874 3 0.795609 3 0 
C 3 -0.795609 2.683901 -1.55874 2.12132 -2.12132 
C 1.55874 -2.683901 0.795609 -3 0 -3 
C -0.795609 -3 -1.55874 -2.683901 -2.12132 -2.12132 
C -2.683901 -1.55874 -3 -0.795609 -3 0 
C -3 0.795609 -2.683901 1.55874 -2.12132 2.12132 
C -1.55874 2.683901 -0.795609 3 0 3 
z
" id="m7d95955a44" style="stroke:#17becf;"/>
    </defs>
    <g clip-path="url(#p21cc2ee109)">
     <use style="fill:#17becf;stroke:#17becf;" x="103.006854" xlink:href="#m7d95955a44" y="184.529347"/>
    </g>
   </g>
   <g id="108A">
    <g clip-path="url(#p21cc2ee109)">
     <use style="fill:#1f77b4;stroke:#1f77b4;" x="108.31201" xlink:href="#m9b5a097e42" y="118.325274"/>
    </g>
   </g>
   <g id="103A">
    <g clip-path="url(#p21cc2ee109)">
     <use style="fill:#ff7f0e;stroke:#ff7f0e;" x="185.236768" xlink:href="#m37cd9c1587" y="111.947817"/>
    </g>
   </g>
   <g id="98A">
    <g clip-path="url(#p21cc2ee109)">
     <use style="fill:#2ca02c;stroke:#2ca02c;" x="108.31201" xlink:href="#m6b31770ff3" y="152.338376"/>
    </g>
   </g>
   <g id="115A">
    <g clip-path="url(#p21cc2ee109)">
     <use style="fill:#d62728;stroke:#d62728;" x="112.290877" xlink:href="#m9bb2ed48fd" y="118.325274"/>
    </g>
   </g>
   <g id="120A">
    <g clip-path="url(#p21cc2ee109)">
     <use style="fill:#9467bd;stroke:#9467bd;" x="198.499658" xlink:href="#m3c98ce990a" y="188.386928"/>
    </g>
   </g>
   <g id="109B">
    <g clip-path="url(#p21cc2ee109)">
     <use style="fill:#8c564b;stroke:#8c564b;" x="105.659432" xlink:href="#m9d24bcb74e" y="135.331825"/>
    </g>
   </g>
   <g id="101A">
    <g clip-path="url(#p21cc2ee109)">
     <use style="fill:#e377c2;stroke:#e377c2;" x="291.339883" xlink:href="#m43772ab55a" y="125.411337"/>
    </g>
   </g>
   <g id="109A">
    <g clip-path="url(#p21cc2ee109)">
     <use style="fill:#7f7f7f;stroke:#7f7f7f;" x="105.659432" xlink:href="#m163381dfc2" y="241.015392"/>
    </g>
   </g>
   <g id="104A">
    <g clip-path="url(#p21cc2ee109)">
     <use style="fill:#bcbd22;stroke:#bcbd22;" x="183.910479" xlink:href="#m54a072a4ac" y="122.64133"/>
    </g>
   </g>
   <g id="105A">
    <g clip-path="url(#p21cc2ee109)">
     <use style="fill:#17becf;stroke:#17becf;" x="164.016145" xlink:href="#m7d95955a44" y="175.865077"/>
    </g>
   </g>
   <g id="114A">
    <g clip-path="url(#p21cc2ee109)">
     <use style="fill:#1f77b4;stroke:#1f77b4;" x="141.469233" xlink:href="#m9b5a097e42" y="145.635125"/>
    </g>
   </g>
   <g id="113A">
    <g clip-path="url(#p21cc2ee109)">
     <use style="fill:#ff7f0e;stroke:#ff7f0e;" x="141.469233" xlink:href="#m37cd9c1587" y="67.720496"/>
    </g>
   </g>
   <g id="110A">
    <g clip-path="url(#p21cc2ee109)">
     <use style="fill:#2ca02c;stroke:#2ca02c;" x="81.786231" xlink:href="#m6b31770ff3" y="220.321634"/>
    </g>
   </g>
   <g id="107A">
    <g clip-path="url(#p21cc2ee109)">
     <use style="fill:#d62728;stroke:#d62728;" x="181.257901" xlink:href="#m9bb2ed48fd" y="28.686578"/>
    </g>
   </g>
   <g id="119A">
    <g clip-path="url(#p21cc2ee109)">
     <use style="fill:#9467bd;stroke:#9467bd;" x="198.499658" xlink:href="#m3c98ce990a" y="239.161294"/>
    </g>
   </g>
   <g id="112A">
    <g clip-path="url(#p21cc2ee109)">
     <use style="fill:#8c564b;stroke:#8c564b;" x="427.947643" xlink:href="#m9d24bcb74e" y="288.2479"/>
    </g>
   </g>
   <g id="matplotlib.axis_1">
    <g id="xtick_1">
     <g id="line2d_1">
      <defs>
       <path d="M 0 0 
L 0 3.5 
" id="mbfd0cbf3fa" style="stroke:#000000;stroke-width:0.8;"/>
      </defs>
      <g>
       <use style="stroke:#000000;stroke-width:0.8;" x="91.070254" xlink:href="#mbfd0cbf3fa" y="303.64"/>
      </g>
     </g>
     <g id="text_1">
      <text style="font-family:DejaVu Sans;font-size:10px;font-style:normal;font-weight:normal;text-anchor:middle;" transform="rotate(-0, 91.070254, 318.238437)" x="91.070254" y="318.238437">50</text>
     </g>
    </g>
    <g id="xtick_2">
     <g id="line2d_2">
      <g>
       <use style="stroke:#000000;stroke-width:0.8;" x="157.384701" xlink:href="#mbfd0cbf3fa" y="303.64"/>
      </g>
     </g>
     <g id="text_2">
      <text style="font-family:DejaVu Sans;font-size:10px;font-style:normal;font-weight:normal;text-anchor:middle;" transform="rotate(-0, 157.384701, 318.238437)" x="157.384701" y="318.238437">100</text>
     </g>
    </g>
    <g id="xtick_3">
     <g id="line2d_3">
      <g>
       <use style="stroke:#000000;stroke-width:0.8;" x="223.699147" xlink:href="#mbfd0cbf3fa" y="303.64"/>
      </g>
     </g>
     <g id="text_3">
      <text style="font-family:DejaVu Sans;font-size:10px;font-style:normal;font-weight:normal;text-anchor:middle;" transform="rotate(-0, 223.699147, 318.238437)" x="223.699147" y="318.238437">150</text>
     </g>
    </g>
    <g id="xtick_4">
     <g id="line2d_4">
      <g>
       <use style="stroke:#000000;stroke-width:0.8;" x="290.013594" xlink:href="#mbfd0cbf3fa" y="303.64"/>
      </g>
     </g>
     <g id="text_4">
      <text style="font-family:DejaVu Sans;font-size:10px;font-style:normal;font-weight:normal;text-anchor:middle;" transform="rotate(-0, 290.013594, 318.238437)" x="290.013594" y="318.238437">200</text>
     </g>
    </g>
    <g id="xtick_5">
     <g id="line2d_5">
      <g>
       <use style="stroke:#000000;stroke-width:0.8;" x="356.328041" xlink:href="#mbfd0cbf3fa" y="303.64"/>
      </g>
     </g>
     <g id="text_5">
      <text style="font-family:DejaVu Sans;font-size:10px;font-style:normal;font-weight:normal;text-anchor:middle;" transform="rotate(-0, 356.328041, 318.238437)" x="356.328041" y="318.238437">250</text>
     </g>
    </g>
    <g id="xtick_6">
     <g id="line2d_6">
      <g>
       <use style="stroke:#000000;stroke-width:0.8;" x="422.642487" xlink:href="#mbfd0cbf3fa" y="303.64"/>
      </g>
     </g>
     <g id="text_6">
      <text style="font-family:DejaVu Sans;font-size:10px;font-style:normal;font-weight:normal;text-anchor:middle;" transform="rotate(-0, 422.642487, 318.238437)" x="422.642487" y="318.238437">300</text>
     </g>
    </g>
    <g id="text_7">
     <text style="font-family:DejaVu Sans;font-size:10px;font-style:normal;font-weight:normal;text-anchor:middle;" transform="rotate(-0, 254.935, 331.916562)" x="254.935" y="331.916562">Amount of languages tested</text>
    </g>
   </g>
   <g id="matplotlib.axis_2">
    <g id="ytick_1">
     <g id="line2d_7">
      <defs>
       <path d="M 0 0 
L -3.5 0 
" id="m4196f87658" style="stroke:#000000;stroke-width:0.8;"/>
      </defs>
      <g>
       <use style="stroke:#000000;stroke-width:0.8;" x="62.39" xlink:href="#m4196f87658" y="245.874406"/>
      </g>
     </g>
     <g id="text_8">
      <text style="font-family:DejaVu Sans;font-size:10px;font-style:normal;font-weight:normal;text-anchor:end;" transform="rotate(-0, 55.39, 249.673625)" x="55.39" y="249.673625">−0.10</text>
     </g>
    </g>
    <g id="ytick_2">
     <g id="line2d_8">
      <g>
       <use style="stroke:#000000;stroke-width:0.8;" x="62.39" xlink:href="#m4196f87658" y="182.09984"/>
      </g>
     </g>
     <g id="text_9">
      <text style="font-family:DejaVu Sans;font-size:10px;font-style:normal;font-weight:normal;text-anchor:end;" transform="rotate(-0, 55.39, 185.899059)" x="55.39" y="185.899059">−0.05</text>
     </g>
    </g>
    <g id="ytick_3">
     <g id="line2d_9">
      <g>
       <use style="stroke:#000000;stroke-width:0.8;" x="62.39" xlink:href="#m4196f87658" y="118.325274"/>
      </g>
     </g>
     <g id="text_10">
      <text style="font-family:DejaVu Sans;font-size:10px;font-style:normal;font-weight:normal;text-anchor:end;" transform="rotate(-0, 55.39, 122.124492)" x="55.39" y="122.124492">0.00</text>
     </g>
    </g>
    <g id="ytick_4">
     <g id="line2d_10">
      <g>
       <use style="stroke:#000000;stroke-width:0.8;" x="62.39" xlink:href="#m4196f87658" y="54.550707"/>
      </g>
     </g>
     <g id="text_11">
      <text style="font-family:DejaVu Sans;font-size:10px;font-style:normal;font-weight:normal;text-anchor:end;" transform="rotate(-0, 55.39, 58.349926)" x="55.39" y="58.349926">0.05</text>
     </g>
    </g>
    <g id="text_12">
     <text style="font-family:DejaVu Sans;font-size:10px;font-style:normal;font-weight:normal;text-anchor:middle;" transform="rotate(-90, 18.665, 158.48)" x="18.665" y="158.48">Score - base</text>
    </g>
   </g>
   <g id="line2d_11">
    <path clip-path="url(#p21cc2ee109)" d="M 81.786231 138.108453 
L 100.354276 139.822143 
L 103.006854 140.066955 
L 104.333143 140.189362 
L 105.659432 140.311768 
L 108.31201 140.556581 
L 112.290877 140.9238 
L 136.164078 143.127116 
L 141.469233 143.616741 
L 149.426967 144.35118 
L 164.016145 145.69765 
L 181.257901 147.288933 
L 183.910479 147.533746 
L 185.236768 147.656153 
L 198.499658 148.880217 
L 291.339883 157.448665 
L 384.180108 166.017114 
L 427.947643 170.056526 
" style="fill:none;stroke:#1f77b4;stroke-linecap:square;stroke-width:1.5;"/>
   </g>
   <g id="patch_3">
    <path d="M 62.39 303.64 
L 62.39 13.32 
" style="fill:none;stroke:#000000;stroke-linecap:square;stroke-linejoin:miter;stroke-width:0.8;"/>
   </g>
   <g id="patch_4">
    <path d="M 447.48 303.64 
L 447.48 13.32 
" style="fill:none;stroke:#000000;stroke-linecap:square;stroke-linejoin:miter;stroke-width:0.8;"/>
   </g>
   <g id="patch_5">
    <path d="M 62.39 303.64 
L 447.48 303.64 
" style="fill:none;stroke:#000000;stroke-linecap:square;stroke-linejoin:miter;stroke-width:0.8;"/>
   </g>
   <g id="patch_6">
    <path d="M 62.39 13.32 
L 447.48 13.32 
" style="fill:none;stroke:#000000;stroke-linecap:square;stroke-linejoin:miter;stroke-width:0.8;"/>
   </g>
  </g>
 </g>
 <defs>
  <clipPath id="p21cc2ee109">
   <rect height="290.32" width="385.09" x="62.39" y="13.32"/>
  </clipPath>
 </defs>
</svg>
