<?xml version="1.0" encoding="utf-8" standalone="no"?>
<!DOCTYPE svg PUBLIC "-//W3C//DTD SVG 1.1//EN"
  "http://www.w3.org/Graphics/SVG/1.1/DTD/svg11.dtd">
<!-- Created with matplotlib (http://matplotlib.org/) -->
<svg height="345.6pt" version="1.1" viewBox="0 0 460.8 345.6" width="460.8pt" xmlns="http://www.w3.org/2000/svg" xmlns:xlink="http://www.w3.org/1999/xlink">
 <defs>
  <style type="text/css">
*{stroke-linecap:butt;stroke-linejoin:round;}
  </style>
 </defs>
 <g id="figure_1">
  <g id="patch_1">
   <path d="M 0 345.6 
L 460.8 345.6 
L 460.8 0 
L 0 0 
z
" style="fill:#ffffff;"/>
  </g>
  <g id="axes_1">
   <g id="patch_2">
    <path d="M 62.39 303.64 
L 447.48 303.64 
L 447.48 13.32 
L 62.39 13.32 
z
" style="fill:#ffffff;"/>
   </g>
   <g id="98A">
    <defs>
     <path d="M 0 3 
C 0.795609 3 1.55874 2.683901 2.12132 2.12132 
C 2.683901 1.55874 3 0.795609 3 0 
C 3 -0.795609 2.683901 -1.55874 2.12132 -2.12132 
C 1.55874 -2.683901 0.795609 -3 0 -3 
C -0.795609 -3 -1.55874 -2.683901 -2.12132 -2.12132 
C -2.683901 -1.55874 -3 -0.795609 -3 0 
C -3 0.795609 -2.683901 1.55874 -2.12132 2.12132 
C -1.55874 2.683901 -0.795609 3 0 3 
z
" id="m792d28d775" style="stroke:#1f77b4;"/>
    </defs>
    <g clip-path="url(#pf02ad4c266)">
     <use style="fill:#1f77b4;stroke:#1f77b4;" x="108.756114" xlink:href="#m792d28d775" y="153.206968"/>
    </g>
   </g>
   <g id="112A">
    <defs>
     <path d="M 0 3 
C 0.795609 3 1.55874 2.683901 2.12132 2.12132 
C 2.683901 1.55874 3 0.795609 3 0 
C 3 -0.795609 2.683901 -1.55874 2.12132 -2.12132 
C 1.55874 -2.683901 0.795609 -3 0 -3 
C -0.795609 -3 -1.55874 -2.683901 -2.12132 -2.12132 
C -2.683901 -1.55874 -3 -0.795609 -3 0 
C -3 0.795609 -2.683901 1.55874 -2.12132 2.12132 
C -1.55874 2.683901 -0.795609 3 0 3 
z
" id="mdc6dfbe1a9" style="stroke:#ff7f0e;"/>
    </defs>
    <g clip-path="url(#pf02ad4c266)">
     <use style="fill:#ff7f0e;stroke:#ff7f0e;" x="429.975802" xlink:href="#mdc6dfbe1a9" y="290.257209"/>
    </g>
   </g>
   <g id="120A">
    <defs>
     <path d="M 0 3 
C 0.795609 3 1.55874 2.683901 2.12132 2.12132 
C 2.683901 1.55874 3 0.795609 3 0 
C 3 -0.795609 2.683901 -1.55874 2.12132 -2.12132 
C 1.55874 -2.683901 0.795609 -3 0 -3 
C -0.795609 -3 -1.55874 -2.683901 -2.12132 -2.12132 
C -2.683901 -1.55874 -3 -0.795609 -3 0 
C -3 0.795609 -2.683901 1.55874 -2.12132 2.12132 
C -1.55874 2.683901 -0.795609 3 0 3 
z
" id="m60b18cfd90" style="stroke:#2ca02c;"/>
    </defs>
    <g clip-path="url(#pf02ad4c266)">
     <use style="fill:#2ca02c;stroke:#2ca02c;" x="199.390715" xlink:href="#m60b18cfd90" y="189.558083"/>
    </g>
   </g>
   <g id="109B">
    <defs>
     <path d="M 0 3 
C 0.795609 3 1.55874 2.683901 2.12132 2.12132 
C 2.683901 1.55874 3 0.795609 3 0 
C 3 -0.795609 2.683901 -1.55874 2.12132 -2.12132 
C 1.55874 -2.683901 0.795609 -3 0 -3 
C -0.795609 -3 -1.55874 -2.683901 -2.12132 -2.12132 
C -2.683901 -1.55874 -3 -0.795609 -3 0 
C -3 0.795609 -2.683901 1.55874 -2.12132 2.12132 
C -1.55874 2.683901 -0.795609 3 0 3 
z
" id="meb4a066990" style="stroke:#d62728;"/>
    </defs>
    <g clip-path="url(#pf02ad4c266)">
     <use style="fill:#d62728;stroke:#d62728;" x="106.090391" xlink:href="#meb4a066990" y="136.057677"/>
    </g>
   </g>
   <g id="109A">
    <defs>
     <path d="M 0 3 
C 0.795609 3 1.55874 2.683901 2.12132 2.12132 
C 2.683901 1.55874 3 0.795609 3 0 
C 3 -0.795609 2.683901 -1.55874 2.12132 -2.12132 
C 1.55874 -2.683901 0.795609 -3 0 -3 
C -0.795609 -3 -1.55874 -2.683901 -2.12132 -2.12132 
C -2.683901 -1.55874 -3 -0.795609 -3 0 
C -3 0.795609 -2.683901 1.55874 -2.12132 2.12132 
C -1.55874 2.683901 -0.795609 3 0 3 
z
" id="mfd4f342240" style="stroke:#9467bd;"/>
    </defs>
    <g clip-path="url(#pf02ad4c266)">
     <use style="fill:#9467bd;stroke:#9467bd;" x="106.090391" xlink:href="#mfd4f342240" y="242.628269"/>
    </g>
   </g>
   <g id="106A">
    <defs>
     <path d="M 0 3 
C 0.795609 3 1.55874 2.683901 2.12132 2.12132 
C 2.683901 1.55874 3 0.795609 3 0 
C 3 -0.795609 2.683901 -1.55874 2.12132 -2.12132 
C 1.55874 -2.683901 0.795609 -3 0 -3 
C -0.795609 -3 -1.55874 -2.683901 -2.12132 -2.12132 
C -2.683901 -1.55874 -3 -0.795609 -3 0 
C -3 0.795609 -2.683901 1.55874 -2.12132 2.12132 
C -1.55874 2.683901 -0.795609 3 0 3 
z
" id="m94d8662f97" style="stroke:#8c564b;"/>
    </defs>
    <g clip-path="url(#pf02ad4c266)">
     <use style="fill:#8c564b;stroke:#8c564b;" x="100.758944" xlink:href="#m94d8662f97" y="118.908387"/>
    </g>
   </g>
   <g id="113A">
    <defs>
     <path d="M 0 3 
C 0.795609 3 1.55874 2.683901 2.12132 2.12132 
C 2.683901 1.55874 3 0.795609 3 0 
C 3 -0.795609 2.683901 -1.55874 2.12132 -2.12132 
C 1.55874 -2.683901 0.795609 -3 0 -3 
C -0.795609 -3 -1.55874 -2.683901 -2.12132 -2.12132 
C -2.683901 -1.55874 -3 -0.795609 -3 0 
C -3 0.795609 -2.683901 1.55874 -2.12132 2.12132 
C -1.55874 2.683901 -0.795609 3 0 3 
z
" id="m959d908efd" style="stroke:#e377c2;"/>
    </defs>
    <g clip-path="url(#pf02ad4c266)">
     <use style="fill:#e377c2;stroke:#e377c2;" x="142.077659" xlink:href="#m959d908efd" y="67.878873"/>
    </g>
   </g>
   <g id="100A">
    <defs>
     <path d="M 0 3 
C 0.795609 3 1.55874 2.683901 2.12132 2.12132 
C 2.683901 1.55874 3 0.795609 3 0 
C 3 -0.795609 2.683901 -1.55874 2.12132 -2.12132 
C 1.55874 -2.683901 0.795609 -3 0 -3 
C -0.795609 -3 -1.55874 -2.683901 -2.12132 -2.12132 
C -2.683901 -1.55874 -3 -0.795609 -3 0 
C -3 0.795609 -2.683901 1.55874 -2.12132 2.12132 
C -1.55874 2.683901 -0.795609 3 0 3 
z
" id="m14ba85213b" style="stroke:#7f7f7f;"/>
    </defs>
    <g clip-path="url(#pf02ad4c266)">
     <use style="fill:#7f7f7f;stroke:#7f7f7f;" x="186.062097" xlink:href="#m14ba85213b" y="129.626693"/>
    </g>
   </g>
   <g id="107A">
    <defs>
     <path d="M 0 3 
C 0.795609 3 1.55874 2.683901 2.12132 2.12132 
C 2.683901 1.55874 3 0.795609 3 0 
C 3 -0.795609 2.683901 -1.55874 2.12132 -2.12132 
C 1.55874 -2.683901 0.795609 -3 0 -3 
C -0.795609 -3 -1.55874 -2.683901 -2.12132 -2.12132 
C -2.683901 -1.55874 -3 -0.795609 -3 0 
C -3 0.795609 -2.683901 1.55874 -2.12132 2.12132 
C -1.55874 2.683901 -0.795609 3 0 3 
z
" id="m14a041c6be" style="stroke:#bcbd22;"/>
    </defs>
    <g clip-path="url(#pf02ad4c266)">
     <use style="fill:#bcbd22;stroke:#bcbd22;" x="182.063512" xlink:href="#m14a041c6be" y="28.517335"/>
    </g>
   </g>
   <g id="114A">
    <defs>
     <path d="M 0 3 
C 0.795609 3 1.55874 2.683901 2.12132 2.12132 
C 2.683901 1.55874 3 0.795609 3 0 
C 3 -0.795609 2.683901 -1.55874 2.12132 -2.12132 
C 1.55874 -2.683901 0.795609 -3 0 -3 
C -0.795609 -3 -1.55874 -2.683901 -2.12132 -2.12132 
C -2.683901 -1.55874 -3 -0.795609 -3 0 
C -3 0.795609 -2.683901 1.55874 -2.12132 2.12132 
C -1.55874 2.683901 -0.795609 3 0 3 
z
" id="m601da46bd8" style="stroke:#17becf;"/>
    </defs>
    <g clip-path="url(#pf02ad4c266)">
     <use style="fill:#17becf;stroke:#17becf;" x="142.077659" xlink:href="#m601da46bd8" y="146.447455"/>
    </g>
   </g>
   <g id="110A">
    <g clip-path="url(#pf02ad4c266)">
     <use style="fill:#1f77b4;stroke:#1f77b4;" x="82.098879" xlink:href="#m792d28d775" y="221.760824"/>
    </g>
   </g>
   <g id="103A">
    <g clip-path="url(#pf02ad4c266)">
     <use style="fill:#ff7f0e;stroke:#ff7f0e;" x="186.062097" xlink:href="#mdc6dfbe1a9" y="112.477403"/>
    </g>
   </g>
   <g id="99A">
    <g clip-path="url(#pf02ad4c266)">
     <use style="fill:#2ca02c;stroke:#2ca02c;" x="103.424667" xlink:href="#m60b18cfd90" y="185.668125"/>
    </g>
   </g>
   <g id="104A">
    <g clip-path="url(#pf02ad4c266)">
     <use style="fill:#d62728;stroke:#d62728;" x="184.729235" xlink:href="#meb4a066990" y="123.260669"/>
    </g>
   </g>
   <g id="119A">
    <g clip-path="url(#pf02ad4c266)">
     <use style="fill:#9467bd;stroke:#9467bd;" x="199.390715" xlink:href="#mfd4f342240" y="240.758609"/>
    </g>
   </g>
   <g id="102A">
    <g clip-path="url(#pf02ad4c266)">
     <use style="fill:#8c564b;stroke:#8c564b;" x="186.062097" xlink:href="#m94d8662f97" y="91.228026"/>
    </g>
   </g>
   <g id="118A">
    <g clip-path="url(#pf02ad4c266)">
     <use style="fill:#e377c2;stroke:#e377c2;" x="199.390715" xlink:href="#m959d908efd" y="30.847796"/>
    </g>
   </g>
   <g id="115A">
    <g clip-path="url(#pf02ad4c266)">
     <use style="fill:#7f7f7f;stroke:#7f7f7f;" x="112.754699" xlink:href="#m14ba85213b" y="118.908387"/>
    </g>
   </g>
   <g id="116A">
    <g clip-path="url(#pf02ad4c266)">
     <use style="fill:#bcbd22;stroke:#bcbd22;" x="385.991363" xlink:href="#m14a041c6be" y="118.908387"/>
    </g>
   </g>
   <g id="101A">
    <g clip-path="url(#pf02ad4c266)">
     <use style="fill:#17becf;stroke:#17becf;" x="292.691039" xlink:href="#m601da46bd8" y="126.053925"/>
    </g>
   </g>
   <g id="108B">
    <g clip-path="url(#pf02ad4c266)">
     <use style="fill:#1f77b4;stroke:#1f77b4;" x="104.757529" xlink:href="#m792d28d775" y="118.908387"/>
    </g>
   </g>
   <g id="121A">
    <g clip-path="url(#pf02ad4c266)">
     <use style="fill:#ff7f0e;stroke:#ff7f0e;" x="103.424667" xlink:href="#mdc6dfbe1a9" y="139.920979"/>
    </g>
   </g>
   <g id="117A">
    <g clip-path="url(#pf02ad4c266)">
     <use style="fill:#2ca02c;stroke:#2ca02c;" x="136.746211" xlink:href="#m60b18cfd90" y="273.969242"/>
    </g>
   </g>
   <g id="108A">
    <g clip-path="url(#pf02ad4c266)">
     <use style="fill:#d62728;stroke:#d62728;" x="108.756114" xlink:href="#meb4a066990" y="118.908387"/>
    </g>
   </g>
   <g id="105A">
    <g clip-path="url(#pf02ad4c266)">
     <use style="fill:#9467bd;stroke:#9467bd;" x="164.736309" xlink:href="#mfd4f342240" y="176.931134"/>
    </g>
   </g>
   <g id="111A">
    <g clip-path="url(#pf02ad4c266)">
     <use style="fill:#8c564b;stroke:#8c564b;" x="150.074829" xlink:href="#m94d8662f97" y="118.908387"/>
    </g>
   </g>
   <g id="matplotlib.axis_1">
    <g id="xtick_1">
     <g id="line2d_1">
      <defs>
       <path d="M 0 0 
L 0 3.5 
" id="m9285f22512" style="stroke:#000000;stroke-width:0.8;"/>
      </defs>
      <g>
       <use style="stroke:#000000;stroke-width:0.8;" x="91.428911" xlink:href="#m9285f22512" y="303.64"/>
      </g>
     </g>
     <g id="text_1">
      <text style="font-family:DejaVu Sans;font-size:10px;font-style:normal;font-weight:normal;text-anchor:middle;" transform="rotate(-0, 91.428911, 318.238437)" x="91.428911" y="318.238437">50</text>
     </g>
    </g>
    <g id="xtick_2">
     <g id="line2d_2">
      <g>
       <use style="stroke:#000000;stroke-width:0.8;" x="158.072" xlink:href="#m9285f22512" y="303.64"/>
      </g>
     </g>
     <g id="text_2">
      <text style="font-family:DejaVu Sans;font-size:10px;font-style:normal;font-weight:normal;text-anchor:middle;" transform="rotate(-0, 158.072, 318.238437)" x="158.072" y="318.238437">100</text>
     </g>
    </g>
    <g id="xtick_3">
     <g id="line2d_3">
      <g>
       <use style="stroke:#000000;stroke-width:0.8;" x="224.715089" xlink:href="#m9285f22512" y="303.64"/>
      </g>
     </g>
     <g id="text_3">
      <text style="font-family:DejaVu Sans;font-size:10px;font-style:normal;font-weight:normal;text-anchor:middle;" transform="rotate(-0, 224.715089, 318.238437)" x="224.715089" y="318.238437">150</text>
     </g>
    </g>
    <g id="xtick_4">
     <g id="line2d_4">
      <g>
       <use style="stroke:#000000;stroke-width:0.8;" x="291.358177" xlink:href="#m9285f22512" y="303.64"/>
      </g>
     </g>
     <g id="text_4">
      <text style="font-family:DejaVu Sans;font-size:10px;font-style:normal;font-weight:normal;text-anchor:middle;" transform="rotate(-0, 291.358177, 318.238437)" x="291.358177" y="318.238437">200</text>
     </g>
    </g>
    <g id="xtick_5">
     <g id="line2d_5">
      <g>
       <use style="stroke:#000000;stroke-width:0.8;" x="358.001266" xlink:href="#m9285f22512" y="303.64"/>
      </g>
     </g>
     <g id="text_5">
      <text style="font-family:DejaVu Sans;font-size:10px;font-style:normal;font-weight:normal;text-anchor:middle;" transform="rotate(-0, 358.001266, 318.238437)" x="358.001266" y="318.238437">250</text>
     </g>
    </g>
    <g id="xtick_6">
     <g id="line2d_6">
      <g>
       <use style="stroke:#000000;stroke-width:0.8;" x="424.644355" xlink:href="#m9285f22512" y="303.64"/>
      </g>
     </g>
     <g id="text_6">
      <text style="font-family:DejaVu Sans;font-size:10px;font-style:normal;font-weight:normal;text-anchor:middle;" transform="rotate(-0, 424.644355, 318.238437)" x="424.644355" y="318.238437">300</text>
     </g>
    </g>
    <g id="text_7">
     <text style="font-family:DejaVu Sans;font-size:10px;font-style:normal;font-weight:normal;text-anchor:middle;" transform="rotate(-0, 254.935, 331.916562)" x="254.935" y="331.916562">Amount of languages tested</text>
    </g>
   </g>
   <g id="matplotlib.axis_2">
    <g id="ytick_1">
     <g id="line2d_7">
      <defs>
       <path d="M 0 0 
L -3.5 0 
" id="m8c7d4c57ff" style="stroke:#000000;stroke-width:0.8;"/>
      </defs>
      <g>
       <use style="stroke:#000000;stroke-width:0.8;" x="62.39" xlink:href="#m8c7d4c57ff" y="247.528066"/>
      </g>
     </g>
     <g id="text_8">
      <text style="font-family:DejaVu Sans;font-size:10px;font-style:normal;font-weight:normal;text-anchor:end;" transform="rotate(-0, 55.39, 251.327285)" x="55.39" y="251.327285">−0.10</text>
     </g>
    </g>
    <g id="ytick_2">
     <g id="line2d_8">
      <g>
       <use style="stroke:#000000;stroke-width:0.8;" x="62.39" xlink:href="#m8c7d4c57ff" y="183.218226"/>
      </g>
     </g>
     <g id="text_9">
      <text style="font-family:DejaVu Sans;font-size:10px;font-style:normal;font-weight:normal;text-anchor:end;" transform="rotate(-0, 55.39, 187.017445)" x="55.39" y="187.017445">−0.05</text>
     </g>
    </g>
    <g id="ytick_3">
     <g id="line2d_9">
      <g>
       <use style="stroke:#000000;stroke-width:0.8;" x="62.39" xlink:href="#m8c7d4c57ff" y="118.908387"/>
      </g>
     </g>
     <g id="text_10">
      <text style="font-family:DejaVu Sans;font-size:10px;font-style:normal;font-weight:normal;text-anchor:end;" transform="rotate(-0, 55.39, 122.707606)" x="55.39" y="122.707606">0.00</text>
     </g>
    </g>
    <g id="ytick_4">
     <g id="line2d_10">
      <g>
       <use style="stroke:#000000;stroke-width:0.8;" x="62.39" xlink:href="#m8c7d4c57ff" y="54.598547"/>
      </g>
     </g>
     <g id="text_11">
      <text style="font-family:DejaVu Sans;font-size:10px;font-style:normal;font-weight:normal;text-anchor:end;" transform="rotate(-0, 55.39, 58.397766)" x="55.39" y="58.397766">0.05</text>
     </g>
    </g>
    <g id="text_12">
     <text style="font-family:DejaVu Sans;font-size:10px;font-style:normal;font-weight:normal;text-anchor:middle;" transform="rotate(-90, 18.665, 158.48)" x="18.665" y="158.48">Score - base</text>
    </g>
   </g>
   <g id="line2d_11">
    <path clip-path="url(#pf02ad4c266)" d="M 82.098879 138.85761 
L 100.758944 140.585683 
L 103.424667 140.832551 
L 104.757529 140.955985 
L 106.090391 141.079419 
L 108.756114 141.326286 
L 112.754699 141.696588 
L 136.746211 143.918396 
L 142.077659 144.412131 
L 150.074829 145.152734 
L 164.736309 146.510505 
L 182.063512 148.115145 
L 184.729235 148.362012 
L 186.062097 148.485446 
L 199.390715 149.719784 
L 292.691039 158.360149 
L 385.991363 167.000515 
L 429.975802 171.07383 
" style="fill:none;stroke:#1f77b4;stroke-linecap:square;stroke-width:1.5;"/>
   </g>
   <g id="patch_3">
    <path d="M 62.39 303.64 
L 62.39 13.32 
" style="fill:none;stroke:#000000;stroke-linecap:square;stroke-linejoin:miter;stroke-width:0.8;"/>
   </g>
   <g id="patch_4">
    <path d="M 447.48 303.64 
L 447.48 13.32 
" style="fill:none;stroke:#000000;stroke-linecap:square;stroke-linejoin:miter;stroke-width:0.8;"/>
   </g>
   <g id="patch_5">
    <path d="M 62.39 303.64 
L 447.48 303.64 
" style="fill:none;stroke:#000000;stroke-linecap:square;stroke-linejoin:miter;stroke-width:0.8;"/>
   </g>
   <g id="patch_6">
    <path d="M 62.39 13.32 
L 447.48 13.32 
" style="fill:none;stroke:#000000;stroke-linecap:square;stroke-linejoin:miter;stroke-width:0.8;"/>
   </g>
  </g>
 </g>
 <defs>
  <clipPath id="pf02ad4c266">
   <rect height="290.32" width="385.09" x="62.39" y="13.32"/>
  </clipPath>
 </defs>
</svg>
