<?xml version="1.0" encoding="utf-8" standalone="no"?>
<!DOCTYPE svg PUBLIC "-//W3C//DTD SVG 1.1//EN"
  "http://www.w3.org/Graphics/SVG/1.1/DTD/svg11.dtd">
<!-- Created with matplotlib (http://matplotlib.org/) -->
<svg height="345.6pt" version="1.1" viewBox="0 0 460.8 345.6" width="460.8pt" xmlns="http://www.w3.org/2000/svg" xmlns:xlink="http://www.w3.org/1999/xlink">
 <defs>
  <style type="text/css">
*{stroke-linecap:butt;stroke-linejoin:round;}
  </style>
 </defs>
 <g id="figure_1">
  <g id="patch_1">
   <path d="M 0 345.6 
L 460.8 345.6 
L 460.8 0 
L 0 0 
z
" style="fill:#ffffff;"/>
  </g>
  <g id="axes_1">
   <g id="patch_2">
    <path d="M 56.09 303.64 
L 444.213489 303.64 
L 444.213489 13.32 
L 56.09 13.32 
z
" style="fill:#ffffff;"/>
   </g>
   <g id="81A">
    <defs>
     <path d="M 0 3 
C 0.795609 3 1.55874 2.683901 2.12132 2.12132 
C 2.683901 1.55874 3 0.795609 3 0 
C 3 -0.795609 2.683901 -1.55874 2.12132 -2.12132 
C 1.55874 -2.683901 0.795609 -3 0 -3 
C -0.795609 -3 -1.55874 -2.683901 -2.12132 -2.12132 
C -2.683901 -1.55874 -3 -0.795609 -3 0 
C -3 0.795609 -2.683901 1.55874 -2.12132 2.12132 
C -1.55874 2.683901 -0.795609 3 0 3 
z
" id="m8e4856a69a" style="stroke:#1f77b4;"/>
    </defs>
    <g clip-path="url(#p60bc505ad3)">
     <use style="fill:#1f77b4;stroke:#1f77b4;" x="404.364715" xlink:href="#m8e4856a69a" y="231.880832"/>
    </g>
   </g>
   <g id="82A">
    <defs>
     <path d="M 0 3 
C 0.795609 3 1.55874 2.683901 2.12132 2.12132 
C 2.683901 1.55874 3 0.795609 3 0 
C 3 -0.795609 2.683901 -1.55874 2.12132 -2.12132 
C 1.55874 -2.683901 0.795609 -3 0 -3 
C -0.795609 -3 -1.55874 -2.683901 -2.12132 -2.12132 
C -2.683901 -1.55874 -3 -0.795609 -3 0 
C -3 0.795609 -2.683901 1.55874 -2.12132 2.12132 
C -1.55874 2.683901 -0.795609 3 0 3 
z
" id="m690c7f00dd" style="stroke:#ff7f0e;"/>
    </defs>
    <g clip-path="url(#p60bc505ad3)">
     <use style="fill:#ff7f0e;stroke:#ff7f0e;" x="424.597516" xlink:href="#m690c7f00dd" y="213.989563"/>
    </g>
   </g>
   <g id="83A">
    <defs>
     <path d="M 0 3 
C 0.795609 3 1.55874 2.683901 2.12132 2.12132 
C 2.683901 1.55874 3 0.795609 3 0 
C 3 -0.795609 2.683901 -1.55874 2.12132 -2.12132 
C 1.55874 -2.683901 0.795609 -3 0 -3 
C -0.795609 -3 -1.55874 -2.683901 -2.12132 -2.12132 
C -2.683901 -1.55874 -3 -0.795609 -3 0 
C -3 0.795609 -2.683901 1.55874 -2.12132 2.12132 
C -1.55874 2.683901 -0.795609 3 0 3 
z
" id="m016ad1a52a" style="stroke:#2ca02c;"/>
    </defs>
    <g clip-path="url(#p60bc505ad3)">
     <use style="fill:#2ca02c;stroke:#2ca02c;" x="426.436861" xlink:href="#m016ad1a52a" y="154.064126"/>
    </g>
   </g>
   <g id="84A">
    <defs>
     <path d="M 0 3 
C 0.795609 3 1.55874 2.683901 2.12132 2.12132 
C 2.683901 1.55874 3 0.795609 3 0 
C 3 -0.795609 2.683901 -1.55874 2.12132 -2.12132 
C 1.55874 -2.683901 0.795609 -3 0 -3 
C -0.795609 -3 -1.55874 -2.683901 -2.12132 -2.12132 
C -2.683901 -1.55874 -3 -0.795609 -3 0 
C -3 0.795609 -2.683901 1.55874 -2.12132 2.12132 
C -1.55874 2.683901 -0.795609 3 0 3 
z
" id="maaa9c246e3" style="stroke:#d62728;"/>
    </defs>
    <g clip-path="url(#p60bc505ad3)">
     <use style="fill:#d62728;stroke:#d62728;" x="210.313759" xlink:href="#maaa9c246e3" y="177.667213"/>
    </g>
   </g>
   <g id="85A">
    <defs>
     <path d="M 0 3 
C 0.795609 3 1.55874 2.683901 2.12132 2.12132 
C 2.683901 1.55874 3 0.795609 3 0 
C 3 -0.795609 2.683901 -1.55874 2.12132 -2.12132 
C 1.55874 -2.683901 0.795609 -3 0 -3 
C -0.795609 -3 -1.55874 -2.683901 -2.12132 -2.12132 
C -2.683901 -1.55874 -3 -0.795609 -3 0 
C -3 0.795609 -2.683901 1.55874 -2.12132 2.12132 
C -1.55874 2.683901 -0.795609 3 0 3 
z
" id="m2b63de8286" style="stroke:#9467bd;"/>
    </defs>
    <g clip-path="url(#p60bc505ad3)">
     <use style="fill:#9467bd;stroke:#9467bd;" x="372.176168" xlink:href="#m2b63de8286" y="119.60097"/>
    </g>
   </g>
   <g id="86A">
    <defs>
     <path d="M 0 3 
C 0.795609 3 1.55874 2.683901 2.12132 2.12132 
C 2.683901 1.55874 3 0.795609 3 0 
C 3 -0.795609 2.683901 -1.55874 2.12132 -2.12132 
C 1.55874 -2.683901 0.795609 -3 0 -3 
C -0.795609 -3 -1.55874 -2.683901 -2.12132 -2.12132 
C -2.683901 -1.55874 -3 -0.795609 -3 0 
C -3 0.795609 -2.683901 1.55874 -2.12132 2.12132 
C -1.55874 2.683901 -0.795609 3 0 3 
z
" id="m23f9cc9ec7" style="stroke:#8c564b;"/>
    </defs>
    <g clip-path="url(#p60bc505ad3)">
     <use style="fill:#8c564b;stroke:#8c564b;" x="388.730278" xlink:href="#m23f9cc9ec7" y="127.664079"/>
    </g>
   </g>
   <g id="87A">
    <defs>
     <path d="M 0 3 
C 0.795609 3 1.55874 2.683901 2.12132 2.12132 
C 2.683901 1.55874 3 0.795609 3 0 
C 3 -0.795609 2.683901 -1.55874 2.12132 -2.12132 
C 1.55874 -2.683901 0.795609 -3 0 -3 
C -0.795609 -3 -1.55874 -2.683901 -2.12132 -2.12132 
C -2.683901 -1.55874 -3 -0.795609 -3 0 
C -3 0.795609 -2.683901 1.55874 -2.12132 2.12132 
C -1.55874 2.683901 -0.795609 3 0 3 
z
" id="mea82662fe6" style="stroke:#e377c2;"/>
    </defs>
    <g clip-path="url(#p60bc505ad3)">
     <use style="fill:#e377c2;stroke:#e377c2;" x="397.007333" xlink:href="#mea82662fe6" y="188.978148"/>
    </g>
   </g>
   <g id="88A">
    <defs>
     <path d="M 0 3 
C 0.795609 3 1.55874 2.683901 2.12132 2.12132 
C 2.683901 1.55874 3 0.795609 3 0 
C 3 -0.795609 2.683901 -1.55874 2.12132 -2.12132 
C 1.55874 -2.683901 0.795609 -3 0 -3 
C -0.795609 -3 -1.55874 -2.683901 -2.12132 -2.12132 
C -2.683901 -1.55874 -3 -0.795609 -3 0 
C -3 0.795609 -2.683901 1.55874 -2.12132 2.12132 
C -1.55874 2.683901 -0.795609 3 0 3 
z
" id="m630bcb8841" style="stroke:#7f7f7f;"/>
    </defs>
    <g clip-path="url(#p60bc505ad3)">
     <use style="fill:#7f7f7f;stroke:#7f7f7f;" x="369.417149" xlink:href="#m630bcb8841" y="71.2907"/>
    </g>
   </g>
   <g id="89A">
    <defs>
     <path d="M 0 3 
C 0.795609 3 1.55874 2.683901 2.12132 2.12132 
C 2.683901 1.55874 3 0.795609 3 0 
C 3 -0.795609 2.683901 -1.55874 2.12132 -2.12132 
C 1.55874 -2.683901 0.795609 -3 0 -3 
C -0.795609 -3 -1.55874 -2.683901 -2.12132 -2.12132 
C -2.683901 -1.55874 -3 -0.795609 -3 0 
C -3 0.795609 -2.683901 1.55874 -2.12132 2.12132 
C -1.55874 2.683901 -0.795609 3 0 3 
z
" id="m9d7b4e52c1" style="stroke:#bcbd22;"/>
    </defs>
    <g clip-path="url(#p60bc505ad3)">
     <use style="fill:#bcbd22;stroke:#bcbd22;" x="355.622058" xlink:href="#m9d7b4e52c1" y="28.00075"/>
    </g>
   </g>
   <g id="90A">
    <defs>
     <path d="M 0 3 
C 0.795609 3 1.55874 2.683901 2.12132 2.12132 
C 2.683901 1.55874 3 0.795609 3 0 
C 3 -0.795609 2.683901 -1.55874 2.12132 -2.12132 
C 1.55874 -2.683901 0.795609 -3 0 -3 
C -0.795609 -3 -1.55874 -2.683901 -2.12132 -2.12132 
C -2.683901 -1.55874 -3 -0.795609 -3 0 
C -3 0.795609 -2.683901 1.55874 -2.12132 2.12132 
C -1.55874 2.683901 -0.795609 3 0 3 
z
" id="m12b10e9b49" style="stroke:#17becf;"/>
    </defs>
    <g clip-path="url(#p60bc505ad3)">
     <use style="fill:#17becf;stroke:#17becf;" x="291.244963" xlink:href="#m12b10e9b49" y="169.214002"/>
    </g>
   </g>
   <g id="91A">
    <g clip-path="url(#p60bc505ad3)">
     <use style="fill:#1f77b4;stroke:#1f77b4;" x="228.707215" xlink:href="#m8e4856a69a" y="61.77181"/>
    </g>
   </g>
   <g id="92A">
    <g clip-path="url(#p60bc505ad3)">
     <use style="fill:#ff7f0e;stroke:#ff7f0e;" x="303.200709" xlink:href="#m690c7f00dd" y="191.926671"/>
    </g>
   </g>
   <g id="93A">
    <g clip-path="url(#p60bc505ad3)">
     <use style="fill:#2ca02c;stroke:#2ca02c;" x="314.236783" xlink:href="#m016ad1a52a" y="288.568857"/>
    </g>
   </g>
   <g id="94A">
    <g clip-path="url(#p60bc505ad3)">
     <use style="fill:#d62728;stroke:#d62728;" x="257.217071" xlink:href="#maaa9c246e3" y="187.217859"/>
    </g>
   </g>
   <g id="95A">
    <g clip-path="url(#p60bc505ad3)">
     <use style="fill:#9467bd;stroke:#9467bd;" x="363.899113" xlink:href="#m2b63de8286" y="160.77098"/>
    </g>
   </g>
   <g id="96A">
    <g clip-path="url(#p60bc505ad3)">
     <use style="fill:#8c564b;stroke:#8c564b;" x="296.763" xlink:href="#m23f9cc9ec7" y="182.913395"/>
    </g>
   </g>
   <g id="97A">
    <g clip-path="url(#p60bc505ad3)">
     <use style="fill:#e377c2;stroke:#e377c2;" x="388.730278" xlink:href="#mea82662fe6" y="227.917058"/>
    </g>
   </g>
   <g id="143F">
    <g clip-path="url(#p60bc505ad3)">
     <use style="fill:#7f7f7f;stroke:#7f7f7f;" x="391.489296" xlink:href="#m630bcb8841" y="208.421722"/>
    </g>
   </g>
   <g id="90B">
    <g clip-path="url(#p60bc505ad3)">
     <use style="fill:#bcbd22;stroke:#bcbd22;" x="109.149754" xlink:href="#m9d7b4e52c1" y="181.837464"/>
    </g>
   </g>
   <g id="90C">
    <g clip-path="url(#p60bc505ad3)">
     <use style="fill:#17becf;stroke:#17becf;" x="253.538379" xlink:href="#m12b10e9b49" y="169.214002"/>
    </g>
   </g>
   <g id="144P">
    <g clip-path="url(#p60bc505ad3)">
     <use style="fill:#1f77b4;stroke:#1f77b4;" x="166.169466" xlink:href="#m8e4856a69a" y="169.214002"/>
    </g>
   </g>
   <g id="144J">
    <g clip-path="url(#p60bc505ad3)">
     <use style="fill:#ff7f0e;stroke:#ff7f0e;" x="193.759649" xlink:href="#m690c7f00dd" y="169.214002"/>
    </g>
   </g>
   <g id="144S">
    <g clip-path="url(#p60bc505ad3)">
     <use style="fill:#2ca02c;stroke:#2ca02c;" x="186.402267" xlink:href="#m016ad1a52a" y="162.555076"/>
    </g>
   </g>
   <g id="144X">
    <g clip-path="url(#p60bc505ad3)">
     <use style="fill:#d62728;stroke:#d62728;" x="122.944845" xlink:href="#maaa9c246e3" y="169.214002"/>
    </g>
   </g>
   <g id="144A">
    <g clip-path="url(#p60bc505ad3)">
     <use style="fill:#9467bd;stroke:#9467bd;" x="363.899113" xlink:href="#m2b63de8286" y="227.511147"/>
    </g>
   </g>
   <g id="144V">
    <g clip-path="url(#p60bc505ad3)">
     <use style="fill:#8c564b;stroke:#8c564b;" x="122.944845" xlink:href="#m23f9cc9ec7" y="169.214002"/>
    </g>
   </g>
   <g id="144I">
    <g clip-path="url(#p60bc505ad3)">
     <use style="fill:#e377c2;stroke:#e377c2;" x="183.643248" xlink:href="#mea82662fe6" y="194.505064"/>
    </g>
   </g>
   <g id="144R">
    <g clip-path="url(#p60bc505ad3)">
     <use style="fill:#7f7f7f;stroke:#7f7f7f;" x="166.169466" xlink:href="#m630bcb8841" y="183.633043"/>
    </g>
   </g>
   <g id="143B">
    <g clip-path="url(#p60bc505ad3)">
     <use style="fill:#bcbd22;stroke:#bcbd22;" x="81.55957" xlink:href="#m9d7b4e52c1" y="204.717489"/>
    </g>
   </g>
   <g id="144K">
    <g clip-path="url(#p60bc505ad3)">
     <use style="fill:#17becf;stroke:#17becf;" x="193.759649" xlink:href="#m12b10e9b49" y="169.214002"/>
    </g>
   </g>
   <g id="144B">
    <g clip-path="url(#p60bc505ad3)">
     <use style="fill:#1f77b4;stroke:#1f77b4;" x="227.787542" xlink:href="#m8e4856a69a" y="183.415397"/>
    </g>
   </g>
   <g id="144F">
    <g clip-path="url(#p60bc505ad3)">
     <use style="fill:#ff7f0e;stroke:#ff7f0e;" x="76.041534" xlink:href="#m690c7f00dd" y="169.214002"/>
    </g>
   </g>
   <g id="144E">
    <g clip-path="url(#p60bc505ad3)">
     <use style="fill:#2ca02c;stroke:#2ca02c;" x="88.916953" xlink:href="#m016ad1a52a" y="169.214002"/>
    </g>
   </g>
   <g id="144D">
    <g clip-path="url(#p60bc505ad3)">
     <use style="fill:#d62728;stroke:#d62728;" x="195.598995" xlink:href="#maaa9c246e3" y="216.596503"/>
    </g>
   </g>
   <g id="81B">
    <g clip-path="url(#p60bc505ad3)">
     <use style="fill:#9467bd;stroke:#9467bd;" x="87.077607" xlink:href="#m2b63de8286" y="263.889967"/>
    </g>
   </g>
   <g id="143E">
    <g clip-path="url(#p60bc505ad3)">
     <use style="fill:#8c564b;stroke:#8c564b;" x="391.489296" xlink:href="#m23f9cc9ec7" y="211.072156"/>
    </g>
   </g>
   <g id="143C">
    <g clip-path="url(#p60bc505ad3)">
     <use style="fill:#e377c2;stroke:#e377c2;" x="81.55957" xlink:href="#mea82662fe6" y="98.207029"/>
    </g>
   </g>
   <g id="143A">
    <g clip-path="url(#p60bc505ad3)">
     <use style="fill:#7f7f7f;stroke:#7f7f7f;" x="391.489296" xlink:href="#m630bcb8841" y="204.530117"/>
    </g>
   </g>
   <g id="144W">
    <g clip-path="url(#p60bc505ad3)">
     <use style="fill:#bcbd22;stroke:#bcbd22;" x="122.944845" xlink:href="#m9d7b4e52c1" y="169.214002"/>
    </g>
   </g>
   <g id="144Q">
    <g clip-path="url(#p60bc505ad3)">
     <use style="fill:#17becf;stroke:#17becf;" x="166.169466" xlink:href="#m12b10e9b49" y="169.214002"/>
    </g>
   </g>
   <g id="144L">
    <g clip-path="url(#p60bc505ad3)">
     <use style="fill:#1f77b4;stroke:#1f77b4;" x="195.598995" xlink:href="#m8e4856a69a" y="236.68303"/>
    </g>
   </g>
   <g id="144H">
    <g clip-path="url(#p60bc505ad3)">
     <use style="fill:#ff7f0e;stroke:#ff7f0e;" x="183.643248" xlink:href="#m690c7f00dd" y="169.214002"/>
    </g>
   </g>
   <g id="144T">
    <g clip-path="url(#p60bc505ad3)">
     <use style="fill:#2ca02c;stroke:#2ca02c;" x="122.944845" xlink:href="#m016ad1a52a" y="169.214002"/>
    </g>
   </g>
   <g id="143G">
    <g clip-path="url(#p60bc505ad3)">
     <use style="fill:#d62728;stroke:#d62728;" x="391.489296" xlink:href="#maaa9c246e3" y="169.214002"/>
    </g>
   </g>
   <g id="matplotlib.axis_1">
    <g id="xtick_1">
     <g id="line2d_1">
      <defs>
       <path d="M 0 0 
L 0 3.5 
" id="md40505015a" style="stroke:#000000;stroke-width:0.8;"/>
      </defs>
      <g>
       <use style="stroke:#000000;stroke-width:0.8;" x="72.362843" xlink:href="#md40505015a" y="303.64"/>
      </g>
     </g>
     <g id="text_1">
      <text style="font-family:DejaVu Sans;font-size:10px;font-style:normal;font-weight:normal;text-anchor:middle;" transform="rotate(-0, 72.362843, 318.238437)" x="72.362843" y="318.238437">0</text>
     </g>
    </g>
    <g id="xtick_2">
     <g id="line2d_2">
      <g>
       <use style="stroke:#000000;stroke-width:0.8;" x="118.346481" xlink:href="#md40505015a" y="303.64"/>
      </g>
     </g>
     <g id="text_2">
      <text style="font-family:DejaVu Sans;font-size:10px;font-style:normal;font-weight:normal;text-anchor:middle;" transform="rotate(-0, 118.346481, 318.238437)" x="118.346481" y="318.238437">50</text>
     </g>
    </g>
    <g id="xtick_3">
     <g id="line2d_3">
      <g>
       <use style="stroke:#000000;stroke-width:0.8;" x="164.33012" xlink:href="#md40505015a" y="303.64"/>
      </g>
     </g>
     <g id="text_3">
      <text style="font-family:DejaVu Sans;font-size:10px;font-style:normal;font-weight:normal;text-anchor:middle;" transform="rotate(-0, 164.33012, 318.238437)" x="164.33012" y="318.238437">100</text>
     </g>
    </g>
    <g id="xtick_4">
     <g id="line2d_4">
      <g>
       <use style="stroke:#000000;stroke-width:0.8;" x="210.313759" xlink:href="#md40505015a" y="303.64"/>
      </g>
     </g>
     <g id="text_4">
      <text style="font-family:DejaVu Sans;font-size:10px;font-style:normal;font-weight:normal;text-anchor:middle;" transform="rotate(-0, 210.313759, 318.238437)" x="210.313759" y="318.238437">150</text>
     </g>
    </g>
    <g id="xtick_5">
     <g id="line2d_5">
      <g>
       <use style="stroke:#000000;stroke-width:0.8;" x="256.297398" xlink:href="#md40505015a" y="303.64"/>
      </g>
     </g>
     <g id="text_5">
      <text style="font-family:DejaVu Sans;font-size:10px;font-style:normal;font-weight:normal;text-anchor:middle;" transform="rotate(-0, 256.297398, 318.238437)" x="256.297398" y="318.238437">200</text>
     </g>
    </g>
    <g id="xtick_6">
     <g id="line2d_6">
      <g>
       <use style="stroke:#000000;stroke-width:0.8;" x="302.281037" xlink:href="#md40505015a" y="303.64"/>
      </g>
     </g>
     <g id="text_6">
      <text style="font-family:DejaVu Sans;font-size:10px;font-style:normal;font-weight:normal;text-anchor:middle;" transform="rotate(-0, 302.281037, 318.238437)" x="302.281037" y="318.238437">250</text>
     </g>
    </g>
    <g id="xtick_7">
     <g id="line2d_7">
      <g>
       <use style="stroke:#000000;stroke-width:0.8;" x="348.264675" xlink:href="#md40505015a" y="303.64"/>
      </g>
     </g>
     <g id="text_7">
      <text style="font-family:DejaVu Sans;font-size:10px;font-style:normal;font-weight:normal;text-anchor:middle;" transform="rotate(-0, 348.264675, 318.238437)" x="348.264675" y="318.238437">300</text>
     </g>
    </g>
    <g id="xtick_8">
     <g id="line2d_8">
      <g>
       <use style="stroke:#000000;stroke-width:0.8;" x="394.248314" xlink:href="#md40505015a" y="303.64"/>
      </g>
     </g>
     <g id="text_8">
      <text style="font-family:DejaVu Sans;font-size:10px;font-style:normal;font-weight:normal;text-anchor:middle;" transform="rotate(-0, 394.248314, 318.238437)" x="394.248314" y="318.238437">350</text>
     </g>
    </g>
    <g id="xtick_9">
     <g id="line2d_9">
      <g>
       <use style="stroke:#000000;stroke-width:0.8;" x="440.231953" xlink:href="#md40505015a" y="303.64"/>
      </g>
     </g>
     <g id="text_9">
      <text style="font-family:DejaVu Sans;font-size:10px;font-style:normal;font-weight:normal;text-anchor:middle;" transform="rotate(-0, 440.231953, 318.238437)" x="440.231953" y="318.238437">400</text>
     </g>
    </g>
    <g id="text_10">
     <text style="font-family:DejaVu Sans;font-size:10px;font-style:normal;font-weight:normal;text-anchor:middle;" transform="rotate(-0, 250.151745, 331.916562)" x="250.151745" y="331.916562">Amount of languages tested</text>
    </g>
   </g>
   <g id="matplotlib.axis_2">
    <g id="ytick_1">
     <g id="line2d_10">
      <defs>
       <path d="M 0 0 
L -3.5 0 
" id="mb9763a567f" style="stroke:#000000;stroke-width:0.8;"/>
      </defs>
      <g>
       <use style="stroke:#000000;stroke-width:0.8;" x="56.09" xlink:href="#mb9763a567f" y="282.82516"/>
      </g>
     </g>
     <g id="text_11">
      <text style="font-family:DejaVu Sans;font-size:10px;font-style:normal;font-weight:normal;text-anchor:end;" transform="rotate(-0, 49.09, 286.624379)" x="49.09" y="286.624379">−0.2</text>
     </g>
    </g>
    <g id="ytick_2">
     <g id="line2d_11">
      <g>
       <use style="stroke:#000000;stroke-width:0.8;" x="56.09" xlink:href="#mb9763a567f" y="226.019581"/>
      </g>
     </g>
     <g id="text_12">
      <text style="font-family:DejaVu Sans;font-size:10px;font-style:normal;font-weight:normal;text-anchor:end;" transform="rotate(-0, 49.09, 229.8188)" x="49.09" y="229.8188">−0.1</text>
     </g>
    </g>
    <g id="ytick_3">
     <g id="line2d_12">
      <g>
       <use style="stroke:#000000;stroke-width:0.8;" x="56.09" xlink:href="#mb9763a567f" y="169.214002"/>
      </g>
     </g>
     <g id="text_13">
      <text style="font-family:DejaVu Sans;font-size:10px;font-style:normal;font-weight:normal;text-anchor:end;" transform="rotate(-0, 49.09, 173.013221)" x="49.09" y="173.013221">0.0</text>
     </g>
    </g>
    <g id="ytick_4">
     <g id="line2d_13">
      <g>
       <use style="stroke:#000000;stroke-width:0.8;" x="56.09" xlink:href="#mb9763a567f" y="112.408423"/>
      </g>
     </g>
     <g id="text_14">
      <text style="font-family:DejaVu Sans;font-size:10px;font-style:normal;font-weight:normal;text-anchor:end;" transform="rotate(-0, 49.09, 116.207642)" x="49.09" y="116.207642">0.1</text>
     </g>
    </g>
    <g id="ytick_5">
     <g id="line2d_14">
      <g>
       <use style="stroke:#000000;stroke-width:0.8;" x="56.09" xlink:href="#mb9763a567f" y="55.602844"/>
      </g>
     </g>
     <g id="text_15">
      <text style="font-family:DejaVu Sans;font-size:10px;font-style:normal;font-weight:normal;text-anchor:end;" transform="rotate(-0, 49.09, 59.402063)" x="49.09" y="59.402063">0.2</text>
     </g>
    </g>
    <g id="text_16">
     <text style="font-family:DejaVu Sans;font-size:10px;font-style:normal;font-weight:normal;text-anchor:middle;" transform="rotate(-90, 18.7275, 158.48)" x="18.7275" y="158.48">Score - base</text>
    </g>
   </g>
   <g id="line2d_15">
    <path clip-path="url(#p60bc505ad3)" d="M 76.041534 176.210608 
L 81.55957 176.215999 
L 87.077607 176.22139 
L 88.916953 176.223187 
L 109.149754 176.242954 
L 122.944845 176.256431 
L 166.169466 176.29866 
L 183.643248 176.315731 
L 186.402267 176.318426 
L 193.759649 176.325614 
L 195.598995 176.327411 
L 210.313759 176.341787 
L 227.787542 176.358858 
L 228.707215 176.359756 
L 253.538379 176.384015 
L 257.217071 176.387609 
L 291.244963 176.420853 
L 296.763 176.426244 
L 303.200709 176.432533 
L 314.236783 176.443315 
L 355.622058 176.483747 
L 363.899113 176.491833 
L 369.417149 176.497224 
L 372.176168 176.499919 
L 388.730278 176.516092 
L 391.489296 176.518788 
L 397.007333 176.524178 
L 404.364715 176.531366 
L 424.597516 176.551133 
L 426.436861 176.55293 
" style="fill:none;stroke:#1f77b4;stroke-linecap:square;stroke-width:1.5;"/>
   </g>
   <g id="patch_3">
    <path d="M 56.09 303.64 
L 56.09 13.32 
" style="fill:none;stroke:#000000;stroke-linecap:square;stroke-linejoin:miter;stroke-width:0.8;"/>
   </g>
   <g id="patch_4">
    <path d="M 444.213489 303.64 
L 444.213489 13.32 
" style="fill:none;stroke:#000000;stroke-linecap:square;stroke-linejoin:miter;stroke-width:0.8;"/>
   </g>
   <g id="patch_5">
    <path d="M 56.09 303.64 
L 444.213489 303.64 
" style="fill:none;stroke:#000000;stroke-linecap:square;stroke-linejoin:miter;stroke-width:0.8;"/>
   </g>
   <g id="patch_6">
    <path d="M 56.09 13.32 
L 444.213489 13.32 
" style="fill:none;stroke:#000000;stroke-linecap:square;stroke-linejoin:miter;stroke-width:0.8;"/>
   </g>
  </g>
 </g>
 <defs>
  <clipPath id="p60bc505ad3">
   <rect height="290.32" width="388.123489" x="56.09" y="13.32"/>
  </clipPath>
 </defs>
</svg>
