<?xml version="1.0" encoding="utf-8" standalone="no"?>
<!DOCTYPE svg PUBLIC "-//W3C//DTD SVG 1.1//EN"
  "http://www.w3.org/Graphics/SVG/1.1/DTD/svg11.dtd">
<!-- Created with matplotlib (http://matplotlib.org/) -->
<svg height="345.6pt" version="1.1" viewBox="0 0 460.8 345.6" width="460.8pt" xmlns="http://www.w3.org/2000/svg" xmlns:xlink="http://www.w3.org/1999/xlink">
 <defs>
  <style type="text/css">
*{stroke-linecap:butt;stroke-linejoin:round;}
  </style>
 </defs>
 <g id="figure_1">
  <g id="patch_1">
   <path d="M 0 345.6 
L 460.8 345.6 
L 460.8 0 
L 0 0 
z
" style="fill:#ffffff;"/>
  </g>
  <g id="axes_1">
   <g id="patch_2">
    <path d="M 40.03 301.614761 
L 445.054233 301.614761 
L 445.054233 13.32 
L 40.03 13.32 
z
" style="fill:#ffffff;"/>
   </g>
   <g id="patch_3">
    <path clip-path="url(#p2b004986ac)" d="M 58.440192 301.614761 
L 72.077372 301.614761 
L 72.077372 301.614761 
L 58.440192 301.614761 
z
" style="fill:#1f77b4;"/>
   </g>
   <g id="patch_4">
    <path clip-path="url(#p2b004986ac)" d="M 126.62609 301.614761 
L 140.26327 301.614761 
L 140.26327 301.614761 
L 126.62609 301.614761 
z
" style="fill:#1f77b4;"/>
   </g>
   <g id="patch_5">
    <path clip-path="url(#p2b004986ac)" d="M 194.811988 301.614761 
L 208.449168 301.614761 
L 208.449168 63.65718 
L 194.811988 63.65718 
z
" style="fill:#1f77b4;"/>
   </g>
   <g id="patch_6">
    <path clip-path="url(#p2b004986ac)" d="M 262.997886 301.614761 
L 276.635066 301.614761 
L 276.635066 301.614761 
L 262.997886 301.614761 
z
" style="fill:#1f77b4;"/>
   </g>
   <g id="patch_7">
    <path clip-path="url(#p2b004986ac)" d="M 331.183784 301.614761 
L 344.820963 301.614761 
L 344.820963 301.614761 
L 331.183784 301.614761 
z
" style="fill:#1f77b4;"/>
   </g>
   <g id="patch_8">
    <path clip-path="url(#p2b004986ac)" d="M 399.369682 301.614761 
L 413.006861 301.614761 
L 413.006861 27.048322 
L 399.369682 27.048322 
z
" style="fill:#1f77b4;"/>
   </g>
   <g id="patch_9">
    <path clip-path="url(#p2b004986ac)" d="M 72.077372 301.614761 
L 85.714552 301.614761 
L 85.714552 301.614761 
L 72.077372 301.614761 
z
" style="fill:#ff7f0e;"/>
   </g>
   <g id="patch_10">
    <path clip-path="url(#p2b004986ac)" d="M 140.26327 301.614761 
L 153.900449 301.614761 
L 153.900449 301.614761 
L 140.26327 301.614761 
z
" style="fill:#ff7f0e;"/>
   </g>
   <g id="patch_11">
    <path clip-path="url(#p2b004986ac)" d="M 208.449168 301.614761 
L 222.086347 301.614761 
L 222.086347 182.635971 
L 208.449168 182.635971 
z
" style="fill:#ff7f0e;"/>
   </g>
   <g id="patch_12">
    <path clip-path="url(#p2b004986ac)" d="M 276.635066 301.614761 
L 290.272245 301.614761 
L 290.272245 301.614761 
L 276.635066 301.614761 
z
" style="fill:#ff7f0e;"/>
   </g>
   <g id="patch_13">
    <path clip-path="url(#p2b004986ac)" d="M 344.820963 301.614761 
L 358.458143 301.614761 
L 358.458143 301.614761 
L 344.820963 301.614761 
z
" style="fill:#ff7f0e;"/>
   </g>
   <g id="patch_14">
    <path clip-path="url(#p2b004986ac)" d="M 413.006861 301.614761 
L 426.644041 301.614761 
L 426.644041 301.614761 
L 413.006861 301.614761 
z
" style="fill:#ff7f0e;"/>
   </g>
   <g id="matplotlib.axis_1">
    <g id="xtick_1">
     <g id="line2d_1">
      <defs>
       <path d="M 0 0 
L 0 3.5 
" id="m3b5f9fb9ae" style="stroke:#000000;stroke-width:0.8;"/>
      </defs>
      <g>
       <use style="stroke:#000000;stroke-width:0.8;" x="72.077372" xlink:href="#m3b5f9fb9ae" y="301.614761"/>
      </g>
     </g>
     <g id="text_1">
      <text style="font-family:DejaVu Sans;font-size:9px;font-style:normal;font-weight:normal;" transform="translate(60.170493 321.945667)rotate(-15)">Africa</text>
     </g>
    </g>
    <g id="xtick_2">
     <g id="line2d_2">
      <g>
       <use style="stroke:#000000;stroke-width:0.8;" x="140.26327" xlink:href="#m3b5f9fb9ae" y="301.614761"/>
      </g>
     </g>
     <g id="text_2">
      <text style="font-family:DejaVu Sans;font-size:9px;font-style:normal;font-weight:normal;" transform="translate(121.680183 325.523436)rotate(-15)">Australia</text>
     </g>
    </g>
    <g id="xtick_3">
     <g id="line2d_3">
      <g>
       <use style="stroke:#000000;stroke-width:0.8;" x="208.449168" xlink:href="#m3b5f9fb9ae" y="301.614761"/>
      </g>
     </g>
     <g id="text_3">
      <text style="font-family:DejaVu Sans;font-size:9px;font-style:normal;font-weight:normal;" transform="translate(193.004509 323.841557)rotate(-15)">Eurasia</text>
     </g>
    </g>
    <g id="xtick_4">
     <g id="line2d_4">
      <g>
       <use style="stroke:#000000;stroke-width:0.8;" x="276.635066" xlink:href="#m3b5f9fb9ae" y="301.614761"/>
      </g>
     </g>
     <g id="text_4">
      <text style="font-family:DejaVu Sans;font-size:9px;font-style:normal;font-weight:normal;" transform="translate(245.809321 332.084256)rotate(-15)">North America</text>
     </g>
    </g>
    <g id="xtick_5">
     <g id="line2d_5">
      <g>
       <use style="stroke:#000000;stroke-width:0.8;" x="344.820963" xlink:href="#m3b5f9fb9ae" y="301.614761"/>
      </g>
     </g>
     <g id="text_5">
      <text style="font-family:DejaVu Sans;font-size:9px;font-style:normal;font-weight:normal;" transform="translate(323.102843 327.203495)rotate(-15)">Papunesia</text>
     </g>
    </g>
    <g id="xtick_6">
     <g id="line2d_6">
      <g>
       <use style="stroke:#000000;stroke-width:0.8;" x="413.006861" xlink:href="#m3b5f9fb9ae" y="301.614761"/>
      </g>
     </g>
     <g id="text_6">
      <text style="font-family:DejaVu Sans;font-size:9px;font-style:normal;font-weight:normal;" transform="translate(381.7057 332.339031)rotate(-15)">South America</text>
     </g>
    </g>
   </g>
   <g id="matplotlib.axis_2">
    <g id="ytick_1">
     <g id="line2d_7">
      <defs>
       <path d="M 0 0 
L -3.5 0 
" id="m66c8b503bf" style="stroke:#000000;stroke-width:0.8;"/>
      </defs>
      <g>
       <use style="stroke:#000000;stroke-width:0.8;" x="40.03" xlink:href="#m66c8b503bf" y="301.614761"/>
      </g>
     </g>
     <g id="text_7">
      <text style="font-family:DejaVu Sans;font-size:10px;font-style:normal;font-weight:normal;text-anchor:end;" transform="rotate(-0, 33.03, 305.413979)" x="33.03" y="305.413979">0.00</text>
     </g>
    </g>
    <g id="ytick_2">
     <g id="line2d_8">
      <g>
       <use style="stroke:#000000;stroke-width:0.8;" x="40.03" xlink:href="#m66c8b503bf" y="242.125366"/>
      </g>
     </g>
     <g id="text_8">
      <text style="font-family:DejaVu Sans;font-size:10px;font-style:normal;font-weight:normal;text-anchor:end;" transform="rotate(-0, 33.03, 245.924584)" x="33.03" y="245.924584">0.05</text>
     </g>
    </g>
    <g id="ytick_3">
     <g id="line2d_9">
      <g>
       <use style="stroke:#000000;stroke-width:0.8;" x="40.03" xlink:href="#m66c8b503bf" y="182.635971"/>
      </g>
     </g>
     <g id="text_9">
      <text style="font-family:DejaVu Sans;font-size:10px;font-style:normal;font-weight:normal;text-anchor:end;" transform="rotate(-0, 33.03, 186.435189)" x="33.03" y="186.435189">0.10</text>
     </g>
    </g>
    <g id="ytick_4">
     <g id="line2d_10">
      <g>
       <use style="stroke:#000000;stroke-width:0.8;" x="40.03" xlink:href="#m66c8b503bf" y="123.146576"/>
      </g>
     </g>
     <g id="text_10">
      <text style="font-family:DejaVu Sans;font-size:10px;font-style:normal;font-weight:normal;text-anchor:end;" transform="rotate(-0, 33.03, 126.945794)" x="33.03" y="126.945794">0.15</text>
     </g>
    </g>
    <g id="ytick_5">
     <g id="line2d_11">
      <g>
       <use style="stroke:#000000;stroke-width:0.8;" x="40.03" xlink:href="#m66c8b503bf" y="63.65718"/>
      </g>
     </g>
     <g id="text_11">
      <text style="font-family:DejaVu Sans;font-size:10px;font-style:normal;font-weight:normal;text-anchor:end;" transform="rotate(-0, 33.03, 67.456399)" x="33.03" y="67.456399">0.20</text>
     </g>
    </g>
   </g>
   <g id="patch_15">
    <path d="M 40.03 301.614761 
L 40.03 13.32 
" style="fill:none;stroke:#000000;stroke-linecap:square;stroke-linejoin:miter;stroke-width:0.8;"/>
   </g>
   <g id="patch_16">
    <path d="M 445.054233 301.614761 
L 445.054233 13.32 
" style="fill:none;stroke:#000000;stroke-linecap:square;stroke-linejoin:miter;stroke-width:0.8;"/>
   </g>
   <g id="patch_17">
    <path d="M 40.03 301.614761 
L 445.054233 301.614761 
" style="fill:none;stroke:#000000;stroke-linecap:square;stroke-linejoin:miter;stroke-width:0.8;"/>
   </g>
   <g id="patch_18">
    <path d="M 40.03 13.32 
L 445.054233 13.32 
" style="fill:none;stroke:#000000;stroke-linecap:square;stroke-linejoin:miter;stroke-width:0.8;"/>
   </g>
   <g id="legend_1">
    <g id="patch_19">
     <path d="M 47.03 50.67625 
L 112.465937 50.67625 
Q 114.465937 50.67625 114.465937 48.67625 
L 114.465937 20.32 
Q 114.465937 18.32 112.465937 18.32 
L 47.03 18.32 
Q 45.03 18.32 45.03 20.32 
L 45.03 48.67625 
Q 45.03 50.67625 47.03 50.67625 
z
" style="fill:#ffffff;opacity:0.8;stroke:#cccccc;stroke-linejoin:miter;"/>
    </g>
    <g id="patch_20">
     <path d="M 49.03 29.918437 
L 69.03 29.918437 
L 69.03 22.918437 
L 49.03 22.918437 
z
" style="fill:#1f77b4;"/>
    </g>
    <g id="text_12">
     <text style="font-family:DejaVu Sans;font-size:10px;font-style:normal;font-weight:normal;text-anchor:start;" transform="rotate(-0, 77.03, 29.918437)" x="77.03" y="29.918437">Scores</text>
    </g>
    <g id="patch_21">
     <path d="M 49.03 44.596563 
L 69.03 44.596563 
L 69.03 37.596563 
L 49.03 37.596563 
z
" style="fill:#ff7f0e;"/>
    </g>
    <g id="text_13">
     <text style="font-family:DejaVu Sans;font-size:10px;font-style:normal;font-weight:normal;text-anchor:start;" transform="rotate(-0, 77.03, 44.596563)" x="77.03" y="44.596563">Bases</text>
    </g>
   </g>
  </g>
 </g>
 <defs>
  <clipPath id="p2b004986ac">
   <rect height="288.294761" width="405.024233" x="40.03" y="13.32"/>
  </clipPath>
 </defs>
</svg>
