<?xml version="1.0" encoding="utf-8" standalone="no"?>
<!DOCTYPE svg PUBLIC "-//W3C//DTD SVG 1.1//EN"
  "http://www.w3.org/Graphics/SVG/1.1/DTD/svg11.dtd">
<!-- Created with matplotlib (http://matplotlib.org/) -->
<svg height="345.6pt" version="1.1" viewBox="0 0 460.8 345.6" width="460.8pt" xmlns="http://www.w3.org/2000/svg" xmlns:xlink="http://www.w3.org/1999/xlink">
 <defs>
  <style type="text/css">
*{stroke-linecap:butt;stroke-linejoin:round;}
  </style>
 </defs>
 <g id="figure_1">
  <g id="patch_1">
   <path d="M 0 345.6 
L 460.8 345.6 
L 460.8 0 
L 0 0 
z
" style="fill:#ffffff;"/>
  </g>
  <g id="axes_1">
   <g id="patch_2">
    <path d="M 33.64 313.4 
L 447.48 313.4 
L 447.48 13.32 
L 33.64 13.32 
z
" style="fill:#ffffff;"/>
   </g>
   <g id="patch_3">
    <path clip-path="url(#p2842e97eac)" d="M 52.450909 313.4 
L 54.184633 313.4 
L 54.184633 192.071205 
L 52.450909 192.071205 
z
" style="fill:#1f77b4;"/>
   </g>
   <g id="patch_4">
    <path clip-path="url(#p2842e97eac)" d="M 61.119531 313.4 
L 62.853255 313.4 
L 62.853255 211.788697 
L 61.119531 211.788697 
z
" style="fill:#1f77b4;"/>
   </g>
   <g id="patch_5">
    <path clip-path="url(#p2842e97eac)" d="M 69.788152 313.4 
L 71.521877 313.4 
L 71.521877 241.674375 
L 69.788152 241.674375 
z
" style="fill:#1f77b4;"/>
   </g>
   <g id="patch_6">
    <path clip-path="url(#p2842e97eac)" d="M 78.456774 313.4 
L 80.190499 313.4 
L 80.190499 165.877203 
L 78.456774 165.877203 
z
" style="fill:#1f77b4;"/>
   </g>
   <g id="patch_7">
    <path clip-path="url(#p2842e97eac)" d="M 87.125396 313.4 
L 88.85912 313.4 
L 88.85912 168.643025 
L 87.125396 168.643025 
z
" style="fill:#1f77b4;"/>
   </g>
   <g id="patch_8">
    <path clip-path="url(#p2842e97eac)" d="M 95.794018 313.4 
L 97.527742 313.4 
L 97.527742 27.609524 
L 95.794018 27.609524 
z
" style="fill:#1f77b4;"/>
   </g>
   <g id="patch_9">
    <path clip-path="url(#p2842e97eac)" d="M 104.462639 313.4 
L 106.196364 313.4 
L 106.196364 260.770314 
L 104.462639 260.770314 
z
" style="fill:#1f77b4;"/>
   </g>
   <g id="patch_10">
    <path clip-path="url(#p2842e97eac)" d="M 113.131261 313.4 
L 114.864985 313.4 
L 114.864985 144.639036 
L 113.131261 144.639036 
z
" style="fill:#1f77b4;"/>
   </g>
   <g id="patch_11">
    <path clip-path="url(#p2842e97eac)" d="M 121.799883 313.4 
L 123.533607 313.4 
L 123.533607 263.201056 
L 121.799883 263.201056 
z
" style="fill:#1f77b4;"/>
   </g>
   <g id="patch_12">
    <path clip-path="url(#p2842e97eac)" d="M 130.468504 313.4 
L 132.202229 313.4 
L 132.202229 313.4 
L 130.468504 313.4 
z
" style="fill:#1f77b4;"/>
   </g>
   <g id="patch_13">
    <path clip-path="url(#p2842e97eac)" d="M 139.137126 313.4 
L 140.87085 313.4 
L 140.87085 313.4 
L 139.137126 313.4 
z
" style="fill:#1f77b4;"/>
   </g>
   <g id="patch_14">
    <path clip-path="url(#p2842e97eac)" d="M 147.805748 313.4 
L 149.539472 313.4 
L 149.539472 49.476927 
L 147.805748 49.476927 
z
" style="fill:#1f77b4;"/>
   </g>
   <g id="patch_15">
    <path clip-path="url(#p2842e97eac)" d="M 156.47437 313.4 
L 158.208094 313.4 
L 158.208094 209.212737 
L 156.47437 209.212737 
z
" style="fill:#1f77b4;"/>
   </g>
   <g id="patch_16">
    <path clip-path="url(#p2842e97eac)" d="M 165.142991 313.4 
L 166.876716 313.4 
L 166.876716 78.157858 
L 165.142991 78.157858 
z
" style="fill:#1f77b4;"/>
   </g>
   <g id="patch_17">
    <path clip-path="url(#p2842e97eac)" d="M 173.811613 313.4 
L 175.545337 313.4 
L 175.545337 73.14302 
L 173.811613 73.14302 
z
" style="fill:#1f77b4;"/>
   </g>
   <g id="patch_18">
    <path clip-path="url(#p2842e97eac)" d="M 182.480235 313.4 
L 184.213959 313.4 
L 184.213959 269.003697 
L 182.480235 269.003697 
z
" style="fill:#1f77b4;"/>
   </g>
   <g id="patch_19">
    <path clip-path="url(#p2842e97eac)" d="M 191.148856 313.4 
L 192.882581 313.4 
L 192.882581 40.705961 
L 191.148856 40.705961 
z
" style="fill:#1f77b4;"/>
   </g>
   <g id="patch_20">
    <path clip-path="url(#p2842e97eac)" d="M 199.817478 313.4 
L 201.551202 313.4 
L 201.551202 72.474092 
L 199.817478 72.474092 
z
" style="fill:#1f77b4;"/>
   </g>
   <g id="patch_21">
    <path clip-path="url(#p2842e97eac)" d="M 208.4861 313.4 
L 210.219824 313.4 
L 210.219824 102.083102 
L 208.4861 102.083102 
z
" style="fill:#1f77b4;"/>
   </g>
   <g id="patch_22">
    <path clip-path="url(#p2842e97eac)" d="M 217.154721 313.4 
L 218.888446 313.4 
L 218.888446 231.075782 
L 217.154721 231.075782 
z
" style="fill:#1f77b4;"/>
   </g>
   <g id="patch_23">
    <path clip-path="url(#p2842e97eac)" d="M 225.823343 313.4 
L 227.557067 313.4 
L 227.557067 186.148598 
L 225.823343 186.148598 
z
" style="fill:#1f77b4;"/>
   </g>
   <g id="patch_24">
    <path clip-path="url(#p2842e97eac)" d="M 234.491965 313.4 
L 236.225689 313.4 
L 236.225689 102.222371 
L 234.491965 102.222371 
z
" style="fill:#1f77b4;"/>
   </g>
   <g id="patch_25">
    <path clip-path="url(#p2842e97eac)" d="M 243.160587 313.4 
L 244.894311 313.4 
L 244.894311 57.535133 
L 243.160587 57.535133 
z
" style="fill:#1f77b4;"/>
   </g>
   <g id="patch_26">
    <path clip-path="url(#p2842e97eac)" d="M 251.829208 313.4 
L 253.562933 313.4 
L 253.562933 49.449699 
L 251.829208 49.449699 
z
" style="fill:#1f77b4;"/>
   </g>
   <g id="patch_27">
    <path clip-path="url(#p2842e97eac)" d="M 260.49783 313.4 
L 262.231554 313.4 
L 262.231554 259.965246 
L 260.49783 259.965246 
z
" style="fill:#1f77b4;"/>
   </g>
   <g id="patch_28">
    <path clip-path="url(#p2842e97eac)" d="M 269.166452 313.4 
L 270.900176 313.4 
L 270.900176 246.456083 
L 269.166452 246.456083 
z
" style="fill:#1f77b4;"/>
   </g>
   <g id="patch_29">
    <path clip-path="url(#p2842e97eac)" d="M 277.835073 313.4 
L 279.568798 313.4 
L 279.568798 140.561047 
L 277.835073 140.561047 
z
" style="fill:#1f77b4;"/>
   </g>
   <g id="patch_30">
    <path clip-path="url(#p2842e97eac)" d="M 286.503695 313.4 
L 288.237419 313.4 
L 288.237419 204.48999 
L 286.503695 204.48999 
z
" style="fill:#1f77b4;"/>
   </g>
   <g id="patch_31">
    <path clip-path="url(#p2842e97eac)" d="M 295.172317 313.4 
L 296.906041 313.4 
L 296.906041 194.508508 
L 295.172317 194.508508 
z
" style="fill:#1f77b4;"/>
   </g>
   <g id="patch_32">
    <path clip-path="url(#p2842e97eac)" d="M 303.840938 313.4 
L 305.574663 313.4 
L 305.574663 202.745177 
L 303.840938 202.745177 
z
" style="fill:#1f77b4;"/>
   </g>
   <g id="patch_33">
    <path clip-path="url(#p2842e97eac)" d="M 312.50956 313.4 
L 314.243284 313.4 
L 314.243284 205.519165 
L 312.50956 205.519165 
z
" style="fill:#1f77b4;"/>
   </g>
   <g id="patch_34">
    <path clip-path="url(#p2842e97eac)" d="M 321.178182 313.4 
L 322.911906 313.4 
L 322.911906 137.069722 
L 321.178182 137.069722 
z
" style="fill:#1f77b4;"/>
   </g>
   <g id="patch_35">
    <path clip-path="url(#p2842e97eac)" d="M 329.846804 313.4 
L 331.580528 313.4 
L 331.580528 190.396 
L 329.846804 190.396 
z
" style="fill:#1f77b4;"/>
   </g>
   <g id="patch_36">
    <path clip-path="url(#p2842e97eac)" d="M 338.515425 313.4 
L 340.24915 313.4 
L 340.24915 167.680799 
L 338.515425 167.680799 
z
" style="fill:#1f77b4;"/>
   </g>
   <g id="patch_37">
    <path clip-path="url(#p2842e97eac)" d="M 347.184047 313.4 
L 348.917771 313.4 
L 348.917771 100.332473 
L 347.184047 100.332473 
z
" style="fill:#1f77b4;"/>
   </g>
   <g id="patch_38">
    <path clip-path="url(#p2842e97eac)" d="M 355.852669 313.4 
L 357.586393 313.4 
L 357.586393 118.306299 
L 355.852669 118.306299 
z
" style="fill:#1f77b4;"/>
   </g>
   <g id="patch_39">
    <path clip-path="url(#p2842e97eac)" d="M 364.52129 313.4 
L 366.255015 313.4 
L 366.255015 39.948741 
L 364.52129 39.948741 
z
" style="fill:#1f77b4;"/>
   </g>
   <g id="patch_40">
    <path clip-path="url(#p2842e97eac)" d="M 373.189912 313.4 
L 374.923636 313.4 
L 374.923636 208.380781 
L 373.189912 208.380781 
z
" style="fill:#1f77b4;"/>
   </g>
   <g id="patch_41">
    <path clip-path="url(#p2842e97eac)" d="M 381.858534 313.4 
L 383.592258 313.4 
L 383.592258 243.709878 
L 381.858534 243.709878 
z
" style="fill:#1f77b4;"/>
   </g>
   <g id="patch_42">
    <path clip-path="url(#p2842e97eac)" d="M 390.527155 313.4 
L 392.26088 313.4 
L 392.26088 196.810031 
L 390.527155 196.810031 
z
" style="fill:#1f77b4;"/>
   </g>
   <g id="patch_43">
    <path clip-path="url(#p2842e97eac)" d="M 399.195777 313.4 
L 400.929501 313.4 
L 400.929501 122.799875 
L 399.195777 122.799875 
z
" style="fill:#1f77b4;"/>
   </g>
   <g id="patch_44">
    <path clip-path="url(#p2842e97eac)" d="M 407.864399 313.4 
L 409.598123 313.4 
L 409.598123 221.366744 
L 407.864399 221.366744 
z
" style="fill:#1f77b4;"/>
   </g>
   <g id="patch_45">
    <path clip-path="url(#p2842e97eac)" d="M 416.533021 313.4 
L 418.266745 313.4 
L 418.266745 182.958164 
L 416.533021 182.958164 
z
" style="fill:#1f77b4;"/>
   </g>
   <g id="patch_46">
    <path clip-path="url(#p2842e97eac)" d="M 425.201642 313.4 
L 426.935367 313.4 
L 426.935367 252.462376 
L 425.201642 252.462376 
z
" style="fill:#1f77b4;"/>
   </g>
   <g id="patch_47">
    <path clip-path="url(#p2842e97eac)" d="M 54.184633 313.4 
L 55.918358 313.4 
L 55.918358 174.234433 
L 54.184633 174.234433 
z
" style="fill:#ff7f0e;"/>
   </g>
   <g id="patch_48">
    <path clip-path="url(#p2842e97eac)" d="M 62.853255 313.4 
L 64.586979 313.4 
L 64.586979 193.857291 
L 62.853255 193.857291 
z
" style="fill:#ff7f0e;"/>
   </g>
   <g id="patch_49">
    <path clip-path="url(#p2842e97eac)" d="M 71.521877 313.4 
L 73.255601 313.4 
L 73.255601 277.537187 
L 71.521877 277.537187 
z
" style="fill:#ff7f0e;"/>
   </g>
   <g id="patch_50">
    <path clip-path="url(#p2842e97eac)" d="M 80.190499 313.4 
L 81.924223 313.4 
L 81.924223 144.736306 
L 80.190499 144.736306 
z
" style="fill:#ff7f0e;"/>
   </g>
   <g id="patch_51">
    <path clip-path="url(#p2842e97eac)" d="M 88.85912 313.4 
L 90.592845 313.4 
L 90.592845 148.840757 
L 88.85912 148.840757 
z
" style="fill:#ff7f0e;"/>
   </g>
   <g id="patch_52">
    <path clip-path="url(#p2842e97eac)" d="M 97.527742 313.4 
L 99.261466 313.4 
L 99.261466 27.609524 
L 97.527742 27.609524 
z
" style="fill:#ff7f0e;"/>
   </g>
   <g id="patch_53">
    <path clip-path="url(#p2842e97eac)" d="M 106.196364 313.4 
L 107.930088 313.4 
L 107.930088 231.326733 
L 106.196364 231.326733 
z
" style="fill:#ff7f0e;"/>
   </g>
   <g id="patch_54">
    <path clip-path="url(#p2842e97eac)" d="M 114.864985 313.4 
L 116.59871 313.4 
L 116.59871 137.466474 
L 114.864985 137.466474 
z
" style="fill:#ff7f0e;"/>
   </g>
   <g id="patch_55">
    <path clip-path="url(#p2842e97eac)" d="M 123.533607 313.4 
L 125.267331 313.4 
L 125.267331 239.27003 
L 123.533607 239.27003 
z
" style="fill:#ff7f0e;"/>
   </g>
   <g id="patch_56">
    <path clip-path="url(#p2842e97eac)" d="M 132.202229 313.4 
L 133.935953 313.4 
L 133.935953 313.4 
L 132.202229 313.4 
z
" style="fill:#ff7f0e;"/>
   </g>
   <g id="patch_57">
    <path clip-path="url(#p2842e97eac)" d="M 140.87085 313.4 
L 142.604575 313.4 
L 142.604575 313.4 
L 140.87085 313.4 
z
" style="fill:#ff7f0e;"/>
   </g>
   <g id="patch_58">
    <path clip-path="url(#p2842e97eac)" d="M 149.539472 313.4 
L 151.273196 313.4 
L 151.273196 49.476927 
L 149.539472 49.476927 
z
" style="fill:#ff7f0e;"/>
   </g>
   <g id="patch_59">
    <path clip-path="url(#p2842e97eac)" d="M 158.208094 313.4 
L 159.941818 313.4 
L 159.941818 196.439223 
L 158.208094 196.439223 
z
" style="fill:#ff7f0e;"/>
   </g>
   <g id="patch_60">
    <path clip-path="url(#p2842e97eac)" d="M 166.876716 313.4 
L 168.61044 313.4 
L 168.61044 78.157858 
L 166.876716 78.157858 
z
" style="fill:#ff7f0e;"/>
   </g>
   <g id="patch_61">
    <path clip-path="url(#p2842e97eac)" d="M 175.545337 313.4 
L 177.279062 313.4 
L 177.279062 73.14302 
L 175.545337 73.14302 
z
" style="fill:#ff7f0e;"/>
   </g>
   <g id="patch_62">
    <path clip-path="url(#p2842e97eac)" d="M 184.213959 313.4 
L 185.947683 313.4 
L 185.947683 234.927761 
L 184.213959 234.927761 
z
" style="fill:#ff7f0e;"/>
   </g>
   <g id="patch_63">
    <path clip-path="url(#p2842e97eac)" d="M 192.882581 313.4 
L 194.616305 313.4 
L 194.616305 40.705961 
L 192.882581 40.705961 
z
" style="fill:#ff7f0e;"/>
   </g>
   <g id="patch_64">
    <path clip-path="url(#p2842e97eac)" d="M 201.551202 313.4 
L 203.284927 313.4 
L 203.284927 72.474092 
L 201.551202 72.474092 
z
" style="fill:#ff7f0e;"/>
   </g>
   <g id="patch_65">
    <path clip-path="url(#p2842e97eac)" d="M 210.219824 313.4 
L 211.953548 313.4 
L 211.953548 94.800615 
L 210.219824 94.800615 
z
" style="fill:#ff7f0e;"/>
   </g>
   <g id="patch_66">
    <path clip-path="url(#p2842e97eac)" d="M 218.888446 313.4 
L 220.62217 313.4 
L 220.62217 234.438942 
L 218.888446 234.438942 
z
" style="fill:#ff7f0e;"/>
   </g>
   <g id="patch_67">
    <path clip-path="url(#p2842e97eac)" d="M 227.557067 313.4 
L 229.290792 313.4 
L 229.290792 186.148598 
L 227.557067 186.148598 
z
" style="fill:#ff7f0e;"/>
   </g>
   <g id="patch_68">
    <path clip-path="url(#p2842e97eac)" d="M 236.225689 313.4 
L 237.959413 313.4 
L 237.959413 102.222371 
L 236.225689 102.222371 
z
" style="fill:#ff7f0e;"/>
   </g>
   <g id="patch_69">
    <path clip-path="url(#p2842e97eac)" d="M 244.894311 313.4 
L 246.628035 313.4 
L 246.628035 57.535133 
L 244.894311 57.535133 
z
" style="fill:#ff7f0e;"/>
   </g>
   <g id="patch_70">
    <path clip-path="url(#p2842e97eac)" d="M 253.562933 313.4 
L 255.296657 313.4 
L 255.296657 49.449699 
L 253.562933 49.449699 
z
" style="fill:#ff7f0e;"/>
   </g>
   <g id="patch_71">
    <path clip-path="url(#p2842e97eac)" d="M 262.231554 313.4 
L 263.965279 313.4 
L 263.965279 228.31471 
L 262.231554 228.31471 
z
" style="fill:#ff7f0e;"/>
   </g>
   <g id="patch_72">
    <path clip-path="url(#p2842e97eac)" d="M 270.900176 313.4 
L 272.6339 313.4 
L 272.6339 198.638999 
L 270.900176 198.638999 
z
" style="fill:#ff7f0e;"/>
   </g>
   <g id="patch_73">
    <path clip-path="url(#p2842e97eac)" d="M 279.568798 313.4 
L 281.302522 313.4 
L 281.302522 117.946683 
L 279.568798 117.946683 
z
" style="fill:#ff7f0e;"/>
   </g>
   <g id="patch_74">
    <path clip-path="url(#p2842e97eac)" d="M 288.237419 313.4 
L 289.971144 313.4 
L 289.971144 212.141593 
L 288.237419 212.141593 
z
" style="fill:#ff7f0e;"/>
   </g>
   <g id="patch_75">
    <path clip-path="url(#p2842e97eac)" d="M 296.906041 313.4 
L 298.639765 313.4 
L 298.639765 190.239125 
L 296.906041 190.239125 
z
" style="fill:#ff7f0e;"/>
   </g>
   <g id="patch_76">
    <path clip-path="url(#p2842e97eac)" d="M 305.574663 313.4 
L 307.308387 313.4 
L 307.308387 227.802757 
L 305.574663 227.802757 
z
" style="fill:#ff7f0e;"/>
   </g>
   <g id="patch_77">
    <path clip-path="url(#p2842e97eac)" d="M 314.243284 313.4 
L 315.977009 313.4 
L 315.977009 226.504387 
L 314.243284 226.504387 
z
" style="fill:#ff7f0e;"/>
   </g>
   <g id="patch_78">
    <path clip-path="url(#p2842e97eac)" d="M 322.911906 313.4 
L 324.64563 313.4 
L 324.64563 127.087634 
L 322.911906 127.087634 
z
" style="fill:#ff7f0e;"/>
   </g>
   <g id="patch_79">
    <path clip-path="url(#p2842e97eac)" d="M 331.580528 313.4 
L 333.314252 313.4 
L 333.314252 239.853185 
L 331.580528 239.853185 
z
" style="fill:#ff7f0e;"/>
   </g>
   <g id="patch_80">
    <path clip-path="url(#p2842e97eac)" d="M 340.24915 313.4 
L 341.982874 313.4 
L 341.982874 239.002025 
L 340.24915 239.002025 
z
" style="fill:#ff7f0e;"/>
   </g>
   <g id="patch_81">
    <path clip-path="url(#p2842e97eac)" d="M 348.917771 313.4 
L 350.651496 313.4 
L 350.651496 100.332473 
L 348.917771 100.332473 
z
" style="fill:#ff7f0e;"/>
   </g>
   <g id="patch_82">
    <path clip-path="url(#p2842e97eac)" d="M 357.586393 313.4 
L 359.320117 313.4 
L 359.320117 111.930688 
L 357.586393 111.930688 
z
" style="fill:#ff7f0e;"/>
   </g>
   <g id="patch_83">
    <path clip-path="url(#p2842e97eac)" d="M 366.255015 313.4 
L 367.988739 313.4 
L 367.988739 39.948741 
L 366.255015 39.948741 
z
" style="fill:#ff7f0e;"/>
   </g>
   <g id="patch_84">
    <path clip-path="url(#p2842e97eac)" d="M 374.923636 313.4 
L 376.657361 313.4 
L 376.657361 262.645581 
L 374.923636 262.645581 
z
" style="fill:#ff7f0e;"/>
   </g>
   <g id="patch_85">
    <path clip-path="url(#p2842e97eac)" d="M 383.592258 313.4 
L 385.325982 313.4 
L 385.325982 232.238608 
L 383.592258 232.238608 
z
" style="fill:#ff7f0e;"/>
   </g>
   <g id="patch_86">
    <path clip-path="url(#p2842e97eac)" d="M 392.26088 313.4 
L 393.994604 313.4 
L 393.994604 136.528617 
L 392.26088 136.528617 
z
" style="fill:#ff7f0e;"/>
   </g>
   <g id="patch_87">
    <path clip-path="url(#p2842e97eac)" d="M 400.929501 313.4 
L 402.663226 313.4 
L 402.663226 113.706839 
L 400.929501 113.706839 
z
" style="fill:#ff7f0e;"/>
   </g>
   <g id="patch_88">
    <path clip-path="url(#p2842e97eac)" d="M 409.598123 313.4 
L 411.331848 313.4 
L 411.331848 225.63098 
L 409.598123 225.63098 
z
" style="fill:#ff7f0e;"/>
   </g>
   <g id="patch_89">
    <path clip-path="url(#p2842e97eac)" d="M 418.266745 313.4 
L 420.000469 313.4 
L 420.000469 176.039143 
L 418.266745 176.039143 
z
" style="fill:#ff7f0e;"/>
   </g>
   <g id="patch_90">
    <path clip-path="url(#p2842e97eac)" d="M 426.935367 313.4 
L 428.669091 313.4 
L 428.669091 222.813786 
L 426.935367 222.813786 
z
" style="fill:#ff7f0e;"/>
   </g>
   <g id="matplotlib.axis_1">
    <g id="xtick_1">
     <g id="line2d_1">
      <defs>
       <path d="M 0 0 
L 0 3.5 
" id="mf95ed3e67a" style="stroke:#000000;stroke-width:0.8;"/>
      </defs>
      <g>
       <use style="stroke:#000000;stroke-width:0.8;" x="54.184633" xlink:href="#mf95ed3e67a" y="313.4"/>
      </g>
     </g>
     <g id="text_1">
      <text style="font-family:DejaVu Sans;font-size:5px;font-style:normal;font-weight:normal;" transform="translate(55.564321 333.364062)rotate(-90)">143A</text>
     </g>
    </g>
    <g id="xtick_2">
     <g id="line2d_2">
      <g>
       <use style="stroke:#000000;stroke-width:0.8;" x="62.853255" xlink:href="#mf95ed3e67a" y="313.4"/>
      </g>
     </g>
     <g id="text_2">
      <text style="font-family:DejaVu Sans;font-size:5px;font-style:normal;font-weight:normal;" transform="translate(64.232943 333.374219)rotate(-90)">143B</text>
     </g>
    </g>
    <g id="xtick_3">
     <g id="line2d_3">
      <g>
       <use style="stroke:#000000;stroke-width:0.8;" x="71.521877" xlink:href="#mf95ed3e67a" y="313.4"/>
      </g>
     </g>
     <g id="text_3">
      <text style="font-family:DejaVu Sans;font-size:5px;font-style:normal;font-weight:normal;" transform="translate(72.901564 333.435156)rotate(-90)">143C</text>
     </g>
    </g>
    <g id="xtick_4">
     <g id="line2d_4">
      <g>
       <use style="stroke:#000000;stroke-width:0.8;" x="80.190499" xlink:href="#mf95ed3e67a" y="313.4"/>
      </g>
     </g>
     <g id="text_4">
      <text style="font-family:DejaVu Sans;font-size:5px;font-style:normal;font-weight:normal;" transform="translate(81.570186 333.103125)rotate(-90)">143E</text>
     </g>
    </g>
    <g id="xtick_5">
     <g id="line2d_5">
      <g>
       <use style="stroke:#000000;stroke-width:0.8;" x="88.85912" xlink:href="#mf95ed3e67a" y="313.4"/>
      </g>
     </g>
     <g id="text_5">
      <text style="font-family:DejaVu Sans;font-size:5px;font-style:normal;font-weight:normal;" transform="translate(90.238808 332.819531)rotate(-90)">143F</text>
     </g>
    </g>
    <g id="xtick_6">
     <g id="line2d_6">
      <g>
       <use style="stroke:#000000;stroke-width:0.8;" x="97.527742" xlink:href="#mf95ed3e67a" y="313.4"/>
      </g>
     </g>
     <g id="text_6">
      <text style="font-family:DejaVu Sans;font-size:5px;font-style:normal;font-weight:normal;" transform="translate(98.907429 333.817969)rotate(-90)">143G</text>
     </g>
    </g>
    <g id="xtick_7">
     <g id="line2d_7">
      <g>
       <use style="stroke:#000000;stroke-width:0.8;" x="106.196364" xlink:href="#mf95ed3e67a" y="313.4"/>
      </g>
     </g>
     <g id="text_7">
      <text style="font-family:DejaVu Sans;font-size:5px;font-style:normal;font-weight:normal;" transform="translate(107.576051 333.364062)rotate(-90)">144A</text>
     </g>
    </g>
    <g id="xtick_8">
     <g id="line2d_8">
      <g>
       <use style="stroke:#000000;stroke-width:0.8;" x="114.864985" xlink:href="#mf95ed3e67a" y="313.4"/>
      </g>
     </g>
     <g id="text_8">
      <text style="font-family:DejaVu Sans;font-size:5px;font-style:normal;font-weight:normal;" transform="translate(116.244673 333.374219)rotate(-90)">144B</text>
     </g>
    </g>
    <g id="xtick_9">
     <g id="line2d_9">
      <g>
       <use style="stroke:#000000;stroke-width:0.8;" x="123.533607" xlink:href="#mf95ed3e67a" y="313.4"/>
      </g>
     </g>
     <g id="text_9">
      <text style="font-family:DejaVu Sans;font-size:5px;font-style:normal;font-weight:normal;" transform="translate(124.913295 333.79375)rotate(-90)">144D</text>
     </g>
    </g>
    <g id="xtick_10">
     <g id="line2d_10">
      <g>
       <use style="stroke:#000000;stroke-width:0.8;" x="132.202229" xlink:href="#mf95ed3e67a" y="313.4"/>
      </g>
     </g>
     <g id="text_10">
      <text style="font-family:DejaVu Sans;font-size:5px;font-style:normal;font-weight:normal;" transform="translate(133.581916 333.103125)rotate(-90)">144E</text>
     </g>
    </g>
    <g id="xtick_11">
     <g id="line2d_11">
      <g>
       <use style="stroke:#000000;stroke-width:0.8;" x="140.87085" xlink:href="#mf95ed3e67a" y="313.4"/>
      </g>
     </g>
     <g id="text_11">
      <text style="font-family:DejaVu Sans;font-size:5px;font-style:normal;font-weight:normal;" transform="translate(142.250538 332.819531)rotate(-90)">144F</text>
     </g>
    </g>
    <g id="xtick_12">
     <g id="line2d_12">
      <g>
       <use style="stroke:#000000;stroke-width:0.8;" x="149.539472" xlink:href="#mf95ed3e67a" y="313.4"/>
      </g>
     </g>
     <g id="text_12">
      <text style="font-family:DejaVu Sans;font-size:5px;font-style:normal;font-weight:normal;" transform="translate(150.91916 333.703906)rotate(-90)">144H</text>
     </g>
    </g>
    <g id="xtick_13">
     <g id="line2d_13">
      <g>
       <use style="stroke:#000000;stroke-width:0.8;" x="158.208094" xlink:href="#mf95ed3e67a" y="313.4"/>
      </g>
     </g>
     <g id="text_13">
      <text style="font-family:DejaVu Sans;font-size:5px;font-style:normal;font-weight:normal;" transform="translate(159.587781 331.41875)rotate(-90)">144I</text>
     </g>
    </g>
    <g id="xtick_14">
     <g id="line2d_14">
      <g>
       <use style="stroke:#000000;stroke-width:0.8;" x="166.876716" xlink:href="#mf95ed3e67a" y="313.4"/>
      </g>
     </g>
     <g id="text_14">
      <text style="font-family:DejaVu Sans;font-size:5px;font-style:normal;font-weight:normal;" transform="translate(168.256403 331.41875)rotate(-90)">144J</text>
     </g>
    </g>
    <g id="xtick_15">
     <g id="line2d_15">
      <g>
       <use style="stroke:#000000;stroke-width:0.8;" x="175.545337" xlink:href="#mf95ed3e67a" y="313.4"/>
      </g>
     </g>
     <g id="text_15">
      <text style="font-family:DejaVu Sans;font-size:5px;font-style:normal;font-weight:normal;" transform="translate(176.925025 333.222656)rotate(-90)">144K</text>
     </g>
    </g>
    <g id="xtick_16">
     <g id="line2d_16">
      <g>
       <use style="stroke:#000000;stroke-width:0.8;" x="184.213959" xlink:href="#mf95ed3e67a" y="313.4"/>
      </g>
     </g>
     <g id="text_16">
      <text style="font-family:DejaVu Sans;font-size:5px;font-style:normal;font-weight:normal;" transform="translate(185.593646 332.729687)rotate(-90)">144L</text>
     </g>
    </g>
    <g id="xtick_17">
     <g id="line2d_17">
      <g>
       <use style="stroke:#000000;stroke-width:0.8;" x="192.882581" xlink:href="#mf95ed3e67a" y="313.4"/>
      </g>
     </g>
     <g id="text_17">
      <text style="font-family:DejaVu Sans;font-size:5px;font-style:normal;font-weight:normal;" transform="translate(194.262268 332.958594)rotate(-90)">144P</text>
     </g>
    </g>
    <g id="xtick_18">
     <g id="line2d_18">
      <g>
       <use style="stroke:#000000;stroke-width:0.8;" x="201.551202" xlink:href="#mf95ed3e67a" y="313.4"/>
      </g>
     </g>
     <g id="text_18">
      <text style="font-family:DejaVu Sans;font-size:5px;font-style:normal;font-weight:normal;" transform="translate(202.93089 333.879687)rotate(-90)">144Q</text>
     </g>
    </g>
    <g id="xtick_19">
     <g id="line2d_19">
      <g>
       <use style="stroke:#000000;stroke-width:0.8;" x="210.219824" xlink:href="#mf95ed3e67a" y="313.4"/>
      </g>
     </g>
     <g id="text_19">
      <text style="font-family:DejaVu Sans;font-size:5px;font-style:normal;font-weight:normal;" transform="translate(211.599512 333.417969)rotate(-90)">144R</text>
     </g>
    </g>
    <g id="xtick_20">
     <g id="line2d_20">
      <g>
       <use style="stroke:#000000;stroke-width:0.8;" x="218.888446" xlink:href="#mf95ed3e67a" y="313.4"/>
      </g>
     </g>
     <g id="text_20">
      <text style="font-family:DejaVu Sans;font-size:5px;font-style:normal;font-weight:normal;" transform="translate(220.268133 333.117969)rotate(-90)">144S</text>
     </g>
    </g>
    <g id="xtick_21">
     <g id="line2d_21">
      <g>
       <use style="stroke:#000000;stroke-width:0.8;" x="227.557067" xlink:href="#mf95ed3e67a" y="313.4"/>
      </g>
     </g>
     <g id="text_21">
      <text style="font-family:DejaVu Sans;font-size:5px;font-style:normal;font-weight:normal;" transform="translate(228.936755 332.997656)rotate(-90)">144T</text>
     </g>
    </g>
    <g id="xtick_22">
     <g id="line2d_22">
      <g>
       <use style="stroke:#000000;stroke-width:0.8;" x="236.225689" xlink:href="#mf95ed3e67a" y="313.4"/>
      </g>
     </g>
     <g id="text_22">
      <text style="font-family:DejaVu Sans;font-size:5px;font-style:normal;font-weight:normal;" transform="translate(237.605377 333.364062)rotate(-90)">144V</text>
     </g>
    </g>
    <g id="xtick_23">
     <g id="line2d_23">
      <g>
       <use style="stroke:#000000;stroke-width:0.8;" x="244.894311" xlink:href="#mf95ed3e67a" y="313.4"/>
      </g>
     </g>
     <g id="text_23">
      <text style="font-family:DejaVu Sans;font-size:5px;font-style:normal;font-weight:normal;" transform="translate(246.273998 334.8875)rotate(-90)">144W</text>
     </g>
    </g>
    <g id="xtick_24">
     <g id="line2d_24">
      <g>
       <use style="stroke:#000000;stroke-width:0.8;" x="253.562933" xlink:href="#mf95ed3e67a" y="313.4"/>
      </g>
     </g>
     <g id="text_24">
      <text style="font-family:DejaVu Sans;font-size:5px;font-style:normal;font-weight:normal;" transform="translate(254.94262 333.36875)rotate(-90)">144X</text>
     </g>
    </g>
    <g id="xtick_25">
     <g id="line2d_25">
      <g>
       <use style="stroke:#000000;stroke-width:0.8;" x="262.231554" xlink:href="#mf95ed3e67a" y="313.4"/>
      </g>
     </g>
     <g id="text_25">
      <text style="font-family:DejaVu Sans;font-size:5px;font-style:normal;font-weight:normal;" transform="translate(263.611242 330.182812)rotate(-90)">81A</text>
     </g>
    </g>
    <g id="xtick_26">
     <g id="line2d_26">
      <g>
       <use style="stroke:#000000;stroke-width:0.8;" x="270.900176" xlink:href="#mf95ed3e67a" y="313.4"/>
      </g>
     </g>
     <g id="text_26">
      <text style="font-family:DejaVu Sans;font-size:5px;font-style:normal;font-weight:normal;" transform="translate(272.279863 330.192969)rotate(-90)">81B</text>
     </g>
    </g>
    <g id="xtick_27">
     <g id="line2d_27">
      <g>
       <use style="stroke:#000000;stroke-width:0.8;" x="279.568798" xlink:href="#mf95ed3e67a" y="313.4"/>
      </g>
     </g>
     <g id="text_27">
      <text style="font-family:DejaVu Sans;font-size:5px;font-style:normal;font-weight:normal;" transform="translate(280.948485 330.182812)rotate(-90)">82A</text>
     </g>
    </g>
    <g id="xtick_28">
     <g id="line2d_28">
      <g>
       <use style="stroke:#000000;stroke-width:0.8;" x="288.237419" xlink:href="#mf95ed3e67a" y="313.4"/>
      </g>
     </g>
     <g id="text_28">
      <text style="font-family:DejaVu Sans;font-size:5px;font-style:normal;font-weight:normal;" transform="translate(289.617107 330.182812)rotate(-90)">83A</text>
     </g>
    </g>
    <g id="xtick_29">
     <g id="line2d_29">
      <g>
       <use style="stroke:#000000;stroke-width:0.8;" x="296.906041" xlink:href="#mf95ed3e67a" y="313.4"/>
      </g>
     </g>
     <g id="text_29">
      <text style="font-family:DejaVu Sans;font-size:5px;font-style:normal;font-weight:normal;" transform="translate(298.285729 330.182812)rotate(-90)">84A</text>
     </g>
    </g>
    <g id="xtick_30">
     <g id="line2d_30">
      <g>
       <use style="stroke:#000000;stroke-width:0.8;" x="305.574663" xlink:href="#mf95ed3e67a" y="313.4"/>
      </g>
     </g>
     <g id="text_30">
      <text style="font-family:DejaVu Sans;font-size:5px;font-style:normal;font-weight:normal;" transform="translate(306.95435 330.182812)rotate(-90)">85A</text>
     </g>
    </g>
    <g id="xtick_31">
     <g id="line2d_31">
      <g>
       <use style="stroke:#000000;stroke-width:0.8;" x="314.243284" xlink:href="#mf95ed3e67a" y="313.4"/>
      </g>
     </g>
     <g id="text_31">
      <text style="font-family:DejaVu Sans;font-size:5px;font-style:normal;font-weight:normal;" transform="translate(315.622972 330.182812)rotate(-90)">86A</text>
     </g>
    </g>
    <g id="xtick_32">
     <g id="line2d_32">
      <g>
       <use style="stroke:#000000;stroke-width:0.8;" x="322.911906" xlink:href="#mf95ed3e67a" y="313.4"/>
      </g>
     </g>
     <g id="text_32">
      <text style="font-family:DejaVu Sans;font-size:5px;font-style:normal;font-weight:normal;" transform="translate(324.291594 330.182812)rotate(-90)">87A</text>
     </g>
    </g>
    <g id="xtick_33">
     <g id="line2d_33">
      <g>
       <use style="stroke:#000000;stroke-width:0.8;" x="331.580528" xlink:href="#mf95ed3e67a" y="313.4"/>
      </g>
     </g>
     <g id="text_33">
      <text style="font-family:DejaVu Sans;font-size:5px;font-style:normal;font-weight:normal;" transform="translate(332.960215 330.182812)rotate(-90)">88A</text>
     </g>
    </g>
    <g id="xtick_34">
     <g id="line2d_34">
      <g>
       <use style="stroke:#000000;stroke-width:0.8;" x="340.24915" xlink:href="#mf95ed3e67a" y="313.4"/>
      </g>
     </g>
     <g id="text_34">
      <text style="font-family:DejaVu Sans;font-size:5px;font-style:normal;font-weight:normal;" transform="translate(341.628837 330.182812)rotate(-90)">89A</text>
     </g>
    </g>
    <g id="xtick_35">
     <g id="line2d_35">
      <g>
       <use style="stroke:#000000;stroke-width:0.8;" x="348.917771" xlink:href="#mf95ed3e67a" y="313.4"/>
      </g>
     </g>
     <g id="text_35">
      <text style="font-family:DejaVu Sans;font-size:5px;font-style:normal;font-weight:normal;" transform="translate(350.297459 330.182812)rotate(-90)">90A</text>
     </g>
    </g>
    <g id="xtick_36">
     <g id="line2d_36">
      <g>
       <use style="stroke:#000000;stroke-width:0.8;" x="357.586393" xlink:href="#mf95ed3e67a" y="313.4"/>
      </g>
     </g>
     <g id="text_36">
      <text style="font-family:DejaVu Sans;font-size:5px;font-style:normal;font-weight:normal;" transform="translate(358.96608 330.192969)rotate(-90)">90B</text>
     </g>
    </g>
    <g id="xtick_37">
     <g id="line2d_37">
      <g>
       <use style="stroke:#000000;stroke-width:0.8;" x="366.255015" xlink:href="#mf95ed3e67a" y="313.4"/>
      </g>
     </g>
     <g id="text_37">
      <text style="font-family:DejaVu Sans;font-size:5px;font-style:normal;font-weight:normal;" transform="translate(367.634702 330.253906)rotate(-90)">90C</text>
     </g>
    </g>
    <g id="xtick_38">
     <g id="line2d_38">
      <g>
       <use style="stroke:#000000;stroke-width:0.8;" x="374.923636" xlink:href="#mf95ed3e67a" y="313.4"/>
      </g>
     </g>
     <g id="text_38">
      <text style="font-family:DejaVu Sans;font-size:5px;font-style:normal;font-weight:normal;" transform="translate(376.303324 330.182812)rotate(-90)">91A</text>
     </g>
    </g>
    <g id="xtick_39">
     <g id="line2d_39">
      <g>
       <use style="stroke:#000000;stroke-width:0.8;" x="383.592258" xlink:href="#mf95ed3e67a" y="313.4"/>
      </g>
     </g>
     <g id="text_39">
      <text style="font-family:DejaVu Sans;font-size:5px;font-style:normal;font-weight:normal;" transform="translate(384.971946 330.182812)rotate(-90)">92A</text>
     </g>
    </g>
    <g id="xtick_40">
     <g id="line2d_40">
      <g>
       <use style="stroke:#000000;stroke-width:0.8;" x="392.26088" xlink:href="#mf95ed3e67a" y="313.4"/>
      </g>
     </g>
     <g id="text_40">
      <text style="font-family:DejaVu Sans;font-size:5px;font-style:normal;font-weight:normal;" transform="translate(393.640567 330.182812)rotate(-90)">93A</text>
     </g>
    </g>
    <g id="xtick_41">
     <g id="line2d_41">
      <g>
       <use style="stroke:#000000;stroke-width:0.8;" x="400.929501" xlink:href="#mf95ed3e67a" y="313.4"/>
      </g>
     </g>
     <g id="text_41">
      <text style="font-family:DejaVu Sans;font-size:5px;font-style:normal;font-weight:normal;" transform="translate(402.309189 330.182812)rotate(-90)">94A</text>
     </g>
    </g>
    <g id="xtick_42">
     <g id="line2d_42">
      <g>
       <use style="stroke:#000000;stroke-width:0.8;" x="409.598123" xlink:href="#mf95ed3e67a" y="313.4"/>
      </g>
     </g>
     <g id="text_42">
      <text style="font-family:DejaVu Sans;font-size:5px;font-style:normal;font-weight:normal;" transform="translate(410.977811 330.182812)rotate(-90)">95A</text>
     </g>
    </g>
    <g id="xtick_43">
     <g id="line2d_43">
      <g>
       <use style="stroke:#000000;stroke-width:0.8;" x="418.266745" xlink:href="#mf95ed3e67a" y="313.4"/>
      </g>
     </g>
     <g id="text_43">
      <text style="font-family:DejaVu Sans;font-size:5px;font-style:normal;font-weight:normal;" transform="translate(419.646432 330.182812)rotate(-90)">96A</text>
     </g>
    </g>
    <g id="xtick_44">
     <g id="line2d_44">
      <g>
       <use style="stroke:#000000;stroke-width:0.8;" x="426.935367" xlink:href="#mf95ed3e67a" y="313.4"/>
      </g>
     </g>
     <g id="text_44">
      <text style="font-family:DejaVu Sans;font-size:5px;font-style:normal;font-weight:normal;" transform="translate(428.315054 330.182812)rotate(-90)">97A</text>
     </g>
    </g>
   </g>
   <g id="matplotlib.axis_2">
    <g id="ytick_1">
     <g id="line2d_45">
      <defs>
       <path d="M 0 0 
L -3.5 0 
" id="m8c5d403726" style="stroke:#000000;stroke-width:0.8;"/>
      </defs>
      <g>
       <use style="stroke:#000000;stroke-width:0.8;" x="33.64" xlink:href="#m8c5d403726" y="313.4"/>
      </g>
     </g>
     <g id="text_45">
      <text style="font-family:DejaVu Sans;font-size:10px;font-style:normal;font-weight:normal;text-anchor:end;" transform="rotate(-0, 26.64, 317.199219)" x="26.64" y="317.199219">0.0</text>
     </g>
    </g>
    <g id="ytick_2">
     <g id="line2d_46">
      <g>
       <use style="stroke:#000000;stroke-width:0.8;" x="33.64" xlink:href="#m8c5d403726" y="256.0195"/>
      </g>
     </g>
     <g id="text_46">
      <text style="font-family:DejaVu Sans;font-size:10px;font-style:normal;font-weight:normal;text-anchor:end;" transform="rotate(-0, 26.64, 259.818718)" x="26.64" y="259.818718">0.2</text>
     </g>
    </g>
    <g id="ytick_3">
     <g id="line2d_47">
      <g>
       <use style="stroke:#000000;stroke-width:0.8;" x="33.64" xlink:href="#m8c5d403726" y="198.638999"/>
      </g>
     </g>
     <g id="text_47">
      <text style="font-family:DejaVu Sans;font-size:10px;font-style:normal;font-weight:normal;text-anchor:end;" transform="rotate(-0, 26.64, 202.438218)" x="26.64" y="202.438218">0.4</text>
     </g>
    </g>
    <g id="ytick_4">
     <g id="line2d_48">
      <g>
       <use style="stroke:#000000;stroke-width:0.8;" x="33.64" xlink:href="#m8c5d403726" y="141.258499"/>
      </g>
     </g>
     <g id="text_48">
      <text style="font-family:DejaVu Sans;font-size:10px;font-style:normal;font-weight:normal;text-anchor:end;" transform="rotate(-0, 26.64, 145.057718)" x="26.64" y="145.057718">0.6</text>
     </g>
    </g>
    <g id="ytick_5">
     <g id="line2d_49">
      <g>
       <use style="stroke:#000000;stroke-width:0.8;" x="33.64" xlink:href="#m8c5d403726" y="83.877999"/>
      </g>
     </g>
     <g id="text_49">
      <text style="font-family:DejaVu Sans;font-size:10px;font-style:normal;font-weight:normal;text-anchor:end;" transform="rotate(-0, 26.64, 87.677218)" x="26.64" y="87.677218">0.8</text>
     </g>
    </g>
    <g id="ytick_6">
     <g id="line2d_50">
      <g>
       <use style="stroke:#000000;stroke-width:0.8;" x="33.64" xlink:href="#m8c5d403726" y="26.497499"/>
      </g>
     </g>
     <g id="text_50">
      <text style="font-family:DejaVu Sans;font-size:10px;font-style:normal;font-weight:normal;text-anchor:end;" transform="rotate(-0, 26.64, 30.296717)" x="26.64" y="30.296717">1.0</text>
     </g>
    </g>
   </g>
   <g id="patch_91">
    <path d="M 33.64 313.4 
L 33.64 13.32 
" style="fill:none;stroke:#000000;stroke-linecap:square;stroke-linejoin:miter;stroke-width:0.8;"/>
   </g>
   <g id="patch_92">
    <path d="M 447.48 313.4 
L 447.48 13.32 
" style="fill:none;stroke:#000000;stroke-linecap:square;stroke-linejoin:miter;stroke-width:0.8;"/>
   </g>
   <g id="patch_93">
    <path d="M 33.64 313.4 
L 447.48 313.4 
" style="fill:none;stroke:#000000;stroke-linecap:square;stroke-linejoin:miter;stroke-width:0.8;"/>
   </g>
   <g id="patch_94">
    <path d="M 33.64 13.32 
L 447.48 13.32 
" style="fill:none;stroke:#000000;stroke-linecap:square;stroke-linejoin:miter;stroke-width:0.8;"/>
   </g>
   <g id="legend_1">
    <g id="patch_95">
     <path d="M 375.044062 50.67625 
L 440.48 50.67625 
Q 442.48 50.67625 442.48 48.67625 
L 442.48 20.32 
Q 442.48 18.32 440.48 18.32 
L 375.044062 18.32 
Q 373.044062 18.32 373.044062 20.32 
L 373.044062 48.67625 
Q 373.044062 50.67625 375.044062 50.67625 
z
" style="fill:#ffffff;opacity:0.8;stroke:#cccccc;stroke-linejoin:miter;"/>
    </g>
    <g id="patch_96">
     <path d="M 377.044062 29.918437 
L 397.044062 29.918437 
L 397.044062 22.918437 
L 377.044062 22.918437 
z
" style="fill:#1f77b4;"/>
    </g>
    <g id="text_51">
     <text style="font-family:DejaVu Sans;font-size:10px;font-style:normal;font-weight:normal;text-anchor:start;" transform="rotate(-0, 405.044062, 29.918437)" x="405.044062" y="29.918437">Scores</text>
    </g>
    <g id="patch_97">
     <path d="M 377.044062 44.596563 
L 397.044062 44.596563 
L 397.044062 37.596563 
L 377.044062 37.596563 
z
" style="fill:#ff7f0e;"/>
    </g>
    <g id="text_52">
     <text style="font-family:DejaVu Sans;font-size:10px;font-style:normal;font-weight:normal;text-anchor:start;" transform="rotate(-0, 405.044062, 44.596563)" x="405.044062" y="44.596563">Bases</text>
    </g>
   </g>
  </g>
 </g>
 <defs>
  <clipPath id="p2842e97eac">
   <rect height="300.08" width="413.84" x="33.64" y="13.32"/>
  </clipPath>
 </defs>
</svg>
