<?xml version="1.0" encoding="utf-8" standalone="no"?>
<!DOCTYPE svg PUBLIC "-//W3C//DTD SVG 1.1//EN"
  "http://www.w3.org/Graphics/SVG/1.1/DTD/svg11.dtd">
<!-- Created with matplotlib (http://matplotlib.org/) -->
<svg height="345.6pt" version="1.1" viewBox="0 0 460.8 345.6" width="460.8pt" xmlns="http://www.w3.org/2000/svg" xmlns:xlink="http://www.w3.org/1999/xlink">
 <defs>
  <style type="text/css">
*{stroke-linecap:butt;stroke-linejoin:round;}
  </style>
 </defs>
 <g id="figure_1">
  <g id="patch_1">
   <path d="M 0 345.6 
L 460.8 345.6 
L 460.8 0 
L 0 0 
z
" style="fill:#ffffff;"/>
  </g>
  <g id="axes_1">
   <g id="patch_2">
    <path d="M 33.64 311.571899 
L 447.48 311.571899 
L 447.48 13.32 
L 33.64 13.32 
z
" style="fill:#ffffff;"/>
   </g>
   <g id="patch_3">
    <path clip-path="url(#p6ff4670b87)" d="M 52.450909 311.571899 
L 57.038936 311.571899 
L 57.038936 191.462874 
L 52.450909 191.462874 
z
" style="fill:#1f77b4;"/>
   </g>
   <g id="patch_4">
    <path clip-path="url(#p6ff4670b87)" d="M 75.391042 311.571899 
L 79.979069 311.571899 
L 79.979069 239.165663 
L 75.391042 239.165663 
z
" style="fill:#1f77b4;"/>
   </g>
   <g id="patch_5">
    <path clip-path="url(#p6ff4670b87)" d="M 98.331175 311.571899 
L 102.919202 311.571899 
L 102.919202 167.039233 
L 98.331175 167.039233 
z
" style="fill:#1f77b4;"/>
   </g>
   <g id="patch_6">
    <path clip-path="url(#p6ff4670b87)" d="M 121.271308 311.571899 
L 125.859335 311.571899 
L 125.859335 181.261636 
L 121.271308 181.261636 
z
" style="fill:#1f77b4;"/>
   </g>
   <g id="patch_7">
    <path clip-path="url(#p6ff4670b87)" d="M 144.211441 311.571899 
L 148.799468 311.571899 
L 148.799468 146.937409 
L 144.211441 146.937409 
z
" style="fill:#1f77b4;"/>
   </g>
   <g id="patch_8">
    <path clip-path="url(#p6ff4670b87)" d="M 167.151574 311.571899 
L 171.739601 311.571899 
L 171.739601 154.155474 
L 167.151574 154.155474 
z
" style="fill:#1f77b4;"/>
   </g>
   <g id="patch_9">
    <path clip-path="url(#p6ff4670b87)" d="M 190.091707 311.571899 
L 194.679734 311.571899 
L 194.679734 218.17434 
L 190.091707 218.17434 
z
" style="fill:#1f77b4;"/>
   </g>
   <g id="patch_10">
    <path clip-path="url(#p6ff4670b87)" d="M 213.03184 311.571899 
L 217.619867 311.571899 
L 217.619867 168.257329 
L 213.03184 168.257329 
z
" style="fill:#1f77b4;"/>
   </g>
   <g id="patch_11">
    <path clip-path="url(#p6ff4670b87)" d="M 235.971973 311.571899 
L 240.56 311.571899 
L 240.56 27.522471 
L 235.971973 27.522471 
z
" style="fill:#1f77b4;"/>
   </g>
   <g id="patch_12">
    <path clip-path="url(#p6ff4670b87)" d="M 258.912106 311.571899 
L 263.500133 311.571899 
L 263.500133 82.331842 
L 258.912106 82.331842 
z
" style="fill:#1f77b4;"/>
   </g>
   <g id="patch_13">
    <path clip-path="url(#p6ff4670b87)" d="M 281.852239 311.571899 
L 286.440266 311.571899 
L 286.440266 247.887125 
L 281.852239 247.887125 
z
" style="fill:#1f77b4;"/>
   </g>
   <g id="patch_14">
    <path clip-path="url(#p6ff4670b87)" d="M 304.792373 311.571899 
L 309.380399 311.571899 
L 309.380399 241.14396 
L 304.792373 241.14396 
z
" style="fill:#1f77b4;"/>
   </g>
   <g id="patch_15">
    <path clip-path="url(#p6ff4670b87)" d="M 327.732506 311.571899 
L 332.320532 311.571899 
L 332.320532 162.410036 
L 327.732506 162.410036 
z
" style="fill:#1f77b4;"/>
   </g>
   <g id="patch_16">
    <path clip-path="url(#p6ff4670b87)" d="M 350.672639 311.571899 
L 355.260665 311.571899 
L 355.260665 167.319396 
L 350.672639 167.319396 
z
" style="fill:#1f77b4;"/>
   </g>
   <g id="patch_17">
    <path clip-path="url(#p6ff4670b87)" d="M 373.612772 311.571899 
L 378.200798 311.571899 
L 378.200798 170.998427 
L 373.612772 170.998427 
z
" style="fill:#1f77b4;"/>
   </g>
   <g id="patch_18">
    <path clip-path="url(#p6ff4670b87)" d="M 396.552905 311.571899 
L 401.140931 311.571899 
L 401.140931 75.912872 
L 396.552905 75.912872 
z
" style="fill:#1f77b4;"/>
   </g>
   <g id="patch_19">
    <path clip-path="url(#p6ff4670b87)" d="M 419.493038 311.571899 
L 424.081064 311.571899 
L 424.081064 61.820336 
L 419.493038 61.820336 
z
" style="fill:#1f77b4;"/>
   </g>
   <g id="patch_20">
    <path clip-path="url(#p6ff4670b87)" d="M 57.038936 311.571899 
L 61.626962 311.571899 
L 61.626962 213.711698 
L 57.038936 213.711698 
z
" style="fill:#ff7f0e;"/>
   </g>
   <g id="patch_21">
    <path clip-path="url(#p6ff4670b87)" d="M 79.979069 311.571899 
L 84.567095 311.571899 
L 84.567095 191.276648 
L 79.979069 191.276648 
z
" style="fill:#ff7f0e;"/>
   </g>
   <g id="patch_22">
    <path clip-path="url(#p6ff4670b87)" d="M 102.919202 311.571899 
L 107.507228 311.571899 
L 107.507228 143.219188 
L 102.919202 143.219188 
z
" style="fill:#ff7f0e;"/>
   </g>
   <g id="patch_23">
    <path clip-path="url(#p6ff4670b87)" d="M 125.859335 311.571899 
L 130.447361 311.571899 
L 130.447361 145.292001 
L 125.859335 145.292001 
z
" style="fill:#ff7f0e;"/>
   </g>
   <g id="patch_24">
    <path clip-path="url(#p6ff4670b87)" d="M 148.799468 311.571899 
L 153.387494 311.571899 
L 153.387494 124.476249 
L 148.799468 124.476249 
z
" style="fill:#ff7f0e;"/>
   </g>
   <g id="patch_25">
    <path clip-path="url(#p6ff4670b87)" d="M 171.739601 311.571899 
L 176.327627 311.571899 
L 176.327627 146.777466 
L 171.739601 146.777466 
z
" style="fill:#ff7f0e;"/>
   </g>
   <g id="patch_26">
    <path clip-path="url(#p6ff4670b87)" d="M 194.679734 311.571899 
L 199.267761 311.571899 
L 199.267761 210.775286 
L 194.679734 210.775286 
z
" style="fill:#ff7f0e;"/>
   </g>
   <g id="patch_27">
    <path clip-path="url(#p6ff4670b87)" d="M 217.619867 311.571899 
L 222.207894 311.571899 
L 222.207894 138.577621 
L 217.619867 138.577621 
z
" style="fill:#ff7f0e;"/>
   </g>
   <g id="patch_28">
    <path clip-path="url(#p6ff4670b87)" d="M 240.56 311.571899 
L 245.148027 311.571899 
L 245.148027 27.522471 
L 240.56 27.522471 
z
" style="fill:#ff7f0e;"/>
   </g>
   <g id="patch_29">
    <path clip-path="url(#p6ff4670b87)" d="M 263.500133 311.571899 
L 268.08816 311.571899 
L 268.08816 80.427567 
L 263.500133 80.427567 
z
" style="fill:#ff7f0e;"/>
   </g>
   <g id="patch_30">
    <path clip-path="url(#p6ff4670b87)" d="M 286.440266 311.571899 
L 291.028293 311.571899 
L 291.028293 277.273273 
L 286.440266 277.273273 
z
" style="fill:#ff7f0e;"/>
   </g>
   <g id="patch_31">
    <path clip-path="url(#p6ff4670b87)" d="M 309.380399 311.571899 
L 313.968426 311.571899 
L 313.968426 259.672856 
L 309.380399 259.672856 
z
" style="fill:#ff7f0e;"/>
   </g>
   <g id="patch_32">
    <path clip-path="url(#p6ff4670b87)" d="M 332.320532 311.571899 
L 336.908559 311.571899 
L 336.908559 243.127667 
L 332.320532 243.127667 
z
" style="fill:#ff7f0e;"/>
   </g>
   <g id="patch_33">
    <path clip-path="url(#p6ff4670b87)" d="M 355.260665 311.571899 
L 359.848692 311.571899 
L 359.848692 153.173355 
L 355.260665 153.173355 
z
" style="fill:#ff7f0e;"/>
   </g>
   <g id="patch_34">
    <path clip-path="url(#p6ff4670b87)" d="M 378.200798 311.571899 
L 382.788825 311.571899 
L 382.788825 154.123623 
L 378.200798 154.123623 
z
" style="fill:#ff7f0e;"/>
   </g>
   <g id="patch_35">
    <path clip-path="url(#p6ff4670b87)" d="M 401.140931 311.571899 
L 405.728958 311.571899 
L 405.728958 75.912872 
L 401.140931 75.912872 
z
" style="fill:#ff7f0e;"/>
   </g>
   <g id="patch_36">
    <path clip-path="url(#p6ff4670b87)" d="M 424.081064 311.571899 
L 428.669091 311.571899 
L 428.669091 61.820336 
L 424.081064 61.820336 
z
" style="fill:#ff7f0e;"/>
   </g>
   <g id="matplotlib.axis_1">
    <g id="xtick_1">
     <g id="line2d_1">
      <defs>
       <path d="M 0 0 
L 0 3.5 
" id="maa4b25dd55" style="stroke:#000000;stroke-width:0.8;"/>
      </defs>
      <g>
       <use style="stroke:#000000;stroke-width:0.8;" x="57.038936" xlink:href="#maa4b25dd55" y="311.571899"/>
      </g>
     </g>
     <g id="text_1">
      <text style="font-family:DejaVu Sans;font-size:8px;font-style:normal;font-weight:normal;" transform="translate(53.065879 333.938214)rotate(-45)">65A</text>
     </g>
    </g>
    <g id="xtick_2">
     <g id="line2d_2">
      <g>
       <use style="stroke:#000000;stroke-width:0.8;" x="79.979069" xlink:href="#maa4b25dd55" y="311.571899"/>
      </g>
     </g>
     <g id="text_2">
      <text style="font-family:DejaVu Sans;font-size:8px;font-style:normal;font-weight:normal;" transform="translate(76.006013 333.938214)rotate(-45)">66A</text>
     </g>
    </g>
    <g id="xtick_3">
     <g id="line2d_3">
      <g>
       <use style="stroke:#000000;stroke-width:0.8;" x="102.919202" xlink:href="#maa4b25dd55" y="311.571899"/>
      </g>
     </g>
     <g id="text_3">
      <text style="font-family:DejaVu Sans;font-size:8px;font-style:normal;font-weight:normal;" transform="translate(98.946146 333.938214)rotate(-45)">67A</text>
     </g>
    </g>
    <g id="xtick_4">
     <g id="line2d_4">
      <g>
       <use style="stroke:#000000;stroke-width:0.8;" x="125.859335" xlink:href="#maa4b25dd55" y="311.571899"/>
      </g>
     </g>
     <g id="text_4">
      <text style="font-family:DejaVu Sans;font-size:8px;font-style:normal;font-weight:normal;" transform="translate(121.886279 333.938214)rotate(-45)">68A</text>
     </g>
    </g>
    <g id="xtick_5">
     <g id="line2d_5">
      <g>
       <use style="stroke:#000000;stroke-width:0.8;" x="148.799468" xlink:href="#maa4b25dd55" y="311.571899"/>
      </g>
     </g>
     <g id="text_5">
      <text style="font-family:DejaVu Sans;font-size:8px;font-style:normal;font-weight:normal;" transform="translate(144.826412 333.938214)rotate(-45)">69A</text>
     </g>
    </g>
    <g id="xtick_6">
     <g id="line2d_6">
      <g>
       <use style="stroke:#000000;stroke-width:0.8;" x="171.739601" xlink:href="#maa4b25dd55" y="311.571899"/>
      </g>
     </g>
     <g id="text_6">
      <text style="font-family:DejaVu Sans;font-size:8px;font-style:normal;font-weight:normal;" transform="translate(167.766545 333.938214)rotate(-45)">70A</text>
     </g>
    </g>
    <g id="xtick_7">
     <g id="line2d_7">
      <g>
       <use style="stroke:#000000;stroke-width:0.8;" x="194.679734" xlink:href="#maa4b25dd55" y="311.571899"/>
      </g>
     </g>
     <g id="text_7">
      <text style="font-family:DejaVu Sans;font-size:8px;font-style:normal;font-weight:normal;" transform="translate(190.706678 333.938214)rotate(-45)">71A</text>
     </g>
    </g>
    <g id="xtick_8">
     <g id="line2d_8">
      <g>
       <use style="stroke:#000000;stroke-width:0.8;" x="217.619867" xlink:href="#maa4b25dd55" y="311.571899"/>
      </g>
     </g>
     <g id="text_8">
      <text style="font-family:DejaVu Sans;font-size:8px;font-style:normal;font-weight:normal;" transform="translate(213.646811 333.938214)rotate(-45)">72A</text>
     </g>
    </g>
    <g id="xtick_9">
     <g id="line2d_9">
      <g>
       <use style="stroke:#000000;stroke-width:0.8;" x="240.56" xlink:href="#maa4b25dd55" y="311.571899"/>
      </g>
     </g>
     <g id="text_9">
      <text style="font-family:DejaVu Sans;font-size:8px;font-style:normal;font-weight:normal;" transform="translate(236.586944 333.938214)rotate(-45)">73A</text>
     </g>
    </g>
    <g id="xtick_10">
     <g id="line2d_10">
      <g>
       <use style="stroke:#000000;stroke-width:0.8;" x="263.500133" xlink:href="#maa4b25dd55" y="311.571899"/>
      </g>
     </g>
     <g id="text_10">
      <text style="font-family:DejaVu Sans;font-size:8px;font-style:normal;font-weight:normal;" transform="translate(259.527077 333.938214)rotate(-45)">74A</text>
     </g>
    </g>
    <g id="xtick_11">
     <g id="line2d_11">
      <g>
       <use style="stroke:#000000;stroke-width:0.8;" x="286.440266" xlink:href="#maa4b25dd55" y="311.571899"/>
      </g>
     </g>
     <g id="text_11">
      <text style="font-family:DejaVu Sans;font-size:8px;font-style:normal;font-weight:normal;" transform="translate(282.46721 333.938214)rotate(-45)">75A</text>
     </g>
    </g>
    <g id="xtick_12">
     <g id="line2d_12">
      <g>
       <use style="stroke:#000000;stroke-width:0.8;" x="309.380399" xlink:href="#maa4b25dd55" y="311.571899"/>
      </g>
     </g>
     <g id="text_12">
      <text style="font-family:DejaVu Sans;font-size:8px;font-style:normal;font-weight:normal;" transform="translate(305.407343 333.938214)rotate(-45)">76A</text>
     </g>
    </g>
    <g id="xtick_13">
     <g id="line2d_13">
      <g>
       <use style="stroke:#000000;stroke-width:0.8;" x="332.320532" xlink:href="#maa4b25dd55" y="311.571899"/>
      </g>
     </g>
     <g id="text_13">
      <text style="font-family:DejaVu Sans;font-size:8px;font-style:normal;font-weight:normal;" transform="translate(328.347476 333.938214)rotate(-45)">77A</text>
     </g>
    </g>
    <g id="xtick_14">
     <g id="line2d_14">
      <g>
       <use style="stroke:#000000;stroke-width:0.8;" x="355.260665" xlink:href="#maa4b25dd55" y="311.571899"/>
      </g>
     </g>
     <g id="text_14">
      <text style="font-family:DejaVu Sans;font-size:8px;font-style:normal;font-weight:normal;" transform="translate(351.287609 333.938214)rotate(-45)">78A</text>
     </g>
    </g>
    <g id="xtick_15">
     <g id="line2d_15">
      <g>
       <use style="stroke:#000000;stroke-width:0.8;" x="378.200798" xlink:href="#maa4b25dd55" y="311.571899"/>
      </g>
     </g>
     <g id="text_15">
      <text style="font-family:DejaVu Sans;font-size:8px;font-style:normal;font-weight:normal;" transform="translate(374.227742 333.938214)rotate(-45)">79A</text>
     </g>
    </g>
    <g id="xtick_16">
     <g id="line2d_16">
      <g>
       <use style="stroke:#000000;stroke-width:0.8;" x="401.140931" xlink:href="#maa4b25dd55" y="311.571899"/>
      </g>
     </g>
     <g id="text_16">
      <text style="font-family:DejaVu Sans;font-size:8px;font-style:normal;font-weight:normal;" transform="translate(397.16213 333.949704)rotate(-45)">79B</text>
     </g>
    </g>
    <g id="xtick_17">
     <g id="line2d_17">
      <g>
       <use style="stroke:#000000;stroke-width:0.8;" x="424.081064" xlink:href="#maa4b25dd55" y="311.571899"/>
      </g>
     </g>
     <g id="text_17">
      <text style="font-family:DejaVu Sans;font-size:8px;font-style:normal;font-weight:normal;" transform="translate(420.108008 333.938214)rotate(-45)">80A</text>
     </g>
    </g>
   </g>
   <g id="matplotlib.axis_2">
    <g id="ytick_1">
     <g id="line2d_18">
      <defs>
       <path d="M 0 0 
L -3.5 0 
" id="md990c19c41" style="stroke:#000000;stroke-width:0.8;"/>
      </defs>
      <g>
       <use style="stroke:#000000;stroke-width:0.8;" x="33.64" xlink:href="#md990c19c41" y="311.571899"/>
      </g>
     </g>
     <g id="text_18">
      <text style="font-family:DejaVu Sans;font-size:10px;font-style:normal;font-weight:normal;text-anchor:end;" transform="rotate(-0, 26.64, 315.371118)" x="26.64" y="315.371118">0.0</text>
     </g>
    </g>
    <g id="ytick_2">
     <g id="line2d_19">
      <g>
       <use style="stroke:#000000;stroke-width:0.8;" x="33.64" xlink:href="#md990c19c41" y="250.635107"/>
      </g>
     </g>
     <g id="text_19">
      <text style="font-family:DejaVu Sans;font-size:10px;font-style:normal;font-weight:normal;text-anchor:end;" transform="rotate(-0, 26.64, 254.434326)" x="26.64" y="254.434326">0.2</text>
     </g>
    </g>
    <g id="ytick_3">
     <g id="line2d_20">
      <g>
       <use style="stroke:#000000;stroke-width:0.8;" x="33.64" xlink:href="#md990c19c41" y="189.698315"/>
      </g>
     </g>
     <g id="text_20">
      <text style="font-family:DejaVu Sans;font-size:10px;font-style:normal;font-weight:normal;text-anchor:end;" transform="rotate(-0, 26.64, 193.497534)" x="26.64" y="193.497534">0.4</text>
     </g>
    </g>
    <g id="ytick_4">
     <g id="line2d_21">
      <g>
       <use style="stroke:#000000;stroke-width:0.8;" x="33.64" xlink:href="#md990c19c41" y="128.761523"/>
      </g>
     </g>
     <g id="text_21">
      <text style="font-family:DejaVu Sans;font-size:10px;font-style:normal;font-weight:normal;text-anchor:end;" transform="rotate(-0, 26.64, 132.560741)" x="26.64" y="132.560741">0.6</text>
     </g>
    </g>
    <g id="ytick_5">
     <g id="line2d_22">
      <g>
       <use style="stroke:#000000;stroke-width:0.8;" x="33.64" xlink:href="#md990c19c41" y="67.82473"/>
      </g>
     </g>
     <g id="text_22">
      <text style="font-family:DejaVu Sans;font-size:10px;font-style:normal;font-weight:normal;text-anchor:end;" transform="rotate(-0, 26.64, 71.623949)" x="26.64" y="71.623949">0.8</text>
     </g>
    </g>
   </g>
   <g id="patch_37">
    <path d="M 33.64 311.571899 
L 33.64 13.32 
" style="fill:none;stroke:#000000;stroke-linecap:square;stroke-linejoin:miter;stroke-width:0.8;"/>
   </g>
   <g id="patch_38">
    <path d="M 447.48 311.571899 
L 447.48 13.32 
" style="fill:none;stroke:#000000;stroke-linecap:square;stroke-linejoin:miter;stroke-width:0.8;"/>
   </g>
   <g id="patch_39">
    <path d="M 33.64 311.571899 
L 447.48 311.571899 
" style="fill:none;stroke:#000000;stroke-linecap:square;stroke-linejoin:miter;stroke-width:0.8;"/>
   </g>
   <g id="patch_40">
    <path d="M 33.64 13.32 
L 447.48 13.32 
" style="fill:none;stroke:#000000;stroke-linecap:square;stroke-linejoin:miter;stroke-width:0.8;"/>
   </g>
   <g id="legend_1">
    <g id="patch_41">
     <path d="M 375.044062 50.67625 
L 440.48 50.67625 
Q 442.48 50.67625 442.48 48.67625 
L 442.48 20.32 
Q 442.48 18.32 440.48 18.32 
L 375.044062 18.32 
Q 373.044062 18.32 373.044062 20.32 
L 373.044062 48.67625 
Q 373.044062 50.67625 375.044062 50.67625 
z
" style="fill:#ffffff;opacity:0.8;stroke:#cccccc;stroke-linejoin:miter;"/>
    </g>
    <g id="patch_42">
     <path d="M 377.044062 29.918437 
L 397.044062 29.918437 
L 397.044062 22.918437 
L 377.044062 22.918437 
z
" style="fill:#1f77b4;"/>
    </g>
    <g id="text_23">
     <text style="font-family:DejaVu Sans;font-size:10px;font-style:normal;font-weight:normal;text-anchor:start;" transform="rotate(-0, 405.044062, 29.918437)" x="405.044062" y="29.918437">Scores</text>
    </g>
    <g id="patch_43">
     <path d="M 377.044062 44.596563 
L 397.044062 44.596563 
L 397.044062 37.596563 
L 377.044062 37.596563 
z
" style="fill:#ff7f0e;"/>
    </g>
    <g id="text_24">
     <text style="font-family:DejaVu Sans;font-size:10px;font-style:normal;font-weight:normal;text-anchor:start;" transform="rotate(-0, 405.044062, 44.596563)" x="405.044062" y="44.596563">Bases</text>
    </g>
   </g>
  </g>
 </g>
 <defs>
  <clipPath id="p6ff4670b87">
   <rect height="298.251899" width="413.84" x="33.64" y="13.32"/>
  </clipPath>
 </defs>
</svg>
