<?xml version="1.0" encoding="utf-8" standalone="no"?>
<!DOCTYPE svg PUBLIC "-//W3C//DTD SVG 1.1//EN"
  "http://www.w3.org/Graphics/SVG/1.1/DTD/svg11.dtd">
<!-- Created with matplotlib (http://matplotlib.org/) -->
<svg height="345.6pt" version="1.1" viewBox="0 0 460.8 345.6" width="460.8pt" xmlns="http://www.w3.org/2000/svg" xmlns:xlink="http://www.w3.org/1999/xlink">
 <defs>
  <style type="text/css">
*{stroke-linecap:butt;stroke-linejoin:round;}
  </style>
 </defs>
 <g id="figure_1">
  <g id="patch_1">
   <path d="M 0 345.6 
L 460.8 345.6 
L 460.8 0 
L 0 0 
z
" style="fill:#ffffff;"/>
  </g>
  <g id="axes_1">
   <g id="patch_2">
    <path d="M 33.64 301.614761 
L 445.054233 301.614761 
L 445.054233 13.32 
L 33.64 13.32 
z
" style="fill:#ffffff;"/>
   </g>
   <g id="patch_3">
    <path clip-path="url(#p08b7adc98b)" d="M 52.340647 301.614761 
L 66.192978 301.614761 
L 66.192978 27.048322 
L 52.340647 27.048322 
z
" style="fill:#1f77b4;"/>
   </g>
   <g id="patch_4">
    <path clip-path="url(#p08b7adc98b)" d="M 121.602302 301.614761 
L 135.454633 301.614761 
L 135.454633 68.233288 
L 121.602302 68.233288 
z
" style="fill:#1f77b4;"/>
   </g>
   <g id="patch_5">
    <path clip-path="url(#p08b7adc98b)" d="M 190.863958 301.614761 
L 204.716289 301.614761 
L 204.716289 154.215936 
L 190.863958 154.215936 
z
" style="fill:#1f77b4;"/>
   </g>
   <g id="patch_6">
    <path clip-path="url(#p08b7adc98b)" d="M 260.125613 301.614761 
L 273.977944 301.614761 
L 273.977944 234.93434 
L 260.125613 234.93434 
z
" style="fill:#1f77b4;"/>
   </g>
   <g id="patch_7">
    <path clip-path="url(#p08b7adc98b)" d="M 329.387269 301.614761 
L 343.2396 301.614761 
L 343.2396 68.233288 
L 329.387269 68.233288 
z
" style="fill:#1f77b4;"/>
   </g>
   <g id="patch_8">
    <path clip-path="url(#p08b7adc98b)" d="M 398.648924 301.614761 
L 412.501255 301.614761 
L 412.501255 29.336376 
L 398.648924 29.336376 
z
" style="fill:#1f77b4;"/>
   </g>
   <g id="patch_9">
    <path clip-path="url(#p08b7adc98b)" d="M 66.192978 301.614761 
L 80.045309 301.614761 
L 80.045309 136.874897 
L 66.192978 136.874897 
z
" style="fill:#ff7f0e;"/>
   </g>
   <g id="patch_10">
    <path clip-path="url(#p08b7adc98b)" d="M 135.454633 301.614761 
L 149.306965 301.614761 
L 149.306965 301.614761 
L 135.454633 301.614761 
z
" style="fill:#ff7f0e;"/>
   </g>
   <g id="patch_11">
    <path clip-path="url(#p08b7adc98b)" d="M 204.716289 301.614761 
L 218.56862 301.614761 
L 218.56862 129.649465 
L 204.716289 129.649465 
z
" style="fill:#ff7f0e;"/>
   </g>
   <g id="patch_12">
    <path clip-path="url(#p08b7adc98b)" d="M 273.977944 301.614761 
L 287.830275 301.614761 
L 287.830275 168.253919 
L 273.977944 168.253919 
z
" style="fill:#ff7f0e;"/>
   </g>
   <g id="patch_13">
    <path clip-path="url(#p08b7adc98b)" d="M 343.2396 301.614761 
L 357.091931 301.614761 
L 357.091931 146.027112 
L 343.2396 146.027112 
z
" style="fill:#ff7f0e;"/>
   </g>
   <g id="patch_14">
    <path clip-path="url(#p08b7adc98b)" d="M 412.501255 301.614761 
L 426.353586 301.614761 
L 426.353586 68.233288 
L 412.501255 68.233288 
z
" style="fill:#ff7f0e;"/>
   </g>
   <g id="matplotlib.axis_1">
    <g id="xtick_1">
     <g id="line2d_1">
      <defs>
       <path d="M 0 0 
L 0 3.5 
" id="m8835fab9fe" style="stroke:#000000;stroke-width:0.8;"/>
      </defs>
      <g>
       <use style="stroke:#000000;stroke-width:0.8;" x="66.192978" xlink:href="#m8835fab9fe" y="301.614761"/>
      </g>
     </g>
     <g id="text_1">
      <text style="font-family:DejaVu Sans;font-size:9px;font-style:normal;font-weight:normal;" transform="translate(54.286099 321.945667)rotate(-15)">Africa</text>
     </g>
    </g>
    <g id="xtick_2">
     <g id="line2d_2">
      <g>
       <use style="stroke:#000000;stroke-width:0.8;" x="135.454633" xlink:href="#m8835fab9fe" y="301.614761"/>
      </g>
     </g>
     <g id="text_2">
      <text style="font-family:DejaVu Sans;font-size:9px;font-style:normal;font-weight:normal;" transform="translate(116.871546 325.523436)rotate(-15)">Australia</text>
     </g>
    </g>
    <g id="xtick_3">
     <g id="line2d_3">
      <g>
       <use style="stroke:#000000;stroke-width:0.8;" x="204.716289" xlink:href="#m8835fab9fe" y="301.614761"/>
      </g>
     </g>
     <g id="text_3">
      <text style="font-family:DejaVu Sans;font-size:9px;font-style:normal;font-weight:normal;" transform="translate(189.271631 323.841557)rotate(-15)">Eurasia</text>
     </g>
    </g>
    <g id="xtick_4">
     <g id="line2d_4">
      <g>
       <use style="stroke:#000000;stroke-width:0.8;" x="273.977944" xlink:href="#m8835fab9fe" y="301.614761"/>
      </g>
     </g>
     <g id="text_4">
      <text style="font-family:DejaVu Sans;font-size:9px;font-style:normal;font-weight:normal;" transform="translate(243.1522 332.084256)rotate(-15)">North America</text>
     </g>
    </g>
    <g id="xtick_5">
     <g id="line2d_5">
      <g>
       <use style="stroke:#000000;stroke-width:0.8;" x="343.2396" xlink:href="#m8835fab9fe" y="301.614761"/>
      </g>
     </g>
     <g id="text_5">
      <text style="font-family:DejaVu Sans;font-size:9px;font-style:normal;font-weight:normal;" transform="translate(321.52148 327.203495)rotate(-15)">Papunesia</text>
     </g>
    </g>
    <g id="xtick_6">
     <g id="line2d_6">
      <g>
       <use style="stroke:#000000;stroke-width:0.8;" x="412.501255" xlink:href="#m8835fab9fe" y="301.614761"/>
      </g>
     </g>
     <g id="text_6">
      <text style="font-family:DejaVu Sans;font-size:9px;font-style:normal;font-weight:normal;" transform="translate(381.200094 332.339031)rotate(-15)">South America</text>
     </g>
    </g>
   </g>
   <g id="matplotlib.axis_2">
    <g id="ytick_1">
     <g id="line2d_7">
      <defs>
       <path d="M 0 0 
L -3.5 0 
" id="m8fb9b3c0a8" style="stroke:#000000;stroke-width:0.8;"/>
      </defs>
      <g>
       <use style="stroke:#000000;stroke-width:0.8;" x="33.64" xlink:href="#m8fb9b3c0a8" y="301.614761"/>
      </g>
     </g>
     <g id="text_7">
      <text style="font-family:DejaVu Sans;font-size:10px;font-style:normal;font-weight:normal;text-anchor:end;" transform="rotate(-0, 26.64, 305.413979)" x="26.64" y="305.413979">0.0</text>
     </g>
    </g>
    <g id="ytick_2">
     <g id="line2d_8">
      <g>
       <use style="stroke:#000000;stroke-width:0.8;" x="33.64" xlink:href="#m8fb9b3c0a8" y="254.938466"/>
      </g>
     </g>
     <g id="text_8">
      <text style="font-family:DejaVu Sans;font-size:10px;font-style:normal;font-weight:normal;text-anchor:end;" transform="rotate(-0, 26.64, 258.737685)" x="26.64" y="258.737685">0.1</text>
     </g>
    </g>
    <g id="ytick_3">
     <g id="line2d_9">
      <g>
       <use style="stroke:#000000;stroke-width:0.8;" x="33.64" xlink:href="#m8fb9b3c0a8" y="208.262172"/>
      </g>
     </g>
     <g id="text_9">
      <text style="font-family:DejaVu Sans;font-size:10px;font-style:normal;font-weight:normal;text-anchor:end;" transform="rotate(-0, 26.64, 212.06139)" x="26.64" y="212.06139">0.2</text>
     </g>
    </g>
    <g id="ytick_4">
     <g id="line2d_10">
      <g>
       <use style="stroke:#000000;stroke-width:0.8;" x="33.64" xlink:href="#m8fb9b3c0a8" y="161.585877"/>
      </g>
     </g>
     <g id="text_10">
      <text style="font-family:DejaVu Sans;font-size:10px;font-style:normal;font-weight:normal;text-anchor:end;" transform="rotate(-0, 26.64, 165.385096)" x="26.64" y="165.385096">0.3</text>
     </g>
    </g>
    <g id="ytick_5">
     <g id="line2d_11">
      <g>
       <use style="stroke:#000000;stroke-width:0.8;" x="33.64" xlink:href="#m8fb9b3c0a8" y="114.909582"/>
      </g>
     </g>
     <g id="text_11">
      <text style="font-family:DejaVu Sans;font-size:10px;font-style:normal;font-weight:normal;text-anchor:end;" transform="rotate(-0, 26.64, 118.708801)" x="26.64" y="118.708801">0.4</text>
     </g>
    </g>
    <g id="ytick_6">
     <g id="line2d_12">
      <g>
       <use style="stroke:#000000;stroke-width:0.8;" x="33.64" xlink:href="#m8fb9b3c0a8" y="68.233288"/>
      </g>
     </g>
     <g id="text_12">
      <text style="font-family:DejaVu Sans;font-size:10px;font-style:normal;font-weight:normal;text-anchor:end;" transform="rotate(-0, 26.64, 72.032507)" x="26.64" y="72.032507">0.5</text>
     </g>
    </g>
    <g id="ytick_7">
     <g id="line2d_13">
      <g>
       <use style="stroke:#000000;stroke-width:0.8;" x="33.64" xlink:href="#m8fb9b3c0a8" y="21.556993"/>
      </g>
     </g>
     <g id="text_13">
      <text style="font-family:DejaVu Sans;font-size:10px;font-style:normal;font-weight:normal;text-anchor:end;" transform="rotate(-0, 26.64, 25.356212)" x="26.64" y="25.356212">0.6</text>
     </g>
    </g>
   </g>
   <g id="patch_15">
    <path d="M 33.64 301.614761 
L 33.64 13.32 
" style="fill:none;stroke:#000000;stroke-linecap:square;stroke-linejoin:miter;stroke-width:0.8;"/>
   </g>
   <g id="patch_16">
    <path d="M 445.054233 301.614761 
L 445.054233 13.32 
" style="fill:none;stroke:#000000;stroke-linecap:square;stroke-linejoin:miter;stroke-width:0.8;"/>
   </g>
   <g id="patch_17">
    <path d="M 33.64 301.614761 
L 445.054233 301.614761 
" style="fill:none;stroke:#000000;stroke-linecap:square;stroke-linejoin:miter;stroke-width:0.8;"/>
   </g>
   <g id="patch_18">
    <path d="M 33.64 13.32 
L 445.054233 13.32 
" style="fill:none;stroke:#000000;stroke-linecap:square;stroke-linejoin:miter;stroke-width:0.8;"/>
   </g>
   <g id="legend_1">
    <g id="patch_19">
     <path d="M 206.629148 50.67625 
L 272.065085 50.67625 
Q 274.065085 50.67625 274.065085 48.67625 
L 274.065085 20.32 
Q 274.065085 18.32 272.065085 18.32 
L 206.629148 18.32 
Q 204.629148 18.32 204.629148 20.32 
L 204.629148 48.67625 
Q 204.629148 50.67625 206.629148 50.67625 
z
" style="fill:#ffffff;opacity:0.8;stroke:#cccccc;stroke-linejoin:miter;"/>
    </g>
    <g id="patch_20">
     <path d="M 208.629148 29.918437 
L 228.629148 29.918437 
L 228.629148 22.918437 
L 208.629148 22.918437 
z
" style="fill:#1f77b4;"/>
    </g>
    <g id="text_14">
     <text style="font-family:DejaVu Sans;font-size:10px;font-style:normal;font-weight:normal;text-anchor:start;" transform="rotate(-0, 236.629148, 29.918437)" x="236.629148" y="29.918437">Scores</text>
    </g>
    <g id="patch_21">
     <path d="M 208.629148 44.596563 
L 228.629148 44.596563 
L 228.629148 37.596563 
L 208.629148 37.596563 
z
" style="fill:#ff7f0e;"/>
    </g>
    <g id="text_15">
     <text style="font-family:DejaVu Sans;font-size:10px;font-style:normal;font-weight:normal;text-anchor:start;" transform="rotate(-0, 236.629148, 44.596563)" x="236.629148" y="44.596563">Bases</text>
    </g>
   </g>
  </g>
 </g>
 <defs>
  <clipPath id="p08b7adc98b">
   <rect height="288.294761" width="411.414233" x="33.64" y="13.32"/>
  </clipPath>
 </defs>
</svg>
