<?xml version="1.0" encoding="utf-8" standalone="no"?>
<!DOCTYPE svg PUBLIC "-//W3C//DTD SVG 1.1//EN"
  "http://www.w3.org/Graphics/SVG/1.1/DTD/svg11.dtd">
<!-- Created with matplotlib (http://matplotlib.org/) -->
<svg height="345.6pt" version="1.1" viewBox="0 0 460.8 345.6" width="460.8pt" xmlns="http://www.w3.org/2000/svg" xmlns:xlink="http://www.w3.org/1999/xlink">
 <defs>
  <style type="text/css">
*{stroke-linecap:butt;stroke-linejoin:round;}
  </style>
 </defs>
 <g id="figure_1">
  <g id="patch_1">
   <path d="M 0 345.6 
L 460.8 345.6 
L 460.8 0 
L 0 0 
z
" style="fill:#ffffff;"/>
  </g>
  <g id="axes_1">
   <g id="patch_2">
    <path d="M 33.64 308.071721 
L 447.48 308.071721 
L 447.48 13.32 
L 33.64 13.32 
z
" style="fill:#ffffff;"/>
   </g>
   <g id="patch_3">
    <path clip-path="url(#p58bdde7568)" d="M 52.450909 308.071721 
L 56.775256 308.071721 
L 56.775256 193.111866 
L 52.450909 193.111866 
z
" style="fill:#1f77b4;"/>
   </g>
   <g id="patch_4">
    <path clip-path="url(#p58bdde7568)" d="M 74.072644 308.071721 
L 78.396991 308.071721 
L 78.396991 165.708645 
L 74.072644 165.708645 
z
" style="fill:#1f77b4;"/>
   </g>
   <g id="patch_5">
    <path clip-path="url(#p58bdde7568)" d="M 95.694378 308.071721 
L 100.018725 308.071721 
L 100.018725 174.397471 
L 95.694378 174.397471 
z
" style="fill:#1f77b4;"/>
   </g>
   <g id="patch_6">
    <path clip-path="url(#p58bdde7568)" d="M 117.316113 308.071721 
L 121.64046 308.071721 
L 121.64046 179.744441 
L 117.316113 179.744441 
z
" style="fill:#1f77b4;"/>
   </g>
   <g id="patch_7">
    <path clip-path="url(#p58bdde7568)" d="M 138.937847 308.071721 
L 143.262194 308.071721 
L 143.262194 142.315651 
L 138.937847 142.315651 
z
" style="fill:#1f77b4;"/>
   </g>
   <g id="patch_8">
    <path clip-path="url(#p58bdde7568)" d="M 160.559582 308.071721 
L 164.883929 308.071721 
L 164.883929 186.428153 
L 160.559582 186.428153 
z
" style="fill:#1f77b4;"/>
   </g>
   <g id="patch_9">
    <path clip-path="url(#p58bdde7568)" d="M 182.181317 308.071721 
L 186.505664 308.071721 
L 186.505664 167.713759 
L 182.181317 167.713759 
z
" style="fill:#1f77b4;"/>
   </g>
   <g id="patch_10">
    <path clip-path="url(#p58bdde7568)" d="M 203.803051 308.071721 
L 208.127398 308.071721 
L 208.127398 64.784586 
L 203.803051 64.784586 
z
" style="fill:#1f77b4;"/>
   </g>
   <g id="patch_11">
    <path clip-path="url(#p58bdde7568)" d="M 225.424786 308.071721 
L 229.749133 308.071721 
L 229.749133 27.355796 
L 225.424786 27.355796 
z
" style="fill:#1f77b4;"/>
   </g>
   <g id="patch_12">
    <path clip-path="url(#p58bdde7568)" d="M 247.04652 308.071721 
L 251.370867 308.071721 
L 251.370867 136.912566 
L 247.04652 136.912566 
z
" style="fill:#1f77b4;"/>
   </g>
   <g id="patch_13">
    <path clip-path="url(#p58bdde7568)" d="M 268.668255 308.071721 
L 272.992602 308.071721 
L 272.992602 195.785351 
L 268.668255 195.785351 
z
" style="fill:#1f77b4;"/>
   </g>
   <g id="patch_14">
    <path clip-path="url(#p58bdde7568)" d="M 290.28999 308.071721 
L 294.614336 308.071721 
L 294.614336 195.785351 
L 290.28999 195.785351 
z
" style="fill:#1f77b4;"/>
   </g>
   <g id="patch_15">
    <path clip-path="url(#p58bdde7568)" d="M 311.911724 308.071721 
L 316.236071 308.071721 
L 316.236071 139.642166 
L 311.911724 139.642166 
z
" style="fill:#1f77b4;"/>
   </g>
   <g id="patch_16">
    <path clip-path="url(#p58bdde7568)" d="M 333.533459 308.071721 
L 337.857806 308.071721 
L 337.857806 122.614123 
L 333.533459 122.614123 
z
" style="fill:#1f77b4;"/>
   </g>
   <g id="patch_17">
    <path clip-path="url(#p58bdde7568)" d="M 355.155193 308.071721 
L 359.47954 308.071721 
L 359.47954 237.89274 
L 355.155193 237.89274 
z
" style="fill:#1f77b4;"/>
   </g>
   <g id="patch_18">
    <path clip-path="url(#p58bdde7568)" d="M 376.776928 308.071721 
L 381.101275 308.071721 
L 381.101275 168.883408 
L 376.776928 168.883408 
z
" style="fill:#1f77b4;"/>
   </g>
   <g id="patch_19">
    <path clip-path="url(#p58bdde7568)" d="M 398.398662 308.071721 
L 402.723009 308.071721 
L 402.723009 129.115319 
L 398.398662 129.115319 
z
" style="fill:#1f77b4;"/>
   </g>
   <g id="patch_20">
    <path clip-path="url(#p58bdde7568)" d="M 420.020397 308.071721 
L 424.344744 308.071721 
L 424.344744 71.217659 
L 420.020397 71.217659 
z
" style="fill:#1f77b4;"/>
   </g>
   <g id="patch_21">
    <path clip-path="url(#p58bdde7568)" d="M 56.775256 308.071721 
L 61.099603 308.071721 
L 61.099603 174.397471 
L 56.775256 174.397471 
z
" style="fill:#ff7f0e;"/>
   </g>
   <g id="patch_22">
    <path clip-path="url(#p58bdde7568)" d="M 78.396991 308.071721 
L 82.721338 308.071721 
L 82.721338 155.683076 
L 78.396991 155.683076 
z
" style="fill:#ff7f0e;"/>
   </g>
   <g id="patch_23">
    <path clip-path="url(#p58bdde7568)" d="M 100.018725 308.071721 
L 104.343072 308.071721 
L 104.343072 174.397471 
L 100.018725 174.397471 
z
" style="fill:#ff7f0e;"/>
   </g>
   <g id="patch_24">
    <path clip-path="url(#p58bdde7568)" d="M 121.64046 308.071721 
L 125.964807 308.071721 
L 125.964807 179.744441 
L 121.64046 179.744441 
z
" style="fill:#ff7f0e;"/>
   </g>
   <g id="patch_25">
    <path clip-path="url(#p58bdde7568)" d="M 143.262194 308.071721 
L 147.586541 308.071721 
L 147.586541 142.315651 
L 143.262194 142.315651 
z
" style="fill:#ff7f0e;"/>
   </g>
   <g id="patch_26">
    <path clip-path="url(#p58bdde7568)" d="M 164.883929 308.071721 
L 169.208276 308.071721 
L 169.208276 186.428153 
L 164.883929 186.428153 
z
" style="fill:#ff7f0e;"/>
   </g>
   <g id="patch_27">
    <path clip-path="url(#p58bdde7568)" d="M 186.505664 308.071721 
L 190.83001 308.071721 
L 190.83001 167.713759 
L 186.505664 167.713759 
z
" style="fill:#ff7f0e;"/>
   </g>
   <g id="patch_28">
    <path clip-path="url(#p58bdde7568)" d="M 208.127398 308.071721 
L 212.451745 308.071721 
L 212.451745 64.784586 
L 208.127398 64.784586 
z
" style="fill:#ff7f0e;"/>
   </g>
   <g id="patch_29">
    <path clip-path="url(#p58bdde7568)" d="M 229.749133 308.071721 
L 234.07348 308.071721 
L 234.07348 27.355796 
L 229.749133 27.355796 
z
" style="fill:#ff7f0e;"/>
   </g>
   <g id="patch_30">
    <path clip-path="url(#p58bdde7568)" d="M 251.370867 308.071721 
L 255.695214 308.071721 
L 255.695214 140.655445 
L 251.370867 140.655445 
z
" style="fill:#ff7f0e;"/>
   </g>
   <g id="patch_31">
    <path clip-path="url(#p58bdde7568)" d="M 272.992602 308.071721 
L 277.316949 308.071721 
L 277.316949 195.785351 
L 272.992602 195.785351 
z
" style="fill:#ff7f0e;"/>
   </g>
   <g id="patch_32">
    <path clip-path="url(#p58bdde7568)" d="M 294.614336 308.071721 
L 298.938683 308.071721 
L 298.938683 195.785351 
L 294.614336 195.785351 
z
" style="fill:#ff7f0e;"/>
   </g>
   <g id="patch_33">
    <path clip-path="url(#p58bdde7568)" d="M 316.236071 308.071721 
L 320.560418 308.071721 
L 320.560418 139.642166 
L 316.236071 139.642166 
z
" style="fill:#ff7f0e;"/>
   </g>
   <g id="patch_34">
    <path clip-path="url(#p58bdde7568)" d="M 337.857806 308.071721 
L 342.182153 308.071721 
L 342.182153 111.385486 
L 337.857806 111.385486 
z
" style="fill:#ff7f0e;"/>
   </g>
   <g id="patch_35">
    <path clip-path="url(#p58bdde7568)" d="M 359.47954 308.071721 
L 363.803887 308.071721 
L 363.803887 237.89274 
L 359.47954 237.89274 
z
" style="fill:#ff7f0e;"/>
   </g>
   <g id="patch_36">
    <path clip-path="url(#p58bdde7568)" d="M 381.101275 308.071721 
L 385.425622 308.071721 
L 385.425622 168.883408 
L 381.101275 168.883408 
z
" style="fill:#ff7f0e;"/>
   </g>
   <g id="patch_37">
    <path clip-path="url(#p58bdde7568)" d="M 402.723009 308.071721 
L 407.047356 308.071721 
L 407.047356 129.115319 
L 402.723009 129.115319 
z
" style="fill:#ff7f0e;"/>
   </g>
   <g id="patch_38">
    <path clip-path="url(#p58bdde7568)" d="M 424.344744 308.071721 
L 428.669091 308.071721 
L 428.669091 79.990032 
L 424.344744 79.990032 
z
" style="fill:#ff7f0e;"/>
   </g>
   <g id="matplotlib.axis_1">
    <g id="xtick_1">
     <g id="line2d_1">
      <defs>
       <path d="M 0 0 
L 0 3.5 
" id="mf1ab157dfc" style="stroke:#000000;stroke-width:0.8;"/>
      </defs>
      <g>
       <use style="stroke:#000000;stroke-width:0.8;" x="56.775256" xlink:href="#mf1ab157dfc" y="308.071721"/>
      </g>
     </g>
     <g id="text_1">
      <text style="font-family:DejaVu Sans;font-size:8px;font-style:normal;font-weight:normal;" transform="translate(51.002613 334.037209)rotate(-45)">100A</text>
     </g>
    </g>
    <g id="xtick_2">
     <g id="line2d_2">
      <g>
       <use style="stroke:#000000;stroke-width:0.8;" x="78.396991" xlink:href="#mf1ab157dfc" y="308.071721"/>
      </g>
     </g>
     <g id="text_2">
      <text style="font-family:DejaVu Sans;font-size:8px;font-style:normal;font-weight:normal;" transform="translate(72.624348 334.037209)rotate(-45)">101A</text>
     </g>
    </g>
    <g id="xtick_3">
     <g id="line2d_3">
      <g>
       <use style="stroke:#000000;stroke-width:0.8;" x="100.018725" xlink:href="#mf1ab157dfc" y="308.071721"/>
      </g>
     </g>
     <g id="text_3">
      <text style="font-family:DejaVu Sans;font-size:8px;font-style:normal;font-weight:normal;" transform="translate(94.246082 334.037209)rotate(-45)">102A</text>
     </g>
    </g>
    <g id="xtick_4">
     <g id="line2d_4">
      <g>
       <use style="stroke:#000000;stroke-width:0.8;" x="121.64046" xlink:href="#mf1ab157dfc" y="308.071721"/>
      </g>
     </g>
     <g id="text_4">
      <text style="font-family:DejaVu Sans;font-size:8px;font-style:normal;font-weight:normal;" transform="translate(115.867817 334.037209)rotate(-45)">103A</text>
     </g>
    </g>
    <g id="xtick_5">
     <g id="line2d_5">
      <g>
       <use style="stroke:#000000;stroke-width:0.8;" x="143.262194" xlink:href="#mf1ab157dfc" y="308.071721"/>
      </g>
     </g>
     <g id="text_5">
      <text style="font-family:DejaVu Sans;font-size:8px;font-style:normal;font-weight:normal;" transform="translate(137.489551 334.037209)rotate(-45)">104A</text>
     </g>
    </g>
    <g id="xtick_6">
     <g id="line2d_6">
      <g>
       <use style="stroke:#000000;stroke-width:0.8;" x="164.883929" xlink:href="#mf1ab157dfc" y="308.071721"/>
      </g>
     </g>
     <g id="text_6">
      <text style="font-family:DejaVu Sans;font-size:8px;font-style:normal;font-weight:normal;" transform="translate(159.111286 334.037209)rotate(-45)">105A</text>
     </g>
    </g>
    <g id="xtick_7">
     <g id="line2d_7">
      <g>
       <use style="stroke:#000000;stroke-width:0.8;" x="186.505664" xlink:href="#mf1ab157dfc" y="308.071721"/>
      </g>
     </g>
     <g id="text_7">
      <text style="font-family:DejaVu Sans;font-size:8px;font-style:normal;font-weight:normal;" transform="translate(180.733021 334.037209)rotate(-45)">106A</text>
     </g>
    </g>
    <g id="xtick_8">
     <g id="line2d_8">
      <g>
       <use style="stroke:#000000;stroke-width:0.8;" x="208.127398" xlink:href="#mf1ab157dfc" y="308.071721"/>
      </g>
     </g>
     <g id="text_8">
      <text style="font-family:DejaVu Sans;font-size:8px;font-style:normal;font-weight:normal;" transform="translate(202.354755 334.037209)rotate(-45)">107A</text>
     </g>
    </g>
    <g id="xtick_9">
     <g id="line2d_9">
      <g>
       <use style="stroke:#000000;stroke-width:0.8;" x="229.749133" xlink:href="#mf1ab157dfc" y="308.071721"/>
      </g>
     </g>
     <g id="text_9">
      <text style="font-family:DejaVu Sans;font-size:8px;font-style:normal;font-weight:normal;" transform="translate(223.97649 334.037209)rotate(-45)">111A</text>
     </g>
    </g>
    <g id="xtick_10">
     <g id="line2d_10">
      <g>
       <use style="stroke:#000000;stroke-width:0.8;" x="251.370867" xlink:href="#mf1ab157dfc" y="308.071721"/>
      </g>
     </g>
     <g id="text_10">
      <text style="font-family:DejaVu Sans;font-size:8px;font-style:normal;font-weight:normal;" transform="translate(245.598224 334.037209)rotate(-45)">112A</text>
     </g>
    </g>
    <g id="xtick_11">
     <g id="line2d_11">
      <g>
       <use style="stroke:#000000;stroke-width:0.8;" x="272.992602" xlink:href="#mf1ab157dfc" y="308.071721"/>
      </g>
     </g>
     <g id="text_11">
      <text style="font-family:DejaVu Sans;font-size:8px;font-style:normal;font-weight:normal;" transform="translate(267.219959 334.037209)rotate(-45)">113A</text>
     </g>
    </g>
    <g id="xtick_12">
     <g id="line2d_12">
      <g>
       <use style="stroke:#000000;stroke-width:0.8;" x="294.614336" xlink:href="#mf1ab157dfc" y="308.071721"/>
      </g>
     </g>
     <g id="text_12">
      <text style="font-family:DejaVu Sans;font-size:8px;font-style:normal;font-weight:normal;" transform="translate(288.841693 334.037209)rotate(-45)">114A</text>
     </g>
    </g>
    <g id="xtick_13">
     <g id="line2d_13">
      <g>
       <use style="stroke:#000000;stroke-width:0.8;" x="316.236071" xlink:href="#mf1ab157dfc" y="308.071721"/>
      </g>
     </g>
     <g id="text_13">
      <text style="font-family:DejaVu Sans;font-size:8px;font-style:normal;font-weight:normal;" transform="translate(310.463428 334.037209)rotate(-45)">115A</text>
     </g>
    </g>
    <g id="xtick_14">
     <g id="line2d_14">
      <g>
       <use style="stroke:#000000;stroke-width:0.8;" x="337.857806" xlink:href="#mf1ab157dfc" y="308.071721"/>
      </g>
     </g>
     <g id="text_14">
      <text style="font-family:DejaVu Sans;font-size:8px;font-style:normal;font-weight:normal;" transform="translate(332.085163 334.037209)rotate(-45)">116A</text>
     </g>
    </g>
    <g id="xtick_15">
     <g id="line2d_15">
      <g>
       <use style="stroke:#000000;stroke-width:0.8;" x="359.47954" xlink:href="#mf1ab157dfc" y="308.071721"/>
      </g>
     </g>
     <g id="text_15">
      <text style="font-family:DejaVu Sans;font-size:8px;font-style:normal;font-weight:normal;" transform="translate(353.706897 334.037209)rotate(-45)">117A</text>
     </g>
    </g>
    <g id="xtick_16">
     <g id="line2d_16">
      <g>
       <use style="stroke:#000000;stroke-width:0.8;" x="381.101275" xlink:href="#mf1ab157dfc" y="308.071721"/>
      </g>
     </g>
     <g id="text_16">
      <text style="font-family:DejaVu Sans;font-size:8px;font-style:normal;font-weight:normal;" transform="translate(375.328632 334.037209)rotate(-45)">118A</text>
     </g>
    </g>
    <g id="xtick_17">
     <g id="line2d_17">
      <g>
       <use style="stroke:#000000;stroke-width:0.8;" x="402.723009" xlink:href="#mf1ab157dfc" y="308.071721"/>
      </g>
     </g>
     <g id="text_17">
      <text style="font-family:DejaVu Sans;font-size:8px;font-style:normal;font-weight:normal;" transform="translate(396.950366 334.037209)rotate(-45)">119A</text>
     </g>
    </g>
    <g id="xtick_18">
     <g id="line2d_18">
      <g>
       <use style="stroke:#000000;stroke-width:0.8;" x="424.344744" xlink:href="#mf1ab157dfc" y="308.071721"/>
      </g>
     </g>
     <g id="text_18">
      <text style="font-family:DejaVu Sans;font-size:8px;font-style:normal;font-weight:normal;" transform="translate(418.572101 334.037209)rotate(-45)">120A</text>
     </g>
    </g>
   </g>
   <g id="matplotlib.axis_2">
    <g id="ytick_1">
     <g id="line2d_19">
      <defs>
       <path d="M 0 0 
L -3.5 0 
" id="m7aaa4f5e75" style="stroke:#000000;stroke-width:0.8;"/>
      </defs>
      <g>
       <use style="stroke:#000000;stroke-width:0.8;" x="33.64" xlink:href="#m7aaa4f5e75" y="308.071721"/>
      </g>
     </g>
     <g id="text_19">
      <text style="font-family:DejaVu Sans;font-size:10px;font-style:normal;font-weight:normal;text-anchor:end;" transform="rotate(-0, 26.64, 311.87094)" x="26.64" y="311.87094">0.0</text>
     </g>
    </g>
    <g id="ytick_2">
     <g id="line2d_20">
      <g>
       <use style="stroke:#000000;stroke-width:0.8;" x="33.64" xlink:href="#m7aaa4f5e75" y="251.928536"/>
      </g>
     </g>
     <g id="text_20">
      <text style="font-family:DejaVu Sans;font-size:10px;font-style:normal;font-weight:normal;text-anchor:end;" transform="rotate(-0, 26.64, 255.727755)" x="26.64" y="255.727755">0.2</text>
     </g>
    </g>
    <g id="ytick_3">
     <g id="line2d_21">
      <g>
       <use style="stroke:#000000;stroke-width:0.8;" x="33.64" xlink:href="#m7aaa4f5e75" y="195.785351"/>
      </g>
     </g>
     <g id="text_21">
      <text style="font-family:DejaVu Sans;font-size:10px;font-style:normal;font-weight:normal;text-anchor:end;" transform="rotate(-0, 26.64, 199.58457)" x="26.64" y="199.58457">0.4</text>
     </g>
    </g>
    <g id="ytick_4">
     <g id="line2d_22">
      <g>
       <use style="stroke:#000000;stroke-width:0.8;" x="33.64" xlink:href="#m7aaa4f5e75" y="139.642166"/>
      </g>
     </g>
     <g id="text_22">
      <text style="font-family:DejaVu Sans;font-size:10px;font-style:normal;font-weight:normal;text-anchor:end;" transform="rotate(-0, 26.64, 143.441385)" x="26.64" y="143.441385">0.6</text>
     </g>
    </g>
    <g id="ytick_5">
     <g id="line2d_23">
      <g>
       <use style="stroke:#000000;stroke-width:0.8;" x="33.64" xlink:href="#m7aaa4f5e75" y="83.498981"/>
      </g>
     </g>
     <g id="text_23">
      <text style="font-family:DejaVu Sans;font-size:10px;font-style:normal;font-weight:normal;text-anchor:end;" transform="rotate(-0, 26.64, 87.2982)" x="26.64" y="87.2982">0.8</text>
     </g>
    </g>
    <g id="ytick_6">
     <g id="line2d_24">
      <g>
       <use style="stroke:#000000;stroke-width:0.8;" x="33.64" xlink:href="#m7aaa4f5e75" y="27.355796"/>
      </g>
     </g>
     <g id="text_24">
      <text style="font-family:DejaVu Sans;font-size:10px;font-style:normal;font-weight:normal;text-anchor:end;" transform="rotate(-0, 26.64, 31.155015)" x="26.64" y="31.155015">1.0</text>
     </g>
    </g>
   </g>
   <g id="patch_39">
    <path d="M 33.64 308.071721 
L 33.64 13.32 
" style="fill:none;stroke:#000000;stroke-linecap:square;stroke-linejoin:miter;stroke-width:0.8;"/>
   </g>
   <g id="patch_40">
    <path d="M 447.48 308.071721 
L 447.48 13.32 
" style="fill:none;stroke:#000000;stroke-linecap:square;stroke-linejoin:miter;stroke-width:0.8;"/>
   </g>
   <g id="patch_41">
    <path d="M 33.64 308.071721 
L 447.48 308.071721 
" style="fill:none;stroke:#000000;stroke-linecap:square;stroke-linejoin:miter;stroke-width:0.8;"/>
   </g>
   <g id="patch_42">
    <path d="M 33.64 13.32 
L 447.48 13.32 
" style="fill:none;stroke:#000000;stroke-linecap:square;stroke-linejoin:miter;stroke-width:0.8;"/>
   </g>
   <g id="legend_1">
    <g id="patch_43">
     <path d="M 375.044062 50.67625 
L 440.48 50.67625 
Q 442.48 50.67625 442.48 48.67625 
L 442.48 20.32 
Q 442.48 18.32 440.48 18.32 
L 375.044062 18.32 
Q 373.044062 18.32 373.044062 20.32 
L 373.044062 48.67625 
Q 373.044062 50.67625 375.044062 50.67625 
z
" style="fill:#ffffff;opacity:0.8;stroke:#cccccc;stroke-linejoin:miter;"/>
    </g>
    <g id="patch_44">
     <path d="M 377.044062 29.918437 
L 397.044062 29.918437 
L 397.044062 22.918437 
L 377.044062 22.918437 
z
" style="fill:#1f77b4;"/>
    </g>
    <g id="text_25">
     <text style="font-family:DejaVu Sans;font-size:10px;font-style:normal;font-weight:normal;text-anchor:start;" transform="rotate(-0, 405.044062, 29.918437)" x="405.044062" y="29.918437">Scores</text>
    </g>
    <g id="patch_45">
     <path d="M 377.044062 44.596563 
L 397.044062 44.596563 
L 397.044062 37.596563 
L 377.044062 37.596563 
z
" style="fill:#ff7f0e;"/>
    </g>
    <g id="text_26">
     <text style="font-family:DejaVu Sans;font-size:10px;font-style:normal;font-weight:normal;text-anchor:start;" transform="rotate(-0, 405.044062, 44.596563)" x="405.044062" y="44.596563">Bases</text>
    </g>
   </g>
  </g>
 </g>
 <defs>
  <clipPath id="p58bdde7568">
   <rect height="294.751721" width="413.84" x="33.64" y="13.32"/>
  </clipPath>
 </defs>
</svg>
