<?xml version="1.0" encoding="utf-8" standalone="no"?>
<!DOCTYPE svg PUBLIC "-//W3C//DTD SVG 1.1//EN"
  "http://www.w3.org/Graphics/SVG/1.1/DTD/svg11.dtd">
<!-- Created with matplotlib (http://matplotlib.org/) -->
<svg height="345.6pt" version="1.1" viewBox="0 0 460.8 345.6" width="460.8pt" xmlns="http://www.w3.org/2000/svg" xmlns:xlink="http://www.w3.org/1999/xlink">
 <defs>
  <style type="text/css">
*{stroke-linecap:butt;stroke-linejoin:round;}
  </style>
 </defs>
 <g id="figure_1">
  <g id="patch_1">
   <path d="M 0 345.6 
L 460.8 345.6 
L 460.8 0 
L 0 0 
z
" style="fill:#ffffff;"/>
  </g>
  <g id="axes_1">
   <g id="patch_2">
    <path d="M 33.64 308.071721 
L 447.48 308.071721 
L 447.48 13.32 
L 33.64 13.32 
z
" style="fill:#ffffff;"/>
   </g>
   <g id="patch_3">
    <path clip-path="url(#p4845cc6a52)" d="M 52.450909 308.071721 
L 55.534665 308.071721 
L 55.534665 153.009591 
L 52.450909 153.009591 
z
" style="fill:#1f77b4;"/>
   </g>
   <g id="patch_4">
    <path clip-path="url(#p4845cc6a52)" d="M 67.869687 308.071721 
L 70.953443 308.071721 
L 70.953443 160.094326 
L 67.869687 160.094326 
z
" style="fill:#1f77b4;"/>
   </g>
   <g id="patch_5">
    <path clip-path="url(#p4845cc6a52)" d="M 83.288465 308.071721 
L 86.372221 308.071721 
L 86.372221 167.580084 
L 83.288465 167.580084 
z
" style="fill:#1f77b4;"/>
   </g>
   <g id="patch_6">
    <path clip-path="url(#p4845cc6a52)" d="M 98.707243 308.071721 
L 101.790999 308.071721 
L 101.790999 140.310537 
L 98.707243 140.310537 
z
" style="fill:#1f77b4;"/>
   </g>
   <g id="patch_7">
    <path clip-path="url(#p4845cc6a52)" d="M 114.126021 308.071721 
L 117.209776 308.071721 
L 117.209776 147.796295 
L 114.126021 147.796295 
z
" style="fill:#1f77b4;"/>
   </g>
   <g id="patch_8">
    <path clip-path="url(#p4845cc6a52)" d="M 129.544799 308.071721 
L 132.628554 308.071721 
L 132.628554 141.981465 
L 129.544799 141.981465 
z
" style="fill:#1f77b4;"/>
   </g>
   <g id="patch_9">
    <path clip-path="url(#p4845cc6a52)" d="M 144.963577 308.071721 
L 148.047332 308.071721 
L 148.047332 167.713759 
L 144.963577 167.713759 
z
" style="fill:#1f77b4;"/>
   </g>
   <g id="patch_10">
    <path clip-path="url(#p4845cc6a52)" d="M 160.382355 308.071721 
L 163.46611 308.071721 
L 163.46611 68.527465 
L 160.382355 68.527465 
z
" style="fill:#1f77b4;"/>
   </g>
   <g id="patch_11">
    <path clip-path="url(#p4845cc6a52)" d="M 175.801133 308.071721 
L 178.884888 308.071721 
L 178.884888 89.737113 
L 175.801133 89.737113 
z
" style="fill:#1f77b4;"/>
   </g>
   <g id="patch_12">
    <path clip-path="url(#p4845cc6a52)" d="M 191.219911 308.071721 
L 194.303666 308.071721 
L 194.303666 27.355796 
L 191.219911 27.355796 
z
" style="fill:#1f77b4;"/>
   </g>
   <g id="patch_13">
    <path clip-path="url(#p4845cc6a52)" d="M 206.638689 308.071721 
L 209.722444 308.071721 
L 209.722444 167.713759 
L 206.638689 167.713759 
z
" style="fill:#1f77b4;"/>
   </g>
   <g id="patch_14">
    <path clip-path="url(#p4845cc6a52)" d="M 222.057466 308.071721 
L 225.141222 308.071721 
L 225.141222 191.106752 
L 222.057466 191.106752 
z
" style="fill:#1f77b4;"/>
   </g>
   <g id="patch_15">
    <path clip-path="url(#p4845cc6a52)" d="M 237.476244 308.071721 
L 240.56 308.071721 
L 240.56 68.293535 
L 237.476244 68.293535 
z
" style="fill:#1f77b4;"/>
   </g>
   <g id="patch_16">
    <path clip-path="url(#p4845cc6a52)" d="M 252.895022 308.071721 
L 255.978778 308.071721 
L 255.978778 134.417314 
L 252.895022 134.417314 
z
" style="fill:#1f77b4;"/>
   </g>
   <g id="patch_17">
    <path clip-path="url(#p4845cc6a52)" d="M 268.3138 308.071721 
L 271.397556 308.071721 
L 271.397556 200.46395 
L 268.3138 200.46395 
z
" style="fill:#1f77b4;"/>
   </g>
   <g id="patch_18">
    <path clip-path="url(#p4845cc6a52)" d="M 283.732578 308.071721 
L 286.816334 308.071721 
L 286.816334 209.821147 
L 283.732578 209.821147 
z
" style="fill:#1f77b4;"/>
   </g>
   <g id="patch_19">
    <path clip-path="url(#p4845cc6a52)" d="M 299.151356 308.071721 
L 302.235112 308.071721 
L 302.235112 83.498981 
L 299.151356 83.498981 
z
" style="fill:#1f77b4;"/>
   </g>
   <g id="patch_20">
    <path clip-path="url(#p4845cc6a52)" d="M 314.570134 308.071721 
L 317.65389 308.071721 
L 317.65389 127.556643 
L 314.570134 127.556643 
z
" style="fill:#1f77b4;"/>
   </g>
   <g id="patch_21">
    <path clip-path="url(#p4845cc6a52)" d="M 329.988912 308.071721 
L 333.072668 308.071721 
L 333.072668 150.169013 
L 329.988912 150.169013 
z
" style="fill:#1f77b4;"/>
   </g>
   <g id="patch_22">
    <path clip-path="url(#p4845cc6a52)" d="M 345.40769 308.071721 
L 348.491446 308.071721 
L 348.491446 178.006676 
L 345.40769 178.006676 
z
" style="fill:#1f77b4;"/>
   </g>
   <g id="patch_23">
    <path clip-path="url(#p4845cc6a52)" d="M 360.826468 308.071721 
L 363.910224 308.071721 
L 363.910224 113.442013 
L 360.826468 113.442013 
z
" style="fill:#1f77b4;"/>
   </g>
   <g id="patch_24">
    <path clip-path="url(#p4845cc6a52)" d="M 376.245246 308.071721 
L 379.329001 308.071721 
L 379.329001 116.249172 
L 376.245246 116.249172 
z
" style="fill:#1f77b4;"/>
   </g>
   <g id="patch_25">
    <path clip-path="url(#p4845cc6a52)" d="M 391.664024 308.071721 
L 394.747779 308.071721 
L 394.747779 261.285733 
L 391.664024 261.285733 
z
" style="fill:#1f77b4;"/>
   </g>
   <g id="patch_26">
    <path clip-path="url(#p4845cc6a52)" d="M 407.082802 308.071721 
L 410.166557 308.071721 
L 410.166557 120.927771 
L 407.082802 120.927771 
z
" style="fill:#1f77b4;"/>
   </g>
   <g id="patch_27">
    <path clip-path="url(#p4845cc6a52)" d="M 422.50158 308.071721 
L 425.585335 308.071721 
L 425.585335 167.713759 
L 422.50158 167.713759 
z
" style="fill:#1f77b4;"/>
   </g>
   <g id="patch_28">
    <path clip-path="url(#p4845cc6a52)" d="M 55.534665 308.071721 
L 58.61842 308.071721 
L 58.61842 153.009591 
L 55.534665 153.009591 
z
" style="fill:#ff7f0e;"/>
   </g>
   <g id="patch_29">
    <path clip-path="url(#p4845cc6a52)" d="M 70.953443 308.071721 
L 74.037198 308.071721 
L 74.037198 144.053416 
L 70.953443 144.053416 
z
" style="fill:#ff7f0e;"/>
   </g>
   <g id="patch_30">
    <path clip-path="url(#p4845cc6a52)" d="M 86.372221 308.071721 
L 89.455976 308.071721 
L 89.455976 148.330992 
L 86.372221 148.330992 
z
" style="fill:#ff7f0e;"/>
   </g>
   <g id="patch_31">
    <path clip-path="url(#p4845cc6a52)" d="M 101.790999 308.071721 
L 104.874754 308.071721 
L 104.874754 170.253569 
L 101.790999 170.253569 
z
" style="fill:#ff7f0e;"/>
   </g>
   <g id="patch_32">
    <path clip-path="url(#p4845cc6a52)" d="M 117.209776 308.071721 
L 120.293532 308.071721 
L 120.293532 147.796295 
L 117.209776 147.796295 
z
" style="fill:#ff7f0e;"/>
   </g>
   <g id="patch_33">
    <path clip-path="url(#p4845cc6a52)" d="M 132.628554 308.071721 
L 135.71231 308.071721 
L 135.71231 141.981465 
L 132.628554 141.981465 
z
" style="fill:#ff7f0e;"/>
   </g>
   <g id="patch_34">
    <path clip-path="url(#p4845cc6a52)" d="M 148.047332 308.071721 
L 151.131088 308.071721 
L 151.131088 167.713759 
L 148.047332 167.713759 
z
" style="fill:#ff7f0e;"/>
   </g>
   <g id="patch_35">
    <path clip-path="url(#p4845cc6a52)" d="M 163.46611 308.071721 
L 166.549866 308.071721 
L 166.549866 87.24186 
L 163.46611 87.24186 
z
" style="fill:#ff7f0e;"/>
   </g>
   <g id="patch_36">
    <path clip-path="url(#p4845cc6a52)" d="M 178.884888 308.071721 
L 181.968644 308.071721 
L 181.968644 89.737113 
L 178.884888 89.737113 
z
" style="fill:#ff7f0e;"/>
   </g>
   <g id="patch_37">
    <path clip-path="url(#p4845cc6a52)" d="M 194.303666 308.071721 
L 197.387422 308.071721 
L 197.387422 27.355796 
L 194.303666 27.355796 
z
" style="fill:#ff7f0e;"/>
   </g>
   <g id="patch_38">
    <path clip-path="url(#p4845cc6a52)" d="M 209.722444 308.071721 
L 212.8062 308.071721 
L 212.8062 167.713759 
L 209.722444 167.713759 
z
" style="fill:#ff7f0e;"/>
   </g>
   <g id="patch_39">
    <path clip-path="url(#p4845cc6a52)" d="M 225.141222 308.071721 
L 228.224978 308.071721 
L 228.224978 191.106752 
L 225.141222 191.106752 
z
" style="fill:#ff7f0e;"/>
   </g>
   <g id="patch_40">
    <path clip-path="url(#p4845cc6a52)" d="M 240.56 308.071721 
L 243.643756 308.071721 
L 243.643756 68.293535 
L 240.56 68.293535 
z
" style="fill:#ff7f0e;"/>
   </g>
   <g id="patch_41">
    <path clip-path="url(#p4845cc6a52)" d="M 255.978778 308.071721 
L 259.062534 308.071721 
L 259.062534 140.655445 
L 255.978778 140.655445 
z
" style="fill:#ff7f0e;"/>
   </g>
   <g id="patch_42">
    <path clip-path="url(#p4845cc6a52)" d="M 271.397556 308.071721 
L 274.481311 308.071721 
L 274.481311 163.03516 
L 271.397556 163.03516 
z
" style="fill:#ff7f0e;"/>
   </g>
   <g id="patch_43">
    <path clip-path="url(#p4845cc6a52)" d="M 286.816334 308.071721 
L 289.900089 308.071721 
L 289.900089 163.03516 
L 286.816334 163.03516 
z
" style="fill:#ff7f0e;"/>
   </g>
   <g id="patch_44">
    <path clip-path="url(#p4845cc6a52)" d="M 302.235112 308.071721 
L 305.318867 308.071721 
L 305.318867 139.642166 
L 302.235112 139.642166 
z
" style="fill:#ff7f0e;"/>
   </g>
   <g id="patch_45">
    <path clip-path="url(#p4845cc6a52)" d="M 317.65389 308.071721 
L 320.737645 308.071721 
L 320.737645 111.385486 
L 317.65389 111.385486 
z
" style="fill:#ff7f0e;"/>
   </g>
   <g id="patch_46">
    <path clip-path="url(#p4845cc6a52)" d="M 333.072668 308.071721 
L 336.156423 308.071721 
L 336.156423 196.955001 
L 333.072668 196.955001 
z
" style="fill:#ff7f0e;"/>
   </g>
   <g id="patch_47">
    <path clip-path="url(#p4845cc6a52)" d="M 348.491446 308.071721 
L 351.575201 308.071721 
L 351.575201 178.006676 
L 348.491446 178.006676 
z
" style="fill:#ff7f0e;"/>
   </g>
   <g id="patch_48">
    <path clip-path="url(#p4845cc6a52)" d="M 363.910224 308.071721 
L 366.993979 308.071721 
L 366.993979 108.763414 
L 363.910224 108.763414 
z
" style="fill:#ff7f0e;"/>
   </g>
   <g id="patch_49">
    <path clip-path="url(#p4845cc6a52)" d="M 379.329001 308.071721 
L 382.412757 308.071721 
L 382.412757 88.17758 
L 379.329001 88.17758 
z
" style="fill:#ff7f0e;"/>
   </g>
   <g id="patch_50">
    <path clip-path="url(#p4845cc6a52)" d="M 394.747779 308.071721 
L 397.831535 308.071721 
L 397.831535 261.285733 
L 394.747779 261.285733 
z
" style="fill:#ff7f0e;"/>
   </g>
   <g id="patch_51">
    <path clip-path="url(#p4845cc6a52)" d="M 410.166557 308.071721 
L 413.250313 308.071721 
L 413.250313 89.737113 
L 410.166557 89.737113 
z
" style="fill:#ff7f0e;"/>
   </g>
   <g id="patch_52">
    <path clip-path="url(#p4845cc6a52)" d="M 425.585335 308.071721 
L 428.669091 308.071721 
L 428.669091 167.713759 
L 425.585335 167.713759 
z
" style="fill:#ff7f0e;"/>
   </g>
   <g id="matplotlib.axis_1">
    <g id="xtick_1">
     <g id="line2d_1">
      <defs>
       <path d="M 0 0 
L 0 3.5 
" id="mf002ea208e" style="stroke:#000000;stroke-width:0.8;"/>
      </defs>
      <g>
       <use style="stroke:#000000;stroke-width:0.8;" x="55.534665" xlink:href="#mf002ea208e" y="308.071721"/>
      </g>
     </g>
     <g id="text_1">
      <text style="font-family:DejaVu Sans;font-size:8px;font-style:normal;font-weight:normal;" transform="translate(49.762022 334.037209)rotate(-45)">100A</text>
     </g>
    </g>
    <g id="xtick_2">
     <g id="line2d_2">
      <g>
       <use style="stroke:#000000;stroke-width:0.8;" x="70.953443" xlink:href="#mf002ea208e" y="308.071721"/>
      </g>
     </g>
     <g id="text_2">
      <text style="font-family:DejaVu Sans;font-size:8px;font-style:normal;font-weight:normal;" transform="translate(65.1808 334.037209)rotate(-45)">101A</text>
     </g>
    </g>
    <g id="xtick_3">
     <g id="line2d_3">
      <g>
       <use style="stroke:#000000;stroke-width:0.8;" x="86.372221" xlink:href="#mf002ea208e" y="308.071721"/>
      </g>
     </g>
     <g id="text_3">
      <text style="font-family:DejaVu Sans;font-size:8px;font-style:normal;font-weight:normal;" transform="translate(80.599578 334.037209)rotate(-45)">102A</text>
     </g>
    </g>
    <g id="xtick_4">
     <g id="line2d_4">
      <g>
       <use style="stroke:#000000;stroke-width:0.8;" x="101.790999" xlink:href="#mf002ea208e" y="308.071721"/>
      </g>
     </g>
     <g id="text_4">
      <text style="font-family:DejaVu Sans;font-size:8px;font-style:normal;font-weight:normal;" transform="translate(96.018356 334.037209)rotate(-45)">103A</text>
     </g>
    </g>
    <g id="xtick_5">
     <g id="line2d_5">
      <g>
       <use style="stroke:#000000;stroke-width:0.8;" x="117.209776" xlink:href="#mf002ea208e" y="308.071721"/>
      </g>
     </g>
     <g id="text_5">
      <text style="font-family:DejaVu Sans;font-size:8px;font-style:normal;font-weight:normal;" transform="translate(111.437133 334.037209)rotate(-45)">104A</text>
     </g>
    </g>
    <g id="xtick_6">
     <g id="line2d_6">
      <g>
       <use style="stroke:#000000;stroke-width:0.8;" x="132.628554" xlink:href="#mf002ea208e" y="308.071721"/>
      </g>
     </g>
     <g id="text_6">
      <text style="font-family:DejaVu Sans;font-size:8px;font-style:normal;font-weight:normal;" transform="translate(126.855911 334.037209)rotate(-45)">105A</text>
     </g>
    </g>
    <g id="xtick_7">
     <g id="line2d_7">
      <g>
       <use style="stroke:#000000;stroke-width:0.8;" x="148.047332" xlink:href="#mf002ea208e" y="308.071721"/>
      </g>
     </g>
     <g id="text_7">
      <text style="font-family:DejaVu Sans;font-size:8px;font-style:normal;font-weight:normal;" transform="translate(142.274689 334.037209)rotate(-45)">106A</text>
     </g>
    </g>
    <g id="xtick_8">
     <g id="line2d_8">
      <g>
       <use style="stroke:#000000;stroke-width:0.8;" x="163.46611" xlink:href="#mf002ea208e" y="308.071721"/>
      </g>
     </g>
     <g id="text_8">
      <text style="font-family:DejaVu Sans;font-size:8px;font-style:normal;font-weight:normal;" transform="translate(157.693467 334.037209)rotate(-45)">107A</text>
     </g>
    </g>
    <g id="xtick_9">
     <g id="line2d_9">
      <g>
       <use style="stroke:#000000;stroke-width:0.8;" x="178.884888" xlink:href="#mf002ea208e" y="308.071721"/>
      </g>
     </g>
     <g id="text_9">
      <text style="font-family:DejaVu Sans;font-size:8px;font-style:normal;font-weight:normal;" transform="translate(173.112245 334.037209)rotate(-45)">108A</text>
     </g>
    </g>
    <g id="xtick_10">
     <g id="line2d_10">
      <g>
       <use style="stroke:#000000;stroke-width:0.8;" x="194.303666" xlink:href="#mf002ea208e" y="308.071721"/>
      </g>
     </g>
     <g id="text_10">
      <text style="font-family:DejaVu Sans;font-size:8px;font-style:normal;font-weight:normal;" transform="translate(188.525278 334.048699)rotate(-45)">108B</text>
     </g>
    </g>
    <g id="xtick_11">
     <g id="line2d_11">
      <g>
       <use style="stroke:#000000;stroke-width:0.8;" x="209.722444" xlink:href="#mf002ea208e" y="308.071721"/>
      </g>
     </g>
     <g id="text_11">
      <text style="font-family:DejaVu Sans;font-size:8px;font-style:normal;font-weight:normal;" transform="translate(203.949801 334.037209)rotate(-45)">109A</text>
     </g>
    </g>
    <g id="xtick_12">
     <g id="line2d_12">
      <g>
       <use style="stroke:#000000;stroke-width:0.8;" x="225.141222" xlink:href="#mf002ea208e" y="308.071721"/>
      </g>
     </g>
     <g id="text_12">
      <text style="font-family:DejaVu Sans;font-size:8px;font-style:normal;font-weight:normal;" transform="translate(219.362834 334.048699)rotate(-45)">109B</text>
     </g>
    </g>
    <g id="xtick_13">
     <g id="line2d_13">
      <g>
       <use style="stroke:#000000;stroke-width:0.8;" x="240.56" xlink:href="#mf002ea208e" y="308.071721"/>
      </g>
     </g>
     <g id="text_13">
      <text style="font-family:DejaVu Sans;font-size:8px;font-style:normal;font-weight:normal;" transform="translate(234.787357 334.037209)rotate(-45)">111A</text>
     </g>
    </g>
    <g id="xtick_14">
     <g id="line2d_14">
      <g>
       <use style="stroke:#000000;stroke-width:0.8;" x="255.978778" xlink:href="#mf002ea208e" y="308.071721"/>
      </g>
     </g>
     <g id="text_14">
      <text style="font-family:DejaVu Sans;font-size:8px;font-style:normal;font-weight:normal;" transform="translate(250.206135 334.037209)rotate(-45)">112A</text>
     </g>
    </g>
    <g id="xtick_15">
     <g id="line2d_15">
      <g>
       <use style="stroke:#000000;stroke-width:0.8;" x="271.397556" xlink:href="#mf002ea208e" y="308.071721"/>
      </g>
     </g>
     <g id="text_15">
      <text style="font-family:DejaVu Sans;font-size:8px;font-style:normal;font-weight:normal;" transform="translate(265.624913 334.037209)rotate(-45)">113A</text>
     </g>
    </g>
    <g id="xtick_16">
     <g id="line2d_16">
      <g>
       <use style="stroke:#000000;stroke-width:0.8;" x="286.816334" xlink:href="#mf002ea208e" y="308.071721"/>
      </g>
     </g>
     <g id="text_16">
      <text style="font-family:DejaVu Sans;font-size:8px;font-style:normal;font-weight:normal;" transform="translate(281.043691 334.037209)rotate(-45)">114A</text>
     </g>
    </g>
    <g id="xtick_17">
     <g id="line2d_17">
      <g>
       <use style="stroke:#000000;stroke-width:0.8;" x="302.235112" xlink:href="#mf002ea208e" y="308.071721"/>
      </g>
     </g>
     <g id="text_17">
      <text style="font-family:DejaVu Sans;font-size:8px;font-style:normal;font-weight:normal;" transform="translate(296.462469 334.037209)rotate(-45)">115A</text>
     </g>
    </g>
    <g id="xtick_18">
     <g id="line2d_18">
      <g>
       <use style="stroke:#000000;stroke-width:0.8;" x="317.65389" xlink:href="#mf002ea208e" y="308.071721"/>
      </g>
     </g>
     <g id="text_18">
      <text style="font-family:DejaVu Sans;font-size:8px;font-style:normal;font-weight:normal;" transform="translate(311.881247 334.037209)rotate(-45)">116A</text>
     </g>
    </g>
    <g id="xtick_19">
     <g id="line2d_19">
      <g>
       <use style="stroke:#000000;stroke-width:0.8;" x="333.072668" xlink:href="#mf002ea208e" y="308.071721"/>
      </g>
     </g>
     <g id="text_19">
      <text style="font-family:DejaVu Sans;font-size:8px;font-style:normal;font-weight:normal;" transform="translate(327.300025 334.037209)rotate(-45)">117A</text>
     </g>
    </g>
    <g id="xtick_20">
     <g id="line2d_20">
      <g>
       <use style="stroke:#000000;stroke-width:0.8;" x="348.491446" xlink:href="#mf002ea208e" y="308.071721"/>
      </g>
     </g>
     <g id="text_20">
      <text style="font-family:DejaVu Sans;font-size:8px;font-style:normal;font-weight:normal;" transform="translate(342.718803 334.037209)rotate(-45)">118A</text>
     </g>
    </g>
    <g id="xtick_21">
     <g id="line2d_21">
      <g>
       <use style="stroke:#000000;stroke-width:0.8;" x="363.910224" xlink:href="#mf002ea208e" y="308.071721"/>
      </g>
     </g>
     <g id="text_21">
      <text style="font-family:DejaVu Sans;font-size:8px;font-style:normal;font-weight:normal;" transform="translate(358.137581 334.037209)rotate(-45)">119A</text>
     </g>
    </g>
    <g id="xtick_22">
     <g id="line2d_22">
      <g>
       <use style="stroke:#000000;stroke-width:0.8;" x="379.329001" xlink:href="#mf002ea208e" y="308.071721"/>
      </g>
     </g>
     <g id="text_22">
      <text style="font-family:DejaVu Sans;font-size:8px;font-style:normal;font-weight:normal;" transform="translate(373.556359 334.037209)rotate(-45)">120A</text>
     </g>
    </g>
    <g id="xtick_23">
     <g id="line2d_23">
      <g>
       <use style="stroke:#000000;stroke-width:0.8;" x="394.747779" xlink:href="#mf002ea208e" y="308.071721"/>
      </g>
     </g>
     <g id="text_23">
      <text style="font-family:DejaVu Sans;font-size:8px;font-style:normal;font-weight:normal;" transform="translate(388.975136 334.037209)rotate(-45)">121A</text>
     </g>
    </g>
    <g id="xtick_24">
     <g id="line2d_24">
      <g>
       <use style="stroke:#000000;stroke-width:0.8;" x="410.166557" xlink:href="#mf002ea208e" y="308.071721"/>
      </g>
     </g>
     <g id="text_24">
      <text style="font-family:DejaVu Sans;font-size:8px;font-style:normal;font-weight:normal;" transform="translate(406.193501 330.438035)rotate(-45)">98A</text>
     </g>
    </g>
    <g id="xtick_25">
     <g id="line2d_25">
      <g>
       <use style="stroke:#000000;stroke-width:0.8;" x="425.585335" xlink:href="#mf002ea208e" y="308.071721"/>
      </g>
     </g>
     <g id="text_25">
      <text style="font-family:DejaVu Sans;font-size:8px;font-style:normal;font-weight:normal;" transform="translate(421.612279 330.438035)rotate(-45)">99A</text>
     </g>
    </g>
   </g>
   <g id="matplotlib.axis_2">
    <g id="ytick_1">
     <g id="line2d_26">
      <defs>
       <path d="M 0 0 
L -3.5 0 
" id="mbcf81eceed" style="stroke:#000000;stroke-width:0.8;"/>
      </defs>
      <g>
       <use style="stroke:#000000;stroke-width:0.8;" x="33.64" xlink:href="#mbcf81eceed" y="308.071721"/>
      </g>
     </g>
     <g id="text_26">
      <text style="font-family:DejaVu Sans;font-size:10px;font-style:normal;font-weight:normal;text-anchor:end;" transform="rotate(-0, 26.64, 311.87094)" x="26.64" y="311.87094">0.0</text>
     </g>
    </g>
    <g id="ytick_2">
     <g id="line2d_27">
      <g>
       <use style="stroke:#000000;stroke-width:0.8;" x="33.64" xlink:href="#mbcf81eceed" y="251.928536"/>
      </g>
     </g>
     <g id="text_27">
      <text style="font-family:DejaVu Sans;font-size:10px;font-style:normal;font-weight:normal;text-anchor:end;" transform="rotate(-0, 26.64, 255.727755)" x="26.64" y="255.727755">0.2</text>
     </g>
    </g>
    <g id="ytick_3">
     <g id="line2d_28">
      <g>
       <use style="stroke:#000000;stroke-width:0.8;" x="33.64" xlink:href="#mbcf81eceed" y="195.785351"/>
      </g>
     </g>
     <g id="text_28">
      <text style="font-family:DejaVu Sans;font-size:10px;font-style:normal;font-weight:normal;text-anchor:end;" transform="rotate(-0, 26.64, 199.58457)" x="26.64" y="199.58457">0.4</text>
     </g>
    </g>
    <g id="ytick_4">
     <g id="line2d_29">
      <g>
       <use style="stroke:#000000;stroke-width:0.8;" x="33.64" xlink:href="#mbcf81eceed" y="139.642166"/>
      </g>
     </g>
     <g id="text_29">
      <text style="font-family:DejaVu Sans;font-size:10px;font-style:normal;font-weight:normal;text-anchor:end;" transform="rotate(-0, 26.64, 143.441385)" x="26.64" y="143.441385">0.6</text>
     </g>
    </g>
    <g id="ytick_5">
     <g id="line2d_30">
      <g>
       <use style="stroke:#000000;stroke-width:0.8;" x="33.64" xlink:href="#mbcf81eceed" y="83.498981"/>
      </g>
     </g>
     <g id="text_30">
      <text style="font-family:DejaVu Sans;font-size:10px;font-style:normal;font-weight:normal;text-anchor:end;" transform="rotate(-0, 26.64, 87.2982)" x="26.64" y="87.2982">0.8</text>
     </g>
    </g>
    <g id="ytick_6">
     <g id="line2d_31">
      <g>
       <use style="stroke:#000000;stroke-width:0.8;" x="33.64" xlink:href="#mbcf81eceed" y="27.355796"/>
      </g>
     </g>
     <g id="text_31">
      <text style="font-family:DejaVu Sans;font-size:10px;font-style:normal;font-weight:normal;text-anchor:end;" transform="rotate(-0, 26.64, 31.155015)" x="26.64" y="31.155015">1.0</text>
     </g>
    </g>
   </g>
   <g id="patch_53">
    <path d="M 33.64 308.071721 
L 33.64 13.32 
" style="fill:none;stroke:#000000;stroke-linecap:square;stroke-linejoin:miter;stroke-width:0.8;"/>
   </g>
   <g id="patch_54">
    <path d="M 447.48 308.071721 
L 447.48 13.32 
" style="fill:none;stroke:#000000;stroke-linecap:square;stroke-linejoin:miter;stroke-width:0.8;"/>
   </g>
   <g id="patch_55">
    <path d="M 33.64 308.071721 
L 447.48 308.071721 
" style="fill:none;stroke:#000000;stroke-linecap:square;stroke-linejoin:miter;stroke-width:0.8;"/>
   </g>
   <g id="patch_56">
    <path d="M 33.64 13.32 
L 447.48 13.32 
" style="fill:none;stroke:#000000;stroke-linecap:square;stroke-linejoin:miter;stroke-width:0.8;"/>
   </g>
   <g id="legend_1">
    <g id="patch_57">
     <path d="M 375.044062 50.67625 
L 440.48 50.67625 
Q 442.48 50.67625 442.48 48.67625 
L 442.48 20.32 
Q 442.48 18.32 440.48 18.32 
L 375.044062 18.32 
Q 373.044062 18.32 373.044062 20.32 
L 373.044062 48.67625 
Q 373.044062 50.67625 375.044062 50.67625 
z
" style="fill:#ffffff;opacity:0.8;stroke:#cccccc;stroke-linejoin:miter;"/>
    </g>
    <g id="patch_58">
     <path d="M 377.044062 29.918437 
L 397.044062 29.918437 
L 397.044062 22.918437 
L 377.044062 22.918437 
z
" style="fill:#1f77b4;"/>
    </g>
    <g id="text_32">
     <text style="font-family:DejaVu Sans;font-size:10px;font-style:normal;font-weight:normal;text-anchor:start;" transform="rotate(-0, 405.044062, 29.918437)" x="405.044062" y="29.918437">Scores</text>
    </g>
    <g id="patch_59">
     <path d="M 377.044062 44.596563 
L 397.044062 44.596563 
L 397.044062 37.596563 
L 377.044062 37.596563 
z
" style="fill:#ff7f0e;"/>
    </g>
    <g id="text_33">
     <text style="font-family:DejaVu Sans;font-size:10px;font-style:normal;font-weight:normal;text-anchor:start;" transform="rotate(-0, 405.044062, 44.596563)" x="405.044062" y="44.596563">Bases</text>
    </g>
   </g>
  </g>
 </g>
 <defs>
  <clipPath id="p4845cc6a52">
   <rect height="294.751721" width="413.84" x="33.64" y="13.32"/>
  </clipPath>
 </defs>
</svg>
