<?xml version="1.0" encoding="utf-8" standalone="no"?>
<!DOCTYPE svg PUBLIC "-//W3C//DTD SVG 1.1//EN"
  "http://www.w3.org/Graphics/SVG/1.1/DTD/svg11.dtd">
<!-- Created with matplotlib (http://matplotlib.org/) -->
<svg height="345.6pt" version="1.1" viewBox="0 0 460.8 345.6" width="460.8pt" xmlns="http://www.w3.org/2000/svg" xmlns:xlink="http://www.w3.org/1999/xlink">
 <defs>
  <style type="text/css">
*{stroke-linecap:butt;stroke-linejoin:round;}
  </style>
 </defs>
 <g id="figure_1">
  <g id="patch_1">
   <path d="M 0 345.6 
L 460.8 345.6 
L 460.8 0 
L 0 0 
z
" style="fill:#ffffff;"/>
  </g>
  <g id="axes_1">
   <g id="patch_2">
    <path d="M 33.64 301.614761 
L 447.48 301.614761 
L 447.48 13.32 
L 33.64 13.32 
z
" style="fill:#ffffff;"/>
   </g>
   <g id="patch_3">
    <path clip-path="url(#p62d4fe1763)" d="M 52.450909 301.614761 
L 69.551736 301.614761 
L 69.551736 164.331541 
L 52.450909 164.331541 
z
" style="fill:#1f77b4;"/>
   </g>
   <g id="patch_4">
    <path clip-path="url(#p62d4fe1763)" d="M 137.955041 301.614761 
L 155.055868 301.614761 
L 155.055868 149.07785 
L 137.955041 149.07785 
z
" style="fill:#1f77b4;"/>
   </g>
   <g id="patch_5">
    <path clip-path="url(#p62d4fe1763)" d="M 223.459174 301.614761 
L 240.56 301.614761 
L 240.56 27.048322 
L 223.459174 27.048322 
z
" style="fill:#1f77b4;"/>
   </g>
   <g id="patch_6">
    <path clip-path="url(#p62d4fe1763)" d="M 308.963306 301.614761 
L 326.064132 301.614761 
L 326.064132 220.261742 
L 308.963306 220.261742 
z
" style="fill:#1f77b4;"/>
   </g>
   <g id="patch_7">
    <path clip-path="url(#p62d4fe1763)" d="M 394.467438 301.614761 
L 411.568264 301.614761 
L 411.568264 179.585232 
L 394.467438 179.585232 
z
" style="fill:#1f77b4;"/>
   </g>
   <g id="patch_8">
    <path clip-path="url(#p62d4fe1763)" d="M 69.551736 301.614761 
L 86.652562 301.614761 
L 86.652562 164.331541 
L 69.551736 164.331541 
z
" style="fill:#ff7f0e;"/>
   </g>
   <g id="patch_9">
    <path clip-path="url(#p62d4fe1763)" d="M 155.055868 301.614761 
L 172.156694 301.614761 
L 172.156694 149.07785 
L 155.055868 149.07785 
z
" style="fill:#ff7f0e;"/>
   </g>
   <g id="patch_10">
    <path clip-path="url(#p62d4fe1763)" d="M 240.56 301.614761 
L 257.660826 301.614761 
L 257.660826 27.048322 
L 240.56 27.048322 
z
" style="fill:#ff7f0e;"/>
   </g>
   <g id="patch_11">
    <path clip-path="url(#p62d4fe1763)" d="M 326.064132 301.614761 
L 343.164959 301.614761 
L 343.164959 220.261742 
L 326.064132 220.261742 
z
" style="fill:#ff7f0e;"/>
   </g>
   <g id="patch_12">
    <path clip-path="url(#p62d4fe1763)" d="M 411.568264 301.614761 
L 428.669091 301.614761 
L 428.669091 179.585232 
L 411.568264 179.585232 
z
" style="fill:#ff7f0e;"/>
   </g>
   <g id="matplotlib.axis_1">
    <g id="xtick_1">
     <g id="line2d_1">
      <defs>
       <path d="M 0 0 
L 0 3.5 
" id="m3ecea0a5fe" style="stroke:#000000;stroke-width:0.8;"/>
      </defs>
      <g>
       <use style="stroke:#000000;stroke-width:0.8;" x="69.551736" xlink:href="#m3ecea0a5fe" y="301.614761"/>
      </g>
     </g>
     <g id="text_1">
      <text style="font-family:DejaVu Sans;font-size:9px;font-style:normal;font-weight:normal;" transform="translate(57.644856 321.945667)rotate(-15)">Africa</text>
     </g>
    </g>
    <g id="xtick_2">
     <g id="line2d_2">
      <g>
       <use style="stroke:#000000;stroke-width:0.8;" x="155.055868" xlink:href="#m3ecea0a5fe" y="301.614761"/>
      </g>
     </g>
     <g id="text_2">
      <text style="font-family:DejaVu Sans;font-size:9px;font-style:normal;font-weight:normal;" transform="translate(139.61121 323.841557)rotate(-15)">Eurasia</text>
     </g>
    </g>
    <g id="xtick_3">
     <g id="line2d_3">
      <g>
       <use style="stroke:#000000;stroke-width:0.8;" x="240.56" xlink:href="#m3ecea0a5fe" y="301.614761"/>
      </g>
     </g>
     <g id="text_3">
      <text style="font-family:DejaVu Sans;font-size:9px;font-style:normal;font-weight:normal;" transform="translate(209.734256 332.084256)rotate(-15)">North America</text>
     </g>
    </g>
    <g id="xtick_4">
     <g id="line2d_4">
      <g>
       <use style="stroke:#000000;stroke-width:0.8;" x="326.064132" xlink:href="#m3ecea0a5fe" y="301.614761"/>
      </g>
     </g>
     <g id="text_4">
      <text style="font-family:DejaVu Sans;font-size:9px;font-style:normal;font-weight:normal;" transform="translate(304.346012 327.203495)rotate(-15)">Papunesia</text>
     </g>
    </g>
    <g id="xtick_5">
     <g id="line2d_5">
      <g>
       <use style="stroke:#000000;stroke-width:0.8;" x="411.568264" xlink:href="#m3ecea0a5fe" y="301.614761"/>
      </g>
     </g>
     <g id="text_5">
      <text style="font-family:DejaVu Sans;font-size:9px;font-style:normal;font-weight:normal;" transform="translate(380.267104 332.339031)rotate(-15)">South America</text>
     </g>
    </g>
   </g>
   <g id="matplotlib.axis_2">
    <g id="ytick_1">
     <g id="line2d_6">
      <defs>
       <path d="M 0 0 
L -3.5 0 
" id="mdbe1d17c29" style="stroke:#000000;stroke-width:0.8;"/>
      </defs>
      <g>
       <use style="stroke:#000000;stroke-width:0.8;" x="33.64" xlink:href="#mdbe1d17c29" y="301.614761"/>
      </g>
     </g>
     <g id="text_6">
      <text style="font-family:DejaVu Sans;font-size:10px;font-style:normal;font-weight:normal;text-anchor:end;" transform="rotate(-0, 26.64, 305.413979)" x="26.64" y="305.413979">0.0</text>
     </g>
    </g>
    <g id="ytick_2">
     <g id="line2d_7">
      <g>
       <use style="stroke:#000000;stroke-width:0.8;" x="33.64" xlink:href="#mdbe1d17c29" y="265.005902"/>
      </g>
     </g>
     <g id="text_7">
      <text style="font-family:DejaVu Sans;font-size:10px;font-style:normal;font-weight:normal;text-anchor:end;" transform="rotate(-0, 26.64, 268.805121)" x="26.64" y="268.805121">0.1</text>
     </g>
    </g>
    <g id="ytick_3">
     <g id="line2d_8">
      <g>
       <use style="stroke:#000000;stroke-width:0.8;" x="33.64" xlink:href="#mdbe1d17c29" y="228.397044"/>
      </g>
     </g>
     <g id="text_8">
      <text style="font-family:DejaVu Sans;font-size:10px;font-style:normal;font-weight:normal;text-anchor:end;" transform="rotate(-0, 26.64, 232.196262)" x="26.64" y="232.196262">0.2</text>
     </g>
    </g>
    <g id="ytick_4">
     <g id="line2d_9">
      <g>
       <use style="stroke:#000000;stroke-width:0.8;" x="33.64" xlink:href="#mdbe1d17c29" y="191.788185"/>
      </g>
     </g>
     <g id="text_9">
      <text style="font-family:DejaVu Sans;font-size:10px;font-style:normal;font-weight:normal;text-anchor:end;" transform="rotate(-0, 26.64, 195.587404)" x="26.64" y="195.587404">0.3</text>
     </g>
    </g>
    <g id="ytick_5">
     <g id="line2d_10">
      <g>
       <use style="stroke:#000000;stroke-width:0.8;" x="33.64" xlink:href="#mdbe1d17c29" y="155.179327"/>
      </g>
     </g>
     <g id="text_10">
      <text style="font-family:DejaVu Sans;font-size:10px;font-style:normal;font-weight:normal;text-anchor:end;" transform="rotate(-0, 26.64, 158.978545)" x="26.64" y="158.978545">0.4</text>
     </g>
    </g>
    <g id="ytick_6">
     <g id="line2d_11">
      <g>
       <use style="stroke:#000000;stroke-width:0.8;" x="33.64" xlink:href="#mdbe1d17c29" y="118.570468"/>
      </g>
     </g>
     <g id="text_11">
      <text style="font-family:DejaVu Sans;font-size:10px;font-style:normal;font-weight:normal;text-anchor:end;" transform="rotate(-0, 26.64, 122.369687)" x="26.64" y="122.369687">0.5</text>
     </g>
    </g>
    <g id="ytick_7">
     <g id="line2d_12">
      <g>
       <use style="stroke:#000000;stroke-width:0.8;" x="33.64" xlink:href="#mdbe1d17c29" y="81.96161"/>
      </g>
     </g>
     <g id="text_12">
      <text style="font-family:DejaVu Sans;font-size:10px;font-style:normal;font-weight:normal;text-anchor:end;" transform="rotate(-0, 26.64, 85.760828)" x="26.64" y="85.760828">0.6</text>
     </g>
    </g>
    <g id="ytick_8">
     <g id="line2d_13">
      <g>
       <use style="stroke:#000000;stroke-width:0.8;" x="33.64" xlink:href="#mdbe1d17c29" y="45.352751"/>
      </g>
     </g>
     <g id="text_13">
      <text style="font-family:DejaVu Sans;font-size:10px;font-style:normal;font-weight:normal;text-anchor:end;" transform="rotate(-0, 26.64, 49.15197)" x="26.64" y="49.15197">0.7</text>
     </g>
    </g>
   </g>
   <g id="patch_13">
    <path d="M 33.64 301.614761 
L 33.64 13.32 
" style="fill:none;stroke:#000000;stroke-linecap:square;stroke-linejoin:miter;stroke-width:0.8;"/>
   </g>
   <g id="patch_14">
    <path d="M 447.48 301.614761 
L 447.48 13.32 
" style="fill:none;stroke:#000000;stroke-linecap:square;stroke-linejoin:miter;stroke-width:0.8;"/>
   </g>
   <g id="patch_15">
    <path d="M 33.64 301.614761 
L 447.48 301.614761 
" style="fill:none;stroke:#000000;stroke-linecap:square;stroke-linejoin:miter;stroke-width:0.8;"/>
   </g>
   <g id="patch_16">
    <path d="M 33.64 13.32 
L 447.48 13.32 
" style="fill:none;stroke:#000000;stroke-linecap:square;stroke-linejoin:miter;stroke-width:0.8;"/>
   </g>
   <g id="legend_1">
    <g id="patch_17">
     <path d="M 375.044062 50.67625 
L 440.48 50.67625 
Q 442.48 50.67625 442.48 48.67625 
L 442.48 20.32 
Q 442.48 18.32 440.48 18.32 
L 375.044062 18.32 
Q 373.044062 18.32 373.044062 20.32 
L 373.044062 48.67625 
Q 373.044062 50.67625 375.044062 50.67625 
z
" style="fill:#ffffff;opacity:0.8;stroke:#cccccc;stroke-linejoin:miter;"/>
    </g>
    <g id="patch_18">
     <path d="M 377.044062 29.918437 
L 397.044062 29.918437 
L 397.044062 22.918437 
L 377.044062 22.918437 
z
" style="fill:#1f77b4;"/>
    </g>
    <g id="text_14">
     <text style="font-family:DejaVu Sans;font-size:10px;font-style:normal;font-weight:normal;text-anchor:start;" transform="rotate(-0, 405.044062, 29.918437)" x="405.044062" y="29.918437">Scores</text>
    </g>
    <g id="patch_19">
     <path d="M 377.044062 44.596563 
L 397.044062 44.596563 
L 397.044062 37.596563 
L 377.044062 37.596563 
z
" style="fill:#ff7f0e;"/>
    </g>
    <g id="text_15">
     <text style="font-family:DejaVu Sans;font-size:10px;font-style:normal;font-weight:normal;text-anchor:start;" transform="rotate(-0, 405.044062, 44.596563)" x="405.044062" y="44.596563">Bases</text>
    </g>
   </g>
  </g>
 </g>
 <defs>
  <clipPath id="p62d4fe1763">
   <rect height="288.294761" width="413.84" x="33.64" y="13.32"/>
  </clipPath>
 </defs>
</svg>
