<?xml version="1.0" encoding="utf-8" standalone="no"?>
<!DOCTYPE svg PUBLIC "-//W3C//DTD SVG 1.1//EN"
  "http://www.w3.org/Graphics/SVG/1.1/DTD/svg11.dtd">
<!-- Created with matplotlib (http://matplotlib.org/) -->
<svg height="345.6pt" version="1.1" viewBox="0 0 460.8 345.6" width="460.8pt" xmlns="http://www.w3.org/2000/svg" xmlns:xlink="http://www.w3.org/1999/xlink">
 <defs>
  <style type="text/css">
*{stroke-linecap:butt;stroke-linejoin:round;}
  </style>
 </defs>
 <g id="figure_1">
  <g id="patch_1">
   <path d="M 0 345.6 
L 460.8 345.6 
L 460.8 0 
L 0 0 
z
" style="fill:#ffffff;"/>
  </g>
  <g id="axes_1">
   <g id="patch_2">
    <path d="M 33.64 301.614761 
L 445.054233 301.614761 
L 445.054233 13.32 
L 33.64 13.32 
z
" style="fill:#ffffff;"/>
   </g>
   <g id="patch_3">
    <path clip-path="url(#p0e9d13e4fa)" d="M 52.340647 301.614761 
L 66.192978 301.614761 
L 66.192978 61.369127 
L 52.340647 61.369127 
z
" style="fill:#1f77b4;"/>
   </g>
   <g id="patch_4">
    <path clip-path="url(#p0e9d13e4fa)" d="M 121.602302 301.614761 
L 135.454633 301.614761 
L 135.454633 27.048322 
L 121.602302 27.048322 
z
" style="fill:#1f77b4;"/>
   </g>
   <g id="patch_5">
    <path clip-path="url(#p0e9d13e4fa)" d="M 190.863958 301.614761 
L 204.716289 301.614761 
L 204.716289 144.719653 
L 190.863958 144.719653 
z
" style="fill:#1f77b4;"/>
   </g>
   <g id="patch_6">
    <path clip-path="url(#p0e9d13e4fa)" d="M 260.125613 301.614761 
L 273.977944 301.614761 
L 273.977944 198.652346 
L 260.125613 198.652346 
z
" style="fill:#1f77b4;"/>
   </g>
   <g id="patch_7">
    <path clip-path="url(#p0e9d13e4fa)" d="M 329.387269 301.614761 
L 343.2396 301.614761 
L 343.2396 164.331541 
L 329.387269 164.331541 
z
" style="fill:#1f77b4;"/>
   </g>
   <g id="patch_8">
    <path clip-path="url(#p0e9d13e4fa)" d="M 398.648924 301.614761 
L 412.501255 301.614761 
L 412.501255 130.010736 
L 398.648924 130.010736 
z
" style="fill:#1f77b4;"/>
   </g>
   <g id="patch_9">
    <path clip-path="url(#p0e9d13e4fa)" d="M 66.192978 301.614761 
L 80.045309 301.614761 
L 80.045309 61.369127 
L 66.192978 61.369127 
z
" style="fill:#ff7f0e;"/>
   </g>
   <g id="patch_10">
    <path clip-path="url(#p0e9d13e4fa)" d="M 135.454633 301.614761 
L 149.306965 301.614761 
L 149.306965 27.048322 
L 135.454633 27.048322 
z
" style="fill:#ff7f0e;"/>
   </g>
   <g id="patch_11">
    <path clip-path="url(#p0e9d13e4fa)" d="M 204.716289 301.614761 
L 218.56862 301.614761 
L 218.56862 144.719653 
L 204.716289 144.719653 
z
" style="fill:#ff7f0e;"/>
   </g>
   <g id="patch_12">
    <path clip-path="url(#p0e9d13e4fa)" d="M 273.977944 301.614761 
L 287.830275 301.614761 
L 287.830275 198.652346 
L 273.977944 198.652346 
z
" style="fill:#ff7f0e;"/>
   </g>
   <g id="patch_13">
    <path clip-path="url(#p0e9d13e4fa)" d="M 343.2396 301.614761 
L 357.091931 301.614761 
L 357.091931 164.331541 
L 343.2396 164.331541 
z
" style="fill:#ff7f0e;"/>
   </g>
   <g id="patch_14">
    <path clip-path="url(#p0e9d13e4fa)" d="M 412.501255 301.614761 
L 426.353586 301.614761 
L 426.353586 130.010736 
L 412.501255 130.010736 
z
" style="fill:#ff7f0e;"/>
   </g>
   <g id="matplotlib.axis_1">
    <g id="xtick_1">
     <g id="line2d_1">
      <defs>
       <path d="M 0 0 
L 0 3.5 
" id="m0c3582c02b" style="stroke:#000000;stroke-width:0.8;"/>
      </defs>
      <g>
       <use style="stroke:#000000;stroke-width:0.8;" x="66.192978" xlink:href="#m0c3582c02b" y="301.614761"/>
      </g>
     </g>
     <g id="text_1">
      <text style="font-family:DejaVu Sans;font-size:9px;font-style:normal;font-weight:normal;" transform="translate(54.286099 321.945667)rotate(-15)">Africa</text>
     </g>
    </g>
    <g id="xtick_2">
     <g id="line2d_2">
      <g>
       <use style="stroke:#000000;stroke-width:0.8;" x="135.454633" xlink:href="#m0c3582c02b" y="301.614761"/>
      </g>
     </g>
     <g id="text_2">
      <text style="font-family:DejaVu Sans;font-size:9px;font-style:normal;font-weight:normal;" transform="translate(116.871546 325.523436)rotate(-15)">Australia</text>
     </g>
    </g>
    <g id="xtick_3">
     <g id="line2d_3">
      <g>
       <use style="stroke:#000000;stroke-width:0.8;" x="204.716289" xlink:href="#m0c3582c02b" y="301.614761"/>
      </g>
     </g>
     <g id="text_3">
      <text style="font-family:DejaVu Sans;font-size:9px;font-style:normal;font-weight:normal;" transform="translate(189.271631 323.841557)rotate(-15)">Eurasia</text>
     </g>
    </g>
    <g id="xtick_4">
     <g id="line2d_4">
      <g>
       <use style="stroke:#000000;stroke-width:0.8;" x="273.977944" xlink:href="#m0c3582c02b" y="301.614761"/>
      </g>
     </g>
     <g id="text_4">
      <text style="font-family:DejaVu Sans;font-size:9px;font-style:normal;font-weight:normal;" transform="translate(243.1522 332.084256)rotate(-15)">North America</text>
     </g>
    </g>
    <g id="xtick_5">
     <g id="line2d_5">
      <g>
       <use style="stroke:#000000;stroke-width:0.8;" x="343.2396" xlink:href="#m0c3582c02b" y="301.614761"/>
      </g>
     </g>
     <g id="text_5">
      <text style="font-family:DejaVu Sans;font-size:9px;font-style:normal;font-weight:normal;" transform="translate(321.52148 327.203495)rotate(-15)">Papunesia</text>
     </g>
    </g>
    <g id="xtick_6">
     <g id="line2d_6">
      <g>
       <use style="stroke:#000000;stroke-width:0.8;" x="412.501255" xlink:href="#m0c3582c02b" y="301.614761"/>
      </g>
     </g>
     <g id="text_6">
      <text style="font-family:DejaVu Sans;font-size:9px;font-style:normal;font-weight:normal;" transform="translate(381.200094 332.339031)rotate(-15)">South America</text>
     </g>
    </g>
   </g>
   <g id="matplotlib.axis_2">
    <g id="ytick_1">
     <g id="line2d_7">
      <defs>
       <path d="M 0 0 
L -3.5 0 
" id="m25cea021be" style="stroke:#000000;stroke-width:0.8;"/>
      </defs>
      <g>
       <use style="stroke:#000000;stroke-width:0.8;" x="33.64" xlink:href="#m25cea021be" y="301.614761"/>
      </g>
     </g>
     <g id="text_7">
      <text style="font-family:DejaVu Sans;font-size:10px;font-style:normal;font-weight:normal;text-anchor:end;" transform="rotate(-0, 26.64, 305.413979)" x="26.64" y="305.413979">0.0</text>
     </g>
    </g>
    <g id="ytick_2">
     <g id="line2d_8">
      <g>
       <use style="stroke:#000000;stroke-width:0.8;" x="33.64" xlink:href="#m25cea021be" y="246.701473"/>
      </g>
     </g>
     <g id="text_8">
      <text style="font-family:DejaVu Sans;font-size:10px;font-style:normal;font-weight:normal;text-anchor:end;" transform="rotate(-0, 26.64, 250.500692)" x="26.64" y="250.500692">0.2</text>
     </g>
    </g>
    <g id="ytick_3">
     <g id="line2d_9">
      <g>
       <use style="stroke:#000000;stroke-width:0.8;" x="33.64" xlink:href="#m25cea021be" y="191.788185"/>
      </g>
     </g>
     <g id="text_9">
      <text style="font-family:DejaVu Sans;font-size:10px;font-style:normal;font-weight:normal;text-anchor:end;" transform="rotate(-0, 26.64, 195.587404)" x="26.64" y="195.587404">0.4</text>
     </g>
    </g>
    <g id="ytick_4">
     <g id="line2d_10">
      <g>
       <use style="stroke:#000000;stroke-width:0.8;" x="33.64" xlink:href="#m25cea021be" y="136.874897"/>
      </g>
     </g>
     <g id="text_10">
      <text style="font-family:DejaVu Sans;font-size:10px;font-style:normal;font-weight:normal;text-anchor:end;" transform="rotate(-0, 26.64, 140.674116)" x="26.64" y="140.674116">0.6</text>
     </g>
    </g>
    <g id="ytick_5">
     <g id="line2d_11">
      <g>
       <use style="stroke:#000000;stroke-width:0.8;" x="33.64" xlink:href="#m25cea021be" y="81.96161"/>
      </g>
     </g>
     <g id="text_11">
      <text style="font-family:DejaVu Sans;font-size:10px;font-style:normal;font-weight:normal;text-anchor:end;" transform="rotate(-0, 26.64, 85.760828)" x="26.64" y="85.760828">0.8</text>
     </g>
    </g>
    <g id="ytick_6">
     <g id="line2d_12">
      <g>
       <use style="stroke:#000000;stroke-width:0.8;" x="33.64" xlink:href="#m25cea021be" y="27.048322"/>
      </g>
     </g>
     <g id="text_12">
      <text style="font-family:DejaVu Sans;font-size:10px;font-style:normal;font-weight:normal;text-anchor:end;" transform="rotate(-0, 26.64, 30.847541)" x="26.64" y="30.847541">1.0</text>
     </g>
    </g>
   </g>
   <g id="patch_15">
    <path d="M 33.64 301.614761 
L 33.64 13.32 
" style="fill:none;stroke:#000000;stroke-linecap:square;stroke-linejoin:miter;stroke-width:0.8;"/>
   </g>
   <g id="patch_16">
    <path d="M 445.054233 301.614761 
L 445.054233 13.32 
" style="fill:none;stroke:#000000;stroke-linecap:square;stroke-linejoin:miter;stroke-width:0.8;"/>
   </g>
   <g id="patch_17">
    <path d="M 33.64 301.614761 
L 445.054233 301.614761 
" style="fill:none;stroke:#000000;stroke-linecap:square;stroke-linejoin:miter;stroke-width:0.8;"/>
   </g>
   <g id="patch_18">
    <path d="M 33.64 13.32 
L 445.054233 13.32 
" style="fill:none;stroke:#000000;stroke-linecap:square;stroke-linejoin:miter;stroke-width:0.8;"/>
   </g>
   <g id="legend_1">
    <g id="patch_19">
     <path d="M 372.618296 50.67625 
L 438.054233 50.67625 
Q 440.054233 50.67625 440.054233 48.67625 
L 440.054233 20.32 
Q 440.054233 18.32 438.054233 18.32 
L 372.618296 18.32 
Q 370.618296 18.32 370.618296 20.32 
L 370.618296 48.67625 
Q 370.618296 50.67625 372.618296 50.67625 
z
" style="fill:#ffffff;opacity:0.8;stroke:#cccccc;stroke-linejoin:miter;"/>
    </g>
    <g id="patch_20">
     <path d="M 374.618296 29.918437 
L 394.618296 29.918437 
L 394.618296 22.918437 
L 374.618296 22.918437 
z
" style="fill:#1f77b4;"/>
    </g>
    <g id="text_13">
     <text style="font-family:DejaVu Sans;font-size:10px;font-style:normal;font-weight:normal;text-anchor:start;" transform="rotate(-0, 402.618296, 29.918437)" x="402.618296" y="29.918437">Scores</text>
    </g>
    <g id="patch_21">
     <path d="M 374.618296 44.596563 
L 394.618296 44.596563 
L 394.618296 37.596563 
L 374.618296 37.596563 
z
" style="fill:#ff7f0e;"/>
    </g>
    <g id="text_14">
     <text style="font-family:DejaVu Sans;font-size:10px;font-style:normal;font-weight:normal;text-anchor:start;" transform="rotate(-0, 402.618296, 44.596563)" x="402.618296" y="44.596563">Bases</text>
    </g>
   </g>
  </g>
 </g>
 <defs>
  <clipPath id="p0e9d13e4fa">
   <rect height="288.294761" width="411.414233" x="33.64" y="13.32"/>
  </clipPath>
 </defs>
</svg>
