<?xml version="1.0" encoding="utf-8" standalone="no"?>
<!DOCTYPE svg PUBLIC "-//W3C//DTD SVG 1.1//EN"
  "http://www.w3.org/Graphics/SVG/1.1/DTD/svg11.dtd">
<!-- Created with matplotlib (http://matplotlib.org/) -->
<svg height="345.6pt" version="1.1" viewBox="0 0 460.8 345.6" width="460.8pt" xmlns="http://www.w3.org/2000/svg" xmlns:xlink="http://www.w3.org/1999/xlink">
 <defs>
  <style type="text/css">
*{stroke-linecap:butt;stroke-linejoin:round;}
  </style>
 </defs>
 <g id="figure_1">
  <g id="patch_1">
   <path d="M 0 345.6 
L 460.8 345.6 
L 460.8 0 
L 0 0 
z
" style="fill:#ffffff;"/>
  </g>
  <g id="axes_1">
   <g id="patch_2">
    <path d="M 33.64 314.881159 
L 447.48 314.881159 
L 447.48 13.32 
L 33.64 13.32 
z
" style="fill:#ffffff;"/>
   </g>
   <g id="patch_3">
    <path clip-path="url(#p5b5c35cb10)" d="M 52.450909 314.881159 
L 55.197027 314.881159 
L 55.197027 78.026994 
L 52.450909 78.026994 
z
" style="fill:#1f77b4;"/>
   </g>
   <g id="patch_4">
    <path clip-path="url(#p5b5c35cb10)" d="M 66.1815 314.881159 
L 68.927618 314.881159 
L 68.927618 86.575871 
L 66.1815 86.575871 
z
" style="fill:#1f77b4;"/>
   </g>
   <g id="patch_5">
    <path clip-path="url(#p5b5c35cb10)" d="M 79.91209 314.881159 
L 82.658208 314.881159 
L 82.658208 91.353184 
L 79.91209 91.353184 
z
" style="fill:#1f77b4;"/>
   </g>
   <g id="patch_6">
    <path clip-path="url(#p5b5c35cb10)" d="M 93.642681 314.881159 
L 96.388799 314.881159 
L 96.388799 117.363032 
L 93.642681 117.363032 
z
" style="fill:#1f77b4;"/>
   </g>
   <g id="patch_7">
    <path clip-path="url(#p5b5c35cb10)" d="M 107.373271 314.881159 
L 110.11939 314.881159 
L 110.11939 157.861147 
L 107.373271 157.861147 
z
" style="fill:#1f77b4;"/>
   </g>
   <g id="patch_8">
    <path clip-path="url(#p5b5c35cb10)" d="M 121.103862 314.881159 
L 123.84998 314.881159 
L 123.84998 83.684119 
L 121.103862 83.684119 
z
" style="fill:#1f77b4;"/>
   </g>
   <g id="patch_9">
    <path clip-path="url(#p5b5c35cb10)" d="M 134.834453 314.881159 
L 137.580571 314.881159 
L 137.580571 221.912128 
L 134.834453 221.912128 
z
" style="fill:#1f77b4;"/>
   </g>
   <g id="patch_10">
    <path clip-path="url(#p5b5c35cb10)" d="M 148.565043 314.881159 
L 151.311161 314.881159 
L 151.311161 186.131994 
L 148.565043 186.131994 
z
" style="fill:#1f77b4;"/>
   </g>
   <g id="patch_11">
    <path clip-path="url(#p5b5c35cb10)" d="M 162.295634 314.881159 
L 165.041752 314.881159 
L 165.041752 182.752051 
L 162.295634 182.752051 
z
" style="fill:#1f77b4;"/>
   </g>
   <g id="patch_12">
    <path clip-path="url(#p5b5c35cb10)" d="M 176.026224 314.881159 
L 178.772342 314.881159 
L 178.772342 41.469772 
L 176.026224 41.469772 
z
" style="fill:#1f77b4;"/>
   </g>
   <g id="patch_13">
    <path clip-path="url(#p5b5c35cb10)" d="M 189.756815 314.881159 
L 192.502933 314.881159 
L 192.502933 201.880983 
L 189.756815 201.880983 
z
" style="fill:#1f77b4;"/>
   </g>
   <g id="patch_14">
    <path clip-path="url(#p5b5c35cb10)" d="M 203.487405 314.881159 
L 206.233524 314.881159 
L 206.233524 142.939729 
L 203.487405 142.939729 
z
" style="fill:#1f77b4;"/>
   </g>
   <g id="patch_15">
    <path clip-path="url(#p5b5c35cb10)" d="M 217.217996 314.881159 
L 219.964114 314.881159 
L 219.964114 35.242087 
L 217.217996 35.242087 
z
" style="fill:#1f77b4;"/>
   </g>
   <g id="patch_16">
    <path clip-path="url(#p5b5c35cb10)" d="M 230.948587 314.881159 
L 233.694705 314.881159 
L 233.694705 137.949949 
L 230.948587 137.949949 
z
" style="fill:#1f77b4;"/>
   </g>
   <g id="patch_17">
    <path clip-path="url(#p5b5c35cb10)" d="M 244.679177 314.881159 
L 247.425295 314.881159 
L 247.425295 27.680055 
L 244.679177 27.680055 
z
" style="fill:#1f77b4;"/>
   </g>
   <g id="patch_18">
    <path clip-path="url(#p5b5c35cb10)" d="M 258.409768 314.881159 
L 261.155886 314.881159 
L 261.155886 98.411395 
L 258.409768 98.411395 
z
" style="fill:#1f77b4;"/>
   </g>
   <g id="patch_19">
    <path clip-path="url(#p5b5c35cb10)" d="M 272.140358 314.881159 
L 274.886476 314.881159 
L 274.886476 119.580041 
L 272.140358 119.580041 
z
" style="fill:#1f77b4;"/>
   </g>
   <g id="patch_20">
    <path clip-path="url(#p5b5c35cb10)" d="M 285.870949 314.881159 
L 288.617067 314.881159 
L 288.617067 92.082152 
L 285.870949 92.082152 
z
" style="fill:#1f77b4;"/>
   </g>
   <g id="patch_21">
    <path clip-path="url(#p5b5c35cb10)" d="M 299.601539 314.881159 
L 302.347658 314.881159 
L 302.347658 44.254273 
L 299.601539 44.254273 
z
" style="fill:#1f77b4;"/>
   </g>
   <g id="patch_22">
    <path clip-path="url(#p5b5c35cb10)" d="M 313.33213 314.881159 
L 316.078248 314.881159 
L 316.078248 111.108361 
L 313.33213 111.108361 
z
" style="fill:#1f77b4;"/>
   </g>
   <g id="patch_23">
    <path clip-path="url(#p5b5c35cb10)" d="M 327.062721 314.881159 
L 329.808839 314.881159 
L 329.808839 147.315367 
L 327.062721 147.315367 
z
" style="fill:#1f77b4;"/>
   </g>
   <g id="patch_24">
    <path clip-path="url(#p5b5c35cb10)" d="M 340.793311 314.881159 
L 343.539429 314.881159 
L 343.539429 97.06022 
L 340.793311 97.06022 
z
" style="fill:#1f77b4;"/>
   </g>
   <g id="patch_25">
    <path clip-path="url(#p5b5c35cb10)" d="M 354.523902 314.881159 
L 357.27002 314.881159 
L 357.27002 79.814457 
L 354.523902 79.814457 
z
" style="fill:#1f77b4;"/>
   </g>
   <g id="patch_26">
    <path clip-path="url(#p5b5c35cb10)" d="M 368.254492 314.881159 
L 371.00061 314.881159 
L 371.00061 187.721984 
L 368.254492 187.721984 
z
" style="fill:#1f77b4;"/>
   </g>
   <g id="patch_27">
    <path clip-path="url(#p5b5c35cb10)" d="M 381.985083 314.881159 
L 384.731201 314.881159 
L 384.731201 223.792326 
L 381.985083 223.792326 
z
" style="fill:#1f77b4;"/>
   </g>
   <g id="patch_28">
    <path clip-path="url(#p5b5c35cb10)" d="M 395.715674 314.881159 
L 398.461792 314.881159 
L 398.461792 50.537411 
L 395.715674 50.537411 
z
" style="fill:#1f77b4;"/>
   </g>
   <g id="patch_29">
    <path clip-path="url(#p5b5c35cb10)" d="M 409.446264 314.881159 
L 412.192382 314.881159 
L 412.192382 181.76294 
L 409.446264 181.76294 
z
" style="fill:#1f77b4;"/>
   </g>
   <g id="patch_30">
    <path clip-path="url(#p5b5c35cb10)" d="M 423.176855 314.881159 
L 425.922973 314.881159 
L 425.922973 139.471287 
L 423.176855 139.471287 
z
" style="fill:#1f77b4;"/>
   </g>
   <g id="patch_31">
    <path clip-path="url(#p5b5c35cb10)" d="M 55.197027 314.881159 
L 57.943145 314.881159 
L 57.943145 82.55287 
L 55.197027 82.55287 
z
" style="fill:#ff7f0e;"/>
   </g>
   <g id="patch_32">
    <path clip-path="url(#p5b5c35cb10)" d="M 68.927618 314.881159 
L 71.673736 314.881159 
L 71.673736 82.55287 
L 68.927618 82.55287 
z
" style="fill:#ff7f0e;"/>
   </g>
   <g id="patch_33">
    <path clip-path="url(#p5b5c35cb10)" d="M 82.658208 314.881159 
L 85.404326 314.881159 
L 85.404326 82.55287 
L 82.658208 82.55287 
z
" style="fill:#ff7f0e;"/>
   </g>
   <g id="patch_34">
    <path clip-path="url(#p5b5c35cb10)" d="M 96.388799 314.881159 
L 99.134917 314.881159 
L 99.134917 123.37882 
L 96.388799 123.37882 
z
" style="fill:#ff7f0e;"/>
   </g>
   <g id="patch_35">
    <path clip-path="url(#p5b5c35cb10)" d="M 110.11939 314.881159 
L 112.865508 314.881159 
L 112.865508 147.112192 
L 110.11939 147.112192 
z
" style="fill:#ff7f0e;"/>
   </g>
   <g id="patch_36">
    <path clip-path="url(#p5b5c35cb10)" d="M 123.84998 314.881159 
L 126.596098 314.881159 
L 126.596098 83.684119 
L 123.84998 83.684119 
z
" style="fill:#ff7f0e;"/>
   </g>
   <g id="patch_37">
    <path clip-path="url(#p5b5c35cb10)" d="M 137.580571 314.881159 
L 140.326689 314.881159 
L 140.326689 204.28007 
L 137.580571 204.28007 
z
" style="fill:#ff7f0e;"/>
   </g>
   <g id="patch_38">
    <path clip-path="url(#p5b5c35cb10)" d="M 151.311161 314.881159 
L 154.057279 314.881159 
L 154.057279 165.327603 
L 151.311161 165.327603 
z
" style="fill:#ff7f0e;"/>
   </g>
   <g id="patch_39">
    <path clip-path="url(#p5b5c35cb10)" d="M 165.041752 314.881159 
L 167.78787 314.881159 
L 167.78787 163.517079 
L 165.041752 163.517079 
z
" style="fill:#ff7f0e;"/>
   </g>
   <g id="patch_40">
    <path clip-path="url(#p5b5c35cb10)" d="M 178.772342 314.881159 
L 181.518461 314.881159 
L 181.518461 52.094804 
L 178.772342 52.094804 
z
" style="fill:#ff7f0e;"/>
   </g>
   <g id="patch_41">
    <path clip-path="url(#p5b5c35cb10)" d="M 192.502933 314.881159 
L 195.249051 314.881159 
L 195.249051 181.261516 
L 192.502933 181.261516 
z
" style="fill:#ff7f0e;"/>
   </g>
   <g id="patch_42">
    <path clip-path="url(#p5b5c35cb10)" d="M 206.233524 314.881159 
L 208.979642 314.881159 
L 208.979642 184.822961 
L 206.233524 184.822961 
z
" style="fill:#ff7f0e;"/>
   </g>
   <g id="patch_43">
    <path clip-path="url(#p5b5c35cb10)" d="M 219.964114 314.881159 
L 222.710232 314.881159 
L 222.710232 35.242087 
L 219.964114 35.242087 
z
" style="fill:#ff7f0e;"/>
   </g>
   <g id="patch_44">
    <path clip-path="url(#p5b5c35cb10)" d="M 233.694705 314.881159 
L 236.440823 314.881159 
L 236.440823 143.079274 
L 233.694705 143.079274 
z
" style="fill:#ff7f0e;"/>
   </g>
   <g id="patch_45">
    <path clip-path="url(#p5b5c35cb10)" d="M 247.425295 314.881159 
L 250.171413 314.881159 
L 250.171413 27.680055 
L 247.425295 27.680055 
z
" style="fill:#ff7f0e;"/>
   </g>
   <g id="patch_46">
    <path clip-path="url(#p5b5c35cb10)" d="M 261.155886 314.881159 
L 263.902004 314.881159 
L 263.902004 72.032005 
L 261.155886 72.032005 
z
" style="fill:#ff7f0e;"/>
   </g>
   <g id="patch_47">
    <path clip-path="url(#p5b5c35cb10)" d="M 274.886476 314.881159 
L 277.632595 314.881159 
L 277.632595 220.608659 
L 274.886476 220.608659 
z
" style="fill:#ff7f0e;"/>
   </g>
   <g id="patch_48">
    <path clip-path="url(#p5b5c35cb10)" d="M 288.617067 314.881159 
L 291.363185 314.881159 
L 291.363185 181.195221 
L 288.617067 181.195221 
z
" style="fill:#ff7f0e;"/>
   </g>
   <g id="patch_49">
    <path clip-path="url(#p5b5c35cb10)" d="M 302.347658 314.881159 
L 305.093776 314.881159 
L 305.093776 41.68961 
L 302.347658 41.68961 
z
" style="fill:#ff7f0e;"/>
   </g>
   <g id="patch_50">
    <path clip-path="url(#p5b5c35cb10)" d="M 316.078248 314.881159 
L 318.824366 314.881159 
L 318.824366 111.108361 
L 316.078248 111.108361 
z
" style="fill:#ff7f0e;"/>
   </g>
   <g id="patch_51">
    <path clip-path="url(#p5b5c35cb10)" d="M 329.808839 314.881159 
L 332.554957 314.881159 
L 332.554957 154.451404 
L 329.808839 154.451404 
z
" style="fill:#ff7f0e;"/>
   </g>
   <g id="patch_52">
    <path clip-path="url(#p5b5c35cb10)" d="M 343.539429 314.881159 
L 346.285547 314.881159 
L 346.285547 166.20034 
L 343.539429 166.20034 
z
" style="fill:#ff7f0e;"/>
   </g>
   <g id="patch_53">
    <path clip-path="url(#p5b5c35cb10)" d="M 357.27002 314.881159 
L 360.016138 314.881159 
L 360.016138 62.586553 
L 357.27002 62.586553 
z
" style="fill:#ff7f0e;"/>
   </g>
   <g id="patch_54">
    <path clip-path="url(#p5b5c35cb10)" d="M 371.00061 314.881159 
L 373.746729 314.881159 
L 373.746729 173.902982 
L 371.00061 173.902982 
z
" style="fill:#ff7f0e;"/>
   </g>
   <g id="patch_55">
    <path clip-path="url(#p5b5c35cb10)" d="M 384.731201 314.881159 
L 387.477319 314.881159 
L 387.477319 139.11848 
L 384.731201 139.11848 
z
" style="fill:#ff7f0e;"/>
   </g>
   <g id="patch_56">
    <path clip-path="url(#p5b5c35cb10)" d="M 398.461792 314.881159 
L 401.20791 314.881159 
L 401.20791 52.800349 
L 398.461792 52.800349 
z
" style="fill:#ff7f0e;"/>
   </g>
   <g id="patch_57">
    <path clip-path="url(#p5b5c35cb10)" d="M 412.192382 314.881159 
L 414.9385 314.881159 
L 414.9385 279.098005 
L 412.192382 279.098005 
z
" style="fill:#ff7f0e;"/>
   </g>
   <g id="patch_58">
    <path clip-path="url(#p5b5c35cb10)" d="M 425.922973 314.881159 
L 428.669091 314.881159 
L 428.669091 207.289746 
L 425.922973 207.289746 
z
" style="fill:#ff7f0e;"/>
   </g>
   <g id="matplotlib.axis_1">
    <g id="xtick_1">
     <g id="line2d_1">
      <defs>
       <path d="M 0 0 
L 0 3.5 
" id="m771187e0d9" style="stroke:#000000;stroke-width:0.8;"/>
      </defs>
      <g>
       <use style="stroke:#000000;stroke-width:0.8;" x="55.197027" xlink:href="#m771187e0d9" y="314.881159"/>
      </g>
     </g>
     <g id="text_1">
      <text style="font-family:DejaVu Sans;font-size:6px;font-style:normal;font-weight:normal;" transform="translate(52.217235 333.405895)rotate(-45)">30A</text>
     </g>
    </g>
    <g id="xtick_2">
     <g id="line2d_2">
      <g>
       <use style="stroke:#000000;stroke-width:0.8;" x="68.927618" xlink:href="#m771187e0d9" y="314.881159"/>
      </g>
     </g>
     <g id="text_2">
      <text style="font-family:DejaVu Sans;font-size:6px;font-style:normal;font-weight:normal;" transform="translate(65.947826 333.405895)rotate(-45)">31A</text>
     </g>
    </g>
    <g id="xtick_3">
     <g id="line2d_3">
      <g>
       <use style="stroke:#000000;stroke-width:0.8;" x="82.658208" xlink:href="#m771187e0d9" y="314.881159"/>
      </g>
     </g>
     <g id="text_3">
      <text style="font-family:DejaVu Sans;font-size:6px;font-style:normal;font-weight:normal;" transform="translate(79.678416 333.405895)rotate(-45)">32A</text>
     </g>
    </g>
    <g id="xtick_4">
     <g id="line2d_4">
      <g>
       <use style="stroke:#000000;stroke-width:0.8;" x="96.388799" xlink:href="#m771187e0d9" y="314.881159"/>
      </g>
     </g>
     <g id="text_4">
      <text style="font-family:DejaVu Sans;font-size:6px;font-style:normal;font-weight:normal;" transform="translate(93.409007 333.405895)rotate(-45)">33A</text>
     </g>
    </g>
    <g id="xtick_5">
     <g id="line2d_5">
      <g>
       <use style="stroke:#000000;stroke-width:0.8;" x="110.11939" xlink:href="#m771187e0d9" y="314.881159"/>
      </g>
     </g>
     <g id="text_5">
      <text style="font-family:DejaVu Sans;font-size:6px;font-style:normal;font-weight:normal;" transform="translate(107.139597 333.405895)rotate(-45)">34A</text>
     </g>
    </g>
    <g id="xtick_6">
     <g id="line2d_6">
      <g>
       <use style="stroke:#000000;stroke-width:0.8;" x="123.84998" xlink:href="#m771187e0d9" y="314.881159"/>
      </g>
     </g>
     <g id="text_6">
      <text style="font-family:DejaVu Sans;font-size:6px;font-style:normal;font-weight:normal;" transform="translate(120.870188 333.405895)rotate(-45)">35A</text>
     </g>
    </g>
    <g id="xtick_7">
     <g id="line2d_7">
      <g>
       <use style="stroke:#000000;stroke-width:0.8;" x="137.580571" xlink:href="#m771187e0d9" y="314.881159"/>
      </g>
     </g>
     <g id="text_7">
      <text style="font-family:DejaVu Sans;font-size:6px;font-style:normal;font-weight:normal;" transform="translate(134.600779 333.405895)rotate(-45)">36A</text>
     </g>
    </g>
    <g id="xtick_8">
     <g id="line2d_8">
      <g>
       <use style="stroke:#000000;stroke-width:0.8;" x="151.311161" xlink:href="#m771187e0d9" y="314.881159"/>
      </g>
     </g>
     <g id="text_8">
      <text style="font-family:DejaVu Sans;font-size:6px;font-style:normal;font-weight:normal;" transform="translate(148.331369 333.405895)rotate(-45)">37A</text>
     </g>
    </g>
    <g id="xtick_9">
     <g id="line2d_9">
      <g>
       <use style="stroke:#000000;stroke-width:0.8;" x="165.041752" xlink:href="#m771187e0d9" y="314.881159"/>
      </g>
     </g>
     <g id="text_9">
      <text style="font-family:DejaVu Sans;font-size:6px;font-style:normal;font-weight:normal;" transform="translate(162.06196 333.405895)rotate(-45)">38A</text>
     </g>
    </g>
    <g id="xtick_10">
     <g id="line2d_10">
      <g>
       <use style="stroke:#000000;stroke-width:0.8;" x="178.772342" xlink:href="#m771187e0d9" y="314.881159"/>
      </g>
     </g>
     <g id="text_10">
      <text style="font-family:DejaVu Sans;font-size:6px;font-style:normal;font-weight:normal;" transform="translate(175.79255 333.405895)rotate(-45)">39A</text>
     </g>
    </g>
    <g id="xtick_11">
     <g id="line2d_11">
      <g>
       <use style="stroke:#000000;stroke-width:0.8;" x="192.502933" xlink:href="#m771187e0d9" y="314.881159"/>
      </g>
     </g>
     <g id="text_11">
      <text style="font-family:DejaVu Sans;font-size:6px;font-style:normal;font-weight:normal;" transform="translate(189.523141 333.405895)rotate(-45)">40A</text>
     </g>
    </g>
    <g id="xtick_12">
     <g id="line2d_12">
      <g>
       <use style="stroke:#000000;stroke-width:0.8;" x="206.233524" xlink:href="#m771187e0d9" y="314.881159"/>
      </g>
     </g>
     <g id="text_12">
      <text style="font-family:DejaVu Sans;font-size:6px;font-style:normal;font-weight:normal;" transform="translate(203.253731 333.405895)rotate(-45)">41A</text>
     </g>
    </g>
    <g id="xtick_13">
     <g id="line2d_13">
      <g>
       <use style="stroke:#000000;stroke-width:0.8;" x="219.964114" xlink:href="#m771187e0d9" y="314.881159"/>
      </g>
     </g>
     <g id="text_13">
      <text style="font-family:DejaVu Sans;font-size:6px;font-style:normal;font-weight:normal;" transform="translate(216.984322 333.405895)rotate(-45)">42A</text>
     </g>
    </g>
    <g id="xtick_14">
     <g id="line2d_14">
      <g>
       <use style="stroke:#000000;stroke-width:0.8;" x="233.694705" xlink:href="#m771187e0d9" y="314.881159"/>
      </g>
     </g>
     <g id="text_14">
      <text style="font-family:DejaVu Sans;font-size:6px;font-style:normal;font-weight:normal;" transform="translate(230.714913 333.405895)rotate(-45)">43A</text>
     </g>
    </g>
    <g id="xtick_15">
     <g id="line2d_15">
      <g>
       <use style="stroke:#000000;stroke-width:0.8;" x="247.425295" xlink:href="#m771187e0d9" y="314.881159"/>
      </g>
     </g>
     <g id="text_15">
      <text style="font-family:DejaVu Sans;font-size:6px;font-style:normal;font-weight:normal;" transform="translate(244.445503 333.405895)rotate(-45)">44A</text>
     </g>
    </g>
    <g id="xtick_16">
     <g id="line2d_16">
      <g>
       <use style="stroke:#000000;stroke-width:0.8;" x="261.155886" xlink:href="#m771187e0d9" y="314.881159"/>
      </g>
     </g>
     <g id="text_16">
      <text style="font-family:DejaVu Sans;font-size:6px;font-style:normal;font-weight:normal;" transform="translate(258.176094 333.405895)rotate(-45)">45A</text>
     </g>
    </g>
    <g id="xtick_17">
     <g id="line2d_17">
      <g>
       <use style="stroke:#000000;stroke-width:0.8;" x="274.886476" xlink:href="#m771187e0d9" y="314.881159"/>
      </g>
     </g>
     <g id="text_17">
      <text style="font-family:DejaVu Sans;font-size:6px;font-style:normal;font-weight:normal;" transform="translate(271.906684 333.405895)rotate(-45)">46A</text>
     </g>
    </g>
    <g id="xtick_18">
     <g id="line2d_18">
      <g>
       <use style="stroke:#000000;stroke-width:0.8;" x="288.617067" xlink:href="#m771187e0d9" y="314.881159"/>
      </g>
     </g>
     <g id="text_18">
      <text style="font-family:DejaVu Sans;font-size:6px;font-style:normal;font-weight:normal;" transform="translate(285.637275 333.405895)rotate(-45)">47A</text>
     </g>
    </g>
    <g id="xtick_19">
     <g id="line2d_19">
      <g>
       <use style="stroke:#000000;stroke-width:0.8;" x="302.347658" xlink:href="#m771187e0d9" y="314.881159"/>
      </g>
     </g>
     <g id="text_19">
      <text style="font-family:DejaVu Sans;font-size:6px;font-style:normal;font-weight:normal;" transform="translate(299.367865 333.405895)rotate(-45)">48A</text>
     </g>
    </g>
    <g id="xtick_20">
     <g id="line2d_20">
      <g>
       <use style="stroke:#000000;stroke-width:0.8;" x="316.078248" xlink:href="#m771187e0d9" y="314.881159"/>
      </g>
     </g>
     <g id="text_20">
      <text style="font-family:DejaVu Sans;font-size:6px;font-style:normal;font-weight:normal;" transform="translate(313.098456 333.405895)rotate(-45)">49A</text>
     </g>
    </g>
    <g id="xtick_21">
     <g id="line2d_21">
      <g>
       <use style="stroke:#000000;stroke-width:0.8;" x="329.808839" xlink:href="#m771187e0d9" y="314.881159"/>
      </g>
     </g>
     <g id="text_21">
      <text style="font-family:DejaVu Sans;font-size:6px;font-style:normal;font-weight:normal;" transform="translate(326.829047 333.405895)rotate(-45)">50A</text>
     </g>
    </g>
    <g id="xtick_22">
     <g id="line2d_22">
      <g>
       <use style="stroke:#000000;stroke-width:0.8;" x="343.539429" xlink:href="#m771187e0d9" y="314.881159"/>
      </g>
     </g>
     <g id="text_22">
      <text style="font-family:DejaVu Sans;font-size:6px;font-style:normal;font-weight:normal;" transform="translate(340.559637 333.405895)rotate(-45)">51A</text>
     </g>
    </g>
    <g id="xtick_23">
     <g id="line2d_23">
      <g>
       <use style="stroke:#000000;stroke-width:0.8;" x="357.27002" xlink:href="#m771187e0d9" y="314.881159"/>
      </g>
     </g>
     <g id="text_23">
      <text style="font-family:DejaVu Sans;font-size:6px;font-style:normal;font-weight:normal;" transform="translate(354.290228 333.405895)rotate(-45)">52A</text>
     </g>
    </g>
    <g id="xtick_24">
     <g id="line2d_24">
      <g>
       <use style="stroke:#000000;stroke-width:0.8;" x="371.00061" xlink:href="#m771187e0d9" y="314.881159"/>
      </g>
     </g>
     <g id="text_24">
      <text style="font-family:DejaVu Sans;font-size:6px;font-style:normal;font-weight:normal;" transform="translate(368.020818 333.405895)rotate(-45)">53A</text>
     </g>
    </g>
    <g id="xtick_25">
     <g id="line2d_25">
      <g>
       <use style="stroke:#000000;stroke-width:0.8;" x="384.731201" xlink:href="#m771187e0d9" y="314.881159"/>
      </g>
     </g>
     <g id="text_25">
      <text style="font-family:DejaVu Sans;font-size:6px;font-style:normal;font-weight:normal;" transform="translate(381.751409 333.405895)rotate(-45)">54A</text>
     </g>
    </g>
    <g id="xtick_26">
     <g id="line2d_26">
      <g>
       <use style="stroke:#000000;stroke-width:0.8;" x="398.461792" xlink:href="#m771187e0d9" y="314.881159"/>
      </g>
     </g>
     <g id="text_26">
      <text style="font-family:DejaVu Sans;font-size:6px;font-style:normal;font-weight:normal;" transform="translate(395.481999 333.405895)rotate(-45)">55A</text>
     </g>
    </g>
    <g id="xtick_27">
     <g id="line2d_27">
      <g>
       <use style="stroke:#000000;stroke-width:0.8;" x="412.192382" xlink:href="#m771187e0d9" y="314.881159"/>
      </g>
     </g>
     <g id="text_27">
      <text style="font-family:DejaVu Sans;font-size:6px;font-style:normal;font-weight:normal;" transform="translate(409.21259 333.405895)rotate(-45)">56A</text>
     </g>
    </g>
    <g id="xtick_28">
     <g id="line2d_28">
      <g>
       <use style="stroke:#000000;stroke-width:0.8;" x="425.922973" xlink:href="#m771187e0d9" y="314.881159"/>
      </g>
     </g>
     <g id="text_28">
      <text style="font-family:DejaVu Sans;font-size:6px;font-style:normal;font-weight:normal;" transform="translate(422.943181 333.405895)rotate(-45)">57A</text>
     </g>
    </g>
   </g>
   <g id="matplotlib.axis_2">
    <g id="ytick_1">
     <g id="line2d_29">
      <defs>
       <path d="M 0 0 
L -3.5 0 
" id="mc215d86a26" style="stroke:#000000;stroke-width:0.8;"/>
      </defs>
      <g>
       <use style="stroke:#000000;stroke-width:0.8;" x="33.64" xlink:href="#mc215d86a26" y="314.881159"/>
      </g>
     </g>
     <g id="text_29">
      <text style="font-family:DejaVu Sans;font-size:10px;font-style:normal;font-weight:normal;text-anchor:end;" transform="rotate(-0, 26.64, 318.680378)" x="26.64" y="318.680378">0.0</text>
     </g>
    </g>
    <g id="ytick_2">
     <g id="line2d_30">
      <g>
       <use style="stroke:#000000;stroke-width:0.8;" x="33.64" xlink:href="#mc215d86a26" y="276.411215"/>
      </g>
     </g>
     <g id="text_30">
      <text style="font-family:DejaVu Sans;font-size:10px;font-style:normal;font-weight:normal;text-anchor:end;" transform="rotate(-0, 26.64, 280.210434)" x="26.64" y="280.210434">0.1</text>
     </g>
    </g>
    <g id="ytick_3">
     <g id="line2d_31">
      <g>
       <use style="stroke:#000000;stroke-width:0.8;" x="33.64" xlink:href="#mc215d86a26" y="237.941271"/>
      </g>
     </g>
     <g id="text_31">
      <text style="font-family:DejaVu Sans;font-size:10px;font-style:normal;font-weight:normal;text-anchor:end;" transform="rotate(-0, 26.64, 241.74049)" x="26.64" y="241.74049">0.2</text>
     </g>
    </g>
    <g id="ytick_4">
     <g id="line2d_32">
      <g>
       <use style="stroke:#000000;stroke-width:0.8;" x="33.64" xlink:href="#mc215d86a26" y="199.471327"/>
      </g>
     </g>
     <g id="text_32">
      <text style="font-family:DejaVu Sans;font-size:10px;font-style:normal;font-weight:normal;text-anchor:end;" transform="rotate(-0, 26.64, 203.270546)" x="26.64" y="203.270546">0.3</text>
     </g>
    </g>
    <g id="ytick_5">
     <g id="line2d_33">
      <g>
       <use style="stroke:#000000;stroke-width:0.8;" x="33.64" xlink:href="#mc215d86a26" y="161.001383"/>
      </g>
     </g>
     <g id="text_33">
      <text style="font-family:DejaVu Sans;font-size:10px;font-style:normal;font-weight:normal;text-anchor:end;" transform="rotate(-0, 26.64, 164.800602)" x="26.64" y="164.800602">0.4</text>
     </g>
    </g>
    <g id="ytick_6">
     <g id="line2d_34">
      <g>
       <use style="stroke:#000000;stroke-width:0.8;" x="33.64" xlink:href="#mc215d86a26" y="122.531439"/>
      </g>
     </g>
     <g id="text_34">
      <text style="font-family:DejaVu Sans;font-size:10px;font-style:normal;font-weight:normal;text-anchor:end;" transform="rotate(-0, 26.64, 126.330658)" x="26.64" y="126.330658">0.5</text>
     </g>
    </g>
    <g id="ytick_7">
     <g id="line2d_35">
      <g>
       <use style="stroke:#000000;stroke-width:0.8;" x="33.64" xlink:href="#mc215d86a26" y="84.061495"/>
      </g>
     </g>
     <g id="text_35">
      <text style="font-family:DejaVu Sans;font-size:10px;font-style:normal;font-weight:normal;text-anchor:end;" transform="rotate(-0, 26.64, 87.860714)" x="26.64" y="87.860714">0.6</text>
     </g>
    </g>
    <g id="ytick_8">
     <g id="line2d_36">
      <g>
       <use style="stroke:#000000;stroke-width:0.8;" x="33.64" xlink:href="#mc215d86a26" y="45.591551"/>
      </g>
     </g>
     <g id="text_36">
      <text style="font-family:DejaVu Sans;font-size:10px;font-style:normal;font-weight:normal;text-anchor:end;" transform="rotate(-0, 26.64, 49.39077)" x="26.64" y="49.39077">0.7</text>
     </g>
    </g>
   </g>
   <g id="patch_59">
    <path d="M 33.64 314.881159 
L 33.64 13.32 
" style="fill:none;stroke:#000000;stroke-linecap:square;stroke-linejoin:miter;stroke-width:0.8;"/>
   </g>
   <g id="patch_60">
    <path d="M 447.48 314.881159 
L 447.48 13.32 
" style="fill:none;stroke:#000000;stroke-linecap:square;stroke-linejoin:miter;stroke-width:0.8;"/>
   </g>
   <g id="patch_61">
    <path d="M 33.64 314.881159 
L 447.48 314.881159 
" style="fill:none;stroke:#000000;stroke-linecap:square;stroke-linejoin:miter;stroke-width:0.8;"/>
   </g>
   <g id="patch_62">
    <path d="M 33.64 13.32 
L 447.48 13.32 
" style="fill:none;stroke:#000000;stroke-linecap:square;stroke-linejoin:miter;stroke-width:0.8;"/>
   </g>
   <g id="legend_1">
    <g id="patch_63">
     <path d="M 40.64 50.67625 
L 106.075937 50.67625 
Q 108.075937 50.67625 108.075937 48.67625 
L 108.075937 20.32 
Q 108.075937 18.32 106.075937 18.32 
L 40.64 18.32 
Q 38.64 18.32 38.64 20.32 
L 38.64 48.67625 
Q 38.64 50.67625 40.64 50.67625 
z
" style="fill:#ffffff;opacity:0.8;stroke:#cccccc;stroke-linejoin:miter;"/>
    </g>
    <g id="patch_64">
     <path d="M 42.64 29.918437 
L 62.64 29.918437 
L 62.64 22.918437 
L 42.64 22.918437 
z
" style="fill:#1f77b4;"/>
    </g>
    <g id="text_37">
     <text style="font-family:DejaVu Sans;font-size:10px;font-style:normal;font-weight:normal;text-anchor:start;" transform="rotate(-0, 70.64, 29.918437)" x="70.64" y="29.918437">Scores</text>
    </g>
    <g id="patch_65">
     <path d="M 42.64 44.596563 
L 62.64 44.596563 
L 62.64 37.596563 
L 42.64 37.596563 
z
" style="fill:#ff7f0e;"/>
    </g>
    <g id="text_38">
     <text style="font-family:DejaVu Sans;font-size:10px;font-style:normal;font-weight:normal;text-anchor:start;" transform="rotate(-0, 70.64, 44.596563)" x="70.64" y="44.596563">Bases</text>
    </g>
   </g>
  </g>
 </g>
 <defs>
  <clipPath id="p5b5c35cb10">
   <rect height="301.561159" width="413.84" x="33.64" y="13.32"/>
  </clipPath>
 </defs>
</svg>
