<?xml version="1.0" encoding="utf-8" standalone="no"?>
<!DOCTYPE svg PUBLIC "-//W3C//DTD SVG 1.1//EN"
  "http://www.w3.org/Graphics/SVG/1.1/DTD/svg11.dtd">
<!-- Created with matplotlib (http://matplotlib.org/) -->
<svg height="345.6pt" version="1.1" viewBox="0 0 460.8 345.6" width="460.8pt" xmlns="http://www.w3.org/2000/svg" xmlns:xlink="http://www.w3.org/1999/xlink">
 <defs>
  <style type="text/css">
*{stroke-linecap:butt;stroke-linejoin:round;}
  </style>
 </defs>
 <g id="figure_1">
  <g id="patch_1">
   <path d="M 0 345.6 
L 460.8 345.6 
L 460.8 0 
L 0 0 
z
" style="fill:#ffffff;"/>
  </g>
  <g id="axes_1">
   <g id="patch_2">
    <path d="M 57.6 307.584 
L 414.72 307.584 
L 414.72 41.472 
L 57.6 41.472 
z
" style="fill:#ffffff;"/>
   </g>
   <g id="patch_3">
    <path clip-path="url(#pf703f4465f)" d="M 73.832727 307.584 
L 76.202468 307.584 
L 76.202468 106.560248 
L 73.832727 106.560248 
z
" style="fill:#1f77b4;"/>
   </g>
   <g id="patch_4">
    <path clip-path="url(#pf703f4465f)" d="M 85.681433 307.584 
L 88.051175 307.584 
L 88.051175 155.977794 
L 85.681433 155.977794 
z
" style="fill:#1f77b4;"/>
   </g>
   <g id="patch_5">
    <path clip-path="url(#pf703f4465f)" d="M 97.530139 307.584 
L 99.899881 307.584 
L 99.899881 188.38838 
L 97.530139 188.38838 
z
" style="fill:#1f77b4;"/>
   </g>
   <g id="patch_6">
    <path clip-path="url(#pf703f4465f)" d="M 109.378845 307.584 
L 111.748587 307.584 
L 111.748587 60.817099 
L 109.378845 60.817099 
z
" style="fill:#1f77b4;"/>
   </g>
   <g id="patch_7">
    <path clip-path="url(#pf703f4465f)" d="M 121.227551 307.584 
L 123.597293 307.584 
L 123.597293 248.17549 
L 121.227551 248.17549 
z
" style="fill:#1f77b4;"/>
   </g>
   <g id="patch_8">
    <path clip-path="url(#pf703f4465f)" d="M 133.076257 307.584 
L 135.445999 307.584 
L 135.445999 66.506702 
L 133.076257 66.506702 
z
" style="fill:#1f77b4;"/>
   </g>
   <g id="patch_9">
    <path clip-path="url(#pf703f4465f)" d="M 144.924964 307.584 
L 147.294705 307.584 
L 147.294705 126.098412 
L 144.924964 126.098412 
z
" style="fill:#1f77b4;"/>
   </g>
   <g id="patch_10">
    <path clip-path="url(#pf703f4465f)" d="M 156.77367 307.584 
L 159.143411 307.584 
L 159.143411 121.67982 
L 156.77367 121.67982 
z
" style="fill:#1f77b4;"/>
   </g>
   <g id="patch_11">
    <path clip-path="url(#pf703f4465f)" d="M 168.622376 307.584 
L 170.992117 307.584 
L 170.992117 152.510385 
L 168.622376 152.510385 
z
" style="fill:#1f77b4;"/>
   </g>
   <g id="patch_12">
    <path clip-path="url(#pf703f4465f)" d="M 180.471082 307.584 
L 182.840823 307.584 
L 182.840823 194.946769 
L 180.471082 194.946769 
z
" style="fill:#1f77b4;"/>
   </g>
   <g id="patch_13">
    <path clip-path="url(#pf703f4465f)" d="M 192.319788 307.584 
L 194.689529 307.584 
L 194.689529 102.566398 
L 192.319788 102.566398 
z
" style="fill:#1f77b4;"/>
   </g>
   <g id="patch_14">
    <path clip-path="url(#pf703f4465f)" d="M 204.168494 307.584 
L 206.538235 307.584 
L 206.538235 95.640455 
L 204.168494 95.640455 
z
" style="fill:#1f77b4;"/>
   </g>
   <g id="patch_15">
    <path clip-path="url(#pf703f4465f)" d="M 216.0172 307.584 
L 218.386941 307.584 
L 218.386941 72.3175 
L 216.0172 72.3175 
z
" style="fill:#1f77b4;"/>
   </g>
   <g id="patch_16">
    <path clip-path="url(#pf703f4465f)" d="M 227.865906 307.584 
L 230.235647 307.584 
L 230.235647 162.563196 
L 227.865906 162.563196 
z
" style="fill:#1f77b4;"/>
   </g>
   <g id="patch_17">
    <path clip-path="url(#pf703f4465f)" d="M 239.714612 307.584 
L 242.084353 307.584 
L 242.084353 70.839068 
L 239.714612 70.839068 
z
" style="fill:#1f77b4;"/>
   </g>
   <g id="patch_18">
    <path clip-path="url(#pf703f4465f)" d="M 251.563318 307.584 
L 253.933059 307.584 
L 253.933059 171.404527 
L 251.563318 171.404527 
z
" style="fill:#1f77b4;"/>
   </g>
   <g id="patch_19">
    <path clip-path="url(#pf703f4465f)" d="M 263.412024 307.584 
L 265.781765 307.584 
L 265.781765 129.650535 
L 263.412024 129.650535 
z
" style="fill:#1f77b4;"/>
   </g>
   <g id="patch_20">
    <path clip-path="url(#pf703f4465f)" d="M 275.26073 307.584 
L 277.630471 307.584 
L 277.630471 54.144 
L 275.26073 54.144 
z
" style="fill:#1f77b4;"/>
   </g>
   <g id="patch_21">
    <path clip-path="url(#pf703f4465f)" d="M 287.109436 307.584 
L 289.479177 307.584 
L 289.479177 102.344518 
L 287.109436 102.344518 
z
" style="fill:#1f77b4;"/>
   </g>
   <g id="patch_22">
    <path clip-path="url(#pf703f4465f)" d="M 298.958142 307.584 
L 301.327883 307.584 
L 301.327883 201.987298 
L 298.958142 201.987298 
z
" style="fill:#1f77b4;"/>
   </g>
   <g id="patch_23">
    <path clip-path="url(#pf703f4465f)" d="M 310.806848 307.584 
L 313.176589 307.584 
L 313.176589 240.358697 
L 310.806848 240.358697 
z
" style="fill:#1f77b4;"/>
   </g>
   <g id="patch_24">
    <path clip-path="url(#pf703f4465f)" d="M 322.655554 307.584 
L 325.025295 307.584 
L 325.025295 103.564667 
L 322.655554 103.564667 
z
" style="fill:#1f77b4;"/>
   </g>
   <g id="patch_25">
    <path clip-path="url(#pf703f4465f)" d="M 334.50426 307.584 
L 336.874001 307.584 
L 336.874001 127.76513 
L 334.50426 127.76513 
z
" style="fill:#1f77b4;"/>
   </g>
   <g id="patch_26">
    <path clip-path="url(#pf703f4465f)" d="M 346.352966 307.584 
L 348.722707 307.584 
L 348.722707 150.016576 
L 346.352966 150.016576 
z
" style="fill:#1f77b4;"/>
   </g>
   <g id="patch_27">
    <path clip-path="url(#pf703f4465f)" d="M 358.201672 307.584 
L 360.571413 307.584 
L 360.571413 196.968077 
L 358.201672 196.968077 
z
" style="fill:#1f77b4;"/>
   </g>
   <g id="patch_28">
    <path clip-path="url(#pf703f4465f)" d="M 370.050378 307.584 
L 372.420119 307.584 
L 372.420119 151.90393 
L 370.050378 151.90393 
z
" style="fill:#1f77b4;"/>
   </g>
   <g id="patch_29">
    <path clip-path="url(#pf703f4465f)" d="M 381.899084 307.584 
L 384.268825 307.584 
L 384.268825 124.630887 
L 381.899084 124.630887 
z
" style="fill:#1f77b4;"/>
   </g>
   <g id="patch_30">
    <path clip-path="url(#pf703f4465f)" d="M 393.74779 307.584 
L 396.117532 307.584 
L 396.117532 148.850193 
L 393.74779 148.850193 
z
" style="fill:#1f77b4;"/>
   </g>
   <g id="patch_31">
    <path clip-path="url(#pf703f4465f)" d="M 76.202468 307.584 
L 78.57221 307.584 
L 78.57221 102.566398 
L 76.202468 102.566398 
z
" style="fill:#ff7f0e;"/>
   </g>
   <g id="patch_32">
    <path clip-path="url(#pf703f4465f)" d="M 88.051175 307.584 
L 90.420916 307.584 
L 90.420916 155.977794 
L 88.051175 155.977794 
z
" style="fill:#ff7f0e;"/>
   </g>
   <g id="patch_33">
    <path clip-path="url(#pf703f4465f)" d="M 99.899881 307.584 
L 102.269622 307.584 
L 102.269622 175.610785 
L 99.899881 175.610785 
z
" style="fill:#ff7f0e;"/>
   </g>
   <g id="patch_34">
    <path clip-path="url(#pf703f4465f)" d="M 111.748587 307.584 
L 114.118328 307.584 
L 114.118328 60.817099 
L 111.748587 60.817099 
z
" style="fill:#ff7f0e;"/>
   </g>
   <g id="patch_35">
    <path clip-path="url(#pf703f4465f)" d="M 123.597293 307.584 
L 125.967034 307.584 
L 125.967034 214.227771 
L 123.597293 214.227771 
z
" style="fill:#ff7f0e;"/>
   </g>
   <g id="patch_36">
    <path clip-path="url(#pf703f4465f)" d="M 135.445999 307.584 
L 137.81574 307.584 
L 137.81574 66.506702 
L 135.445999 66.506702 
z
" style="fill:#ff7f0e;"/>
   </g>
   <g id="patch_37">
    <path clip-path="url(#pf703f4465f)" d="M 147.294705 307.584 
L 149.664446 307.584 
L 149.664446 233.761181 
L 147.294705 233.761181 
z
" style="fill:#ff7f0e;"/>
   </g>
   <g id="patch_38">
    <path clip-path="url(#pf703f4465f)" d="M 159.143411 307.584 
L 161.513152 307.584 
L 161.513152 93.282283 
L 159.143411 93.282283 
z
" style="fill:#ff7f0e;"/>
   </g>
   <g id="patch_39">
    <path clip-path="url(#pf703f4465f)" d="M 170.992117 307.584 
L 173.361858 307.584 
L 173.361858 138.593171 
L 170.992117 138.593171 
z
" style="fill:#ff7f0e;"/>
   </g>
   <g id="patch_40">
    <path clip-path="url(#pf703f4465f)" d="M 182.840823 307.584 
L 185.210564 307.584 
L 185.210564 183.178109 
L 182.840823 183.178109 
z
" style="fill:#ff7f0e;"/>
   </g>
   <g id="patch_41">
    <path clip-path="url(#pf703f4465f)" d="M 194.689529 307.584 
L 197.05927 307.584 
L 197.05927 102.566398 
L 194.689529 102.566398 
z
" style="fill:#ff7f0e;"/>
   </g>
   <g id="patch_42">
    <path clip-path="url(#pf703f4465f)" d="M 206.538235 307.584 
L 208.907976 307.584 
L 208.907976 84.947165 
L 206.538235 84.947165 
z
" style="fill:#ff7f0e;"/>
   </g>
   <g id="patch_43">
    <path clip-path="url(#pf703f4465f)" d="M 218.386941 307.584 
L 220.756682 307.584 
L 220.756682 76.311349 
L 218.386941 76.311349 
z
" style="fill:#ff7f0e;"/>
   </g>
   <g id="patch_44">
    <path clip-path="url(#pf703f4465f)" d="M 230.235647 307.584 
L 232.605388 307.584 
L 232.605388 151.704278 
L 230.235647 151.704278 
z
" style="fill:#ff7f0e;"/>
   </g>
   <g id="patch_45">
    <path clip-path="url(#pf703f4465f)" d="M 242.084353 307.584 
L 244.454094 307.584 
L 244.454094 75.688743 
L 242.084353 75.688743 
z
" style="fill:#ff7f0e;"/>
   </g>
   <g id="patch_46">
    <path clip-path="url(#pf703f4465f)" d="M 253.933059 307.584 
L 256.3028 307.584 
L 256.3028 224.443032 
L 253.933059 224.443032 
z
" style="fill:#ff7f0e;"/>
   </g>
   <g id="patch_47">
    <path clip-path="url(#pf703f4465f)" d="M 265.781765 307.584 
L 268.151506 307.584 
L 268.151506 176.380929 
L 265.781765 176.380929 
z
" style="fill:#ff7f0e;"/>
   </g>
   <g id="patch_48">
    <path clip-path="url(#pf703f4465f)" d="M 277.630471 307.584 
L 280.000212 307.584 
L 280.000212 54.144 
L 277.630471 54.144 
z
" style="fill:#ff7f0e;"/>
   </g>
   <g id="patch_49">
    <path clip-path="url(#pf703f4465f)" d="M 289.479177 307.584 
L 291.848918 307.584 
L 291.848918 102.566398 
L 289.479177 102.566398 
z
" style="fill:#ff7f0e;"/>
   </g>
   <g id="patch_50">
    <path clip-path="url(#pf703f4465f)" d="M 301.327883 307.584 
L 303.697624 307.584 
L 303.697624 174.013091 
L 301.327883 174.013091 
z
" style="fill:#ff7f0e;"/>
   </g>
   <g id="patch_51">
    <path clip-path="url(#pf703f4465f)" d="M 313.176589 307.584 
L 315.54633 307.584 
L 315.54633 152.4826 
L 313.176589 152.4826 
z
" style="fill:#ff7f0e;"/>
   </g>
   <g id="patch_52">
    <path clip-path="url(#pf703f4465f)" d="M 325.025295 307.584 
L 327.395036 307.584 
L 327.395036 103.564667 
L 325.025295 103.564667 
z
" style="fill:#ff7f0e;"/>
   </g>
   <g id="patch_53">
    <path clip-path="url(#pf703f4465f)" d="M 336.874001 307.584 
L 339.243743 307.584 
L 339.243743 127.76513 
L 336.874001 127.76513 
z
" style="fill:#ff7f0e;"/>
   </g>
   <g id="patch_54">
    <path clip-path="url(#pf703f4465f)" d="M 348.722707 307.584 
L 351.092449 307.584 
L 351.092449 166.013105 
L 348.722707 166.013105 
z
" style="fill:#ff7f0e;"/>
   </g>
   <g id="patch_55">
    <path clip-path="url(#pf703f4465f)" d="M 360.571413 307.584 
L 362.941155 307.584 
L 362.941155 216.36332 
L 360.571413 216.36332 
z
" style="fill:#ff7f0e;"/>
   </g>
   <g id="patch_56">
    <path clip-path="url(#pf703f4465f)" d="M 372.420119 307.584 
L 374.789861 307.584 
L 374.789861 179.136716 
L 372.420119 179.136716 
z
" style="fill:#ff7f0e;"/>
   </g>
   <g id="patch_57">
    <path clip-path="url(#pf703f4465f)" d="M 384.268825 307.584 
L 386.638567 307.584 
L 386.638567 196.104233 
L 384.268825 196.104233 
z
" style="fill:#ff7f0e;"/>
   </g>
   <g id="patch_58">
    <path clip-path="url(#pf703f4465f)" d="M 396.117532 307.584 
L 398.487273 307.584 
L 398.487273 159.536634 
L 396.117532 159.536634 
z
" style="fill:#ff7f0e;"/>
   </g>
   <g id="matplotlib.axis_1">
    <g id="xtick_1">
     <g id="line2d_1">
      <defs>
       <path d="M 0 0 
L 0 3.5 
" id="m2b6c15ca7a" style="stroke:#000000;stroke-width:0.8;"/>
      </defs>
      <g>
       <use style="stroke:#000000;stroke-width:0.8;" x="76.202468" xlink:href="#m2b6c15ca7a" y="307.584"/>
      </g>
     </g>
     <g id="text_1">
      <text style="font-family:DejaVu Sans;font-size:6px;font-style:normal;font-weight:normal;" transform="translate(73.222676 326.108736)rotate(-45)">32A</text>
     </g>
    </g>
    <g id="xtick_2">
     <g id="line2d_2">
      <g>
       <use style="stroke:#000000;stroke-width:0.8;" x="88.051175" xlink:href="#m2b6c15ca7a" y="307.584"/>
      </g>
     </g>
     <g id="text_2">
      <text style="font-family:DejaVu Sans;font-size:6px;font-style:normal;font-weight:normal;" transform="translate(85.071382 326.108736)rotate(-45)">43A</text>
     </g>
    </g>
    <g id="xtick_3">
     <g id="line2d_3">
      <g>
       <use style="stroke:#000000;stroke-width:0.8;" x="99.899881" xlink:href="#m2b6c15ca7a" y="307.584"/>
      </g>
     </g>
     <g id="text_3">
      <text style="font-family:DejaVu Sans;font-size:6px;font-style:normal;font-weight:normal;" transform="translate(96.920088 326.108736)rotate(-45)">37A</text>
     </g>
    </g>
    <g id="xtick_4">
     <g id="line2d_4">
      <g>
       <use style="stroke:#000000;stroke-width:0.8;" x="111.748587" xlink:href="#m2b6c15ca7a" y="307.584"/>
      </g>
     </g>
     <g id="text_4">
      <text style="font-family:DejaVu Sans;font-size:6px;font-style:normal;font-weight:normal;" transform="translate(108.768794 326.108736)rotate(-45)">42A</text>
     </g>
    </g>
    <g id="xtick_5">
     <g id="line2d_5">
      <g>
       <use style="stroke:#000000;stroke-width:0.8;" x="123.597293" xlink:href="#m2b6c15ca7a" y="307.584"/>
      </g>
     </g>
     <g id="text_5">
      <text style="font-family:DejaVu Sans;font-size:6px;font-style:normal;font-weight:normal;" transform="translate(120.6175 326.108736)rotate(-45)">36A</text>
     </g>
    </g>
    <g id="xtick_6">
     <g id="line2d_6">
      <g>
       <use style="stroke:#000000;stroke-width:0.8;" x="135.445999" xlink:href="#m2b6c15ca7a" y="307.584"/>
      </g>
     </g>
     <g id="text_6">
      <text style="font-family:DejaVu Sans;font-size:6px;font-style:normal;font-weight:normal;" transform="translate(132.466207 326.108736)rotate(-45)">48A</text>
     </g>
    </g>
    <g id="xtick_7">
     <g id="line2d_7">
      <g>
       <use style="stroke:#000000;stroke-width:0.8;" x="147.294705" xlink:href="#m2b6c15ca7a" y="307.584"/>
      </g>
     </g>
     <g id="text_7">
      <text style="font-family:DejaVu Sans;font-size:6px;font-style:normal;font-weight:normal;" transform="translate(144.314913 326.108736)rotate(-45)">56A</text>
     </g>
    </g>
    <g id="xtick_8">
     <g id="line2d_8">
      <g>
       <use style="stroke:#000000;stroke-width:0.8;" x="159.143411" xlink:href="#m2b6c15ca7a" y="307.584"/>
      </g>
     </g>
     <g id="text_8">
      <text style="font-family:DejaVu Sans;font-size:6px;font-style:normal;font-weight:normal;" transform="translate(156.163619 326.108736)rotate(-45)">45A</text>
     </g>
    </g>
    <g id="xtick_9">
     <g id="line2d_9">
      <g>
       <use style="stroke:#000000;stroke-width:0.8;" x="170.992117" xlink:href="#m2b6c15ca7a" y="307.584"/>
      </g>
     </g>
     <g id="text_9">
      <text style="font-family:DejaVu Sans;font-size:6px;font-style:normal;font-weight:normal;" transform="translate(168.012325 326.108736)rotate(-45)">33A</text>
     </g>
    </g>
    <g id="xtick_10">
     <g id="line2d_10">
      <g>
       <use style="stroke:#000000;stroke-width:0.8;" x="182.840823" xlink:href="#m2b6c15ca7a" y="307.584"/>
      </g>
     </g>
     <g id="text_10">
      <text style="font-family:DejaVu Sans;font-size:6px;font-style:normal;font-weight:normal;" transform="translate(179.861031 326.108736)rotate(-45)">53A</text>
     </g>
    </g>
    <g id="xtick_11">
     <g id="line2d_11">
      <g>
       <use style="stroke:#000000;stroke-width:0.8;" x="194.689529" xlink:href="#m2b6c15ca7a" y="307.584"/>
      </g>
     </g>
     <g id="text_11">
      <text style="font-family:DejaVu Sans;font-size:6px;font-style:normal;font-weight:normal;" transform="translate(191.709737 326.108736)rotate(-45)">30A</text>
     </g>
    </g>
    <g id="xtick_12">
     <g id="line2d_12">
      <g>
       <use style="stroke:#000000;stroke-width:0.8;" x="206.538235" xlink:href="#m2b6c15ca7a" y="307.584"/>
      </g>
     </g>
     <g id="text_12">
      <text style="font-family:DejaVu Sans;font-size:6px;font-style:normal;font-weight:normal;" transform="translate(203.558443 326.108736)rotate(-45)">52A</text>
     </g>
    </g>
    <g id="xtick_13">
     <g id="line2d_13">
      <g>
       <use style="stroke:#000000;stroke-width:0.8;" x="218.386941" xlink:href="#m2b6c15ca7a" y="307.584"/>
      </g>
     </g>
     <g id="text_13">
      <text style="font-family:DejaVu Sans;font-size:6px;font-style:normal;font-weight:normal;" transform="translate(215.407149 326.108736)rotate(-45)">55A</text>
     </g>
    </g>
    <g id="xtick_14">
     <g id="line2d_14">
      <g>
       <use style="stroke:#000000;stroke-width:0.8;" x="230.235647" xlink:href="#m2b6c15ca7a" y="307.584"/>
      </g>
     </g>
     <g id="text_14">
      <text style="font-family:DejaVu Sans;font-size:6px;font-style:normal;font-weight:normal;" transform="translate(227.255855 326.108736)rotate(-45)">40A</text>
     </g>
    </g>
    <g id="xtick_15">
     <g id="line2d_15">
      <g>
       <use style="stroke:#000000;stroke-width:0.8;" x="242.084353" xlink:href="#m2b6c15ca7a" y="307.584"/>
      </g>
     </g>
     <g id="text_15">
      <text style="font-family:DejaVu Sans;font-size:6px;font-style:normal;font-weight:normal;" transform="translate(239.104561 326.108736)rotate(-45)">39A</text>
     </g>
    </g>
    <g id="xtick_16">
     <g id="line2d_16">
      <g>
       <use style="stroke:#000000;stroke-width:0.8;" x="253.933059" xlink:href="#m2b6c15ca7a" y="307.584"/>
      </g>
     </g>
     <g id="text_16">
      <text style="font-family:DejaVu Sans;font-size:6px;font-style:normal;font-weight:normal;" transform="translate(250.953267 326.108736)rotate(-45)">57A</text>
     </g>
    </g>
    <g id="xtick_17">
     <g id="line2d_17">
      <g>
       <use style="stroke:#000000;stroke-width:0.8;" x="265.781765" xlink:href="#m2b6c15ca7a" y="307.584"/>
      </g>
     </g>
     <g id="text_17">
      <text style="font-family:DejaVu Sans;font-size:6px;font-style:normal;font-weight:normal;" transform="translate(262.801973 326.108736)rotate(-45)">51A</text>
     </g>
    </g>
    <g id="xtick_18">
     <g id="line2d_18">
      <g>
       <use style="stroke:#000000;stroke-width:0.8;" x="277.630471" xlink:href="#m2b6c15ca7a" y="307.584"/>
      </g>
     </g>
     <g id="text_18">
      <text style="font-family:DejaVu Sans;font-size:6px;font-style:normal;font-weight:normal;" transform="translate(274.650679 326.108736)rotate(-45)">44A</text>
     </g>
    </g>
    <g id="xtick_19">
     <g id="line2d_19">
      <g>
       <use style="stroke:#000000;stroke-width:0.8;" x="289.479177" xlink:href="#m2b6c15ca7a" y="307.584"/>
      </g>
     </g>
     <g id="text_19">
      <text style="font-family:DejaVu Sans;font-size:6px;font-style:normal;font-weight:normal;" transform="translate(286.499385 326.108736)rotate(-45)">31A</text>
     </g>
    </g>
    <g id="xtick_20">
     <g id="line2d_20">
      <g>
       <use style="stroke:#000000;stroke-width:0.8;" x="301.327883" xlink:href="#m2b6c15ca7a" y="307.584"/>
      </g>
     </g>
     <g id="text_20">
      <text style="font-family:DejaVu Sans;font-size:6px;font-style:normal;font-weight:normal;" transform="translate(298.348091 326.108736)rotate(-45)">38A</text>
     </g>
    </g>
    <g id="xtick_21">
     <g id="line2d_21">
      <g>
       <use style="stroke:#000000;stroke-width:0.8;" x="313.176589" xlink:href="#m2b6c15ca7a" y="307.584"/>
      </g>
     </g>
     <g id="text_21">
      <text style="font-family:DejaVu Sans;font-size:6px;font-style:normal;font-weight:normal;" transform="translate(310.196797 326.108736)rotate(-45)">54A</text>
     </g>
    </g>
    <g id="xtick_22">
     <g id="line2d_22">
      <g>
       <use style="stroke:#000000;stroke-width:0.8;" x="325.025295" xlink:href="#m2b6c15ca7a" y="307.584"/>
      </g>
     </g>
     <g id="text_22">
      <text style="font-family:DejaVu Sans;font-size:6px;font-style:normal;font-weight:normal;" transform="translate(322.045503 326.108736)rotate(-45)">35A</text>
     </g>
    </g>
    <g id="xtick_23">
     <g id="line2d_23">
      <g>
       <use style="stroke:#000000;stroke-width:0.8;" x="336.874001" xlink:href="#m2b6c15ca7a" y="307.584"/>
      </g>
     </g>
     <g id="text_23">
      <text style="font-family:DejaVu Sans;font-size:6px;font-style:normal;font-weight:normal;" transform="translate(333.894209 326.108736)rotate(-45)">49A</text>
     </g>
    </g>
    <g id="xtick_24">
     <g id="line2d_24">
      <g>
       <use style="stroke:#000000;stroke-width:0.8;" x="348.722707" xlink:href="#m2b6c15ca7a" y="307.584"/>
      </g>
     </g>
     <g id="text_24">
      <text style="font-family:DejaVu Sans;font-size:6px;font-style:normal;font-weight:normal;" transform="translate(345.742915 326.108736)rotate(-45)">50A</text>
     </g>
    </g>
    <g id="xtick_25">
     <g id="line2d_25">
      <g>
       <use style="stroke:#000000;stroke-width:0.8;" x="360.571413" xlink:href="#m2b6c15ca7a" y="307.584"/>
      </g>
     </g>
     <g id="text_25">
      <text style="font-family:DejaVu Sans;font-size:6px;font-style:normal;font-weight:normal;" transform="translate(357.591621 326.108736)rotate(-45)">41A</text>
     </g>
    </g>
    <g id="xtick_26">
     <g id="line2d_26">
      <g>
       <use style="stroke:#000000;stroke-width:0.8;" x="372.420119" xlink:href="#m2b6c15ca7a" y="307.584"/>
      </g>
     </g>
     <g id="text_26">
      <text style="font-family:DejaVu Sans;font-size:6px;font-style:normal;font-weight:normal;" transform="translate(369.440327 326.108736)rotate(-45)">46A</text>
     </g>
    </g>
    <g id="xtick_27">
     <g id="line2d_27">
      <g>
       <use style="stroke:#000000;stroke-width:0.8;" x="384.268825" xlink:href="#m2b6c15ca7a" y="307.584"/>
      </g>
     </g>
     <g id="text_27">
      <text style="font-family:DejaVu Sans;font-size:6px;font-style:normal;font-weight:normal;" transform="translate(381.289033 326.108736)rotate(-45)">47A</text>
     </g>
    </g>
    <g id="xtick_28">
     <g id="line2d_28">
      <g>
       <use style="stroke:#000000;stroke-width:0.8;" x="396.117532" xlink:href="#m2b6c15ca7a" y="307.584"/>
      </g>
     </g>
     <g id="text_28">
      <text style="font-family:DejaVu Sans;font-size:6px;font-style:normal;font-weight:normal;" transform="translate(393.137739 326.108736)rotate(-45)">34A</text>
     </g>
    </g>
   </g>
   <g id="matplotlib.axis_2">
    <g id="ytick_1">
     <g id="line2d_29">
      <defs>
       <path d="M 0 0 
L -3.5 0 
" id="m0a42fafa7b" style="stroke:#000000;stroke-width:0.8;"/>
      </defs>
      <g>
       <use style="stroke:#000000;stroke-width:0.8;" x="57.6" xlink:href="#m0a42fafa7b" y="307.584"/>
      </g>
     </g>
     <g id="text_29">
      <text style="font-family:DejaVu Sans;font-size:10px;font-style:normal;font-weight:normal;text-anchor:end;" transform="rotate(-0, 50.6, 311.383219)" x="50.6" y="311.383219">0.0</text>
     </g>
    </g>
    <g id="ytick_2">
     <g id="line2d_30">
      <g>
       <use style="stroke:#000000;stroke-width:0.8;" x="57.6" xlink:href="#m0a42fafa7b" y="273.63628"/>
      </g>
     </g>
     <g id="text_30">
      <text style="font-family:DejaVu Sans;font-size:10px;font-style:normal;font-weight:normal;text-anchor:end;" transform="rotate(-0, 50.6, 277.435499)" x="50.6" y="277.435499">0.1</text>
     </g>
    </g>
    <g id="ytick_3">
     <g id="line2d_31">
      <g>
       <use style="stroke:#000000;stroke-width:0.8;" x="57.6" xlink:href="#m0a42fafa7b" y="239.68856"/>
      </g>
     </g>
     <g id="text_31">
      <text style="font-family:DejaVu Sans;font-size:10px;font-style:normal;font-weight:normal;text-anchor:end;" transform="rotate(-0, 50.6, 243.487779)" x="50.6" y="243.487779">0.2</text>
     </g>
    </g>
    <g id="ytick_4">
     <g id="line2d_32">
      <g>
       <use style="stroke:#000000;stroke-width:0.8;" x="57.6" xlink:href="#m0a42fafa7b" y="205.740841"/>
      </g>
     </g>
     <g id="text_32">
      <text style="font-family:DejaVu Sans;font-size:10px;font-style:normal;font-weight:normal;text-anchor:end;" transform="rotate(-0, 50.6, 209.540059)" x="50.6" y="209.540059">0.3</text>
     </g>
    </g>
    <g id="ytick_5">
     <g id="line2d_33">
      <g>
       <use style="stroke:#000000;stroke-width:0.8;" x="57.6" xlink:href="#m0a42fafa7b" y="171.793121"/>
      </g>
     </g>
     <g id="text_33">
      <text style="font-family:DejaVu Sans;font-size:10px;font-style:normal;font-weight:normal;text-anchor:end;" transform="rotate(-0, 50.6, 175.59234)" x="50.6" y="175.59234">0.4</text>
     </g>
    </g>
    <g id="ytick_6">
     <g id="line2d_34">
      <g>
       <use style="stroke:#000000;stroke-width:0.8;" x="57.6" xlink:href="#m0a42fafa7b" y="137.845401"/>
      </g>
     </g>
     <g id="text_34">
      <text style="font-family:DejaVu Sans;font-size:10px;font-style:normal;font-weight:normal;text-anchor:end;" transform="rotate(-0, 50.6, 141.64462)" x="50.6" y="141.64462">0.5</text>
     </g>
    </g>
    <g id="ytick_7">
     <g id="line2d_35">
      <g>
       <use style="stroke:#000000;stroke-width:0.8;" x="57.6" xlink:href="#m0a42fafa7b" y="103.897681"/>
      </g>
     </g>
     <g id="text_35">
      <text style="font-family:DejaVu Sans;font-size:10px;font-style:normal;font-weight:normal;text-anchor:end;" transform="rotate(-0, 50.6, 107.6969)" x="50.6" y="107.6969">0.6</text>
     </g>
    </g>
    <g id="ytick_8">
     <g id="line2d_36">
      <g>
       <use style="stroke:#000000;stroke-width:0.8;" x="57.6" xlink:href="#m0a42fafa7b" y="69.949962"/>
      </g>
     </g>
     <g id="text_36">
      <text style="font-family:DejaVu Sans;font-size:10px;font-style:normal;font-weight:normal;text-anchor:end;" transform="rotate(-0, 50.6, 73.74918)" x="50.6" y="73.74918">0.7</text>
     </g>
    </g>
   </g>
   <g id="patch_59">
    <path d="M 57.6 307.584 
L 57.6 41.472 
" style="fill:none;stroke:#000000;stroke-linecap:square;stroke-linejoin:miter;stroke-width:0.8;"/>
   </g>
   <g id="patch_60">
    <path d="M 414.72 307.584 
L 414.72 41.472 
" style="fill:none;stroke:#000000;stroke-linecap:square;stroke-linejoin:miter;stroke-width:0.8;"/>
   </g>
   <g id="patch_61">
    <path d="M 57.6 307.584 
L 414.72 307.584 
" style="fill:none;stroke:#000000;stroke-linecap:square;stroke-linejoin:miter;stroke-width:0.8;"/>
   </g>
   <g id="patch_62">
    <path d="M 57.6 41.472 
L 414.72 41.472 
" style="fill:none;stroke:#000000;stroke-linecap:square;stroke-linejoin:miter;stroke-width:0.8;"/>
   </g>
   <g id="legend_1">
    <g id="patch_63">
     <path d="M 342.284063 78.82825 
L 407.72 78.82825 
Q 409.72 78.82825 409.72 76.82825 
L 409.72 48.472 
Q 409.72 46.472 407.72 46.472 
L 342.284063 46.472 
Q 340.284063 46.472 340.284063 48.472 
L 340.284063 76.82825 
Q 340.284063 78.82825 342.284063 78.82825 
z
" style="fill:#ffffff;opacity:0.8;stroke:#cccccc;stroke-linejoin:miter;"/>
    </g>
    <g id="patch_64">
     <path d="M 344.284063 58.070437 
L 364.284063 58.070437 
L 364.284063 51.070437 
L 344.284063 51.070437 
z
" style="fill:#1f77b4;"/>
    </g>
    <g id="text_37">
     <text style="font-family:DejaVu Sans;font-size:10px;font-style:normal;font-weight:normal;text-anchor:start;" transform="rotate(-0, 372.284063, 58.070437)" x="372.284063" y="58.070437">Scores</text>
    </g>
    <g id="patch_65">
     <path d="M 344.284063 72.748562 
L 364.284063 72.748562 
L 364.284063 65.748562 
L 344.284063 65.748562 
z
" style="fill:#ff7f0e;"/>
    </g>
    <g id="text_38">
     <text style="font-family:DejaVu Sans;font-size:10px;font-style:normal;font-weight:normal;text-anchor:start;" transform="rotate(-0, 372.284063, 72.748562)" x="372.284063" y="72.748562">Bases</text>
    </g>
   </g>
  </g>
 </g>
 <defs>
  <clipPath id="pf703f4465f">
   <rect height="266.112" width="357.12" x="57.6" y="41.472"/>
  </clipPath>
 </defs>
</svg>
