<?xml version="1.0" encoding="utf-8" standalone="no"?>
<!DOCTYPE svg PUBLIC "-//W3C//DTD SVG 1.1//EN"
  "http://www.w3.org/Graphics/SVG/1.1/DTD/svg11.dtd">
<!-- Created with matplotlib (http://matplotlib.org/) -->
<svg height="345.6pt" version="1.1" viewBox="0 0 460.8 345.6" width="460.8pt" xmlns="http://www.w3.org/2000/svg" xmlns:xlink="http://www.w3.org/1999/xlink">
 <defs>
  <style type="text/css">
*{stroke-linecap:butt;stroke-linejoin:round;}
  </style>
 </defs>
 <g id="figure_1">
  <g id="patch_1">
   <path d="M 0 345.6 
L 460.8 345.6 
L 460.8 0 
L 0 0 
z
" style="fill:#ffffff;"/>
  </g>
  <g id="axes_1">
   <g id="patch_2">
    <path d="M 33.64 311.635539 
L 447.48 311.635539 
L 447.48 13.32 
L 33.64 13.32 
z
" style="fill:#ffffff;"/>
   </g>
   <g id="patch_3">
    <path clip-path="url(#p7f251cb034)" d="M 52.450909 311.635539 
L 56.540237 311.635539 
L 56.540237 27.525502 
L 52.450909 27.525502 
z
" style="fill:#1f77b4;"/>
   </g>
   <g id="patch_4">
    <path clip-path="url(#p7f251cb034)" d="M 72.897549 311.635539 
L 76.986877 311.635539 
L 76.986877 38.889903 
L 72.897549 38.889903 
z
" style="fill:#1f77b4;"/>
   </g>
   <g id="patch_5">
    <path clip-path="url(#p7f251cb034)" d="M 93.34419 311.635539 
L 97.433518 311.635539 
L 97.433518 170.426086 
L 93.34419 170.426086 
z
" style="fill:#1f77b4;"/>
   </g>
   <g id="patch_6">
    <path clip-path="url(#p7f251cb034)" d="M 113.79083 311.635539 
L 117.880158 311.635539 
L 117.880158 124.258205 
L 113.79083 124.258205 
z
" style="fill:#1f77b4;"/>
   </g>
   <g id="patch_7">
    <path clip-path="url(#p7f251cb034)" d="M 134.23747 311.635539 
L 138.326798 311.635539 
L 138.326798 201.148302 
L 134.23747 201.148302 
z
" style="fill:#1f77b4;"/>
   </g>
   <g id="patch_8">
    <path clip-path="url(#p7f251cb034)" d="M 154.684111 311.635539 
L 158.773439 311.635539 
L 158.773439 96.673977 
L 154.684111 96.673977 
z
" style="fill:#1f77b4;"/>
   </g>
   <g id="patch_9">
    <path clip-path="url(#p7f251cb034)" d="M 175.130751 311.635539 
L 179.220079 311.635539 
L 179.220079 124.483689 
L 175.130751 124.483689 
z
" style="fill:#1f77b4;"/>
   </g>
   <g id="patch_10">
    <path clip-path="url(#p7f251cb034)" d="M 195.577391 311.635539 
L 199.666719 311.635539 
L 199.666719 210.167669 
L 195.577391 210.167669 
z
" style="fill:#1f77b4;"/>
   </g>
   <g id="patch_11">
    <path clip-path="url(#p7f251cb034)" d="M 216.024032 311.635539 
L 220.11336 311.635539 
L 220.11336 47.255366 
L 216.024032 47.255366 
z
" style="fill:#1f77b4;"/>
   </g>
   <g id="patch_12">
    <path clip-path="url(#p7f251cb034)" d="M 236.470672 311.635539 
L 240.56 311.635539 
L 240.56 90.187549 
L 236.470672 90.187549 
z
" style="fill:#1f77b4;"/>
   </g>
   <g id="patch_13">
    <path clip-path="url(#p7f251cb034)" d="M 256.917312 311.635539 
L 261.00664 311.635539 
L 261.00664 169.896198 
L 256.917312 169.896198 
z
" style="fill:#1f77b4;"/>
   </g>
   <g id="patch_14">
    <path clip-path="url(#p7f251cb034)" d="M 277.363953 311.635539 
L 281.453281 311.635539 
L 281.453281 127.911048 
L 277.363953 127.911048 
z
" style="fill:#1f77b4;"/>
   </g>
   <g id="patch_15">
    <path clip-path="url(#p7f251cb034)" d="M 297.810593 311.635539 
L 301.899921 311.635539 
L 301.899921 188.52119 
L 297.810593 188.52119 
z
" style="fill:#1f77b4;"/>
   </g>
   <g id="patch_16">
    <path clip-path="url(#p7f251cb034)" d="M 318.257233 311.635539 
L 322.346561 311.635539 
L 322.346561 142.905745 
L 318.257233 142.905745 
z
" style="fill:#1f77b4;"/>
   </g>
   <g id="patch_17">
    <path clip-path="url(#p7f251cb034)" d="M 338.703874 311.635539 
L 342.793202 311.635539 
L 342.793202 132.330538 
L 338.703874 132.330538 
z
" style="fill:#1f77b4;"/>
   </g>
   <g id="patch_18">
    <path clip-path="url(#p7f251cb034)" d="M 359.150514 311.635539 
L 363.239842 311.635539 
L 363.239842 45.20346 
L 359.150514 45.20346 
z
" style="fill:#1f77b4;"/>
   </g>
   <g id="patch_19">
    <path clip-path="url(#p7f251cb034)" d="M 379.597154 311.635539 
L 383.686482 311.635539 
L 383.686482 83.716154 
L 379.597154 83.716154 
z
" style="fill:#1f77b4;"/>
   </g>
   <g id="patch_20">
    <path clip-path="url(#p7f251cb034)" d="M 400.043794 311.635539 
L 404.133123 311.635539 
L 404.133123 75.192853 
L 400.043794 75.192853 
z
" style="fill:#1f77b4;"/>
   </g>
   <g id="patch_21">
    <path clip-path="url(#p7f251cb034)" d="M 420.490435 311.635539 
L 424.579763 311.635539 
L 424.579763 108.699798 
L 420.490435 108.699798 
z
" style="fill:#1f77b4;"/>
   </g>
   <g id="patch_22">
    <path clip-path="url(#p7f251cb034)" d="M 56.540237 311.635539 
L 60.629565 311.635539 
L 60.629565 84.347509 
L 56.540237 84.347509 
z
" style="fill:#ff7f0e;"/>
   </g>
   <g id="patch_23">
    <path clip-path="url(#p7f251cb034)" d="M 76.986877 311.635539 
L 81.076206 311.635539 
L 81.076206 38.889903 
L 76.986877 38.889903 
z
" style="fill:#ff7f0e;"/>
   </g>
   <g id="patch_24">
    <path clip-path="url(#p7f251cb034)" d="M 97.433518 311.635539 
L 101.522846 311.635539 
L 101.522846 172.117217 
L 97.433518 172.117217 
z
" style="fill:#ff7f0e;"/>
   </g>
   <g id="patch_25">
    <path clip-path="url(#p7f251cb034)" d="M 117.880158 311.635539 
L 121.969486 311.635539 
L 121.969486 110.052703 
L 117.880158 110.052703 
z
" style="fill:#ff7f0e;"/>
   </g>
   <g id="patch_26">
    <path clip-path="url(#p7f251cb034)" d="M 138.326798 311.635539 
L 142.416126 311.635539 
L 142.416126 201.148302 
L 138.326798 201.148302 
z
" style="fill:#ff7f0e;"/>
   </g>
   <g id="patch_27">
    <path clip-path="url(#p7f251cb034)" d="M 158.773439 311.635539 
L 162.862767 311.635539 
L 162.862767 117.719164 
L 158.773439 117.719164 
z
" style="fill:#ff7f0e;"/>
   </g>
   <g id="patch_28">
    <path clip-path="url(#p7f251cb034)" d="M 179.220079 311.635539 
L 183.309407 311.635539 
L 183.309407 124.483689 
L 179.220079 124.483689 
z
" style="fill:#ff7f0e;"/>
   </g>
   <g id="patch_29">
    <path clip-path="url(#p7f251cb034)" d="M 199.666719 311.635539 
L 203.756047 311.635539 
L 203.756047 149.286946 
L 199.666719 149.286946 
z
" style="fill:#ff7f0e;"/>
   </g>
   <g id="patch_30">
    <path clip-path="url(#p7f251cb034)" d="M 220.11336 311.635539 
L 224.202688 311.635539 
L 224.202688 47.255366 
L 220.11336 47.255366 
z
" style="fill:#ff7f0e;"/>
   </g>
   <g id="patch_31">
    <path clip-path="url(#p7f251cb034)" d="M 240.56 311.635539 
L 244.649328 311.635539 
L 244.649328 90.187549 
L 240.56 90.187549 
z
" style="fill:#ff7f0e;"/>
   </g>
   <g id="patch_32">
    <path clip-path="url(#p7f251cb034)" d="M 261.00664 311.635539 
L 265.095968 311.635539 
L 265.095968 164.529675 
L 261.00664 164.529675 
z
" style="fill:#ff7f0e;"/>
   </g>
   <g id="patch_33">
    <path clip-path="url(#p7f251cb034)" d="M 281.453281 311.635539 
L 285.542609 311.635539 
L 285.542609 127.911048 
L 281.453281 127.911048 
z
" style="fill:#ff7f0e;"/>
   </g>
   <g id="patch_34">
    <path clip-path="url(#p7f251cb034)" d="M 301.899921 311.635539 
L 305.989249 311.635539 
L 305.989249 200.674786 
L 301.899921 200.674786 
z
" style="fill:#ff7f0e;"/>
   </g>
   <g id="patch_35">
    <path clip-path="url(#p7f251cb034)" d="M 322.346561 311.635539 
L 326.435889 311.635539 
L 326.435889 159.47883 
L 322.346561 159.47883 
z
" style="fill:#ff7f0e;"/>
   </g>
   <g id="patch_36">
    <path clip-path="url(#p7f251cb034)" d="M 342.793202 311.635539 
L 346.88253 311.635539 
L 346.88253 125.227787 
L 342.793202 125.227787 
z
" style="fill:#ff7f0e;"/>
   </g>
   <g id="patch_37">
    <path clip-path="url(#p7f251cb034)" d="M 363.239842 311.635539 
L 367.32917 311.635539 
L 367.32917 45.20346 
L 363.239842 45.20346 
z
" style="fill:#ff7f0e;"/>
   </g>
   <g id="patch_38">
    <path clip-path="url(#p7f251cb034)" d="M 383.686482 311.635539 
L 387.77581 311.635539 
L 387.77581 83.716154 
L 383.686482 83.716154 
z
" style="fill:#ff7f0e;"/>
   </g>
   <g id="patch_39">
    <path clip-path="url(#p7f251cb034)" d="M 404.133123 311.635539 
L 408.222451 311.635539 
L 408.222451 89.398354 
L 404.133123 89.398354 
z
" style="fill:#ff7f0e;"/>
   </g>
   <g id="patch_40">
    <path clip-path="url(#p7f251cb034)" d="M 424.579763 311.635539 
L 428.669091 311.635539 
L 428.669091 108.699798 
L 424.579763 108.699798 
z
" style="fill:#ff7f0e;"/>
   </g>
   <g id="matplotlib.axis_1">
    <g id="xtick_1">
     <g id="line2d_1">
      <defs>
       <path d="M 0 0 
L 0 3.5 
" id="mfc09488f91" style="stroke:#000000;stroke-width:0.8;"/>
      </defs>
      <g>
       <use style="stroke:#000000;stroke-width:0.8;" x="56.540237" xlink:href="#mfc09488f91" y="311.635539"/>
      </g>
     </g>
     <g id="text_1">
      <text style="font-family:DejaVu Sans;font-size:8px;font-style:normal;font-weight:normal;" transform="translate(52.567181 334.001853)rotate(-45)">10A</text>
     </g>
    </g>
    <g id="xtick_2">
     <g id="line2d_2">
      <g>
       <use style="stroke:#000000;stroke-width:0.8;" x="76.986877" xlink:href="#mfc09488f91" y="311.635539"/>
      </g>
     </g>
     <g id="text_2">
      <text style="font-family:DejaVu Sans;font-size:8px;font-style:normal;font-weight:normal;" transform="translate(73.013821 334.001853)rotate(-45)">11A</text>
     </g>
    </g>
    <g id="xtick_3">
     <g id="line2d_3">
      <g>
       <use style="stroke:#000000;stroke-width:0.8;" x="97.433518" xlink:href="#mfc09488f91" y="311.635539"/>
      </g>
     </g>
     <g id="text_3">
      <text style="font-family:DejaVu Sans;font-size:8px;font-style:normal;font-weight:normal;" transform="translate(93.460462 334.001853)rotate(-45)">12A</text>
     </g>
    </g>
    <g id="xtick_4">
     <g id="line2d_4">
      <g>
       <use style="stroke:#000000;stroke-width:0.8;" x="117.880158" xlink:href="#mfc09488f91" y="311.635539"/>
      </g>
     </g>
     <g id="text_4">
      <text style="font-family:DejaVu Sans;font-size:8px;font-style:normal;font-weight:normal;" transform="translate(113.907102 334.001853)rotate(-45)">13A</text>
     </g>
    </g>
    <g id="xtick_5">
     <g id="line2d_5">
      <g>
       <use style="stroke:#000000;stroke-width:0.8;" x="138.326798" xlink:href="#mfc09488f91" y="311.635539"/>
      </g>
     </g>
     <g id="text_5">
      <text style="font-family:DejaVu Sans;font-size:8px;font-style:normal;font-weight:normal;" transform="translate(134.353742 334.001853)rotate(-45)">14A</text>
     </g>
    </g>
    <g id="xtick_6">
     <g id="line2d_6">
      <g>
       <use style="stroke:#000000;stroke-width:0.8;" x="158.773439" xlink:href="#mfc09488f91" y="311.635539"/>
      </g>
     </g>
     <g id="text_6">
      <text style="font-family:DejaVu Sans;font-size:8px;font-style:normal;font-weight:normal;" transform="translate(154.800383 334.001853)rotate(-45)">15A</text>
     </g>
    </g>
    <g id="xtick_7">
     <g id="line2d_7">
      <g>
       <use style="stroke:#000000;stroke-width:0.8;" x="179.220079" xlink:href="#mfc09488f91" y="311.635539"/>
      </g>
     </g>
     <g id="text_7">
      <text style="font-family:DejaVu Sans;font-size:8px;font-style:normal;font-weight:normal;" transform="translate(175.247023 334.001853)rotate(-45)">16A</text>
     </g>
    </g>
    <g id="xtick_8">
     <g id="line2d_8">
      <g>
       <use style="stroke:#000000;stroke-width:0.8;" x="199.666719" xlink:href="#mfc09488f91" y="311.635539"/>
      </g>
     </g>
     <g id="text_8">
      <text style="font-family:DejaVu Sans;font-size:8px;font-style:normal;font-weight:normal;" transform="translate(195.693663 334.001853)rotate(-45)">17A</text>
     </g>
    </g>
    <g id="xtick_9">
     <g id="line2d_9">
      <g>
       <use style="stroke:#000000;stroke-width:0.8;" x="220.11336" xlink:href="#mfc09488f91" y="311.635539"/>
      </g>
     </g>
     <g id="text_9">
      <text style="font-family:DejaVu Sans;font-size:8px;font-style:normal;font-weight:normal;" transform="translate(216.140303 334.001853)rotate(-45)">18A</text>
     </g>
    </g>
    <g id="xtick_10">
     <g id="line2d_10">
      <g>
       <use style="stroke:#000000;stroke-width:0.8;" x="240.56" xlink:href="#mfc09488f91" y="311.635539"/>
      </g>
     </g>
     <g id="text_10">
      <text style="font-family:DejaVu Sans;font-size:8px;font-style:normal;font-weight:normal;" transform="translate(236.586944 334.001853)rotate(-45)">19A</text>
     </g>
    </g>
    <g id="xtick_11">
     <g id="line2d_11">
      <g>
       <use style="stroke:#000000;stroke-width:0.8;" x="261.00664" xlink:href="#mfc09488f91" y="311.635539"/>
      </g>
     </g>
     <g id="text_11">
      <text style="font-family:DejaVu Sans;font-size:8px;font-style:normal;font-weight:normal;" transform="translate(258.833171 330.40268)rotate(-45)">1A</text>
     </g>
    </g>
    <g id="xtick_12">
     <g id="line2d_12">
      <g>
       <use style="stroke:#000000;stroke-width:0.8;" x="281.453281" xlink:href="#mfc09488f91" y="311.635539"/>
      </g>
     </g>
     <g id="text_12">
      <text style="font-family:DejaVu Sans;font-size:8px;font-style:normal;font-weight:normal;" transform="translate(279.279811 330.40268)rotate(-45)">2A</text>
     </g>
    </g>
    <g id="xtick_13">
     <g id="line2d_13">
      <g>
       <use style="stroke:#000000;stroke-width:0.8;" x="301.899921" xlink:href="#mfc09488f91" y="311.635539"/>
      </g>
     </g>
     <g id="text_13">
      <text style="font-family:DejaVu Sans;font-size:8px;font-style:normal;font-weight:normal;" transform="translate(299.726451 330.40268)rotate(-45)">3A</text>
     </g>
    </g>
    <g id="xtick_14">
     <g id="line2d_14">
      <g>
       <use style="stroke:#000000;stroke-width:0.8;" x="322.346561" xlink:href="#mfc09488f91" y="311.635539"/>
      </g>
     </g>
     <g id="text_14">
      <text style="font-family:DejaVu Sans;font-size:8px;font-style:normal;font-weight:normal;" transform="translate(320.173092 330.40268)rotate(-45)">4A</text>
     </g>
    </g>
    <g id="xtick_15">
     <g id="line2d_15">
      <g>
       <use style="stroke:#000000;stroke-width:0.8;" x="342.793202" xlink:href="#mfc09488f91" y="311.635539"/>
      </g>
     </g>
     <g id="text_15">
      <text style="font-family:DejaVu Sans;font-size:8px;font-style:normal;font-weight:normal;" transform="translate(340.619732 330.40268)rotate(-45)">5A</text>
     </g>
    </g>
    <g id="xtick_16">
     <g id="line2d_16">
      <g>
       <use style="stroke:#000000;stroke-width:0.8;" x="363.239842" xlink:href="#mfc09488f91" y="311.635539"/>
      </g>
     </g>
     <g id="text_16">
      <text style="font-family:DejaVu Sans;font-size:8px;font-style:normal;font-weight:normal;" transform="translate(361.066372 330.40268)rotate(-45)">6A</text>
     </g>
    </g>
    <g id="xtick_17">
     <g id="line2d_17">
      <g>
       <use style="stroke:#000000;stroke-width:0.8;" x="383.686482" xlink:href="#mfc09488f91" y="311.635539"/>
      </g>
     </g>
     <g id="text_17">
      <text style="font-family:DejaVu Sans;font-size:8px;font-style:normal;font-weight:normal;" transform="translate(381.513013 330.40268)rotate(-45)">7A</text>
     </g>
    </g>
    <g id="xtick_18">
     <g id="line2d_18">
      <g>
       <use style="stroke:#000000;stroke-width:0.8;" x="404.133123" xlink:href="#mfc09488f91" y="311.635539"/>
      </g>
     </g>
     <g id="text_18">
      <text style="font-family:DejaVu Sans;font-size:8px;font-style:normal;font-weight:normal;" transform="translate(401.959653 330.40268)rotate(-45)">8A</text>
     </g>
    </g>
    <g id="xtick_19">
     <g id="line2d_19">
      <g>
       <use style="stroke:#000000;stroke-width:0.8;" x="424.579763" xlink:href="#mfc09488f91" y="311.635539"/>
      </g>
     </g>
     <g id="text_19">
      <text style="font-family:DejaVu Sans;font-size:8px;font-style:normal;font-weight:normal;" transform="translate(422.406293 330.40268)rotate(-45)">9A</text>
     </g>
    </g>
   </g>
   <g id="matplotlib.axis_2">
    <g id="ytick_1">
     <g id="line2d_20">
      <defs>
       <path d="M 0 0 
L -3.5 0 
" id="maaeb19e7df" style="stroke:#000000;stroke-width:0.8;"/>
      </defs>
      <g>
       <use style="stroke:#000000;stroke-width:0.8;" x="33.64" xlink:href="#maaeb19e7df" y="311.635539"/>
      </g>
     </g>
     <g id="text_20">
      <text style="font-family:DejaVu Sans;font-size:10px;font-style:normal;font-weight:normal;text-anchor:end;" transform="rotate(-0, 26.64, 315.434758)" x="26.64" y="315.434758">0.0</text>
     </g>
    </g>
    <g id="ytick_2">
     <g id="line2d_21">
      <g>
       <use style="stroke:#000000;stroke-width:0.8;" x="33.64" xlink:href="#maaeb19e7df" y="254.813532"/>
      </g>
     </g>
     <g id="text_21">
      <text style="font-family:DejaVu Sans;font-size:10px;font-style:normal;font-weight:normal;text-anchor:end;" transform="rotate(-0, 26.64, 258.61275)" x="26.64" y="258.61275">0.2</text>
     </g>
    </g>
    <g id="ytick_3">
     <g id="line2d_22">
      <g>
       <use style="stroke:#000000;stroke-width:0.8;" x="33.64" xlink:href="#maaeb19e7df" y="197.991524"/>
      </g>
     </g>
     <g id="text_22">
      <text style="font-family:DejaVu Sans;font-size:10px;font-style:normal;font-weight:normal;text-anchor:end;" transform="rotate(-0, 26.64, 201.790743)" x="26.64" y="201.790743">0.4</text>
     </g>
    </g>
    <g id="ytick_4">
     <g id="line2d_23">
      <g>
       <use style="stroke:#000000;stroke-width:0.8;" x="33.64" xlink:href="#maaeb19e7df" y="141.169517"/>
      </g>
     </g>
     <g id="text_23">
      <text style="font-family:DejaVu Sans;font-size:10px;font-style:normal;font-weight:normal;text-anchor:end;" transform="rotate(-0, 26.64, 144.968735)" x="26.64" y="144.968735">0.6</text>
     </g>
    </g>
    <g id="ytick_5">
     <g id="line2d_24">
      <g>
       <use style="stroke:#000000;stroke-width:0.8;" x="33.64" xlink:href="#maaeb19e7df" y="84.347509"/>
      </g>
     </g>
     <g id="text_24">
      <text style="font-family:DejaVu Sans;font-size:10px;font-style:normal;font-weight:normal;text-anchor:end;" transform="rotate(-0, 26.64, 88.146728)" x="26.64" y="88.146728">0.8</text>
     </g>
    </g>
    <g id="ytick_6">
     <g id="line2d_25">
      <g>
       <use style="stroke:#000000;stroke-width:0.8;" x="33.64" xlink:href="#maaeb19e7df" y="27.525502"/>
      </g>
     </g>
     <g id="text_25">
      <text style="font-family:DejaVu Sans;font-size:10px;font-style:normal;font-weight:normal;text-anchor:end;" transform="rotate(-0, 26.64, 31.324721)" x="26.64" y="31.324721">1.0</text>
     </g>
    </g>
   </g>
   <g id="patch_41">
    <path d="M 33.64 311.635539 
L 33.64 13.32 
" style="fill:none;stroke:#000000;stroke-linecap:square;stroke-linejoin:miter;stroke-width:0.8;"/>
   </g>
   <g id="patch_42">
    <path d="M 447.48 311.635539 
L 447.48 13.32 
" style="fill:none;stroke:#000000;stroke-linecap:square;stroke-linejoin:miter;stroke-width:0.8;"/>
   </g>
   <g id="patch_43">
    <path d="M 33.64 311.635539 
L 447.48 311.635539 
" style="fill:none;stroke:#000000;stroke-linecap:square;stroke-linejoin:miter;stroke-width:0.8;"/>
   </g>
   <g id="patch_44">
    <path d="M 33.64 13.32 
L 447.48 13.32 
" style="fill:none;stroke:#000000;stroke-linecap:square;stroke-linejoin:miter;stroke-width:0.8;"/>
   </g>
   <g id="legend_1">
    <g id="patch_45">
     <path d="M 375.044062 50.67625 
L 440.48 50.67625 
Q 442.48 50.67625 442.48 48.67625 
L 442.48 20.32 
Q 442.48 18.32 440.48 18.32 
L 375.044062 18.32 
Q 373.044062 18.32 373.044062 20.32 
L 373.044062 48.67625 
Q 373.044062 50.67625 375.044062 50.67625 
z
" style="fill:#ffffff;opacity:0.8;stroke:#cccccc;stroke-linejoin:miter;"/>
    </g>
    <g id="patch_46">
     <path d="M 377.044062 29.918437 
L 397.044062 29.918437 
L 397.044062 22.918437 
L 377.044062 22.918437 
z
" style="fill:#1f77b4;"/>
    </g>
    <g id="text_26">
     <text style="font-family:DejaVu Sans;font-size:10px;font-style:normal;font-weight:normal;text-anchor:start;" transform="rotate(-0, 405.044062, 29.918437)" x="405.044062" y="29.918437">Scores</text>
    </g>
    <g id="patch_47">
     <path d="M 377.044062 44.596562 
L 397.044062 44.596562 
L 397.044062 37.596562 
L 377.044062 37.596562 
z
" style="fill:#ff7f0e;"/>
    </g>
    <g id="text_27">
     <text style="font-family:DejaVu Sans;font-size:10px;font-style:normal;font-weight:normal;text-anchor:start;" transform="rotate(-0, 405.044062, 44.596562)" x="405.044062" y="44.596562">Bases</text>
    </g>
   </g>
  </g>
 </g>
 <defs>
  <clipPath id="p7f251cb034">
   <rect height="298.315539" width="413.84" x="33.64" y="13.32"/>
  </clipPath>
 </defs>
</svg>
