<?xml version="1.0" encoding="utf-8" standalone="no"?>
<!DOCTYPE svg PUBLIC "-//W3C//DTD SVG 1.1//EN"
  "http://www.w3.org/Graphics/SVG/1.1/DTD/svg11.dtd">
<!-- Created with matplotlib (http://matplotlib.org/) -->
<svg height="345.6pt" version="1.1" viewBox="0 0 460.8 345.6" width="460.8pt" xmlns="http://www.w3.org/2000/svg" xmlns:xlink="http://www.w3.org/1999/xlink">
 <defs>
  <style type="text/css">
*{stroke-linecap:butt;stroke-linejoin:round;}
  </style>
 </defs>
 <g id="figure_1">
  <g id="patch_1">
   <path d="M 0 345.6 
L 460.8 345.6 
L 460.8 0 
L 0 0 
z
" style="fill:#ffffff;"/>
  </g>
  <g id="axes_1">
   <g id="patch_2">
    <path d="M 33.64 291.322725 
L 447.48 291.322725 
L 447.48 13.32 
L 33.64 13.32 
z
" style="fill:#ffffff;"/>
   </g>
   <g id="patch_3">
    <path clip-path="url(#p217e7a55e3)" d="M 52.450909 291.322725 
L 69.551736 291.322725 
L 69.551736 57.581995 
L 52.450909 57.581995 
z
" style="fill:#1f77b4;"/>
   </g>
   <g id="patch_4">
    <path clip-path="url(#p217e7a55e3)" d="M 137.955041 291.322725 
L 155.055868 291.322725 
L 155.055868 44.615842 
L 137.955041 44.615842 
z
" style="fill:#1f77b4;"/>
   </g>
   <g id="patch_5">
    <path clip-path="url(#p217e7a55e3)" d="M 223.459174 291.322725 
L 240.56 291.322725 
L 240.56 45.894958 
L 223.459174 45.894958 
z
" style="fill:#1f77b4;"/>
   </g>
   <g id="patch_6">
    <path clip-path="url(#p217e7a55e3)" d="M 308.963306 291.322725 
L 326.064132 291.322725 
L 326.064132 29.367836 
L 308.963306 29.367836 
z
" style="fill:#1f77b4;"/>
   </g>
   <g id="patch_7">
    <path clip-path="url(#p217e7a55e3)" d="M 394.467438 291.322725 
L 411.568264 291.322725 
L 411.568264 45.665801 
L 394.467438 45.665801 
z
" style="fill:#1f77b4;"/>
   </g>
   <g id="patch_8">
    <path clip-path="url(#p217e7a55e3)" d="M 69.551736 291.322725 
L 86.652562 291.322725 
L 86.652562 71.181455 
L 69.551736 71.181455 
z
" style="fill:#ff7f0e;"/>
   </g>
   <g id="patch_9">
    <path clip-path="url(#p217e7a55e3)" d="M 155.055868 291.322725 
L 172.156694 291.322725 
L 172.156694 47.482395 
L 155.055868 47.482395 
z
" style="fill:#ff7f0e;"/>
   </g>
   <g id="patch_10">
    <path clip-path="url(#p217e7a55e3)" d="M 240.56 291.322725 
L 257.660826 291.322725 
L 257.660826 26.558225 
L 240.56 26.558225 
z
" style="fill:#ff7f0e;"/>
   </g>
   <g id="patch_11">
    <path clip-path="url(#p217e7a55e3)" d="M 326.064132 291.322725 
L 343.164959 291.322725 
L 343.164959 42.235381 
L 326.064132 42.235381 
z
" style="fill:#ff7f0e;"/>
   </g>
   <g id="patch_12">
    <path clip-path="url(#p217e7a55e3)" d="M 411.568264 291.322725 
L 428.669091 291.322725 
L 428.669091 37.999438 
L 411.568264 37.999438 
z
" style="fill:#ff7f0e;"/>
   </g>
   <g id="matplotlib.axis_1">
    <g id="xtick_1">
     <g id="line2d_1">
      <defs>
       <path d="M 0 0 
L 0 3.5 
" id="m9645bc9a87" style="stroke:#000000;stroke-width:0.8;"/>
      </defs>
      <g>
       <use style="stroke:#000000;stroke-width:0.8;" x="69.551736" xlink:href="#m9645bc9a87" y="291.322725"/>
      </g>
     </g>
     <g id="text_1">
      <text style="font-family:DejaVu Sans;font-size:9px;font-style:normal;font-weight:normal;" transform="translate(58.826219 315.5022)rotate(-25)">Africa</text>
     </g>
    </g>
    <g id="xtick_2">
     <g id="line2d_2">
      <g>
       <use style="stroke:#000000;stroke-width:0.8;" x="155.055868" xlink:href="#m9645bc9a87" y="291.322725"/>
      </g>
     </g>
     <g id="text_2">
      <text style="font-family:DejaVu Sans;font-size:9px;font-style:normal;font-weight:normal;" transform="translate(141.010928 318.597944)rotate(-25)">Eurasia</text>
     </g>
    </g>
    <g id="xtick_3">
     <g id="line2d_3">
      <g>
       <use style="stroke:#000000;stroke-width:0.8;" x="240.56" xlink:href="#m9645bc9a87" y="291.322725"/>
      </g>
     </g>
     <g id="text_3">
      <text style="font-family:DejaVu Sans;font-size:9px;font-style:normal;font-weight:normal;" transform="translate(212.083313 332.057214)rotate(-25)">North America</text>
     </g>
    </g>
    <g id="xtick_4">
     <g id="line2d_4">
      <g>
       <use style="stroke:#000000;stroke-width:0.8;" x="326.064132" xlink:href="#m9645bc9a87" y="291.322725"/>
      </g>
     </g>
     <g id="text_4">
      <text style="font-family:DejaVu Sans;font-size:9px;font-style:normal;font-weight:normal;" transform="translate(306.132936 324.087558)rotate(-25)">Papunesia</text>
     </g>
    </g>
    <g id="xtick_5">
     <g id="line2d_5">
      <g>
       <use style="stroke:#000000;stroke-width:0.8;" x="411.568264" xlink:href="#m9645bc9a87" y="291.322725"/>
      </g>
     </g>
     <g id="text_5">
      <text style="font-family:DejaVu Sans;font-size:9px;font-style:normal;font-weight:normal;" transform="translate(382.645504 332.473228)rotate(-25)">South America</text>
     </g>
    </g>
   </g>
   <g id="matplotlib.axis_2">
    <g id="ytick_1">
     <g id="line2d_6">
      <defs>
       <path d="M 0 0 
L -3.5 0 
" id="maab4586c45" style="stroke:#000000;stroke-width:0.8;"/>
      </defs>
      <g>
       <use style="stroke:#000000;stroke-width:0.8;" x="33.64" xlink:href="#maab4586c45" y="291.322725"/>
      </g>
     </g>
     <g id="text_6">
      <text style="font-family:DejaVu Sans;font-size:10px;font-style:normal;font-weight:normal;text-anchor:end;" transform="rotate(-0, 26.64, 295.121944)" x="26.64" y="295.121944">0.0</text>
     </g>
    </g>
    <g id="ytick_2">
     <g id="line2d_7">
      <g>
       <use style="stroke:#000000;stroke-width:0.8;" x="33.64" xlink:href="#maab4586c45" y="255.624141"/>
      </g>
     </g>
     <g id="text_7">
      <text style="font-family:DejaVu Sans;font-size:10px;font-style:normal;font-weight:normal;text-anchor:end;" transform="rotate(-0, 26.64, 259.42336)" x="26.64" y="259.42336">0.1</text>
     </g>
    </g>
    <g id="ytick_3">
     <g id="line2d_8">
      <g>
       <use style="stroke:#000000;stroke-width:0.8;" x="33.64" xlink:href="#maab4586c45" y="219.925557"/>
      </g>
     </g>
     <g id="text_8">
      <text style="font-family:DejaVu Sans;font-size:10px;font-style:normal;font-weight:normal;text-anchor:end;" transform="rotate(-0, 26.64, 223.724776)" x="26.64" y="223.724776">0.2</text>
     </g>
    </g>
    <g id="ytick_4">
     <g id="line2d_9">
      <g>
       <use style="stroke:#000000;stroke-width:0.8;" x="33.64" xlink:href="#maab4586c45" y="184.226972"/>
      </g>
     </g>
     <g id="text_9">
      <text style="font-family:DejaVu Sans;font-size:10px;font-style:normal;font-weight:normal;text-anchor:end;" transform="rotate(-0, 26.64, 188.026191)" x="26.64" y="188.026191">0.3</text>
     </g>
    </g>
    <g id="ytick_5">
     <g id="line2d_10">
      <g>
       <use style="stroke:#000000;stroke-width:0.8;" x="33.64" xlink:href="#maab4586c45" y="148.528388"/>
      </g>
     </g>
     <g id="text_10">
      <text style="font-family:DejaVu Sans;font-size:10px;font-style:normal;font-weight:normal;text-anchor:end;" transform="rotate(-0, 26.64, 152.327607)" x="26.64" y="152.327607">0.4</text>
     </g>
    </g>
    <g id="ytick_6">
     <g id="line2d_11">
      <g>
       <use style="stroke:#000000;stroke-width:0.8;" x="33.64" xlink:href="#maab4586c45" y="112.829804"/>
      </g>
     </g>
     <g id="text_11">
      <text style="font-family:DejaVu Sans;font-size:10px;font-style:normal;font-weight:normal;text-anchor:end;" transform="rotate(-0, 26.64, 116.629023)" x="26.64" y="116.629023">0.5</text>
     </g>
    </g>
    <g id="ytick_7">
     <g id="line2d_12">
      <g>
       <use style="stroke:#000000;stroke-width:0.8;" x="33.64" xlink:href="#maab4586c45" y="77.131219"/>
      </g>
     </g>
     <g id="text_12">
      <text style="font-family:DejaVu Sans;font-size:10px;font-style:normal;font-weight:normal;text-anchor:end;" transform="rotate(-0, 26.64, 80.930438)" x="26.64" y="80.930438">0.6</text>
     </g>
    </g>
    <g id="ytick_8">
     <g id="line2d_13">
      <g>
       <use style="stroke:#000000;stroke-width:0.8;" x="33.64" xlink:href="#maab4586c45" y="41.432635"/>
      </g>
     </g>
     <g id="text_13">
      <text style="font-family:DejaVu Sans;font-size:10px;font-style:normal;font-weight:normal;text-anchor:end;" transform="rotate(-0, 26.64, 45.231854)" x="26.64" y="45.231854">0.7</text>
     </g>
    </g>
   </g>
   <g id="patch_13">
    <path d="M 33.64 291.322725 
L 33.64 13.32 
" style="fill:none;stroke:#000000;stroke-linecap:square;stroke-linejoin:miter;stroke-width:0.8;"/>
   </g>
   <g id="patch_14">
    <path d="M 447.48 291.322725 
L 447.48 13.32 
" style="fill:none;stroke:#000000;stroke-linecap:square;stroke-linejoin:miter;stroke-width:0.8;"/>
   </g>
   <g id="patch_15">
    <path d="M 33.64 291.322725 
L 447.48 291.322725 
" style="fill:none;stroke:#000000;stroke-linecap:square;stroke-linejoin:miter;stroke-width:0.8;"/>
   </g>
   <g id="patch_16">
    <path d="M 33.64 13.32 
L 447.48 13.32 
" style="fill:none;stroke:#000000;stroke-linecap:square;stroke-linejoin:miter;stroke-width:0.8;"/>
   </g>
   <g id="legend_1">
    <g id="patch_17">
     <path d="M 40.64 50.67625 
L 106.075937 50.67625 
Q 108.075937 50.67625 108.075937 48.67625 
L 108.075937 20.32 
Q 108.075937 18.32 106.075937 18.32 
L 40.64 18.32 
Q 38.64 18.32 38.64 20.32 
L 38.64 48.67625 
Q 38.64 50.67625 40.64 50.67625 
z
" style="fill:#ffffff;opacity:0.8;stroke:#cccccc;stroke-linejoin:miter;"/>
    </g>
    <g id="patch_18">
     <path d="M 42.64 29.918437 
L 62.64 29.918437 
L 62.64 22.918437 
L 42.64 22.918437 
z
" style="fill:#1f77b4;"/>
    </g>
    <g id="text_14">
     <text style="font-family:DejaVu Sans;font-size:10px;font-style:normal;font-weight:normal;text-anchor:start;" transform="rotate(-0, 70.64, 29.918437)" x="70.64" y="29.918437">Scores</text>
    </g>
    <g id="patch_19">
     <path d="M 42.64 44.596563 
L 62.64 44.596563 
L 62.64 37.596563 
L 42.64 37.596563 
z
" style="fill:#ff7f0e;"/>
    </g>
    <g id="text_15">
     <text style="font-family:DejaVu Sans;font-size:10px;font-style:normal;font-weight:normal;text-anchor:start;" transform="rotate(-0, 70.64, 44.596563)" x="70.64" y="44.596563">Bases</text>
    </g>
   </g>
  </g>
 </g>
 <defs>
  <clipPath id="p217e7a55e3">
   <rect height="278.002725" width="413.84" x="33.64" y="13.32"/>
  </clipPath>
 </defs>
</svg>
