<?xml version="1.0" encoding="utf-8" standalone="no"?>
<!DOCTYPE svg PUBLIC "-//W3C//DTD SVG 1.1//EN"
  "http://www.w3.org/Graphics/SVG/1.1/DTD/svg11.dtd">
<!-- Created with matplotlib (http://matplotlib.org/) -->
<svg height="345.6pt" version="1.1" viewBox="0 0 460.8 345.6" width="460.8pt" xmlns="http://www.w3.org/2000/svg" xmlns:xlink="http://www.w3.org/1999/xlink">
 <defs>
  <style type="text/css">
*{stroke-linecap:butt;stroke-linejoin:round;}
  </style>
 </defs>
 <g id="figure_1">
  <g id="patch_1">
   <path d="M 0 345.6 
L 460.8 345.6 
L 460.8 0 
L 0 0 
z
" style="fill:#ffffff;"/>
  </g>
  <g id="axes_1">
   <g id="patch_2">
    <path d="M 33.64 291.322725 
L 446.262202 291.322725 
L 446.262202 13.32 
L 33.64 13.32 
z
" style="fill:#ffffff;"/>
   </g>
   <g id="patch_3">
    <path clip-path="url(#pd4381078c1)" d="M 52.395555 291.322725 
L 66.288558 291.322725 
L 66.288558 26.558225 
L 52.395555 26.558225 
z
" style="fill:#1f77b4;"/>
   </g>
   <g id="patch_4">
    <path clip-path="url(#pd4381078c1)" d="M 121.860572 291.322725 
L 135.753575 291.322725 
L 135.753575 121.316046 
L 121.860572 121.316046 
z
" style="fill:#1f77b4;"/>
   </g>
   <g id="patch_5">
    <path clip-path="url(#pd4381078c1)" d="M 191.325589 291.322725 
L 205.218593 291.322725 
L 205.218593 115.919009 
L 191.325589 115.919009 
z
" style="fill:#1f77b4;"/>
   </g>
   <g id="patch_6">
    <path clip-path="url(#pd4381078c1)" d="M 260.790606 291.322725 
L 274.68361 291.322725 
L 274.68361 32.264929 
L 260.790606 32.264929 
z
" style="fill:#1f77b4;"/>
   </g>
   <g id="patch_7">
    <path clip-path="url(#pd4381078c1)" d="M 330.255624 291.322725 
L 344.148627 291.322725 
L 344.148627 62.955544 
L 330.255624 62.955544 
z
" style="fill:#1f77b4;"/>
   </g>
   <g id="patch_8">
    <path clip-path="url(#pd4381078c1)" d="M 399.720641 291.322725 
L 413.613644 291.322725 
L 413.613644 127.854765 
L 399.720641 127.854765 
z
" style="fill:#1f77b4;"/>
   </g>
   <g id="patch_9">
    <path clip-path="url(#pd4381078c1)" d="M 66.288558 291.322725 
L 80.181562 291.322725 
L 80.181562 26.558225 
L 66.288558 26.558225 
z
" style="fill:#ff7f0e;"/>
   </g>
   <g id="patch_10">
    <path clip-path="url(#pd4381078c1)" d="M 135.753575 291.322725 
L 149.646579 291.322725 
L 149.646579 121.316046 
L 135.753575 121.316046 
z
" style="fill:#ff7f0e;"/>
   </g>
   <g id="patch_11">
    <path clip-path="url(#pd4381078c1)" d="M 205.218593 291.322725 
L 219.111596 291.322725 
L 219.111596 115.919009 
L 205.218593 115.919009 
z
" style="fill:#ff7f0e;"/>
   </g>
   <g id="patch_12">
    <path clip-path="url(#pd4381078c1)" d="M 274.68361 291.322725 
L 288.576613 291.322725 
L 288.576613 32.264929 
L 274.68361 32.264929 
z
" style="fill:#ff7f0e;"/>
   </g>
   <g id="patch_13">
    <path clip-path="url(#pd4381078c1)" d="M 344.148627 291.322725 
L 358.04163 291.322725 
L 358.04163 62.955544 
L 344.148627 62.955544 
z
" style="fill:#ff7f0e;"/>
   </g>
   <g id="patch_14">
    <path clip-path="url(#pd4381078c1)" d="M 413.613644 291.322725 
L 427.506648 291.322725 
L 427.506648 127.854765 
L 413.613644 127.854765 
z
" style="fill:#ff7f0e;"/>
   </g>
   <g id="matplotlib.axis_1">
    <g id="xtick_1">
     <g id="line2d_1">
      <defs>
       <path d="M 0 0 
L 0 3.5 
" id="m4e3b6340e3" style="stroke:#000000;stroke-width:0.8;"/>
      </defs>
      <g>
       <use style="stroke:#000000;stroke-width:0.8;" x="66.288558" xlink:href="#m4e3b6340e3" y="291.322725"/>
      </g>
     </g>
     <g id="text_1">
      <text style="font-family:DejaVu Sans;font-size:9px;font-style:normal;font-weight:normal;" transform="translate(55.563042 315.5022)rotate(-25)">Africa</text>
     </g>
    </g>
    <g id="xtick_2">
     <g id="line2d_2">
      <g>
       <use style="stroke:#000000;stroke-width:0.8;" x="135.753575" xlink:href="#m4e3b6340e3" y="291.322725"/>
      </g>
     </g>
     <g id="text_2">
      <text style="font-family:DejaVu Sans;font-size:9px;font-style:normal;font-weight:normal;" transform="translate(118.763915 321.344237)rotate(-25)">Australia</text>
     </g>
    </g>
    <g id="xtick_3">
     <g id="line2d_3">
      <g>
       <use style="stroke:#000000;stroke-width:0.8;" x="205.218593" xlink:href="#m4e3b6340e3" y="291.322725"/>
      </g>
     </g>
     <g id="text_3">
      <text style="font-family:DejaVu Sans;font-size:9px;font-style:normal;font-weight:normal;" transform="translate(191.173653 318.597944)rotate(-25)">Eurasia</text>
     </g>
    </g>
    <g id="xtick_4">
     <g id="line2d_4">
      <g>
       <use style="stroke:#000000;stroke-width:0.8;" x="274.68361" xlink:href="#m4e3b6340e3" y="291.322725"/>
      </g>
     </g>
     <g id="text_4">
      <text style="font-family:DejaVu Sans;font-size:9px;font-style:normal;font-weight:normal;" transform="translate(246.206923 332.057214)rotate(-25)">North America</text>
     </g>
    </g>
    <g id="xtick_5">
     <g id="line2d_5">
      <g>
       <use style="stroke:#000000;stroke-width:0.8;" x="344.148627" xlink:href="#m4e3b6340e3" y="291.322725"/>
      </g>
     </g>
     <g id="text_5">
      <text style="font-family:DejaVu Sans;font-size:9px;font-style:normal;font-weight:normal;" transform="translate(324.217431 324.087558)rotate(-25)">Papunesia</text>
     </g>
    </g>
    <g id="xtick_6">
     <g id="line2d_6">
      <g>
       <use style="stroke:#000000;stroke-width:0.8;" x="413.613644" xlink:href="#m4e3b6340e3" y="291.322725"/>
      </g>
     </g>
     <g id="text_6">
      <text style="font-family:DejaVu Sans;font-size:9px;font-style:normal;font-weight:normal;" transform="translate(384.690884 332.473228)rotate(-25)">South America</text>
     </g>
    </g>
   </g>
   <g id="matplotlib.axis_2">
    <g id="ytick_1">
     <g id="line2d_7">
      <defs>
       <path d="M 0 0 
L -3.5 0 
" id="m31ee4a0d7a" style="stroke:#000000;stroke-width:0.8;"/>
      </defs>
      <g>
       <use style="stroke:#000000;stroke-width:0.8;" x="33.64" xlink:href="#m31ee4a0d7a" y="291.322725"/>
      </g>
     </g>
     <g id="text_7">
      <text style="font-family:DejaVu Sans;font-size:10px;font-style:normal;font-weight:normal;text-anchor:end;" transform="rotate(-0, 26.64, 295.121944)" x="26.64" y="295.121944">0.0</text>
     </g>
    </g>
    <g id="ytick_2">
     <g id="line2d_8">
      <g>
       <use style="stroke:#000000;stroke-width:0.8;" x="33.64" xlink:href="#m31ee4a0d7a" y="234.653832"/>
      </g>
     </g>
     <g id="text_8">
      <text style="font-family:DejaVu Sans;font-size:10px;font-style:normal;font-weight:normal;text-anchor:end;" transform="rotate(-0, 26.64, 238.453051)" x="26.64" y="238.453051">0.2</text>
     </g>
    </g>
    <g id="ytick_3">
     <g id="line2d_9">
      <g>
       <use style="stroke:#000000;stroke-width:0.8;" x="33.64" xlink:href="#m31ee4a0d7a" y="177.984939"/>
      </g>
     </g>
     <g id="text_9">
      <text style="font-family:DejaVu Sans;font-size:10px;font-style:normal;font-weight:normal;text-anchor:end;" transform="rotate(-0, 26.64, 181.784158)" x="26.64" y="181.784158">0.4</text>
     </g>
    </g>
    <g id="ytick_4">
     <g id="line2d_10">
      <g>
       <use style="stroke:#000000;stroke-width:0.8;" x="33.64" xlink:href="#m31ee4a0d7a" y="121.316046"/>
      </g>
     </g>
     <g id="text_10">
      <text style="font-family:DejaVu Sans;font-size:10px;font-style:normal;font-weight:normal;text-anchor:end;" transform="rotate(-0, 26.64, 125.115265)" x="26.64" y="125.115265">0.6</text>
     </g>
    </g>
    <g id="ytick_5">
     <g id="line2d_11">
      <g>
       <use style="stroke:#000000;stroke-width:0.8;" x="33.64" xlink:href="#m31ee4a0d7a" y="64.647153"/>
      </g>
     </g>
     <g id="text_11">
      <text style="font-family:DejaVu Sans;font-size:10px;font-style:normal;font-weight:normal;text-anchor:end;" transform="rotate(-0, 26.64, 68.446372)" x="26.64" y="68.446372">0.8</text>
     </g>
    </g>
   </g>
   <g id="patch_15">
    <path d="M 33.64 291.322725 
L 33.64 13.32 
" style="fill:none;stroke:#000000;stroke-linecap:square;stroke-linejoin:miter;stroke-width:0.8;"/>
   </g>
   <g id="patch_16">
    <path d="M 446.262202 291.322725 
L 446.262202 13.32 
" style="fill:none;stroke:#000000;stroke-linecap:square;stroke-linejoin:miter;stroke-width:0.8;"/>
   </g>
   <g id="patch_17">
    <path d="M 33.64 291.322725 
L 446.262202 291.322725 
" style="fill:none;stroke:#000000;stroke-linecap:square;stroke-linejoin:miter;stroke-width:0.8;"/>
   </g>
   <g id="patch_18">
    <path d="M 33.64 13.32 
L 446.262202 13.32 
" style="fill:none;stroke:#000000;stroke-linecap:square;stroke-linejoin:miter;stroke-width:0.8;"/>
   </g>
   <g id="legend_1">
    <g id="patch_19">
     <path d="M 373.826265 50.67625 
L 439.262202 50.67625 
Q 441.262202 50.67625 441.262202 48.67625 
L 441.262202 20.32 
Q 441.262202 18.32 439.262202 18.32 
L 373.826265 18.32 
Q 371.826265 18.32 371.826265 20.32 
L 371.826265 48.67625 
Q 371.826265 50.67625 373.826265 50.67625 
z
" style="fill:#ffffff;opacity:0.8;stroke:#cccccc;stroke-linejoin:miter;"/>
    </g>
    <g id="patch_20">
     <path d="M 375.826265 29.918437 
L 395.826265 29.918437 
L 395.826265 22.918437 
L 375.826265 22.918437 
z
" style="fill:#1f77b4;"/>
    </g>
    <g id="text_12">
     <text style="font-family:DejaVu Sans;font-size:10px;font-style:normal;font-weight:normal;text-anchor:start;" transform="rotate(-0, 403.826265, 29.918437)" x="403.826265" y="29.918437">Scores</text>
    </g>
    <g id="patch_21">
     <path d="M 375.826265 44.596563 
L 395.826265 44.596563 
L 395.826265 37.596563 
L 375.826265 37.596563 
z
" style="fill:#ff7f0e;"/>
    </g>
    <g id="text_13">
     <text style="font-family:DejaVu Sans;font-size:10px;font-style:normal;font-weight:normal;text-anchor:start;" transform="rotate(-0, 403.826265, 44.596563)" x="403.826265" y="44.596563">Bases</text>
    </g>
   </g>
  </g>
 </g>
 <defs>
  <clipPath id="pd4381078c1">
   <rect height="278.002725" width="412.622202" x="33.64" y="13.32"/>
  </clipPath>
 </defs>
</svg>
