<?xml version="1.0" encoding="utf-8" standalone="no"?>
<!DOCTYPE svg PUBLIC "-//W3C//DTD SVG 1.1//EN"
  "http://www.w3.org/Graphics/SVG/1.1/DTD/svg11.dtd">
<!-- Created with matplotlib (http://matplotlib.org/) -->
<svg height="345.6pt" version="1.1" viewBox="0 0 460.8 345.6" width="460.8pt" xmlns="http://www.w3.org/2000/svg" xmlns:xlink="http://www.w3.org/1999/xlink">
 <defs>
  <style type="text/css">
*{stroke-linecap:butt;stroke-linejoin:round;}
  </style>
 </defs>
 <g id="figure_1">
  <g id="patch_1">
   <path d="M 0 345.6 
L 460.8 345.6 
L 460.8 0 
L 0 0 
z
" style="fill:#ffffff;"/>
  </g>
  <g id="axes_1">
   <g id="patch_2">
    <path d="M 33.64 311.635539 
L 447.48 311.635539 
L 447.48 13.32 
L 33.64 13.32 
z
" style="fill:#ffffff;"/>
   </g>
   <g id="patch_3">
    <path clip-path="url(#p1112bb5c56)" d="M 52.450909 311.635539 
L 56.540237 311.635539 
L 56.540237 111.285358 
L 52.450909 111.285358 
z
" style="fill:#1f77b4;"/>
   </g>
   <g id="patch_4">
    <path clip-path="url(#p1112bb5c56)" d="M 72.897549 311.635539 
L 76.986877 311.635539 
L 76.986877 28.958685 
L 72.897549 28.958685 
z
" style="fill:#1f77b4;"/>
   </g>
   <g id="patch_5">
    <path clip-path="url(#p1112bb5c56)" d="M 93.34419 311.635539 
L 97.433518 311.635539 
L 97.433518 146.632356 
L 93.34419 146.632356 
z
" style="fill:#1f77b4;"/>
   </g>
   <g id="patch_6">
    <path clip-path="url(#p1112bb5c56)" d="M 113.79083 311.635539 
L 117.880158 311.635539 
L 117.880158 110.485026 
L 113.79083 110.485026 
z
" style="fill:#1f77b4;"/>
   </g>
   <g id="patch_7">
    <path clip-path="url(#p1112bb5c56)" d="M 134.23747 311.635539 
L 138.326798 311.635539 
L 138.326798 227.061475 
L 134.23747 227.061475 
z
" style="fill:#1f77b4;"/>
   </g>
   <g id="patch_8">
    <path clip-path="url(#p1112bb5c56)" d="M 154.684111 311.635539 
L 158.773439 311.635539 
L 158.773439 98.30694 
L 154.684111 98.30694 
z
" style="fill:#1f77b4;"/>
   </g>
   <g id="patch_9">
    <path clip-path="url(#p1112bb5c56)" d="M 175.130751 311.635539 
L 179.220079 311.635539 
L 179.220079 110.195257 
L 175.130751 110.195257 
z
" style="fill:#1f77b4;"/>
   </g>
   <g id="patch_10">
    <path clip-path="url(#p1112bb5c56)" d="M 195.577391 311.635539 
L 199.666719 311.635539 
L 199.666719 163.629494 
L 195.577391 163.629494 
z
" style="fill:#1f77b4;"/>
   </g>
   <g id="patch_11">
    <path clip-path="url(#p1112bb5c56)" d="M 216.024032 311.635539 
L 220.11336 311.635539 
L 220.11336 78.466671 
L 216.024032 78.466671 
z
" style="fill:#1f77b4;"/>
   </g>
   <g id="patch_12">
    <path clip-path="url(#p1112bb5c56)" d="M 236.470672 311.635539 
L 240.56 311.635539 
L 240.56 64.114595 
L 236.470672 64.114595 
z
" style="fill:#1f77b4;"/>
   </g>
   <g id="patch_13">
    <path clip-path="url(#p1112bb5c56)" d="M 256.917312 311.635539 
L 261.00664 311.635539 
L 261.00664 221.997872 
L 256.917312 221.997872 
z
" style="fill:#1f77b4;"/>
   </g>
   <g id="patch_14">
    <path clip-path="url(#p1112bb5c56)" d="M 277.363953 311.635539 
L 281.453281 311.635539 
L 281.453281 157.979071 
L 277.363953 157.979071 
z
" style="fill:#1f77b4;"/>
   </g>
   <g id="patch_15">
    <path clip-path="url(#p1112bb5c56)" d="M 297.810593 311.635539 
L 301.899921 311.635539 
L 301.899921 151.687149 
L 297.810593 151.687149 
z
" style="fill:#1f77b4;"/>
   </g>
   <g id="patch_16">
    <path clip-path="url(#p1112bb5c56)" d="M 318.257233 311.635539 
L 322.346561 311.635539 
L 322.346561 256.44699 
L 318.257233 256.44699 
z
" style="fill:#1f77b4;"/>
   </g>
   <g id="patch_17">
    <path clip-path="url(#p1112bb5c56)" d="M 338.703874 311.635539 
L 342.793202 311.635539 
L 342.793202 153.502909 
L 338.703874 153.502909 
z
" style="fill:#1f77b4;"/>
   </g>
   <g id="patch_18">
    <path clip-path="url(#p1112bb5c56)" d="M 359.150514 311.635539 
L 363.239842 311.635539 
L 363.239842 27.525502 
L 359.150514 27.525502 
z
" style="fill:#1f77b4;"/>
   </g>
   <g id="patch_19">
    <path clip-path="url(#p1112bb5c56)" d="M 379.597154 311.635539 
L 383.686482 311.635539 
L 383.686482 49.055629 
L 379.597154 49.055629 
z
" style="fill:#1f77b4;"/>
   </g>
   <g id="patch_20">
    <path clip-path="url(#p1112bb5c56)" d="M 400.043794 311.635539 
L 404.133123 311.635539 
L 404.133123 89.725751 
L 400.043794 89.725751 
z
" style="fill:#1f77b4;"/>
   </g>
   <g id="patch_21">
    <path clip-path="url(#p1112bb5c56)" d="M 420.490435 311.635539 
L 424.579763 311.635539 
L 424.579763 142.230512 
L 420.490435 142.230512 
z
" style="fill:#1f77b4;"/>
   </g>
   <g id="patch_22">
    <path clip-path="url(#p1112bb5c56)" d="M 56.540237 311.635539 
L 60.629565 311.635539 
L 60.629565 111.285358 
L 56.540237 111.285358 
z
" style="fill:#ff7f0e;"/>
   </g>
   <g id="patch_23">
    <path clip-path="url(#p1112bb5c56)" d="M 76.986877 311.635539 
L 81.076206 311.635539 
L 81.076206 28.958685 
L 76.986877 28.958685 
z
" style="fill:#ff7f0e;"/>
   </g>
   <g id="patch_24">
    <path clip-path="url(#p1112bb5c56)" d="M 97.433518 311.635539 
L 101.522846 311.635539 
L 101.522846 143.34288 
L 97.433518 143.34288 
z
" style="fill:#ff7f0e;"/>
   </g>
   <g id="patch_25">
    <path clip-path="url(#p1112bb5c56)" d="M 117.880158 311.635539 
L 121.969486 311.635539 
L 121.969486 110.485026 
L 117.880158 110.485026 
z
" style="fill:#ff7f0e;"/>
   </g>
   <g id="patch_26">
    <path clip-path="url(#p1112bb5c56)" d="M 138.326798 311.635539 
L 142.416126 311.635539 
L 142.416126 243.058553 
L 138.326798 243.058553 
z
" style="fill:#ff7f0e;"/>
   </g>
   <g id="patch_27">
    <path clip-path="url(#p1112bb5c56)" d="M 158.773439 311.635539 
L 162.862767 311.635539 
L 162.862767 97.57492 
L 158.773439 97.57492 
z
" style="fill:#ff7f0e;"/>
   </g>
   <g id="patch_28">
    <path clip-path="url(#p1112bb5c56)" d="M 179.220079 311.635539 
L 183.309407 311.635539 
L 183.309407 110.195257 
L 179.220079 110.195257 
z
" style="fill:#ff7f0e;"/>
   </g>
   <g id="patch_29">
    <path clip-path="url(#p1112bb5c56)" d="M 199.666719 311.635539 
L 203.756047 311.635539 
L 203.756047 155.152395 
L 199.666719 155.152395 
z
" style="fill:#ff7f0e;"/>
   </g>
   <g id="patch_30">
    <path clip-path="url(#p1112bb5c56)" d="M 220.11336 311.635539 
L 224.202688 311.635539 
L 224.202688 78.466671 
L 220.11336 78.466671 
z
" style="fill:#ff7f0e;"/>
   </g>
   <g id="patch_31">
    <path clip-path="url(#p1112bb5c56)" d="M 240.56 311.635539 
L 244.649328 311.635539 
L 244.649328 64.114595 
L 240.56 64.114595 
z
" style="fill:#ff7f0e;"/>
   </g>
   <g id="patch_32">
    <path clip-path="url(#p1112bb5c56)" d="M 261.00664 311.635539 
L 265.095968 311.635539 
L 265.095968 243.017894 
L 261.00664 243.017894 
z
" style="fill:#ff7f0e;"/>
   </g>
   <g id="patch_33">
    <path clip-path="url(#p1112bb5c56)" d="M 281.453281 311.635539 
L 285.542609 311.635539 
L 285.542609 153.216125 
L 281.453281 153.216125 
z
" style="fill:#ff7f0e;"/>
   </g>
   <g id="patch_34">
    <path clip-path="url(#p1112bb5c56)" d="M 301.899921 311.635539 
L 305.989249 311.635539 
L 305.989249 148.235675 
L 301.899921 148.235675 
z
" style="fill:#ff7f0e;"/>
   </g>
   <g id="patch_35">
    <path clip-path="url(#p1112bb5c56)" d="M 322.346561 311.635539 
L 326.435889 311.635539 
L 326.435889 223.111201 
L 322.346561 223.111201 
z
" style="fill:#ff7f0e;"/>
   </g>
   <g id="patch_36">
    <path clip-path="url(#p1112bb5c56)" d="M 342.793202 311.635539 
L 346.88253 311.635539 
L 346.88253 257.474095 
L 342.793202 257.474095 
z
" style="fill:#ff7f0e;"/>
   </g>
   <g id="patch_37">
    <path clip-path="url(#p1112bb5c56)" d="M 363.239842 311.635539 
L 367.32917 311.635539 
L 367.32917 27.525502 
L 363.239842 27.525502 
z
" style="fill:#ff7f0e;"/>
   </g>
   <g id="patch_38">
    <path clip-path="url(#p1112bb5c56)" d="M 383.686482 311.635539 
L 387.77581 311.635539 
L 387.77581 49.055629 
L 383.686482 49.055629 
z
" style="fill:#ff7f0e;"/>
   </g>
   <g id="patch_39">
    <path clip-path="url(#p1112bb5c56)" d="M 404.133123 311.635539 
L 408.222451 311.635539 
L 408.222451 87.705376 
L 404.133123 87.705376 
z
" style="fill:#ff7f0e;"/>
   </g>
   <g id="patch_40">
    <path clip-path="url(#p1112bb5c56)" d="M 424.579763 311.635539 
L 428.669091 311.635539 
L 428.669091 136.88246 
L 424.579763 136.88246 
z
" style="fill:#ff7f0e;"/>
   </g>
   <g id="matplotlib.axis_1">
    <g id="xtick_1">
     <g id="line2d_1">
      <defs>
       <path d="M 0 0 
L 0 3.5 
" id="m01e9222fff" style="stroke:#000000;stroke-width:0.8;"/>
      </defs>
      <g>
       <use style="stroke:#000000;stroke-width:0.8;" x="56.540237" xlink:href="#m01e9222fff" y="311.635539"/>
      </g>
     </g>
     <g id="text_1">
      <text style="font-family:DejaVu Sans;font-size:8px;font-style:normal;font-weight:normal;" transform="translate(52.567181 334.001853)rotate(-45)">10A</text>
     </g>
    </g>
    <g id="xtick_2">
     <g id="line2d_2">
      <g>
       <use style="stroke:#000000;stroke-width:0.8;" x="76.986877" xlink:href="#m01e9222fff" y="311.635539"/>
      </g>
     </g>
     <g id="text_2">
      <text style="font-family:DejaVu Sans;font-size:8px;font-style:normal;font-weight:normal;" transform="translate(73.013821 334.001853)rotate(-45)">11A</text>
     </g>
    </g>
    <g id="xtick_3">
     <g id="line2d_3">
      <g>
       <use style="stroke:#000000;stroke-width:0.8;" x="97.433518" xlink:href="#m01e9222fff" y="311.635539"/>
      </g>
     </g>
     <g id="text_3">
      <text style="font-family:DejaVu Sans;font-size:8px;font-style:normal;font-weight:normal;" transform="translate(93.460462 334.001853)rotate(-45)">12A</text>
     </g>
    </g>
    <g id="xtick_4">
     <g id="line2d_4">
      <g>
       <use style="stroke:#000000;stroke-width:0.8;" x="117.880158" xlink:href="#m01e9222fff" y="311.635539"/>
      </g>
     </g>
     <g id="text_4">
      <text style="font-family:DejaVu Sans;font-size:8px;font-style:normal;font-weight:normal;" transform="translate(113.907102 334.001853)rotate(-45)">13A</text>
     </g>
    </g>
    <g id="xtick_5">
     <g id="line2d_5">
      <g>
       <use style="stroke:#000000;stroke-width:0.8;" x="138.326798" xlink:href="#m01e9222fff" y="311.635539"/>
      </g>
     </g>
     <g id="text_5">
      <text style="font-family:DejaVu Sans;font-size:8px;font-style:normal;font-weight:normal;" transform="translate(134.353742 334.001853)rotate(-45)">14A</text>
     </g>
    </g>
    <g id="xtick_6">
     <g id="line2d_6">
      <g>
       <use style="stroke:#000000;stroke-width:0.8;" x="158.773439" xlink:href="#m01e9222fff" y="311.635539"/>
      </g>
     </g>
     <g id="text_6">
      <text style="font-family:DejaVu Sans;font-size:8px;font-style:normal;font-weight:normal;" transform="translate(154.800383 334.001853)rotate(-45)">15A</text>
     </g>
    </g>
    <g id="xtick_7">
     <g id="line2d_7">
      <g>
       <use style="stroke:#000000;stroke-width:0.8;" x="179.220079" xlink:href="#m01e9222fff" y="311.635539"/>
      </g>
     </g>
     <g id="text_7">
      <text style="font-family:DejaVu Sans;font-size:8px;font-style:normal;font-weight:normal;" transform="translate(175.247023 334.001853)rotate(-45)">16A</text>
     </g>
    </g>
    <g id="xtick_8">
     <g id="line2d_8">
      <g>
       <use style="stroke:#000000;stroke-width:0.8;" x="199.666719" xlink:href="#m01e9222fff" y="311.635539"/>
      </g>
     </g>
     <g id="text_8">
      <text style="font-family:DejaVu Sans;font-size:8px;font-style:normal;font-weight:normal;" transform="translate(195.693663 334.001853)rotate(-45)">17A</text>
     </g>
    </g>
    <g id="xtick_9">
     <g id="line2d_9">
      <g>
       <use style="stroke:#000000;stroke-width:0.8;" x="220.11336" xlink:href="#m01e9222fff" y="311.635539"/>
      </g>
     </g>
     <g id="text_9">
      <text style="font-family:DejaVu Sans;font-size:8px;font-style:normal;font-weight:normal;" transform="translate(216.140303 334.001853)rotate(-45)">18A</text>
     </g>
    </g>
    <g id="xtick_10">
     <g id="line2d_10">
      <g>
       <use style="stroke:#000000;stroke-width:0.8;" x="240.56" xlink:href="#m01e9222fff" y="311.635539"/>
      </g>
     </g>
     <g id="text_10">
      <text style="font-family:DejaVu Sans;font-size:8px;font-style:normal;font-weight:normal;" transform="translate(236.586944 334.001853)rotate(-45)">19A</text>
     </g>
    </g>
    <g id="xtick_11">
     <g id="line2d_11">
      <g>
       <use style="stroke:#000000;stroke-width:0.8;" x="261.00664" xlink:href="#m01e9222fff" y="311.635539"/>
      </g>
     </g>
     <g id="text_11">
      <text style="font-family:DejaVu Sans;font-size:8px;font-style:normal;font-weight:normal;" transform="translate(258.833171 330.40268)rotate(-45)">1A</text>
     </g>
    </g>
    <g id="xtick_12">
     <g id="line2d_12">
      <g>
       <use style="stroke:#000000;stroke-width:0.8;" x="281.453281" xlink:href="#m01e9222fff" y="311.635539"/>
      </g>
     </g>
     <g id="text_12">
      <text style="font-family:DejaVu Sans;font-size:8px;font-style:normal;font-weight:normal;" transform="translate(279.279811 330.40268)rotate(-45)">2A</text>
     </g>
    </g>
    <g id="xtick_13">
     <g id="line2d_13">
      <g>
       <use style="stroke:#000000;stroke-width:0.8;" x="301.899921" xlink:href="#m01e9222fff" y="311.635539"/>
      </g>
     </g>
     <g id="text_13">
      <text style="font-family:DejaVu Sans;font-size:8px;font-style:normal;font-weight:normal;" transform="translate(299.726451 330.40268)rotate(-45)">3A</text>
     </g>
    </g>
    <g id="xtick_14">
     <g id="line2d_14">
      <g>
       <use style="stroke:#000000;stroke-width:0.8;" x="322.346561" xlink:href="#m01e9222fff" y="311.635539"/>
      </g>
     </g>
     <g id="text_14">
      <text style="font-family:DejaVu Sans;font-size:8px;font-style:normal;font-weight:normal;" transform="translate(320.173092 330.40268)rotate(-45)">4A</text>
     </g>
    </g>
    <g id="xtick_15">
     <g id="line2d_15">
      <g>
       <use style="stroke:#000000;stroke-width:0.8;" x="342.793202" xlink:href="#m01e9222fff" y="311.635539"/>
      </g>
     </g>
     <g id="text_15">
      <text style="font-family:DejaVu Sans;font-size:8px;font-style:normal;font-weight:normal;" transform="translate(340.619732 330.40268)rotate(-45)">5A</text>
     </g>
    </g>
    <g id="xtick_16">
     <g id="line2d_16">
      <g>
       <use style="stroke:#000000;stroke-width:0.8;" x="363.239842" xlink:href="#m01e9222fff" y="311.635539"/>
      </g>
     </g>
     <g id="text_16">
      <text style="font-family:DejaVu Sans;font-size:8px;font-style:normal;font-weight:normal;" transform="translate(361.066372 330.40268)rotate(-45)">6A</text>
     </g>
    </g>
    <g id="xtick_17">
     <g id="line2d_17">
      <g>
       <use style="stroke:#000000;stroke-width:0.8;" x="383.686482" xlink:href="#m01e9222fff" y="311.635539"/>
      </g>
     </g>
     <g id="text_17">
      <text style="font-family:DejaVu Sans;font-size:8px;font-style:normal;font-weight:normal;" transform="translate(381.513013 330.40268)rotate(-45)">7A</text>
     </g>
    </g>
    <g id="xtick_18">
     <g id="line2d_18">
      <g>
       <use style="stroke:#000000;stroke-width:0.8;" x="404.133123" xlink:href="#m01e9222fff" y="311.635539"/>
      </g>
     </g>
     <g id="text_18">
      <text style="font-family:DejaVu Sans;font-size:8px;font-style:normal;font-weight:normal;" transform="translate(401.959653 330.40268)rotate(-45)">8A</text>
     </g>
    </g>
    <g id="xtick_19">
     <g id="line2d_19">
      <g>
       <use style="stroke:#000000;stroke-width:0.8;" x="424.579763" xlink:href="#m01e9222fff" y="311.635539"/>
      </g>
     </g>
     <g id="text_19">
      <text style="font-family:DejaVu Sans;font-size:8px;font-style:normal;font-weight:normal;" transform="translate(422.406293 330.40268)rotate(-45)">9A</text>
     </g>
    </g>
   </g>
   <g id="matplotlib.axis_2">
    <g id="ytick_1">
     <g id="line2d_20">
      <defs>
       <path d="M 0 0 
L -3.5 0 
" id="m0ad8b20986" style="stroke:#000000;stroke-width:0.8;"/>
      </defs>
      <g>
       <use style="stroke:#000000;stroke-width:0.8;" x="33.64" xlink:href="#m0ad8b20986" y="311.635539"/>
      </g>
     </g>
     <g id="text_20">
      <text style="font-family:DejaVu Sans;font-size:10px;font-style:normal;font-weight:normal;text-anchor:end;" transform="rotate(-0, 26.64, 315.434758)" x="26.64" y="315.434758">0.0</text>
     </g>
    </g>
    <g id="ytick_2">
     <g id="line2d_21">
      <g>
       <use style="stroke:#000000;stroke-width:0.8;" x="33.64" xlink:href="#m0ad8b20986" y="251.024281"/>
      </g>
     </g>
     <g id="text_21">
      <text style="font-family:DejaVu Sans;font-size:10px;font-style:normal;font-weight:normal;text-anchor:end;" transform="rotate(-0, 26.64, 254.823499)" x="26.64" y="254.823499">0.2</text>
     </g>
    </g>
    <g id="ytick_3">
     <g id="line2d_22">
      <g>
       <use style="stroke:#000000;stroke-width:0.8;" x="33.64" xlink:href="#m0ad8b20986" y="190.413022"/>
      </g>
     </g>
     <g id="text_22">
      <text style="font-family:DejaVu Sans;font-size:10px;font-style:normal;font-weight:normal;text-anchor:end;" transform="rotate(-0, 26.64, 194.212241)" x="26.64" y="194.212241">0.4</text>
     </g>
    </g>
    <g id="ytick_4">
     <g id="line2d_23">
      <g>
       <use style="stroke:#000000;stroke-width:0.8;" x="33.64" xlink:href="#m0ad8b20986" y="129.801764"/>
      </g>
     </g>
     <g id="text_23">
      <text style="font-family:DejaVu Sans;font-size:10px;font-style:normal;font-weight:normal;text-anchor:end;" transform="rotate(-0, 26.64, 133.600983)" x="26.64" y="133.600983">0.6</text>
     </g>
    </g>
    <g id="ytick_5">
     <g id="line2d_24">
      <g>
       <use style="stroke:#000000;stroke-width:0.8;" x="33.64" xlink:href="#m0ad8b20986" y="69.190506"/>
      </g>
     </g>
     <g id="text_24">
      <text style="font-family:DejaVu Sans;font-size:10px;font-style:normal;font-weight:normal;text-anchor:end;" transform="rotate(-0, 26.64, 72.989724)" x="26.64" y="72.989724">0.8</text>
     </g>
    </g>
   </g>
   <g id="patch_41">
    <path d="M 33.64 311.635539 
L 33.64 13.32 
" style="fill:none;stroke:#000000;stroke-linecap:square;stroke-linejoin:miter;stroke-width:0.8;"/>
   </g>
   <g id="patch_42">
    <path d="M 447.48 311.635539 
L 447.48 13.32 
" style="fill:none;stroke:#000000;stroke-linecap:square;stroke-linejoin:miter;stroke-width:0.8;"/>
   </g>
   <g id="patch_43">
    <path d="M 33.64 311.635539 
L 447.48 311.635539 
" style="fill:none;stroke:#000000;stroke-linecap:square;stroke-linejoin:miter;stroke-width:0.8;"/>
   </g>
   <g id="patch_44">
    <path d="M 33.64 13.32 
L 447.48 13.32 
" style="fill:none;stroke:#000000;stroke-linecap:square;stroke-linejoin:miter;stroke-width:0.8;"/>
   </g>
   <g id="legend_1">
    <g id="patch_45">
     <path d="M 207.842031 50.67625 
L 273.277969 50.67625 
Q 275.277969 50.67625 275.277969 48.67625 
L 275.277969 20.32 
Q 275.277969 18.32 273.277969 18.32 
L 207.842031 18.32 
Q 205.842031 18.32 205.842031 20.32 
L 205.842031 48.67625 
Q 205.842031 50.67625 207.842031 50.67625 
z
" style="fill:#ffffff;opacity:0.8;stroke:#cccccc;stroke-linejoin:miter;"/>
    </g>
    <g id="patch_46">
     <path d="M 209.842031 29.918437 
L 229.842031 29.918437 
L 229.842031 22.918437 
L 209.842031 22.918437 
z
" style="fill:#1f77b4;"/>
    </g>
    <g id="text_25">
     <text style="font-family:DejaVu Sans;font-size:10px;font-style:normal;font-weight:normal;text-anchor:start;" transform="rotate(-0, 237.842031, 29.918437)" x="237.842031" y="29.918437">Scores</text>
    </g>
    <g id="patch_47">
     <path d="M 209.842031 44.596562 
L 229.842031 44.596562 
L 229.842031 37.596562 
L 209.842031 37.596562 
z
" style="fill:#ff7f0e;"/>
    </g>
    <g id="text_26">
     <text style="font-family:DejaVu Sans;font-size:10px;font-style:normal;font-weight:normal;text-anchor:start;" transform="rotate(-0, 237.842031, 44.596562)" x="237.842031" y="44.596562">Bases</text>
    </g>
   </g>
  </g>
 </g>
 <defs>
  <clipPath id="p1112bb5c56">
   <rect height="298.315539" width="413.84" x="33.64" y="13.32"/>
  </clipPath>
 </defs>
</svg>
