<?xml version="1.0" encoding="utf-8" standalone="no"?>
<!DOCTYPE svg PUBLIC "-//W3C//DTD SVG 1.1//EN"
  "http://www.w3.org/Graphics/SVG/1.1/DTD/svg11.dtd">
<!-- Created with matplotlib (http://matplotlib.org/) -->
<svg height="345.6pt" version="1.1" viewBox="0 0 460.8 345.6" width="460.8pt" xmlns="http://www.w3.org/2000/svg" xmlns:xlink="http://www.w3.org/1999/xlink">
 <defs>
  <style type="text/css">
*{stroke-linecap:butt;stroke-linejoin:round;}
  </style>
 </defs>
 <g id="figure_1">
  <g id="patch_1">
   <path d="M 0 345.6 
L 460.8 345.6 
L 460.8 0 
L 0 0 
z
" style="fill:#ffffff;"/>
  </g>
  <g id="axes_1">
   <g id="patch_2">
    <path d="M 57.6 307.584 
L 414.72 307.584 
L 414.72 41.472 
L 57.6 41.472 
z
" style="fill:#ffffff;"/>
   </g>
   <g id="patch_3">
    <path clip-path="url(#pd65ab23b4c)" d="M 73.832727 307.584 
L 80.740271 307.584 
L 80.740271 62.152739 
L 73.832727 62.152739 
z
" style="fill:#1f77b4;"/>
   </g>
   <g id="patch_4">
    <path clip-path="url(#pd65ab23b4c)" d="M 108.370445 307.584 
L 115.277988 307.584 
L 115.277988 94.053913 
L 108.370445 94.053913 
z
" style="fill:#1f77b4;"/>
   </g>
   <g id="patch_5">
    <path clip-path="url(#pd65ab23b4c)" d="M 142.908162 307.584 
L 149.815706 307.584 
L 149.815706 90.600259 
L 142.908162 90.600259 
z
" style="fill:#1f77b4;"/>
   </g>
   <g id="patch_6">
    <path clip-path="url(#pd65ab23b4c)" d="M 177.44588 307.584 
L 184.353424 307.584 
L 184.353424 80.908571 
L 177.44588 80.908571 
z
" style="fill:#1f77b4;"/>
   </g>
   <g id="patch_7">
    <path clip-path="url(#pd65ab23b4c)" d="M 211.983598 307.584 
L 218.891141 307.584 
L 218.891141 81.008071 
L 211.983598 81.008071 
z
" style="fill:#1f77b4;"/>
   </g>
   <g id="patch_8">
    <path clip-path="url(#pd65ab23b4c)" d="M 246.521315 307.584 
L 253.428859 307.584 
L 253.428859 94.701969 
L 246.521315 94.701969 
z
" style="fill:#1f77b4;"/>
   </g>
   <g id="patch_9">
    <path clip-path="url(#pd65ab23b4c)" d="M 281.059033 307.584 
L 287.966576 307.584 
L 287.966576 91.918068 
L 281.059033 91.918068 
z
" style="fill:#1f77b4;"/>
   </g>
   <g id="patch_10">
    <path clip-path="url(#pd65ab23b4c)" d="M 315.59675 307.584 
L 322.504294 307.584 
L 322.504294 54.144 
L 315.59675 54.144 
z
" style="fill:#1f77b4;"/>
   </g>
   <g id="patch_11">
    <path clip-path="url(#pd65ab23b4c)" d="M 350.134468 307.584 
L 357.042012 307.584 
L 357.042012 124.614415 
L 350.134468 124.614415 
z
" style="fill:#1f77b4;"/>
   </g>
   <g id="patch_12">
    <path clip-path="url(#pd65ab23b4c)" d="M 384.672186 307.584 
L 391.579729 307.584 
L 391.579729 68.767265 
L 384.672186 68.767265 
z
" style="fill:#1f77b4;"/>
   </g>
   <g id="patch_13">
    <path clip-path="url(#pd65ab23b4c)" d="M 80.740271 307.584 
L 87.647814 307.584 
L 87.647814 74.265681 
L 80.740271 74.265681 
z
" style="fill:#ff7f0e;"/>
   </g>
   <g id="patch_14">
    <path clip-path="url(#pd65ab23b4c)" d="M 115.277988 307.584 
L 122.185532 307.584 
L 122.185532 87.252087 
L 115.277988 87.252087 
z
" style="fill:#ff7f0e;"/>
   </g>
   <g id="patch_15">
    <path clip-path="url(#pd65ab23b4c)" d="M 149.815706 307.584 
L 156.72325 307.584 
L 156.72325 93.714495 
L 149.815706 93.714495 
z
" style="fill:#ff7f0e;"/>
   </g>
   <g id="patch_16">
    <path clip-path="url(#pd65ab23b4c)" d="M 184.353424 307.584 
L 191.260967 307.584 
L 191.260967 73.333657 
L 184.353424 73.333657 
z
" style="fill:#ff7f0e;"/>
   </g>
   <g id="patch_17">
    <path clip-path="url(#pd65ab23b4c)" d="M 218.891141 307.584 
L 225.798685 307.584 
L 225.798685 90.830988 
L 218.891141 90.830988 
z
" style="fill:#ff7f0e;"/>
   </g>
   <g id="patch_18">
    <path clip-path="url(#pd65ab23b4c)" d="M 253.428859 307.584 
L 260.336402 307.584 
L 260.336402 84.566694 
L 253.428859 84.566694 
z
" style="fill:#ff7f0e;"/>
   </g>
   <g id="patch_19">
    <path clip-path="url(#pd65ab23b4c)" d="M 287.966576 307.584 
L 294.87412 307.584 
L 294.87412 89.591437 
L 287.966576 89.591437 
z
" style="fill:#ff7f0e;"/>
   </g>
   <g id="patch_20">
    <path clip-path="url(#pd65ab23b4c)" d="M 322.504294 307.584 
L 329.411838 307.584 
L 329.411838 54.144 
L 322.504294 54.144 
z
" style="fill:#ff7f0e;"/>
   </g>
   <g id="patch_21">
    <path clip-path="url(#pd65ab23b4c)" d="M 357.042012 307.584 
L 363.949555 307.584 
L 363.949555 111.752894 
L 357.042012 111.752894 
z
" style="fill:#ff7f0e;"/>
   </g>
   <g id="patch_22">
    <path clip-path="url(#pd65ab23b4c)" d="M 391.579729 307.584 
L 398.487273 307.584 
L 398.487273 65.965633 
L 391.579729 65.965633 
z
" style="fill:#ff7f0e;"/>
   </g>
   <g id="matplotlib.axis_1">
    <g id="xtick_1">
     <g id="line2d_1">
      <defs>
       <path d="M 0 0 
L 0 3.5 
" id="ma6a25421a6" style="stroke:#000000;stroke-width:0.8;"/>
      </defs>
      <g>
       <use style="stroke:#000000;stroke-width:0.8;" x="80.740271" xlink:href="#ma6a25421a6" y="307.584"/>
      </g>
     </g>
     <g id="text_1">
      <text style="font-family:DejaVu Sans;font-size:9px;font-style:normal;font-weight:normal;" transform="translate(46.995469 339.617814)rotate(-15)">Nominal Syntax</text>
     </g>
    </g>
    <g id="xtick_2">
     <g id="line2d_2">
      <g>
       <use style="stroke:#000000;stroke-width:0.8;" x="115.277988" xlink:href="#ma6a25421a6" y="307.584"/>
      </g>
     </g>
     <g id="text_2">
      <text style="font-family:DejaVu Sans;font-size:9px;font-style:normal;font-weight:normal;" transform="translate(99.241097 330.128173)rotate(-15)">Lexicon</text>
     </g>
    </g>
    <g id="xtick_3">
     <g id="line2d_3">
      <g>
       <use style="stroke:#000000;stroke-width:0.8;" x="149.815706" xlink:href="#ma6a25421a6" y="307.584"/>
      </g>
     </g>
     <g id="text_3">
      <text style="font-family:DejaVu Sans;font-size:9px;font-style:normal;font-weight:normal;" transform="translate(125.148645 334.753067)rotate(-15)">Word Order</text>
     </g>
    </g>
    <g id="xtick_4">
     <g id="line2d_4">
      <g>
       <use style="stroke:#000000;stroke-width:0.8;" x="184.353424" xlink:href="#ma6a25421a6" y="307.584"/>
      </g>
     </g>
     <g id="text_4">
      <text style="font-family:DejaVu Sans;font-size:9px;font-style:normal;font-weight:normal;" transform="translate(159.426241 334.892466)rotate(-15)">Morphology</text>
     </g>
    </g>
    <g id="xtick_5">
     <g id="line2d_5">
      <g>
       <use style="stroke:#000000;stroke-width:0.8;" x="218.891141" xlink:href="#ma6a25421a6" y="307.584"/>
      </g>
     </g>
     <g id="text_5">
      <text style="font-family:DejaVu Sans;font-size:9px;font-style:normal;font-weight:normal;" transform="translate(196.885054 333.327055)rotate(-15)">Phonology</text>
     </g>
    </g>
    <g id="xtick_6">
     <g id="line2d_6">
      <g>
       <use style="stroke:#000000;stroke-width:0.8;" x="253.428859" xlink:href="#ma6a25421a6" y="307.584"/>
      </g>
     </g>
     <g id="text_6">
      <text style="font-family:DejaVu Sans;font-size:9px;font-style:normal;font-weight:normal;" transform="translate(215.19952 342.02107)rotate(-15)">Verbal Categories</text>
     </g>
    </g>
    <g id="xtick_7">
     <g id="line2d_7">
      <g>
       <use style="stroke:#000000;stroke-width:0.8;" x="287.966576" xlink:href="#ma6a25421a6" y="307.584"/>
      </g>
     </g>
     <g id="text_7">
      <text style="font-family:DejaVu Sans;font-size:9px;font-style:normal;font-weight:normal;" transform="translate(255.52102 338.92155)rotate(-15)">Simple Clauses</text>
     </g>
    </g>
    <g id="xtick_8">
     <g id="line2d_8">
      <g>
       <use style="stroke:#000000;stroke-width:0.8;" x="322.504294" xlink:href="#ma6a25421a6" y="307.584"/>
      </g>
     </g>
     <g id="text_8">
      <text style="font-family:DejaVu Sans;font-size:9px;font-style:normal;font-weight:normal;" transform="translate(310.80524 327.803533)rotate(-15)">Other</text>
     </g>
    </g>
    <g id="xtick_9">
     <g id="line2d_9">
      <g>
       <use style="stroke:#000000;stroke-width:0.8;" x="357.042012" xlink:href="#ma6a25421a6" y="307.584"/>
      </g>
     </g>
     <g id="text_9">
      <text style="font-family:DejaVu Sans;font-size:9px;font-style:normal;font-weight:normal;" transform="translate(314.89456 344.12078)rotate(-15)">Nominal Categories</text>
     </g>
    </g>
    <g id="xtick_10">
     <g id="line2d_10">
      <g>
       <use style="stroke:#000000;stroke-width:0.8;" x="391.579729" xlink:href="#ma6a25421a6" y="307.584"/>
      </g>
     </g>
     <g id="text_10">
      <text style="font-family:DejaVu Sans;font-size:9px;font-style:normal;font-weight:normal;" transform="translate(349.04787 344.326784)rotate(-15)">Complex Sentences</text>
     </g>
    </g>
   </g>
   <g id="matplotlib.axis_2">
    <g id="ytick_1">
     <g id="line2d_11">
      <defs>
       <path d="M 0 0 
L -3.5 0 
" id="mdeddd6a24f" style="stroke:#000000;stroke-width:0.8;"/>
      </defs>
      <g>
       <use style="stroke:#000000;stroke-width:0.8;" x="57.6" xlink:href="#mdeddd6a24f" y="307.584"/>
      </g>
     </g>
     <g id="text_11">
      <text style="font-family:DejaVu Sans;font-size:10px;font-style:normal;font-weight:normal;text-anchor:end;" transform="rotate(-0, 50.6, 311.383219)" x="50.6" y="311.383219">0.0</text>
     </g>
    </g>
    <g id="ytick_2">
     <g id="line2d_12">
      <g>
       <use style="stroke:#000000;stroke-width:0.8;" x="57.6" xlink:href="#mdeddd6a24f" y="266.4"/>
      </g>
     </g>
     <g id="text_12">
      <text style="font-family:DejaVu Sans;font-size:10px;font-style:normal;font-weight:normal;text-anchor:end;" transform="rotate(-0, 50.6, 270.199219)" x="50.6" y="270.199219">0.1</text>
     </g>
    </g>
    <g id="ytick_3">
     <g id="line2d_13">
      <g>
       <use style="stroke:#000000;stroke-width:0.8;" x="57.6" xlink:href="#mdeddd6a24f" y="225.216"/>
      </g>
     </g>
     <g id="text_13">
      <text style="font-family:DejaVu Sans;font-size:10px;font-style:normal;font-weight:normal;text-anchor:end;" transform="rotate(-0, 50.6, 229.015219)" x="50.6" y="229.015219">0.2</text>
     </g>
    </g>
    <g id="ytick_4">
     <g id="line2d_14">
      <g>
       <use style="stroke:#000000;stroke-width:0.8;" x="57.6" xlink:href="#mdeddd6a24f" y="184.032"/>
      </g>
     </g>
     <g id="text_14">
      <text style="font-family:DejaVu Sans;font-size:10px;font-style:normal;font-weight:normal;text-anchor:end;" transform="rotate(-0, 50.6, 187.831219)" x="50.6" y="187.831219">0.3</text>
     </g>
    </g>
    <g id="ytick_5">
     <g id="line2d_15">
      <g>
       <use style="stroke:#000000;stroke-width:0.8;" x="57.6" xlink:href="#mdeddd6a24f" y="142.848"/>
      </g>
     </g>
     <g id="text_15">
      <text style="font-family:DejaVu Sans;font-size:10px;font-style:normal;font-weight:normal;text-anchor:end;" transform="rotate(-0, 50.6, 146.647219)" x="50.6" y="146.647219">0.4</text>
     </g>
    </g>
    <g id="ytick_6">
     <g id="line2d_16">
      <g>
       <use style="stroke:#000000;stroke-width:0.8;" x="57.6" xlink:href="#mdeddd6a24f" y="101.664"/>
      </g>
     </g>
     <g id="text_16">
      <text style="font-family:DejaVu Sans;font-size:10px;font-style:normal;font-weight:normal;text-anchor:end;" transform="rotate(-0, 50.6, 105.463219)" x="50.6" y="105.463219">0.5</text>
     </g>
    </g>
    <g id="ytick_7">
     <g id="line2d_17">
      <g>
       <use style="stroke:#000000;stroke-width:0.8;" x="57.6" xlink:href="#mdeddd6a24f" y="60.48"/>
      </g>
     </g>
     <g id="text_17">
      <text style="font-family:DejaVu Sans;font-size:10px;font-style:normal;font-weight:normal;text-anchor:end;" transform="rotate(-0, 50.6, 64.279219)" x="50.6" y="64.279219">0.6</text>
     </g>
    </g>
   </g>
   <g id="patch_23">
    <path d="M 57.6 307.584 
L 57.6 41.472 
" style="fill:none;stroke:#000000;stroke-linecap:square;stroke-linejoin:miter;stroke-width:0.8;"/>
   </g>
   <g id="patch_24">
    <path d="M 414.72 307.584 
L 414.72 41.472 
" style="fill:none;stroke:#000000;stroke-linecap:square;stroke-linejoin:miter;stroke-width:0.8;"/>
   </g>
   <g id="patch_25">
    <path d="M 57.6 307.584 
L 414.72 307.584 
" style="fill:none;stroke:#000000;stroke-linecap:square;stroke-linejoin:miter;stroke-width:0.8;"/>
   </g>
   <g id="patch_26">
    <path d="M 57.6 41.472 
L 414.72 41.472 
" style="fill:none;stroke:#000000;stroke-linecap:square;stroke-linejoin:miter;stroke-width:0.8;"/>
   </g>
   <g id="legend_1">
    <g id="patch_27">
     <path d="M 203.442031 78.82825 
L 268.877969 78.82825 
Q 270.877969 78.82825 270.877969 76.82825 
L 270.877969 48.472 
Q 270.877969 46.472 268.877969 46.472 
L 203.442031 46.472 
Q 201.442031 46.472 201.442031 48.472 
L 201.442031 76.82825 
Q 201.442031 78.82825 203.442031 78.82825 
z
" style="fill:#ffffff;opacity:0.8;stroke:#cccccc;stroke-linejoin:miter;"/>
    </g>
    <g id="patch_28">
     <path d="M 205.442031 58.070437 
L 225.442031 58.070437 
L 225.442031 51.070437 
L 205.442031 51.070437 
z
" style="fill:#1f77b4;"/>
    </g>
    <g id="text_18">
     <text style="font-family:DejaVu Sans;font-size:10px;font-style:normal;font-weight:normal;text-anchor:start;" transform="rotate(-0, 233.442031, 58.070437)" x="233.442031" y="58.070437">Scores</text>
    </g>
    <g id="patch_29">
     <path d="M 205.442031 72.748562 
L 225.442031 72.748562 
L 225.442031 65.748562 
L 205.442031 65.748562 
z
" style="fill:#ff7f0e;"/>
    </g>
    <g id="text_19">
     <text style="font-family:DejaVu Sans;font-size:10px;font-style:normal;font-weight:normal;text-anchor:start;" transform="rotate(-0, 233.442031, 72.748562)" x="233.442031" y="72.748562">Bases</text>
    </g>
   </g>
  </g>
 </g>
 <defs>
  <clipPath id="pd65ab23b4c">
   <rect height="266.112" width="357.12" x="57.6" y="41.472"/>
  </clipPath>
 </defs>
</svg>
