<?xml version="1.0" encoding="utf-8" standalone="no"?>
<!DOCTYPE svg PUBLIC "-//W3C//DTD SVG 1.1//EN"
  "http://www.w3.org/Graphics/SVG/1.1/DTD/svg11.dtd">
<!-- Created with matplotlib (http://matplotlib.org/) -->
<svg height="345.6pt" version="1.1" viewBox="0 0 460.8 345.6" width="460.8pt" xmlns="http://www.w3.org/2000/svg" xmlns:xlink="http://www.w3.org/1999/xlink">
 <defs>
  <style type="text/css">
*{stroke-linecap:butt;stroke-linejoin:round;}
  </style>
 </defs>
 <g id="figure_1">
  <g id="patch_1">
   <path d="M 0 345.6 
L 460.8 345.6 
L 460.8 0 
L 0 0 
z
" style="fill:#ffffff;"/>
  </g>
  <g id="axes_1">
   <g id="patch_2">
    <path d="M 33.64 295.581689 
L 446.544467 295.581689 
L 446.544467 13.32 
L 33.64 13.32 
z
" style="fill:#ffffff;"/>
   </g>
   <g id="patch_3">
    <path clip-path="url(#p91c341f665)" d="M 52.408385 295.581689 
L 60.394932 295.581689 
L 60.394932 83.783596 
L 52.408385 83.783596 
z
" style="fill:#1f77b4;"/>
   </g>
   <g id="patch_4">
    <path clip-path="url(#p91c341f665)" d="M 92.341119 295.581689 
L 100.327665 295.581689 
L 100.327665 151.72417 
L 92.341119 151.72417 
z
" style="fill:#1f77b4;"/>
   </g>
   <g id="patch_5">
    <path clip-path="url(#p91c341f665)" d="M 132.273852 295.581689 
L 140.260399 295.581689 
L 140.260399 138.966411 
L 132.273852 138.966411 
z
" style="fill:#1f77b4;"/>
   </g>
   <g id="patch_6">
    <path clip-path="url(#p91c341f665)" d="M 172.206586 295.581689 
L 180.193133 295.581689 
L 180.193133 174.009262 
L 172.206586 174.009262 
z
" style="fill:#1f77b4;"/>
   </g>
   <g id="patch_7">
    <path clip-path="url(#p91c341f665)" d="M 212.13932 295.581689 
L 220.125867 295.581689 
L 220.125867 130.929037 
L 212.13932 130.929037 
z
" style="fill:#1f77b4;"/>
   </g>
   <g id="patch_8">
    <path clip-path="url(#p91c341f665)" d="M 252.072054 295.581689 
L 260.0586 295.581689 
L 260.0586 26.761033 
L 252.072054 26.761033 
z
" style="fill:#1f77b4;"/>
   </g>
   <g id="patch_9">
    <path clip-path="url(#p91c341f665)" d="M 292.004787 295.581689 
L 299.991334 295.581689 
L 299.991334 124.398307 
L 292.004787 124.398307 
z
" style="fill:#1f77b4;"/>
   </g>
   <g id="patch_10">
    <path clip-path="url(#p91c341f665)" d="M 331.937521 295.581689 
L 339.924068 295.581689 
L 339.924068 149.96324 
L 331.937521 149.96324 
z
" style="fill:#1f77b4;"/>
   </g>
   <g id="patch_11">
    <path clip-path="url(#p91c341f665)" d="M 371.870255 295.581689 
L 379.856802 295.581689 
L 379.856802 172.450868 
L 371.870255 172.450868 
z
" style="fill:#1f77b4;"/>
   </g>
   <g id="patch_12">
    <path clip-path="url(#p91c341f665)" d="M 411.802989 295.581689 
L 419.789535 295.581689 
L 419.789535 127.43017 
L 411.802989 127.43017 
z
" style="fill:#1f77b4;"/>
   </g>
   <g id="patch_13">
    <path clip-path="url(#p91c341f665)" d="M 60.394932 295.581689 
L 68.381478 295.581689 
L 68.381478 83.783596 
L 60.394932 83.783596 
z
" style="fill:#ff7f0e;"/>
   </g>
   <g id="patch_14">
    <path clip-path="url(#p91c341f665)" d="M 100.327665 295.581689 
L 108.314212 295.581689 
L 108.314212 143.63466 
L 100.327665 143.63466 
z
" style="fill:#ff7f0e;"/>
   </g>
   <g id="patch_15">
    <path clip-path="url(#p91c341f665)" d="M 140.260399 295.581689 
L 148.246946 295.581689 
L 148.246946 139.713135 
L 140.260399 139.713135 
z
" style="fill:#ff7f0e;"/>
   </g>
   <g id="patch_16">
    <path clip-path="url(#p91c341f665)" d="M 180.193133 295.581689 
L 188.17968 295.581689 
L 188.17968 165.611483 
L 180.193133 165.611483 
z
" style="fill:#ff7f0e;"/>
   </g>
   <g id="patch_17">
    <path clip-path="url(#p91c341f665)" d="M 220.125867 295.581689 
L 228.112413 295.581689 
L 228.112413 130.929037 
L 220.125867 130.929037 
z
" style="fill:#ff7f0e;"/>
   </g>
   <g id="patch_18">
    <path clip-path="url(#p91c341f665)" d="M 260.0586 295.581689 
L 268.045147 295.581689 
L 268.045147 26.761033 
L 260.0586 26.761033 
z
" style="fill:#ff7f0e;"/>
   </g>
   <g id="patch_19">
    <path clip-path="url(#p91c341f665)" d="M 299.991334 295.581689 
L 307.977881 295.581689 
L 307.977881 127.345902 
L 299.991334 127.345902 
z
" style="fill:#ff7f0e;"/>
   </g>
   <g id="patch_20">
    <path clip-path="url(#p91c341f665)" d="M 339.924068 295.581689 
L 347.910615 295.581689 
L 347.910615 143.573074 
L 339.924068 143.573074 
z
" style="fill:#ff7f0e;"/>
   </g>
   <g id="patch_21">
    <path clip-path="url(#p91c341f665)" d="M 379.856802 295.581689 
L 387.843348 295.581689 
L 387.843348 181.002936 
L 379.856802 181.002936 
z
" style="fill:#ff7f0e;"/>
   </g>
   <g id="patch_22">
    <path clip-path="url(#p91c341f665)" d="M 419.789535 295.581689 
L 427.776082 295.581689 
L 427.776082 135.494621 
L 419.789535 135.494621 
z
" style="fill:#ff7f0e;"/>
   </g>
   <g id="matplotlib.axis_1">
    <g id="xtick_1">
     <g id="line2d_1">
      <defs>
       <path d="M 0 0 
L 0 3.5 
" id="mfb05578fb8" style="stroke:#000000;stroke-width:0.8;"/>
      </defs>
      <g>
       <use style="stroke:#000000;stroke-width:0.8;" x="60.394932" xlink:href="#mfb05578fb8" y="295.581689"/>
      </g>
     </g>
     <g id="text_1">
      <text style="font-family:DejaVu Sans;font-size:9px;font-style:normal;font-weight:normal;" transform="translate(17.863072 332.324473)rotate(-15)">Complex Sentences</text>
     </g>
    </g>
    <g id="xtick_2">
     <g id="line2d_2">
      <g>
       <use style="stroke:#000000;stroke-width:0.8;" x="100.327665" xlink:href="#mfb05578fb8" y="295.581689"/>
      </g>
     </g>
     <g id="text_2">
      <text style="font-family:DejaVu Sans;font-size:9px;font-style:normal;font-weight:normal;" transform="translate(84.290774 318.125862)rotate(-15)">Lexicon</text>
     </g>
    </g>
    <g id="xtick_3">
     <g id="line2d_3">
      <g>
       <use style="stroke:#000000;stroke-width:0.8;" x="140.260399" xlink:href="#mfb05578fb8" y="295.581689"/>
      </g>
     </g>
     <g id="text_3">
      <text style="font-family:DejaVu Sans;font-size:9px;font-style:normal;font-weight:normal;" transform="translate(115.333217 322.890154)rotate(-15)">Morphology</text>
     </g>
    </g>
    <g id="xtick_4">
     <g id="line2d_4">
      <g>
       <use style="stroke:#000000;stroke-width:0.8;" x="180.193133" xlink:href="#mfb05578fb8" y="295.581689"/>
      </g>
     </g>
     <g id="text_4">
      <text style="font-family:DejaVu Sans;font-size:9px;font-style:normal;font-weight:normal;" transform="translate(138.045682 332.118469)rotate(-15)">Nominal Categories</text>
     </g>
    </g>
    <g id="xtick_5">
     <g id="line2d_5">
      <g>
       <use style="stroke:#000000;stroke-width:0.8;" x="220.125867" xlink:href="#mfb05578fb8" y="295.581689"/>
      </g>
     </g>
     <g id="text_5">
      <text style="font-family:DejaVu Sans;font-size:9px;font-style:normal;font-weight:normal;" transform="translate(186.381064 327.615503)rotate(-15)">Nominal Syntax</text>
     </g>
    </g>
    <g id="xtick_6">
     <g id="line2d_6">
      <g>
       <use style="stroke:#000000;stroke-width:0.8;" x="260.0586" xlink:href="#mfb05578fb8" y="295.581689"/>
      </g>
     </g>
     <g id="text_6">
      <text style="font-family:DejaVu Sans;font-size:9px;font-style:normal;font-weight:normal;" transform="translate(248.359546 315.801222)rotate(-15)">Other</text>
     </g>
    </g>
    <g id="xtick_7">
     <g id="line2d_7">
      <g>
       <use style="stroke:#000000;stroke-width:0.8;" x="299.991334" xlink:href="#mfb05578fb8" y="295.581689"/>
      </g>
     </g>
     <g id="text_7">
      <text style="font-family:DejaVu Sans;font-size:9px;font-style:normal;font-weight:normal;" transform="translate(277.985247 321.324744)rotate(-15)">Phonology</text>
     </g>
    </g>
    <g id="xtick_8">
     <g id="line2d_8">
      <g>
       <use style="stroke:#000000;stroke-width:0.8;" x="339.924068" xlink:href="#mfb05578fb8" y="295.581689"/>
      </g>
     </g>
     <g id="text_8">
      <text style="font-family:DejaVu Sans;font-size:9px;font-style:normal;font-weight:normal;" transform="translate(307.478511 326.919239)rotate(-15)">Simple Clauses</text>
     </g>
    </g>
    <g id="xtick_9">
     <g id="line2d_9">
      <g>
       <use style="stroke:#000000;stroke-width:0.8;" x="379.856802" xlink:href="#mfb05578fb8" y="295.581689"/>
      </g>
     </g>
     <g id="text_9">
      <text style="font-family:DejaVu Sans;font-size:9px;font-style:normal;font-weight:normal;" transform="translate(341.627462 330.018759)rotate(-15)">Verbal Categories</text>
     </g>
    </g>
    <g id="xtick_10">
     <g id="line2d_10">
      <g>
       <use style="stroke:#000000;stroke-width:0.8;" x="419.789535" xlink:href="#mfb05578fb8" y="295.581689"/>
      </g>
     </g>
     <g id="text_10">
      <text style="font-family:DejaVu Sans;font-size:9px;font-style:normal;font-weight:normal;" transform="translate(395.122474 322.750756)rotate(-15)">Word Order</text>
     </g>
    </g>
   </g>
   <g id="matplotlib.axis_2">
    <g id="ytick_1">
     <g id="line2d_11">
      <defs>
       <path d="M 0 0 
L -3.5 0 
" id="mc89fbffe32" style="stroke:#000000;stroke-width:0.8;"/>
      </defs>
      <g>
       <use style="stroke:#000000;stroke-width:0.8;" x="33.64" xlink:href="#mc89fbffe32" y="295.581689"/>
      </g>
     </g>
     <g id="text_11">
      <text style="font-family:DejaVu Sans;font-size:10px;font-style:normal;font-weight:normal;text-anchor:end;" transform="rotate(-0, 26.64, 299.380908)" x="26.64" y="299.380908">0.0</text>
     </g>
    </g>
    <g id="ytick_2">
     <g id="line2d_12">
      <g>
       <use style="stroke:#000000;stroke-width:0.8;" x="33.64" xlink:href="#mc89fbffe32" y="241.817558"/>
      </g>
     </g>
     <g id="text_12">
      <text style="font-family:DejaVu Sans;font-size:10px;font-style:normal;font-weight:normal;text-anchor:end;" transform="rotate(-0, 26.64, 245.616776)" x="26.64" y="245.616776">0.2</text>
     </g>
    </g>
    <g id="ytick_3">
     <g id="line2d_13">
      <g>
       <use style="stroke:#000000;stroke-width:0.8;" x="33.64" xlink:href="#mc89fbffe32" y="188.053426"/>
      </g>
     </g>
     <g id="text_13">
      <text style="font-family:DejaVu Sans;font-size:10px;font-style:normal;font-weight:normal;text-anchor:end;" transform="rotate(-0, 26.64, 191.852645)" x="26.64" y="191.852645">0.4</text>
     </g>
    </g>
    <g id="ytick_4">
     <g id="line2d_14">
      <g>
       <use style="stroke:#000000;stroke-width:0.8;" x="33.64" xlink:href="#mc89fbffe32" y="134.289295"/>
      </g>
     </g>
     <g id="text_14">
      <text style="font-family:DejaVu Sans;font-size:10px;font-style:normal;font-weight:normal;text-anchor:end;" transform="rotate(-0, 26.64, 138.088514)" x="26.64" y="138.088514">0.6</text>
     </g>
    </g>
    <g id="ytick_5">
     <g id="line2d_15">
      <g>
       <use style="stroke:#000000;stroke-width:0.8;" x="33.64" xlink:href="#mc89fbffe32" y="80.525164"/>
      </g>
     </g>
     <g id="text_15">
      <text style="font-family:DejaVu Sans;font-size:10px;font-style:normal;font-weight:normal;text-anchor:end;" transform="rotate(-0, 26.64, 84.324383)" x="26.64" y="84.324383">0.8</text>
     </g>
    </g>
    <g id="ytick_6">
     <g id="line2d_16">
      <g>
       <use style="stroke:#000000;stroke-width:0.8;" x="33.64" xlink:href="#mc89fbffe32" y="26.761033"/>
      </g>
     </g>
     <g id="text_16">
      <text style="font-family:DejaVu Sans;font-size:10px;font-style:normal;font-weight:normal;text-anchor:end;" transform="rotate(-0, 26.64, 30.560252)" x="26.64" y="30.560252">1.0</text>
     </g>
    </g>
   </g>
   <g id="patch_23">
    <path d="M 33.64 295.581689 
L 33.64 13.32 
" style="fill:none;stroke:#000000;stroke-linecap:square;stroke-linejoin:miter;stroke-width:0.8;"/>
   </g>
   <g id="patch_24">
    <path d="M 446.544467 295.581689 
L 446.544467 13.32 
" style="fill:none;stroke:#000000;stroke-linecap:square;stroke-linejoin:miter;stroke-width:0.8;"/>
   </g>
   <g id="patch_25">
    <path d="M 33.64 295.581689 
L 446.544467 295.581689 
" style="fill:none;stroke:#000000;stroke-linecap:square;stroke-linejoin:miter;stroke-width:0.8;"/>
   </g>
   <g id="patch_26">
    <path d="M 33.64 13.32 
L 446.544467 13.32 
" style="fill:none;stroke:#000000;stroke-linecap:square;stroke-linejoin:miter;stroke-width:0.8;"/>
   </g>
   <g id="legend_1">
    <g id="patch_27">
     <path d="M 374.108529 50.67625 
L 439.544467 50.67625 
Q 441.544467 50.67625 441.544467 48.67625 
L 441.544467 20.32 
Q 441.544467 18.32 439.544467 18.32 
L 374.108529 18.32 
Q 372.108529 18.32 372.108529 20.32 
L 372.108529 48.67625 
Q 372.108529 50.67625 374.108529 50.67625 
z
" style="fill:#ffffff;opacity:0.8;stroke:#cccccc;stroke-linejoin:miter;"/>
    </g>
    <g id="patch_28">
     <path d="M 376.108529 29.918437 
L 396.108529 29.918437 
L 396.108529 22.918437 
L 376.108529 22.918437 
z
" style="fill:#1f77b4;"/>
    </g>
    <g id="text_17">
     <text style="font-family:DejaVu Sans;font-size:10px;font-style:normal;font-weight:normal;text-anchor:start;" transform="rotate(-0, 404.108529, 29.918437)" x="404.108529" y="29.918437">Scores</text>
    </g>
    <g id="patch_29">
     <path d="M 376.108529 44.596563 
L 396.108529 44.596563 
L 396.108529 37.596563 
L 376.108529 37.596563 
z
" style="fill:#ff7f0e;"/>
    </g>
    <g id="text_18">
     <text style="font-family:DejaVu Sans;font-size:10px;font-style:normal;font-weight:normal;text-anchor:start;" transform="rotate(-0, 404.108529, 44.596563)" x="404.108529" y="44.596563">Bases</text>
    </g>
   </g>
  </g>
 </g>
 <defs>
  <clipPath id="p91c341f665">
   <rect height="282.261689" width="412.904467" x="33.64" y="13.32"/>
  </clipPath>
 </defs>
</svg>
