<?xml version="1.0" encoding="utf-8" standalone="no"?>
<!DOCTYPE svg PUBLIC "-//W3C//DTD SVG 1.1//EN"
  "http://www.w3.org/Graphics/SVG/1.1/DTD/svg11.dtd">
<!-- Created with matplotlib (http://matplotlib.org/) -->
<svg height="345.6pt" version="1.1" viewBox="0 0 460.8 345.6" width="460.8pt" xmlns="http://www.w3.org/2000/svg" xmlns:xlink="http://www.w3.org/1999/xlink">
 <defs>
  <style type="text/css">
*{stroke-linecap:butt;stroke-linejoin:round;}
  </style>
 </defs>
 <g id="figure_1">
  <g id="patch_1">
   <path d="M 0 345.6 
L 460.8 345.6 
L 460.8 0 
L 0 0 
z
" style="fill:#ffffff;"/>
  </g>
  <g id="axes_1">
   <g id="patch_2">
    <path d="M 33.64 281.471494 
L 447.344649 281.471494 
L 447.344649 13.32 
L 33.64 13.32 
z
" style="fill:#ffffff;"/>
   </g>
   <g id="patch_3">
    <path clip-path="url(#p07d8c8b119)" d="M 52.444757 281.471494 
L 60.446781 281.471494 
L 60.446781 96.551099 
L 52.444757 96.551099 
z
" style="fill:#1f77b4;"/>
   </g>
   <g id="patch_4">
    <path clip-path="url(#p07d8c8b119)" d="M 92.454878 281.471494 
L 100.456902 281.471494 
L 100.456902 83.099125 
L 92.454878 83.099125 
z
" style="fill:#1f77b4;"/>
   </g>
   <g id="patch_5">
    <path clip-path="url(#p07d8c8b119)" d="M 132.464998 281.471494 
L 140.467022 281.471494 
L 140.467022 130.613447 
L 132.464998 130.613447 
z
" style="fill:#1f77b4;"/>
   </g>
   <g id="patch_6">
    <path clip-path="url(#p07d8c8b119)" d="M 172.475119 281.471494 
L 180.477143 281.471494 
L 180.477143 146.950002 
L 172.475119 146.950002 
z
" style="fill:#1f77b4;"/>
   </g>
   <g id="patch_7">
    <path clip-path="url(#p07d8c8b119)" d="M 212.48524 281.471494 
L 220.487264 281.471494 
L 220.487264 117.870486 
L 212.48524 117.870486 
z
" style="fill:#1f77b4;"/>
   </g>
   <g id="patch_8">
    <path clip-path="url(#p07d8c8b119)" d="M 252.495361 281.471494 
L 260.497385 281.471494 
L 260.497385 26.089119 
L 252.495361 26.089119 
z
" style="fill:#1f77b4;"/>
   </g>
   <g id="patch_9">
    <path clip-path="url(#p07d8c8b119)" d="M 292.505481 281.471494 
L 300.507505 281.471494 
L 300.507505 99.05944 
L 292.505481 99.05944 
z
" style="fill:#1f77b4;"/>
   </g>
   <g id="patch_10">
    <path clip-path="url(#p07d8c8b119)" d="M 332.515602 281.471494 
L 340.517626 281.471494 
L 340.517626 136.653484 
L 332.515602 136.653484 
z
" style="fill:#1f77b4;"/>
   </g>
   <g id="patch_11">
    <path clip-path="url(#p07d8c8b119)" d="M 372.525723 281.471494 
L 380.527747 281.471494 
L 380.527747 122.360891 
L 372.525723 122.360891 
z
" style="fill:#1f77b4;"/>
   </g>
   <g id="patch_12">
    <path clip-path="url(#p07d8c8b119)" d="M 412.535844 281.471494 
L 420.537868 281.471494 
L 420.537868 106.058343 
L 412.535844 106.058343 
z
" style="fill:#1f77b4;"/>
   </g>
   <g id="patch_13">
    <path clip-path="url(#p07d8c8b119)" d="M 60.446781 281.471494 
L 68.448805 281.471494 
L 68.448805 82.201493 
L 60.446781 82.201493 
z
" style="fill:#ff7f0e;"/>
   </g>
   <g id="patch_14">
    <path clip-path="url(#p07d8c8b119)" d="M 100.456902 281.471494 
L 108.458926 281.471494 
L 108.458926 70.81333 
L 100.456902 70.81333 
z
" style="fill:#ff7f0e;"/>
   </g>
   <g id="patch_15">
    <path clip-path="url(#p07d8c8b119)" d="M 140.467022 281.471494 
L 148.469047 281.471494 
L 148.469047 120.693863 
L 140.467022 120.693863 
z
" style="fill:#ff7f0e;"/>
   </g>
   <g id="patch_16">
    <path clip-path="url(#p07d8c8b119)" d="M 180.477143 281.471494 
L 188.479167 281.471494 
L 188.479167 131.950214 
L 180.477143 131.950214 
z
" style="fill:#ff7f0e;"/>
   </g>
   <g id="patch_17">
    <path clip-path="url(#p07d8c8b119)" d="M 220.487264 281.471494 
L 228.489288 281.471494 
L 228.489288 116.28426 
L 220.487264 116.28426 
z
" style="fill:#ff7f0e;"/>
   </g>
   <g id="patch_18">
    <path clip-path="url(#p07d8c8b119)" d="M 260.497385 281.471494 
L 268.499409 281.471494 
L 268.499409 26.089119 
L 260.497385 26.089119 
z
" style="fill:#ff7f0e;"/>
   </g>
   <g id="patch_19">
    <path clip-path="url(#p07d8c8b119)" d="M 300.507505 281.471494 
L 308.50953 281.471494 
L 308.50953 101.301167 
L 300.507505 101.301167 
z
" style="fill:#ff7f0e;"/>
   </g>
   <g id="patch_20">
    <path clip-path="url(#p07d8c8b119)" d="M 340.517626 281.471494 
L 348.51965 281.471494 
L 348.51965 129.10861 
L 340.517626 129.10861 
z
" style="fill:#ff7f0e;"/>
   </g>
   <g id="patch_21">
    <path clip-path="url(#p07d8c8b119)" d="M 380.527747 281.471494 
L 388.529771 281.471494 
L 388.529771 131.233921 
L 380.527747 131.233921 
z
" style="fill:#ff7f0e;"/>
   </g>
   <g id="patch_22">
    <path clip-path="url(#p07d8c8b119)" d="M 420.537868 281.471494 
L 428.539892 281.471494 
L 428.539892 103.287739 
L 420.537868 103.287739 
z
" style="fill:#ff7f0e;"/>
   </g>
   <g id="matplotlib.axis_1">
    <g id="xtick_1">
     <g id="line2d_1">
      <defs>
       <path d="M 0 0 
L 0 3.5 
" id="mc5eabee2f2" style="stroke:#000000;stroke-width:0.8;"/>
      </defs>
      <g>
       <use style="stroke:#000000;stroke-width:0.8;" x="60.446781" xlink:href="#mc5eabee2f2" y="281.471494"/>
      </g>
     </g>
     <g id="text_1">
      <text style="font-family:DejaVu Sans;font-size:9px;font-style:normal;font-weight:normal;" transform="translate(20.986493 332.449456)rotate(-25)">Complex Sentences</text>
     </g>
    </g>
    <g id="xtick_2">
     <g id="line2d_2">
      <g>
       <use style="stroke:#000000;stroke-width:0.8;" x="100.456902" xlink:href="#mc5eabee2f2" y="281.471494"/>
      </g>
     </g>
     <g id="text_2">
      <text style="font-family:DejaVu Sans;font-size:9px;font-style:normal;font-weight:normal;" transform="translate(85.856282 309.264948)rotate(-25)">Lexicon</text>
     </g>
    </g>
    <g id="xtick_3">
     <g id="line2d_3">
      <g>
       <use style="stroke:#000000;stroke-width:0.8;" x="140.467022" xlink:href="#mc5eabee2f2" y="281.471494"/>
      </g>
     </g>
     <g id="text_3">
      <text style="font-family:DejaVu Sans;font-size:9px;font-style:normal;font-weight:normal;" transform="translate(117.524831 317.044426)rotate(-25)">Morphology</text>
     </g>
    </g>
    <g id="xtick_4">
     <g id="line2d_4">
      <g>
       <use style="stroke:#000000;stroke-width:0.8;" x="180.477143" xlink:href="#mc5eabee2f2" y="281.471494"/>
      </g>
     </g>
     <g id="text_4">
      <text style="font-family:DejaVu Sans;font-size:9px;font-style:normal;font-weight:normal;" transform="translate(141.377537 332.113078)rotate(-25)">Nominal Categories</text>
     </g>
    </g>
    <g id="xtick_5">
     <g id="line2d_5">
      <g>
       <use style="stroke:#000000;stroke-width:0.8;" x="220.487264" xlink:href="#mc5eabee2f2" y="281.471494"/>
      </g>
     </g>
     <g id="text_5">
      <text style="font-family:DejaVu Sans;font-size:9px;font-style:normal;font-weight:normal;" transform="translate(189.271686 324.760313)rotate(-25)">Nominal Syntax</text>
     </g>
    </g>
    <g id="xtick_6">
     <g id="line2d_6">
      <g>
       <use style="stroke:#000000;stroke-width:0.8;" x="260.497385" xlink:href="#mc5eabee2f2" y="281.471494"/>
      </g>
     </g>
     <g id="text_6">
      <text style="font-family:DejaVu Sans;font-size:9px;font-style:normal;font-weight:normal;" transform="translate(249.966866 305.46911)rotate(-25)">Other</text>
     </g>
    </g>
    <g id="xtick_7">
     <g id="line2d_7">
      <g>
       <use style="stroke:#000000;stroke-width:0.8;" x="300.507505" xlink:href="#mc5eabee2f2" y="281.471494"/>
      </g>
     </g>
     <g id="text_7">
      <text style="font-family:DejaVu Sans;font-size:9px;font-style:normal;font-weight:normal;" transform="translate(280.306116 314.488312)rotate(-25)">Phonology</text>
     </g>
    </g>
    <g id="xtick_8">
     <g id="line2d_8">
      <g>
       <use style="stroke:#000000;stroke-width:0.8;" x="340.517626" xlink:href="#mc5eabee2f2" y="281.471494"/>
      </g>
     </g>
     <g id="text_8">
      <text style="font-family:DejaVu Sans;font-size:9px;font-style:normal;font-weight:normal;" transform="translate(310.521103 323.623404)rotate(-25)">Simple Clauses</text>
     </g>
    </g>
    <g id="xtick_9">
     <g id="line2d_9">
      <g>
       <use style="stroke:#000000;stroke-width:0.8;" x="380.527747" xlink:href="#mc5eabee2f2" y="281.471494"/>
      </g>
     </g>
     <g id="text_9">
      <text style="font-family:DejaVu Sans;font-size:9px;font-style:normal;font-weight:normal;" transform="translate(345.104423 328.684522)rotate(-25)">Verbal Categories</text>
     </g>
    </g>
    <g id="xtick_10">
     <g id="line2d_10">
      <g>
       <use style="stroke:#000000;stroke-width:0.8;" x="420.537868" xlink:href="#mc5eabee2f2" y="281.471494"/>
      </g>
     </g>
     <g id="text_10">
      <text style="font-family:DejaVu Sans;font-size:9px;font-style:normal;font-weight:normal;" transform="translate(397.839742 316.816807)rotate(-25)">Word Order</text>
     </g>
    </g>
   </g>
   <g id="matplotlib.axis_2">
    <g id="ytick_1">
     <g id="line2d_11">
      <defs>
       <path d="M 0 0 
L -3.5 0 
" id="md529ffa551" style="stroke:#000000;stroke-width:0.8;"/>
      </defs>
      <g>
       <use style="stroke:#000000;stroke-width:0.8;" x="33.64" xlink:href="#md529ffa551" y="281.471494"/>
      </g>
     </g>
     <g id="text_11">
      <text style="font-family:DejaVu Sans;font-size:10px;font-style:normal;font-weight:normal;text-anchor:end;" transform="rotate(-0, 26.64, 285.270713)" x="26.64" y="285.270713">0.0</text>
     </g>
    </g>
    <g id="ytick_2">
     <g id="line2d_12">
      <g>
       <use style="stroke:#000000;stroke-width:0.8;" x="33.64" xlink:href="#md529ffa551" y="223.098379"/>
      </g>
     </g>
     <g id="text_12">
      <text style="font-family:DejaVu Sans;font-size:10px;font-style:normal;font-weight:normal;text-anchor:end;" transform="rotate(-0, 26.64, 226.897598)" x="26.64" y="226.897598">0.2</text>
     </g>
    </g>
    <g id="ytick_3">
     <g id="line2d_13">
      <g>
       <use style="stroke:#000000;stroke-width:0.8;" x="33.64" xlink:href="#md529ffa551" y="164.725265"/>
      </g>
     </g>
     <g id="text_13">
      <text style="font-family:DejaVu Sans;font-size:10px;font-style:normal;font-weight:normal;text-anchor:end;" transform="rotate(-0, 26.64, 168.524484)" x="26.64" y="168.524484">0.4</text>
     </g>
    </g>
    <g id="ytick_4">
     <g id="line2d_14">
      <g>
       <use style="stroke:#000000;stroke-width:0.8;" x="33.64" xlink:href="#md529ffa551" y="106.352151"/>
      </g>
     </g>
     <g id="text_14">
      <text style="font-family:DejaVu Sans;font-size:10px;font-style:normal;font-weight:normal;text-anchor:end;" transform="rotate(-0, 26.64, 110.15137)" x="26.64" y="110.15137">0.6</text>
     </g>
    </g>
    <g id="ytick_5">
     <g id="line2d_15">
      <g>
       <use style="stroke:#000000;stroke-width:0.8;" x="33.64" xlink:href="#md529ffa551" y="47.979037"/>
      </g>
     </g>
     <g id="text_15">
      <text style="font-family:DejaVu Sans;font-size:10px;font-style:normal;font-weight:normal;text-anchor:end;" transform="rotate(-0, 26.64, 51.778255)" x="26.64" y="51.778255">0.8</text>
     </g>
    </g>
   </g>
   <g id="patch_23">
    <path d="M 33.64 281.471494 
L 33.64 13.32 
" style="fill:none;stroke:#000000;stroke-linecap:square;stroke-linejoin:miter;stroke-width:0.8;"/>
   </g>
   <g id="patch_24">
    <path d="M 447.344649 281.471494 
L 447.344649 13.32 
" style="fill:none;stroke:#000000;stroke-linecap:square;stroke-linejoin:miter;stroke-width:0.8;"/>
   </g>
   <g id="patch_25">
    <path d="M 33.64 281.471494 
L 447.344649 281.471494 
" style="fill:none;stroke:#000000;stroke-linecap:square;stroke-linejoin:miter;stroke-width:0.8;"/>
   </g>
   <g id="patch_26">
    <path d="M 33.64 13.32 
L 447.344649 13.32 
" style="fill:none;stroke:#000000;stroke-linecap:square;stroke-linejoin:miter;stroke-width:0.8;"/>
   </g>
   <g id="legend_1">
    <g id="patch_27">
     <path d="M 374.908711 50.67625 
L 440.344649 50.67625 
Q 442.344649 50.67625 442.344649 48.67625 
L 442.344649 20.32 
Q 442.344649 18.32 440.344649 18.32 
L 374.908711 18.32 
Q 372.908711 18.32 372.908711 20.32 
L 372.908711 48.67625 
Q 372.908711 50.67625 374.908711 50.67625 
z
" style="fill:#ffffff;opacity:0.8;stroke:#cccccc;stroke-linejoin:miter;"/>
    </g>
    <g id="patch_28">
     <path d="M 376.908711 29.918437 
L 396.908711 29.918437 
L 396.908711 22.918437 
L 376.908711 22.918437 
z
" style="fill:#1f77b4;"/>
    </g>
    <g id="text_16">
     <text style="font-family:DejaVu Sans;font-size:10px;font-style:normal;font-weight:normal;text-anchor:start;" transform="rotate(-0, 404.908711, 29.918437)" x="404.908711" y="29.918437">Scores</text>
    </g>
    <g id="patch_29">
     <path d="M 376.908711 44.596563 
L 396.908711 44.596563 
L 396.908711 37.596563 
L 376.908711 37.596563 
z
" style="fill:#ff7f0e;"/>
    </g>
    <g id="text_17">
     <text style="font-family:DejaVu Sans;font-size:10px;font-style:normal;font-weight:normal;text-anchor:start;" transform="rotate(-0, 404.908711, 44.596563)" x="404.908711" y="44.596563">Bases</text>
    </g>
   </g>
  </g>
 </g>
 <defs>
  <clipPath id="p07d8c8b119">
   <rect height="268.151494" width="413.704649" x="33.64" y="13.32"/>
  </clipPath>
 </defs>
</svg>
