<?xml version="1.0" encoding="utf-8" standalone="no"?>
<!DOCTYPE svg PUBLIC "-//W3C//DTD SVG 1.1//EN"
  "http://www.w3.org/Graphics/SVG/1.1/DTD/svg11.dtd">
<!-- Created with matplotlib (http://matplotlib.org/) -->
<svg height="345.6pt" version="1.1" viewBox="0 0 460.8 345.6" width="460.8pt" xmlns="http://www.w3.org/2000/svg" xmlns:xlink="http://www.w3.org/1999/xlink">
 <defs>
  <style type="text/css">
*{stroke-linecap:butt;stroke-linejoin:round;}
  </style>
 </defs>
 <g id="figure_1">
  <g id="patch_1">
   <path d="M 0 345.6 
L 460.8 345.6 
L 460.8 0 
L 0 0 
z
" style="fill:#ffffff;"/>
  </g>
  <g id="axes_1">
   <g id="patch_2">
    <path d="M 56.09 303.64 
L 444.489535 303.64 
L 444.489535 13.32 
L 56.09 13.32 
z
" style="fill:#ffffff;"/>
   </g>
   <g id="1A">
    <defs>
     <path d="M 0 3 
C 0.795609 3 1.55874 2.683901 2.12132 2.12132 
C 2.683901 1.55874 3 0.795609 3 0 
C 3 -0.795609 2.683901 -1.55874 2.12132 -2.12132 
C 1.55874 -2.683901 0.795609 -3 0 -3 
C -0.795609 -3 -1.55874 -2.683901 -2.12132 -2.12132 
C -2.683901 -1.55874 -3 -0.795609 -3 0 
C -3 0.795609 -2.683901 1.55874 -2.12132 2.12132 
C -1.55874 2.683901 -0.795609 3 0 3 
z
" id="mb2a1884817" style="stroke:#1f77b4;"/>
    </defs>
    <g clip-path="url(#p031af6bdcd)">
     <use style="fill:#1f77b4;stroke:#1f77b4;" x="219.270932" xlink:href="#mb2a1884817" y="111.853558"/>
    </g>
   </g>
   <g id="2A">
    <defs>
     <path d="M 0 3 
C 0.795609 3 1.55874 2.683901 2.12132 2.12132 
C 2.683901 1.55874 3 0.795609 3 0 
C 3 -0.795609 2.683901 -1.55874 2.12132 -2.12132 
C 1.55874 -2.683901 0.795609 -3 0 -3 
C -0.795609 -3 -1.55874 -2.683901 -2.12132 -2.12132 
C -2.683901 -1.55874 -3 -0.795609 -3 0 
C -3 0.795609 -2.683901 1.55874 -2.12132 2.12132 
C -1.55874 2.683901 -0.795609 3 0 3 
z
" id="mffe76bc208" style="stroke:#ff7f0e;"/>
    </defs>
    <g clip-path="url(#p031af6bdcd)">
     <use style="fill:#ff7f0e;stroke:#ff7f0e;" x="219.270932" xlink:href="#mffe76bc208" y="146.754734"/>
    </g>
   </g>
   <g id="3A">
    <defs>
     <path d="M 0 3 
C 0.795609 3 1.55874 2.683901 2.12132 2.12132 
C 2.683901 1.55874 3 0.795609 3 0 
C 3 -0.795609 2.683901 -1.55874 2.12132 -2.12132 
C 1.55874 -2.683901 0.795609 -3 0 -3 
C -0.795609 -3 -1.55874 -2.683901 -2.12132 -2.12132 
C -2.683901 -1.55874 -3 -0.795609 -3 0 
C -3 0.795609 -2.683901 1.55874 -2.12132 2.12132 
C -1.55874 2.683901 -0.795609 3 0 3 
z
" id="m2f56369163" style="stroke:#2ca02c;"/>
    </defs>
    <g clip-path="url(#p031af6bdcd)">
     <use style="fill:#2ca02c;stroke:#2ca02c;" x="219.270932" xlink:href="#m2f56369163" y="165.388413"/>
    </g>
   </g>
   <g id="4A">
    <defs>
     <path d="M 0 3 
C 0.795609 3 1.55874 2.683901 2.12132 2.12132 
C 2.683901 1.55874 3 0.795609 3 0 
C 3 -0.795609 2.683901 -1.55874 2.12132 -2.12132 
C 1.55874 -2.683901 0.795609 -3 0 -3 
C -0.795609 -3 -1.55874 -2.683901 -2.12132 -2.12132 
C -2.683901 -1.55874 -3 -0.795609 -3 0 
C -3 0.795609 -2.683901 1.55874 -2.12132 2.12132 
C -1.55874 2.683901 -0.795609 3 0 3 
z
" id="m8666f1e674" style="stroke:#d62728;"/>
    </defs>
    <g clip-path="url(#p031af6bdcd)">
     <use style="fill:#d62728;stroke:#d62728;" x="219.270932" xlink:href="#m8666f1e674" y="74.881973"/>
    </g>
   </g>
   <g id="5A">
    <defs>
     <path d="M 0 3 
C 0.795609 3 1.55874 2.683901 2.12132 2.12132 
C 2.683901 1.55874 3 0.795609 3 0 
C 3 -0.795609 2.683901 -1.55874 2.12132 -2.12132 
C 1.55874 -2.683901 0.795609 -3 0 -3 
C -0.795609 -3 -1.55874 -2.683901 -2.12132 -2.12132 
C -2.683901 -1.55874 -3 -0.795609 -3 0 
C -3 0.795609 -2.683901 1.55874 -2.12132 2.12132 
C -1.55874 2.683901 -0.795609 3 0 3 
z
" id="m1333ec5df3" style="stroke:#9467bd;"/>
    </defs>
    <g clip-path="url(#p031af6bdcd)">
     <use style="fill:#9467bd;stroke:#9467bd;" x="219.270932" xlink:href="#m1333ec5df3" y="146.754734"/>
    </g>
   </g>
   <g id="6A">
    <defs>
     <path d="M 0 3 
C 0.795609 3 1.55874 2.683901 2.12132 2.12132 
C 2.683901 1.55874 3 0.795609 3 0 
C 3 -0.795609 2.683901 -1.55874 2.12132 -2.12132 
C 1.55874 -2.683901 0.795609 -3 0 -3 
C -0.795609 -3 -1.55874 -2.683901 -2.12132 -2.12132 
C -2.683901 -1.55874 -3 -0.795609 -3 0 
C -3 0.795609 -2.683901 1.55874 -2.12132 2.12132 
C -1.55874 2.683901 -0.795609 3 0 3 
z
" id="m7bde813018" style="stroke:#8c564b;"/>
    </defs>
    <g clip-path="url(#p031af6bdcd)">
     <use style="fill:#8c564b;stroke:#8c564b;" x="219.270932" xlink:href="#m7bde813018" y="146.754734"/>
    </g>
   </g>
   <g id="7A">
    <defs>
     <path d="M 0 3 
C 0.795609 3 1.55874 2.683901 2.12132 2.12132 
C 2.683901 1.55874 3 0.795609 3 0 
C 3 -0.795609 2.683901 -1.55874 2.12132 -2.12132 
C 1.55874 -2.683901 0.795609 -3 0 -3 
C -0.795609 -3 -1.55874 -2.683901 -2.12132 -2.12132 
C -2.683901 -1.55874 -3 -0.795609 -3 0 
C -3 0.795609 -2.683901 1.55874 -2.12132 2.12132 
C -1.55874 2.683901 -0.795609 3 0 3 
z
" id="m96a152eb1e" style="stroke:#e377c2;"/>
    </defs>
    <g clip-path="url(#p031af6bdcd)">
     <use style="fill:#e377c2;stroke:#e377c2;" x="219.270932" xlink:href="#m96a152eb1e" y="146.754734"/>
    </g>
   </g>
   <g id="8A">
    <defs>
     <path d="M 0 3 
C 0.795609 3 1.55874 2.683901 2.12132 2.12132 
C 2.683901 1.55874 3 0.795609 3 0 
C 3 -0.795609 2.683901 -1.55874 2.12132 -2.12132 
C 1.55874 -2.683901 0.795609 -3 0 -3 
C -0.795609 -3 -1.55874 -2.683901 -2.12132 -2.12132 
C -2.683901 -1.55874 -3 -0.795609 -3 0 
C -3 0.795609 -2.683901 1.55874 -2.12132 2.12132 
C -1.55874 2.683901 -0.795609 3 0 3 
z
" id="mbe4da9aad6" style="stroke:#7f7f7f;"/>
    </defs>
    <g clip-path="url(#p031af6bdcd)">
     <use style="fill:#7f7f7f;stroke:#7f7f7f;" x="219.270932" xlink:href="#mbe4da9aad6" y="157.106778"/>
    </g>
   </g>
   <g id="9A">
    <defs>
     <path d="M 0 3 
C 0.795609 3 1.55874 2.683901 2.12132 2.12132 
C 2.683901 1.55874 3 0.795609 3 0 
C 3 -0.795609 2.683901 -1.55874 2.12132 -2.12132 
C 1.55874 -2.683901 0.795609 -3 0 -3 
C -0.795609 -3 -1.55874 -2.683901 -2.12132 -2.12132 
C -2.683901 -1.55874 -3 -0.795609 -3 0 
C -3 0.795609 -2.683901 1.55874 -2.12132 2.12132 
C -1.55874 2.683901 -0.795609 3 0 3 
z
" id="m82f80b2a89" style="stroke:#bcbd22;"/>
    </defs>
    <g clip-path="url(#p031af6bdcd)">
     <use style="fill:#bcbd22;stroke:#bcbd22;" x="176.317767" xlink:href="#m82f80b2a89" y="161.965901"/>
    </g>
   </g>
   <g id="10A">
    <defs>
     <path d="M 0 3 
C 0.795609 3 1.55874 2.683901 2.12132 2.12132 
C 2.683901 1.55874 3 0.795609 3 0 
C 3 -0.795609 2.683901 -1.55874 2.12132 -2.12132 
C 1.55874 -2.683901 0.795609 -3 0 -3 
C -0.795609 -3 -1.55874 -2.683901 -2.12132 -2.12132 
C -2.683901 -1.55874 -3 -0.795609 -3 0 
C -3 0.795609 -2.683901 1.55874 -2.12132 2.12132 
C -1.55874 2.683901 -0.795609 3 0 3 
z
" id="m0ff7d070bb" style="stroke:#17becf;"/>
    </defs>
    <g clip-path="url(#p031af6bdcd)">
     <use style="fill:#17becf;stroke:#17becf;" x="114.274306" xlink:href="#m0ff7d070bb" y="241.401993"/>
    </g>
   </g>
   <g id="11A">
    <g clip-path="url(#p031af6bdcd)">
     <use style="fill:#1f77b4;stroke:#1f77b4;" x="219.270932" xlink:href="#mb2a1884817" y="146.754734"/>
    </g>
   </g>
   <g id="12A">
    <g clip-path="url(#p031af6bdcd)">
     <use style="fill:#ff7f0e;stroke:#ff7f0e;" x="185.862914" xlink:href="#mffe76bc208" y="168.303887"/>
    </g>
   </g>
   <g id="13A">
    <g clip-path="url(#p031af6bdcd)">
     <use style="fill:#2ca02c;stroke:#2ca02c;" x="195.408062" xlink:href="#m2f56369163" y="173.374276"/>
    </g>
   </g>
   <g id="14A">
    <g clip-path="url(#p031af6bdcd)">
     <use style="fill:#d62728;stroke:#d62728;" x="195.408062" xlink:href="#m8666f1e674" y="111.262013"/>
    </g>
   </g>
   <g id="15A">
    <g clip-path="url(#p031af6bdcd)">
     <use style="fill:#9467bd;stroke:#9467bd;" x="195.408062" xlink:href="#m1333ec5df3" y="127.036556"/>
    </g>
   </g>
   <g id="16A">
    <g clip-path="url(#p031af6bdcd)">
     <use style="fill:#8c564b;stroke:#8c564b;" x="195.408062" xlink:href="#m7bde813018" y="146.754734"/>
    </g>
   </g>
   <g id="17A">
    <g clip-path="url(#p031af6bdcd)">
     <use style="fill:#e377c2;stroke:#e377c2;" x="128.592028" xlink:href="#m96a152eb1e" y="222.810567"/>
    </g>
   </g>
   <g id="18A">
    <g clip-path="url(#p031af6bdcd)">
     <use style="fill:#7f7f7f;stroke:#7f7f7f;" x="219.270932" xlink:href="#mbe4da9aad6" y="146.754734"/>
    </g>
   </g>
   <g id="19A">
    <g clip-path="url(#p031af6bdcd)">
     <use style="fill:#bcbd22;stroke:#bcbd22;" x="219.270932" xlink:href="#m82f80b2a89" y="146.754734"/>
    </g>
   </g>
   <g id="23A">
    <g clip-path="url(#p031af6bdcd)">
     <use style="fill:#17becf;stroke:#17becf;" x="109.501732" xlink:href="#m0ff7d070bb" y="235.486539"/>
    </g>
   </g>
   <g id="24A">
    <g clip-path="url(#p031af6bdcd)">
     <use style="fill:#1f77b4;stroke:#1f77b4;" x="109.501732" xlink:href="#mb2a1884817" y="265.063807"/>
    </g>
   </g>
   <g id="25A">
    <g clip-path="url(#p031af6bdcd)">
     <use style="fill:#ff7f0e;stroke:#ff7f0e;" x="109.501732" xlink:href="#mffe76bc208" y="205.909271"/>
    </g>
   </g>
   <g id="26A">
    <g clip-path="url(#p031af6bdcd)">
     <use style="fill:#2ca02c;stroke:#2ca02c;" x="314.72241" xlink:href="#m2f56369163" y="127.159173"/>
    </g>
   </g>
   <g id="27A">
    <g clip-path="url(#p031af6bdcd)">
     <use style="fill:#d62728;stroke:#d62728;" x="152.454897" xlink:href="#m8666f1e674" y="146.754734"/>
    </g>
   </g>
   <g id="28A">
    <g clip-path="url(#p031af6bdcd)">
     <use style="fill:#9467bd;stroke:#9467bd;" x="104.729158" xlink:href="#m1333ec5df3" y="146.754734"/>
    </g>
   </g>
   <g id="29A">
    <g clip-path="url(#p031af6bdcd)">
     <use style="fill:#8c564b;stroke:#8c564b;" x="104.729158" xlink:href="#m7bde813018" y="265.063807"/>
    </g>
   </g>
   <g id="25B">
    <g clip-path="url(#p031af6bdcd)">
     <use style="fill:#e377c2;stroke:#e377c2;" x="109.501732" xlink:href="#m96a152eb1e" y="146.754734"/>
    </g>
   </g>
   <g id="30A">
    <g clip-path="url(#p031af6bdcd)">
     <use style="fill:#7f7f7f;stroke:#7f7f7f;" x="123.819454" xlink:href="#mbe4da9aad6" y="191.120637"/>
    </g>
   </g>
   <g id="31A">
    <g clip-path="url(#p031af6bdcd)">
     <use style="fill:#bcbd22;stroke:#bcbd22;" x="123.819454" xlink:href="#m82f80b2a89" y="191.120637"/>
    </g>
   </g>
   <g id="32A">
    <g clip-path="url(#p031af6bdcd)">
     <use style="fill:#17becf;stroke:#17becf;" x="123.819454" xlink:href="#m0ff7d070bb" y="235.486539"/>
    </g>
   </g>
   <g id="33A">
    <g clip-path="url(#p031af6bdcd)">
     <use style="fill:#1f77b4;stroke:#1f77b4;" x="333.812705" xlink:href="#mb2a1884817" y="132.494266"/>
    </g>
   </g>
   <g id="34A">
    <g clip-path="url(#p031af6bdcd)">
     <use style="fill:#ff7f0e;stroke:#ff7f0e;" x="119.04688" xlink:href="#mffe76bc208" y="191.120637"/>
    </g>
   </g>
   <g id="35A">
    <g clip-path="url(#p031af6bdcd)">
     <use style="fill:#2ca02c;stroke:#2ca02c;" x="114.274306" xlink:href="#m2f56369163" y="146.754734"/>
    </g>
   </g>
   <g id="36A">
    <g clip-path="url(#p031af6bdcd)">
     <use style="fill:#d62728;stroke:#d62728;" x="114.274306" xlink:href="#m8666f1e674" y="146.754734"/>
    </g>
   </g>
   <g id="37A">
    <g clip-path="url(#p031af6bdcd)">
     <use style="fill:#9467bd;stroke:#9467bd;" x="243.133801" xlink:href="#m1333ec5df3" y="125.459101"/>
    </g>
   </g>
   <g id="38A">
    <g clip-path="url(#p031af6bdcd)">
     <use style="fill:#8c564b;stroke:#8c564b;" x="224.043506" xlink:href="#m7bde813018" y="136.106918"/>
    </g>
   </g>
   <g id="39A">
    <g clip-path="url(#p031af6bdcd)">
     <use style="fill:#e377c2;stroke:#e377c2;" x="104.729158" xlink:href="#m96a152eb1e" y="146.754734"/>
    </g>
   </g>
   <g id="40A">
    <g clip-path="url(#p031af6bdcd)">
     <use style="fill:#7f7f7f;stroke:#7f7f7f;" x="104.729158" xlink:href="#mbe4da9aad6" y="87.600198"/>
    </g>
   </g>
   <g id="41A">
    <g clip-path="url(#p031af6bdcd)">
     <use style="fill:#bcbd22;stroke:#bcbd22;" x="109.501732" xlink:href="#m82f80b2a89" y="87.600198"/>
    </g>
   </g>
   <g id="42A">
    <g clip-path="url(#p031af6bdcd)">
     <use style="fill:#17becf;stroke:#17becf;" x="95.184011" xlink:href="#m0ff7d070bb" y="146.754734"/>
    </g>
   </g>
   <g id="43A">
    <g clip-path="url(#p031af6bdcd)">
     <use style="fill:#1f77b4;stroke:#1f77b4;" x="109.501732" xlink:href="#mb2a1884817" y="205.909271"/>
    </g>
   </g>
   <g id="44A">
    <g clip-path="url(#p031af6bdcd)">
     <use style="fill:#ff7f0e;stroke:#ff7f0e;" x="176.317767" xlink:href="#mffe76bc208" y="98.83956"/>
    </g>
   </g>
   <g id="45A">
    <g clip-path="url(#p031af6bdcd)">
     <use style="fill:#2ca02c;stroke:#2ca02c;" x="123.819454" xlink:href="#m2f56369163" y="146.754734"/>
    </g>
   </g>
   <g id="46A">
    <g clip-path="url(#p031af6bdcd)">
     <use style="fill:#d62728;stroke:#d62728;" x="109.501732" xlink:href="#m8666f1e674" y="146.754734"/>
    </g>
   </g>
   <g id="47A">
    <g clip-path="url(#p031af6bdcd)">
     <use style="fill:#9467bd;stroke:#9467bd;" x="99.956584" xlink:href="#m1333ec5df3" y="288.725622"/>
    </g>
   </g>
   <g id="48A">
    <g clip-path="url(#p031af6bdcd)">
     <use style="fill:#8c564b;stroke:#8c564b;" x="176.317767" xlink:href="#m7bde813018" y="146.754734"/>
    </g>
   </g>
   <g id="49A">
    <g clip-path="url(#p031af6bdcd)">
     <use style="fill:#e377c2;stroke:#e377c2;" x="133.364602" xlink:href="#m96a152eb1e" y="146.754734"/>
    </g>
   </g>
   <g id="50A">
    <g clip-path="url(#p031af6bdcd)">
     <use style="fill:#7f7f7f;stroke:#7f7f7f;" x="133.364602" xlink:href="#mbe4da9aad6" y="173.374276"/>
    </g>
   </g>
   <g id="51A">
    <g clip-path="url(#p031af6bdcd)">
     <use style="fill:#bcbd22;stroke:#bcbd22;" x="305.177262" xlink:href="#m82f80b2a89" y="173.617853"/>
    </g>
   </g>
   <g id="52A">
    <g clip-path="url(#p031af6bdcd)">
     <use style="fill:#17becf;stroke:#17becf;" x="152.454897" xlink:href="#m0ff7d070bb" y="146.754734"/>
    </g>
   </g>
   <g id="53A">
    <g clip-path="url(#p031af6bdcd)">
     <use style="fill:#1f77b4;stroke:#1f77b4;" x="152.454897" xlink:href="#mb2a1884817" y="163.391948"/>
    </g>
   </g>
   <g id="54A">
    <g clip-path="url(#p031af6bdcd)">
     <use style="fill:#ff7f0e;stroke:#ff7f0e;" x="128.592028" xlink:href="#mffe76bc208" y="146.754734"/>
    </g>
   </g>
   <g id="55A">
    <g clip-path="url(#p031af6bdcd)">
     <use style="fill:#2ca02c;stroke:#2ca02c;" x="152.454897" xlink:href="#m2f56369163" y="222.810567"/>
    </g>
   </g>
   <g id="57A">
    <g clip-path="url(#p031af6bdcd)">
     <use style="fill:#d62728;stroke:#d62728;" x="300.404688" xlink:href="#m8666f1e674" y="134.923827"/>
    </g>
   </g>
   <g id="58A">
    <g clip-path="url(#p031af6bdcd)">
     <use style="fill:#9467bd;stroke:#9467bd;" x="85.638863" xlink:href="#m1333ec5df3" y="146.754734"/>
    </g>
   </g>
   <g id="59A">
    <g clip-path="url(#p031af6bdcd)">
     <use style="fill:#8c564b;stroke:#8c564b;" x="85.638863" xlink:href="#m7bde813018" y="146.754734"/>
    </g>
   </g>
   <g id="61A">
    <g clip-path="url(#p031af6bdcd)">
     <use style="fill:#e377c2;stroke:#e377c2;" x="76.093715" xlink:href="#m96a152eb1e" y="146.754734"/>
    </g>
   </g>
   <g id="62A">
    <g clip-path="url(#p031af6bdcd)">
     <use style="fill:#7f7f7f;stroke:#7f7f7f;" x="80.866289" xlink:href="#mbe4da9aad6" y="146.754734"/>
    </g>
   </g>
   <g id="63A">
    <g clip-path="url(#p031af6bdcd)">
     <use style="fill:#bcbd22;stroke:#bcbd22;" x="123.819454" xlink:href="#m82f80b2a89" y="146.754734"/>
    </g>
   </g>
   <g id="64A">
    <g clip-path="url(#p031af6bdcd)">
     <use style="fill:#17becf;stroke:#17becf;" x="123.819454" xlink:href="#m0ff7d070bb" y="102.388832"/>
    </g>
   </g>
   <g id="58B">
    <g clip-path="url(#p031af6bdcd)">
     <use style="fill:#1f77b4;stroke:#1f77b4;" x="85.638863" xlink:href="#mb2a1884817" y="146.754734"/>
    </g>
   </g>
   <g id="65A">
    <g clip-path="url(#p031af6bdcd)">
     <use style="fill:#ff7f0e;stroke:#ff7f0e;" x="119.04688" xlink:href="#mffe76bc208" y="137.881554"/>
    </g>
   </g>
   <g id="66A">
    <g clip-path="url(#p031af6bdcd)">
     <use style="fill:#2ca02c;stroke:#2ca02c;" x="119.04688" xlink:href="#m2f56369163" y="146.754734"/>
    </g>
   </g>
   <g id="67A">
    <g clip-path="url(#p031af6bdcd)">
     <use style="fill:#d62728;stroke:#d62728;" x="119.04688" xlink:href="#m8666f1e674" y="217.740178"/>
    </g>
   </g>
   <g id="68A">
    <g clip-path="url(#p031af6bdcd)">
     <use style="fill:#9467bd;stroke:#9467bd;" x="119.04688" xlink:href="#m1333ec5df3" y="102.388832"/>
    </g>
   </g>
   <g id="69A">
    <g clip-path="url(#p031af6bdcd)">
     <use style="fill:#8c564b;stroke:#8c564b;" x="348.130427" xlink:href="#m7bde813018" y="112.196032"/>
    </g>
   </g>
   <g id="70A">
    <g clip-path="url(#p031af6bdcd)">
     <use style="fill:#e377c2;stroke:#e377c2;" x="209.725784" xlink:href="#m96a152eb1e" y="154.740597"/>
    </g>
   </g>
   <g id="71A">
    <g clip-path="url(#p031af6bdcd)">
     <use style="fill:#7f7f7f;stroke:#7f7f7f;" x="176.317767" xlink:href="#mbe4da9aad6" y="146.754734"/>
    </g>
   </g>
   <g id="72A">
    <g clip-path="url(#p031af6bdcd)">
     <use style="fill:#bcbd22;stroke:#bcbd22;" x="190.635488" xlink:href="#m82f80b2a89" y="168.050368"/>
    </g>
   </g>
   <g id="73A">
    <g clip-path="url(#p031af6bdcd)">
     <use style="fill:#17becf;stroke:#17becf;" x="147.682323" xlink:href="#m0ff7d070bb" y="146.754734"/>
    </g>
   </g>
   <g id="74A">
    <g clip-path="url(#p031af6bdcd)">
     <use style="fill:#1f77b4;stroke:#1f77b4;" x="123.819454" xlink:href="#mb2a1884817" y="28.445662"/>
    </g>
   </g>
   <g id="75A">
    <g clip-path="url(#p031af6bdcd)">
     <use style="fill:#ff7f0e;stroke:#ff7f0e;" x="119.04688" xlink:href="#mffe76bc208" y="87.600198"/>
    </g>
   </g>
   <g id="76A">
    <g clip-path="url(#p031af6bdcd)">
     <use style="fill:#2ca02c;stroke:#2ca02c;" x="119.04688" xlink:href="#m2f56369163" y="146.754734"/>
    </g>
   </g>
   <g id="77A">
    <g clip-path="url(#p031af6bdcd)">
     <use style="fill:#d62728;stroke:#d62728;" x="185.862914" xlink:href="#m8666f1e674" y="146.754734"/>
    </g>
   </g>
   <g id="78A">
    <g clip-path="url(#p031af6bdcd)">
     <use style="fill:#9467bd;stroke:#9467bd;" x="185.862914" xlink:href="#m1333ec5df3" y="111.262013"/>
    </g>
   </g>
   <g id="79A">
    <g clip-path="url(#p031af6bdcd)">
     <use style="fill:#8c564b;stroke:#8c564b;" x="104.729158" xlink:href="#m7bde813018" y="87.600198"/>
    </g>
   </g>
   <g id="80A">
    <g clip-path="url(#p031af6bdcd)">
     <use style="fill:#e377c2;stroke:#e377c2;" x="104.729158" xlink:href="#m96a152eb1e" y="146.754734"/>
    </g>
   </g>
   <g id="79B">
    <g clip-path="url(#p031af6bdcd)">
     <use style="fill:#7f7f7f;stroke:#7f7f7f;" x="104.729158" xlink:href="#mbe4da9aad6" y="146.754734"/>
    </g>
   </g>
   <g id="81A">
    <g clip-path="url(#p031af6bdcd)">
     <use style="fill:#bcbd22;stroke:#bcbd22;" x="395.856166" xlink:href="#m82f80b2a89" y="145.679197"/>
    </g>
   </g>
   <g id="82A">
    <g clip-path="url(#p031af6bdcd)">
     <use style="fill:#17becf;stroke:#17becf;" x="424.491609" xlink:href="#m0ff7d070bb" y="142.318144"/>
    </g>
   </g>
   <g id="83A">
    <g clip-path="url(#p031af6bdcd)">
     <use style="fill:#1f77b4;stroke:#1f77b4;" x="424.491609" xlink:href="#mb2a1884817" y="108.304286"/>
    </g>
   </g>
   <g id="84A">
    <g clip-path="url(#p031af6bdcd)">
     <use style="fill:#ff7f0e;stroke:#ff7f0e;" x="204.95321" xlink:href="#mffe76bc208" y="146.754734"/>
    </g>
   </g>
   <g id="85A">
    <g clip-path="url(#p031af6bdcd)">
     <use style="fill:#2ca02c;stroke:#2ca02c;" x="371.993296" xlink:href="#m2f56369163" y="58.529969"/>
    </g>
   </g>
   <g id="86A">
    <g clip-path="url(#p031af6bdcd)">
     <use style="fill:#d62728;stroke:#d62728;" x="381.538444" xlink:href="#m8666f1e674" y="103.128264"/>
    </g>
   </g>
   <g id="87A">
    <g clip-path="url(#p031af6bdcd)">
     <use style="fill:#9467bd;stroke:#9467bd;" x="395.856166" xlink:href="#m1333ec5df3" y="120.614508"/>
    </g>
   </g>
   <g id="88A">
    <g clip-path="url(#p031af6bdcd)">
     <use style="fill:#8c564b;stroke:#8c564b;" x="367.220722" xlink:href="#m7bde813018" y="123.198553"/>
    </g>
   </g>
   <g id="89A">
    <g clip-path="url(#p031af6bdcd)">
     <use style="fill:#e377c2;stroke:#e377c2;" x="352.903001" xlink:href="#m96a152eb1e" y="118.952102"/>
    </g>
   </g>
   <g id="90A">
    <g clip-path="url(#p031af6bdcd)">
     <use style="fill:#7f7f7f;stroke:#7f7f7f;" x="281.314392" xlink:href="#mbe4da9aad6" y="146.754734"/>
    </g>
   </g>
   <g id="91A">
    <g clip-path="url(#p031af6bdcd)">
     <use style="fill:#bcbd22;stroke:#bcbd22;" x="219.270932" xlink:href="#m82f80b2a89" y="125.459101"/>
    </g>
   </g>
   <g id="92A">
    <g clip-path="url(#p031af6bdcd)">
     <use style="fill:#17becf;stroke:#17becf;" x="300.404688" xlink:href="#m0ff7d070bb" y="168.840178"/>
    </g>
   </g>
   <g id="93A">
    <g clip-path="url(#p031af6bdcd)">
     <use style="fill:#1f77b4;stroke:#1f77b4;" x="314.72241" xlink:href="#mb2a1884817" y="113.036649"/>
    </g>
   </g>
   <g id="94A">
    <g clip-path="url(#p031af6bdcd)">
     <use style="fill:#ff7f0e;stroke:#ff7f0e;" x="247.906375" xlink:href="#mffe76bc208" y="177.177068"/>
    </g>
   </g>
   <g id="95A">
    <g clip-path="url(#p031af6bdcd)">
     <use style="fill:#2ca02c;stroke:#2ca02c;" x="362.448148" xlink:href="#m2f56369163" y="53.290567"/>
    </g>
   </g>
   <g id="96A">
    <g clip-path="url(#p031af6bdcd)">
     <use style="fill:#d62728;stroke:#d62728;" x="290.85954" xlink:href="#m8666f1e674" y="112.149331"/>
    </g>
   </g>
   <g id="97A">
    <g clip-path="url(#p031af6bdcd)">
     <use style="fill:#9467bd;stroke:#9467bd;" x="386.311018" xlink:href="#m1333ec5df3" y="133.28714"/>
    </g>
   </g>
   <g id="143F">
    <g clip-path="url(#p031af6bdcd)">
     <use style="fill:#8c564b;stroke:#8c564b;" x="386.311018" xlink:href="#m7bde813018" y="203.543089"/>
    </g>
   </g>
   <g id="90B">
    <g clip-path="url(#p031af6bdcd)">
     <use style="fill:#e377c2;stroke:#e377c2;" x="76.093715" xlink:href="#m96a152eb1e" y="146.754734"/>
    </g>
   </g>
   <g id="90C">
    <g clip-path="url(#p031af6bdcd)">
     <use style="fill:#7f7f7f;stroke:#7f7f7f;" x="243.133801" xlink:href="#mbe4da9aad6" y="146.754734"/>
    </g>
   </g>
   <g id="144P">
    <g clip-path="url(#p031af6bdcd)">
     <use style="fill:#bcbd22;stroke:#bcbd22;" x="142.909749" xlink:href="#m82f80b2a89" y="146.754734"/>
    </g>
   </g>
   <g id="144J">
    <g clip-path="url(#p031af6bdcd)">
     <use style="fill:#17becf;stroke:#17becf;" x="166.772619" xlink:href="#m0ff7d070bb" y="146.754734"/>
    </g>
   </g>
   <g id="144S">
    <g clip-path="url(#p031af6bdcd)">
     <use style="fill:#1f77b4;stroke:#1f77b4;" x="166.772619" xlink:href="#mb2a1884817" y="143.057576"/>
    </g>
   </g>
   <g id="144X">
    <g clip-path="url(#p031af6bdcd)">
     <use style="fill:#ff7f0e;stroke:#ff7f0e;" x="99.956584" xlink:href="#mffe76bc208" y="146.754734"/>
    </g>
   </g>
   <g id="144A">
    <g clip-path="url(#p031af6bdcd)">
     <use style="fill:#2ca02c;stroke:#2ca02c;" x="357.675575" xlink:href="#m2f56369163" y="127.202603"/>
    </g>
   </g>
   <g id="144V">
    <g clip-path="url(#p031af6bdcd)">
     <use style="fill:#d62728;stroke:#d62728;" x="99.956584" xlink:href="#m8666f1e674" y="146.754734"/>
    </g>
   </g>
   <g id="144I">
    <g clip-path="url(#p031af6bdcd)">
     <use style="fill:#9467bd;stroke:#9467bd;" x="157.227471" xlink:href="#m1333ec5df3" y="149.981346"/>
    </g>
   </g>
   <g id="144R">
    <g clip-path="url(#p031af6bdcd)">
     <use style="fill:#8c564b;stroke:#8c564b;" x="142.909749" xlink:href="#m7bde813018" y="172.106679"/>
    </g>
   </g>
   <g id="143B">
    <g clip-path="url(#p031af6bdcd)">
     <use style="fill:#e377c2;stroke:#e377c2;" x="76.093715" xlink:href="#m96a152eb1e" y="146.754734"/>
    </g>
   </g>
   <g id="144K">
    <g clip-path="url(#p031af6bdcd)">
     <use style="fill:#7f7f7f;stroke:#7f7f7f;" x="166.772619" xlink:href="#mbe4da9aad6" y="146.754734"/>
    </g>
   </g>
   <g id="144B">
    <g clip-path="url(#p031af6bdcd)">
     <use style="fill:#bcbd22;stroke:#bcbd22;" x="224.043506" xlink:href="#m82f80b2a89" y="89.079061"/>
    </g>
   </g>
   <g id="144D">
    <g clip-path="url(#p031af6bdcd)">
     <use style="fill:#17becf;stroke:#17becf;" x="171.545193" xlink:href="#m0ff7d070bb" y="131.9661"/>
    </g>
   </g>
   <g id="143E">
    <g clip-path="url(#p031af6bdcd)">
     <use style="fill:#1f77b4;stroke:#1f77b4;" x="386.311018" xlink:href="#mb2a1884817" y="175.253302"/>
    </g>
   </g>
   <g id="143A">
    <g clip-path="url(#p031af6bdcd)">
     <use style="fill:#ff7f0e;stroke:#ff7f0e;" x="386.311018" xlink:href="#mffe76bc208" y="183.29136"/>
    </g>
   </g>
   <g id="144W">
    <g clip-path="url(#p031af6bdcd)">
     <use style="fill:#2ca02c;stroke:#2ca02c;" x="99.956584" xlink:href="#m2f56369163" y="146.754734"/>
    </g>
   </g>
   <g id="144Q">
    <g clip-path="url(#p031af6bdcd)">
     <use style="fill:#d62728;stroke:#d62728;" x="142.909749" xlink:href="#m8666f1e674" y="146.754734"/>
    </g>
   </g>
   <g id="144L">
    <g clip-path="url(#p031af6bdcd)">
     <use style="fill:#9467bd;stroke:#9467bd;" x="176.317767" xlink:href="#m1333ec5df3" y="213.303588"/>
    </g>
   </g>
   <g id="144H">
    <g clip-path="url(#p031af6bdcd)">
     <use style="fill:#8c564b;stroke:#8c564b;" x="157.227471" xlink:href="#m7bde813018" y="146.754734"/>
    </g>
   </g>
   <g id="144T">
    <g clip-path="url(#p031af6bdcd)">
     <use style="fill:#e377c2;stroke:#e377c2;" x="99.956584" xlink:href="#m96a152eb1e" y="146.754734"/>
    </g>
   </g>
   <g id="143G">
    <g clip-path="url(#p031af6bdcd)">
     <use style="fill:#7f7f7f;stroke:#7f7f7f;" x="386.311018" xlink:href="#mbe4da9aad6" y="146.754734"/>
    </g>
   </g>
   <g id="98A">
    <g clip-path="url(#p031af6bdcd)">
     <use style="fill:#bcbd22;stroke:#bcbd22;" x="104.729158" xlink:href="#m82f80b2a89" y="205.909271"/>
    </g>
   </g>
   <g id="99A">
    <g clip-path="url(#p031af6bdcd)">
     <use style="fill:#17becf;stroke:#17becf;" x="90.411437" xlink:href="#m0ff7d070bb" y="146.754734"/>
    </g>
   </g>
   <g id="100A">
    <g clip-path="url(#p031af6bdcd)">
     <use style="fill:#1f77b4;stroke:#1f77b4;" x="176.317767" xlink:href="#mb2a1884817" y="146.754734"/>
    </g>
   </g>
   <g id="101A">
    <g clip-path="url(#p031af6bdcd)">
     <use style="fill:#ff7f0e;stroke:#ff7f0e;" x="252.678949" xlink:href="#mffe76bc208" y="177.177068"/>
    </g>
   </g>
   <g id="102A">
    <g clip-path="url(#p031af6bdcd)">
     <use style="fill:#2ca02c;stroke:#2ca02c;" x="176.317767" xlink:href="#m2f56369163" y="183.261534"/>
    </g>
   </g>
   <g id="103A">
    <g clip-path="url(#p031af6bdcd)">
     <use style="fill:#d62728;stroke:#d62728;" x="176.317767" xlink:href="#m8666f1e674" y="89.966379"/>
    </g>
   </g>
   <g id="104A">
    <g clip-path="url(#p031af6bdcd)">
     <use style="fill:#9467bd;stroke:#9467bd;" x="176.317767" xlink:href="#m1333ec5df3" y="146.754734"/>
    </g>
   </g>
   <g id="105A">
    <g clip-path="url(#p031af6bdcd)">
     <use style="fill:#8c564b;stroke:#8c564b;" x="152.454897" xlink:href="#m7bde813018" y="146.754734"/>
    </g>
   </g>
   <g id="106A">
    <g clip-path="url(#p031af6bdcd)">
     <use style="fill:#e377c2;stroke:#e377c2;" x="80.866289" xlink:href="#m96a152eb1e" y="146.754734"/>
    </g>
   </g>
   <g id="107A">
    <g clip-path="url(#p031af6bdcd)">
     <use style="fill:#7f7f7f;stroke:#7f7f7f;" x="171.545193" xlink:href="#mbe4da9aad6" y="111.262013"/>
    </g>
   </g>
   <g id="108A">
    <g clip-path="url(#p031af6bdcd)">
     <use style="fill:#bcbd22;stroke:#bcbd22;" x="104.729158" xlink:href="#m82f80b2a89" y="146.754734"/>
    </g>
   </g>
   <g id="109A">
    <g clip-path="url(#p031af6bdcd)">
     <use style="fill:#17becf;stroke:#17becf;" x="119.04688" xlink:href="#m0ff7d070bb" y="146.754734"/>
    </g>
   </g>
   <g id="111A">
    <g clip-path="url(#p031af6bdcd)">
     <use style="fill:#1f77b4;stroke:#1f77b4;" x="142.909749" xlink:href="#mb2a1884817" y="146.754734"/>
    </g>
   </g>
   <g id="112A">
    <g clip-path="url(#p031af6bdcd)">
     <use style="fill:#ff7f0e;stroke:#ff7f0e;" x="348.130427" xlink:href="#mffe76bc208" y="134.923827"/>
    </g>
   </g>
   <g id="113A">
    <g clip-path="url(#p031af6bdcd)">
     <use style="fill:#2ca02c;stroke:#2ca02c;" x="128.592028" xlink:href="#m2f56369163" y="217.740178"/>
    </g>
   </g>
   <g id="114A">
    <g clip-path="url(#p031af6bdcd)">
     <use style="fill:#d62728;stroke:#d62728;" x="128.592028" xlink:href="#m8666f1e674" y="235.486539"/>
    </g>
   </g>
   <g id="115A">
    <g clip-path="url(#p031af6bdcd)">
     <use style="fill:#9467bd;stroke:#9467bd;" x="85.638863" xlink:href="#m1333ec5df3" y="40.276569"/>
    </g>
   </g>
   <g id="116A">
    <g clip-path="url(#p031af6bdcd)">
     <use style="fill:#8c564b;stroke:#8c564b;" x="319.494983" xlink:href="#m7bde813018" y="177.424086"/>
    </g>
   </g>
   <g id="117A">
    <g clip-path="url(#p031af6bdcd)">
     <use style="fill:#e377c2;stroke:#e377c2;" x="133.364602" xlink:href="#m96a152eb1e" y="58.02293"/>
    </g>
   </g>
   <g id="118A">
    <g clip-path="url(#p031af6bdcd)">
     <use style="fill:#7f7f7f;stroke:#7f7f7f;" x="185.862914" xlink:href="#mbe4da9aad6" y="146.754734"/>
    </g>
   </g>
   <g id="119A">
    <g clip-path="url(#p031af6bdcd)">
     <use style="fill:#bcbd22;stroke:#bcbd22;" x="185.862914" xlink:href="#m82f80b2a89" y="155.627915"/>
    </g>
   </g>
   <g id="120A">
    <g clip-path="url(#p031af6bdcd)">
     <use style="fill:#17becf;stroke:#17becf;" x="185.862914" xlink:href="#m0ff7d070bb" y="199.993817"/>
    </g>
   </g>
   <g id="121A">
    <g clip-path="url(#p031af6bdcd)">
     <use style="fill:#1f77b4;stroke:#1f77b4;" x="90.411437" xlink:href="#mb2a1884817" y="146.754734"/>
    </g>
   </g>
   <g id="109B">
    <g clip-path="url(#p031af6bdcd)">
     <use style="fill:#ff7f0e;stroke:#ff7f0e;" x="119.04688" xlink:href="#mffe76bc208" y="146.754734"/>
    </g>
   </g>
   <g id="108B">
    <g clip-path="url(#p031af6bdcd)">
     <use style="fill:#2ca02c;stroke:#2ca02c;" x="76.093715" xlink:href="#m2f56369163" y="146.754734"/>
    </g>
   </g>
   <g id="122A">
    <g clip-path="url(#p031af6bdcd)">
     <use style="fill:#d62728;stroke:#d62728;" x="104.729158" xlink:href="#m8666f1e674" y="146.754734"/>
    </g>
   </g>
   <g id="123A">
    <g clip-path="url(#p031af6bdcd)">
     <use style="fill:#9467bd;stroke:#9467bd;" x="76.093715" xlink:href="#m1333ec5df3" y="146.754734"/>
    </g>
   </g>
   <g id="124A">
    <g clip-path="url(#p031af6bdcd)">
     <use style="fill:#8c564b;stroke:#8c564b;" x="133.364602" xlink:href="#m7bde813018" y="146.754734"/>
    </g>
   </g>
   <g id="125A">
    <g clip-path="url(#p031af6bdcd)">
     <use style="fill:#e377c2;stroke:#e377c2;" x="90.411437" xlink:href="#m96a152eb1e" y="146.754734"/>
    </g>
   </g>
   <g id="126A">
    <g clip-path="url(#p031af6bdcd)">
     <use style="fill:#7f7f7f;stroke:#7f7f7f;" x="90.411437" xlink:href="#mbe4da9aad6" y="146.754734"/>
    </g>
   </g>
   <g id="127A">
    <g clip-path="url(#p031af6bdcd)">
     <use style="fill:#bcbd22;stroke:#bcbd22;" x="90.411437" xlink:href="#m82f80b2a89" y="146.754734"/>
    </g>
   </g>
   <g id="129A">
    <g clip-path="url(#p031af6bdcd)">
     <use style="fill:#17becf;stroke:#17becf;" x="262.224097" xlink:href="#m0ff7d070bb" y="185.796729"/>
    </g>
   </g>
   <g id="130A">
    <g clip-path="url(#p031af6bdcd)">
     <use style="fill:#1f77b4;stroke:#1f77b4;" x="257.451523" xlink:href="#mb2a1884817" y="146.754734"/>
    </g>
   </g>
   <g id="131A">
    <g clip-path="url(#p031af6bdcd)">
     <use style="fill:#ff7f0e;stroke:#ff7f0e;" x="90.411437" xlink:href="#mffe76bc208" y="146.754734"/>
    </g>
   </g>
   <g id="132A">
    <g clip-path="url(#p031af6bdcd)">
     <use style="fill:#2ca02c;stroke:#2ca02c;" x="104.729158" xlink:href="#m2f56369163" y="146.754734"/>
    </g>
   </g>
   <g id="133A">
    <g clip-path="url(#p031af6bdcd)">
     <use style="fill:#d62728;stroke:#d62728;" x="104.729158" xlink:href="#m8666f1e674" y="160.064505"/>
    </g>
   </g>
   <g id="134A">
    <g clip-path="url(#p031af6bdcd)">
     <use style="fill:#9467bd;stroke:#9467bd;" x="104.729158" xlink:href="#m1333ec5df3" y="146.754734"/>
    </g>
   </g>
   <g id="135A">
    <g clip-path="url(#p031af6bdcd)">
     <use style="fill:#8c564b;stroke:#8c564b;" x="104.729158" xlink:href="#m7bde813018" y="146.754734"/>
    </g>
   </g>
   <g id="136A">
    <g clip-path="url(#p031af6bdcd)">
     <use style="fill:#e377c2;stroke:#e377c2;" x="90.411437" xlink:href="#m96a152eb1e" y="146.754734"/>
    </g>
   </g>
   <g id="137A">
    <g clip-path="url(#p031af6bdcd)">
     <use style="fill:#7f7f7f;stroke:#7f7f7f;" x="90.411437" xlink:href="#mbe4da9aad6" y="146.754734"/>
    </g>
   </g>
   <g id="138A">
    <g clip-path="url(#p031af6bdcd)">
     <use style="fill:#bcbd22;stroke:#bcbd22;" x="138.137176" xlink:href="#m82f80b2a89" y="75.769291"/>
    </g>
   </g>
   <g id="137B">
    <g clip-path="url(#p031af6bdcd)">
     <use style="fill:#17becf;stroke:#17becf;" x="90.411437" xlink:href="#m0ff7d070bb" y="146.754734"/>
    </g>
   </g>
   <g id="136B">
    <g clip-path="url(#p031af6bdcd)">
     <use style="fill:#1f77b4;stroke:#1f77b4;" x="90.411437" xlink:href="#mb2a1884817" y="146.754734"/>
    </g>
   </g>
   <g id="142A">
    <g clip-path="url(#p031af6bdcd)">
     <use style="fill:#ff7f0e;stroke:#ff7f0e;" x="80.866289" xlink:href="#mffe76bc208" y="146.754734"/>
    </g>
   </g>
   <g id="matplotlib.axis_1">
    <g id="xtick_1">
     <g id="line2d_1">
      <defs>
       <path d="M 0 0 
L 0 3.5 
" id="m433afc6f1b" style="stroke:#000000;stroke-width:0.8;"/>
      </defs>
      <g>
       <use style="stroke:#000000;stroke-width:0.8;" x="61.775993" xlink:href="#m433afc6f1b" y="303.64"/>
      </g>
     </g>
     <g id="text_1">
      <text style="font-family:DejaVu Sans;font-size:10px;font-style:normal;font-weight:normal;text-anchor:middle;" transform="rotate(-0, 61.775993, 318.238437)" x="61.775993" y="318.238437">0</text>
     </g>
    </g>
    <g id="xtick_2">
     <g id="line2d_2">
      <g>
       <use style="stroke:#000000;stroke-width:0.8;" x="109.501732" xlink:href="#m433afc6f1b" y="303.64"/>
      </g>
     </g>
     <g id="text_2">
      <text style="font-family:DejaVu Sans;font-size:10px;font-style:normal;font-weight:normal;text-anchor:middle;" transform="rotate(-0, 109.501732, 318.238437)" x="109.501732" y="318.238437">10</text>
     </g>
    </g>
    <g id="xtick_3">
     <g id="line2d_3">
      <g>
       <use style="stroke:#000000;stroke-width:0.8;" x="157.227471" xlink:href="#m433afc6f1b" y="303.64"/>
      </g>
     </g>
     <g id="text_3">
      <text style="font-family:DejaVu Sans;font-size:10px;font-style:normal;font-weight:normal;text-anchor:middle;" transform="rotate(-0, 157.227471, 318.238437)" x="157.227471" y="318.238437">20</text>
     </g>
    </g>
    <g id="xtick_4">
     <g id="line2d_4">
      <g>
       <use style="stroke:#000000;stroke-width:0.8;" x="204.95321" xlink:href="#m433afc6f1b" y="303.64"/>
      </g>
     </g>
     <g id="text_4">
      <text style="font-family:DejaVu Sans;font-size:10px;font-style:normal;font-weight:normal;text-anchor:middle;" transform="rotate(-0, 204.95321, 318.238437)" x="204.95321" y="318.238437">30</text>
     </g>
    </g>
    <g id="xtick_5">
     <g id="line2d_5">
      <g>
       <use style="stroke:#000000;stroke-width:0.8;" x="252.678949" xlink:href="#m433afc6f1b" y="303.64"/>
      </g>
     </g>
     <g id="text_5">
      <text style="font-family:DejaVu Sans;font-size:10px;font-style:normal;font-weight:normal;text-anchor:middle;" transform="rotate(-0, 252.678949, 318.238437)" x="252.678949" y="318.238437">40</text>
     </g>
    </g>
    <g id="xtick_6">
     <g id="line2d_6">
      <g>
       <use style="stroke:#000000;stroke-width:0.8;" x="300.404688" xlink:href="#m433afc6f1b" y="303.64"/>
      </g>
     </g>
     <g id="text_6">
      <text style="font-family:DejaVu Sans;font-size:10px;font-style:normal;font-weight:normal;text-anchor:middle;" transform="rotate(-0, 300.404688, 318.238437)" x="300.404688" y="318.238437">50</text>
     </g>
    </g>
    <g id="xtick_7">
     <g id="line2d_7">
      <g>
       <use style="stroke:#000000;stroke-width:0.8;" x="348.130427" xlink:href="#m433afc6f1b" y="303.64"/>
      </g>
     </g>
     <g id="text_7">
      <text style="font-family:DejaVu Sans;font-size:10px;font-style:normal;font-weight:normal;text-anchor:middle;" transform="rotate(-0, 348.130427, 318.238437)" x="348.130427" y="318.238437">60</text>
     </g>
    </g>
    <g id="xtick_8">
     <g id="line2d_8">
      <g>
       <use style="stroke:#000000;stroke-width:0.8;" x="395.856166" xlink:href="#m433afc6f1b" y="303.64"/>
      </g>
     </g>
     <g id="text_8">
      <text style="font-family:DejaVu Sans;font-size:10px;font-style:normal;font-weight:normal;text-anchor:middle;" transform="rotate(-0, 395.856166, 318.238437)" x="395.856166" y="318.238437">70</text>
     </g>
    </g>
    <g id="xtick_9">
     <g id="line2d_9">
      <g>
       <use style="stroke:#000000;stroke-width:0.8;" x="443.581905" xlink:href="#m433afc6f1b" y="303.64"/>
      </g>
     </g>
     <g id="text_9">
      <text style="font-family:DejaVu Sans;font-size:10px;font-style:normal;font-weight:normal;text-anchor:middle;" transform="rotate(-0, 443.581905, 318.238437)" x="443.581905" y="318.238437">80</text>
     </g>
    </g>
    <g id="text_10">
     <text style="font-family:DejaVu Sans;font-size:10px;font-style:normal;font-weight:normal;text-anchor:middle;" transform="rotate(-0, 250.289767, 331.916562)" x="250.289767" y="331.916562">Amount of languages tested</text>
    </g>
   </g>
   <g id="matplotlib.axis_2">
    <g id="ytick_1">
     <g id="line2d_10">
      <defs>
       <path d="M 0 0 
L -3.5 0 
" id="m0117da96bb" style="stroke:#000000;stroke-width:0.8;"/>
      </defs>
      <g>
       <use style="stroke:#000000;stroke-width:0.8;" x="56.09" xlink:href="#m0117da96bb" y="253.2329"/>
      </g>
     </g>
     <g id="text_11">
      <text style="font-family:DejaVu Sans;font-size:10px;font-style:normal;font-weight:normal;text-anchor:end;" transform="rotate(-0, 49.09, 257.032119)" x="49.09" y="257.032119">−0.2</text>
     </g>
    </g>
    <g id="ytick_2">
     <g id="line2d_11">
      <g>
       <use style="stroke:#000000;stroke-width:0.8;" x="56.09" xlink:href="#m0117da96bb" y="199.993817"/>
      </g>
     </g>
     <g id="text_12">
      <text style="font-family:DejaVu Sans;font-size:10px;font-style:normal;font-weight:normal;text-anchor:end;" transform="rotate(-0, 49.09, 203.793036)" x="49.09" y="203.793036">−0.1</text>
     </g>
    </g>
    <g id="ytick_3">
     <g id="line2d_12">
      <g>
       <use style="stroke:#000000;stroke-width:0.8;" x="56.09" xlink:href="#m0117da96bb" y="146.754734"/>
      </g>
     </g>
     <g id="text_13">
      <text style="font-family:DejaVu Sans;font-size:10px;font-style:normal;font-weight:normal;text-anchor:end;" transform="rotate(-0, 49.09, 150.553953)" x="49.09" y="150.553953">0.0</text>
     </g>
    </g>
    <g id="ytick_4">
     <g id="line2d_13">
      <g>
       <use style="stroke:#000000;stroke-width:0.8;" x="56.09" xlink:href="#m0117da96bb" y="93.515652"/>
      </g>
     </g>
     <g id="text_14">
      <text style="font-family:DejaVu Sans;font-size:10px;font-style:normal;font-weight:normal;text-anchor:end;" transform="rotate(-0, 49.09, 97.31487)" x="49.09" y="97.31487">0.1</text>
     </g>
    </g>
    <g id="ytick_5">
     <g id="line2d_14">
      <g>
       <use style="stroke:#000000;stroke-width:0.8;" x="56.09" xlink:href="#m0117da96bb" y="40.276569"/>
      </g>
     </g>
     <g id="text_15">
      <text style="font-family:DejaVu Sans;font-size:10px;font-style:normal;font-weight:normal;text-anchor:end;" transform="rotate(-0, 49.09, 44.075788)" x="49.09" y="44.075788">0.2</text>
     </g>
    </g>
    <g id="text_16">
     <text style="font-family:DejaVu Sans;font-size:10px;font-style:normal;font-weight:normal;text-anchor:middle;" transform="rotate(-90, 18.7275, 158.48)" x="18.7275" y="158.48">Score - base</text>
    </g>
   </g>
   <g id="line2d_15">
    <path clip-path="url(#p031af6bdcd)" d="M 76.093715 156.325316 
L 80.866289 155.958347 
L 85.638863 155.591378 
L 90.411437 155.22441 
L 95.184011 154.857441 
L 99.956584 154.490473 
L 104.729158 154.123504 
L 109.501732 153.756536 
L 114.274306 153.389567 
L 119.04688 153.022599 
L 123.819454 152.65563 
L 128.592028 152.288661 
L 133.364602 151.921693 
L 138.137176 151.554724 
L 142.909749 151.187756 
L 147.682323 150.820787 
L 152.454897 150.453819 
L 157.227471 150.08685 
L 166.772619 149.352913 
L 171.545193 148.985944 
L 176.317767 148.618976 
L 185.862914 147.885039 
L 190.635488 147.51807 
L 195.408062 147.151102 
L 204.95321 146.417164 
L 209.725784 146.050196 
L 219.270932 145.316259 
L 224.043506 144.94929 
L 243.133801 143.481416 
L 247.906375 143.114447 
L 252.678949 142.747479 
L 257.451523 142.38051 
L 262.224097 142.013542 
L 281.314392 140.545668 
L 290.85954 139.81173 
L 300.404688 139.077793 
L 305.177262 138.710825 
L 314.72241 137.976888 
L 319.494983 137.609919 
L 333.812705 136.509013 
L 348.130427 135.408108 
L 352.903001 135.041139 
L 357.675575 134.674171 
L 362.448148 134.307202 
L 367.220722 133.940233 
L 371.993296 133.573265 
L 381.538444 132.839328 
L 386.311018 132.472359 
L 395.856166 131.738422 
L 424.491609 129.536611 
" style="fill:none;stroke:#1f77b4;stroke-linecap:square;stroke-width:1.5;"/>
   </g>
   <g id="patch_3">
    <path d="M 56.09 303.64 
L 56.09 13.32 
" style="fill:none;stroke:#000000;stroke-linecap:square;stroke-linejoin:miter;stroke-width:0.8;"/>
   </g>
   <g id="patch_4">
    <path d="M 444.489535 303.64 
L 444.489535 13.32 
" style="fill:none;stroke:#000000;stroke-linecap:square;stroke-linejoin:miter;stroke-width:0.8;"/>
   </g>
   <g id="patch_5">
    <path d="M 56.09 303.64 
L 444.489535 303.64 
" style="fill:none;stroke:#000000;stroke-linecap:square;stroke-linejoin:miter;stroke-width:0.8;"/>
   </g>
   <g id="patch_6">
    <path d="M 56.09 13.32 
L 444.489535 13.32 
" style="fill:none;stroke:#000000;stroke-linecap:square;stroke-linejoin:miter;stroke-width:0.8;"/>
   </g>
  </g>
 </g>
 <defs>
  <clipPath id="p031af6bdcd">
   <rect height="290.32" width="388.399535" x="56.09" y="13.32"/>
  </clipPath>
 </defs>
</svg>
