<?xml version="1.0" encoding="utf-8" standalone="no"?>
<!DOCTYPE svg PUBLIC "-//W3C//DTD SVG 1.1//EN"
  "http://www.w3.org/Graphics/SVG/1.1/DTD/svg11.dtd">
<!-- Created with matplotlib (http://matplotlib.org/) -->
<svg height="345.6pt" version="1.1" viewBox="0 0 460.8 345.6" width="460.8pt" xmlns="http://www.w3.org/2000/svg" xmlns:xlink="http://www.w3.org/1999/xlink">
 <defs>
  <style type="text/css">
*{stroke-linecap:butt;stroke-linejoin:round;}
  </style>
 </defs>
 <g id="figure_1">
  <g id="patch_1">
   <path d="M 0 345.6 
L 460.8 345.6 
L 460.8 0 
L 0 0 
z
" style="fill:#ffffff;"/>
  </g>
  <g id="axes_1">
   <g id="patch_2">
    <path d="M 56.09 303.64 
L 444.247939 303.64 
L 444.247939 13.32 
L 56.09 13.32 
z
" style="fill:#ffffff;"/>
   </g>
   <g id="66A">
    <defs>
     <path d="M 0 3 
C 0.795609 3 1.55874 2.683901 2.12132 2.12132 
C 2.683901 1.55874 3 0.795609 3 0 
C 3 -0.795609 2.683901 -1.55874 2.12132 -2.12132 
C 1.55874 -2.683901 0.795609 -3 0 -3 
C -0.795609 -3 -1.55874 -2.683901 -2.12132 -2.12132 
C -2.683901 -1.55874 -3 -0.795609 -3 0 
C -3 0.795609 -2.683901 1.55874 -2.12132 2.12132 
C -1.55874 2.683901 -0.795609 3 0 3 
z
" id="mabb97fe3e3" style="stroke:#1f77b4;"/>
    </defs>
    <g clip-path="url(#p8a57b023c9)">
     <use style="fill:#1f77b4;stroke:#1f77b4;" x="80.91709" xlink:href="#mabb97fe3e3" y="154.01045"/>
    </g>
   </g>
   <g id="67A">
    <defs>
     <path d="M 0 3 
C 0.795609 3 1.55874 2.683901 2.12132 2.12132 
C 2.683901 1.55874 3 0.795609 3 0 
C 3 -0.795609 2.683901 -1.55874 2.12132 -2.12132 
C 1.55874 -2.683901 0.795609 -3 0 -3 
C -0.795609 -3 -1.55874 -2.683901 -2.12132 -2.12132 
C -2.683901 -1.55874 -3 -0.795609 -3 0 
C -3 0.795609 -2.683901 1.55874 -2.12132 2.12132 
C -1.55874 2.683901 -0.795609 3 0 3 
z
" id="m87eeb42410" style="stroke:#ff7f0e;"/>
    </defs>
    <g clip-path="url(#p8a57b023c9)">
     <use style="fill:#ff7f0e;stroke:#ff7f0e;" x="80.91709" xlink:href="#m87eeb42410" y="154.01045"/>
    </g>
   </g>
   <g id="65A">
    <defs>
     <path d="M 0 3 
C 0.795609 3 1.55874 2.683901 2.12132 2.12132 
C 2.683901 1.55874 3 0.795609 3 0 
C 3 -0.795609 2.683901 -1.55874 2.12132 -2.12132 
C 1.55874 -2.683901 0.795609 -3 0 -3 
C -0.795609 -3 -1.55874 -2.683901 -2.12132 -2.12132 
C -2.683901 -1.55874 -3 -0.795609 -3 0 
C -3 0.795609 -2.683901 1.55874 -2.12132 2.12132 
C -1.55874 2.683901 -0.795609 3 0 3 
z
" id="m56fc487669" style="stroke:#2ca02c;"/>
    </defs>
    <g clip-path="url(#p8a57b023c9)">
     <use style="fill:#2ca02c;stroke:#2ca02c;" x="80.91709" xlink:href="#m56fc487669" y="154.01045"/>
    </g>
   </g>
   <g id="72A">
    <defs>
     <path d="M 0 3 
C 0.795609 3 1.55874 2.683901 2.12132 2.12132 
C 2.683901 1.55874 3 0.795609 3 0 
C 3 -0.795609 2.683901 -1.55874 2.12132 -2.12132 
C 1.55874 -2.683901 0.795609 -3 0 -3 
C -0.795609 -3 -1.55874 -2.683901 -2.12132 -2.12132 
C -2.683901 -1.55874 -3 -0.795609 -3 0 
C -3 0.795609 -2.683901 1.55874 -2.12132 2.12132 
C -1.55874 2.683901 -0.795609 3 0 3 
z
" id="m8b188cedc5" style="stroke:#d62728;"/>
    </defs>
    <g clip-path="url(#p8a57b023c9)">
     <use style="fill:#d62728;stroke:#d62728;" x="172.797639" xlink:href="#m8b188cedc5" y="162.949493"/>
    </g>
   </g>
   <g id="69A">
    <defs>
     <path d="M 0 3 
C 0.795609 3 1.55874 2.683901 2.12132 2.12132 
C 2.683901 1.55874 3 0.795609 3 0 
C 3 -0.795609 2.683901 -1.55874 2.12132 -2.12132 
C 1.55874 -2.683901 0.795609 -3 0 -3 
C -0.795609 -3 -1.55874 -2.683901 -2.12132 -2.12132 
C -2.683901 -1.55874 -3 -0.795609 -3 0 
C -3 0.795609 -2.683901 1.55874 -2.12132 2.12132 
C -1.55874 2.683901 -0.795609 3 0 3 
z
" id="md893ff02f3" style="stroke:#9467bd;"/>
    </defs>
    <g clip-path="url(#p8a57b023c9)">
     <use style="fill:#9467bd;stroke:#9467bd;" x="346.8871" xlink:href="#md893ff02f3" y="136.994903"/>
    </g>
   </g>
   <g id="78A">
    <defs>
     <path d="M 0 3 
C 0.795609 3 1.55874 2.683901 2.12132 2.12132 
C 2.683901 1.55874 3 0.795609 3 0 
C 3 -0.795609 2.683901 -1.55874 2.12132 -2.12132 
C 1.55874 -2.683901 0.795609 -3 0 -3 
C -0.795609 -3 -1.55874 -2.683901 -2.12132 -2.12132 
C -2.683901 -1.55874 -3 -0.795609 -3 0 
C -3 0.795609 -2.683901 1.55874 -2.12132 2.12132 
C -1.55874 2.683901 -0.795609 3 0 3 
z
" id="m0c95e98005" style="stroke:#8c564b;"/>
    </defs>
    <g clip-path="url(#p8a57b023c9)">
     <use style="fill:#8c564b;stroke:#8c564b;" x="167.961821" xlink:href="#m0c95e98005" y="119.247505"/>
    </g>
   </g>
   <g id="68A">
    <defs>
     <path d="M 0 3 
C 0.795609 3 1.55874 2.683901 2.12132 2.12132 
C 2.683901 1.55874 3 0.795609 3 0 
C 3 -0.795609 2.683901 -1.55874 2.12132 -2.12132 
C 1.55874 -2.683901 0.795609 -3 0 -3 
C -0.795609 -3 -1.55874 -2.683901 -2.12132 -2.12132 
C -2.683901 -1.55874 -3 -0.795609 -3 0 
C -3 0.795609 -2.683901 1.55874 -2.12132 2.12132 
C -1.55874 2.683901 -0.795609 3 0 3 
z
" id="m7d76a92a44" style="stroke:#e377c2;"/>
    </defs>
    <g clip-path="url(#p8a57b023c9)">
     <use style="fill:#e377c2;stroke:#e377c2;" x="80.91709" xlink:href="#m7d76a92a44" y="154.01045"/>
    </g>
   </g>
   <g id="76A">
    <defs>
     <path d="M 0 3 
C 0.795609 3 1.55874 2.683901 2.12132 2.12132 
C 2.683901 1.55874 3 0.795609 3 0 
C 3 -0.795609 2.683901 -1.55874 2.12132 -2.12132 
C 1.55874 -2.683901 0.795609 -3 0 -3 
C -0.795609 -3 -1.55874 -2.683901 -2.12132 -2.12132 
C -2.683901 -1.55874 -3 -0.795609 -3 0 
C -3 0.795609 -2.683901 1.55874 -2.12132 2.12132 
C -1.55874 2.683901 -0.795609 3 0 3 
z
" id="m4b2a1a2a99" style="stroke:#7f7f7f;"/>
    </defs>
    <g clip-path="url(#p8a57b023c9)">
     <use style="fill:#7f7f7f;stroke:#7f7f7f;" x="85.752909" xlink:href="#m4b2a1a2a99" y="258.299285"/>
    </g>
   </g>
   <g id="73A">
    <defs>
     <path d="M 0 3 
C 0.795609 3 1.55874 2.683901 2.12132 2.12132 
C 2.683901 1.55874 3 0.795609 3 0 
C 3 -0.795609 2.683901 -1.55874 2.12132 -2.12132 
C 1.55874 -2.683901 0.795609 -3 0 -3 
C -0.795609 -3 -1.55874 -2.683901 -2.12132 -2.12132 
C -2.683901 -1.55874 -3 -0.795609 -3 0 
C -3 0.795609 -2.683901 1.55874 -2.12132 2.12132 
C -1.55874 2.683901 -0.795609 3 0 3 
z
" id="mefa81bf4e5" style="stroke:#bcbd22;"/>
    </defs>
    <g clip-path="url(#p8a57b023c9)">
     <use style="fill:#bcbd22;stroke:#bcbd22;" x="105.096182" xlink:href="#mefa81bf4e5" y="154.01045"/>
    </g>
   </g>
   <g id="75A">
    <defs>
     <path d="M 0 3 
C 0.795609 3 1.55874 2.683901 2.12132 2.12132 
C 2.683901 1.55874 3 0.795609 3 0 
C 3 -0.795609 2.683901 -1.55874 2.12132 -2.12132 
C 1.55874 -2.683901 0.795609 -3 0 -3 
C -0.795609 -3 -1.55874 -2.683901 -2.12132 -2.12132 
C -2.683901 -1.55874 -3 -0.795609 -3 0 
C -3 0.795609 -2.683901 1.55874 -2.12132 2.12132 
C -1.55874 2.683901 -0.795609 3 0 3 
z
" id="me793f771e7" style="stroke:#17becf;"/>
    </defs>
    <g clip-path="url(#p8a57b023c9)">
     <use style="fill:#17becf;stroke:#17becf;" x="85.752909" xlink:href="#me793f771e7" y="154.01045"/>
    </g>
   </g>
   <g id="71A">
    <g clip-path="url(#p8a57b023c9)">
     <use style="fill:#1f77b4;stroke:#1f77b4;" x="172.797639" xlink:href="#mabb97fe3e3" y="109.315234"/>
    </g>
   </g>
   <g id="74A">
    <g clip-path="url(#p8a57b023c9)">
     <use style="fill:#ff7f0e;stroke:#ff7f0e;" x="85.752909" xlink:href="#m87eeb42410" y="154.01045"/>
    </g>
   </g>
   <g id="77A">
    <g clip-path="url(#p8a57b023c9)">
     <use style="fill:#2ca02c;stroke:#2ca02c;" x="167.961821" xlink:href="#m56fc487669" y="119.247505"/>
    </g>
   </g>
   <g id="70A">
    <g clip-path="url(#p8a57b023c9)">
     <use style="fill:#d62728;stroke:#d62728;" x="187.305094" xlink:href="#m8b188cedc5" y="204.851257"/>
    </g>
   </g>
   <g id="44A">
    <g clip-path="url(#p8a57b023c9)">
     <use style="fill:#9467bd;stroke:#9467bd;" x="138.946911" xlink:href="#md893ff02f3" y="154.01045"/>
    </g>
   </g>
   <g id="49A">
    <g clip-path="url(#p8a57b023c9)">
     <use style="fill:#8c564b;stroke:#8c564b;" x="80.91709" xlink:href="#m0c95e98005" y="154.01045"/>
    </g>
   </g>
   <g id="55A">
    <g clip-path="url(#p8a57b023c9)">
     <use style="fill:#e377c2;stroke:#e377c2;" x="114.767819" xlink:href="#m7d76a92a44" y="288.096095"/>
    </g>
   </g>
   <g id="35A">
    <g clip-path="url(#p8a57b023c9)">
     <use style="fill:#7f7f7f;stroke:#7f7f7f;" x="76.081272" xlink:href="#m4b2a1a2a99" y="154.01045"/>
    </g>
   </g>
   <g id="47A">
    <g clip-path="url(#p8a57b023c9)">
     <use style="fill:#bcbd22;stroke:#bcbd22;" x="80.91709" xlink:href="#mefa81bf4e5" y="28.863847"/>
    </g>
   </g>
   <g id="33A">
    <g clip-path="url(#p8a57b023c9)">
     <use style="fill:#17becf;stroke:#17becf;" x="332.379645" xlink:href="#me793f771e7" y="129.428081"/>
    </g>
   </g>
   <g id="45A">
    <g clip-path="url(#p8a57b023c9)">
     <use style="fill:#1f77b4;stroke:#1f77b4;" x="85.752909" xlink:href="#mabb97fe3e3" y="154.01045"/>
    </g>
   </g>
   <g id="51A">
    <g clip-path="url(#p8a57b023c9)">
     <use style="fill:#ff7f0e;stroke:#ff7f0e;" x="303.364735" xlink:href="#m87eeb42410" y="154.01045"/>
    </g>
   </g>
   <g id="37A">
    <g clip-path="url(#p8a57b023c9)">
     <use style="fill:#2ca02c;stroke:#2ca02c;" x="240.499096" xlink:href="#m56fc487669" y="125.852464"/>
    </g>
   </g>
   <g id="34A">
    <g clip-path="url(#p8a57b023c9)">
     <use style="fill:#d62728;stroke:#d62728;" x="80.91709" xlink:href="#m8b188cedc5" y="154.01045"/>
    </g>
   </g>
   <g id="50A">
    <g clip-path="url(#p8a57b023c9)">
     <use style="fill:#9467bd;stroke:#9467bd;" x="80.91709" xlink:href="#md893ff02f3" y="154.01045"/>
    </g>
   </g>
   <g id="57A">
    <g clip-path="url(#p8a57b023c9)">
     <use style="fill:#8c564b;stroke:#8c564b;" x="298.528916" xlink:href="#m0c95e98005" y="154.01045"/>
    </g>
   </g>
   <g id="38A">
    <g clip-path="url(#p8a57b023c9)">
     <use style="fill:#e377c2;stroke:#e377c2;" x="221.155823" xlink:href="#m7d76a92a44" y="69.536493"/>
    </g>
   </g>
   <g id="53A">
    <g clip-path="url(#p8a57b023c9)">
     <use style="fill:#7f7f7f;stroke:#7f7f7f;" x="114.767819" xlink:href="#m4b2a1a2a99" y="154.01045"/>
    </g>
   </g>
   <g id="48A">
    <g clip-path="url(#p8a57b023c9)">
     <use style="fill:#bcbd22;stroke:#bcbd22;" x="138.946911" xlink:href="#mefa81bf4e5" y="154.01045"/>
    </g>
   </g>
   <g id="54A">
    <g clip-path="url(#p8a57b023c9)">
     <use style="fill:#17becf;stroke:#17becf;" x="109.932001" xlink:href="#me793f771e7" y="154.01045"/>
    </g>
   </g>
   <g id="36A">
    <g clip-path="url(#p8a57b023c9)">
     <use style="fill:#1f77b4;stroke:#1f77b4;" x="80.91709" xlink:href="#mabb97fe3e3" y="154.01045"/>
    </g>
   </g>
   <g id="46A">
    <g clip-path="url(#p8a57b023c9)">
     <use style="fill:#ff7f0e;stroke:#ff7f0e;" x="85.752909" xlink:href="#m87eeb42410" y="154.01045"/>
    </g>
   </g>
   <g id="52A">
    <g clip-path="url(#p8a57b023c9)">
     <use style="fill:#2ca02c;stroke:#2ca02c;" x="80.91709" xlink:href="#m56fc487669" y="154.01045"/>
    </g>
   </g>
   <g id="90C">
    <g clip-path="url(#p8a57b023c9)">
     <use style="fill:#d62728;stroke:#d62728;" x="225.991641" xlink:href="#m8b188cedc5" y="154.01045"/>
    </g>
   </g>
   <g id="144B">
    <g clip-path="url(#p8a57b023c9)">
     <use style="fill:#9467bd;stroke:#9467bd;" x="206.648368" xlink:href="#md893ff02f3" y="134.456293"/>
    </g>
   </g>
   <g id="83A">
    <g clip-path="url(#p8a57b023c9)">
     <use style="fill:#8c564b;stroke:#8c564b;" x="424.260193" xlink:href="#m0c95e98005" y="99.780255"/>
    </g>
   </g>
   <g id="87A">
    <g clip-path="url(#p8a57b023c9)">
     <use style="fill:#e377c2;stroke:#e377c2;" x="395.245283" xlink:href="#m7d76a92a44" y="140.358093"/>
    </g>
   </g>
   <g id="144A">
    <g clip-path="url(#p8a57b023c9)">
     <use style="fill:#7f7f7f;stroke:#7f7f7f;" x="356.558736" xlink:href="#m4b2a1a2a99" y="126.200094"/>
    </g>
   </g>
   <g id="97A">
    <g clip-path="url(#p8a57b023c9)">
     <use style="fill:#bcbd22;stroke:#bcbd22;" x="385.573646" xlink:href="#mefa81bf4e5" y="129.717609"/>
    </g>
   </g>
   <g id="95A">
    <g clip-path="url(#p8a57b023c9)">
     <use style="fill:#17becf;stroke:#17becf;" x="361.394555" xlink:href="#me793f771e7" y="44.159543"/>
    </g>
   </g>
   <g id="144S">
    <g clip-path="url(#p8a57b023c9)">
     <use style="fill:#1f77b4;stroke:#1f77b4;" x="129.275274" xlink:href="#mabb97fe3e3" y="223.53634"/>
    </g>
   </g>
   <g id="93A">
    <g clip-path="url(#p8a57b023c9)">
     <use style="fill:#ff7f0e;stroke:#ff7f0e;" x="313.036371" xlink:href="#m87eeb42410" y="154.01045"/>
    </g>
   </g>
   <g id="144K">
    <g clip-path="url(#p8a57b023c9)">
     <use style="fill:#2ca02c;stroke:#2ca02c;" x="163.126002" xlink:href="#m56fc487669" y="154.01045"/>
    </g>
   </g>
   <g id="144X">
    <g clip-path="url(#p8a57b023c9)">
     <use style="fill:#d62728;stroke:#d62728;" x="76.081272" xlink:href="#m8b188cedc5" y="154.01045"/>
    </g>
   </g>
   <g id="86A">
    <g clip-path="url(#p8a57b023c9)">
     <use style="fill:#9467bd;stroke:#9467bd;" x="380.737828" xlink:href="#md893ff02f3" y="128.017248"/>
    </g>
   </g>
   <g id="143A">
    <g clip-path="url(#p8a57b023c9)">
     <use style="fill:#8c564b;stroke:#8c564b;" x="385.573646" xlink:href="#m0c95e98005" y="199.038688"/>
    </g>
   </g>
   <g id="144V">
    <g clip-path="url(#p8a57b023c9)">
     <use style="fill:#e377c2;stroke:#e377c2;" x="76.081272" xlink:href="#m7d76a92a44" y="154.01045"/>
    </g>
   </g>
   <g id="143G">
    <g clip-path="url(#p8a57b023c9)">
     <use style="fill:#7f7f7f;stroke:#7f7f7f;" x="385.573646" xlink:href="#m4b2a1a2a99" y="154.01045"/>
    </g>
   </g>
   <g id="144H">
    <g clip-path="url(#p8a57b023c9)">
     <use style="fill:#bcbd22;stroke:#bcbd22;" x="153.454366" xlink:href="#mefa81bf4e5" y="154.01045"/>
    </g>
   </g>
   <g id="92A">
    <g clip-path="url(#p8a57b023c9)">
     <use style="fill:#17becf;stroke:#17becf;" x="298.528916" xlink:href="#me793f771e7" y="151.08807"/>
    </g>
   </g>
   <g id="144D">
    <g clip-path="url(#p8a57b023c9)">
     <use style="fill:#1f77b4;stroke:#1f77b4;" x="167.961821" xlink:href="#mabb97fe3e3" y="188.773395"/>
    </g>
   </g>
   <g id="84A">
    <g clip-path="url(#p8a57b023c9)">
     <use style="fill:#ff7f0e;stroke:#ff7f0e;" x="182.469276" xlink:href="#m87eeb42410" y="154.01045"/>
    </g>
   </g>
   <g id="143E">
    <g clip-path="url(#p8a57b023c9)">
     <use style="fill:#2ca02c;stroke:#2ca02c;" x="385.573646" xlink:href="#m56fc487669" y="169.715121"/>
    </g>
   </g>
   <g id="143F">
    <g clip-path="url(#p8a57b023c9)">
     <use style="fill:#d62728;stroke:#d62728;" x="385.573646" xlink:href="#m8b188cedc5" y="212.412198"/>
    </g>
   </g>
   <g id="144T">
    <g clip-path="url(#p8a57b023c9)">
     <use style="fill:#9467bd;stroke:#9467bd;" x="76.081272" xlink:href="#md893ff02f3" y="154.01045"/>
    </g>
   </g>
   <g id="81A">
    <g clip-path="url(#p8a57b023c9)">
     <use style="fill:#8c564b;stroke:#8c564b;" x="395.245283" xlink:href="#m0c95e98005" y="145.793754"/>
    </g>
   </g>
   <g id="144L">
    <g clip-path="url(#p8a57b023c9)">
     <use style="fill:#e377c2;stroke:#e377c2;" x="158.290184" xlink:href="#m7d76a92a44" y="154.01045"/>
    </g>
   </g>
   <g id="91A">
    <g clip-path="url(#p8a57b023c9)">
     <use style="fill:#7f7f7f;stroke:#7f7f7f;" x="216.320004" xlink:href="#m4b2a1a2a99" y="154.01045"/>
    </g>
   </g>
   <g id="96A">
    <g clip-path="url(#p8a57b023c9)">
     <use style="fill:#bcbd22;stroke:#bcbd22;" x="288.857279" xlink:href="#mefa81bf4e5" y="128.981129"/>
    </g>
   </g>
   <g id="144I">
    <g clip-path="url(#p8a57b023c9)">
     <use style="fill:#17becf;stroke:#17becf;" x="153.454366" xlink:href="#me793f771e7" y="157.802771"/>
    </g>
   </g>
   <g id="90A">
    <g clip-path="url(#p8a57b023c9)">
     <use style="fill:#1f77b4;stroke:#1f77b4;" x="279.185643" xlink:href="#mabb97fe3e3" y="154.01045"/>
    </g>
   </g>
   <g id="89A">
    <g clip-path="url(#p8a57b023c9)">
     <use style="fill:#ff7f0e;stroke:#ff7f0e;" x="351.722918" xlink:href="#m87eeb42410" y="166.52511"/>
    </g>
   </g>
   <g id="144Q">
    <g clip-path="url(#p8a57b023c9)">
     <use style="fill:#2ca02c;stroke:#2ca02c;" x="119.603637" xlink:href="#m56fc487669" y="154.01045"/>
    </g>
   </g>
   <g id="82A">
    <g clip-path="url(#p8a57b023c9)">
     <use style="fill:#d62728;stroke:#d62728;" x="424.260193" xlink:href="#m8b188cedc5" y="143.581566"/>
    </g>
   </g>
   <g id="144P">
    <g clip-path="url(#p8a57b023c9)">
     <use style="fill:#9467bd;stroke:#9467bd;" x="119.603637" xlink:href="#md893ff02f3" y="154.01045"/>
    </g>
   </g>
   <g id="144R">
    <g clip-path="url(#p8a57b023c9)">
     <use style="fill:#8c564b;stroke:#8c564b;" x="119.603637" xlink:href="#m0c95e98005" y="154.01045"/>
    </g>
   </g>
   <g id="85A">
    <g clip-path="url(#p8a57b023c9)">
     <use style="fill:#e377c2;stroke:#e377c2;" x="371.066191" xlink:href="#m7d76a92a44" y="92.430375"/>
    </g>
   </g>
   <g id="144W">
    <g clip-path="url(#p8a57b023c9)">
     <use style="fill:#7f7f7f;stroke:#7f7f7f;" x="76.081272" xlink:href="#m4b2a1a2a99" y="154.01045"/>
    </g>
   </g>
   <g id="88A">
    <g clip-path="url(#p8a57b023c9)">
     <use style="fill:#bcbd22;stroke:#bcbd22;" x="366.230373" xlink:href="#mefa81bf4e5" y="140.105272"/>
    </g>
   </g>
   <g id="94A">
    <g clip-path="url(#p8a57b023c9)">
     <use style="fill:#17becf;stroke:#17becf;" x="245.334914" xlink:href="#me793f771e7" y="154.01045"/>
    </g>
   </g>
   <g id="144J">
    <g clip-path="url(#p8a57b023c9)">
     <use style="fill:#1f77b4;stroke:#1f77b4;" x="163.126002" xlink:href="#mabb97fe3e3" y="154.01045"/>
    </g>
   </g>
   <g id="102A">
    <g clip-path="url(#p8a57b023c9)">
     <use style="fill:#ff7f0e;stroke:#ff7f0e;" x="138.946911" xlink:href="#m87eeb42410" y="154.01045"/>
    </g>
   </g>
   <g id="112A">
    <g clip-path="url(#p8a57b023c9)">
     <use style="fill:#2ca02c;stroke:#2ca02c;" x="346.8871" xlink:href="#m56fc487669" y="145.667343"/>
    </g>
   </g>
   <g id="120A">
    <g clip-path="url(#p8a57b023c9)">
     <use style="fill:#d62728;stroke:#d62728;" x="167.961821" xlink:href="#m8b188cedc5" y="134.456293"/>
    </g>
   </g>
   <g id="115A">
    <g clip-path="url(#p8a57b023c9)">
     <use style="fill:#9467bd;stroke:#9467bd;" x="80.91709" xlink:href="#md893ff02f3" y="154.01045"/>
    </g>
   </g>
   <g id="116A">
    <g clip-path="url(#p8a57b023c9)">
     <use style="fill:#8c564b;stroke:#8c564b;" x="317.87219" xlink:href="#m0c95e98005" y="179.03977"/>
    </g>
   </g>
   <g id="106A">
    <g clip-path="url(#p8a57b023c9)">
     <use style="fill:#e377c2;stroke:#e377c2;" x="76.081272" xlink:href="#m7d76a92a44" y="154.01045"/>
    </g>
   </g>
   <g id="113A">
    <g clip-path="url(#p8a57b023c9)">
     <use style="fill:#7f7f7f;stroke:#7f7f7f;" x="80.91709" xlink:href="#m4b2a1a2a99" y="154.01045"/>
    </g>
   </g>
   <g id="100A">
    <g clip-path="url(#p8a57b023c9)">
     <use style="fill:#bcbd22;stroke:#bcbd22;" x="138.946911" xlink:href="#mefa81bf4e5" y="195.725984"/>
    </g>
   </g>
   <g id="101A">
    <g clip-path="url(#p8a57b023c9)">
     <use style="fill:#17becf;stroke:#17becf;" x="230.827459" xlink:href="#me793f771e7" y="176.358057"/>
    </g>
   </g>
   <g id="105A">
    <g clip-path="url(#p8a57b023c9)">
     <use style="fill:#1f77b4;stroke:#1f77b4;" x="109.932001" xlink:href="#mabb97fe3e3" y="154.01045"/>
    </g>
   </g>
   <g id="107A">
    <g clip-path="url(#p8a57b023c9)">
     <use style="fill:#ff7f0e;stroke:#ff7f0e;" x="134.111092" xlink:href="#m87eeb42410" y="154.01045"/>
    </g>
   </g>
   <g id="117A">
    <g clip-path="url(#p8a57b023c9)">
     <use style="fill:#2ca02c;stroke:#2ca02c;" x="76.081272" xlink:href="#m56fc487669" y="154.01045"/>
    </g>
   </g>
   <g id="114A">
    <g clip-path="url(#p8a57b023c9)">
     <use style="fill:#d62728;stroke:#d62728;" x="80.91709" xlink:href="#m8b188cedc5" y="154.01045"/>
    </g>
   </g>
   <g id="103A">
    <g clip-path="url(#p8a57b023c9)">
     <use style="fill:#9467bd;stroke:#9467bd;" x="138.946911" xlink:href="#md893ff02f3" y="154.01045"/>
    </g>
   </g>
   <g id="118A">
    <g clip-path="url(#p8a57b023c9)">
     <use style="fill:#8c564b;stroke:#8c564b;" x="167.961821" xlink:href="#m0c95e98005" y="154.01045"/>
    </g>
   </g>
   <g id="104A">
    <g clip-path="url(#p8a57b023c9)">
     <use style="fill:#e377c2;stroke:#e377c2;" x="138.946911" xlink:href="#m7d76a92a44" y="154.01045"/>
    </g>
   </g>
   <g id="119A">
    <g clip-path="url(#p8a57b023c9)">
     <use style="fill:#7f7f7f;stroke:#7f7f7f;" x="167.961821" xlink:href="#m4b2a1a2a99" y="154.01045"/>
    </g>
   </g>
   <g id="111A">
    <g clip-path="url(#p8a57b023c9)">
     <use style="fill:#bcbd22;stroke:#bcbd22;" x="85.752909" xlink:href="#mefa81bf4e5" y="154.01045"/>
    </g>
   </g>
   <g id="27A">
    <g clip-path="url(#p8a57b023c9)">
     <use style="fill:#17becf;stroke:#17becf;" x="114.767819" xlink:href="#me793f771e7" y="154.01045"/>
    </g>
   </g>
   <g id="26A">
    <g clip-path="url(#p8a57b023c9)">
     <use style="fill:#1f77b4;stroke:#1f77b4;" x="313.036371" xlink:href="#mabb97fe3e3" y="138.340833"/>
    </g>
   </g>
   <g id="138A">
    <g clip-path="url(#p8a57b023c9)">
     <use style="fill:#ff7f0e;stroke:#ff7f0e;" x="119.603637" xlink:href="#m87eeb42410" y="154.01045"/>
    </g>
   </g>
   <g id="132A">
    <g clip-path="url(#p8a57b023c9)">
     <use style="fill:#2ca02c;stroke:#2ca02c;" x="80.91709" xlink:href="#m56fc487669" y="154.01045"/>
    </g>
   </g>
   <g id="134A">
    <g clip-path="url(#p8a57b023c9)">
     <use style="fill:#d62728;stroke:#d62728;" x="80.91709" xlink:href="#m8b188cedc5" y="154.01045"/>
    </g>
   </g>
   <g id="133A">
    <g clip-path="url(#p8a57b023c9)">
     <use style="fill:#9467bd;stroke:#9467bd;" x="80.91709" xlink:href="#md893ff02f3" y="28.863847"/>
    </g>
   </g>
   <g id="129A">
    <g clip-path="url(#p8a57b023c9)">
     <use style="fill:#8c564b;stroke:#8c564b;" x="259.842369" xlink:href="#m0c95e98005" y="217.721447"/>
    </g>
   </g>
   <g id="130A">
    <g clip-path="url(#p8a57b023c9)">
     <use style="fill:#e377c2;stroke:#e377c2;" x="255.006551" xlink:href="#m7d76a92a44" y="154.01045"/>
    </g>
   </g>
   <g id="135A">
    <g clip-path="url(#p8a57b023c9)">
     <use style="fill:#7f7f7f;stroke:#7f7f7f;" x="80.91709" xlink:href="#m4b2a1a2a99" y="154.01045"/>
    </g>
   </g>
   <g id="64A">
    <g clip-path="url(#p8a57b023c9)">
     <use style="fill:#bcbd22;stroke:#bcbd22;" x="85.752909" xlink:href="#mefa81bf4e5" y="154.01045"/>
    </g>
   </g>
   <g id="63A">
    <g clip-path="url(#p8a57b023c9)">
     <use style="fill:#17becf;stroke:#17becf;" x="105.096182" xlink:href="#me793f771e7" y="154.01045"/>
    </g>
   </g>
   <g id="59A">
    <g clip-path="url(#p8a57b023c9)">
     <use style="fill:#1f77b4;stroke:#1f77b4;" x="80.91709" xlink:href="#mabb97fe3e3" y="154.01045"/>
    </g>
   </g>
   <g id="58B">
    <g clip-path="url(#p8a57b023c9)">
     <use style="fill:#ff7f0e;stroke:#ff7f0e;" x="80.91709" xlink:href="#m87eeb42410" y="154.01045"/>
    </g>
   </g>
   <g id="58A">
    <g clip-path="url(#p8a57b023c9)">
     <use style="fill:#2ca02c;stroke:#2ca02c;" x="80.91709" xlink:href="#m56fc487669" y="154.01045"/>
    </g>
   </g>
   <g id="124A">
    <g clip-path="url(#p8a57b023c9)">
     <use style="fill:#d62728;stroke:#d62728;" x="95.424546" xlink:href="#m8b188cedc5" y="154.01045"/>
    </g>
   </g>
   <g id="2A">
    <g clip-path="url(#p8a57b023c9)">
     <use style="fill:#9467bd;stroke:#9467bd;" x="216.320004" xlink:href="#md893ff02f3" y="154.01045"/>
    </g>
   </g>
   <g id="9A">
    <g clip-path="url(#p8a57b023c9)">
     <use style="fill:#8c564b;stroke:#8c564b;" x="124.439456" xlink:href="#m0c95e98005" y="154.01045"/>
    </g>
   </g>
   <g id="19A">
    <g clip-path="url(#p8a57b023c9)">
     <use style="fill:#e377c2;stroke:#e377c2;" x="216.320004" xlink:href="#m7d76a92a44" y="154.01045"/>
    </g>
   </g>
   <g id="10A">
    <g clip-path="url(#p8a57b023c9)">
     <use style="fill:#7f7f7f;stroke:#7f7f7f;" x="80.91709" xlink:href="#m4b2a1a2a99" y="28.863847"/>
    </g>
   </g>
   <g id="16A">
    <g clip-path="url(#p8a57b023c9)">
     <use style="fill:#bcbd22;stroke:#bcbd22;" x="192.140913" xlink:href="#mefa81bf4e5" y="154.01045"/>
    </g>
   </g>
   <g id="5A">
    <g clip-path="url(#p8a57b023c9)">
     <use style="fill:#17becf;stroke:#17becf;" x="216.320004" xlink:href="#me793f771e7" y="169.653775"/>
    </g>
   </g>
   <g id="8A">
    <g clip-path="url(#p8a57b023c9)">
     <use style="fill:#1f77b4;stroke:#1f77b4;" x="216.320004" xlink:href="#mabb97fe3e3" y="122.723799"/>
    </g>
   </g>
   <g id="7A">
    <g clip-path="url(#p8a57b023c9)">
     <use style="fill:#ff7f0e;stroke:#ff7f0e;" x="216.320004" xlink:href="#m87eeb42410" y="154.01045"/>
    </g>
   </g>
   <g id="3A">
    <g clip-path="url(#p8a57b023c9)">
     <use style="fill:#2ca02c;stroke:#2ca02c;" x="216.320004" xlink:href="#m56fc487669" y="127.242982"/>
    </g>
   </g>
   <g id="17A">
    <g clip-path="url(#p8a57b023c9)">
     <use style="fill:#d62728;stroke:#d62728;" x="124.439456" xlink:href="#m8b188cedc5" y="288.096095"/>
    </g>
   </g>
   <g id="4A">
    <g clip-path="url(#p8a57b023c9)">
     <use style="fill:#9467bd;stroke:#9467bd;" x="216.320004" xlink:href="#md893ff02f3" y="117.509357"/>
    </g>
   </g>
   <g id="13A">
    <g clip-path="url(#p8a57b023c9)">
     <use style="fill:#8c564b;stroke:#8c564b;" x="192.140913" xlink:href="#m0c95e98005" y="185.2971"/>
    </g>
   </g>
   <g id="6A">
    <g clip-path="url(#p8a57b023c9)">
     <use style="fill:#e377c2;stroke:#e377c2;" x="216.320004" xlink:href="#m7d76a92a44" y="154.01045"/>
    </g>
   </g>
   <g id="11A">
    <g clip-path="url(#p8a57b023c9)">
     <use style="fill:#7f7f7f;stroke:#7f7f7f;" x="216.320004" xlink:href="#m4b2a1a2a99" y="154.01045"/>
    </g>
   </g>
   <g id="1A">
    <g clip-path="url(#p8a57b023c9)">
     <use style="fill:#bcbd22;stroke:#bcbd22;" x="216.320004" xlink:href="#mefa81bf4e5" y="165.829851"/>
    </g>
   </g>
   <g id="18A">
    <g clip-path="url(#p8a57b023c9)">
     <use style="fill:#17becf;stroke:#17becf;" x="216.320004" xlink:href="#me793f771e7" y="154.01045"/>
    </g>
   </g>
   <g id="14A">
    <g clip-path="url(#p8a57b023c9)">
     <use style="fill:#1f77b4;stroke:#1f77b4;" x="192.140913" xlink:href="#mabb97fe3e3" y="154.01045"/>
    </g>
   </g>
   <g id="12A">
    <g clip-path="url(#p8a57b023c9)">
     <use style="fill:#ff7f0e;stroke:#ff7f0e;" x="167.961821" xlink:href="#m87eeb42410" y="150.285848"/>
    </g>
   </g>
   <g id="15A">
    <g clip-path="url(#p8a57b023c9)">
     <use style="fill:#2ca02c;stroke:#2ca02c;" x="192.140913" xlink:href="#m56fc487669" y="107.659856"/>
    </g>
   </g>
   <g id="matplotlib.axis_1">
    <g id="xtick_1">
     <g id="line2d_1">
      <defs>
       <path d="M 0 0 
L 0 3.5 
" id="m752dca7e6f" style="stroke:#000000;stroke-width:0.8;"/>
      </defs>
      <g>
       <use style="stroke:#000000;stroke-width:0.8;" x="56.737999" xlink:href="#m752dca7e6f" y="303.64"/>
      </g>
     </g>
     <g id="text_1">
      <text style="font-family:DejaVu Sans;font-size:10px;font-style:normal;font-weight:normal;text-anchor:middle;" transform="rotate(-0, 56.737999, 318.238437)" x="56.737999" y="318.238437">0</text>
     </g>
    </g>
    <g id="xtick_2">
     <g id="line2d_2">
      <g>
       <use style="stroke:#000000;stroke-width:0.8;" x="105.096182" xlink:href="#m752dca7e6f" y="303.64"/>
      </g>
     </g>
     <g id="text_2">
      <text style="font-family:DejaVu Sans;font-size:10px;font-style:normal;font-weight:normal;text-anchor:middle;" transform="rotate(-0, 105.096182, 318.238437)" x="105.096182" y="318.238437">10</text>
     </g>
    </g>
    <g id="xtick_3">
     <g id="line2d_3">
      <g>
       <use style="stroke:#000000;stroke-width:0.8;" x="153.454366" xlink:href="#m752dca7e6f" y="303.64"/>
      </g>
     </g>
     <g id="text_3">
      <text style="font-family:DejaVu Sans;font-size:10px;font-style:normal;font-weight:normal;text-anchor:middle;" transform="rotate(-0, 153.454366, 318.238437)" x="153.454366" y="318.238437">20</text>
     </g>
    </g>
    <g id="xtick_4">
     <g id="line2d_4">
      <g>
       <use style="stroke:#000000;stroke-width:0.8;" x="201.812549" xlink:href="#m752dca7e6f" y="303.64"/>
      </g>
     </g>
     <g id="text_4">
      <text style="font-family:DejaVu Sans;font-size:10px;font-style:normal;font-weight:normal;text-anchor:middle;" transform="rotate(-0, 201.812549, 318.238437)" x="201.812549" y="318.238437">30</text>
     </g>
    </g>
    <g id="xtick_5">
     <g id="line2d_5">
      <g>
       <use style="stroke:#000000;stroke-width:0.8;" x="250.170733" xlink:href="#m752dca7e6f" y="303.64"/>
      </g>
     </g>
     <g id="text_5">
      <text style="font-family:DejaVu Sans;font-size:10px;font-style:normal;font-weight:normal;text-anchor:middle;" transform="rotate(-0, 250.170733, 318.238437)" x="250.170733" y="318.238437">40</text>
     </g>
    </g>
    <g id="xtick_6">
     <g id="line2d_6">
      <g>
       <use style="stroke:#000000;stroke-width:0.8;" x="298.528916" xlink:href="#m752dca7e6f" y="303.64"/>
      </g>
     </g>
     <g id="text_6">
      <text style="font-family:DejaVu Sans;font-size:10px;font-style:normal;font-weight:normal;text-anchor:middle;" transform="rotate(-0, 298.528916, 318.238437)" x="298.528916" y="318.238437">50</text>
     </g>
    </g>
    <g id="xtick_7">
     <g id="line2d_7">
      <g>
       <use style="stroke:#000000;stroke-width:0.8;" x="346.8871" xlink:href="#m752dca7e6f" y="303.64"/>
      </g>
     </g>
     <g id="text_7">
      <text style="font-family:DejaVu Sans;font-size:10px;font-style:normal;font-weight:normal;text-anchor:middle;" transform="rotate(-0, 346.8871, 318.238437)" x="346.8871" y="318.238437">60</text>
     </g>
    </g>
    <g id="xtick_8">
     <g id="line2d_8">
      <g>
       <use style="stroke:#000000;stroke-width:0.8;" x="395.245283" xlink:href="#m752dca7e6f" y="303.64"/>
      </g>
     </g>
     <g id="text_8">
      <text style="font-family:DejaVu Sans;font-size:10px;font-style:normal;font-weight:normal;text-anchor:middle;" transform="rotate(-0, 395.245283, 318.238437)" x="395.245283" y="318.238437">70</text>
     </g>
    </g>
    <g id="xtick_9">
     <g id="line2d_9">
      <g>
       <use style="stroke:#000000;stroke-width:0.8;" x="443.603467" xlink:href="#m752dca7e6f" y="303.64"/>
      </g>
     </g>
     <g id="text_9">
      <text style="font-family:DejaVu Sans;font-size:10px;font-style:normal;font-weight:normal;text-anchor:middle;" transform="rotate(-0, 443.603467, 318.238437)" x="443.603467" y="318.238437">80</text>
     </g>
    </g>
    <g id="text_10">
     <text style="font-family:DejaVu Sans;font-size:10px;font-style:normal;font-weight:normal;text-anchor:middle;" transform="rotate(-0, 250.168969, 331.916562)" x="250.168969" y="331.916562">Amount of languages tested</text>
    </g>
   </g>
   <g id="matplotlib.axis_2">
    <g id="ytick_1">
     <g id="line2d_10">
      <defs>
       <path d="M 0 0 
L -3.5 0 
" id="md238fdd5eb" style="stroke:#000000;stroke-width:0.8;"/>
      </defs>
      <g>
       <use style="stroke:#000000;stroke-width:0.8;" x="56.09" xlink:href="#md238fdd5eb" y="279.157052"/>
      </g>
     </g>
     <g id="text_11">
      <text style="font-family:DejaVu Sans;font-size:10px;font-style:normal;font-weight:normal;text-anchor:end;" transform="rotate(-0, 49.09, 282.956271)" x="49.09" y="282.956271">−0.2</text>
     </g>
    </g>
    <g id="ytick_2">
     <g id="line2d_11">
      <g>
       <use style="stroke:#000000;stroke-width:0.8;" x="56.09" xlink:href="#md238fdd5eb" y="216.583751"/>
      </g>
     </g>
     <g id="text_12">
      <text style="font-family:DejaVu Sans;font-size:10px;font-style:normal;font-weight:normal;text-anchor:end;" transform="rotate(-0, 49.09, 220.38297)" x="49.09" y="220.38297">−0.1</text>
     </g>
    </g>
    <g id="ytick_3">
     <g id="line2d_12">
      <g>
       <use style="stroke:#000000;stroke-width:0.8;" x="56.09" xlink:href="#md238fdd5eb" y="154.01045"/>
      </g>
     </g>
     <g id="text_13">
      <text style="font-family:DejaVu Sans;font-size:10px;font-style:normal;font-weight:normal;text-anchor:end;" transform="rotate(-0, 49.09, 157.809668)" x="49.09" y="157.809668">0.0</text>
     </g>
    </g>
    <g id="ytick_4">
     <g id="line2d_13">
      <g>
       <use style="stroke:#000000;stroke-width:0.8;" x="56.09" xlink:href="#md238fdd5eb" y="91.437148"/>
      </g>
     </g>
     <g id="text_14">
      <text style="font-family:DejaVu Sans;font-size:10px;font-style:normal;font-weight:normal;text-anchor:end;" transform="rotate(-0, 49.09, 95.236367)" x="49.09" y="95.236367">0.1</text>
     </g>
    </g>
    <g id="ytick_5">
     <g id="line2d_14">
      <g>
       <use style="stroke:#000000;stroke-width:0.8;" x="56.09" xlink:href="#md238fdd5eb" y="28.863847"/>
      </g>
     </g>
     <g id="text_15">
      <text style="font-family:DejaVu Sans;font-size:10px;font-style:normal;font-weight:normal;text-anchor:end;" transform="rotate(-0, 49.09, 32.663066)" x="49.09" y="32.663066">0.2</text>
     </g>
    </g>
    <g id="text_16">
     <text style="font-family:DejaVu Sans;font-size:10px;font-style:normal;font-weight:normal;text-anchor:middle;" transform="rotate(-90, 18.7275, 158.48)" x="18.7275" y="158.48">Score - base</text>
    </g>
   </g>
   <g id="line2d_15">
    <path clip-path="url(#p8a57b023c9)" d="M 76.081272 155.082111 
L 80.91709 154.908286 
L 85.752909 154.73446 
L 95.424546 154.38681 
L 105.096182 154.039159 
L 109.932001 153.865334 
L 114.767819 153.691509 
L 119.603637 153.517684 
L 124.439456 153.343858 
L 129.275274 153.170033 
L 134.111092 152.996208 
L 138.946911 152.822383 
L 153.454366 152.300907 
L 158.290184 152.127081 
L 163.126002 151.953256 
L 167.961821 151.779431 
L 172.797639 151.605606 
L 182.469276 151.257955 
L 187.305094 151.08413 
L 192.140913 150.910305 
L 206.648368 150.388829 
L 216.320004 150.041178 
L 221.155823 149.867353 
L 225.991641 149.693528 
L 230.827459 149.519703 
L 240.499096 149.172052 
L 245.334914 148.998227 
L 255.006551 148.650576 
L 259.842369 148.476751 
L 279.185643 147.78145 
L 288.857279 147.433799 
L 298.528916 147.086149 
L 303.364735 146.912324 
L 313.036371 146.564673 
L 317.87219 146.390848 
L 332.379645 145.869372 
L 346.8871 145.347896 
L 351.722918 145.174071 
L 356.558736 145.000246 
L 361.394555 144.826421 
L 366.230373 144.652595 
L 371.066191 144.47877 
L 380.737828 144.13112 
L 385.573646 143.957294 
L 395.245283 143.609644 
L 424.260193 142.566692 
" style="fill:none;stroke:#1f77b4;stroke-linecap:square;stroke-width:1.5;"/>
   </g>
   <g id="patch_3">
    <path d="M 56.09 303.64 
L 56.09 13.32 
" style="fill:none;stroke:#000000;stroke-linecap:square;stroke-linejoin:miter;stroke-width:0.8;"/>
   </g>
   <g id="patch_4">
    <path d="M 444.247939 303.64 
L 444.247939 13.32 
" style="fill:none;stroke:#000000;stroke-linecap:square;stroke-linejoin:miter;stroke-width:0.8;"/>
   </g>
   <g id="patch_5">
    <path d="M 56.09 303.64 
L 444.247939 303.64 
" style="fill:none;stroke:#000000;stroke-linecap:square;stroke-linejoin:miter;stroke-width:0.8;"/>
   </g>
   <g id="patch_6">
    <path d="M 56.09 13.32 
L 444.247939 13.32 
" style="fill:none;stroke:#000000;stroke-linecap:square;stroke-linejoin:miter;stroke-width:0.8;"/>
   </g>
  </g>
 </g>
 <defs>
  <clipPath id="p8a57b023c9">
   <rect height="290.32" width="388.157939" x="56.09" y="13.32"/>
  </clipPath>
 </defs>
</svg>
