<?xml version="1.0" encoding="utf-8" standalone="no"?>
<!DOCTYPE svg PUBLIC "-//W3C//DTD SVG 1.1//EN"
  "http://www.w3.org/Graphics/SVG/1.1/DTD/svg11.dtd">
<!-- Created with matplotlib (http://matplotlib.org/) -->
<svg height="345.6pt" version="1.1" viewBox="0 0 460.8 345.6" width="460.8pt" xmlns="http://www.w3.org/2000/svg" xmlns:xlink="http://www.w3.org/1999/xlink">
 <defs>
  <style type="text/css">
*{stroke-linecap:butt;stroke-linejoin:round;}
  </style>
 </defs>
 <g id="figure_1">
  <g id="patch_1">
   <path d="M 0 345.6 
L 460.8 345.6 
L 460.8 0 
L 0 0 
z
" style="fill:#ffffff;"/>
  </g>
  <g id="axes_1">
   <g id="patch_2">
    <path d="M 56.09 303.64 
L 444.250083 303.64 
L 444.250083 13.32 
L 56.09 13.32 
z
" style="fill:#ffffff;"/>
   </g>
   <g id="26A">
    <defs>
     <path d="M 0 3 
C 0.795609 3 1.55874 2.683901 2.12132 2.12132 
C 2.683901 1.55874 3 0.795609 3 0 
C 3 -0.795609 2.683901 -1.55874 2.12132 -2.12132 
C 1.55874 -2.683901 0.795609 -3 0 -3 
C -0.795609 -3 -1.55874 -2.683901 -2.12132 -2.12132 
C -2.683901 -1.55874 -3 -0.795609 -3 0 
C -3 0.795609 -2.683901 1.55874 -2.12132 2.12132 
C -1.55874 2.683901 -0.795609 3 0 3 
z
" id="m02d4e36a2a" style="stroke:#1f77b4;"/>
    </defs>
    <g clip-path="url(#p961f3d76b0)">
     <use style="fill:#1f77b4;stroke:#1f77b4;" x="313.036288" xlink:href="#m02d4e36a2a" y="138.348722"/>
    </g>
   </g>
   <g id="27A">
    <defs>
     <path d="M 0 3 
C 0.795609 3 1.55874 2.683901 2.12132 2.12132 
C 2.683901 1.55874 3 0.795609 3 0 
C 3 -0.795609 2.683901 -1.55874 2.12132 -2.12132 
C 1.55874 -2.683901 0.795609 -3 0 -3 
C -0.795609 -3 -1.55874 -2.683901 -2.12132 -2.12132 
C -2.683901 -1.55874 -3 -0.795609 -3 0 
C -3 0.795609 -2.683901 1.55874 -2.12132 2.12132 
C -1.55874 2.683901 -0.795609 3 0 3 
z
" id="m15e562b78d" style="stroke:#ff7f0e;"/>
    </defs>
    <g clip-path="url(#p961f3d76b0)">
     <use style="fill:#ff7f0e;stroke:#ff7f0e;" x="114.767898" xlink:href="#m15e562b78d" y="154.018207"/>
    </g>
   </g>
   <g id="103A">
    <defs>
     <path d="M 0 3 
C 0.795609 3 1.55874 2.683901 2.12132 2.12132 
C 2.683901 1.55874 3 0.795609 3 0 
C 3 -0.795609 2.683901 -1.55874 2.12132 -2.12132 
C 1.55874 -2.683901 0.795609 -3 0 -3 
C -0.795609 -3 -1.55874 -2.683901 -2.12132 -2.12132 
C -2.683901 -1.55874 -3 -0.795609 -3 0 
C -3 0.795609 -2.683901 1.55874 -2.12132 2.12132 
C -1.55874 2.683901 -0.795609 3 0 3 
z
" id="m34e88bf460" style="stroke:#2ca02c;"/>
    </defs>
    <g clip-path="url(#p961f3d76b0)">
     <use style="fill:#2ca02c;stroke:#2ca02c;" x="138.94697" xlink:href="#m34e88bf460" y="154.018207"/>
    </g>
   </g>
   <g id="115A">
    <defs>
     <path d="M 0 3 
C 0.795609 3 1.55874 2.683901 2.12132 2.12132 
C 2.683901 1.55874 3 0.795609 3 0 
C 3 -0.795609 2.683901 -1.55874 2.12132 -2.12132 
C 1.55874 -2.683901 0.795609 -3 0 -3 
C -0.795609 -3 -1.55874 -2.683901 -2.12132 -2.12132 
C -2.683901 -1.55874 -3 -0.795609 -3 0 
C -3 0.795609 -2.683901 1.55874 -2.12132 2.12132 
C -1.55874 2.683901 -0.795609 3 0 3 
z
" id="m5a5f3a97f2" style="stroke:#d62728;"/>
    </defs>
    <g clip-path="url(#p961f3d76b0)">
     <use style="fill:#d62728;stroke:#d62728;" x="80.917197" xlink:href="#m5a5f3a97f2" y="154.018207"/>
    </g>
   </g>
   <g id="120A">
    <defs>
     <path d="M 0 3 
C 0.795609 3 1.55874 2.683901 2.12132 2.12132 
C 2.683901 1.55874 3 0.795609 3 0 
C 3 -0.795609 2.683901 -1.55874 2.12132 -2.12132 
C 1.55874 -2.683901 0.795609 -3 0 -3 
C -0.795609 -3 -1.55874 -2.683901 -2.12132 -2.12132 
C -2.683901 -1.55874 -3 -0.795609 -3 0 
C -3 0.795609 -2.683901 1.55874 -2.12132 2.12132 
C -1.55874 2.683901 -0.795609 3 0 3 
z
" id="m6286a81807" style="stroke:#9467bd;"/>
    </defs>
    <g clip-path="url(#p961f3d76b0)">
     <use style="fill:#9467bd;stroke:#9467bd;" x="167.961856" xlink:href="#m6286a81807" y="134.464214"/>
    </g>
   </g>
   <g id="100A">
    <defs>
     <path d="M 0 3 
C 0.795609 3 1.55874 2.683901 2.12132 2.12132 
C 2.683901 1.55874 3 0.795609 3 0 
C 3 -0.795609 2.683901 -1.55874 2.12132 -2.12132 
C 1.55874 -2.683901 0.795609 -3 0 -3 
C -0.795609 -3 -1.55874 -2.683901 -2.12132 -2.12132 
C -2.683901 -1.55874 -3 -0.795609 -3 0 
C -3 0.795609 -2.683901 1.55874 -2.12132 2.12132 
C -1.55874 2.683901 -0.795609 3 0 3 
z
" id="m91ff3c8cec" style="stroke:#8c564b;"/>
    </defs>
    <g clip-path="url(#p961f3d76b0)">
     <use style="fill:#8c564b;stroke:#8c564b;" x="138.94697" xlink:href="#m91ff3c8cec" y="195.733392"/>
    </g>
   </g>
   <g id="106A">
    <defs>
     <path d="M 0 3 
C 0.795609 3 1.55874 2.683901 2.12132 2.12132 
C 2.683901 1.55874 3 0.795609 3 0 
C 3 -0.795609 2.683901 -1.55874 2.12132 -2.12132 
C 1.55874 -2.683901 0.795609 -3 0 -3 
C -0.795609 -3 -1.55874 -2.683901 -2.12132 -2.12132 
C -2.683901 -1.55874 -3 -0.795609 -3 0 
C -3 0.795609 -2.683901 1.55874 -2.12132 2.12132 
C -1.55874 2.683901 -0.795609 3 0 3 
z
" id="m38870fd9b4" style="stroke:#e377c2;"/>
    </defs>
    <g clip-path="url(#p961f3d76b0)">
     <use style="fill:#e377c2;stroke:#e377c2;" x="76.081382" xlink:href="#m38870fd9b4" y="154.018207"/>
    </g>
   </g>
   <g id="101A">
    <defs>
     <path d="M 0 3 
C 0.795609 3 1.55874 2.683901 2.12132 2.12132 
C 2.683901 1.55874 3 0.795609 3 0 
C 3 -0.795609 2.683901 -1.55874 2.12132 -2.12132 
C 1.55874 -2.683901 0.795609 -3 0 -3 
C -0.795609 -3 -1.55874 -2.683901 -2.12132 -2.12132 
C -2.683901 -1.55874 -3 -0.795609 -3 0 
C -3 0.795609 -2.683901 1.55874 -2.12132 2.12132 
C -1.55874 2.683901 -0.795609 3 0 3 
z
" id="m88dfc3d0d7" style="stroke:#7f7f7f;"/>
    </defs>
    <g clip-path="url(#p961f3d76b0)">
     <use style="fill:#7f7f7f;stroke:#7f7f7f;" x="230.827443" xlink:href="#m88dfc3d0d7" y="176.365627"/>
    </g>
   </g>
   <g id="104A">
    <defs>
     <path d="M 0 3 
C 0.795609 3 1.55874 2.683901 2.12132 2.12132 
C 2.683901 1.55874 3 0.795609 3 0 
C 3 -0.795609 2.683901 -1.55874 2.12132 -2.12132 
C 1.55874 -2.683901 0.795609 -3 0 -3 
C -0.795609 -3 -1.55874 -2.683901 -2.12132 -2.12132 
C -2.683901 -1.55874 -3 -0.795609 -3 0 
C -3 0.795609 -2.683901 1.55874 -2.12132 2.12132 
C -1.55874 2.683901 -0.795609 3 0 3 
z
" id="m41c2dbe4c7" style="stroke:#bcbd22;"/>
    </defs>
    <g clip-path="url(#p961f3d76b0)">
     <use style="fill:#bcbd22;stroke:#bcbd22;" x="138.94697" xlink:href="#m41c2dbe4c7" y="154.018207"/>
    </g>
   </g>
   <g id="102A">
    <defs>
     <path d="M 0 3 
C 0.795609 3 1.55874 2.683901 2.12132 2.12132 
C 2.683901 1.55874 3 0.795609 3 0 
C 3 -0.795609 2.683901 -1.55874 2.12132 -2.12132 
C 1.55874 -2.683901 0.795609 -3 0 -3 
C -0.795609 -3 -1.55874 -2.683901 -2.12132 -2.12132 
C -2.683901 -1.55874 -3 -0.795609 -3 0 
C -3 0.795609 -2.683901 1.55874 -2.12132 2.12132 
C -1.55874 2.683901 -0.795609 3 0 3 
z
" id="m1643821a56" style="stroke:#17becf;"/>
    </defs>
    <g clip-path="url(#p961f3d76b0)">
     <use style="fill:#17becf;stroke:#17becf;" x="138.94697" xlink:href="#m1643821a56" y="154.018207"/>
    </g>
   </g>
   <g id="116A">
    <g clip-path="url(#p961f3d76b0)">
     <use style="fill:#1f77b4;stroke:#1f77b4;" x="317.872102" xlink:href="#m02d4e36a2a" y="179.047318"/>
    </g>
   </g>
   <g id="117A">
    <g clip-path="url(#p961f3d76b0)">
     <use style="fill:#ff7f0e;stroke:#ff7f0e;" x="76.081382" xlink:href="#m15e562b78d" y="154.018207"/>
    </g>
   </g>
   <g id="105A">
    <g clip-path="url(#p961f3d76b0)">
     <use style="fill:#2ca02c;stroke:#2ca02c;" x="109.932083" xlink:href="#m34e88bf460" y="154.018207"/>
    </g>
   </g>
   <g id="118A">
    <g clip-path="url(#p961f3d76b0)">
     <use style="fill:#d62728;stroke:#d62728;" x="167.961856" xlink:href="#m5a5f3a97f2" y="154.018207"/>
    </g>
   </g>
   <g id="114A">
    <g clip-path="url(#p961f3d76b0)">
     <use style="fill:#9467bd;stroke:#9467bd;" x="80.917197" xlink:href="#m6286a81807" y="154.018207"/>
    </g>
   </g>
   <g id="113A">
    <g clip-path="url(#p961f3d76b0)">
     <use style="fill:#8c564b;stroke:#8c564b;" x="80.917197" xlink:href="#m91ff3c8cec" y="154.018207"/>
    </g>
   </g>
   <g id="111A">
    <g clip-path="url(#p961f3d76b0)">
     <use style="fill:#e377c2;stroke:#e377c2;" x="85.753011" xlink:href="#m38870fd9b4" y="154.018207"/>
    </g>
   </g>
   <g id="107A">
    <g clip-path="url(#p961f3d76b0)">
     <use style="fill:#7f7f7f;stroke:#7f7f7f;" x="134.111155" xlink:href="#m88dfc3d0d7" y="154.018207"/>
    </g>
   </g>
   <g id="119A">
    <g clip-path="url(#p961f3d76b0)">
     <use style="fill:#bcbd22;stroke:#bcbd22;" x="167.961856" xlink:href="#m41c2dbe4c7" y="154.018207"/>
    </g>
   </g>
   <g id="112A">
    <g clip-path="url(#p961f3d76b0)">
     <use style="fill:#17becf;stroke:#17becf;" x="346.886989" xlink:href="#m1643821a56" y="145.67517"/>
    </g>
   </g>
   <g id="3A">
    <g clip-path="url(#p961f3d76b0)">
     <use style="fill:#1f77b4;stroke:#1f77b4;" x="216.32" xlink:href="#m02d4e36a2a" y="127.250963"/>
    </g>
   </g>
   <g id="11A">
    <g clip-path="url(#p961f3d76b0)">
     <use style="fill:#ff7f0e;stroke:#ff7f0e;" x="216.32" xlink:href="#m15e562b78d" y="154.018207"/>
    </g>
   </g>
   <g id="18A">
    <g clip-path="url(#p961f3d76b0)">
     <use style="fill:#2ca02c;stroke:#2ca02c;" x="216.32" xlink:href="#m34e88bf460" y="154.018207"/>
    </g>
   </g>
   <g id="17A">
    <g clip-path="url(#p961f3d76b0)">
     <use style="fill:#d62728;stroke:#d62728;" x="124.439526" xlink:href="#m5a5f3a97f2" y="288.102729"/>
    </g>
   </g>
   <g id="8A">
    <g clip-path="url(#p961f3d76b0)">
     <use style="fill:#9467bd;stroke:#9467bd;" x="216.32" xlink:href="#m6286a81807" y="122.731818"/>
    </g>
   </g>
   <g id="9A">
    <g clip-path="url(#p961f3d76b0)">
     <use style="fill:#8c564b;stroke:#8c564b;" x="124.439526" xlink:href="#m91ff3c8cec" y="154.018207"/>
    </g>
   </g>
   <g id="5A">
    <g clip-path="url(#p961f3d76b0)">
     <use style="fill:#e377c2;stroke:#e377c2;" x="216.32" xlink:href="#m38870fd9b4" y="169.661401"/>
    </g>
   </g>
   <g id="10A">
    <g clip-path="url(#p961f3d76b0)">
     <use style="fill:#7f7f7f;stroke:#7f7f7f;" x="80.917197" xlink:href="#m88dfc3d0d7" y="28.872653"/>
    </g>
   </g>
   <g id="2A">
    <g clip-path="url(#p961f3d76b0)">
     <use style="fill:#bcbd22;stroke:#bcbd22;" x="216.32" xlink:href="#m41c2dbe4c7" y="154.018207"/>
    </g>
   </g>
   <g id="13A">
    <g clip-path="url(#p961f3d76b0)">
     <use style="fill:#17becf;stroke:#17becf;" x="192.140928" xlink:href="#m1643821a56" y="185.304595"/>
    </g>
   </g>
   <g id="4A">
    <g clip-path="url(#p961f3d76b0)">
     <use style="fill:#1f77b4;stroke:#1f77b4;" x="216.32" xlink:href="#m02d4e36a2a" y="117.51742"/>
    </g>
   </g>
   <g id="6A">
    <g clip-path="url(#p961f3d76b0)">
     <use style="fill:#ff7f0e;stroke:#ff7f0e;" x="216.32" xlink:href="#m15e562b78d" y="154.018207"/>
    </g>
   </g>
   <g id="1A">
    <g clip-path="url(#p961f3d76b0)">
     <use style="fill:#2ca02c;stroke:#2ca02c;" x="216.32" xlink:href="#m34e88bf460" y="165.837509"/>
    </g>
   </g>
   <g id="7A">
    <g clip-path="url(#p961f3d76b0)">
     <use style="fill:#d62728;stroke:#d62728;" x="216.32" xlink:href="#m5a5f3a97f2" y="154.018207"/>
    </g>
   </g>
   <g id="19A">
    <g clip-path="url(#p961f3d76b0)">
     <use style="fill:#9467bd;stroke:#9467bd;" x="216.32" xlink:href="#m6286a81807" y="154.018207"/>
    </g>
   </g>
   <g id="14A">
    <g clip-path="url(#p961f3d76b0)">
     <use style="fill:#8c564b;stroke:#8c564b;" x="192.140928" xlink:href="#m91ff3c8cec" y="154.018207"/>
    </g>
   </g>
   <g id="12A">
    <g clip-path="url(#p961f3d76b0)">
     <use style="fill:#e377c2;stroke:#e377c2;" x="167.961856" xlink:href="#m38870fd9b4" y="150.293637"/>
    </g>
   </g>
   <g id="16A">
    <g clip-path="url(#p961f3d76b0)">
     <use style="fill:#7f7f7f;stroke:#7f7f7f;" x="192.140928" xlink:href="#m88dfc3d0d7" y="154.018207"/>
    </g>
   </g>
   <g id="15A">
    <g clip-path="url(#p961f3d76b0)">
     <use style="fill:#bcbd22;stroke:#bcbd22;" x="192.140928" xlink:href="#m41c2dbe4c7" y="107.668002"/>
    </g>
   </g>
   <g id="68A">
    <g clip-path="url(#p961f3d76b0)">
     <use style="fill:#17becf;stroke:#17becf;" x="80.917197" xlink:href="#m1643821a56" y="154.018207"/>
    </g>
   </g>
   <g id="65A">
    <g clip-path="url(#p961f3d76b0)">
     <use style="fill:#1f77b4;stroke:#1f77b4;" x="80.917197" xlink:href="#m02d4e36a2a" y="154.018207"/>
    </g>
   </g>
   <g id="66A">
    <g clip-path="url(#p961f3d76b0)">
     <use style="fill:#ff7f0e;stroke:#ff7f0e;" x="80.917197" xlink:href="#m15e562b78d" y="154.018207"/>
    </g>
   </g>
   <g id="69A">
    <g clip-path="url(#p961f3d76b0)">
     <use style="fill:#2ca02c;stroke:#2ca02c;" x="346.886989" xlink:href="#m34e88bf460" y="137.002803"/>
    </g>
   </g>
   <g id="73A">
    <g clip-path="url(#p961f3d76b0)">
     <use style="fill:#d62728;stroke:#d62728;" x="105.096269" xlink:href="#m5a5f3a97f2" y="154.018207"/>
    </g>
   </g>
   <g id="76A">
    <g clip-path="url(#p961f3d76b0)">
     <use style="fill:#9467bd;stroke:#9467bd;" x="85.753011" xlink:href="#m6286a81807" y="258.306169"/>
    </g>
   </g>
   <g id="71A">
    <g clip-path="url(#p961f3d76b0)">
     <use style="fill:#8c564b;stroke:#8c564b;" x="172.79767" xlink:href="#m91ff3c8cec" y="109.323366"/>
    </g>
   </g>
   <g id="77A">
    <g clip-path="url(#p961f3d76b0)">
     <use style="fill:#e377c2;stroke:#e377c2;" x="167.961856" xlink:href="#m38870fd9b4" y="119.255553"/>
    </g>
   </g>
   <g id="74A">
    <g clip-path="url(#p961f3d76b0)">
     <use style="fill:#7f7f7f;stroke:#7f7f7f;" x="85.753011" xlink:href="#m88dfc3d0d7" y="154.018207"/>
    </g>
   </g>
   <g id="75A">
    <g clip-path="url(#p961f3d76b0)">
     <use style="fill:#bcbd22;stroke:#bcbd22;" x="85.753011" xlink:href="#m41c2dbe4c7" y="154.018207"/>
    </g>
   </g>
   <g id="72A">
    <g clip-path="url(#p961f3d76b0)">
     <use style="fill:#17becf;stroke:#17becf;" x="172.79767" xlink:href="#m1643821a56" y="162.957175"/>
    </g>
   </g>
   <g id="70A">
    <g clip-path="url(#p961f3d76b0)">
     <use style="fill:#1f77b4;stroke:#1f77b4;" x="187.305114" xlink:href="#m02d4e36a2a" y="204.858588"/>
    </g>
   </g>
   <g id="67A">
    <g clip-path="url(#p961f3d76b0)">
     <use style="fill:#ff7f0e;stroke:#ff7f0e;" x="80.917197" xlink:href="#m15e562b78d" y="154.018207"/>
    </g>
   </g>
   <g id="78A">
    <g clip-path="url(#p961f3d76b0)">
     <use style="fill:#2ca02c;stroke:#2ca02c;" x="167.961856" xlink:href="#m34e88bf460" y="119.255553"/>
    </g>
   </g>
   <g id="48A">
    <g clip-path="url(#p961f3d76b0)">
     <use style="fill:#d62728;stroke:#d62728;" x="138.94697" xlink:href="#m5a5f3a97f2" y="154.018207"/>
    </g>
   </g>
   <g id="50A">
    <g clip-path="url(#p961f3d76b0)">
     <use style="fill:#9467bd;stroke:#9467bd;" x="80.917197" xlink:href="#m6286a81807" y="154.018207"/>
    </g>
   </g>
   <g id="47A">
    <g clip-path="url(#p961f3d76b0)">
     <use style="fill:#8c564b;stroke:#8c564b;" x="80.917197" xlink:href="#m91ff3c8cec" y="28.872653"/>
    </g>
   </g>
   <g id="35A">
    <g clip-path="url(#p961f3d76b0)">
     <use style="fill:#e377c2;stroke:#e377c2;" x="76.081382" xlink:href="#m38870fd9b4" y="154.018207"/>
    </g>
   </g>
   <g id="37A">
    <g clip-path="url(#p961f3d76b0)">
     <use style="fill:#7f7f7f;stroke:#7f7f7f;" x="240.499072" xlink:href="#m88dfc3d0d7" y="125.860457"/>
    </g>
   </g>
   <g id="45A">
    <g clip-path="url(#p961f3d76b0)">
     <use style="fill:#bcbd22;stroke:#bcbd22;" x="85.753011" xlink:href="#m41c2dbe4c7" y="154.018207"/>
    </g>
   </g>
   <g id="33A">
    <g clip-path="url(#p961f3d76b0)">
     <use style="fill:#17becf;stroke:#17becf;" x="332.379546" xlink:href="#m1643821a56" y="129.436045"/>
    </g>
   </g>
   <g id="55A">
    <g clip-path="url(#p961f3d76b0)">
     <use style="fill:#1f77b4;stroke:#1f77b4;" x="114.767898" xlink:href="#m02d4e36a2a" y="288.102729"/>
    </g>
   </g>
   <g id="51A">
    <g clip-path="url(#p961f3d76b0)">
     <use style="fill:#ff7f0e;stroke:#ff7f0e;" x="303.364659" xlink:href="#m15e562b78d" y="154.018207"/>
    </g>
   </g>
   <g id="53A">
    <g clip-path="url(#p961f3d76b0)">
     <use style="fill:#2ca02c;stroke:#2ca02c;" x="114.767898" xlink:href="#m34e88bf460" y="154.018207"/>
    </g>
   </g>
   <g id="52A">
    <g clip-path="url(#p961f3d76b0)">
     <use style="fill:#d62728;stroke:#d62728;" x="80.917197" xlink:href="#m5a5f3a97f2" y="154.018207"/>
    </g>
   </g>
   <g id="57A">
    <g clip-path="url(#p961f3d76b0)">
     <use style="fill:#9467bd;stroke:#9467bd;" x="298.528845" xlink:href="#m6286a81807" y="154.018207"/>
    </g>
   </g>
   <g id="54A">
    <g clip-path="url(#p961f3d76b0)">
     <use style="fill:#8c564b;stroke:#8c564b;" x="109.932083" xlink:href="#m91ff3c8cec" y="154.018207"/>
    </g>
   </g>
   <g id="46A">
    <g clip-path="url(#p961f3d76b0)">
     <use style="fill:#e377c2;stroke:#e377c2;" x="85.753011" xlink:href="#m38870fd9b4" y="154.018207"/>
    </g>
   </g>
   <g id="44A">
    <g clip-path="url(#p961f3d76b0)">
     <use style="fill:#7f7f7f;stroke:#7f7f7f;" x="138.94697" xlink:href="#m88dfc3d0d7" y="154.018207"/>
    </g>
   </g>
   <g id="49A">
    <g clip-path="url(#p961f3d76b0)">
     <use style="fill:#bcbd22;stroke:#bcbd22;" x="80.917197" xlink:href="#m41c2dbe4c7" y="154.018207"/>
    </g>
   </g>
   <g id="34A">
    <g clip-path="url(#p961f3d76b0)">
     <use style="fill:#17becf;stroke:#17becf;" x="80.917197" xlink:href="#m1643821a56" y="154.018207"/>
    </g>
   </g>
   <g id="38A">
    <g clip-path="url(#p961f3d76b0)">
     <use style="fill:#1f77b4;stroke:#1f77b4;" x="221.155814" xlink:href="#m02d4e36a2a" y="69.544958"/>
    </g>
   </g>
   <g id="36A">
    <g clip-path="url(#p961f3d76b0)">
     <use style="fill:#ff7f0e;stroke:#ff7f0e;" x="80.917197" xlink:href="#m15e562b78d" y="154.018207"/>
    </g>
   </g>
   <g id="84A">
    <g clip-path="url(#p961f3d76b0)">
     <use style="fill:#2ca02c;stroke:#2ca02c;" x="182.469299" xlink:href="#m34e88bf460" y="154.018207"/>
    </g>
   </g>
   <g id="144P">
    <g clip-path="url(#p961f3d76b0)">
     <use style="fill:#d62728;stroke:#d62728;" x="119.603712" xlink:href="#m5a5f3a97f2" y="154.018207"/>
    </g>
   </g>
   <g id="97A">
    <g clip-path="url(#p961f3d76b0)">
     <use style="fill:#9467bd;stroke:#9467bd;" x="385.573504" xlink:href="#m6286a81807" y="129.72557"/>
    </g>
   </g>
   <g id="144X">
    <g clip-path="url(#p961f3d76b0)">
     <use style="fill:#8c564b;stroke:#8c564b;" x="76.081382" xlink:href="#m91ff3c8cec" y="154.018207"/>
    </g>
   </g>
   <g id="144J">
    <g clip-path="url(#p961f3d76b0)">
     <use style="fill:#e377c2;stroke:#e377c2;" x="163.126042" xlink:href="#m38870fd9b4" y="154.018207"/>
    </g>
   </g>
   <g id="94A">
    <g clip-path="url(#p961f3d76b0)">
     <use style="fill:#7f7f7f;stroke:#7f7f7f;" x="245.334886" xlink:href="#m88dfc3d0d7" y="154.018207"/>
    </g>
   </g>
   <g id="144I">
    <g clip-path="url(#p961f3d76b0)">
     <use style="fill:#bcbd22;stroke:#bcbd22;" x="153.454413" xlink:href="#m41c2dbe4c7" y="157.810496"/>
    </g>
   </g>
   <g id="144D">
    <g clip-path="url(#p961f3d76b0)">
     <use style="fill:#17becf;stroke:#17becf;" x="167.961856" xlink:href="#m1643821a56" y="188.780861"/>
    </g>
   </g>
   <g id="144S">
    <g clip-path="url(#p961f3d76b0)">
     <use style="fill:#1f77b4;stroke:#1f77b4;" x="129.275341" xlink:href="#m02d4e36a2a" y="223.543515"/>
    </g>
   </g>
   <g id="81A">
    <g clip-path="url(#p961f3d76b0)">
     <use style="fill:#ff7f0e;stroke:#ff7f0e;" x="395.245133" xlink:href="#m15e562b78d" y="145.80158"/>
    </g>
   </g>
   <g id="90A">
    <g clip-path="url(#p961f3d76b0)">
     <use style="fill:#2ca02c;stroke:#2ca02c;" x="279.185587" xlink:href="#m34e88bf460" y="154.018207"/>
    </g>
   </g>
   <g id="143F">
    <g clip-path="url(#p961f3d76b0)">
     <use style="fill:#d62728;stroke:#d62728;" x="385.573504" xlink:href="#m5a5f3a97f2" y="212.419466"/>
    </g>
   </g>
   <g id="82A">
    <g clip-path="url(#p961f3d76b0)">
     <use style="fill:#9467bd;stroke:#9467bd;" x="424.260019" xlink:href="#m6286a81807" y="143.589411"/>
    </g>
   </g>
   <g id="87A">
    <g clip-path="url(#p961f3d76b0)">
     <use style="fill:#8c564b;stroke:#8c564b;" x="395.245133" xlink:href="#m91ff3c8cec" y="140.365965"/>
    </g>
   </g>
   <g id="89A">
    <g clip-path="url(#p961f3d76b0)">
     <use style="fill:#e377c2;stroke:#e377c2;" x="351.722803" xlink:href="#m38870fd9b4" y="166.532762"/>
    </g>
   </g>
   <g id="144R">
    <g clip-path="url(#p961f3d76b0)">
     <use style="fill:#7f7f7f;stroke:#7f7f7f;" x="119.603712" xlink:href="#m88dfc3d0d7" y="154.018207"/>
    </g>
   </g>
   <g id="144T">
    <g clip-path="url(#p961f3d76b0)">
     <use style="fill:#bcbd22;stroke:#bcbd22;" x="76.081382" xlink:href="#m41c2dbe4c7" y="154.018207"/>
    </g>
   </g>
   <g id="95A">
    <g clip-path="url(#p961f3d76b0)">
     <use style="fill:#17becf;stroke:#17becf;" x="361.394432" xlink:href="#m1643821a56" y="44.168221"/>
    </g>
   </g>
   <g id="96A">
    <g clip-path="url(#p961f3d76b0)">
     <use style="fill:#1f77b4;stroke:#1f77b4;" x="288.857216" xlink:href="#m02d4e36a2a" y="128.989096"/>
    </g>
   </g>
   <g id="144B">
    <g clip-path="url(#p961f3d76b0)">
     <use style="fill:#ff7f0e;stroke:#ff7f0e;" x="206.648371" xlink:href="#m15e562b78d" y="134.464214"/>
    </g>
   </g>
   <g id="86A">
    <g clip-path="url(#p961f3d76b0)">
     <use style="fill:#2ca02c;stroke:#2ca02c;" x="380.73769" xlink:href="#m34e88bf460" y="128.025223"/>
    </g>
   </g>
   <g id="143A">
    <g clip-path="url(#p961f3d76b0)">
     <use style="fill:#d62728;stroke:#d62728;" x="385.573504" xlink:href="#m5a5f3a97f2" y="199.046068"/>
    </g>
   </g>
   <g id="85A">
    <g clip-path="url(#p961f3d76b0)">
     <use style="fill:#9467bd;stroke:#9467bd;" x="371.066061" xlink:href="#m6286a81807" y="92.438649"/>
    </g>
   </g>
   <g id="144Q">
    <g clip-path="url(#p961f3d76b0)">
     <use style="fill:#8c564b;stroke:#8c564b;" x="119.603712" xlink:href="#m91ff3c8cec" y="154.018207"/>
    </g>
   </g>
   <g id="91A">
    <g clip-path="url(#p961f3d76b0)">
     <use style="fill:#e377c2;stroke:#e377c2;" x="216.32" xlink:href="#m38870fd9b4" y="154.018207"/>
    </g>
   </g>
   <g id="143E">
    <g clip-path="url(#p961f3d76b0)">
     <use style="fill:#7f7f7f;stroke:#7f7f7f;" x="385.573504" xlink:href="#m88dfc3d0d7" y="169.722747"/>
    </g>
   </g>
   <g id="143G">
    <g clip-path="url(#p961f3d76b0)">
     <use style="fill:#bcbd22;stroke:#bcbd22;" x="385.573504" xlink:href="#m41c2dbe4c7" y="154.018207"/>
    </g>
   </g>
   <g id="90C">
    <g clip-path="url(#p961f3d76b0)">
     <use style="fill:#17becf;stroke:#17becf;" x="225.991629" xlink:href="#m1643821a56" y="154.018207"/>
    </g>
   </g>
   <g id="92A">
    <g clip-path="url(#p961f3d76b0)">
     <use style="fill:#1f77b4;stroke:#1f77b4;" x="298.528845" xlink:href="#m02d4e36a2a" y="151.095852"/>
    </g>
   </g>
   <g id="83A">
    <g clip-path="url(#p961f3d76b0)">
     <use style="fill:#ff7f0e;stroke:#ff7f0e;" x="424.260019" xlink:href="#m15e562b78d" y="99.788467"/>
    </g>
   </g>
   <g id="144K">
    <g clip-path="url(#p961f3d76b0)">
     <use style="fill:#2ca02c;stroke:#2ca02c;" x="163.126042" xlink:href="#m34e88bf460" y="154.018207"/>
    </g>
   </g>
   <g id="144A">
    <g clip-path="url(#p961f3d76b0)">
     <use style="fill:#d62728;stroke:#d62728;" x="356.558618" xlink:href="#m5a5f3a97f2" y="126.208084"/>
    </g>
   </g>
   <g id="88A">
    <g clip-path="url(#p961f3d76b0)">
     <use style="fill:#9467bd;stroke:#9467bd;" x="366.230246" xlink:href="#m6286a81807" y="140.113145"/>
    </g>
   </g>
   <g id="93A">
    <g clip-path="url(#p961f3d76b0)">
     <use style="fill:#8c564b;stroke:#8c564b;" x="313.036288" xlink:href="#m91ff3c8cec" y="154.018207"/>
    </g>
   </g>
   <g id="144V">
    <g clip-path="url(#p961f3d76b0)">
     <use style="fill:#e377c2;stroke:#e377c2;" x="76.081382" xlink:href="#m38870fd9b4" y="154.018207"/>
    </g>
   </g>
   <g id="144W">
    <g clip-path="url(#p961f3d76b0)">
     <use style="fill:#7f7f7f;stroke:#7f7f7f;" x="76.081382" xlink:href="#m88dfc3d0d7" y="154.018207"/>
    </g>
   </g>
   <g id="144H">
    <g clip-path="url(#p961f3d76b0)">
     <use style="fill:#bcbd22;stroke:#bcbd22;" x="153.454413" xlink:href="#m41c2dbe4c7" y="154.018207"/>
    </g>
   </g>
   <g id="144L">
    <g clip-path="url(#p961f3d76b0)">
     <use style="fill:#17becf;stroke:#17becf;" x="158.290227" xlink:href="#m1643821a56" y="154.018207"/>
    </g>
   </g>
   <g id="64A">
    <g clip-path="url(#p961f3d76b0)">
     <use style="fill:#1f77b4;stroke:#1f77b4;" x="85.753011" xlink:href="#m02d4e36a2a" y="154.018207"/>
    </g>
   </g>
   <g id="63A">
    <g clip-path="url(#p961f3d76b0)">
     <use style="fill:#ff7f0e;stroke:#ff7f0e;" x="105.096269" xlink:href="#m15e562b78d" y="154.018207"/>
    </g>
   </g>
   <g id="58B">
    <g clip-path="url(#p961f3d76b0)">
     <use style="fill:#2ca02c;stroke:#2ca02c;" x="80.917197" xlink:href="#m34e88bf460" y="154.018207"/>
    </g>
   </g>
   <g id="58A">
    <g clip-path="url(#p961f3d76b0)">
     <use style="fill:#d62728;stroke:#d62728;" x="80.917197" xlink:href="#m5a5f3a97f2" y="154.018207"/>
    </g>
   </g>
   <g id="59A">
    <g clip-path="url(#p961f3d76b0)">
     <use style="fill:#9467bd;stroke:#9467bd;" x="80.917197" xlink:href="#m6286a81807" y="154.018207"/>
    </g>
   </g>
   <g id="129A">
    <g clip-path="url(#p961f3d76b0)">
     <use style="fill:#8c564b;stroke:#8c564b;" x="259.84233" xlink:href="#m91ff3c8cec" y="217.728671"/>
    </g>
   </g>
   <g id="135A">
    <g clip-path="url(#p961f3d76b0)">
     <use style="fill:#e377c2;stroke:#e377c2;" x="80.917197" xlink:href="#m38870fd9b4" y="154.018207"/>
    </g>
   </g>
   <g id="130A">
    <g clip-path="url(#p961f3d76b0)">
     <use style="fill:#7f7f7f;stroke:#7f7f7f;" x="255.006515" xlink:href="#m88dfc3d0d7" y="154.018207"/>
    </g>
   </g>
   <g id="134A">
    <g clip-path="url(#p961f3d76b0)">
     <use style="fill:#bcbd22;stroke:#bcbd22;" x="80.917197" xlink:href="#m41c2dbe4c7" y="154.018207"/>
    </g>
   </g>
   <g id="132A">
    <g clip-path="url(#p961f3d76b0)">
     <use style="fill:#17becf;stroke:#17becf;" x="80.917197" xlink:href="#m1643821a56" y="154.018207"/>
    </g>
   </g>
   <g id="138A">
    <g clip-path="url(#p961f3d76b0)">
     <use style="fill:#1f77b4;stroke:#1f77b4;" x="119.603712" xlink:href="#m02d4e36a2a" y="154.018207"/>
    </g>
   </g>
   <g id="133A">
    <g clip-path="url(#p961f3d76b0)">
     <use style="fill:#ff7f0e;stroke:#ff7f0e;" x="80.917197" xlink:href="#m15e562b78d" y="28.872653"/>
    </g>
   </g>
   <g id="124A">
    <g clip-path="url(#p961f3d76b0)">
     <use style="fill:#2ca02c;stroke:#2ca02c;" x="95.42464" xlink:href="#m34e88bf460" y="154.018207"/>
    </g>
   </g>
   <g id="matplotlib.axis_1">
    <g id="xtick_1">
     <g id="line2d_1">
      <defs>
       <path d="M 0 0 
L 0 3.5 
" id="m9a78b04601" style="stroke:#000000;stroke-width:0.8;"/>
      </defs>
      <g>
       <use style="stroke:#000000;stroke-width:0.8;" x="56.738125" xlink:href="#m9a78b04601" y="303.64"/>
      </g>
     </g>
     <g id="text_1">
      <text style="font-family:DejaVu Sans;font-size:10px;font-style:normal;font-weight:normal;text-anchor:middle;" transform="rotate(-0, 56.738125, 318.238437)" x="56.738125" y="318.238437">0</text>
     </g>
    </g>
    <g id="xtick_2">
     <g id="line2d_2">
      <g>
       <use style="stroke:#000000;stroke-width:0.8;" x="105.096269" xlink:href="#m9a78b04601" y="303.64"/>
      </g>
     </g>
     <g id="text_2">
      <text style="font-family:DejaVu Sans;font-size:10px;font-style:normal;font-weight:normal;text-anchor:middle;" transform="rotate(-0, 105.096269, 318.238437)" x="105.096269" y="318.238437">10</text>
     </g>
    </g>
    <g id="xtick_3">
     <g id="line2d_3">
      <g>
       <use style="stroke:#000000;stroke-width:0.8;" x="153.454413" xlink:href="#m9a78b04601" y="303.64"/>
      </g>
     </g>
     <g id="text_3">
      <text style="font-family:DejaVu Sans;font-size:10px;font-style:normal;font-weight:normal;text-anchor:middle;" transform="rotate(-0, 153.454413, 318.238437)" x="153.454413" y="318.238437">20</text>
     </g>
    </g>
    <g id="xtick_4">
     <g id="line2d_4">
      <g>
       <use style="stroke:#000000;stroke-width:0.8;" x="201.812557" xlink:href="#m9a78b04601" y="303.64"/>
      </g>
     </g>
     <g id="text_4">
      <text style="font-family:DejaVu Sans;font-size:10px;font-style:normal;font-weight:normal;text-anchor:middle;" transform="rotate(-0, 201.812557, 318.238437)" x="201.812557" y="318.238437">30</text>
     </g>
    </g>
    <g id="xtick_5">
     <g id="line2d_5">
      <g>
       <use style="stroke:#000000;stroke-width:0.8;" x="250.170701" xlink:href="#m9a78b04601" y="303.64"/>
      </g>
     </g>
     <g id="text_5">
      <text style="font-family:DejaVu Sans;font-size:10px;font-style:normal;font-weight:normal;text-anchor:middle;" transform="rotate(-0, 250.170701, 318.238437)" x="250.170701" y="318.238437">40</text>
     </g>
    </g>
    <g id="xtick_6">
     <g id="line2d_6">
      <g>
       <use style="stroke:#000000;stroke-width:0.8;" x="298.528845" xlink:href="#m9a78b04601" y="303.64"/>
      </g>
     </g>
     <g id="text_6">
      <text style="font-family:DejaVu Sans;font-size:10px;font-style:normal;font-weight:normal;text-anchor:middle;" transform="rotate(-0, 298.528845, 318.238437)" x="298.528845" y="318.238437">50</text>
     </g>
    </g>
    <g id="xtick_7">
     <g id="line2d_7">
      <g>
       <use style="stroke:#000000;stroke-width:0.8;" x="346.886989" xlink:href="#m9a78b04601" y="303.64"/>
      </g>
     </g>
     <g id="text_7">
      <text style="font-family:DejaVu Sans;font-size:10px;font-style:normal;font-weight:normal;text-anchor:middle;" transform="rotate(-0, 346.886989, 318.238437)" x="346.886989" y="318.238437">60</text>
     </g>
    </g>
    <g id="xtick_8">
     <g id="line2d_8">
      <g>
       <use style="stroke:#000000;stroke-width:0.8;" x="395.245133" xlink:href="#m9a78b04601" y="303.64"/>
      </g>
     </g>
     <g id="text_8">
      <text style="font-family:DejaVu Sans;font-size:10px;font-style:normal;font-weight:normal;text-anchor:middle;" transform="rotate(-0, 395.245133, 318.238437)" x="395.245133" y="318.238437">70</text>
     </g>
    </g>
    <g id="xtick_9">
     <g id="line2d_9">
      <g>
       <use style="stroke:#000000;stroke-width:0.8;" x="443.603277" xlink:href="#m9a78b04601" y="303.64"/>
      </g>
     </g>
     <g id="text_9">
      <text style="font-family:DejaVu Sans;font-size:10px;font-style:normal;font-weight:normal;text-anchor:middle;" transform="rotate(-0, 443.603277, 318.238437)" x="443.603277" y="318.238437">80</text>
     </g>
    </g>
    <g id="text_10">
     <text style="font-family:DejaVu Sans;font-size:10px;font-style:normal;font-weight:normal;text-anchor:middle;" transform="rotate(-0, 250.170041, 331.916562)" x="250.170041" y="331.916562">Amount of languages tested</text>
    </g>
   </g>
   <g id="matplotlib.axis_2">
    <g id="ytick_1">
     <g id="line2d_10">
      <defs>
       <path d="M 0 0 
L -3.5 0 
" id="m94420e8e3d" style="stroke:#000000;stroke-width:0.8;"/>
      </defs>
      <g>
       <use style="stroke:#000000;stroke-width:0.8;" x="56.09" xlink:href="#m94420e8e3d" y="279.163761"/>
      </g>
     </g>
     <g id="text_11">
      <text style="font-family:DejaVu Sans;font-size:10px;font-style:normal;font-weight:normal;text-anchor:end;" transform="rotate(-0, 49.09, 282.96298)" x="49.09" y="282.96298">−0.2</text>
     </g>
    </g>
    <g id="ytick_2">
     <g id="line2d_11">
      <g>
       <use style="stroke:#000000;stroke-width:0.8;" x="56.09" xlink:href="#m94420e8e3d" y="216.590984"/>
      </g>
     </g>
     <g id="text_12">
      <text style="font-family:DejaVu Sans;font-size:10px;font-style:normal;font-weight:normal;text-anchor:end;" transform="rotate(-0, 49.09, 220.390203)" x="49.09" y="220.390203">−0.1</text>
     </g>
    </g>
    <g id="ytick_3">
     <g id="line2d_12">
      <g>
       <use style="stroke:#000000;stroke-width:0.8;" x="56.09" xlink:href="#m94420e8e3d" y="154.018207"/>
      </g>
     </g>
     <g id="text_13">
      <text style="font-family:DejaVu Sans;font-size:10px;font-style:normal;font-weight:normal;text-anchor:end;" transform="rotate(-0, 49.09, 157.817426)" x="49.09" y="157.817426">0.0</text>
     </g>
    </g>
    <g id="ytick_4">
     <g id="line2d_13">
      <g>
       <use style="stroke:#000000;stroke-width:0.8;" x="56.09" xlink:href="#m94420e8e3d" y="91.44543"/>
      </g>
     </g>
     <g id="text_14">
      <text style="font-family:DejaVu Sans;font-size:10px;font-style:normal;font-weight:normal;text-anchor:end;" transform="rotate(-0, 49.09, 95.244649)" x="49.09" y="95.244649">0.1</text>
     </g>
    </g>
    <g id="ytick_5">
     <g id="line2d_14">
      <g>
       <use style="stroke:#000000;stroke-width:0.8;" x="56.09" xlink:href="#m94420e8e3d" y="28.872653"/>
      </g>
     </g>
     <g id="text_15">
      <text style="font-family:DejaVu Sans;font-size:10px;font-style:normal;font-weight:normal;text-anchor:end;" transform="rotate(-0, 49.09, 32.671872)" x="49.09" y="32.671872">0.2</text>
     </g>
    </g>
    <g id="text_16">
     <text style="font-family:DejaVu Sans;font-size:10px;font-style:normal;font-weight:normal;text-anchor:middle;" transform="rotate(-90, 18.7275, 158.48)" x="18.7275" y="158.48">Score - base</text>
    </g>
   </g>
   <g id="line2d_15">
    <path clip-path="url(#p961f3d76b0)" d="M 76.081382 155.089859 
L 80.917197 154.916035 
L 85.753011 154.742212 
L 95.42464 154.394564 
L 105.096269 154.046916 
L 109.932083 153.873093 
L 114.767898 153.699269 
L 119.603712 153.525445 
L 124.439526 153.351621 
L 129.275341 153.177797 
L 134.111155 153.003974 
L 138.94697 152.83015 
L 153.454413 152.308678 
L 158.290227 152.134855 
L 163.126042 151.961031 
L 167.961856 151.787207 
L 172.79767 151.613383 
L 182.469299 151.265736 
L 187.305114 151.091912 
L 192.140928 150.918088 
L 206.648371 150.396616 
L 216.32 150.048969 
L 221.155814 149.875145 
L 225.991629 149.701321 
L 230.827443 149.527497 
L 240.499072 149.17985 
L 245.334886 149.006026 
L 255.006515 148.658378 
L 259.84233 148.484555 
L 279.185587 147.789259 
L 288.857216 147.441612 
L 298.528845 147.093964 
L 303.364659 146.92014 
L 313.036288 146.572493 
L 317.872102 146.398669 
L 332.379546 145.877198 
L 346.886989 145.355726 
L 351.722803 145.181902 
L 356.558618 145.008079 
L 361.394432 144.834255 
L 366.230246 144.660431 
L 371.066061 144.486607 
L 380.73769 144.13896 
L 385.573504 143.965136 
L 395.245133 143.617488 
L 424.260019 142.574545 
" style="fill:none;stroke:#1f77b4;stroke-linecap:square;stroke-width:1.5;"/>
   </g>
   <g id="patch_3">
    <path d="M 56.09 303.64 
L 56.09 13.32 
" style="fill:none;stroke:#000000;stroke-linecap:square;stroke-linejoin:miter;stroke-width:0.8;"/>
   </g>
   <g id="patch_4">
    <path d="M 444.250083 303.64 
L 444.250083 13.32 
" style="fill:none;stroke:#000000;stroke-linecap:square;stroke-linejoin:miter;stroke-width:0.8;"/>
   </g>
   <g id="patch_5">
    <path d="M 56.09 303.64 
L 444.250083 303.64 
" style="fill:none;stroke:#000000;stroke-linecap:square;stroke-linejoin:miter;stroke-width:0.8;"/>
   </g>
   <g id="patch_6">
    <path d="M 56.09 13.32 
L 444.250083 13.32 
" style="fill:none;stroke:#000000;stroke-linecap:square;stroke-linejoin:miter;stroke-width:0.8;"/>
   </g>
  </g>
 </g>
 <defs>
  <clipPath id="p961f3d76b0">
   <rect height="290.32" width="388.160083" x="56.09" y="13.32"/>
  </clipPath>
 </defs>
</svg>
