<?xml version="1.0" encoding="utf-8" standalone="no"?>
<!DOCTYPE svg PUBLIC "-//W3C//DTD SVG 1.1//EN"
  "http://www.w3.org/Graphics/SVG/1.1/DTD/svg11.dtd">
<!-- Created with matplotlib (http://matplotlib.org/) -->
<svg height="345.6pt" version="1.1" viewBox="0 0 460.8 345.6" width="460.8pt" xmlns="http://www.w3.org/2000/svg" xmlns:xlink="http://www.w3.org/1999/xlink">
 <defs>
  <style type="text/css">
*{stroke-linecap:butt;stroke-linejoin:round;}
  </style>
 </defs>
 <g id="figure_1">
  <g id="patch_1">
   <path d="M 0 345.6 
L 460.8 345.6 
L 460.8 0 
L 0 0 
z
" style="fill:#ffffff;"/>
  </g>
  <g id="axes_1">
   <g id="patch_2">
    <path d="M 56.09 303.64 
L 447.48 303.64 
L 447.48 13.32 
L 56.09 13.32 
z
" style="fill:#ffffff;"/>
   </g>
   <g id="44A">
    <defs>
     <path d="M 0 3 
C 0.795609 3 1.55874 2.683901 2.12132 2.12132 
C 2.683901 1.55874 3 0.795609 3 0 
C 3 -0.795609 2.683901 -1.55874 2.12132 -2.12132 
C 1.55874 -2.683901 0.795609 -3 0 -3 
C -0.795609 -3 -1.55874 -2.683901 -2.12132 -2.12132 
C -2.683901 -1.55874 -3 -0.795609 -3 0 
C -3 0.795609 -2.683901 1.55874 -2.12132 2.12132 
C -1.55874 2.683901 -0.795609 3 0 3 
z
" id="m37ff825397" style="stroke:#1f77b4;"/>
    </defs>
    <g clip-path="url(#p3906934aa2)">
     <use style="fill:#1f77b4;stroke:#1f77b4;" x="161.414922" xlink:href="#m37ff825397" y="154.536589"/>
    </g>
   </g>
   <g id="49A">
    <defs>
     <path d="M 0 3 
C 0.795609 3 1.55874 2.683901 2.12132 2.12132 
C 2.683901 1.55874 3 0.795609 3 0 
C 3 -0.795609 2.683901 -1.55874 2.12132 -2.12132 
C 1.55874 -2.683901 0.795609 -3 0 -3 
C -0.795609 -3 -1.55874 -2.683901 -2.12132 -2.12132 
C -2.683901 -1.55874 -3 -0.795609 -3 0 
C -3 0.795609 -2.683901 1.55874 -2.12132 2.12132 
C -1.55874 2.683901 -0.795609 3 0 3 
z
" id="m327380d17c" style="stroke:#ff7f0e;"/>
    </defs>
    <g clip-path="url(#p3906934aa2)">
     <use style="fill:#ff7f0e;stroke:#ff7f0e;" x="81.107331" xlink:href="#m327380d17c" y="154.536589"/>
    </g>
   </g>
   <g id="55A">
    <defs>
     <path d="M 0 3 
C 0.795609 3 1.55874 2.683901 2.12132 2.12132 
C 2.683901 1.55874 3 0.795609 3 0 
C 3 -0.795609 2.683901 -1.55874 2.12132 -2.12132 
C 1.55874 -2.683901 0.795609 -3 0 -3 
C -0.795609 -3 -1.55874 -2.683901 -2.12132 -2.12132 
C -2.683901 -1.55874 -3 -0.795609 -3 0 
C -3 0.795609 -2.683901 1.55874 -2.12132 2.12132 
C -1.55874 2.683901 -0.795609 3 0 3 
z
" id="mc0a6afa321" style="stroke:#2ca02c;"/>
    </defs>
    <g clip-path="url(#p3906934aa2)">
     <use style="fill:#2ca02c;stroke:#2ca02c;" x="127.953426" xlink:href="#mc0a6afa321" y="290.35177"/>
    </g>
   </g>
   <g id="35A">
    <defs>
     <path d="M 0 3 
C 0.795609 3 1.55874 2.683901 2.12132 2.12132 
C 2.683901 1.55874 3 0.795609 3 0 
C 3 -0.795609 2.683901 -1.55874 2.12132 -2.12132 
C 1.55874 -2.683901 0.795609 -3 0 -3 
C -0.795609 -3 -1.55874 -2.683901 -2.12132 -2.12132 
C -2.683901 -1.55874 -3 -0.795609 -3 0 
C -3 0.795609 -2.683901 1.55874 -2.12132 2.12132 
C -1.55874 2.683901 -0.795609 3 0 3 
z
" id="mefd0313e66" style="stroke:#d62728;"/>
    </defs>
    <g clip-path="url(#p3906934aa2)">
     <use style="fill:#d62728;stroke:#d62728;" x="74.415032" xlink:href="#mefd0313e66" y="154.536589"/>
    </g>
   </g>
   <g id="47A">
    <defs>
     <path d="M 0 3 
C 0.795609 3 1.55874 2.683901 2.12132 2.12132 
C 2.683901 1.55874 3 0.795609 3 0 
C 3 -0.795609 2.683901 -1.55874 2.12132 -2.12132 
C 1.55874 -2.683901 0.795609 -3 0 -3 
C -0.795609 -3 -1.55874 -2.683901 -2.12132 -2.12132 
C -2.683901 -1.55874 -3 -0.795609 -3 0 
C -3 0.795609 -2.683901 1.55874 -2.12132 2.12132 
C -1.55874 2.683901 -0.795609 3 0 3 
z
" id="m690b86ad9f" style="stroke:#9467bd;"/>
    </defs>
    <g clip-path="url(#p3906934aa2)">
     <use style="fill:#9467bd;stroke:#9467bd;" x="81.107331" xlink:href="#m690b86ad9f" y="27.775753"/>
    </g>
   </g>
   <g id="33A">
    <defs>
     <path d="M 0 3 
C 0.795609 3 1.55874 2.683901 2.12132 2.12132 
C 2.683901 1.55874 3 0.795609 3 0 
C 3 -0.795609 2.683901 -1.55874 2.12132 -2.12132 
C 1.55874 -2.683901 0.795609 -3 0 -3 
C -0.795609 -3 -1.55874 -2.683901 -2.12132 -2.12132 
C -2.683901 -1.55874 -3 -0.795609 -3 0 
C -3 0.795609 -2.683901 1.55874 -2.12132 2.12132 
C -1.55874 2.683901 -0.795609 3 0 3 
z
" id="m3609830fa0" style="stroke:#8c564b;"/>
    </defs>
    <g clip-path="url(#p3906934aa2)">
     <use style="fill:#8c564b;stroke:#8c564b;" x="429.10689" xlink:href="#m3609830fa0" y="129.637139"/>
    </g>
   </g>
   <g id="45A">
    <defs>
     <path d="M 0 3 
C 0.795609 3 1.55874 2.683901 2.12132 2.12132 
C 2.683901 1.55874 3 0.795609 3 0 
C 3 -0.795609 2.683901 -1.55874 2.12132 -2.12132 
C 1.55874 -2.683901 0.795609 -3 0 -3 
C -0.795609 -3 -1.55874 -2.683901 -2.12132 -2.12132 
C -2.683901 -1.55874 -3 -0.795609 -3 0 
C -3 0.795609 -2.683901 1.55874 -2.12132 2.12132 
C -1.55874 2.683901 -0.795609 3 0 3 
z
" id="m9fbd9ff804" style="stroke:#e377c2;"/>
    </defs>
    <g clip-path="url(#p3906934aa2)">
     <use style="fill:#e377c2;stroke:#e377c2;" x="87.79963" xlink:href="#m9fbd9ff804" y="154.536589"/>
    </g>
   </g>
   <g id="51A">
    <defs>
     <path d="M 0 3 
C 0.795609 3 1.55874 2.683901 2.12132 2.12132 
C 2.683901 1.55874 3 0.795609 3 0 
C 3 -0.795609 2.683901 -1.55874 2.12132 -2.12132 
C 1.55874 -2.683901 0.795609 -3 0 -3 
C -0.795609 -3 -1.55874 -2.683901 -2.12132 -2.12132 
C -2.683901 -1.55874 -3 -0.795609 -3 0 
C -3 0.795609 -2.683901 1.55874 -2.12132 2.12132 
C -1.55874 2.683901 -0.795609 3 0 3 
z
" id="m32983459d4" style="stroke:#7f7f7f;"/>
    </defs>
    <g clip-path="url(#p3906934aa2)">
     <use style="fill:#7f7f7f;stroke:#7f7f7f;" x="388.953094" xlink:href="#m32983459d4" y="154.536589"/>
    </g>
   </g>
   <g id="37A">
    <defs>
     <path d="M 0 3 
C 0.795609 3 1.55874 2.683901 2.12132 2.12132 
C 2.683901 1.55874 3 0.795609 3 0 
C 3 -0.795609 2.683901 -1.55874 2.12132 -2.12132 
C 1.55874 -2.683901 0.795609 -3 0 -3 
C -0.795609 -3 -1.55874 -2.683901 -2.12132 -2.12132 
C -2.683901 -1.55874 -3 -0.795609 -3 0 
C -3 0.795609 -2.683901 1.55874 -2.12132 2.12132 
C -1.55874 2.683901 -0.795609 3 0 3 
z
" id="m24597c62b0" style="stroke:#bcbd22;"/>
    </defs>
    <g clip-path="url(#p3906934aa2)">
     <use style="fill:#bcbd22;stroke:#bcbd22;" x="301.953205" xlink:href="#m24597c62b0" y="126.0154"/>
    </g>
   </g>
   <g id="34A">
    <defs>
     <path d="M 0 3 
C 0.795609 3 1.55874 2.683901 2.12132 2.12132 
C 2.683901 1.55874 3 0.795609 3 0 
C 3 -0.795609 2.683901 -1.55874 2.12132 -2.12132 
C 1.55874 -2.683901 0.795609 -3 0 -3 
C -0.795609 -3 -1.55874 -2.683901 -2.12132 -2.12132 
C -2.683901 -1.55874 -3 -0.795609 -3 0 
C -3 0.795609 -2.683901 1.55874 -2.12132 2.12132 
C -1.55874 2.683901 -0.795609 3 0 3 
z
" id="m49d8cb384a" style="stroke:#17becf;"/>
    </defs>
    <g clip-path="url(#p3906934aa2)">
     <use style="fill:#17becf;stroke:#17becf;" x="81.107331" xlink:href="#m49d8cb384a" y="154.536589"/>
    </g>
   </g>
   <g id="50A">
    <g clip-path="url(#p3906934aa2)">
     <use style="fill:#1f77b4;stroke:#1f77b4;" x="81.107331" xlink:href="#m37ff825397" y="154.536589"/>
    </g>
   </g>
   <g id="57A">
    <g clip-path="url(#p3906934aa2)">
     <use style="fill:#ff7f0e;stroke:#ff7f0e;" x="382.260795" xlink:href="#m327380d17c" y="154.536589"/>
    </g>
   </g>
   <g id="38A">
    <g clip-path="url(#p3906934aa2)">
     <use style="fill:#2ca02c;stroke:#2ca02c;" x="275.184008" xlink:href="#mc0a6afa321" y="68.973024"/>
    </g>
   </g>
   <g id="53A">
    <g clip-path="url(#p3906934aa2)">
     <use style="fill:#d62728;stroke:#d62728;" x="127.953426" xlink:href="#mefd0313e66" y="154.536589"/>
    </g>
   </g>
   <g id="48A">
    <g clip-path="url(#p3906934aa2)">
     <use style="fill:#9467bd;stroke:#9467bd;" x="161.414922" xlink:href="#m690b86ad9f" y="154.536589"/>
    </g>
   </g>
   <g id="54A">
    <g clip-path="url(#p3906934aa2)">
     <use style="fill:#8c564b;stroke:#8c564b;" x="121.261126" xlink:href="#m3609830fa0" y="154.536589"/>
    </g>
   </g>
   <g id="36A">
    <g clip-path="url(#p3906934aa2)">
     <use style="fill:#e377c2;stroke:#e377c2;" x="81.107331" xlink:href="#m9fbd9ff804" y="154.536589"/>
    </g>
   </g>
   <g id="46A">
    <g clip-path="url(#p3906934aa2)">
     <use style="fill:#7f7f7f;stroke:#7f7f7f;" x="87.79963" xlink:href="#m32983459d4" y="154.536589"/>
    </g>
   </g>
   <g id="52A">
    <g clip-path="url(#p3906934aa2)">
     <use style="fill:#bcbd22;stroke:#bcbd22;" x="81.107331" xlink:href="#m24597c62b0" y="154.536589"/>
    </g>
   </g>
   <g id="matplotlib.axis_1">
    <g id="xtick_1">
     <g id="line2d_1">
      <defs>
       <path d="M 0 0 
L 0 3.5 
" id="ma65df00672" style="stroke:#000000;stroke-width:0.8;"/>
      </defs>
      <g>
       <use style="stroke:#000000;stroke-width:0.8;" x="114.568827" xlink:href="#ma65df00672" y="303.64"/>
      </g>
     </g>
     <g id="text_1">
      <text style="font-family:DejaVu Sans;font-size:10px;font-style:normal;font-weight:normal;text-anchor:middle;" transform="rotate(-0, 114.568827, 318.238437)" x="114.568827" y="318.238437">10</text>
     </g>
    </g>
    <g id="xtick_2">
     <g id="line2d_2">
      <g>
       <use style="stroke:#000000;stroke-width:0.8;" x="181.491819" xlink:href="#ma65df00672" y="303.64"/>
      </g>
     </g>
     <g id="text_2">
      <text style="font-family:DejaVu Sans;font-size:10px;font-style:normal;font-weight:normal;text-anchor:middle;" transform="rotate(-0, 181.491819, 318.238437)" x="181.491819" y="318.238437">20</text>
     </g>
    </g>
    <g id="xtick_3">
     <g id="line2d_3">
      <g>
       <use style="stroke:#000000;stroke-width:0.8;" x="248.414811" xlink:href="#ma65df00672" y="303.64"/>
      </g>
     </g>
     <g id="text_3">
      <text style="font-family:DejaVu Sans;font-size:10px;font-style:normal;font-weight:normal;text-anchor:middle;" transform="rotate(-0, 248.414811, 318.238437)" x="248.414811" y="318.238437">30</text>
     </g>
    </g>
    <g id="xtick_4">
     <g id="line2d_4">
      <g>
       <use style="stroke:#000000;stroke-width:0.8;" x="315.337803" xlink:href="#ma65df00672" y="303.64"/>
      </g>
     </g>
     <g id="text_4">
      <text style="font-family:DejaVu Sans;font-size:10px;font-style:normal;font-weight:normal;text-anchor:middle;" transform="rotate(-0, 315.337803, 318.238437)" x="315.337803" y="318.238437">40</text>
     </g>
    </g>
    <g id="xtick_5">
     <g id="line2d_5">
      <g>
       <use style="stroke:#000000;stroke-width:0.8;" x="382.260795" xlink:href="#ma65df00672" y="303.64"/>
      </g>
     </g>
     <g id="text_5">
      <text style="font-family:DejaVu Sans;font-size:10px;font-style:normal;font-weight:normal;text-anchor:middle;" transform="rotate(-0, 382.260795, 318.238437)" x="382.260795" y="318.238437">50</text>
     </g>
    </g>
    <g id="text_6">
     <text style="font-family:DejaVu Sans;font-size:10px;font-style:normal;font-weight:normal;text-anchor:middle;" transform="rotate(-0, 251.785, 331.916562)" x="251.785" y="331.916562">Amount of languages tested</text>
    </g>
   </g>
   <g id="matplotlib.axis_2">
    <g id="ytick_1">
     <g id="line2d_6">
      <defs>
       <path d="M 0 0 
L -3.5 0 
" id="m67fc5201cf" style="stroke:#000000;stroke-width:0.8;"/>
      </defs>
      <g>
       <use style="stroke:#000000;stroke-width:0.8;" x="56.09" xlink:href="#m67fc5201cf" y="281.297425"/>
      </g>
     </g>
     <g id="text_7">
      <text style="font-family:DejaVu Sans;font-size:10px;font-style:normal;font-weight:normal;text-anchor:end;" transform="rotate(-0, 49.09, 285.096643)" x="49.09" y="285.096643">−0.2</text>
     </g>
    </g>
    <g id="ytick_2">
     <g id="line2d_7">
      <g>
       <use style="stroke:#000000;stroke-width:0.8;" x="56.09" xlink:href="#m67fc5201cf" y="217.917007"/>
      </g>
     </g>
     <g id="text_8">
      <text style="font-family:DejaVu Sans;font-size:10px;font-style:normal;font-weight:normal;text-anchor:end;" transform="rotate(-0, 49.09, 221.716225)" x="49.09" y="221.716225">−0.1</text>
     </g>
    </g>
    <g id="ytick_3">
     <g id="line2d_8">
      <g>
       <use style="stroke:#000000;stroke-width:0.8;" x="56.09" xlink:href="#m67fc5201cf" y="154.536589"/>
      </g>
     </g>
     <g id="text_9">
      <text style="font-family:DejaVu Sans;font-size:10px;font-style:normal;font-weight:normal;text-anchor:end;" transform="rotate(-0, 49.09, 158.335807)" x="49.09" y="158.335807">0.0</text>
     </g>
    </g>
    <g id="ytick_4">
     <g id="line2d_9">
      <g>
       <use style="stroke:#000000;stroke-width:0.8;" x="56.09" xlink:href="#m67fc5201cf" y="91.156171"/>
      </g>
     </g>
     <g id="text_10">
      <text style="font-family:DejaVu Sans;font-size:10px;font-style:normal;font-weight:normal;text-anchor:end;" transform="rotate(-0, 49.09, 94.955389)" x="49.09" y="94.955389">0.1</text>
     </g>
    </g>
    <g id="ytick_5">
     <g id="line2d_10">
      <g>
       <use style="stroke:#000000;stroke-width:0.8;" x="56.09" xlink:href="#m67fc5201cf" y="27.775753"/>
      </g>
     </g>
     <g id="text_11">
      <text style="font-family:DejaVu Sans;font-size:10px;font-style:normal;font-weight:normal;text-anchor:end;" transform="rotate(-0, 49.09, 31.574971)" x="49.09" y="31.574971">0.2</text>
     </g>
    </g>
    <g id="text_12">
     <text style="font-family:DejaVu Sans;font-size:10px;font-style:normal;font-weight:normal;text-anchor:middle;" transform="rotate(-90, 18.7275, 158.48)" x="18.7275" y="158.48">Score - base</text>
    </g>
   </g>
   <g id="line2d_11">
    <path clip-path="url(#p3906934aa2)" d="M 74.415032 152.625461 
L 81.107331 152.277437 
L 87.79963 151.929413 
L 121.261126 150.189293 
L 127.953426 149.84127 
L 161.414922 148.10115 
L 275.184008 142.184744 
L 301.953205 140.792649 
L 382.260795 136.616362 
L 388.953094 136.268338 
L 429.10689 134.180195 
" style="fill:none;stroke:#1f77b4;stroke-linecap:square;stroke-width:1.5;"/>
   </g>
   <g id="patch_3">
    <path d="M 56.09 303.64 
L 56.09 13.32 
" style="fill:none;stroke:#000000;stroke-linecap:square;stroke-linejoin:miter;stroke-width:0.8;"/>
   </g>
   <g id="patch_4">
    <path d="M 447.48 303.64 
L 447.48 13.32 
" style="fill:none;stroke:#000000;stroke-linecap:square;stroke-linejoin:miter;stroke-width:0.8;"/>
   </g>
   <g id="patch_5">
    <path d="M 56.09 303.64 
L 447.48 303.64 
" style="fill:none;stroke:#000000;stroke-linecap:square;stroke-linejoin:miter;stroke-width:0.8;"/>
   </g>
   <g id="patch_6">
    <path d="M 56.09 13.32 
L 447.48 13.32 
" style="fill:none;stroke:#000000;stroke-linecap:square;stroke-linejoin:miter;stroke-width:0.8;"/>
   </g>
  </g>
 </g>
 <defs>
  <clipPath id="p3906934aa2">
   <rect height="290.32" width="391.39" x="56.09" y="13.32"/>
  </clipPath>
 </defs>
</svg>
