<?xml version="1.0" encoding="utf-8" standalone="no"?>
<!DOCTYPE svg PUBLIC "-//W3C//DTD SVG 1.1//EN"
  "http://www.w3.org/Graphics/SVG/1.1/DTD/svg11.dtd">
<!-- Created with matplotlib (http://matplotlib.org/) -->
<svg height="345.6pt" version="1.1" viewBox="0 0 460.8 345.6" width="460.8pt" xmlns="http://www.w3.org/2000/svg" xmlns:xlink="http://www.w3.org/1999/xlink">
 <defs>
  <style type="text/css">
*{stroke-linecap:butt;stroke-linejoin:round;}
  </style>
 </defs>
 <g id="figure_1">
  <g id="patch_1">
   <path d="M 0 345.6 
L 460.8 345.6 
L 460.8 0 
L 0 0 
z
" style="fill:#ffffff;"/>
  </g>
  <g id="axes_1">
   <g id="patch_2">
    <path d="M 62.48 303.64 
L 447.48 303.64 
L 447.48 13.424514 
L 62.48 13.424514 
z
" style="fill:#ffffff;"/>
   </g>
   <g id="1A">
    <defs>
     <path d="M 0 3 
C 0.795609 3 1.55874 2.683901 2.12132 2.12132 
C 2.683901 1.55874 3 0.795609 3 0 
C 3 -0.795609 2.683901 -1.55874 2.12132 -2.12132 
C 1.55874 -2.683901 0.795609 -3 0 -3 
C -0.795609 -3 -1.55874 -2.683901 -2.12132 -2.12132 
C -2.683901 -1.55874 -3 -0.795609 -3 0 
C -3 0.795609 -2.683901 1.55874 -2.12132 2.12132 
C -1.55874 2.683901 -0.795609 3 0 3 
z
" id="m9dd169571d" style="stroke:#1f77b4;"/>
    </defs>
    <g clip-path="url(#p1feaa28a5c)">
     <use style="fill:#1f77b4;stroke:#1f77b4;" x="427.651372" xlink:href="#m9dd169571d" y="85.544233"/>
    </g>
   </g>
   <g id="2A">
    <defs>
     <path d="M 0 3 
C 0.795609 3 1.55874 2.683901 2.12132 2.12132 
C 2.683901 1.55874 3 0.795609 3 0 
C 3 -0.795609 2.683901 -1.55874 2.12132 -2.12132 
C 1.55874 -2.683901 0.795609 -3 0 -3 
C -0.795609 -3 -1.55874 -2.683901 -2.12132 -2.12132 
C -2.683901 -1.55874 -3 -0.795609 -3 0 
C -3 0.795609 -2.683901 1.55874 -2.12132 2.12132 
C -1.55874 2.683901 -0.795609 3 0 3 
z
" id="mc45ee8b504" style="stroke:#ff7f0e;"/>
    </defs>
    <g clip-path="url(#p1feaa28a5c)">
     <use style="fill:#ff7f0e;stroke:#ff7f0e;" x="427.651372" xlink:href="#mc45ee8b504" y="140.401245"/>
    </g>
   </g>
   <g id="3A">
    <defs>
     <path d="M 0 3 
C 0.795609 3 1.55874 2.683901 2.12132 2.12132 
C 2.683901 1.55874 3 0.795609 3 0 
C 3 -0.795609 2.683901 -1.55874 2.12132 -2.12132 
C 1.55874 -2.683901 0.795609 -3 0 -3 
C -0.795609 -3 -1.55874 -2.683901 -2.12132 -2.12132 
C -2.683901 -1.55874 -3 -0.795609 -3 0 
C -3 0.795609 -2.683901 1.55874 -2.12132 2.12132 
C -1.55874 2.683901 -0.795609 3 0 3 
z
" id="m6aaa1e52fa" style="stroke:#2ca02c;"/>
    </defs>
    <g clip-path="url(#p1feaa28a5c)">
     <use style="fill:#2ca02c;stroke:#2ca02c;" x="427.651372" xlink:href="#m6aaa1e52fa" y="169.689311"/>
    </g>
   </g>
   <g id="4A">
    <defs>
     <path d="M 0 3 
C 0.795609 3 1.55874 2.683901 2.12132 2.12132 
C 2.683901 1.55874 3 0.795609 3 0 
C 3 -0.795609 2.683901 -1.55874 2.12132 -2.12132 
C 1.55874 -2.683901 0.795609 -3 0 -3 
C -0.795609 -3 -1.55874 -2.683901 -2.12132 -2.12132 
C -2.683901 -1.55874 -3 -0.795609 -3 0 
C -3 0.795609 -2.683901 1.55874 -2.12132 2.12132 
C -1.55874 2.683901 -0.795609 3 0 3 
z
" id="m1ffa43b29c" style="stroke:#d62728;"/>
    </defs>
    <g clip-path="url(#p1feaa28a5c)">
     <use style="fill:#d62728;stroke:#d62728;" x="427.651372" xlink:href="#m1ffa43b29c" y="27.432992"/>
    </g>
   </g>
   <g id="5A">
    <defs>
     <path d="M 0 3 
C 0.795609 3 1.55874 2.683901 2.12132 2.12132 
C 2.683901 1.55874 3 0.795609 3 0 
C 3 -0.795609 2.683901 -1.55874 2.12132 -2.12132 
C 1.55874 -2.683901 0.795609 -3 0 -3 
C -0.795609 -3 -1.55874 -2.683901 -2.12132 -2.12132 
C -2.683901 -1.55874 -3 -0.795609 -3 0 
C -3 0.795609 -2.683901 1.55874 -2.12132 2.12132 
C -1.55874 2.683901 -0.795609 3 0 3 
z
" id="m067a5e2179" style="stroke:#9467bd;"/>
    </defs>
    <g clip-path="url(#p1feaa28a5c)">
     <use style="fill:#9467bd;stroke:#9467bd;" x="427.651372" xlink:href="#m067a5e2179" y="140.401245"/>
    </g>
   </g>
   <g id="6A">
    <defs>
     <path d="M 0 3 
C 0.795609 3 1.55874 2.683901 2.12132 2.12132 
C 2.683901 1.55874 3 0.795609 3 0 
C 3 -0.795609 2.683901 -1.55874 2.12132 -2.12132 
C 1.55874 -2.683901 0.795609 -3 0 -3 
C -0.795609 -3 -1.55874 -2.683901 -2.12132 -2.12132 
C -2.683901 -1.55874 -3 -0.795609 -3 0 
C -3 0.795609 -2.683901 1.55874 -2.12132 2.12132 
C -1.55874 2.683901 -0.795609 3 0 3 
z
" id="med50d05ce0" style="stroke:#8c564b;"/>
    </defs>
    <g clip-path="url(#p1feaa28a5c)">
     <use style="fill:#8c564b;stroke:#8c564b;" x="427.651372" xlink:href="#med50d05ce0" y="140.401245"/>
    </g>
   </g>
   <g id="7A">
    <defs>
     <path d="M 0 3 
C 0.795609 3 1.55874 2.683901 2.12132 2.12132 
C 2.683901 1.55874 3 0.795609 3 0 
C 3 -0.795609 2.683901 -1.55874 2.12132 -2.12132 
C 1.55874 -2.683901 0.795609 -3 0 -3 
C -0.795609 -3 -1.55874 -2.683901 -2.12132 -2.12132 
C -2.683901 -1.55874 -3 -0.795609 -3 0 
C -3 0.795609 -2.683901 1.55874 -2.12132 2.12132 
C -1.55874 2.683901 -0.795609 3 0 3 
z
" id="ma1dd07595c" style="stroke:#e377c2;"/>
    </defs>
    <g clip-path="url(#p1feaa28a5c)">
     <use style="fill:#e377c2;stroke:#e377c2;" x="427.651372" xlink:href="#ma1dd07595c" y="140.401245"/>
    </g>
   </g>
   <g id="8A">
    <defs>
     <path d="M 0 3 
C 0.795609 3 1.55874 2.683901 2.12132 2.12132 
C 2.683901 1.55874 3 0.795609 3 0 
C 3 -0.795609 2.683901 -1.55874 2.12132 -2.12132 
C 1.55874 -2.683901 0.795609 -3 0 -3 
C -0.795609 -3 -1.55874 -2.683901 -2.12132 -2.12132 
C -2.683901 -1.55874 -3 -0.795609 -3 0 
C -3 0.795609 -2.683901 1.55874 -2.12132 2.12132 
C -1.55874 2.683901 -0.795609 3 0 3 
z
" id="mb0e7291c74" style="stroke:#7f7f7f;"/>
    </defs>
    <g clip-path="url(#p1feaa28a5c)">
     <use style="fill:#7f7f7f;stroke:#7f7f7f;" x="427.651372" xlink:href="#mb0e7291c74" y="156.672393"/>
    </g>
   </g>
   <g id="9A">
    <defs>
     <path d="M 0 3 
C 0.795609 3 1.55874 2.683901 2.12132 2.12132 
C 2.683901 1.55874 3 0.795609 3 0 
C 3 -0.795609 2.683901 -1.55874 2.12132 -2.12132 
C 1.55874 -2.683901 0.795609 -3 0 -3 
C -0.795609 -3 -1.55874 -2.683901 -2.12132 -2.12132 
C -2.683901 -1.55874 -3 -0.795609 -3 0 
C -3 0.795609 -2.683901 1.55874 -2.12132 2.12132 
C -1.55874 2.683901 -0.795609 3 0 3 
z
" id="md0edc20f57" style="stroke:#bcbd22;"/>
    </defs>
    <g clip-path="url(#p1feaa28a5c)">
     <use style="fill:#bcbd22;stroke:#bcbd22;" x="285.808501" xlink:href="#md0edc20f57" y="164.30987"/>
    </g>
   </g>
   <g id="10A">
    <defs>
     <path d="M 0 3 
C 0.795609 3 1.55874 2.683901 2.12132 2.12132 
C 2.683901 1.55874 3 0.795609 3 0 
C 3 -0.795609 2.683901 -1.55874 2.12132 -2.12132 
C 1.55874 -2.683901 0.795609 -3 0 -3 
C -0.795609 -3 -1.55874 -2.683901 -2.12132 -2.12132 
C -2.683901 -1.55874 -3 -0.795609 -3 0 
C -3 0.795609 -2.683901 1.55874 -2.12132 2.12132 
C -1.55874 2.683901 -0.795609 3 0 3 
z
" id="m5471a6a22d" style="stroke:#17becf;"/>
    </defs>
    <g clip-path="url(#p1feaa28a5c)">
     <use style="fill:#17becf;stroke:#17becf;" x="80.924355" xlink:href="#m5471a6a22d" y="289.166024"/>
    </g>
   </g>
   <g id="11A">
    <g clip-path="url(#p1feaa28a5c)">
     <use style="fill:#1f77b4;stroke:#1f77b4;" x="427.651372" xlink:href="#m9dd169571d" y="140.401245"/>
    </g>
   </g>
   <g id="12A">
    <g clip-path="url(#p1feaa28a5c)">
     <use style="fill:#ff7f0e;stroke:#ff7f0e;" x="317.329139" xlink:href="#mc45ee8b504" y="174.271797"/>
    </g>
   </g>
   <g id="13A">
    <g clip-path="url(#p1feaa28a5c)">
     <use style="fill:#2ca02c;stroke:#2ca02c;" x="348.849777" xlink:href="#m6aaa1e52fa" y="182.241339"/>
    </g>
   </g>
   <g id="14A">
    <g clip-path="url(#p1feaa28a5c)">
     <use style="fill:#d62728;stroke:#d62728;" x="348.849777" xlink:href="#m1ffa43b29c" y="84.614453"/>
    </g>
   </g>
   <g id="15A">
    <g clip-path="url(#p1feaa28a5c)">
     <use style="fill:#9467bd;stroke:#9467bd;" x="348.849777" xlink:href="#m067a5e2179" y="109.408583"/>
    </g>
   </g>
   <g id="16A">
    <g clip-path="url(#p1feaa28a5c)">
     <use style="fill:#8c564b;stroke:#8c564b;" x="348.849777" xlink:href="#med50d05ce0" y="140.401245"/>
    </g>
   </g>
   <g id="17A">
    <g clip-path="url(#p1feaa28a5c)">
     <use style="fill:#e377c2;stroke:#e377c2;" x="128.205312" xlink:href="#ma1dd07595c" y="259.944371"/>
    </g>
   </g>
   <g id="18A">
    <g clip-path="url(#p1feaa28a5c)">
     <use style="fill:#7f7f7f;stroke:#7f7f7f;" x="427.651372" xlink:href="#mb0e7291c74" y="140.401245"/>
    </g>
   </g>
   <g id="19A">
    <g clip-path="url(#p1feaa28a5c)">
     <use style="fill:#bcbd22;stroke:#bcbd22;" x="427.651372" xlink:href="#md0edc20f57" y="140.401245"/>
    </g>
   </g>
   <g id="matplotlib.axis_1">
    <g id="xtick_1">
     <g id="line2d_1">
      <defs>
       <path d="M 0 0 
L 0 3.5 
" id="m1f66e5a7cd" style="stroke:#000000;stroke-width:0.8;"/>
      </defs>
      <g>
       <use style="stroke:#000000;stroke-width:0.8;" x="65.164036" xlink:href="#m1f66e5a7cd" y="303.64"/>
      </g>
     </g>
     <g id="text_1">
      <text style="font-family:DejaVu Sans;font-size:10px;font-style:normal;font-weight:normal;text-anchor:middle;" transform="rotate(-0, 65.164036, 318.238437)" x="65.164036" y="318.238437">10</text>
     </g>
    </g>
    <g id="xtick_2">
     <g id="line2d_2">
      <g>
       <use style="stroke:#000000;stroke-width:0.8;" x="143.965631" xlink:href="#m1f66e5a7cd" y="303.64"/>
      </g>
     </g>
     <g id="text_2">
      <text style="font-family:DejaVu Sans;font-size:10px;font-style:normal;font-weight:normal;text-anchor:middle;" transform="rotate(-0, 143.965631, 318.238437)" x="143.965631" y="318.238437">15</text>
     </g>
    </g>
    <g id="xtick_3">
     <g id="line2d_3">
      <g>
       <use style="stroke:#000000;stroke-width:0.8;" x="222.767226" xlink:href="#m1f66e5a7cd" y="303.64"/>
      </g>
     </g>
     <g id="text_3">
      <text style="font-family:DejaVu Sans;font-size:10px;font-style:normal;font-weight:normal;text-anchor:middle;" transform="rotate(-0, 222.767226, 318.238437)" x="222.767226" y="318.238437">20</text>
     </g>
    </g>
    <g id="xtick_4">
     <g id="line2d_4">
      <g>
       <use style="stroke:#000000;stroke-width:0.8;" x="301.56882" xlink:href="#m1f66e5a7cd" y="303.64"/>
      </g>
     </g>
     <g id="text_4">
      <text style="font-family:DejaVu Sans;font-size:10px;font-style:normal;font-weight:normal;text-anchor:middle;" transform="rotate(-0, 301.56882, 318.238437)" x="301.56882" y="318.238437">25</text>
     </g>
    </g>
    <g id="xtick_5">
     <g id="line2d_5">
      <g>
       <use style="stroke:#000000;stroke-width:0.8;" x="380.370415" xlink:href="#m1f66e5a7cd" y="303.64"/>
      </g>
     </g>
     <g id="text_5">
      <text style="font-family:DejaVu Sans;font-size:10px;font-style:normal;font-weight:normal;text-anchor:middle;" transform="rotate(-0, 380.370415, 318.238437)" x="380.370415" y="318.238437">30</text>
     </g>
    </g>
    <g id="text_6">
     <text style="font-family:DejaVu Sans;font-size:10px;font-style:normal;font-weight:normal;text-anchor:middle;" transform="rotate(-0, 254.98, 331.916562)" x="254.98" y="331.916562">Amount of languages tested</text>
    </g>
   </g>
   <g id="matplotlib.axis_2">
    <g id="ytick_1">
     <g id="line2d_6">
      <defs>
       <path d="M 0 0 
L -3.5 0 
" id="mdf4f3711d7" style="stroke:#000000;stroke-width:0.8;"/>
      </defs>
      <g>
       <use style="stroke:#000000;stroke-width:0.8;" x="62.48" xlink:href="#mdf4f3711d7" y="265.921527"/>
      </g>
     </g>
     <g id="text_7">
      <text style="font-family:DejaVu Sans;font-size:10px;font-style:normal;font-weight:normal;text-anchor:end;" transform="rotate(-0, 55.48, 269.720746)" x="55.48" y="269.720746">−0.15</text>
     </g>
    </g>
    <g id="ytick_2">
     <g id="line2d_7">
      <g>
       <use style="stroke:#000000;stroke-width:0.8;" x="62.48" xlink:href="#mdf4f3711d7" y="224.081433"/>
      </g>
     </g>
     <g id="text_8">
      <text style="font-family:DejaVu Sans;font-size:10px;font-style:normal;font-weight:normal;text-anchor:end;" transform="rotate(-0, 55.48, 227.880652)" x="55.48" y="227.880652">−0.10</text>
     </g>
    </g>
    <g id="ytick_3">
     <g id="line2d_8">
      <g>
       <use style="stroke:#000000;stroke-width:0.8;" x="62.48" xlink:href="#mdf4f3711d7" y="182.241339"/>
      </g>
     </g>
     <g id="text_9">
      <text style="font-family:DejaVu Sans;font-size:10px;font-style:normal;font-weight:normal;text-anchor:end;" transform="rotate(-0, 55.48, 186.040558)" x="55.48" y="186.040558">−0.05</text>
     </g>
    </g>
    <g id="ytick_4">
     <g id="line2d_9">
      <g>
       <use style="stroke:#000000;stroke-width:0.8;" x="62.48" xlink:href="#mdf4f3711d7" y="140.401245"/>
      </g>
     </g>
     <g id="text_10">
      <text style="font-family:DejaVu Sans;font-size:10px;font-style:normal;font-weight:normal;text-anchor:end;" transform="rotate(-0, 55.48, 144.200464)" x="55.48" y="144.200464">0.00</text>
     </g>
    </g>
    <g id="ytick_5">
     <g id="line2d_10">
      <g>
       <use style="stroke:#000000;stroke-width:0.8;" x="62.48" xlink:href="#mdf4f3711d7" y="98.561151"/>
      </g>
     </g>
     <g id="text_11">
      <text style="font-family:DejaVu Sans;font-size:10px;font-style:normal;font-weight:normal;text-anchor:end;" transform="rotate(-0, 55.48, 102.36037)" x="55.48" y="102.36037">0.05</text>
     </g>
    </g>
    <g id="ytick_6">
     <g id="line2d_11">
      <g>
       <use style="stroke:#000000;stroke-width:0.8;" x="62.48" xlink:href="#mdf4f3711d7" y="56.721057"/>
      </g>
     </g>
     <g id="text_12">
      <text style="font-family:DejaVu Sans;font-size:10px;font-style:normal;font-weight:normal;text-anchor:end;" transform="rotate(-0, 55.48, 60.520276)" x="55.48" y="60.520276">0.10</text>
     </g>
    </g>
    <g id="ytick_7">
     <g id="line2d_12">
      <g>
       <use style="stroke:#000000;stroke-width:0.8;" x="62.48" xlink:href="#mdf4f3711d7" y="14.880964"/>
      </g>
     </g>
     <g id="text_13">
      <text style="font-family:DejaVu Sans;font-size:10px;font-style:normal;font-weight:normal;text-anchor:end;" transform="rotate(-0, 55.48, 18.680182)" x="55.48" y="18.680182">0.15</text>
     </g>
    </g>
    <g id="text_14">
     <text style="font-family:DejaVu Sans;font-size:10px;font-style:normal;font-weight:normal;text-anchor:middle;" transform="rotate(-90, 18.755, 158.532257)" x="18.755" y="158.532257">Score - base</text>
    </g>
   </g>
   <g id="line2d_13">
    <path clip-path="url(#p1feaa28a5c)" d="M 80.924355 269.389138 
L 128.205312 249.225898 
L 285.808501 182.015097 
L 317.329139 168.572937 
L 348.849777 155.130777 
L 427.651372 121.525377 
" style="fill:none;stroke:#1f77b4;stroke-linecap:square;stroke-width:1.5;"/>
   </g>
   <g id="patch_3">
    <path d="M 62.48 303.64 
L 62.48 13.424514 
" style="fill:none;stroke:#000000;stroke-linecap:square;stroke-linejoin:miter;stroke-width:0.8;"/>
   </g>
   <g id="patch_4">
    <path d="M 447.48 303.64 
L 447.48 13.424514 
" style="fill:none;stroke:#000000;stroke-linecap:square;stroke-linejoin:miter;stroke-width:0.8;"/>
   </g>
   <g id="patch_5">
    <path d="M 62.48 303.64 
L 447.48 303.64 
" style="fill:none;stroke:#000000;stroke-linecap:square;stroke-linejoin:miter;stroke-width:0.8;"/>
   </g>
   <g id="patch_6">
    <path d="M 62.48 13.424514 
L 447.48 13.424514 
" style="fill:none;stroke:#000000;stroke-linecap:square;stroke-linejoin:miter;stroke-width:0.8;"/>
   </g>
  </g>
 </g>
 <defs>
  <clipPath id="p1feaa28a5c">
   <rect height="290.215486" width="385" x="62.48" y="13.424514"/>
  </clipPath>
 </defs>
</svg>
