<?xml version="1.0" encoding="utf-8" standalone="no"?>
<!DOCTYPE svg PUBLIC "-//W3C//DTD SVG 1.1//EN"
  "http://www.w3.org/Graphics/SVG/1.1/DTD/svg11.dtd">
<!-- Created with matplotlib (http://matplotlib.org/) -->
<svg height="345.6pt" version="1.1" viewBox="0 0 460.8 345.6" width="460.8pt" xmlns="http://www.w3.org/2000/svg" xmlns:xlink="http://www.w3.org/1999/xlink">
 <defs>
  <style type="text/css">
*{stroke-linecap:butt;stroke-linejoin:round;}
  </style>
 </defs>
 <g id="figure_1">
  <g id="patch_1">
   <path d="M 0 345.6 
L 460.8 345.6 
L 460.8 0 
L 0 0 
z
" style="fill:#ffffff;"/>
  </g>
  <g id="axes_1">
   <g id="patch_2">
    <path d="M 62.48 303.64 
L 447.48 303.64 
L 447.48 13.32 
L 62.48 13.32 
z
" style="fill:#ffffff;"/>
   </g>
   <g id="65A">
    <defs>
     <path d="M 0 3 
C 0.795609 3 1.55874 2.683901 2.12132 2.12132 
C 2.683901 1.55874 3 0.795609 3 0 
C 3 -0.795609 2.683901 -1.55874 2.12132 -2.12132 
C 1.55874 -2.683901 0.795609 -3 0 -3 
C -0.795609 -3 -1.55874 -2.683901 -2.12132 -2.12132 
C -2.683901 -1.55874 -3 -0.795609 -3 0 
C -3 0.795609 -2.683901 1.55874 -2.12132 2.12132 
C -1.55874 2.683901 -0.795609 3 0 3 
z
" id="m41f92f450e" style="stroke:#1f77b4;"/>
    </defs>
    <g clip-path="url(#pf29d99359b)">
     <use style="fill:#1f77b4;stroke:#1f77b4;" x="102.759848" xlink:href="#m41f92f450e" y="179.611059"/>
    </g>
   </g>
   <g id="66A">
    <defs>
     <path d="M 0 3 
C 0.795609 3 1.55874 2.683901 2.12132 2.12132 
C 2.683901 1.55874 3 0.795609 3 0 
C 3 -0.795609 2.683901 -1.55874 2.12132 -2.12132 
C 1.55874 -2.683901 0.795609 -3 0 -3 
C -0.795609 -3 -1.55874 -2.683901 -2.12132 -2.12132 
C -2.683901 -1.55874 -3 -0.795609 -3 0 
C -3 0.795609 -2.683901 1.55874 -2.12132 2.12132 
C -1.55874 2.683901 -0.795609 3 0 3 
z
" id="m90182614b1" style="stroke:#ff7f0e;"/>
    </defs>
    <g clip-path="url(#pf29d99359b)">
     <use style="fill:#ff7f0e;stroke:#ff7f0e;" x="102.759848" xlink:href="#m90182614b1" y="191.907544"/>
    </g>
   </g>
   <g id="67A">
    <defs>
     <path d="M 0 3 
C 0.795609 3 1.55874 2.683901 2.12132 2.12132 
C 2.683901 1.55874 3 0.795609 3 0 
C 3 -0.795609 2.683901 -1.55874 2.12132 -2.12132 
C 1.55874 -2.683901 0.795609 -3 0 -3 
C -0.795609 -3 -1.55874 -2.683901 -2.12132 -2.12132 
C -2.683901 -1.55874 -3 -0.795609 -3 0 
C -3 0.795609 -2.683901 1.55874 -2.12132 2.12132 
C -1.55874 2.683901 -0.795609 3 0 3 
z
" id="md1d345dd71" style="stroke:#2ca02c;"/>
    </defs>
    <g clip-path="url(#pf29d99359b)">
     <use style="fill:#2ca02c;stroke:#2ca02c;" x="102.759848" xlink:href="#md1d345dd71" y="290.279422"/>
    </g>
   </g>
   <g id="68A">
    <defs>
     <path d="M 0 3 
C 0.795609 3 1.55874 2.683901 2.12132 2.12132 
C 2.683901 1.55874 3 0.795609 3 0 
C 3 -0.795609 2.683901 -1.55874 2.12132 -2.12132 
C 1.55874 -2.683901 0.795609 -3 0 -3 
C -0.795609 -3 -1.55874 -2.683901 -2.12132 -2.12132 
C -2.683901 -1.55874 -3 -0.795609 -3 0 
C -3 0.795609 -2.683901 1.55874 -2.12132 2.12132 
C -1.55874 2.683901 -0.795609 3 0 3 
z
" id="m5420389223" style="stroke:#d62728;"/>
    </defs>
    <g clip-path="url(#pf29d99359b)">
     <use style="fill:#d62728;stroke:#d62728;" x="102.759848" xlink:href="#m5420389223" y="130.42512"/>
    </g>
   </g>
   <g id="69A">
    <defs>
     <path d="M 0 3 
C 0.795609 3 1.55874 2.683901 2.12132 2.12132 
C 2.683901 1.55874 3 0.795609 3 0 
C 3 -0.795609 2.683901 -1.55874 2.12132 -2.12132 
C 1.55874 -2.683901 0.795609 -3 0 -3 
C -0.795609 -3 -1.55874 -2.683901 -2.12132 -2.12132 
C -2.683901 -1.55874 -3 -0.795609 -3 0 
C -3 0.795609 -2.683901 1.55874 -2.12132 2.12132 
C -1.55874 2.683901 -0.795609 3 0 3 
z
" id="m88e05998c8" style="stroke:#9467bd;"/>
    </defs>
    <g clip-path="url(#pf29d99359b)">
     <use style="fill:#9467bd;stroke:#9467bd;" x="429.979451" xlink:href="#m88e05998c8" y="144.015972"/>
    </g>
   </g>
   <g id="70A">
    <defs>
     <path d="M 0 3 
C 0.795609 3 1.55874 2.683901 2.12132 2.12132 
C 2.683901 1.55874 3 0.795609 3 0 
C 3 -0.795609 2.683901 -1.55874 2.12132 -2.12132 
C 1.55874 -2.683901 0.795609 -3 0 -3 
C -0.795609 -3 -1.55874 -2.683901 -2.12132 -2.12132 
C -2.683901 -1.55874 -3 -0.795609 -3 0 
C -3 0.795609 -2.683901 1.55874 -2.12132 2.12132 
C -1.55874 2.683901 -0.795609 3 0 3 
z
" id="m53b8bc51b4" style="stroke:#8c564b;"/>
    </defs>
    <g clip-path="url(#pf29d99359b)">
     <use style="fill:#8c564b;stroke:#8c564b;" x="232.284274" xlink:href="#m53b8bc51b4" y="202.97438"/>
    </g>
   </g>
   <g id="71A">
    <defs>
     <path d="M 0 3 
C 0.795609 3 1.55874 2.683901 2.12132 2.12132 
C 2.683901 1.55874 3 0.795609 3 0 
C 3 -0.795609 2.683901 -1.55874 2.12132 -2.12132 
C 1.55874 -2.683901 0.795609 -3 0 -3 
C -0.795609 -3 -1.55874 -2.683901 -2.12132 -2.12132 
C -2.683901 -1.55874 -3 -0.795609 -3 0 
C -3 0.795609 -2.683901 1.55874 -2.12132 2.12132 
C -1.55874 2.683901 -0.795609 3 0 3 
z
" id="m5833efc989" style="stroke:#e377c2;"/>
    </defs>
    <g clip-path="url(#pf29d99359b)">
     <use style="fill:#e377c2;stroke:#e377c2;" x="184.564749" xlink:href="#m5833efc989" y="191.907544"/>
    </g>
   </g>
   <g id="72A">
    <defs>
     <path d="M 0 3 
C 0.795609 3 1.55874 2.683901 2.12132 2.12132 
C 2.683901 1.55874 3 0.795609 3 0 
C 3 -0.795609 2.683901 -1.55874 2.12132 -2.12132 
C 1.55874 -2.683901 0.795609 -3 0 -3 
C -0.795609 -3 -1.55874 -2.683901 -2.12132 -2.12132 
C -2.683901 -1.55874 -3 -0.795609 -3 0 
C -3 0.795609 -2.683901 1.55874 -2.12132 2.12132 
C -1.55874 2.683901 -0.795609 3 0 3 
z
" id="m7b0a1c5507" style="stroke:#7f7f7f;"/>
    </defs>
    <g clip-path="url(#pf29d99359b)">
     <use style="fill:#7f7f7f;stroke:#7f7f7f;" x="205.015974" xlink:href="#m7b0a1c5507" y="221.419107"/>
    </g>
   </g>
   <g id="73A">
    <defs>
     <path d="M 0 3 
C 0.795609 3 1.55874 2.683901 2.12132 2.12132 
C 2.683901 1.55874 3 0.795609 3 0 
C 3 -0.795609 2.683901 -1.55874 2.12132 -2.12132 
C 1.55874 -2.683901 0.795609 -3 0 -3 
C -0.795609 -3 -1.55874 -2.683901 -2.12132 -2.12132 
C -2.683901 -1.55874 -3 -0.795609 -3 0 
C -3 0.795609 -2.683901 1.55874 -2.12132 2.12132 
C -1.55874 2.683901 -0.795609 3 0 3 
z
" id="m630d86d0af" style="stroke:#bcbd22;"/>
    </defs>
    <g clip-path="url(#pf29d99359b)">
     <use style="fill:#bcbd22;stroke:#bcbd22;" x="143.662299" xlink:href="#m630d86d0af" y="191.907544"/>
    </g>
   </g>
   <g id="74A">
    <defs>
     <path d="M 0 3 
C 0.795609 3 1.55874 2.683901 2.12132 2.12132 
C 2.683901 1.55874 3 0.795609 3 0 
C 3 -0.795609 2.683901 -1.55874 2.12132 -2.12132 
C 1.55874 -2.683901 0.795609 -3 0 -3 
C -0.795609 -3 -1.55874 -2.683901 -2.12132 -2.12132 
C -2.683901 -1.55874 -3 -0.795609 -3 0 
C -3 0.795609 -2.683901 1.55874 -2.12132 2.12132 
C -1.55874 2.683901 -0.795609 3 0 3 
z
" id="m8f3d2e4626" style="stroke:#17becf;"/>
    </defs>
    <g clip-path="url(#pf29d99359b)">
     <use style="fill:#17becf;stroke:#17becf;" x="109.576923" xlink:href="#m8f3d2e4626" y="27.954413"/>
    </g>
   </g>
   <g id="75A">
    <g clip-path="url(#pf29d99359b)">
     <use style="fill:#1f77b4;stroke:#1f77b4;" x="102.759848" xlink:href="#m41f92f450e" y="109.930979"/>
    </g>
   </g>
   <g id="76A">
    <g clip-path="url(#pf29d99359b)">
     <use style="fill:#ff7f0e;stroke:#ff7f0e;" x="102.759848" xlink:href="#m90182614b1" y="191.907544"/>
    </g>
   </g>
   <g id="77A">
    <g clip-path="url(#pf29d99359b)">
     <use style="fill:#2ca02c;stroke:#2ca02c;" x="198.198899" xlink:href="#md1d345dd71" y="191.907544"/>
    </g>
   </g>
   <g id="78A">
    <g clip-path="url(#pf29d99359b)">
     <use style="fill:#d62728;stroke:#d62728;" x="198.198899" xlink:href="#m5420389223" y="142.721605"/>
    </g>
   </g>
   <g id="79A">
    <g clip-path="url(#pf29d99359b)">
     <use style="fill:#9467bd;stroke:#9467bd;" x="82.308623" xlink:href="#m88e05998c8" y="109.930979"/>
    </g>
   </g>
   <g id="80A">
    <g clip-path="url(#pf29d99359b)">
     <use style="fill:#8c564b;stroke:#8c564b;" x="82.308623" xlink:href="#m53b8bc51b4" y="191.907544"/>
    </g>
   </g>
   <g id="79B">
    <g clip-path="url(#pf29d99359b)">
     <use style="fill:#e377c2;stroke:#e377c2;" x="82.308623" xlink:href="#m5833efc989" y="191.907544"/>
    </g>
   </g>
   <g id="matplotlib.axis_1">
    <g id="xtick_1">
     <g id="line2d_1">
      <defs>
       <path d="M 0 0 
L 0 3.5 
" id="m241ada26a2" style="stroke:#000000;stroke-width:0.8;"/>
      </defs>
      <g>
       <use style="stroke:#000000;stroke-width:0.8;" x="89.125698" xlink:href="#m241ada26a2" y="303.64"/>
      </g>
     </g>
     <g id="text_1">
      <text style="font-family:DejaVu Sans;font-size:10px;font-style:normal;font-weight:normal;text-anchor:middle;" transform="rotate(-0, 89.125698, 318.238437)" x="89.125698" y="318.238437">10</text>
     </g>
    </g>
    <g id="xtick_2">
     <g id="line2d_2">
      <g>
       <use style="stroke:#000000;stroke-width:0.8;" x="157.296449" xlink:href="#m241ada26a2" y="303.64"/>
      </g>
     </g>
     <g id="text_2">
      <text style="font-family:DejaVu Sans;font-size:10px;font-style:normal;font-weight:normal;text-anchor:middle;" transform="rotate(-0, 157.296449, 318.238437)" x="157.296449" y="318.238437">20</text>
     </g>
    </g>
    <g id="xtick_3">
     <g id="line2d_3">
      <g>
       <use style="stroke:#000000;stroke-width:0.8;" x="225.467199" xlink:href="#m241ada26a2" y="303.64"/>
      </g>
     </g>
     <g id="text_3">
      <text style="font-family:DejaVu Sans;font-size:10px;font-style:normal;font-weight:normal;text-anchor:middle;" transform="rotate(-0, 225.467199, 318.238437)" x="225.467199" y="318.238437">30</text>
     </g>
    </g>
    <g id="xtick_4">
     <g id="line2d_4">
      <g>
       <use style="stroke:#000000;stroke-width:0.8;" x="293.63795" xlink:href="#m241ada26a2" y="303.64"/>
      </g>
     </g>
     <g id="text_4">
      <text style="font-family:DejaVu Sans;font-size:10px;font-style:normal;font-weight:normal;text-anchor:middle;" transform="rotate(-0, 293.63795, 318.238437)" x="293.63795" y="318.238437">40</text>
     </g>
    </g>
    <g id="xtick_5">
     <g id="line2d_5">
      <g>
       <use style="stroke:#000000;stroke-width:0.8;" x="361.808701" xlink:href="#m241ada26a2" y="303.64"/>
      </g>
     </g>
     <g id="text_5">
      <text style="font-family:DejaVu Sans;font-size:10px;font-style:normal;font-weight:normal;text-anchor:middle;" transform="rotate(-0, 361.808701, 318.238437)" x="361.808701" y="318.238437">50</text>
     </g>
    </g>
    <g id="xtick_6">
     <g id="line2d_6">
      <g>
       <use style="stroke:#000000;stroke-width:0.8;" x="429.979451" xlink:href="#m241ada26a2" y="303.64"/>
      </g>
     </g>
     <g id="text_6">
      <text style="font-family:DejaVu Sans;font-size:10px;font-style:normal;font-weight:normal;text-anchor:middle;" transform="rotate(-0, 429.979451, 318.238437)" x="429.979451" y="318.238437">60</text>
     </g>
    </g>
    <g id="text_7">
     <text style="font-family:DejaVu Sans;font-size:10px;font-style:normal;font-weight:normal;text-anchor:middle;" transform="rotate(-0, 254.98, 331.916562)" x="254.98" y="331.916562">Amount of languages tested</text>
    </g>
   </g>
   <g id="matplotlib.axis_2">
    <g id="ytick_1">
     <g id="line2d_7">
      <defs>
       <path d="M 0 0 
L -3.5 0 
" id="md14bdeded6" style="stroke:#000000;stroke-width:0.8;"/>
      </defs>
      <g>
       <use style="stroke:#000000;stroke-width:0.8;" x="62.48" xlink:href="#md14bdeded6" y="302.575907"/>
      </g>
     </g>
     <g id="text_8">
      <text style="font-family:DejaVu Sans;font-size:10px;font-style:normal;font-weight:normal;text-anchor:end;" transform="rotate(-0, 55.48, 306.375126)" x="55.48" y="306.375126">−0.15</text>
     </g>
    </g>
    <g id="ytick_2">
     <g id="line2d_8">
      <g>
       <use style="stroke:#000000;stroke-width:0.8;" x="62.48" xlink:href="#md14bdeded6" y="265.686453"/>
      </g>
     </g>
     <g id="text_9">
      <text style="font-family:DejaVu Sans;font-size:10px;font-style:normal;font-weight:normal;text-anchor:end;" transform="rotate(-0, 55.48, 269.485671)" x="55.48" y="269.485671">−0.10</text>
     </g>
    </g>
    <g id="ytick_3">
     <g id="line2d_9">
      <g>
       <use style="stroke:#000000;stroke-width:0.8;" x="62.48" xlink:href="#md14bdeded6" y="228.796998"/>
      </g>
     </g>
     <g id="text_10">
      <text style="font-family:DejaVu Sans;font-size:10px;font-style:normal;font-weight:normal;text-anchor:end;" transform="rotate(-0, 55.48, 232.596217)" x="55.48" y="232.596217">−0.05</text>
     </g>
    </g>
    <g id="ytick_4">
     <g id="line2d_10">
      <g>
       <use style="stroke:#000000;stroke-width:0.8;" x="62.48" xlink:href="#md14bdeded6" y="191.907544"/>
      </g>
     </g>
     <g id="text_11">
      <text style="font-family:DejaVu Sans;font-size:10px;font-style:normal;font-weight:normal;text-anchor:end;" transform="rotate(-0, 55.48, 195.706763)" x="55.48" y="195.706763">0.00</text>
     </g>
    </g>
    <g id="ytick_5">
     <g id="line2d_11">
      <g>
       <use style="stroke:#000000;stroke-width:0.8;" x="62.48" xlink:href="#md14bdeded6" y="155.01809"/>
      </g>
     </g>
     <g id="text_12">
      <text style="font-family:DejaVu Sans;font-size:10px;font-style:normal;font-weight:normal;text-anchor:end;" transform="rotate(-0, 55.48, 158.817308)" x="55.48" y="158.817308">0.05</text>
     </g>
    </g>
    <g id="ytick_6">
     <g id="line2d_12">
      <g>
       <use style="stroke:#000000;stroke-width:0.8;" x="62.48" xlink:href="#md14bdeded6" y="118.128635"/>
      </g>
     </g>
     <g id="text_13">
      <text style="font-family:DejaVu Sans;font-size:10px;font-style:normal;font-weight:normal;text-anchor:end;" transform="rotate(-0, 55.48, 121.927854)" x="55.48" y="121.927854">0.10</text>
     </g>
    </g>
    <g id="ytick_7">
     <g id="line2d_13">
      <g>
       <use style="stroke:#000000;stroke-width:0.8;" x="62.48" xlink:href="#md14bdeded6" y="81.239181"/>
      </g>
     </g>
     <g id="text_14">
      <text style="font-family:DejaVu Sans;font-size:10px;font-style:normal;font-weight:normal;text-anchor:end;" transform="rotate(-0, 55.48, 85.0384)" x="55.48" y="85.0384">0.15</text>
     </g>
    </g>
    <g id="ytick_8">
     <g id="line2d_14">
      <g>
       <use style="stroke:#000000;stroke-width:0.8;" x="62.48" xlink:href="#md14bdeded6" y="44.349726"/>
      </g>
     </g>
     <g id="text_15">
      <text style="font-family:DejaVu Sans;font-size:10px;font-style:normal;font-weight:normal;text-anchor:end;" transform="rotate(-0, 55.48, 48.148945)" x="55.48" y="48.148945">0.20</text>
     </g>
    </g>
    <g id="text_16">
     <text style="font-family:DejaVu Sans;font-size:10px;font-style:normal;font-weight:normal;text-anchor:middle;" transform="rotate(-90, 18.755, 158.48)" x="18.755" y="158.48">Score - base</text>
    </g>
   </g>
   <g id="line2d_15">
    <path clip-path="url(#pf29d99359b)" d="M 82.308623 169.648388 
L 102.759848 169.974585 
L 109.576923 170.083318 
L 143.662299 170.62698 
L 184.564749 171.279375 
L 198.198899 171.49684 
L 205.015974 171.605572 
L 232.284274 172.040502 
L 429.979451 175.193744 
" style="fill:none;stroke:#1f77b4;stroke-linecap:square;stroke-width:1.5;"/>
   </g>
   <g id="patch_3">
    <path d="M 62.48 303.64 
L 62.48 13.32 
" style="fill:none;stroke:#000000;stroke-linecap:square;stroke-linejoin:miter;stroke-width:0.8;"/>
   </g>
   <g id="patch_4">
    <path d="M 447.48 303.64 
L 447.48 13.32 
" style="fill:none;stroke:#000000;stroke-linecap:square;stroke-linejoin:miter;stroke-width:0.8;"/>
   </g>
   <g id="patch_5">
    <path d="M 62.48 303.64 
L 447.48 303.64 
" style="fill:none;stroke:#000000;stroke-linecap:square;stroke-linejoin:miter;stroke-width:0.8;"/>
   </g>
   <g id="patch_6">
    <path d="M 62.48 13.32 
L 447.48 13.32 
" style="fill:none;stroke:#000000;stroke-linecap:square;stroke-linejoin:miter;stroke-width:0.8;"/>
   </g>
  </g>
 </g>
 <defs>
  <clipPath id="pf29d99359b">
   <rect height="290.32" width="385" x="62.48" y="13.32"/>
  </clipPath>
 </defs>
</svg>
