<?xml version="1.0" encoding="utf-8" standalone="no"?>
<!DOCTYPE svg PUBLIC "-//W3C//DTD SVG 1.1//EN"
  "http://www.w3.org/Graphics/SVG/1.1/DTD/svg11.dtd">
<!-- Created with matplotlib (http://matplotlib.org/) -->
<svg height="345.6pt" version="1.1" viewBox="0 0 460.8 345.6" width="460.8pt" xmlns="http://www.w3.org/2000/svg" xmlns:xlink="http://www.w3.org/1999/xlink">
 <defs>
  <style type="text/css">
*{stroke-linecap:butt;stroke-linejoin:round;}
  </style>
 </defs>
 <g id="figure_1">
  <g id="patch_1">
   <path d="M 0 345.6 
L 460.8 345.6 
L 460.8 0 
L 0 0 
z
" style="fill:#ffffff;"/>
  </g>
  <g id="axes_1">
   <g id="patch_2">
    <path d="M 62.39 303.64 
L 447.48 303.64 
L 447.48 13.32 
L 62.39 13.32 
z
" style="fill:#ffffff;"/>
   </g>
   <g id="81A">
    <defs>
     <path d="M 0 3 
C 0.795609 3 1.55874 2.683901 2.12132 2.12132 
C 2.683901 1.55874 3 0.795609 3 0 
C 3 -0.795609 2.683901 -1.55874 2.12132 -2.12132 
C 1.55874 -2.683901 0.795609 -3 0 -3 
C -0.795609 -3 -1.55874 -2.683901 -2.12132 -2.12132 
C -2.683901 -1.55874 -3 -0.795609 -3 0 
C -3 0.795609 -2.683901 1.55874 -2.12132 2.12132 
C -1.55874 2.683901 -0.795609 3 0 3 
z
" id="m06bd308afe" style="stroke:#1f77b4;"/>
    </defs>
    <g clip-path="url(#paaa0791316)">
     <use style="fill:#1f77b4;stroke:#1f77b4;" x="401.218407" xlink:href="#m06bd308afe" y="178.362116"/>
    </g>
   </g>
   <g id="82A">
    <defs>
     <path d="M 0 3 
C 0.795609 3 1.55874 2.683901 2.12132 2.12132 
C 2.683901 1.55874 3 0.795609 3 0 
C 3 -0.795609 2.683901 -1.55874 2.12132 -2.12132 
C 1.55874 -2.683901 0.795609 -3 0 -3 
C -0.795609 -3 -1.55874 -2.683901 -2.12132 -2.12132 
C -2.683901 -1.55874 -3 -0.795609 -3 0 
C -3 0.795609 -2.683901 1.55874 -2.12132 2.12132 
C -1.55874 2.683901 -0.795609 3 0 3 
z
" id="m3bc66175c8" style="stroke:#ff7f0e;"/>
    </defs>
    <g clip-path="url(#paaa0791316)">
     <use style="fill:#ff7f0e;stroke:#ff7f0e;" x="429.785651" xlink:href="#m3bc66175c8" y="172.901378"/>
    </g>
   </g>
   <g id="83A">
    <defs>
     <path d="M 0 3 
C 0.795609 3 1.55874 2.683901 2.12132 2.12132 
C 2.683901 1.55874 3 0.795609 3 0 
C 3 -0.795609 2.683901 -1.55874 2.12132 -2.12132 
C 1.55874 -2.683901 0.795609 -3 0 -3 
C -0.795609 -3 -1.55874 -2.683901 -2.12132 -2.12132 
C -2.683901 -1.55874 -3 -0.795609 -3 0 
C -3 0.795609 -2.683901 1.55874 -2.12132 2.12132 
C -1.55874 2.683901 -0.795609 3 0 3 
z
" id="m979db1422c" style="stroke:#2ca02c;"/>
    </defs>
    <g clip-path="url(#paaa0791316)">
     <use style="fill:#2ca02c;stroke:#2ca02c;" x="429.785651" xlink:href="#m979db1422c" y="117.63871"/>
    </g>
   </g>
   <g id="84A">
    <defs>
     <path d="M 0 3 
C 0.795609 3 1.55874 2.683901 2.12132 2.12132 
C 2.683901 1.55874 3 0.795609 3 0 
C 3 -0.795609 2.683901 -1.55874 2.12132 -2.12132 
C 1.55874 -2.683901 0.795609 -3 0 -3 
C -0.795609 -3 -1.55874 -2.683901 -2.12132 -2.12132 
C -2.683901 -1.55874 -3 -0.795609 -3 0 
C -3 0.795609 -2.683901 1.55874 -2.12132 2.12132 
C -1.55874 2.683901 -0.795609 3 0 3 
z
" id="m184d0451eb" style="stroke:#d62728;"/>
    </defs>
    <g clip-path="url(#paaa0791316)">
     <use style="fill:#d62728;stroke:#d62728;" x="210.770115" xlink:href="#m184d0451eb" y="180.109552"/>
    </g>
   </g>
   <g id="85A">
    <defs>
     <path d="M 0 3 
C 0.795609 3 1.55874 2.683901 2.12132 2.12132 
C 2.683901 1.55874 3 0.795609 3 0 
C 3 -0.795609 2.683901 -1.55874 2.12132 -2.12132 
C 1.55874 -2.683901 0.795609 -3 0 -3 
C -0.795609 -3 -1.55874 -2.683901 -2.12132 -2.12132 
C -2.683901 -1.55874 -3 -0.795609 -3 0 
C -3 0.795609 -2.683901 1.55874 -2.12132 2.12132 
C -1.55874 2.683901 -0.795609 3 0 3 
z
" id="m9287ca2300" style="stroke:#9467bd;"/>
    </defs>
    <g clip-path="url(#paaa0791316)">
     <use style="fill:#9467bd;stroke:#9467bd;" x="377.41237" xlink:href="#m9287ca2300" y="36.769862"/>
    </g>
   </g>
   <g id="86A">
    <defs>
     <path d="M 0 3 
C 0.795609 3 1.55874 2.683901 2.12132 2.12132 
C 2.683901 1.55874 3 0.795609 3 0 
C 3 -0.795609 2.683901 -1.55874 2.12132 -2.12132 
C 1.55874 -2.683901 0.795609 -3 0 -3 
C -0.795609 -3 -1.55874 -2.683901 -2.12132 -2.12132 
C -2.683901 -1.55874 -3 -0.795609 -3 0 
C -3 0.795609 -2.683901 1.55874 -2.12132 2.12132 
C -1.55874 2.683901 -0.795609 3 0 3 
z
" id="m50071a44d4" style="stroke:#8c564b;"/>
    </defs>
    <g clip-path="url(#paaa0791316)">
     <use style="fill:#8c564b;stroke:#8c564b;" x="386.934785" xlink:href="#m50071a44d4" y="109.229174"/>
    </g>
   </g>
   <g id="87A">
    <defs>
     <path d="M 0 3 
C 0.795609 3 1.55874 2.683901 2.12132 2.12132 
C 2.683901 1.55874 3 0.795609 3 0 
C 3 -0.795609 2.683901 -1.55874 2.12132 -2.12132 
C 1.55874 -2.683901 0.795609 -3 0 -3 
C -0.795609 -3 -1.55874 -2.683901 -2.12132 -2.12132 
C -2.683901 -1.55874 -3 -0.795609 -3 0 
C -3 0.795609 -2.683901 1.55874 -2.12132 2.12132 
C -1.55874 2.683901 -0.795609 3 0 3 
z
" id="mdee39cbfec" style="stroke:#e377c2;"/>
    </defs>
    <g clip-path="url(#paaa0791316)">
     <use style="fill:#e377c2;stroke:#e377c2;" x="401.218407" xlink:href="#mdee39cbfec" y="137.639257"/>
    </g>
   </g>
   <g id="88A">
    <defs>
     <path d="M 0 3 
C 0.795609 3 1.55874 2.683901 2.12132 2.12132 
C 2.683901 1.55874 3 0.795609 3 0 
C 3 -0.795609 2.683901 -1.55874 2.12132 -2.12132 
C 1.55874 -2.683901 0.795609 -3 0 -3 
C -0.795609 -3 -1.55874 -2.683901 -2.12132 -2.12132 
C -2.683901 -1.55874 -3 -0.795609 -3 0 
C -3 0.795609 -2.683901 1.55874 -2.12132 2.12132 
C -1.55874 2.683901 -0.795609 3 0 3 
z
" id="mfe4e4d889b" style="stroke:#7f7f7f;"/>
    </defs>
    <g clip-path="url(#paaa0791316)">
     <use style="fill:#7f7f7f;stroke:#7f7f7f;" x="372.651163" xlink:href="#mfe4e4d889b" y="141.83758"/>
    </g>
   </g>
   <g id="89A">
    <defs>
     <path d="M 0 3 
C 0.795609 3 1.55874 2.683901 2.12132 2.12132 
C 2.683901 1.55874 3 0.795609 3 0 
C 3 -0.795609 2.683901 -1.55874 2.12132 -2.12132 
C 1.55874 -2.683901 0.795609 -3 0 -3 
C -0.795609 -3 -1.55874 -2.683901 -2.12132 -2.12132 
C -2.683901 -1.55874 -3 -0.795609 -3 0 
C -3 0.795609 -2.683901 1.55874 -2.12132 2.12132 
C -1.55874 2.683901 -0.795609 3 0 3 
z
" id="m27b5cdbace" style="stroke:#bcbd22;"/>
    </defs>
    <g clip-path="url(#paaa0791316)">
     <use style="fill:#bcbd22;stroke:#bcbd22;" x="358.367541" xlink:href="#m27b5cdbace" y="134.938328"/>
    </g>
   </g>
   <g id="90A">
    <defs>
     <path d="M 0 3 
C 0.795609 3 1.55874 2.683901 2.12132 2.12132 
C 2.683901 1.55874 3 0.795609 3 0 
C 3 -0.795609 2.683901 -1.55874 2.12132 -2.12132 
C 1.55874 -2.683901 0.795609 -3 0 -3 
C -0.795609 -3 -1.55874 -2.683901 -2.12132 -2.12132 
C -2.683901 -1.55874 -3 -0.795609 -3 0 
C -3 0.795609 -2.683901 1.55874 -2.12132 2.12132 
C -1.55874 2.683901 -0.795609 3 0 3 
z
" id="m83fa5953a0" style="stroke:#17becf;"/>
    </defs>
    <g clip-path="url(#paaa0791316)">
     <use style="fill:#17becf;stroke:#17becf;" x="286.949432" xlink:href="#m83fa5953a0" y="180.109552"/>
    </g>
   </g>
   <g id="91A">
    <g clip-path="url(#paaa0791316)">
     <use style="fill:#1f77b4;stroke:#1f77b4;" x="225.053737" xlink:href="#m06bd308afe" y="145.510317"/>
    </g>
   </g>
   <g id="92A">
    <g clip-path="url(#paaa0791316)">
     <use style="fill:#ff7f0e;stroke:#ff7f0e;" x="305.994261" xlink:href="#m3bc66175c8" y="215.992001"/>
    </g>
   </g>
   <g id="93A">
    <g clip-path="url(#paaa0791316)">
     <use style="fill:#2ca02c;stroke:#2ca02c;" x="320.277883" xlink:href="#m979db1422c" y="125.327429"/>
    </g>
   </g>
   <g id="94A">
    <g clip-path="url(#paaa0791316)">
     <use style="fill:#d62728;stroke:#d62728;" x="253.620981" xlink:href="#m184d0451eb" y="229.537032"/>
    </g>
   </g>
   <g id="95A">
    <g clip-path="url(#paaa0791316)">
     <use style="fill:#9467bd;stroke:#9467bd;" x="367.889956" xlink:href="#m9287ca2300" y="28.257352"/>
    </g>
   </g>
   <g id="96A">
    <g clip-path="url(#paaa0791316)">
     <use style="fill:#8c564b;stroke:#8c564b;" x="296.471846" xlink:href="#m50071a44d4" y="123.885794"/>
    </g>
   </g>
   <g id="97A">
    <g clip-path="url(#paaa0791316)">
     <use style="fill:#e377c2;stroke:#e377c2;" x="391.695992" xlink:href="#mdee39cbfec" y="158.228613"/>
    </g>
   </g>
   <g id="143F">
    <g clip-path="url(#paaa0791316)">
     <use style="fill:#7f7f7f;stroke:#7f7f7f;" x="391.695992" xlink:href="#mfe4e4d889b" y="272.374181"/>
    </g>
   </g>
   <g id="90B">
    <g clip-path="url(#paaa0791316)">
     <use style="fill:#bcbd22;stroke:#bcbd22;" x="82.217518" xlink:href="#m27b5cdbace" y="180.109552"/>
    </g>
   </g>
   <g id="90C">
    <g clip-path="url(#paaa0791316)">
     <use style="fill:#17becf;stroke:#17becf;" x="248.859773" xlink:href="#m83fa5953a0" y="180.109552"/>
    </g>
   </g>
   <g id="144P">
    <g clip-path="url(#paaa0791316)">
     <use style="fill:#1f77b4;stroke:#1f77b4;" x="148.87442" xlink:href="#m06bd308afe" y="180.109552"/>
    </g>
   </g>
   <g id="144J">
    <g clip-path="url(#paaa0791316)">
     <use style="fill:#ff7f0e;stroke:#ff7f0e;" x="172.680456" xlink:href="#m3bc66175c8" y="180.109552"/>
    </g>
   </g>
   <g id="144S">
    <g clip-path="url(#paaa0791316)">
     <use style="fill:#2ca02c;stroke:#2ca02c;" x="172.680456" xlink:href="#m979db1422c" y="174.102741"/>
    </g>
   </g>
   <g id="144X">
    <g clip-path="url(#paaa0791316)">
     <use style="fill:#d62728;stroke:#d62728;" x="106.023554" xlink:href="#m184d0451eb" y="180.109552"/>
    </g>
   </g>
   <g id="144A">
    <g clip-path="url(#paaa0791316)">
     <use style="fill:#9467bd;stroke:#9467bd;" x="363.128748" xlink:href="#m9287ca2300" y="148.343003"/>
    </g>
   </g>
   <g id="144V">
    <g clip-path="url(#paaa0791316)">
     <use style="fill:#8c564b;stroke:#8c564b;" x="106.023554" xlink:href="#m50071a44d4" y="180.109552"/>
    </g>
   </g>
   <g id="144I">
    <g clip-path="url(#paaa0791316)">
     <use style="fill:#e377c2;stroke:#e377c2;" x="163.158042" xlink:href="#mdee39cbfec" y="185.351861"/>
    </g>
   </g>
   <g id="144R">
    <g clip-path="url(#paaa0791316)">
     <use style="fill:#7f7f7f;stroke:#7f7f7f;" x="148.87442" xlink:href="#mfe4e4d889b" y="221.299119"/>
    </g>
   </g>
   <g id="143B">
    <g clip-path="url(#paaa0791316)">
     <use style="fill:#bcbd22;stroke:#bcbd22;" x="82.217518" xlink:href="#m27b5cdbace" y="180.109552"/>
    </g>
   </g>
   <g id="144K">
    <g clip-path="url(#paaa0791316)">
     <use style="fill:#17becf;stroke:#17becf;" x="172.680456" xlink:href="#m83fa5953a0" y="180.109552"/>
    </g>
   </g>
   <g id="144B">
    <g clip-path="url(#paaa0791316)">
     <use style="fill:#1f77b4;stroke:#1f77b4;" x="229.814944" xlink:href="#m06bd308afe" y="86.403289"/>
    </g>
   </g>
   <g id="144D">
    <g clip-path="url(#paaa0791316)">
     <use style="fill:#ff7f0e;stroke:#ff7f0e;" x="177.441664" xlink:href="#m3bc66175c8" y="156.082305"/>
    </g>
   </g>
   <g id="143E">
    <g clip-path="url(#paaa0791316)">
     <use style="fill:#2ca02c;stroke:#2ca02c;" x="391.695992" xlink:href="#m979db1422c" y="226.411471"/>
    </g>
   </g>
   <g id="143A">
    <g clip-path="url(#paaa0791316)">
     <use style="fill:#d62728;stroke:#d62728;" x="391.695992" xlink:href="#m184d0451eb" y="239.470986"/>
    </g>
   </g>
   <g id="144W">
    <g clip-path="url(#paaa0791316)">
     <use style="fill:#9467bd;stroke:#9467bd;" x="106.023554" xlink:href="#m9287ca2300" y="180.109552"/>
    </g>
   </g>
   <g id="144Q">
    <g clip-path="url(#paaa0791316)">
     <use style="fill:#8c564b;stroke:#8c564b;" x="148.87442" xlink:href="#m50071a44d4" y="180.109552"/>
    </g>
   </g>
   <g id="144L">
    <g clip-path="url(#paaa0791316)">
     <use style="fill:#e377c2;stroke:#e377c2;" x="182.202871" xlink:href="#mdee39cbfec" y="288.232164"/>
    </g>
   </g>
   <g id="144H">
    <g clip-path="url(#paaa0791316)">
     <use style="fill:#7f7f7f;stroke:#7f7f7f;" x="163.158042" xlink:href="#mfe4e4d889b" y="180.109552"/>
    </g>
   </g>
   <g id="144T">
    <g clip-path="url(#paaa0791316)">
     <use style="fill:#bcbd22;stroke:#bcbd22;" x="106.023554" xlink:href="#m27b5cdbace" y="180.109552"/>
    </g>
   </g>
   <g id="143G">
    <g clip-path="url(#paaa0791316)">
     <use style="fill:#17becf;stroke:#17becf;" x="391.695992" xlink:href="#m83fa5953a0" y="180.109552"/>
    </g>
   </g>
   <g id="matplotlib.axis_1">
    <g id="xtick_1">
     <g id="line2d_1">
      <defs>
       <path d="M 0 0 
L 0 3.5 
" id="m65e94f5ed8" style="stroke:#000000;stroke-width:0.8;"/>
      </defs>
      <g>
       <use style="stroke:#000000;stroke-width:0.8;" x="67.933896" xlink:href="#m65e94f5ed8" y="303.64"/>
      </g>
     </g>
     <g id="text_1">
      <text style="font-family:DejaVu Sans;font-size:10px;font-style:normal;font-weight:normal;text-anchor:middle;" transform="rotate(-0, 67.933896, 318.238437)" x="67.933896" y="318.238437">0</text>
     </g>
    </g>
    <g id="xtick_2">
     <g id="line2d_2">
      <g>
       <use style="stroke:#000000;stroke-width:0.8;" x="115.545969" xlink:href="#m65e94f5ed8" y="303.64"/>
      </g>
     </g>
     <g id="text_2">
      <text style="font-family:DejaVu Sans;font-size:10px;font-style:normal;font-weight:normal;text-anchor:middle;" transform="rotate(-0, 115.545969, 318.238437)" x="115.545969" y="318.238437">10</text>
     </g>
    </g>
    <g id="xtick_3">
     <g id="line2d_3">
      <g>
       <use style="stroke:#000000;stroke-width:0.8;" x="163.158042" xlink:href="#m65e94f5ed8" y="303.64"/>
      </g>
     </g>
     <g id="text_3">
      <text style="font-family:DejaVu Sans;font-size:10px;font-style:normal;font-weight:normal;text-anchor:middle;" transform="rotate(-0, 163.158042, 318.238437)" x="163.158042" y="318.238437">20</text>
     </g>
    </g>
    <g id="xtick_4">
     <g id="line2d_4">
      <g>
       <use style="stroke:#000000;stroke-width:0.8;" x="210.770115" xlink:href="#m65e94f5ed8" y="303.64"/>
      </g>
     </g>
     <g id="text_4">
      <text style="font-family:DejaVu Sans;font-size:10px;font-style:normal;font-weight:normal;text-anchor:middle;" transform="rotate(-0, 210.770115, 318.238437)" x="210.770115" y="318.238437">30</text>
     </g>
    </g>
    <g id="xtick_5">
     <g id="line2d_5">
      <g>
       <use style="stroke:#000000;stroke-width:0.8;" x="258.382188" xlink:href="#m65e94f5ed8" y="303.64"/>
      </g>
     </g>
     <g id="text_5">
      <text style="font-family:DejaVu Sans;font-size:10px;font-style:normal;font-weight:normal;text-anchor:middle;" transform="rotate(-0, 258.382188, 318.238437)" x="258.382188" y="318.238437">40</text>
     </g>
    </g>
    <g id="xtick_6">
     <g id="line2d_6">
      <g>
       <use style="stroke:#000000;stroke-width:0.8;" x="305.994261" xlink:href="#m65e94f5ed8" y="303.64"/>
      </g>
     </g>
     <g id="text_6">
      <text style="font-family:DejaVu Sans;font-size:10px;font-style:normal;font-weight:normal;text-anchor:middle;" transform="rotate(-0, 305.994261, 318.238437)" x="305.994261" y="318.238437">50</text>
     </g>
    </g>
    <g id="xtick_7">
     <g id="line2d_7">
      <g>
       <use style="stroke:#000000;stroke-width:0.8;" x="353.606334" xlink:href="#m65e94f5ed8" y="303.64"/>
      </g>
     </g>
     <g id="text_7">
      <text style="font-family:DejaVu Sans;font-size:10px;font-style:normal;font-weight:normal;text-anchor:middle;" transform="rotate(-0, 353.606334, 318.238437)" x="353.606334" y="318.238437">60</text>
     </g>
    </g>
    <g id="xtick_8">
     <g id="line2d_8">
      <g>
       <use style="stroke:#000000;stroke-width:0.8;" x="401.218407" xlink:href="#m65e94f5ed8" y="303.64"/>
      </g>
     </g>
     <g id="text_8">
      <text style="font-family:DejaVu Sans;font-size:10px;font-style:normal;font-weight:normal;text-anchor:middle;" transform="rotate(-0, 401.218407, 318.238437)" x="401.218407" y="318.238437">70</text>
     </g>
    </g>
    <g id="text_9">
     <text style="font-family:DejaVu Sans;font-size:10px;font-style:normal;font-weight:normal;text-anchor:middle;" transform="rotate(-0, 254.935, 331.916562)" x="254.935" y="331.916562">Amount of languages tested</text>
    </g>
   </g>
   <g id="matplotlib.axis_2">
    <g id="ytick_1">
     <g id="line2d_9">
      <defs>
       <path d="M 0 0 
L -3.5 0 
" id="m94ab7f3954" style="stroke:#000000;stroke-width:0.8;"/>
      </defs>
      <g>
       <use style="stroke:#000000;stroke-width:0.8;" x="62.39" xlink:href="#m94ab7f3954" y="266.607641"/>
      </g>
     </g>
     <g id="text_10">
      <text style="font-family:DejaVu Sans;font-size:10px;font-style:normal;font-weight:normal;text-anchor:end;" transform="rotate(-0, 55.39, 270.40686)" x="55.39" y="270.40686">−0.10</text>
     </g>
    </g>
    <g id="ytick_2">
     <g id="line2d_10">
      <g>
       <use style="stroke:#000000;stroke-width:0.8;" x="62.39" xlink:href="#m94ab7f3954" y="223.358597"/>
      </g>
     </g>
     <g id="text_11">
      <text style="font-family:DejaVu Sans;font-size:10px;font-style:normal;font-weight:normal;text-anchor:end;" transform="rotate(-0, 55.39, 227.157816)" x="55.39" y="227.157816">−0.05</text>
     </g>
    </g>
    <g id="ytick_3">
     <g id="line2d_11">
      <g>
       <use style="stroke:#000000;stroke-width:0.8;" x="62.39" xlink:href="#m94ab7f3954" y="180.109552"/>
      </g>
     </g>
     <g id="text_12">
      <text style="font-family:DejaVu Sans;font-size:10px;font-style:normal;font-weight:normal;text-anchor:end;" transform="rotate(-0, 55.39, 183.908771)" x="55.39" y="183.908771">0.00</text>
     </g>
    </g>
    <g id="ytick_4">
     <g id="line2d_12">
      <g>
       <use style="stroke:#000000;stroke-width:0.8;" x="62.39" xlink:href="#m94ab7f3954" y="136.860508"/>
      </g>
     </g>
     <g id="text_13">
      <text style="font-family:DejaVu Sans;font-size:10px;font-style:normal;font-weight:normal;text-anchor:end;" transform="rotate(-0, 55.39, 140.659727)" x="55.39" y="140.659727">0.05</text>
     </g>
    </g>
    <g id="ytick_5">
     <g id="line2d_13">
      <g>
       <use style="stroke:#000000;stroke-width:0.8;" x="62.39" xlink:href="#m94ab7f3954" y="93.611463"/>
      </g>
     </g>
     <g id="text_14">
      <text style="font-family:DejaVu Sans;font-size:10px;font-style:normal;font-weight:normal;text-anchor:end;" transform="rotate(-0, 55.39, 97.410682)" x="55.39" y="97.410682">0.10</text>
     </g>
    </g>
    <g id="ytick_6">
     <g id="line2d_14">
      <g>
       <use style="stroke:#000000;stroke-width:0.8;" x="62.39" xlink:href="#m94ab7f3954" y="50.362419"/>
      </g>
     </g>
     <g id="text_15">
      <text style="font-family:DejaVu Sans;font-size:10px;font-style:normal;font-weight:normal;text-anchor:end;" transform="rotate(-0, 55.39, 54.161638)" x="55.39" y="54.161638">0.15</text>
     </g>
    </g>
    <g id="text_16">
     <text style="font-family:DejaVu Sans;font-size:10px;font-style:normal;font-weight:normal;text-anchor:middle;" transform="rotate(-90, 18.665, 158.48)" x="18.665" y="158.48">Score - base</text>
    </g>
   </g>
   <g id="line2d_15">
    <path clip-path="url(#paaa0791316)" d="M 82.217518 189.347009 
L 106.023554 186.63264 
L 148.87442 181.746774 
L 163.158042 180.118152 
L 172.680456 179.032405 
L 177.441664 178.489531 
L 182.202871 177.946657 
L 210.770115 174.689413 
L 225.053737 173.060791 
L 229.814944 172.517917 
L 248.859773 170.346421 
L 253.620981 169.803548 
L 286.949432 166.00343 
L 296.471846 164.917682 
L 305.994261 163.831934 
L 320.277883 162.203312 
L 358.367541 157.860321 
L 363.128748 157.317447 
L 367.889956 156.774573 
L 372.651163 156.231699 
L 377.41237 155.688825 
L 386.934785 154.603077 
L 391.695992 154.060203 
L 401.218407 152.974455 
L 429.785651 149.717212 
" style="fill:none;stroke:#1f77b4;stroke-linecap:square;stroke-width:1.5;"/>
   </g>
   <g id="patch_3">
    <path d="M 62.39 303.64 
L 62.39 13.32 
" style="fill:none;stroke:#000000;stroke-linecap:square;stroke-linejoin:miter;stroke-width:0.8;"/>
   </g>
   <g id="patch_4">
    <path d="M 447.48 303.64 
L 447.48 13.32 
" style="fill:none;stroke:#000000;stroke-linecap:square;stroke-linejoin:miter;stroke-width:0.8;"/>
   </g>
   <g id="patch_5">
    <path d="M 62.39 303.64 
L 447.48 303.64 
" style="fill:none;stroke:#000000;stroke-linecap:square;stroke-linejoin:miter;stroke-width:0.8;"/>
   </g>
   <g id="patch_6">
    <path d="M 62.39 13.32 
L 447.48 13.32 
" style="fill:none;stroke:#000000;stroke-linecap:square;stroke-linejoin:miter;stroke-width:0.8;"/>
   </g>
  </g>
 </g>
 <defs>
  <clipPath id="paaa0791316">
   <rect height="290.32" width="385.09" x="62.39" y="13.32"/>
  </clipPath>
 </defs>
</svg>
