<?xml version="1.0" encoding="utf-8" standalone="no"?>
<!DOCTYPE svg PUBLIC "-//W3C//DTD SVG 1.1//EN"
  "http://www.w3.org/Graphics/SVG/1.1/DTD/svg11.dtd">
<!-- Created with matplotlib (http://matplotlib.org/) -->
<svg height="345.6pt" version="1.1" viewBox="0 0 460.8 345.6" width="460.8pt" xmlns="http://www.w3.org/2000/svg" xmlns:xlink="http://www.w3.org/1999/xlink">
 <defs>
  <style type="text/css">
*{stroke-linecap:butt;stroke-linejoin:round;}
  </style>
 </defs>
 <g id="figure_1">
  <g id="patch_1">
   <path d="M 0 345.6 
L 460.8 345.6 
L 460.8 0 
L 0 0 
z
" style="fill:#ffffff;"/>
  </g>
  <g id="axes_1">
   <g id="patch_2">
    <path d="M 62.39 303.64 
L 444.237023 303.64 
L 444.237023 13.32 
L 62.39 13.32 
z
" style="fill:#ffffff;"/>
   </g>
   <g id="90C">
    <defs>
     <path d="M 0 3 
C 0.795609 3 1.55874 2.683901 2.12132 2.12132 
C 2.683901 1.55874 3 0.795609 3 0 
C 3 -0.795609 2.683901 -1.55874 2.12132 -2.12132 
C 1.55874 -2.683901 0.795609 -3 0 -3 
C -0.795609 -3 -1.55874 -2.683901 -2.12132 -2.12132 
C -2.683901 -1.55874 -3 -0.795609 -3 0 
C -3 0.795609 -2.683901 1.55874 -2.12132 2.12132 
C -1.55874 2.683901 -0.795609 3 0 3 
z
" id="m7f8418a059" style="stroke:#1f77b4;"/>
    </defs>
    <g clip-path="url(#pd81d696d3c)">
     <use style="fill:#1f77b4;stroke:#1f77b4;" x="229.533977" xlink:href="#m7f8418a059" y="187.525857"/>
    </g>
   </g>
   <g id="144B">
    <defs>
     <path d="M 0 3 
C 0.795609 3 1.55874 2.683901 2.12132 2.12132 
C 2.683901 1.55874 3 0.795609 3 0 
C 3 -0.795609 2.683901 -1.55874 2.12132 -2.12132 
C 1.55874 -2.683901 0.795609 -3 0 -3 
C -0.795609 -3 -1.55874 -2.683901 -2.12132 -2.12132 
C -2.683901 -1.55874 -3 -0.795609 -3 0 
C -3 0.795609 -2.683901 1.55874 -2.12132 2.12132 
C -1.55874 2.683901 -0.795609 3 0 3 
z
" id="m0d16496b75" style="stroke:#ff7f0e;"/>
    </defs>
    <g clip-path="url(#pd81d696d3c)">
     <use style="fill:#ff7f0e;stroke:#ff7f0e;" x="210.504579" xlink:href="#m0d16496b75" y="159.003156"/>
    </g>
   </g>
   <g id="83A">
    <defs>
     <path d="M 0 3 
C 0.795609 3 1.55874 2.683901 2.12132 2.12132 
C 2.683901 1.55874 3 0.795609 3 0 
C 3 -0.795609 2.683901 -1.55874 2.12132 -2.12132 
C 1.55874 -2.683901 0.795609 -3 0 -3 
C -0.795609 -3 -1.55874 -2.683901 -2.12132 -2.12132 
C -2.683901 -1.55874 -3 -0.795609 -3 0 
C -3 0.795609 -2.683901 1.55874 -2.12132 2.12132 
C -1.55874 2.683901 -0.795609 3 0 3 
z
" id="m4949ad5512" style="stroke:#2ca02c;"/>
    </defs>
    <g clip-path="url(#pd81d696d3c)">
     <use style="fill:#2ca02c;stroke:#2ca02c;" x="424.585303" xlink:href="#m4949ad5512" y="108.4229"/>
    </g>
   </g>
   <g id="87A">
    <defs>
     <path d="M 0 3 
C 0.795609 3 1.55874 2.683901 2.12132 2.12132 
C 2.683901 1.55874 3 0.795609 3 0 
C 3 -0.795609 2.683901 -1.55874 2.12132 -2.12132 
C 1.55874 -2.683901 0.795609 -3 0 -3 
C -0.795609 -3 -1.55874 -2.683901 -2.12132 -2.12132 
C -2.683901 -1.55874 -3 -0.795609 -3 0 
C -3 0.795609 -2.683901 1.55874 -2.12132 2.12132 
C -1.55874 2.683901 -0.795609 3 0 3 
z
" id="m56ab2e70ec" style="stroke:#d62728;"/>
    </defs>
    <g clip-path="url(#pd81d696d3c)">
     <use style="fill:#d62728;stroke:#d62728;" x="396.041207" xlink:href="#m56ab2e70ec" y="167.611826"/>
    </g>
   </g>
   <g id="144A">
    <defs>
     <path d="M 0 3 
C 0.795609 3 1.55874 2.683901 2.12132 2.12132 
C 2.683901 1.55874 3 0.795609 3 0 
C 3 -0.795609 2.683901 -1.55874 2.12132 -2.12132 
C 1.55874 -2.683901 0.795609 -3 0 -3 
C -0.795609 -3 -1.55874 -2.683901 -2.12132 -2.12132 
C -2.683901 -1.55874 -3 -0.795609 -3 0 
C -3 0.795609 -2.683901 1.55874 -2.12132 2.12132 
C -1.55874 2.683901 -0.795609 3 0 3 
z
" id="ma603935ebe" style="stroke:#9467bd;"/>
    </defs>
    <g clip-path="url(#pd81d696d3c)">
     <use style="fill:#9467bd;stroke:#9467bd;" x="357.982411" xlink:href="#ma603935ebe" y="146.960238"/>
    </g>
   </g>
   <g id="97A">
    <defs>
     <path d="M 0 3 
C 0.795609 3 1.55874 2.683901 2.12132 2.12132 
C 2.683901 1.55874 3 0.795609 3 0 
C 3 -0.795609 2.683901 -1.55874 2.12132 -2.12132 
C 1.55874 -2.683901 0.795609 -3 0 -3 
C -0.795609 -3 -1.55874 -2.683901 -2.12132 -2.12132 
C -2.683901 -1.55874 -3 -0.795609 -3 0 
C -3 0.795609 -2.683901 1.55874 -2.12132 2.12132 
C -1.55874 2.683901 -0.795609 3 0 3 
z
" id="m7eaae80ae8" style="stroke:#8c564b;"/>
    </defs>
    <g clip-path="url(#pd81d696d3c)">
     <use style="fill:#8c564b;stroke:#8c564b;" x="386.526508" xlink:href="#m7eaae80ae8" y="152.091067"/>
    </g>
   </g>
   <g id="95A">
    <defs>
     <path d="M 0 3 
C 0.795609 3 1.55874 2.683901 2.12132 2.12132 
C 2.683901 1.55874 3 0.795609 3 0 
C 3 -0.795609 2.683901 -1.55874 2.12132 -2.12132 
C 1.55874 -2.683901 0.795609 -3 0 -3 
C -0.795609 -3 -1.55874 -2.683901 -2.12132 -2.12132 
C -2.683901 -1.55874 -3 -0.795609 -3 0 
C -3 0.795609 -2.683901 1.55874 -2.12132 2.12132 
C -1.55874 2.683901 -0.795609 3 0 3 
z
" id="m78010d718f" style="stroke:#e377c2;"/>
    </defs>
    <g clip-path="url(#pd81d696d3c)">
     <use style="fill:#e377c2;stroke:#e377c2;" x="362.739761" xlink:href="#m78010d718f" y="27.291662"/>
    </g>
   </g>
   <g id="144S">
    <defs>
     <path d="M 0 3 
C 0.795609 3 1.55874 2.683901 2.12132 2.12132 
C 2.683901 1.55874 3 0.795609 3 0 
C 3 -0.795609 2.683901 -1.55874 2.12132 -2.12132 
C 1.55874 -2.683901 0.795609 -3 0 -3 
C -0.795609 -3 -1.55874 -2.683901 -2.12132 -2.12132 
C -2.683901 -1.55874 -3 -0.795609 -3 0 
C -3 0.795609 -2.683901 1.55874 -2.12132 2.12132 
C -1.55874 2.683901 -0.795609 3 0 3 
z
" id="m9eea9afcba" style="stroke:#7f7f7f;"/>
    </defs>
    <g clip-path="url(#pd81d696d3c)">
     <use style="fill:#7f7f7f;stroke:#7f7f7f;" x="134.386989" xlink:href="#m9eea9afcba" y="288.939904"/>
    </g>
   </g>
   <g id="93A">
    <defs>
     <path d="M 0 3 
C 0.795609 3 1.55874 2.683901 2.12132 2.12132 
C 2.683901 1.55874 3 0.795609 3 0 
C 3 -0.795609 2.683901 -1.55874 2.12132 -2.12132 
C 1.55874 -2.683901 0.795609 -3 0 -3 
C -0.795609 -3 -1.55874 -2.683901 -2.12132 -2.12132 
C -2.683901 -1.55874 -3 -0.795609 -3 0 
C -3 0.795609 -2.683901 1.55874 -2.12132 2.12132 
C -1.55874 2.683901 -0.795609 3 0 3 
z
" id="me57af1abbe" style="stroke:#bcbd22;"/>
    </defs>
    <g clip-path="url(#pd81d696d3c)">
     <use style="fill:#bcbd22;stroke:#bcbd22;" x="315.166267" xlink:href="#me57af1abbe" y="187.525857"/>
    </g>
   </g>
   <g id="144K">
    <defs>
     <path d="M 0 3 
C 0.795609 3 1.55874 2.683901 2.12132 2.12132 
C 2.683901 1.55874 3 0.795609 3 0 
C 3 -0.795609 2.683901 -1.55874 2.12132 -2.12132 
C 1.55874 -2.683901 0.795609 -3 0 -3 
C -0.795609 -3 -1.55874 -2.683901 -2.12132 -2.12132 
C -2.683901 -1.55874 -3 -0.795609 -3 0 
C -3 0.795609 -2.683901 1.55874 -2.12132 2.12132 
C -1.55874 2.683901 -0.795609 3 0 3 
z
" id="m0d7d70c7d5" style="stroke:#17becf;"/>
    </defs>
    <g clip-path="url(#pd81d696d3c)">
     <use style="fill:#17becf;stroke:#17becf;" x="167.688435" xlink:href="#m0d7d70c7d5" y="187.525857"/>
    </g>
   </g>
   <g id="144X">
    <g clip-path="url(#pd81d696d3c)">
     <use style="fill:#1f77b4;stroke:#1f77b4;" x="82.056145" xlink:href="#m7f8418a059" y="187.525857"/>
    </g>
   </g>
   <g id="86A">
    <g clip-path="url(#pd81d696d3c)">
     <use style="fill:#ff7f0e;stroke:#ff7f0e;" x="381.769158" xlink:href="#m0d16496b75" y="149.610833"/>
    </g>
   </g>
   <g id="143A">
    <g clip-path="url(#pd81d696d3c)">
     <use style="fill:#2ca02c;stroke:#2ca02c;" x="386.526508" xlink:href="#m4949ad5512" y="253.206366"/>
    </g>
   </g>
   <g id="144V">
    <g clip-path="url(#pd81d696d3c)">
     <use style="fill:#d62728;stroke:#d62728;" x="82.056145" xlink:href="#m56ab2e70ec" y="187.525857"/>
    </g>
   </g>
   <g id="143G">
    <g clip-path="url(#pd81d696d3c)">
     <use style="fill:#9467bd;stroke:#9467bd;" x="386.526508" xlink:href="#ma603935ebe" y="187.525857"/>
    </g>
   </g>
   <g id="144H">
    <g clip-path="url(#pd81d696d3c)">
     <use style="fill:#8c564b;stroke:#8c564b;" x="158.173736" xlink:href="#m7eaae80ae8" y="187.525857"/>
    </g>
   </g>
   <g id="92A">
    <g clip-path="url(#pd81d696d3c)">
     <use style="fill:#e377c2;stroke:#e377c2;" x="300.894218" xlink:href="#m78010d718f" y="183.263124"/>
    </g>
   </g>
   <g id="144D">
    <g clip-path="url(#pd81d696d3c)">
     <use style="fill:#7f7f7f;stroke:#7f7f7f;" x="172.445784" xlink:href="#m9eea9afcba" y="238.232881"/>
    </g>
   </g>
   <g id="84A">
    <g clip-path="url(#pd81d696d3c)">
     <use style="fill:#bcbd22;stroke:#bcbd22;" x="186.717832" xlink:href="#me57af1abbe" y="187.525857"/>
    </g>
   </g>
   <g id="143E">
    <g clip-path="url(#pd81d696d3c)">
     <use style="fill:#17becf;stroke:#17becf;" x="386.526508" xlink:href="#m0d7d70c7d5" y="210.433501"/>
    </g>
   </g>
   <g id="143F">
    <g clip-path="url(#pd81d696d3c)">
     <use style="fill:#1f77b4;stroke:#1f77b4;" x="386.526508" xlink:href="#m7f8418a059" y="272.713657"/>
    </g>
   </g>
   <g id="144T">
    <g clip-path="url(#pd81d696d3c)">
     <use style="fill:#ff7f0e;stroke:#ff7f0e;" x="82.056145" xlink:href="#m0d16496b75" y="187.525857"/>
    </g>
   </g>
   <g id="81A">
    <g clip-path="url(#pd81d696d3c)">
     <use style="fill:#2ca02c;stroke:#2ca02c;" x="396.041207" xlink:href="#m4949ad5512" y="175.540561"/>
    </g>
   </g>
   <g id="144L">
    <g clip-path="url(#pd81d696d3c)">
     <use style="fill:#d62728;stroke:#d62728;" x="162.931085" xlink:href="#m56ab2e70ec" y="187.525857"/>
    </g>
   </g>
   <g id="91A">
    <g clip-path="url(#pd81d696d3c)">
     <use style="fill:#9467bd;stroke:#9467bd;" x="220.019278" xlink:href="#ma603935ebe" y="187.525857"/>
    </g>
   </g>
   <g id="96A">
    <g clip-path="url(#pd81d696d3c)">
     <use style="fill:#8c564b;stroke:#8c564b;" x="291.37952" xlink:href="#m7eaae80ae8" y="151.0168"/>
    </g>
   </g>
   <g id="144I">
    <g clip-path="url(#pd81d696d3c)">
     <use style="fill:#e377c2;stroke:#e377c2;" x="158.173736" xlink:href="#m78010d718f" y="193.057532"/>
    </g>
   </g>
   <g id="90A">
    <g clip-path="url(#pd81d696d3c)">
     <use style="fill:#7f7f7f;stroke:#7f7f7f;" x="281.864821" xlink:href="#m9eea9afcba" y="187.525857"/>
    </g>
   </g>
   <g id="89A">
    <g clip-path="url(#pd81d696d3c)">
     <use style="fill:#bcbd22;stroke:#bcbd22;" x="353.225062" xlink:href="#me57af1abbe" y="205.780386"/>
    </g>
   </g>
   <g id="144Q">
    <g clip-path="url(#pd81d696d3c)">
     <use style="fill:#17becf;stroke:#17becf;" x="124.87229" xlink:href="#m0d7d70c7d5" y="187.525857"/>
    </g>
   </g>
   <g id="82A">
    <g clip-path="url(#pd81d696d3c)">
     <use style="fill:#1f77b4;stroke:#1f77b4;" x="424.585303" xlink:href="#m7f8418a059" y="172.31375"/>
    </g>
   </g>
   <g id="144P">
    <g clip-path="url(#pd81d696d3c)">
     <use style="fill:#ff7f0e;stroke:#ff7f0e;" x="124.87229" xlink:href="#m0d16496b75" y="187.525857"/>
    </g>
   </g>
   <g id="144R">
    <g clip-path="url(#pd81d696d3c)">
     <use style="fill:#2ca02c;stroke:#2ca02c;" x="124.87229" xlink:href="#m4949ad5512" y="187.525857"/>
    </g>
   </g>
   <g id="85A">
    <g clip-path="url(#pd81d696d3c)">
     <use style="fill:#d62728;stroke:#d62728;" x="372.25446" xlink:href="#m56ab2e70ec" y="97.701987"/>
    </g>
   </g>
   <g id="144W">
    <g clip-path="url(#pd81d696d3c)">
     <use style="fill:#9467bd;stroke:#9467bd;" x="82.056145" xlink:href="#ma603935ebe" y="187.525857"/>
    </g>
   </g>
   <g id="88A">
    <g clip-path="url(#pd81d696d3c)">
     <use style="fill:#8c564b;stroke:#8c564b;" x="367.49711" xlink:href="#m7eaae80ae8" y="167.243048"/>
    </g>
   </g>
   <g id="94A">
    <g clip-path="url(#pd81d696d3c)">
     <use style="fill:#e377c2;stroke:#e377c2;" x="248.563375" xlink:href="#m78010d718f" y="187.525857"/>
    </g>
   </g>
   <g id="144J">
    <g clip-path="url(#pd81d696d3c)">
     <use style="fill:#7f7f7f;stroke:#7f7f7f;" x="167.688435" xlink:href="#m9eea9afcba" y="187.525857"/>
    </g>
   </g>
   <g id="matplotlib.axis_1">
    <g id="xtick_1">
     <g id="line2d_1">
      <defs>
       <path d="M 0 0 
L 0 3.5 
" id="m0c0fab1807" style="stroke:#000000;stroke-width:0.8;"/>
      </defs>
      <g>
       <use style="stroke:#000000;stroke-width:0.8;" x="63.026748" xlink:href="#m0c0fab1807" y="303.64"/>
      </g>
     </g>
     <g id="text_1">
      <text style="font-family:DejaVu Sans;font-size:10px;font-style:normal;font-weight:normal;text-anchor:middle;" transform="rotate(-0, 63.026748, 318.238437)" x="63.026748" y="318.238437">0</text>
     </g>
    </g>
    <g id="xtick_2">
     <g id="line2d_2">
      <g>
       <use style="stroke:#000000;stroke-width:0.8;" x="110.600242" xlink:href="#m0c0fab1807" y="303.64"/>
      </g>
     </g>
     <g id="text_2">
      <text style="font-family:DejaVu Sans;font-size:10px;font-style:normal;font-weight:normal;text-anchor:middle;" transform="rotate(-0, 110.600242, 318.238437)" x="110.600242" y="318.238437">10</text>
     </g>
    </g>
    <g id="xtick_3">
     <g id="line2d_3">
      <g>
       <use style="stroke:#000000;stroke-width:0.8;" x="158.173736" xlink:href="#m0c0fab1807" y="303.64"/>
      </g>
     </g>
     <g id="text_3">
      <text style="font-family:DejaVu Sans;font-size:10px;font-style:normal;font-weight:normal;text-anchor:middle;" transform="rotate(-0, 158.173736, 318.238437)" x="158.173736" y="318.238437">20</text>
     </g>
    </g>
    <g id="xtick_4">
     <g id="line2d_4">
      <g>
       <use style="stroke:#000000;stroke-width:0.8;" x="205.74723" xlink:href="#m0c0fab1807" y="303.64"/>
      </g>
     </g>
     <g id="text_4">
      <text style="font-family:DejaVu Sans;font-size:10px;font-style:normal;font-weight:normal;text-anchor:middle;" transform="rotate(-0, 205.74723, 318.238437)" x="205.74723" y="318.238437">30</text>
     </g>
    </g>
    <g id="xtick_5">
     <g id="line2d_5">
      <g>
       <use style="stroke:#000000;stroke-width:0.8;" x="253.320724" xlink:href="#m0c0fab1807" y="303.64"/>
      </g>
     </g>
     <g id="text_5">
      <text style="font-family:DejaVu Sans;font-size:10px;font-style:normal;font-weight:normal;text-anchor:middle;" transform="rotate(-0, 253.320724, 318.238437)" x="253.320724" y="318.238437">40</text>
     </g>
    </g>
    <g id="xtick_6">
     <g id="line2d_6">
      <g>
       <use style="stroke:#000000;stroke-width:0.8;" x="300.894218" xlink:href="#m0c0fab1807" y="303.64"/>
      </g>
     </g>
     <g id="text_6">
      <text style="font-family:DejaVu Sans;font-size:10px;font-style:normal;font-weight:normal;text-anchor:middle;" transform="rotate(-0, 300.894218, 318.238437)" x="300.894218" y="318.238437">50</text>
     </g>
    </g>
    <g id="xtick_7">
     <g id="line2d_7">
      <g>
       <use style="stroke:#000000;stroke-width:0.8;" x="348.467712" xlink:href="#m0c0fab1807" y="303.64"/>
      </g>
     </g>
     <g id="text_7">
      <text style="font-family:DejaVu Sans;font-size:10px;font-style:normal;font-weight:normal;text-anchor:middle;" transform="rotate(-0, 348.467712, 318.238437)" x="348.467712" y="318.238437">60</text>
     </g>
    </g>
    <g id="xtick_8">
     <g id="line2d_8">
      <g>
       <use style="stroke:#000000;stroke-width:0.8;" x="396.041207" xlink:href="#m0c0fab1807" y="303.64"/>
      </g>
     </g>
     <g id="text_8">
      <text style="font-family:DejaVu Sans;font-size:10px;font-style:normal;font-weight:normal;text-anchor:middle;" transform="rotate(-0, 396.041207, 318.238437)" x="396.041207" y="318.238437">70</text>
     </g>
    </g>
    <g id="xtick_9">
     <g id="line2d_9">
      <g>
       <use style="stroke:#000000;stroke-width:0.8;" x="443.614701" xlink:href="#m0c0fab1807" y="303.64"/>
      </g>
     </g>
     <g id="text_9">
      <text style="font-family:DejaVu Sans;font-size:10px;font-style:normal;font-weight:normal;text-anchor:middle;" transform="rotate(-0, 443.614701, 318.238437)" x="443.614701" y="318.238437">80</text>
     </g>
    </g>
    <g id="text_10">
     <text style="font-family:DejaVu Sans;font-size:10px;font-style:normal;font-weight:normal;text-anchor:middle;" transform="rotate(-0, 253.313511, 331.916562)" x="253.313511" y="331.916562">Amount of languages tested</text>
    </g>
   </g>
   <g id="matplotlib.axis_2">
    <g id="ytick_1">
     <g id="line2d_10">
      <defs>
       <path d="M 0 0 
L -3.5 0 
" id="m1ca95be863" style="stroke:#000000;stroke-width:0.8;"/>
      </defs>
      <g>
       <use style="stroke:#000000;stroke-width:0.8;" x="62.39" xlink:href="#m1ca95be863" y="278.7985"/>
      </g>
     </g>
     <g id="text_11">
      <text style="font-family:DejaVu Sans;font-size:10px;font-style:normal;font-weight:normal;text-anchor:end;" transform="rotate(-0, 55.39, 282.597718)" x="55.39" y="282.597718">−0.10</text>
     </g>
    </g>
    <g id="ytick_2">
     <g id="line2d_11">
      <g>
       <use style="stroke:#000000;stroke-width:0.8;" x="62.39" xlink:href="#m1ca95be863" y="233.162178"/>
      </g>
     </g>
     <g id="text_12">
      <text style="font-family:DejaVu Sans;font-size:10px;font-style:normal;font-weight:normal;text-anchor:end;" transform="rotate(-0, 55.39, 236.961397)" x="55.39" y="236.961397">−0.05</text>
     </g>
    </g>
    <g id="ytick_3">
     <g id="line2d_12">
      <g>
       <use style="stroke:#000000;stroke-width:0.8;" x="62.39" xlink:href="#m1ca95be863" y="187.525857"/>
      </g>
     </g>
     <g id="text_13">
      <text style="font-family:DejaVu Sans;font-size:10px;font-style:normal;font-weight:normal;text-anchor:end;" transform="rotate(-0, 55.39, 191.325076)" x="55.39" y="191.325076">0.00</text>
     </g>
    </g>
    <g id="ytick_4">
     <g id="line2d_13">
      <g>
       <use style="stroke:#000000;stroke-width:0.8;" x="62.39" xlink:href="#m1ca95be863" y="141.889536"/>
      </g>
     </g>
     <g id="text_14">
      <text style="font-family:DejaVu Sans;font-size:10px;font-style:normal;font-weight:normal;text-anchor:end;" transform="rotate(-0, 55.39, 145.688754)" x="55.39" y="145.688754">0.05</text>
     </g>
    </g>
    <g id="ytick_5">
     <g id="line2d_14">
      <g>
       <use style="stroke:#000000;stroke-width:0.8;" x="62.39" xlink:href="#m1ca95be863" y="96.253214"/>
      </g>
     </g>
     <g id="text_15">
      <text style="font-family:DejaVu Sans;font-size:10px;font-style:normal;font-weight:normal;text-anchor:end;" transform="rotate(-0, 55.39, 100.052433)" x="55.39" y="100.052433">0.10</text>
     </g>
    </g>
    <g id="ytick_6">
     <g id="line2d_15">
      <g>
       <use style="stroke:#000000;stroke-width:0.8;" x="62.39" xlink:href="#m1ca95be863" y="50.616893"/>
      </g>
     </g>
     <g id="text_16">
      <text style="font-family:DejaVu Sans;font-size:10px;font-style:normal;font-weight:normal;text-anchor:end;" transform="rotate(-0, 55.39, 54.416112)" x="55.39" y="54.416112">0.15</text>
     </g>
    </g>
    <g id="text_17">
     <text style="font-family:DejaVu Sans;font-size:10px;font-style:normal;font-weight:normal;text-anchor:middle;" transform="rotate(-90, 18.665, 158.48)" x="18.665" y="158.48">Score - base</text>
    </g>
   </g>
   <g id="line2d_16">
    <path clip-path="url(#pd81d696d3c)" d="M 82.056145 200.961596 
L 124.87229 196.270702 
L 134.386989 195.228281 
L 158.173736 192.622229 
L 162.931085 192.101019 
L 167.688435 191.579808 
L 172.445784 191.058598 
L 186.717832 189.494966 
L 210.504579 186.888914 
L 220.019278 185.846493 
L 229.533977 184.804072 
L 248.563375 182.71923 
L 281.864821 179.070757 
L 291.37952 178.028336 
L 300.894218 176.985915 
L 315.166267 175.422284 
L 353.225062 171.2526 
L 357.982411 170.73139 
L 362.739761 170.210179 
L 367.49711 169.688969 
L 372.25446 169.167759 
L 381.769158 168.125338 
L 386.526508 167.604127 
L 396.041207 166.561706 
L 424.585303 163.434443 
" style="fill:none;stroke:#1f77b4;stroke-linecap:square;stroke-width:1.5;"/>
   </g>
   <g id="patch_3">
    <path d="M 62.39 303.64 
L 62.39 13.32 
" style="fill:none;stroke:#000000;stroke-linecap:square;stroke-linejoin:miter;stroke-width:0.8;"/>
   </g>
   <g id="patch_4">
    <path d="M 444.237023 303.64 
L 444.237023 13.32 
" style="fill:none;stroke:#000000;stroke-linecap:square;stroke-linejoin:miter;stroke-width:0.8;"/>
   </g>
   <g id="patch_5">
    <path d="M 62.39 303.64 
L 444.237023 303.64 
" style="fill:none;stroke:#000000;stroke-linecap:square;stroke-linejoin:miter;stroke-width:0.8;"/>
   </g>
   <g id="patch_6">
    <path d="M 62.39 13.32 
L 444.237023 13.32 
" style="fill:none;stroke:#000000;stroke-linecap:square;stroke-linejoin:miter;stroke-width:0.8;"/>
   </g>
  </g>
 </g>
 <defs>
  <clipPath id="pd81d696d3c">
   <rect height="290.32" width="381.847023" x="62.39" y="13.32"/>
  </clipPath>
 </defs>
</svg>
