<?xml version="1.0" encoding="utf-8" standalone="no"?>
<!DOCTYPE svg PUBLIC "-//W3C//DTD SVG 1.1//EN"
  "http://www.w3.org/Graphics/SVG/1.1/DTD/svg11.dtd">
<!-- Created with matplotlib (http://matplotlib.org/) -->
<svg height="345.6pt" version="1.1" viewBox="0 0 460.8 345.6" width="460.8pt" xmlns="http://www.w3.org/2000/svg" xmlns:xlink="http://www.w3.org/1999/xlink">
 <defs>
  <style type="text/css">
*{stroke-linecap:butt;stroke-linejoin:round;}
  </style>
 </defs>
 <g id="figure_1">
  <g id="patch_1">
   <path d="M 0 345.6 
L 460.8 345.6 
L 460.8 0 
L 0 0 
z
" style="fill:#ffffff;"/>
  </g>
  <g id="axes_1">
   <g id="patch_2">
    <path d="M 56.09 303.64 
L 441.648933 303.64 
L 441.648933 13.32 
L 56.09 13.32 
z
" style="fill:#ffffff;"/>
   </g>
   <g id="1A">
    <defs>
     <path d="M 0 3 
C 0.795609 3 1.55874 2.683901 2.12132 2.12132 
C 2.683901 1.55874 3 0.795609 3 0 
C 3 -0.795609 2.683901 -1.55874 2.12132 -2.12132 
C 1.55874 -2.683901 0.795609 -3 0 -3 
C -0.795609 -3 -1.55874 -2.683901 -2.12132 -2.12132 
C -2.683901 -1.55874 -3 -0.795609 -3 0 
C -3 0.795609 -2.683901 1.55874 -2.12132 2.12132 
C -1.55874 2.683901 -0.795609 3 0 3 
z
" id="mbca13a1982" style="stroke:#1f77b4;"/>
    </defs>
    <g clip-path="url(#pabf43b95ee)">
     <use style="fill:#1f77b4;stroke:#1f77b4;" x="217.644291" xlink:href="#mbca13a1982" y="148.648216"/>
    </g>
   </g>
   <g id="2A">
    <defs>
     <path d="M 0 3 
C 0.795609 3 1.55874 2.683901 2.12132 2.12132 
C 2.683901 1.55874 3 0.795609 3 0 
C 3 -0.795609 2.683901 -1.55874 2.12132 -2.12132 
C 1.55874 -2.683901 0.795609 -3 0 -3 
C -0.795609 -3 -1.55874 -2.683901 -2.12132 -2.12132 
C -2.683901 -1.55874 -3 -0.795609 -3 0 
C -3 0.795609 -2.683901 1.55874 -2.12132 2.12132 
C -1.55874 2.683901 -0.795609 3 0 3 
z
" id="m33abd0ef48" style="stroke:#ff7f0e;"/>
    </defs>
    <g clip-path="url(#pabf43b95ee)">
     <use style="fill:#ff7f0e;stroke:#ff7f0e;" x="218.576585" xlink:href="#m33abd0ef48" y="182.24374"/>
    </g>
   </g>
   <g id="3A">
    <defs>
     <path d="M 0 3 
C 0.795609 3 1.55874 2.683901 2.12132 2.12132 
C 2.683901 1.55874 3 0.795609 3 0 
C 3 -0.795609 2.683901 -1.55874 2.12132 -2.12132 
C 1.55874 -2.683901 0.795609 -3 0 -3 
C -0.795609 -3 -1.55874 -2.683901 -2.12132 -2.12132 
C -2.683901 -1.55874 -3 -0.795609 -3 0 
C -3 0.795609 -2.683901 1.55874 -2.12132 2.12132 
C -1.55874 2.683901 -0.795609 3 0 3 
z
" id="me75621a907" style="stroke:#2ca02c;"/>
    </defs>
    <g clip-path="url(#pabf43b95ee)">
     <use style="fill:#2ca02c;stroke:#2ca02c;" x="218.576585" xlink:href="#me75621a907" y="240.9289"/>
    </g>
   </g>
   <g id="4A">
    <defs>
     <path d="M 0 3 
C 0.795609 3 1.55874 2.683901 2.12132 2.12132 
C 2.683901 1.55874 3 0.795609 3 0 
C 3 -0.795609 2.683901 -1.55874 2.12132 -2.12132 
C 1.55874 -2.683901 0.795609 -3 0 -3 
C -0.795609 -3 -1.55874 -2.683901 -2.12132 -2.12132 
C -2.683901 -1.55874 -3 -0.795609 -3 0 
C -3 0.795609 -2.683901 1.55874 -2.12132 2.12132 
C -1.55874 2.683901 -0.795609 3 0 3 
z
" id="m8281dc2882" style="stroke:#d62728;"/>
    </defs>
    <g clip-path="url(#pabf43b95ee)">
     <use style="fill:#d62728;stroke:#d62728;" x="218.576585" xlink:href="#m8281dc2882" y="223.223089"/>
    </g>
   </g>
   <g id="5A">
    <defs>
     <path d="M 0 3 
C 0.795609 3 1.55874 2.683901 2.12132 2.12132 
C 2.683901 1.55874 3 0.795609 3 0 
C 3 -0.795609 2.683901 -1.55874 2.12132 -2.12132 
C 1.55874 -2.683901 0.795609 -3 0 -3 
C -0.795609 -3 -1.55874 -2.683901 -2.12132 -2.12132 
C -2.683901 -1.55874 -3 -0.795609 -3 0 
C -3 0.795609 -2.683901 1.55874 -2.12132 2.12132 
C -1.55874 2.683901 -0.795609 3 0 3 
z
" id="m9f4cb3fae7" style="stroke:#9467bd;"/>
    </defs>
    <g clip-path="url(#pabf43b95ee)">
     <use style="fill:#9467bd;stroke:#9467bd;" x="218.576585" xlink:href="#m9f4cb3fae7" y="83.231184"/>
    </g>
   </g>
   <g id="6A">
    <defs>
     <path d="M 0 3 
C 0.795609 3 1.55874 2.683901 2.12132 2.12132 
C 2.683901 1.55874 3 0.795609 3 0 
C 3 -0.795609 2.683901 -1.55874 2.12132 -2.12132 
C 1.55874 -2.683901 0.795609 -3 0 -3 
C -0.795609 -3 -1.55874 -2.683901 -2.12132 -2.12132 
C -2.683901 -1.55874 -3 -0.795609 -3 0 
C -3 0.795609 -2.683901 1.55874 -2.12132 2.12132 
C -1.55874 2.683901 -0.795609 3 0 3 
z
" id="ma4938efdfd" style="stroke:#8c564b;"/>
    </defs>
    <g clip-path="url(#pabf43b95ee)">
     <use style="fill:#8c564b;stroke:#8c564b;" x="218.576585" xlink:href="#ma4938efdfd" y="182.281329"/>
    </g>
   </g>
   <g id="7A">
    <defs>
     <path d="M 0 3 
C 0.795609 3 1.55874 2.683901 2.12132 2.12132 
C 2.683901 1.55874 3 0.795609 3 0 
C 3 -0.795609 2.683901 -1.55874 2.12132 -2.12132 
C 1.55874 -2.683901 0.795609 -3 0 -3 
C -0.795609 -3 -1.55874 -2.683901 -2.12132 -2.12132 
C -2.683901 -1.55874 -3 -0.795609 -3 0 
C -3 0.795609 -2.683901 1.55874 -2.12132 2.12132 
C -1.55874 2.683901 -0.795609 3 0 3 
z
" id="m8edddd6db3" style="stroke:#e377c2;"/>
    </defs>
    <g clip-path="url(#pabf43b95ee)">
     <use style="fill:#e377c2;stroke:#e377c2;" x="218.576585" xlink:href="#m8edddd6db3" y="182.281329"/>
    </g>
   </g>
   <g id="8A">
    <defs>
     <path d="M 0 3 
C 0.795609 3 1.55874 2.683901 2.12132 2.12132 
C 2.683901 1.55874 3 0.795609 3 0 
C 3 -0.795609 2.683901 -1.55874 2.12132 -2.12132 
C 1.55874 -2.683901 0.795609 -3 0 -3 
C -0.795609 -3 -1.55874 -2.683901 -2.12132 -2.12132 
C -2.683901 -1.55874 -3 -0.795609 -3 0 
C -3 0.795609 -2.683901 1.55874 -2.12132 2.12132 
C -1.55874 2.683901 -0.795609 3 0 3 
z
" id="m41ac1adf9e" style="stroke:#7f7f7f;"/>
    </defs>
    <g clip-path="url(#pabf43b95ee)">
     <use style="fill:#7f7f7f;stroke:#7f7f7f;" x="218.576585" xlink:href="#m41ac1adf9e" y="180.428736"/>
    </g>
   </g>
   <g id="9A">
    <defs>
     <path d="M 0 3 
C 0.795609 3 1.55874 2.683901 2.12132 2.12132 
C 2.683901 1.55874 3 0.795609 3 0 
C 3 -0.795609 2.683901 -1.55874 2.12132 -2.12132 
C 1.55874 -2.683901 0.795609 -3 0 -3 
C -0.795609 -3 -1.55874 -2.683901 -2.12132 -2.12132 
C -2.683901 -1.55874 -3 -0.795609 -3 0 
C -3 0.795609 -2.683901 1.55874 -2.12132 2.12132 
C -1.55874 2.683901 -0.795609 3 0 3 
z
" id="m7c4547c57c" style="stroke:#bcbd22;"/>
    </defs>
    <g clip-path="url(#pabf43b95ee)">
     <use style="fill:#bcbd22;stroke:#bcbd22;" x="174.758781" xlink:href="#m7c4547c57c" y="182.194148"/>
    </g>
   </g>
   <g id="10A">
    <defs>
     <path d="M 0 3 
C 0.795609 3 1.55874 2.683901 2.12132 2.12132 
C 2.683901 1.55874 3 0.795609 3 0 
C 3 -0.795609 2.683901 -1.55874 2.12132 -2.12132 
C 1.55874 -2.683901 0.795609 -3 0 -3 
C -0.795609 -3 -1.55874 -2.683901 -2.12132 -2.12132 
C -2.683901 -1.55874 -3 -0.795609 -3 0 
C -3 0.795609 -2.683901 1.55874 -2.12132 2.12132 
C -1.55874 2.683901 -0.795609 3 0 3 
z
" id="m81dc817c73" style="stroke:#17becf;"/>
    </defs>
    <g clip-path="url(#pabf43b95ee)">
     <use style="fill:#17becf;stroke:#17becf;" x="136.534739" xlink:href="#m81dc817c73" y="189.734044"/>
    </g>
   </g>
   <g id="11A">
    <g clip-path="url(#pabf43b95ee)">
     <use style="fill:#1f77b4;stroke:#1f77b4;" x="217.644291" xlink:href="#mbca13a1982" y="182.281329"/>
    </g>
   </g>
   <g id="12A">
    <g clip-path="url(#pabf43b95ee)">
     <use style="fill:#ff7f0e;stroke:#ff7f0e;" x="193.404655" xlink:href="#m33abd0ef48" y="174.27159"/>
    </g>
   </g>
   <g id="13A">
    <g clip-path="url(#pabf43b95ee)">
     <use style="fill:#2ca02c;stroke:#2ca02c;" x="200.863004" xlink:href="#me75621a907" y="182.281329"/>
    </g>
   </g>
   <g id="14A">
    <g clip-path="url(#pabf43b95ee)">
     <use style="fill:#d62728;stroke:#d62728;" x="210.185942" xlink:href="#m8281dc2882" y="154.944811"/>
    </g>
   </g>
   <g id="15A">
    <g clip-path="url(#pabf43b95ee)">
     <use style="fill:#9467bd;stroke:#9467bd;" x="210.185942" xlink:href="#m9f4cb3fae7" y="199.463217"/>
    </g>
   </g>
   <g id="16A">
    <g clip-path="url(#pabf43b95ee)">
     <use style="fill:#8c564b;stroke:#8c564b;" x="210.185942" xlink:href="#ma4938efdfd" y="207.3216"/>
    </g>
   </g>
   <g id="17A">
    <g clip-path="url(#pabf43b95ee)">
     <use style="fill:#e377c2;stroke:#e377c2;" x="147.722263" xlink:href="#m8edddd6db3" y="188.319408"/>
    </g>
   </g>
   <g id="18A">
    <g clip-path="url(#pabf43b95ee)">
     <use style="fill:#7f7f7f;stroke:#7f7f7f;" x="218.576585" xlink:href="#m41ac1adf9e" y="182.281329"/>
    </g>
   </g>
   <g id="19A">
    <g clip-path="url(#pabf43b95ee)">
     <use style="fill:#bcbd22;stroke:#bcbd22;" x="218.576585" xlink:href="#m7c4547c57c" y="182.281329"/>
    </g>
   </g>
   <g id="10B">
    <g clip-path="url(#pabf43b95ee)">
     <use style="fill:#17becf;stroke:#17becf;" x="75.935648" xlink:href="#m81dc817c73" y="73.595894"/>
    </g>
   </g>
   <g id="20A">
    <g clip-path="url(#pabf43b95ee)">
     <use style="fill:#1f77b4;stroke:#1f77b4;" x="112.295102" xlink:href="#mbca13a1982" y="182.281329"/>
    </g>
   </g>
   <g id="21A">
    <g clip-path="url(#pabf43b95ee)">
     <use style="fill:#ff7f0e;stroke:#ff7f0e;" x="111.362808" xlink:href="#m33abd0ef48" y="208.439937"/>
    </g>
   </g>
   <g id="22A">
    <g clip-path="url(#pabf43b95ee)">
     <use style="fill:#2ca02c;stroke:#2ca02c;" x="109.498221" xlink:href="#me75621a907" y="198.584144"/>
    </g>
   </g>
   <g id="23A">
    <g clip-path="url(#pabf43b95ee)">
     <use style="fill:#d62728;stroke:#d62728;" x="130.008683" xlink:href="#m8281dc2882" y="224.348414"/>
    </g>
   </g>
   <g id="24A">
    <g clip-path="url(#pabf43b95ee)">
     <use style="fill:#9467bd;stroke:#9467bd;" x="130.008683" xlink:href="#m9f4cb3fae7" y="68.889426"/>
    </g>
   </g>
   <g id="25A">
    <g clip-path="url(#pabf43b95ee)">
     <use style="fill:#8c564b;stroke:#8c564b;" x="130.008683" xlink:href="#ma4938efdfd" y="204.115456"/>
    </g>
   </g>
   <g id="26A">
    <g clip-path="url(#pabf43b95ee)">
     <use style="fill:#e377c2;stroke:#e377c2;" x="316.467424" xlink:href="#m8edddd6db3" y="195.76292"/>
    </g>
   </g>
   <g id="27A">
    <g clip-path="url(#pabf43b95ee)">
     <use style="fill:#7f7f7f;stroke:#7f7f7f;" x="171.029606" xlink:href="#m41ac1adf9e" y="162.617845"/>
    </g>
   </g>
   <g id="28A">
    <g clip-path="url(#pabf43b95ee)">
     <use style="fill:#bcbd22;stroke:#bcbd22;" x="127.211801" xlink:href="#m7c4547c57c" y="182.281329"/>
    </g>
   </g>
   <g id="29A">
    <g clip-path="url(#pabf43b95ee)">
     <use style="fill:#17becf;stroke:#17becf;" x="126.279508" xlink:href="#m81dc817c73" y="144.932654"/>
    </g>
   </g>
   <g id="25B">
    <g clip-path="url(#pabf43b95ee)">
     <use style="fill:#1f77b4;stroke:#1f77b4;" x="130.008683" xlink:href="#mbca13a1982" y="182.281329"/>
    </g>
   </g>
   <g id="21B">
    <g clip-path="url(#pabf43b95ee)">
     <use style="fill:#ff7f0e;stroke:#ff7f0e;" x="111.362808" xlink:href="#m33abd0ef48" y="182.281329"/>
    </g>
   </g>
   <g id="30A">
    <g clip-path="url(#pabf43b95ee)">
     <use style="fill:#2ca02c;stroke:#2ca02c;" x="132.805564" xlink:href="#me75621a907" y="175.888068"/>
    </g>
   </g>
   <g id="31A">
    <g clip-path="url(#pabf43b95ee)">
     <use style="fill:#d62728;stroke:#d62728;" x="132.805564" xlink:href="#m8281dc2882" y="159.868383"/>
    </g>
   </g>
   <g id="32A">
    <g clip-path="url(#pabf43b95ee)">
     <use style="fill:#9467bd;stroke:#9467bd;" x="132.805564" xlink:href="#m9f4cb3fae7" y="174.161887"/>
    </g>
   </g>
   <g id="33A">
    <g clip-path="url(#pabf43b95ee)">
     <use style="fill:#8c564b;stroke:#8c564b;" x="332.316417" xlink:href="#ma4938efdfd" y="199.869022"/>
    </g>
   </g>
   <g id="34A">
    <g clip-path="url(#pabf43b95ee)">
     <use style="fill:#e377c2;stroke:#e377c2;" x="140.263913" xlink:href="#m8edddd6db3" y="170.241845"/>
    </g>
   </g>
   <g id="35A">
    <g clip-path="url(#pabf43b95ee)">
     <use style="fill:#7f7f7f;stroke:#7f7f7f;" x="139.33162" xlink:href="#m41ac1adf9e" y="182.281329"/>
    </g>
   </g>
   <g id="36A">
    <g clip-path="url(#pabf43b95ee)">
     <use style="fill:#bcbd22;stroke:#bcbd22;" x="138.399326" xlink:href="#m7c4547c57c" y="178.205625"/>
    </g>
   </g>
   <g id="37A">
    <g clip-path="url(#pabf43b95ee)">
     <use style="fill:#17becf;stroke:#17becf;" x="242.816221" xlink:href="#m81dc817c73" y="205.032482"/>
    </g>
   </g>
   <g id="38A">
    <g clip-path="url(#pabf43b95ee)">
     <use style="fill:#1f77b4;stroke:#1f77b4;" x="226.967228" xlink:href="#mbca13a1982" y="222.255005"/>
    </g>
   </g>
   <g id="39A">
    <g clip-path="url(#pabf43b95ee)">
     <use style="fill:#ff7f0e;stroke:#ff7f0e;" x="126.279508" xlink:href="#m33abd0ef48" y="175.294408"/>
    </g>
   </g>
   <g id="40A">
    <g clip-path="url(#pabf43b95ee)">
     <use style="fill:#2ca02c;stroke:#2ca02c;" x="126.279508" xlink:href="#me75621a907" y="258.08494"/>
    </g>
   </g>
   <g id="41A">
    <g clip-path="url(#pabf43b95ee)">
     <use style="fill:#d62728;stroke:#d62728;" x="128.144095" xlink:href="#m8281dc2882" y="102.453021"/>
    </g>
   </g>
   <g id="42A">
    <g clip-path="url(#pabf43b95ee)">
     <use style="fill:#9467bd;stroke:#9467bd;" x="123.482627" xlink:href="#m9f4cb3fae7" y="182.281329"/>
    </g>
   </g>
   <g id="43A">
    <g clip-path="url(#pabf43b95ee)">
     <use style="fill:#8c564b;stroke:#8c564b;" x="130.008683" xlink:href="#ma4938efdfd" y="206.463838"/>
    </g>
   </g>
   <g id="44A">
    <g clip-path="url(#pabf43b95ee)">
     <use style="fill:#e377c2;stroke:#e377c2;" x="179.420249" xlink:href="#m8edddd6db3" y="178.205625"/>
    </g>
   </g>
   <g id="45A">
    <g clip-path="url(#pabf43b95ee)">
     <use style="fill:#7f7f7f;stroke:#7f7f7f;" x="140.263913" xlink:href="#m41ac1adf9e" y="244.969535"/>
    </g>
   </g>
   <g id="46A">
    <g clip-path="url(#pabf43b95ee)">
     <use style="fill:#bcbd22;stroke:#bcbd22;" x="145.857676" xlink:href="#m7c4547c57c" y="61.448406"/>
    </g>
   </g>
   <g id="47A">
    <g clip-path="url(#pabf43b95ee)">
     <use style="fill:#17becf;stroke:#17becf;" x="127.211801" xlink:href="#m81dc817c73" y="96.158979"/>
    </g>
   </g>
   <g id="48A">
    <g clip-path="url(#pabf43b95ee)">
     <use style="fill:#1f77b4;stroke:#1f77b4;" x="181.284837" xlink:href="#mbca13a1982" y="182.281329"/>
    </g>
   </g>
   <g id="49A">
    <g clip-path="url(#pabf43b95ee)">
     <use style="fill:#ff7f0e;stroke:#ff7f0e;" x="148.654557" xlink:href="#m33abd0ef48" y="178.658481"/>
    </g>
   </g>
   <g id="50A">
    <g clip-path="url(#pabf43b95ee)">
     <use style="fill:#2ca02c;stroke:#2ca02c;" x="148.654557" xlink:href="#me75621a907" y="162.891642"/>
    </g>
   </g>
   <g id="51A">
    <g clip-path="url(#pabf43b95ee)">
     <use style="fill:#d62728;stroke:#d62728;" x="309.941368" xlink:href="#m8281dc2882" y="114.240156"/>
    </g>
   </g>
   <g id="52A">
    <g clip-path="url(#pabf43b95ee)">
     <use style="fill:#9467bd;stroke:#9467bd;" x="157.0452" xlink:href="#m9f4cb3fae7" y="201.08356"/>
    </g>
   </g>
   <g id="53A">
    <g clip-path="url(#pabf43b95ee)">
     <use style="fill:#8c564b;stroke:#8c564b;" x="171.029606" xlink:href="#ma4938efdfd" y="177.039998"/>
    </g>
   </g>
   <g id="54A">
    <g clip-path="url(#pabf43b95ee)">
     <use style="fill:#e377c2;stroke:#e377c2;" x="129.076389" xlink:href="#m8edddd6db3" y="270.460504"/>
    </g>
   </g>
   <g id="55A">
    <g clip-path="url(#pabf43b95ee)">
     <use style="fill:#7f7f7f;stroke:#7f7f7f;" x="162.638962" xlink:href="#m41ac1adf9e" y="190.419036"/>
    </g>
   </g>
   <g id="56A">
    <g clip-path="url(#pabf43b95ee)">
     <use style="fill:#bcbd22;stroke:#bcbd22;" x="98.310697" xlink:href="#m7c4547c57c" y="28.413806"/>
    </g>
   </g>
   <g id="57A">
    <g clip-path="url(#pabf43b95ee)">
     <use style="fill:#17becf;stroke:#17becf;" x="297.82155" xlink:href="#m81dc817c73" y="96.153424"/>
    </g>
   </g>
   <g id="58A">
    <g clip-path="url(#pabf43b95ee)">
     <use style="fill:#1f77b4;stroke:#1f77b4;" x="127.211801" xlink:href="#mbca13a1982" y="182.281329"/>
    </g>
   </g>
   <g id="59A">
    <g clip-path="url(#pabf43b95ee)">
     <use style="fill:#ff7f0e;stroke:#ff7f0e;" x="127.211801" xlink:href="#m33abd0ef48" y="182.281329"/>
    </g>
   </g>
   <g id="60A">
    <g clip-path="url(#pabf43b95ee)">
     <use style="fill:#2ca02c;stroke:#2ca02c;" x="105.769046" xlink:href="#me75621a907" y="190.432736"/>
    </g>
   </g>
   <g id="61A">
    <g clip-path="url(#pabf43b95ee)">
     <use style="fill:#d62728;stroke:#d62728;" x="107.633634" xlink:href="#m8281dc2882" y="182.281329"/>
    </g>
   </g>
   <g id="62A">
    <g clip-path="url(#pabf43b95ee)">
     <use style="fill:#9467bd;stroke:#9467bd;" x="120.685746" xlink:href="#m9f4cb3fae7" y="67.449087"/>
    </g>
   </g>
   <g id="63A">
    <g clip-path="url(#pabf43b95ee)">
     <use style="fill:#8c564b;stroke:#8c564b;" x="144.925382" xlink:href="#ma4938efdfd" y="203.596599"/>
    </g>
   </g>
   <g id="64A">
    <g clip-path="url(#pabf43b95ee)">
     <use style="fill:#e377c2;stroke:#e377c2;" x="149.58685" xlink:href="#m8edddd6db3" y="182.281329"/>
    </g>
   </g>
   <g id="58B">
    <g clip-path="url(#pabf43b95ee)">
     <use style="fill:#7f7f7f;stroke:#7f7f7f;" x="126.279508" xlink:href="#m41ac1adf9e" y="182.281329"/>
    </g>
   </g>
   <g id="65A">
    <g clip-path="url(#pabf43b95ee)">
     <use style="fill:#bcbd22;stroke:#bcbd22;" x="143.060795" xlink:href="#m7c4547c57c" y="145.635746"/>
    </g>
   </g>
   <g id="66A">
    <g clip-path="url(#pabf43b95ee)">
     <use style="fill:#17becf;stroke:#17becf;" x="143.060795" xlink:href="#m81dc817c73" y="188.007623"/>
    </g>
   </g>
   <g id="67A">
    <g clip-path="url(#pabf43b95ee)">
     <use style="fill:#1f77b4;stroke:#1f77b4;" x="143.060795" xlink:href="#mbca13a1982" y="251.654818"/>
    </g>
   </g>
   <g id="68A">
    <g clip-path="url(#pabf43b95ee)">
     <use style="fill:#ff7f0e;stroke:#ff7f0e;" x="143.060795" xlink:href="#m33abd0ef48" y="242.817517"/>
    </g>
   </g>
   <g id="69A">
    <g clip-path="url(#pabf43b95ee)">
     <use style="fill:#2ca02c;stroke:#2ca02c;" x="349.097704" xlink:href="#me75621a907" y="186.82221"/>
    </g>
   </g>
   <g id="70A">
    <g clip-path="url(#pabf43b95ee)">
     <use style="fill:#d62728;stroke:#d62728;" x="212.050529" xlink:href="#m8281dc2882" y="200.783896"/>
    </g>
   </g>
   <g id="71A">
    <g clip-path="url(#pabf43b95ee)">
     <use style="fill:#9467bd;stroke:#9467bd;" x="196.201536" xlink:href="#m9f4cb3fae7" y="159.018134"/>
    </g>
   </g>
   <g id="72A">
    <g clip-path="url(#pabf43b95ee)">
     <use style="fill:#8c564b;stroke:#8c564b;" x="185.946305" xlink:href="#ma4938efdfd" y="213.427628"/>
    </g>
   </g>
   <g id="73A">
    <g clip-path="url(#pabf43b95ee)">
     <use style="fill:#e377c2;stroke:#e377c2;" x="155.180613" xlink:href="#m8edddd6db3" y="182.281329"/>
    </g>
   </g>
   <g id="74A">
    <g clip-path="url(#pabf43b95ee)">
     <use style="fill:#7f7f7f;stroke:#7f7f7f;" x="145.857676" xlink:href="#m41ac1adf9e" y="222.630796"/>
    </g>
   </g>
   <g id="75A">
    <g clip-path="url(#pabf43b95ee)">
     <use style="fill:#bcbd22;stroke:#bcbd22;" x="143.993088" xlink:href="#m7c4547c57c" y="56.879639"/>
    </g>
   </g>
   <g id="76A">
    <g clip-path="url(#pabf43b95ee)">
     <use style="fill:#17becf;stroke:#17becf;" x="137.467032" xlink:href="#m81dc817c73" y="45.357089"/>
    </g>
   </g>
   <g id="77A">
    <g clip-path="url(#pabf43b95ee)">
     <use style="fill:#1f77b4;stroke:#1f77b4;" x="183.149424" xlink:href="#mbca13a1982" y="162.043513"/>
    </g>
   </g>
   <g id="78A">
    <g clip-path="url(#pabf43b95ee)">
     <use style="fill:#ff7f0e;stroke:#ff7f0e;" x="183.149424" xlink:href="#m33abd0ef48" y="200.96728"/>
    </g>
   </g>
   <g id="79A">
    <g clip-path="url(#pabf43b95ee)">
     <use style="fill:#2ca02c;stroke:#2ca02c;" x="127.211801" xlink:href="#me75621a907" y="188.802455"/>
    </g>
   </g>
   <g id="80A">
    <g clip-path="url(#pabf43b95ee)">
     <use style="fill:#d62728;stroke:#d62728;" x="127.211801" xlink:href="#m8281dc2882" y="182.281329"/>
    </g>
   </g>
   <g id="79B">
    <g clip-path="url(#pabf43b95ee)">
     <use style="fill:#9467bd;stroke:#9467bd;" x="127.211801" xlink:href="#m9f4cb3fae7" y="188.802455"/>
    </g>
   </g>
   <g id="81A">
    <g clip-path="url(#pabf43b95ee)">
     <use style="fill:#8c564b;stroke:#8c564b;" x="399.441564" xlink:href="#ma4938efdfd" y="188.8541"/>
    </g>
   </g>
   <g id="82A">
    <g clip-path="url(#pabf43b95ee)">
     <use style="fill:#e377c2;stroke:#e377c2;" x="419.952026" xlink:href="#m8edddd6db3" y="188.115179"/>
    </g>
   </g>
   <g id="83A">
    <g clip-path="url(#pabf43b95ee)">
     <use style="fill:#7f7f7f;stroke:#7f7f7f;" x="421.816613" xlink:href="#m41ac1adf9e" y="147.775463"/>
    </g>
   </g>
   <g id="84A">
    <g clip-path="url(#pabf43b95ee)">
     <use style="fill:#bcbd22;stroke:#bcbd22;" x="207.38906" xlink:href="#m7c4547c57c" y="181.796126"/>
    </g>
   </g>
   <g id="85A">
    <g clip-path="url(#pabf43b95ee)">
     <use style="fill:#17becf;stroke:#17becf;" x="369.608166" xlink:href="#m81dc817c73" y="143.409091"/>
    </g>
   </g>
   <g id="86A">
    <g clip-path="url(#pabf43b95ee)">
     <use style="fill:#1f77b4;stroke:#1f77b4;" x="385.457159" xlink:href="#mbca13a1982" y="116.296315"/>
    </g>
   </g>
   <g id="87A">
    <g clip-path="url(#pabf43b95ee)">
     <use style="fill:#ff7f0e;stroke:#ff7f0e;" x="393.847802" xlink:href="#m33abd0ef48" y="176.410299"/>
    </g>
   </g>
   <g id="88A">
    <g clip-path="url(#pabf43b95ee)">
     <use style="fill:#2ca02c;stroke:#2ca02c;" x="365.878991" xlink:href="#me75621a907" y="120.381636"/>
    </g>
   </g>
   <g id="89A">
    <g clip-path="url(#pabf43b95ee)">
     <use style="fill:#d62728;stroke:#d62728;" x="352.826879" xlink:href="#m8281dc2882" y="116.181193"/>
    </g>
   </g>
   <g id="90A">
    <g clip-path="url(#pabf43b95ee)">
     <use style="fill:#9467bd;stroke:#9467bd;" x="287.566319" xlink:href="#m9f4cb3fae7" y="182.281329"/>
    </g>
   </g>
   <g id="91A">
    <g clip-path="url(#pabf43b95ee)">
     <use style="fill:#8c564b;stroke:#8c564b;" x="226.034935" xlink:href="#ma4938efdfd" y="144.965996"/>
    </g>
   </g>
   <g id="92A">
    <g clip-path="url(#pabf43b95ee)">
     <use style="fill:#e377c2;stroke:#e377c2;" x="298.753844" xlink:href="#m8edddd6db3" y="189.229722"/>
    </g>
   </g>
   <g id="93A">
    <g clip-path="url(#pabf43b95ee)">
     <use style="fill:#7f7f7f;stroke:#7f7f7f;" x="309.941368" xlink:href="#m41ac1adf9e" y="107.842161"/>
    </g>
   </g>
   <g id="94A">
    <g clip-path="url(#pabf43b95ee)">
     <use style="fill:#bcbd22;stroke:#bcbd22;" x="253.071452" xlink:href="#m7c4547c57c" y="178.522283"/>
    </g>
   </g>
   <g id="95A">
    <g clip-path="url(#pabf43b95ee)">
     <use style="fill:#17becf;stroke:#17becf;" x="361.217522" xlink:href="#m81dc817c73" y="143.277343"/>
    </g>
   </g>
   <g id="96A">
    <g clip-path="url(#pabf43b95ee)">
     <use style="fill:#1f77b4;stroke:#1f77b4;" x="293.160082" xlink:href="#mbca13a1982" y="180.340517"/>
    </g>
   </g>
   <g id="97A">
    <g clip-path="url(#pabf43b95ee)">
     <use style="fill:#ff7f0e;stroke:#ff7f0e;" x="385.457159" xlink:href="#m33abd0ef48" y="177.175662"/>
    </g>
   </g>
   <g id="143F">
    <g clip-path="url(#pabf43b95ee)">
     <use style="fill:#2ca02c;stroke:#2ca02c;" x="386.389452" xlink:href="#me75621a907" y="182.920423"/>
    </g>
   </g>
   <g id="90B">
    <g clip-path="url(#pabf43b95ee)">
     <use style="fill:#d62728;stroke:#d62728;" x="104.836752" xlink:href="#m8281dc2882" y="182.281329"/>
    </g>
   </g>
   <g id="90C">
    <g clip-path="url(#pabf43b95ee)">
     <use style="fill:#9467bd;stroke:#9467bd;" x="249.342277" xlink:href="#m9f4cb3fae7" y="182.281329"/>
    </g>
   </g>
   <g id="144P">
    <g clip-path="url(#pabf43b95ee)">
     <use style="fill:#8c564b;stroke:#8c564b;" x="161.706669" xlink:href="#ma4938efdfd" y="182.281329"/>
    </g>
   </g>
   <g id="144J">
    <g clip-path="url(#pabf43b95ee)">
     <use style="fill:#e377c2;stroke:#e377c2;" x="190.607774" xlink:href="#m8edddd6db3" y="186.357032"/>
    </g>
   </g>
   <g id="144S">
    <g clip-path="url(#pabf43b95ee)">
     <use style="fill:#7f7f7f;stroke:#7f7f7f;" x="182.21713" xlink:href="#m41ac1adf9e" y="256.022124"/>
    </g>
   </g>
   <g id="144X">
    <g clip-path="url(#pabf43b95ee)">
     <use style="fill:#bcbd22;stroke:#bcbd22;" x="116.024277" xlink:href="#m7c4547c57c" y="182.281329"/>
    </g>
   </g>
   <g id="144A">
    <g clip-path="url(#pabf43b95ee)">
     <use style="fill:#17becf;stroke:#17becf;" x="358.420641" xlink:href="#m81dc817c73" y="195.010822"/>
    </g>
   </g>
   <g id="144V">
    <g clip-path="url(#pabf43b95ee)">
     <use style="fill:#1f77b4;stroke:#1f77b4;" x="116.024277" xlink:href="#mbca13a1982" y="182.281329"/>
    </g>
   </g>
   <g id="144I">
    <g clip-path="url(#pabf43b95ee)">
     <use style="fill:#ff7f0e;stroke:#ff7f0e;" x="180.352543" xlink:href="#m33abd0ef48" y="198.185124"/>
    </g>
   </g>
   <g id="144R">
    <g clip-path="url(#pabf43b95ee)">
     <use style="fill:#2ca02c;stroke:#2ca02c;" x="161.706669" xlink:href="#me75621a907" y="199.307184"/>
    </g>
   </g>
   <g id="143B">
    <g clip-path="url(#pabf43b95ee)">
     <use style="fill:#d62728;stroke:#d62728;" x="89.920053" xlink:href="#m8281dc2882" y="288.249627"/>
    </g>
   </g>
   <g id="144K">
    <g clip-path="url(#pabf43b95ee)">
     <use style="fill:#9467bd;stroke:#9467bd;" x="190.607774" xlink:href="#m9f4cb3fae7" y="182.281329"/>
    </g>
   </g>
   <g id="144B">
    <g clip-path="url(#pabf43b95ee)">
     <use style="fill:#8c564b;stroke:#8c564b;" x="222.30576" xlink:href="#ma4938efdfd" y="184.789454"/>
    </g>
   </g>
   <g id="144F">
    <g clip-path="url(#pabf43b95ee)">
     <use style="fill:#e377c2;stroke:#e377c2;" x="75.935648" xlink:href="#m8edddd6db3" y="155.10997"/>
    </g>
   </g>
   <g id="144E">
    <g clip-path="url(#pabf43b95ee)">
     <use style="fill:#7f7f7f;stroke:#7f7f7f;" x="84.326291" xlink:href="#m41ac1adf9e" y="182.281329"/>
    </g>
   </g>
   <g id="144D">
    <g clip-path="url(#pabf43b95ee)">
     <use style="fill:#bcbd22;stroke:#bcbd22;" x="192.472361" xlink:href="#m7c4547c57c" y="188.240289"/>
    </g>
   </g>
   <g id="81B">
    <g clip-path="url(#pabf43b95ee)">
     <use style="fill:#17becf;stroke:#17becf;" x="82.461704" xlink:href="#m81dc817c73" y="182.281329"/>
    </g>
   </g>
   <g id="143E">
    <g clip-path="url(#pabf43b95ee)">
     <use style="fill:#1f77b4;stroke:#1f77b4;" x="386.389452" xlink:href="#mbca13a1982" y="186.798857"/>
    </g>
   </g>
   <g id="143C">
    <g clip-path="url(#pabf43b95ee)">
     <use style="fill:#ff7f0e;stroke:#ff7f0e;" x="82.461704" xlink:href="#m33abd0ef48" y="149.675698"/>
    </g>
   </g>
   <g id="143A">
    <g clip-path="url(#pabf43b95ee)">
     <use style="fill:#2ca02c;stroke:#2ca02c;" x="386.389452" xlink:href="#me75621a907" y="173.066942"/>
    </g>
   </g>
   <g id="144W">
    <g clip-path="url(#pabf43b95ee)">
     <use style="fill:#d62728;stroke:#d62728;" x="116.024277" xlink:href="#m8281dc2882" y="182.281329"/>
    </g>
   </g>
   <g id="144Q">
    <g clip-path="url(#pabf43b95ee)">
     <use style="fill:#9467bd;stroke:#9467bd;" x="161.706669" xlink:href="#m9f4cb3fae7" y="182.281329"/>
    </g>
   </g>
   <g id="144L">
    <g clip-path="url(#pabf43b95ee)">
     <use style="fill:#8c564b;stroke:#8c564b;" x="191.540067" xlink:href="#ma4938efdfd" y="193.793562"/>
    </g>
   </g>
   <g id="144H">
    <g clip-path="url(#pabf43b95ee)">
     <use style="fill:#e377c2;stroke:#e377c2;" x="180.352543" xlink:href="#m8edddd6db3" y="182.281329"/>
    </g>
   </g>
   <g id="144T">
    <g clip-path="url(#pabf43b95ee)">
     <use style="fill:#7f7f7f;stroke:#7f7f7f;" x="116.024277" xlink:href="#m41ac1adf9e" y="182.281329"/>
    </g>
   </g>
   <g id="143G">
    <g clip-path="url(#pabf43b95ee)">
     <use style="fill:#bcbd22;stroke:#bcbd22;" x="386.389452" xlink:href="#m7c4547c57c" y="182.281329"/>
    </g>
   </g>
   <g id="98A">
    <g clip-path="url(#pabf43b95ee)">
     <use style="fill:#17becf;stroke:#17becf;" x="126.279508" xlink:href="#m81dc817c73" y="167.232576"/>
    </g>
   </g>
   <g id="99A">
    <g clip-path="url(#pabf43b95ee)">
     <use style="fill:#1f77b4;stroke:#1f77b4;" x="122.550333" xlink:href="#mbca13a1982" y="159.869436"/>
    </g>
   </g>
   <g id="100A">
    <g clip-path="url(#pabf43b95ee)">
     <use style="fill:#ff7f0e;stroke:#ff7f0e;" x="180.352543" xlink:href="#m33abd0ef48" y="175.760202"/>
    </g>
   </g>
   <g id="101A">
    <g clip-path="url(#pabf43b95ee)">
     <use style="fill:#2ca02c;stroke:#2ca02c;" x="254.93604" xlink:href="#me75621a907" y="191.381577"/>
    </g>
   </g>
   <g id="102A">
    <g clip-path="url(#pabf43b95ee)">
     <use style="fill:#d62728;stroke:#d62728;" x="180.352543" xlink:href="#m8281dc2882" y="180.626346"/>
    </g>
   </g>
   <g id="103A">
    <g clip-path="url(#pabf43b95ee)">
     <use style="fill:#9467bd;stroke:#9467bd;" x="180.352543" xlink:href="#m9f4cb3fae7" y="170.174817"/>
    </g>
   </g>
   <g id="104A">
    <g clip-path="url(#pabf43b95ee)">
     <use style="fill:#8c564b;stroke:#8c564b;" x="179.420249" xlink:href="#ma4938efdfd" y="169.359677"/>
    </g>
   </g>
   <g id="105A">
    <g clip-path="url(#pabf43b95ee)">
     <use style="fill:#e377c2;stroke:#e377c2;" x="165.435844" xlink:href="#m8edddd6db3" y="217.501503"/>
    </g>
   </g>
   <g id="106A">
    <g clip-path="url(#pabf43b95ee)">
     <use style="fill:#7f7f7f;stroke:#7f7f7f;" x="120.685746" xlink:href="#m41ac1adf9e" y="182.281329"/>
    </g>
   </g>
   <g id="107A">
    <g clip-path="url(#pabf43b95ee)">
     <use style="fill:#bcbd22;stroke:#bcbd22;" x="177.555662" xlink:href="#m7c4547c57c" y="198.720001"/>
    </g>
   </g>
   <g id="108A">
    <g clip-path="url(#pabf43b95ee)">
     <use style="fill:#17becf;stroke:#17becf;" x="126.279508" xlink:href="#m81dc817c73" y="182.281329"/>
    </g>
   </g>
   <g id="109A">
    <g clip-path="url(#pabf43b95ee)">
     <use style="fill:#1f77b4;stroke:#1f77b4;" x="124.41492" xlink:href="#mbca13a1982" y="209.297422"/>
    </g>
   </g>
   <g id="110A">
    <g clip-path="url(#pabf43b95ee)">
     <use style="fill:#ff7f0e;stroke:#ff7f0e;" x="107.633634" xlink:href="#m33abd0ef48" y="205.706333"/>
    </g>
   </g>
   <g id="111A">
    <g clip-path="url(#pabf43b95ee)">
     <use style="fill:#2ca02c;stroke:#2ca02c;" x="155.180613" xlink:href="#me75621a907" y="182.281329"/>
    </g>
   </g>
   <g id="112A">
    <g clip-path="url(#pabf43b95ee)">
     <use style="fill:#d62728;stroke:#d62728;" x="347.233117" xlink:href="#m8281dc2882" y="164.060766"/>
    </g>
   </g>
   <g id="113A">
    <g clip-path="url(#pabf43b95ee)">
     <use style="fill:#9467bd;stroke:#9467bd;" x="149.58685" xlink:href="#m9f4cb3fae7" y="145.397131"/>
    </g>
   </g>
   <g id="114A">
    <g clip-path="url(#pabf43b95ee)">
     <use style="fill:#8c564b;stroke:#8c564b;" x="149.58685" xlink:href="#ma4938efdfd" y="201.910136"/>
    </g>
   </g>
   <g id="115A">
    <g clip-path="url(#pabf43b95ee)">
     <use style="fill:#e377c2;stroke:#e377c2;" x="129.076389" xlink:href="#m8edddd6db3" y="190.10668"/>
    </g>
   </g>
   <g id="116A">
    <g clip-path="url(#pabf43b95ee)">
     <use style="fill:#7f7f7f;stroke:#7f7f7f;" x="317.399718" xlink:href="#m41ac1adf9e" y="186.453264"/>
    </g>
   </g>
   <g id="117A">
    <g clip-path="url(#pabf43b95ee)">
     <use style="fill:#bcbd22;stroke:#bcbd22;" x="145.857676" xlink:href="#m7c4547c57c" y="208.61916"/>
    </g>
   </g>
   <g id="118A">
    <g clip-path="url(#pabf43b95ee)">
     <use style="fill:#17becf;stroke:#17becf;" x="189.67548" xlink:href="#m81dc817c73" y="89.921025"/>
    </g>
   </g>
   <g id="119A">
    <g clip-path="url(#pabf43b95ee)">
     <use style="fill:#1f77b4;stroke:#1f77b4;" x="189.67548" xlink:href="#mbca13a1982" y="165.046924"/>
    </g>
   </g>
   <g id="120A">
    <g clip-path="url(#pabf43b95ee)">
     <use style="fill:#ff7f0e;stroke:#ff7f0e;" x="189.67548" xlink:href="#m33abd0ef48" y="173.161558"/>
    </g>
   </g>
   <g id="121A">
    <g clip-path="url(#pabf43b95ee)">
     <use style="fill:#2ca02c;stroke:#2ca02c;" x="122.550333" xlink:href="#me75621a907" y="66.585086"/>
    </g>
   </g>
   <g id="109B">
    <g clip-path="url(#pabf43b95ee)">
     <use style="fill:#d62728;stroke:#d62728;" x="124.41492" xlink:href="#m8281dc2882" y="202.310502"/>
    </g>
   </g>
   <g id="108B">
    <g clip-path="url(#pabf43b95ee)">
     <use style="fill:#9467bd;stroke:#9467bd;" x="123.482627" xlink:href="#m9f4cb3fae7" y="182.281329"/>
    </g>
   </g>
   <g id="122A">
    <g clip-path="url(#pabf43b95ee)">
     <use style="fill:#8c564b;stroke:#8c564b;" x="119.753452" xlink:href="#ma4938efdfd" y="182.281329"/>
    </g>
   </g>
   <g id="123A">
    <g clip-path="url(#pabf43b95ee)">
     <use style="fill:#e377c2;stroke:#e377c2;" x="107.633634" xlink:href="#m8edddd6db3" y="280.29583"/>
    </g>
   </g>
   <g id="124A">
    <g clip-path="url(#pabf43b95ee)">
     <use style="fill:#7f7f7f;stroke:#7f7f7f;" x="148.654557" xlink:href="#m41ac1adf9e" y="182.281329"/>
    </g>
   </g>
   <g id="125A">
    <g clip-path="url(#pabf43b95ee)">
     <use style="fill:#bcbd22;stroke:#bcbd22;" x="122.550333" xlink:href="#m7c4547c57c" y="213.256677"/>
    </g>
   </g>
   <g id="126A">
    <g clip-path="url(#pabf43b95ee)">
     <use style="fill:#17becf;stroke:#17becf;" x="124.41492" xlink:href="#m81dc817c73" y="206.10852"/>
    </g>
   </g>
   <g id="127A">
    <g clip-path="url(#pabf43b95ee)">
     <use style="fill:#1f77b4;stroke:#1f77b4;" x="123.482627" xlink:href="#mbca13a1982" y="236.922632"/>
    </g>
   </g>
   <g id="128A">
    <g clip-path="url(#pabf43b95ee)">
     <use style="fill:#ff7f0e;stroke:#ff7f0e;" x="109.498221" xlink:href="#m33abd0ef48" y="182.281329"/>
    </g>
   </g>
   <g id="129A">
    <g clip-path="url(#pabf43b95ee)">
     <use style="fill:#2ca02c;stroke:#2ca02c;" x="262.394389" xlink:href="#me75621a907" y="181.033409"/>
    </g>
   </g>
   <g id="130A">
    <g clip-path="url(#pabf43b95ee)">
     <use style="fill:#d62728;stroke:#d62728;" x="258.665214" xlink:href="#m8281dc2882" y="182.281329"/>
    </g>
   </g>
   <g id="131A">
    <g clip-path="url(#pabf43b95ee)">
     <use style="fill:#9467bd;stroke:#9467bd;" x="125.347214" xlink:href="#m9f4cb3fae7" y="192.063018"/>
    </g>
   </g>
   <g id="132A">
    <g clip-path="url(#pabf43b95ee)">
     <use style="fill:#8c564b;stroke:#8c564b;" x="136.534739" xlink:href="#ma4938efdfd" y="131.573071"/>
    </g>
   </g>
   <g id="133A">
    <g clip-path="url(#pabf43b95ee)">
     <use style="fill:#e377c2;stroke:#e377c2;" x="136.534739" xlink:href="#m8edddd6db3" y="207.513535"/>
    </g>
   </g>
   <g id="134A">
    <g clip-path="url(#pabf43b95ee)">
     <use style="fill:#7f7f7f;stroke:#7f7f7f;" x="136.534739" xlink:href="#m41ac1adf9e" y="144.40399"/>
    </g>
   </g>
   <g id="135A">
    <g clip-path="url(#pabf43b95ee)">
     <use style="fill:#bcbd22;stroke:#bcbd22;" x="136.534739" xlink:href="#m7c4547c57c" y="182.281329"/>
    </g>
   </g>
   <g id="136A">
    <g clip-path="url(#pabf43b95ee)">
     <use style="fill:#17becf;stroke:#17becf;" x="127.211801" xlink:href="#m81dc817c73" y="182.281329"/>
    </g>
   </g>
   <g id="137A">
    <g clip-path="url(#pabf43b95ee)">
     <use style="fill:#1f77b4;stroke:#1f77b4;" x="127.211801" xlink:href="#mbca13a1982" y="182.281329"/>
    </g>
   </g>
   <g id="138A">
    <g clip-path="url(#pabf43b95ee)">
     <use style="fill:#ff7f0e;stroke:#ff7f0e;" x="143.993088" xlink:href="#m33abd0ef48" y="192.063018"/>
    </g>
   </g>
   <g id="137B">
    <g clip-path="url(#pabf43b95ee)">
     <use style="fill:#2ca02c;stroke:#2ca02c;" x="127.211801" xlink:href="#me75621a907" y="219.777804"/>
    </g>
   </g>
   <g id="136B">
    <g clip-path="url(#pabf43b95ee)">
     <use style="fill:#d62728;stroke:#d62728;" x="127.211801" xlink:href="#m8281dc2882" y="182.281329"/>
    </g>
   </g>
   <g id="142A">
    <g clip-path="url(#pabf43b95ee)">
     <use style="fill:#9467bd;stroke:#9467bd;" x="106.70134" xlink:href="#m9f4cb3fae7" y="189.805705"/>
    </g>
   </g>
   <g id="matplotlib.axis_1">
    <g id="xtick_1">
     <g id="line2d_1">
      <defs>
       <path d="M 0 0 
L 0 3.5 
" id="m3566b6199d" style="stroke:#000000;stroke-width:0.8;"/>
      </defs>
      <g>
       <use style="stroke:#000000;stroke-width:0.8;" x="67.545004" xlink:href="#m3566b6199d" y="303.64"/>
      </g>
     </g>
     <g id="text_1">
      <text style="font-family:DejaVu Sans;font-size:10px;font-style:normal;font-weight:normal;text-anchor:middle;" transform="rotate(-0, 67.545004, 318.238437)" x="67.545004" y="318.238437">0</text>
     </g>
    </g>
    <g id="xtick_2">
     <g id="line2d_2">
      <g>
       <use style="stroke:#000000;stroke-width:0.8;" x="114.15969" xlink:href="#m3566b6199d" y="303.64"/>
      </g>
     </g>
     <g id="text_2">
      <text style="font-family:DejaVu Sans;font-size:10px;font-style:normal;font-weight:normal;text-anchor:middle;" transform="rotate(-0, 114.15969, 318.238437)" x="114.15969" y="318.238437">50</text>
     </g>
    </g>
    <g id="xtick_3">
     <g id="line2d_3">
      <g>
       <use style="stroke:#000000;stroke-width:0.8;" x="160.774375" xlink:href="#m3566b6199d" y="303.64"/>
      </g>
     </g>
     <g id="text_3">
      <text style="font-family:DejaVu Sans;font-size:10px;font-style:normal;font-weight:normal;text-anchor:middle;" transform="rotate(-0, 160.774375, 318.238437)" x="160.774375" y="318.238437">100</text>
     </g>
    </g>
    <g id="xtick_4">
     <g id="line2d_4">
      <g>
       <use style="stroke:#000000;stroke-width:0.8;" x="207.38906" xlink:href="#m3566b6199d" y="303.64"/>
      </g>
     </g>
     <g id="text_4">
      <text style="font-family:DejaVu Sans;font-size:10px;font-style:normal;font-weight:normal;text-anchor:middle;" transform="rotate(-0, 207.38906, 318.238437)" x="207.38906" y="318.238437">150</text>
     </g>
    </g>
    <g id="xtick_5">
     <g id="line2d_5">
      <g>
       <use style="stroke:#000000;stroke-width:0.8;" x="254.003746" xlink:href="#m3566b6199d" y="303.64"/>
      </g>
     </g>
     <g id="text_5">
      <text style="font-family:DejaVu Sans;font-size:10px;font-style:normal;font-weight:normal;text-anchor:middle;" transform="rotate(-0, 254.003746, 318.238437)" x="254.003746" y="318.238437">200</text>
     </g>
    </g>
    <g id="xtick_6">
     <g id="line2d_6">
      <g>
       <use style="stroke:#000000;stroke-width:0.8;" x="300.618431" xlink:href="#m3566b6199d" y="303.64"/>
      </g>
     </g>
     <g id="text_6">
      <text style="font-family:DejaVu Sans;font-size:10px;font-style:normal;font-weight:normal;text-anchor:middle;" transform="rotate(-0, 300.618431, 318.238437)" x="300.618431" y="318.238437">250</text>
     </g>
    </g>
    <g id="xtick_7">
     <g id="line2d_7">
      <g>
       <use style="stroke:#000000;stroke-width:0.8;" x="347.233117" xlink:href="#m3566b6199d" y="303.64"/>
      </g>
     </g>
     <g id="text_7">
      <text style="font-family:DejaVu Sans;font-size:10px;font-style:normal;font-weight:normal;text-anchor:middle;" transform="rotate(-0, 347.233117, 318.238437)" x="347.233117" y="318.238437">300</text>
     </g>
    </g>
    <g id="xtick_8">
     <g id="line2d_8">
      <g>
       <use style="stroke:#000000;stroke-width:0.8;" x="393.847802" xlink:href="#m3566b6199d" y="303.64"/>
      </g>
     </g>
     <g id="text_8">
      <text style="font-family:DejaVu Sans;font-size:10px;font-style:normal;font-weight:normal;text-anchor:middle;" transform="rotate(-0, 393.847802, 318.238437)" x="393.847802" y="318.238437">350</text>
     </g>
    </g>
    <g id="xtick_9">
     <g id="line2d_9">
      <g>
       <use style="stroke:#000000;stroke-width:0.8;" x="440.462487" xlink:href="#m3566b6199d" y="303.64"/>
      </g>
     </g>
     <g id="text_9">
      <text style="font-family:DejaVu Sans;font-size:10px;font-style:normal;font-weight:normal;text-anchor:middle;" transform="rotate(-0, 440.462487, 318.238437)" x="440.462487" y="318.238437">400</text>
     </g>
    </g>
    <g id="text_10">
     <text style="font-family:DejaVu Sans;font-size:10px;font-style:normal;font-weight:normal;text-anchor:middle;" transform="rotate(-0, 248.869466, 331.916562)" x="248.869466" y="331.916562">Amount of languages tested</text>
    </g>
   </g>
   <g id="matplotlib.axis_2">
    <g id="ytick_1">
     <g id="line2d_10">
      <defs>
       <path d="M 0 0 
L -3.5 0 
" id="m884b4c8db2" style="stroke:#000000;stroke-width:0.8;"/>
      </defs>
      <g>
       <use style="stroke:#000000;stroke-width:0.8;" x="56.09" xlink:href="#m884b4c8db2" y="280.09822"/>
      </g>
     </g>
     <g id="text_11">
      <text style="font-family:DejaVu Sans;font-size:10px;font-style:normal;font-weight:normal;text-anchor:end;" transform="rotate(-0, 49.09, 283.897438)" x="49.09" y="283.897438">−0.2</text>
     </g>
    </g>
    <g id="ytick_2">
     <g id="line2d_11">
      <g>
       <use style="stroke:#000000;stroke-width:0.8;" x="56.09" xlink:href="#m884b4c8db2" y="231.189774"/>
      </g>
     </g>
     <g id="text_12">
      <text style="font-family:DejaVu Sans;font-size:10px;font-style:normal;font-weight:normal;text-anchor:end;" transform="rotate(-0, 49.09, 234.988993)" x="49.09" y="234.988993">−0.1</text>
     </g>
    </g>
    <g id="ytick_3">
     <g id="line2d_12">
      <g>
       <use style="stroke:#000000;stroke-width:0.8;" x="56.09" xlink:href="#m884b4c8db2" y="182.281329"/>
      </g>
     </g>
     <g id="text_13">
      <text style="font-family:DejaVu Sans;font-size:10px;font-style:normal;font-weight:normal;text-anchor:end;" transform="rotate(-0, 49.09, 186.080547)" x="49.09" y="186.080547">0.0</text>
     </g>
    </g>
    <g id="ytick_4">
     <g id="line2d_13">
      <g>
       <use style="stroke:#000000;stroke-width:0.8;" x="56.09" xlink:href="#m884b4c8db2" y="133.372883"/>
      </g>
     </g>
     <g id="text_14">
      <text style="font-family:DejaVu Sans;font-size:10px;font-style:normal;font-weight:normal;text-anchor:end;" transform="rotate(-0, 49.09, 137.172102)" x="49.09" y="137.172102">0.1</text>
     </g>
    </g>
    <g id="ytick_5">
     <g id="line2d_14">
      <g>
       <use style="stroke:#000000;stroke-width:0.8;" x="56.09" xlink:href="#m884b4c8db2" y="84.464437"/>
      </g>
     </g>
     <g id="text_15">
      <text style="font-family:DejaVu Sans;font-size:10px;font-style:normal;font-weight:normal;text-anchor:end;" transform="rotate(-0, 49.09, 88.263656)" x="49.09" y="88.263656">0.2</text>
     </g>
    </g>
    <g id="ytick_6">
     <g id="line2d_15">
      <g>
       <use style="stroke:#000000;stroke-width:0.8;" x="56.09" xlink:href="#m884b4c8db2" y="35.555992"/>
      </g>
     </g>
     <g id="text_16">
      <text style="font-family:DejaVu Sans;font-size:10px;font-style:normal;font-weight:normal;text-anchor:end;" transform="rotate(-0, 49.09, 39.355211)" x="49.09" y="39.355211">0.3</text>
     </g>
    </g>
    <g id="text_17">
     <text style="font-family:DejaVu Sans;font-size:10px;font-style:normal;font-weight:normal;text-anchor:middle;" transform="rotate(-90, 18.7275, 158.48)" x="18.7275" y="158.48">Score - base</text>
    </g>
   </g>
   <g id="line2d_16">
    <path clip-path="url(#pabf43b95ee)" d="M 75.935648 182.300104 
L 82.461704 182.001924 
L 84.326291 181.91673 
L 89.920053 181.661147 
L 98.310697 181.277773 
L 104.836752 180.979593 
L 105.769046 180.936996 
L 106.70134 180.894399 
L 107.633634 180.851802 
L 109.498221 180.766608 
L 111.362808 180.681413 
L 112.295102 180.638816 
L 116.024277 180.468428 
L 119.753452 180.298039 
L 120.685746 180.255442 
L 122.550333 180.170248 
L 123.482627 180.127651 
L 124.41492 180.085054 
L 125.347214 180.042457 
L 126.279508 179.999859 
L 127.211801 179.957262 
L 128.144095 179.914665 
L 129.076389 179.872068 
L 130.008683 179.829471 
L 132.805564 179.70168 
L 136.534739 179.531291 
L 137.467032 179.488694 
L 138.399326 179.446097 
L 139.33162 179.4035 
L 140.263913 179.360903 
L 143.060795 179.233111 
L 143.993088 179.190514 
L 144.925382 179.147917 
L 145.857676 179.10532 
L 147.722263 179.020126 
L 148.654557 178.977529 
L 149.58685 178.934931 
L 155.180613 178.679349 
L 157.0452 178.594154 
L 161.706669 178.381169 
L 162.638962 178.338572 
L 165.435844 178.21078 
L 171.029606 177.955198 
L 174.758781 177.784809 
L 177.555662 177.657018 
L 179.420249 177.571823 
L 180.352543 177.529226 
L 181.284837 177.486629 
L 182.21713 177.444032 
L 183.149424 177.401435 
L 185.946305 177.273644 
L 189.67548 177.103255 
L 190.607774 177.060658 
L 191.540067 177.018061 
L 192.472361 176.975464 
L 193.404655 176.932867 
L 196.201536 176.805075 
L 200.863004 176.59209 
L 207.38906 176.29391 
L 210.185942 176.166118 
L 212.050529 176.080924 
L 217.644291 175.825341 
L 218.576585 175.782744 
L 222.30576 175.612356 
L 226.034935 175.441967 
L 226.967228 175.39937 
L 242.816221 174.675219 
L 249.342277 174.377039 
L 253.071452 174.206651 
L 254.93604 174.121456 
L 258.665214 173.951068 
L 262.394389 173.780679 
L 287.566319 172.630557 
L 293.160082 172.374974 
L 297.82155 172.161989 
L 298.753844 172.119392 
L 309.941368 171.608226 
L 316.467424 171.310046 
L 317.399718 171.267449 
L 332.316417 170.585895 
L 347.233117 169.904341 
L 349.097704 169.819147 
L 352.826879 169.648758 
L 358.420641 169.393176 
L 361.217522 169.265384 
L 365.878991 169.052399 
L 369.608166 168.88201 
L 385.457159 168.157859 
L 386.389452 168.115262 
L 393.847802 167.774485 
L 399.441564 167.518902 
L 419.952026 166.581765 
L 421.816613 166.496571 
" style="fill:none;stroke:#1f77b4;stroke-linecap:square;stroke-width:1.5;"/>
   </g>
   <g id="patch_3">
    <path d="M 56.09 303.64 
L 56.09 13.32 
" style="fill:none;stroke:#000000;stroke-linecap:square;stroke-linejoin:miter;stroke-width:0.8;"/>
   </g>
   <g id="patch_4">
    <path d="M 441.648933 303.64 
L 441.648933 13.32 
" style="fill:none;stroke:#000000;stroke-linecap:square;stroke-linejoin:miter;stroke-width:0.8;"/>
   </g>
   <g id="patch_5">
    <path d="M 56.09 303.64 
L 441.648933 303.64 
" style="fill:none;stroke:#000000;stroke-linecap:square;stroke-linejoin:miter;stroke-width:0.8;"/>
   </g>
   <g id="patch_6">
    <path d="M 56.09 13.32 
L 441.648933 13.32 
" style="fill:none;stroke:#000000;stroke-linecap:square;stroke-linejoin:miter;stroke-width:0.8;"/>
   </g>
  </g>
 </g>
 <defs>
  <clipPath id="pabf43b95ee">
   <rect height="290.32" width="385.558933" x="56.09" y="13.32"/>
  </clipPath>
 </defs>
</svg>
