<?xml version="1.0" encoding="utf-8" standalone="no"?>
<!DOCTYPE svg PUBLIC "-//W3C//DTD SVG 1.1//EN"
  "http://www.w3.org/Graphics/SVG/1.1/DTD/svg11.dtd">
<!-- Created with matplotlib (http://matplotlib.org/) -->
<svg height="345.6pt" version="1.1" viewBox="0 0 460.8 345.6" width="460.8pt" xmlns="http://www.w3.org/2000/svg" xmlns:xlink="http://www.w3.org/1999/xlink">
 <defs>
  <style type="text/css">
*{stroke-linecap:butt;stroke-linejoin:round;}
  </style>
 </defs>
 <g id="figure_1">
  <g id="patch_1">
   <path d="M 0 345.6 
L 460.8 345.6 
L 460.8 0 
L 0 0 
z
" style="fill:#ffffff;"/>
  </g>
  <g id="axes_1">
   <g id="patch_2">
    <path d="M 56.09 303.64 
L 440.378298 303.64 
L 440.378298 13.32 
L 56.09 13.32 
z
" style="fill:#ffffff;"/>
   </g>
   <g id="66A">
    <defs>
     <path d="M 0 3 
C 0.795609 3 1.55874 2.683901 2.12132 2.12132 
C 2.683901 1.55874 3 0.795609 3 0 
C 3 -0.795609 2.683901 -1.55874 2.12132 -2.12132 
C 1.55874 -2.683901 0.795609 -3 0 -3 
C -0.795609 -3 -1.55874 -2.683901 -2.12132 -2.12132 
C -2.683901 -1.55874 -3 -0.795609 -3 0 
C -3 0.795609 -2.683901 1.55874 -2.12132 2.12132 
C -1.55874 2.683901 -0.795609 3 0 3 
z
" id="m0775ee1944" style="stroke:#1f77b4;"/>
    </defs>
    <g clip-path="url(#p4c0591d4e5)">
     <use style="fill:#1f77b4;stroke:#1f77b4;" x="131.112915" xlink:href="#m0775ee1944" y="283.142248"/>
    </g>
   </g>
   <g id="67A">
    <defs>
     <path d="M 0 3 
C 0.795609 3 1.55874 2.683901 2.12132 2.12132 
C 2.683901 1.55874 3 0.795609 3 0 
C 3 -0.795609 2.683901 -1.55874 2.12132 -2.12132 
C 1.55874 -2.683901 0.795609 -3 0 -3 
C -0.795609 -3 -1.55874 -2.683901 -2.12132 -2.12132 
C -2.683901 -1.55874 -3 -0.795609 -3 0 
C -3 0.795609 -2.683901 1.55874 -2.12132 2.12132 
C -1.55874 2.683901 -0.795609 3 0 3 
z
" id="mb7cdd1660c" style="stroke:#ff7f0e;"/>
    </defs>
    <g clip-path="url(#p4c0591d4e5)">
     <use style="fill:#ff7f0e;stroke:#ff7f0e;" x="131.112915" xlink:href="#mb7cdd1660c" y="282.568025"/>
    </g>
   </g>
   <g id="76A">
    <defs>
     <path d="M 0 3 
C 0.795609 3 1.55874 2.683901 2.12132 2.12132 
C 2.683901 1.55874 3 0.795609 3 0 
C 3 -0.795609 2.683901 -1.55874 2.12132 -2.12132 
C 1.55874 -2.683901 0.795609 -3 0 -3 
C -0.795609 -3 -1.55874 -2.683901 -2.12132 -2.12132 
C -2.683901 -1.55874 -3 -0.795609 -3 0 
C -3 0.795609 -2.683901 1.55874 -2.12132 2.12132 
C -1.55874 2.683901 -0.795609 3 0 3 
z
" id="m54181483bd" style="stroke:#2ca02c;"/>
    </defs>
    <g clip-path="url(#p4c0591d4e5)">
     <use style="fill:#2ca02c;stroke:#2ca02c;" x="125.292536" xlink:href="#m54181483bd" y="56.336568"/>
    </g>
   </g>
   <g id="65A">
    <defs>
     <path d="M 0 3 
C 0.795609 3 1.55874 2.683901 2.12132 2.12132 
C 2.683901 1.55874 3 0.795609 3 0 
C 3 -0.795609 2.683901 -1.55874 2.12132 -2.12132 
C 1.55874 -2.683901 0.795609 -3 0 -3 
C -0.795609 -3 -1.55874 -2.683901 -2.12132 -2.12132 
C -2.683901 -1.55874 -3 -0.795609 -3 0 
C -3 0.795609 -2.683901 1.55874 -2.12132 2.12132 
C -1.55874 2.683901 -0.795609 3 0 3 
z
" id="m0ddfa7f9c4" style="stroke:#d62728;"/>
    </defs>
    <g clip-path="url(#p4c0591d4e5)">
     <use style="fill:#d62728;stroke:#d62728;" x="131.112915" xlink:href="#m0ddfa7f9c4" y="114.383165"/>
    </g>
   </g>
   <g id="72A">
    <defs>
     <path d="M 0 3 
C 0.795609 3 1.55874 2.683901 2.12132 2.12132 
C 2.683901 1.55874 3 0.795609 3 0 
C 3 -0.795609 2.683901 -1.55874 2.12132 -2.12132 
C 1.55874 -2.683901 0.795609 -3 0 -3 
C -0.795609 -3 -1.55874 -2.683901 -2.12132 -2.12132 
C -2.683901 -1.55874 -3 -0.795609 -3 0 
C -3 0.795609 -2.683901 1.55874 -2.12132 2.12132 
C -1.55874 2.683901 -0.795609 3 0 3 
z
" id="mc16efd9c92" style="stroke:#9467bd;"/>
    </defs>
    <g clip-path="url(#p4c0591d4e5)">
     <use style="fill:#9467bd;stroke:#9467bd;" x="175.735821" xlink:href="#mc16efd9c92" y="202.457195"/>
    </g>
   </g>
   <g id="69A">
    <defs>
     <path d="M 0 3 
C 0.795609 3 1.55874 2.683901 2.12132 2.12132 
C 2.683901 1.55874 3 0.795609 3 0 
C 3 -0.795609 2.683901 -1.55874 2.12132 -2.12132 
C 1.55874 -2.683901 0.795609 -3 0 -3 
C -0.795609 -3 -1.55874 -2.683901 -2.12132 -2.12132 
C -2.683901 -1.55874 -3 -0.795609 -3 0 
C -3 0.795609 -2.683901 1.55874 -2.12132 2.12132 
C -1.55874 2.683901 -0.795609 3 0 3 
z
" id="m1293c5f455" style="stroke:#8c564b;"/>
    </defs>
    <g clip-path="url(#p4c0591d4e5)">
     <use style="fill:#8c564b;stroke:#8c564b;" x="345.496873" xlink:href="#m1293c5f455" y="168.773295"/>
    </g>
   </g>
   <g id="78A">
    <defs>
     <path d="M 0 3 
C 0.795609 3 1.55874 2.683901 2.12132 2.12132 
C 2.683901 1.55874 3 0.795609 3 0 
C 3 -0.795609 2.683901 -1.55874 2.12132 -2.12132 
C 1.55874 -2.683901 0.795609 -3 0 -3 
C -0.795609 -3 -1.55874 -2.683901 -2.12132 -2.12132 
C -2.683901 -1.55874 -3 -0.795609 -3 0 
C -3 0.795609 -2.683901 1.55874 -2.12132 2.12132 
C -1.55874 2.683901 -0.795609 3 0 3 
z
" id="m91f8256416" style="stroke:#e377c2;"/>
    </defs>
    <g clip-path="url(#p4c0591d4e5)">
     <use style="fill:#e377c2;stroke:#e377c2;" x="172.825631" xlink:href="#m91f8256416" y="172.709157"/>
    </g>
   </g>
   <g id="68A">
    <defs>
     <path d="M 0 3 
C 0.795609 3 1.55874 2.683901 2.12132 2.12132 
C 2.683901 1.55874 3 0.795609 3 0 
C 3 -0.795609 2.683901 -1.55874 2.12132 -2.12132 
C 1.55874 -2.683901 0.795609 -3 0 -3 
C -0.795609 -3 -1.55874 -2.683901 -2.12132 -2.12132 
C -2.683901 -1.55874 -3 -0.795609 -3 0 
C -3 0.795609 -2.683901 1.55874 -2.12132 2.12132 
C -1.55874 2.683901 -0.795609 3 0 3 
z
" id="md4985463c7" style="stroke:#7f7f7f;"/>
    </defs>
    <g clip-path="url(#p4c0591d4e5)">
     <use style="fill:#7f7f7f;stroke:#7f7f7f;" x="131.112915" xlink:href="#md4985463c7" y="200.417725"/>
    </g>
   </g>
   <g id="79A">
    <defs>
     <path d="M 0 3 
C 0.795609 3 1.55874 2.683901 2.12132 2.12132 
C 2.683901 1.55874 3 0.795609 3 0 
C 3 -0.795609 2.683901 -1.55874 2.12132 -2.12132 
C 1.55874 -2.683901 0.795609 -3 0 -3 
C -0.795609 -3 -1.55874 -2.683901 -2.12132 -2.12132 
C -2.683901 -1.55874 -3 -0.795609 -3 0 
C -3 0.795609 -2.683901 1.55874 -2.12132 2.12132 
C -1.55874 2.683901 -0.795609 3 0 3 
z
" id="m2415be3ef6" style="stroke:#bcbd22;"/>
    </defs>
    <g clip-path="url(#p4c0591d4e5)">
     <use style="fill:#bcbd22;stroke:#bcbd22;" x="114.621842" xlink:href="#m2415be3ef6" y="164.946867"/>
    </g>
   </g>
   <g id="77A">
    <defs>
     <path d="M 0 3 
C 0.795609 3 1.55874 2.683901 2.12132 2.12132 
C 2.683901 1.55874 3 0.795609 3 0 
C 3 -0.795609 2.683901 -1.55874 2.12132 -2.12132 
C 1.55874 -2.683901 0.795609 -3 0 -3 
C -0.795609 -3 -1.55874 -2.683901 -2.12132 -2.12132 
C -2.683901 -1.55874 -3 -0.795609 -3 0 
C -3 0.795609 -2.683901 1.55874 -2.12132 2.12132 
C -1.55874 2.683901 -0.795609 3 0 3 
z
" id="m7502881bff" style="stroke:#17becf;"/>
    </defs>
    <g clip-path="url(#p4c0591d4e5)">
     <use style="fill:#17becf;stroke:#17becf;" x="172.825631" xlink:href="#m7502881bff" y="150.478887"/>
    </g>
   </g>
   <g id="75A">
    <g clip-path="url(#p4c0591d4e5)">
     <use style="fill:#1f77b4;stroke:#1f77b4;" x="132.082979" xlink:href="#m0775ee1944" y="68.375459"/>
    </g>
   </g>
   <g id="71A">
    <g clip-path="url(#p4c0591d4e5)">
     <use style="fill:#ff7f0e;stroke:#ff7f0e;" x="186.406515" xlink:href="#mb7cdd1660c" y="157.121584"/>
    </g>
   </g>
   <g id="74A">
    <g clip-path="url(#p4c0591d4e5)">
     <use style="fill:#2ca02c;stroke:#2ca02c;" x="134.023105" xlink:href="#m54181483bd" y="169.912913"/>
    </g>
   </g>
   <g id="70A">
    <g clip-path="url(#p4c0591d4e5)">
     <use style="fill:#d62728;stroke:#d62728;" x="202.897589" xlink:href="#m0ddfa7f9c4" y="178.395584"/>
    </g>
   </g>
   <g id="79B">
    <g clip-path="url(#p4c0591d4e5)">
     <use style="fill:#9467bd;stroke:#9467bd;" x="114.621842" xlink:href="#mc16efd9c92" y="169.912913"/>
    </g>
   </g>
   <g id="80A">
    <g clip-path="url(#p4c0591d4e5)">
     <use style="fill:#8c564b;stroke:#8c564b;" x="114.621842" xlink:href="#m1293c5f455" y="169.912913"/>
    </g>
   </g>
   <g id="73A">
    <g clip-path="url(#p4c0591d4e5)">
     <use style="fill:#e377c2;stroke:#e377c2;" x="143.723736" xlink:href="#m91f8256416" y="169.912913"/>
    </g>
   </g>
   <g id="44A">
    <g clip-path="url(#p4c0591d4e5)">
     <use style="fill:#7f7f7f;stroke:#7f7f7f;" x="168.945378" xlink:href="#md4985463c7" y="169.912913"/>
    </g>
   </g>
   <g id="42A">
    <g clip-path="url(#p4c0591d4e5)">
     <use style="fill:#bcbd22;stroke:#bcbd22;" x="110.741589" xlink:href="#m2415be3ef6" y="169.912913"/>
    </g>
   </g>
   <g id="39A">
    <g clip-path="url(#p4c0591d4e5)">
     <use style="fill:#17becf;stroke:#17becf;" x="113.651779" xlink:href="#m7502881bff" y="155.074971"/>
    </g>
   </g>
   <g id="30A">
    <g clip-path="url(#p4c0591d4e5)">
     <use style="fill:#1f77b4;stroke:#1f77b4;" x="120.442221" xlink:href="#m0775ee1944" y="163.592491"/>
    </g>
   </g>
   <g id="41A">
    <g clip-path="url(#p4c0591d4e5)">
     <use style="fill:#ff7f0e;stroke:#ff7f0e;" x="115.591905" xlink:href="#mb7cdd1660c" y="111.422646"/>
    </g>
   </g>
   <g id="53A">
    <g clip-path="url(#p4c0591d4e5)">
     <use style="fill:#2ca02c;stroke:#2ca02c;" x="160.21481" xlink:href="#m54181483bd" y="189.21126"/>
    </g>
   </g>
   <g id="47A">
    <g clip-path="url(#p4c0591d4e5)">
     <use style="fill:#d62728;stroke:#d62728;" x="114.621842" xlink:href="#m0ddfa7f9c4" y="45.465802"/>
    </g>
   </g>
   <g id="45A">
    <g clip-path="url(#p4c0591d4e5)">
     <use style="fill:#9467bd;stroke:#9467bd;" x="128.202726" xlink:href="#mc16efd9c92" y="206.751941"/>
    </g>
   </g>
   <g id="51A">
    <g clip-path="url(#p4c0591d4e5)">
     <use style="fill:#8c564b;stroke:#8c564b;" x="304.75422" xlink:href="#m1293c5f455" y="73.358185"/>
    </g>
   </g>
   <g id="31A">
    <g clip-path="url(#p4c0591d4e5)">
     <use style="fill:#e377c2;stroke:#e377c2;" x="120.442221" xlink:href="#m91f8256416" y="175.531065"/>
    </g>
   </g>
   <g id="40A">
    <g clip-path="url(#p4c0591d4e5)">
     <use style="fill:#7f7f7f;stroke:#7f7f7f;" x="113.651779" xlink:href="#md4985463c7" y="198.708163"/>
    </g>
   </g>
   <g id="52A">
    <g clip-path="url(#p4c0591d4e5)">
     <use style="fill:#bcbd22;stroke:#bcbd22;" x="145.663863" xlink:href="#m2415be3ef6" y="193.971818"/>
    </g>
   </g>
   <g id="57A">
    <g clip-path="url(#p4c0591d4e5)">
     <use style="fill:#17becf;stroke:#17becf;" x="292.143399" xlink:href="#m7502881bff" y="75.203895"/>
    </g>
   </g>
   <g id="34A">
    <g clip-path="url(#p4c0591d4e5)">
     <use style="fill:#1f77b4;stroke:#1f77b4;" x="128.202726" xlink:href="#m0775ee1944" y="184.923914"/>
    </g>
   </g>
   <g id="49A">
    <g clip-path="url(#p4c0591d4e5)">
     <use style="fill:#ff7f0e;stroke:#ff7f0e;" x="136.933294" xlink:href="#mb7cdd1660c" y="169.912913"/>
    </g>
   </g>
   <g id="55A">
    <g clip-path="url(#p4c0591d4e5)">
     <use style="fill:#2ca02c;stroke:#2ca02c;" x="151.484242" xlink:href="#m54181483bd" y="166.752702"/>
    </g>
   </g>
   <g id="32A">
    <g clip-path="url(#p4c0591d4e5)">
     <use style="fill:#d62728;stroke:#d62728;" x="120.442221" xlink:href="#m0ddfa7f9c4" y="182.202621"/>
    </g>
   </g>
   <g id="35A">
    <g clip-path="url(#p4c0591d4e5)">
     <use style="fill:#9467bd;stroke:#9467bd;" x="127.232663" xlink:href="#mc16efd9c92" y="169.912913"/>
    </g>
   </g>
   <g id="56A">
    <g clip-path="url(#p4c0591d4e5)">
     <use style="fill:#8c564b;stroke:#8c564b;" x="84.549884" xlink:href="#m1293c5f455" y="33.98372"/>
    </g>
   </g>
   <g id="33A">
    <g clip-path="url(#p4c0591d4e5)">
     <use style="fill:#e377c2;stroke:#e377c2;" x="328.035736" xlink:href="#m91f8256416" y="161.511816"/>
    </g>
   </g>
   <g id="43A">
    <g clip-path="url(#p4c0591d4e5)">
     <use style="fill:#7f7f7f;stroke:#7f7f7f;" x="117.532031" xlink:href="#md4985463c7" y="162.749768"/>
    </g>
   </g>
   <g id="37A">
    <g clip-path="url(#p4c0591d4e5)">
     <use style="fill:#bcbd22;stroke:#bcbd22;" x="234.909673" xlink:href="#m2415be3ef6" y="198.96641"/>
    </g>
   </g>
   <g id="50A">
    <g clip-path="url(#p4c0591d4e5)">
     <use style="fill:#17becf;stroke:#17becf;" x="136.933294" xlink:href="#m7502881bff" y="159.947381"/>
    </g>
   </g>
   <g id="38A">
    <g clip-path="url(#p4c0591d4e5)">
     <use style="fill:#1f77b4;stroke:#1f77b4;" x="218.418599" xlink:href="#m0775ee1944" y="196.774704"/>
    </g>
   </g>
   <g id="48A">
    <g clip-path="url(#p4c0591d4e5)">
     <use style="fill:#ff7f0e;stroke:#ff7f0e;" x="170.885505" xlink:href="#mb7cdd1660c" y="173.494485"/>
    </g>
   </g>
   <g id="54A">
    <g clip-path="url(#p4c0591d4e5)">
     <use style="fill:#2ca02c;stroke:#2ca02c;" x="116.561968" xlink:href="#m54181483bd" y="288.160612"/>
    </g>
   </g>
   <g id="36A">
    <g clip-path="url(#p4c0591d4e5)">
     <use style="fill:#d62728;stroke:#d62728;" x="126.2626" xlink:href="#m0ddfa7f9c4" y="194.536222"/>
    </g>
   </g>
   <g id="46A">
    <g clip-path="url(#p4c0591d4e5)">
     <use style="fill:#9467bd;stroke:#9467bd;" x="134.023105" xlink:href="#mc16efd9c92" y="28.825644"/>
    </g>
   </g>
   <g id="90C">
    <g clip-path="url(#p4c0591d4e5)">
     <use style="fill:#8c564b;stroke:#8c564b;" x="241.700115" xlink:href="#m1293c5f455" y="169.912913"/>
    </g>
   </g>
   <g id="144B">
    <g clip-path="url(#p4c0591d4e5)">
     <use style="fill:#e377c2;stroke:#e377c2;" x="213.568284" xlink:href="#m91f8256416" y="169.912913"/>
    </g>
   </g>
   <g id="83A">
    <g clip-path="url(#p4c0591d4e5)">
     <use style="fill:#7f7f7f;stroke:#7f7f7f;" x="421.161799" xlink:href="#md4985463c7" y="146.207539"/>
    </g>
   </g>
   <g id="87A">
    <g clip-path="url(#p4c0591d4e5)">
     <use style="fill:#bcbd22;stroke:#bcbd22;" x="392.059905" xlink:href="#m2415be3ef6" y="166.436054"/>
    </g>
   </g>
   <g id="144A">
    <g clip-path="url(#p4c0591d4e5)">
     <use style="fill:#17becf;stroke:#17becf;" x="355.197505" xlink:href="#m7502881bff" y="175.956323"/>
    </g>
   </g>
   <g id="97A">
    <g clip-path="url(#p4c0591d4e5)">
     <use style="fill:#1f77b4;stroke:#1f77b4;" x="383.329336" xlink:href="#m0775ee1944" y="158.094458"/>
    </g>
   </g>
   <g id="143B">
    <g clip-path="url(#p4c0591d4e5)">
     <use style="fill:#ff7f0e;stroke:#ff7f0e;" x="75.819315" xlink:href="#mb7cdd1660c" y="169.912913"/>
    </g>
   </g>
   <g id="95A">
    <g clip-path="url(#p4c0591d4e5)">
     <use style="fill:#2ca02c;stroke:#2ca02c;" x="358.107694" xlink:href="#m54181483bd" y="149.61909"/>
    </g>
   </g>
   <g id="144S">
    <g clip-path="url(#p4c0591d4e5)">
     <use style="fill:#d62728;stroke:#d62728;" x="171.855568" xlink:href="#m0ddfa7f9c4" y="221.232549"/>
    </g>
   </g>
   <g id="93A">
    <g clip-path="url(#p4c0591d4e5)">
     <use style="fill:#9467bd;stroke:#9467bd;" x="304.75422" xlink:href="#mc16efd9c92" y="194.6838"/>
    </g>
   </g>
   <g id="144K">
    <g clip-path="url(#p4c0591d4e5)">
     <use style="fill:#8c564b;stroke:#8c564b;" x="180.586136" xlink:href="#m1293c5f455" y="169.912913"/>
    </g>
   </g>
   <g id="144X">
    <g clip-path="url(#p4c0591d4e5)">
     <use style="fill:#e377c2;stroke:#e377c2;" x="102.981084" xlink:href="#m91f8256416" y="169.912913"/>
    </g>
   </g>
   <g id="86A">
    <g clip-path="url(#p4c0591d4e5)">
     <use style="fill:#7f7f7f;stroke:#7f7f7f;" x="383.329336" xlink:href="#md4985463c7" y="96.312133"/>
    </g>
   </g>
   <g id="143A">
    <g clip-path="url(#p4c0591d4e5)">
     <use style="fill:#bcbd22;stroke:#bcbd22;" x="384.299399" xlink:href="#m2415be3ef6" y="165.377417"/>
    </g>
   </g>
   <g id="144V">
    <g clip-path="url(#p4c0591d4e5)">
     <use style="fill:#17becf;stroke:#17becf;" x="102.981084" xlink:href="#m7502881bff" y="169.912913"/>
    </g>
   </g>
   <g id="143G">
    <g clip-path="url(#p4c0591d4e5)">
     <use style="fill:#1f77b4;stroke:#1f77b4;" x="384.299399" xlink:href="#m0775ee1944" y="169.912913"/>
    </g>
   </g>
   <g id="144H">
    <g clip-path="url(#p4c0591d4e5)">
     <use style="fill:#ff7f0e;stroke:#ff7f0e;" x="169.915442" xlink:href="#mb7cdd1660c" y="169.912913"/>
    </g>
   </g>
   <g id="90B">
    <g clip-path="url(#p4c0591d4e5)">
     <use style="fill:#2ca02c;stroke:#2ca02c;" x="91.340326" xlink:href="#m54181483bd" y="169.912913"/>
    </g>
   </g>
   <g id="92A">
    <g clip-path="url(#p4c0591d4e5)">
     <use style="fill:#d62728;stroke:#d62728;" x="293.113463" xlink:href="#m0ddfa7f9c4" y="182.882312"/>
    </g>
   </g>
   <g id="144D">
    <g clip-path="url(#p4c0591d4e5)">
     <use style="fill:#9467bd;stroke:#9467bd;" x="182.526263" xlink:href="#mc16efd9c92" y="179.021222"/>
    </g>
   </g>
   <g id="84A">
    <g clip-path="url(#p4c0591d4e5)">
     <use style="fill:#8c564b;stroke:#8c564b;" x="198.047273" xlink:href="#m1293c5f455" y="169.912913"/>
    </g>
   </g>
   <g id="143E">
    <g clip-path="url(#p4c0591d4e5)">
     <use style="fill:#e377c2;stroke:#e377c2;" x="384.299399" xlink:href="#m91f8256416" y="160.650292"/>
    </g>
   </g>
   <g id="143F">
    <g clip-path="url(#p4c0591d4e5)">
     <use style="fill:#7f7f7f;stroke:#7f7f7f;" x="384.299399" xlink:href="#md4985463c7" y="171.131023"/>
    </g>
   </g>
   <g id="144T">
    <g clip-path="url(#p4c0591d4e5)">
     <use style="fill:#bcbd22;stroke:#bcbd22;" x="102.981084" xlink:href="#m2415be3ef6" y="169.912913"/>
    </g>
   </g>
   <g id="81A">
    <g clip-path="url(#p4c0591d4e5)">
     <use style="fill:#17becf;stroke:#17becf;" x="397.880284" xlink:href="#m7502881bff" y="171.228363"/>
    </g>
   </g>
   <g id="144L">
    <g clip-path="url(#p4c0591d4e5)">
     <use style="fill:#1f77b4;stroke:#1f77b4;" x="181.5562" xlink:href="#m0775ee1944" y="205.967341"/>
    </g>
   </g>
   <g id="91A">
    <g clip-path="url(#p4c0591d4e5)">
     <use style="fill:#ff7f0e;stroke:#ff7f0e;" x="217.448536" xlink:href="#mb7cdd1660c" y="138.083822"/>
    </g>
   </g>
   <g id="96A">
    <g clip-path="url(#p4c0591d4e5)">
     <use style="fill:#2ca02c;stroke:#2ca02c;" x="287.293084" xlink:href="#m54181483bd" y="172.711016"/>
    </g>
   </g>
   <g id="144I">
    <g clip-path="url(#p4c0591d4e5)">
     <use style="fill:#d62728;stroke:#d62728;" x="169.915442" xlink:href="#m0ddfa7f9c4" y="170.972894"/>
    </g>
   </g>
   <g id="90A">
    <g clip-path="url(#p4c0591d4e5)">
     <use style="fill:#9467bd;stroke:#9467bd;" x="281.472705" xlink:href="#mc16efd9c92" y="169.912913"/>
    </g>
   </g>
   <g id="89A">
    <g clip-path="url(#p4c0591d4e5)">
     <use style="fill:#8c564b;stroke:#8c564b;" x="349.377126" xlink:href="#m1293c5f455" y="44.223498"/>
    </g>
   </g>
   <g id="144Q">
    <g clip-path="url(#p4c0591d4e5)">
     <use style="fill:#e377c2;stroke:#e377c2;" x="150.514179" xlink:href="#m91f8256416" y="169.912913"/>
    </g>
   </g>
   <g id="82A">
    <g clip-path="url(#p4c0591d4e5)">
     <use style="fill:#7f7f7f;stroke:#7f7f7f;" x="419.221673" xlink:href="#md4985463c7" y="170.870899"/>
    </g>
   </g>
   <g id="144P">
    <g clip-path="url(#p4c0591d4e5)">
     <use style="fill:#bcbd22;stroke:#bcbd22;" x="150.514179" xlink:href="#m2415be3ef6" y="169.912913"/>
    </g>
   </g>
   <g id="144R">
    <g clip-path="url(#p4c0591d4e5)">
     <use style="fill:#17becf;stroke:#17becf;" x="150.514179" xlink:href="#m7502881bff" y="169.912913"/>
    </g>
   </g>
   <g id="85A">
    <g clip-path="url(#p4c0591d4e5)">
     <use style="fill:#1f77b4;stroke:#1f77b4;" x="366.838262" xlink:href="#m0775ee1944" y="136.513948"/>
    </g>
   </g>
   <g id="144W">
    <g clip-path="url(#p4c0591d4e5)">
     <use style="fill:#ff7f0e;stroke:#ff7f0e;" x="102.981084" xlink:href="#mb7cdd1660c" y="169.912913"/>
    </g>
   </g>
   <g id="88A">
    <g clip-path="url(#p4c0591d4e5)">
     <use style="fill:#2ca02c;stroke:#2ca02c;" x="362.95801" xlink:href="#m54181483bd" y="104.414671"/>
    </g>
   </g>
   <g id="94A">
    <g clip-path="url(#p4c0591d4e5)">
     <use style="fill:#d62728;stroke:#d62728;" x="245.580368" xlink:href="#m0ddfa7f9c4" y="169.912913"/>
    </g>
   </g>
   <g id="144J">
    <g clip-path="url(#p4c0591d4e5)">
     <use style="fill:#9467bd;stroke:#9467bd;" x="180.586136" xlink:href="#mc16efd9c92" y="169.912913"/>
    </g>
   </g>
   <g id="98A">
    <g clip-path="url(#p4c0591d4e5)">
     <use style="fill:#8c564b;stroke:#8c564b;" x="113.651779" xlink:href="#m1293c5f455" y="177.076057"/>
    </g>
   </g>
   <g id="112A">
    <g clip-path="url(#p4c0591d4e5)">
     <use style="fill:#e377c2;stroke:#e377c2;" x="343.556747" xlink:href="#m91f8256416" y="163.453753"/>
    </g>
   </g>
   <g id="120A">
    <g clip-path="url(#p4c0591d4e5)">
     <use style="fill:#7f7f7f;stroke:#7f7f7f;" x="179.616073" xlink:href="#md4985463c7" y="175.553527"/>
    </g>
   </g>
   <g id="109B">
    <g clip-path="url(#p4c0591d4e5)">
     <use style="fill:#bcbd22;stroke:#bcbd22;" x="111.711652" xlink:href="#m2415be3ef6" y="169.912913"/>
    </g>
   </g>
   <g id="109A">
    <g clip-path="url(#p4c0591d4e5)">
     <use style="fill:#17becf;stroke:#17becf;" x="111.711652" xlink:href="#m7502881bff" y="146.376867"/>
    </g>
   </g>
   <g id="106A">
    <g clip-path="url(#p4c0591d4e5)">
     <use style="fill:#1f77b4;stroke:#1f77b4;" x="107.8314" xlink:href="#m0775ee1944" y="169.912913"/>
    </g>
   </g>
   <g id="113A">
    <g clip-path="url(#p4c0591d4e5)">
     <use style="fill:#ff7f0e;stroke:#ff7f0e;" x="137.903357" xlink:href="#mb7cdd1660c" y="147.294682"/>
    </g>
   </g>
   <g id="100A">
    <g clip-path="url(#p4c0591d4e5)">
     <use style="fill:#2ca02c;stroke:#2ca02c;" x="169.915442" xlink:href="#m54181483bd" y="173.494485"/>
    </g>
   </g>
   <g id="107A">
    <g clip-path="url(#p4c0591d4e5)">
     <use style="fill:#d62728;stroke:#d62728;" x="167.005252" xlink:href="#m0ddfa7f9c4" y="169.689065"/>
    </g>
   </g>
   <g id="114A">
    <g clip-path="url(#p4c0591d4e5)">
     <use style="fill:#9467bd;stroke:#9467bd;" x="137.903357" xlink:href="#mc16efd9c92" y="167.640521"/>
    </g>
   </g>
   <g id="110A">
    <g clip-path="url(#p4c0591d4e5)">
     <use style="fill:#8c564b;stroke:#8c564b;" x="94.250515" xlink:href="#m1293c5f455" y="178.233737"/>
    </g>
   </g>
   <g id="103A">
    <g clip-path="url(#p4c0591d4e5)">
     <use style="fill:#e377c2;stroke:#e377c2;" x="169.915442" xlink:href="#m91f8256416" y="173.494485"/>
    </g>
   </g>
   <g id="99A">
    <g clip-path="url(#p4c0591d4e5)">
     <use style="fill:#7f7f7f;stroke:#7f7f7f;" x="109.771526" xlink:href="#md4985463c7" y="193.291527"/>
    </g>
   </g>
   <g id="104A">
    <g clip-path="url(#p4c0591d4e5)">
     <use style="fill:#bcbd22;stroke:#bcbd22;" x="168.945378" xlink:href="#m2415be3ef6" y="188.515861"/>
    </g>
   </g>
   <g id="119A">
    <g clip-path="url(#p4c0591d4e5)">
     <use style="fill:#17becf;stroke:#17becf;" x="179.616073" xlink:href="#m7502881bff" y="156.879222"/>
    </g>
   </g>
   <g id="102A">
    <g clip-path="url(#p4c0591d4e5)">
     <use style="fill:#1f77b4;stroke:#1f77b4;" x="169.915442" xlink:href="#m0775ee1944" y="157.404543"/>
    </g>
   </g>
   <g id="118A">
    <g clip-path="url(#p4c0591d4e5)">
     <use style="fill:#ff7f0e;stroke:#ff7f0e;" x="179.616073" xlink:href="#mb7cdd1660c" y="96.327813"/>
    </g>
   </g>
   <g id="115A">
    <g clip-path="url(#p4c0591d4e5)">
     <use style="fill:#2ca02c;stroke:#2ca02c;" x="116.561968" xlink:href="#m54181483bd" y="169.912913"/>
    </g>
   </g>
   <g id="116A">
    <g clip-path="url(#p4c0591d4e5)">
     <use style="fill:#d62728;stroke:#d62728;" x="312.514726" xlink:href="#m0ddfa7f9c4" y="169.912913"/>
    </g>
   </g>
   <g id="101A">
    <g clip-path="url(#p4c0591d4e5)">
     <use style="fill:#9467bd;stroke:#9467bd;" x="247.520494" xlink:href="#mc16efd9c92" y="173.323934"/>
    </g>
   </g>
   <g id="108B">
    <g clip-path="url(#p4c0591d4e5)">
     <use style="fill:#8c564b;stroke:#8c564b;" x="110.741589" xlink:href="#m1293c5f455" y="169.912913"/>
    </g>
   </g>
   <g id="121A">
    <g clip-path="url(#p4c0591d4e5)">
     <use style="fill:#e377c2;stroke:#e377c2;" x="109.771526" xlink:href="#m91f8256416" y="52.921447"/>
    </g>
   </g>
   <g id="117A">
    <g clip-path="url(#p4c0591d4e5)">
     <use style="fill:#7f7f7f;stroke:#7f7f7f;" x="134.023105" xlink:href="#md4985463c7" y="215.3816"/>
    </g>
   </g>
   <g id="108A">
    <g clip-path="url(#p4c0591d4e5)">
     <use style="fill:#bcbd22;stroke:#bcbd22;" x="113.651779" xlink:href="#m2415be3ef6" y="169.912913"/>
    </g>
   </g>
   <g id="105A">
    <g clip-path="url(#p4c0591d4e5)">
     <use style="fill:#17becf;stroke:#17becf;" x="154.394431" xlink:href="#m7502881bff" y="239.119761"/>
    </g>
   </g>
   <g id="111A">
    <g clip-path="url(#p4c0591d4e5)">
     <use style="fill:#1f77b4;stroke:#1f77b4;" x="143.723736" xlink:href="#m0775ee1944" y="169.912913"/>
    </g>
   </g>
   <g id="21B">
    <g clip-path="url(#p4c0591d4e5)">
     <use style="fill:#ff7f0e;stroke:#ff7f0e;" x="98.130768" xlink:href="#mb7cdd1660c" y="169.912913"/>
    </g>
   </g>
   <g id="25A">
    <g clip-path="url(#p4c0591d4e5)">
     <use style="fill:#2ca02c;stroke:#2ca02c;" x="117.532031" xlink:href="#m54181483bd" y="169.912913"/>
    </g>
   </g>
   <g id="20A">
    <g clip-path="url(#p4c0591d4e5)">
     <use style="fill:#d62728;stroke:#d62728;" x="99.100831" xlink:href="#m0ddfa7f9c4" y="169.912913"/>
    </g>
   </g>
   <g id="28A">
    <g clip-path="url(#p4c0591d4e5)">
     <use style="fill:#9467bd;stroke:#9467bd;" x="114.621842" xlink:href="#mc16efd9c92" y="169.912913"/>
    </g>
   </g>
   <g id="24A">
    <g clip-path="url(#p4c0591d4e5)">
     <use style="fill:#8c564b;stroke:#8c564b;" x="117.532031" xlink:href="#m1293c5f455" y="69.341086"/>
    </g>
   </g>
   <g id="29A">
    <g clip-path="url(#p4c0591d4e5)">
     <use style="fill:#e377c2;stroke:#e377c2;" x="113.651779" xlink:href="#m91f8256416" y="123.785412"/>
    </g>
   </g>
   <g id="22A">
    <g clip-path="url(#p4c0591d4e5)">
     <use style="fill:#7f7f7f;stroke:#7f7f7f;" x="96.190642" xlink:href="#md4985463c7" y="169.912913"/>
    </g>
   </g>
   <g id="27A">
    <g clip-path="url(#p4c0591d4e5)">
     <use style="fill:#bcbd22;stroke:#bcbd22;" x="160.21481" xlink:href="#m2415be3ef6" y="175.509119"/>
    </g>
   </g>
   <g id="21A">
    <g clip-path="url(#p4c0591d4e5)">
     <use style="fill:#17becf;stroke:#17becf;" x="98.130768" xlink:href="#m7502881bff" y="204.670443"/>
    </g>
   </g>
   <g id="23A">
    <g clip-path="url(#p4c0591d4e5)">
     <use style="fill:#1f77b4;stroke:#1f77b4;" x="117.532031" xlink:href="#m0775ee1944" y="180.945434"/>
    </g>
   </g>
   <g id="25B">
    <g clip-path="url(#p4c0591d4e5)">
     <use style="fill:#ff7f0e;stroke:#ff7f0e;" x="117.532031" xlink:href="#mb7cdd1660c" y="169.912913"/>
    </g>
   </g>
   <g id="26A">
    <g clip-path="url(#p4c0591d4e5)">
     <use style="fill:#2ca02c;stroke:#2ca02c;" x="311.544663" xlink:href="#m54181483bd" y="163.478331"/>
    </g>
   </g>
   <g id="138A">
    <g clip-path="url(#p4c0591d4e5)">
     <use style="fill:#d62728;stroke:#d62728;" x="132.082979" xlink:href="#m0ddfa7f9c4" y="170.130711"/>
    </g>
   </g>
   <g id="132A">
    <g clip-path="url(#p4c0591d4e5)">
     <use style="fill:#9467bd;stroke:#9467bd;" x="124.322473" xlink:href="#mc16efd9c92" y="85.603111"/>
    </g>
   </g>
   <g id="134A">
    <g clip-path="url(#p4c0591d4e5)">
     <use style="fill:#8c564b;stroke:#8c564b;" x="124.322473" xlink:href="#m1293c5f455" y="136.750207"/>
    </g>
   </g>
   <g id="129A">
    <g clip-path="url(#p4c0591d4e5)">
     <use style="fill:#e377c2;stroke:#e377c2;" x="255.280999" xlink:href="#m91f8256416" y="168.909004"/>
    </g>
   </g>
   <g id="130A">
    <g clip-path="url(#p4c0591d4e5)">
     <use style="fill:#7f7f7f;stroke:#7f7f7f;" x="251.400747" xlink:href="#md4985463c7" y="169.912913"/>
    </g>
   </g>
   <g id="135A">
    <g clip-path="url(#p4c0591d4e5)">
     <use style="fill:#bcbd22;stroke:#bcbd22;" x="124.322473" xlink:href="#m2415be3ef6" y="169.912913"/>
    </g>
   </g>
   <g id="136A">
    <g clip-path="url(#p4c0591d4e5)">
     <use style="fill:#17becf;stroke:#17becf;" x="114.621842" xlink:href="#m7502881bff" y="169.912913"/>
    </g>
   </g>
   <g id="137B">
    <g clip-path="url(#p4c0591d4e5)">
     <use style="fill:#1f77b4;stroke:#1f77b4;" x="114.621842" xlink:href="#m0775ee1944" y="237.962785"/>
    </g>
   </g>
   <g id="133A">
    <g clip-path="url(#p4c0591d4e5)">
     <use style="fill:#ff7f0e;stroke:#ff7f0e;" x="124.322473" xlink:href="#mb7cdd1660c" y="257.398681"/>
    </g>
   </g>
   <g id="137A">
    <g clip-path="url(#p4c0591d4e5)">
     <use style="fill:#2ca02c;stroke:#2ca02c;" x="114.621842" xlink:href="#m54181483bd" y="169.912913"/>
    </g>
   </g>
   <g id="136B">
    <g clip-path="url(#p4c0591d4e5)">
     <use style="fill:#d62728;stroke:#d62728;" x="114.621842" xlink:href="#m0ddfa7f9c4" y="169.912913"/>
    </g>
   </g>
   <g id="131A">
    <g clip-path="url(#p4c0591d4e5)">
     <use style="fill:#9467bd;stroke:#9467bd;" x="112.681715" xlink:href="#mc16efd9c92" y="169.912913"/>
    </g>
   </g>
   <g id="61A">
    <g clip-path="url(#p4c0591d4e5)">
     <use style="fill:#8c564b;stroke:#8c564b;" x="94.250515" xlink:href="#m1293c5f455" y="176.308578"/>
    </g>
   </g>
   <g id="60A">
    <g clip-path="url(#p4c0591d4e5)">
     <use style="fill:#e377c2;stroke:#e377c2;" x="92.310389" xlink:href="#m91f8256416" y="178.866843"/>
    </g>
   </g>
   <g id="58B">
    <g clip-path="url(#p4c0591d4e5)">
     <use style="fill:#7f7f7f;stroke:#7f7f7f;" x="113.651779" xlink:href="#md4985463c7" y="169.912913"/>
    </g>
   </g>
   <g id="58A">
    <g clip-path="url(#p4c0591d4e5)">
     <use style="fill:#bcbd22;stroke:#bcbd22;" x="114.621842" xlink:href="#m2415be3ef6" y="169.912913"/>
    </g>
   </g>
   <g id="64A">
    <g clip-path="url(#p4c0591d4e5)">
     <use style="fill:#17becf;stroke:#17becf;" x="137.903357" xlink:href="#m7502881bff" y="169.912913"/>
    </g>
   </g>
   <g id="63A">
    <g clip-path="url(#p4c0591d4e5)">
     <use style="fill:#1f77b4;stroke:#1f77b4;" x="133.053042" xlink:href="#m0775ee1944" y="126.780616"/>
    </g>
   </g>
   <g id="59A">
    <g clip-path="url(#p4c0591d4e5)">
     <use style="fill:#ff7f0e;stroke:#ff7f0e;" x="114.621842" xlink:href="#mb7cdd1660c" y="169.912913"/>
    </g>
   </g>
   <g id="62A">
    <g clip-path="url(#p4c0591d4e5)">
     <use style="fill:#2ca02c;stroke:#2ca02c;" x="107.8314" xlink:href="#m54181483bd" y="165.435948"/>
    </g>
   </g>
   <g id="126A">
    <g clip-path="url(#p4c0591d4e5)">
     <use style="fill:#d62728;stroke:#d62728;" x="111.711652" xlink:href="#m0ddfa7f9c4" y="184.750855"/>
    </g>
   </g>
   <g id="127A">
    <g clip-path="url(#p4c0591d4e5)">
     <use style="fill:#9467bd;stroke:#9467bd;" x="110.741589" xlink:href="#mc16efd9c92" y="185.262508"/>
    </g>
   </g>
   <g id="128A">
    <g clip-path="url(#p4c0591d4e5)">
     <use style="fill:#8c564b;stroke:#8c564b;" x="96.190642" xlink:href="#m1293c5f455" y="169.912913"/>
    </g>
   </g>
   <g id="125A">
    <g clip-path="url(#p4c0591d4e5)">
     <use style="fill:#e377c2;stroke:#e377c2;" x="109.771526" xlink:href="#m91f8256416" y="177.58771"/>
    </g>
   </g>
   <g id="124A">
    <g clip-path="url(#p4c0591d4e5)">
     <use style="fill:#7f7f7f;stroke:#7f7f7f;" x="136.933294" xlink:href="#md4985463c7" y="169.912913"/>
    </g>
   </g>
   <g id="122A">
    <g clip-path="url(#p4c0591d4e5)">
     <use style="fill:#bcbd22;stroke:#bcbd22;" x="106.861336" xlink:href="#m2415be3ef6" y="169.912913"/>
    </g>
   </g>
   <g id="123A">
    <g clip-path="url(#p4c0591d4e5)">
     <use style="fill:#17becf;stroke:#17becf;" x="94.250515" xlink:href="#m7502881bff" y="162.749768"/>
    </g>
   </g>
   <g id="2A">
    <g clip-path="url(#p4c0591d4e5)">
     <use style="fill:#1f77b4;stroke:#1f77b4;" x="209.688031" xlink:href="#m0775ee1944" y="160.362054"/>
    </g>
   </g>
   <g id="9A">
    <g clip-path="url(#p4c0591d4e5)">
     <use style="fill:#ff7f0e;stroke:#ff7f0e;" x="164.095063" xlink:href="#mb7cdd1660c" y="176.424862"/>
    </g>
   </g>
   <g id="19A">
    <g clip-path="url(#p4c0591d4e5)">
     <use style="fill:#2ca02c;stroke:#2ca02c;" x="209.688031" xlink:href="#m54181483bd" y="169.912913"/>
    </g>
   </g>
   <g id="10A">
    <g clip-path="url(#p4c0591d4e5)">
     <use style="fill:#d62728;stroke:#d62728;" x="124.322473" xlink:href="#m0ddfa7f9c4" y="169.912913"/>
    </g>
   </g>
   <g id="16A">
    <g clip-path="url(#p4c0591d4e5)">
     <use style="fill:#9467bd;stroke:#9467bd;" x="200.957463" xlink:href="#mc16efd9c92" y="177.374522"/>
    </g>
   </g>
   <g id="5A">
    <g clip-path="url(#p4c0591d4e5)">
     <use style="fill:#8c564b;stroke:#8c564b;" x="209.688031" xlink:href="#m1293c5f455" y="60.653043"/>
    </g>
   </g>
   <g id="8A">
    <g clip-path="url(#p4c0591d4e5)">
     <use style="fill:#e377c2;stroke:#e377c2;" x="209.688031" xlink:href="#m91f8256416" y="167.556615"/>
    </g>
   </g>
   <g id="7A">
    <g clip-path="url(#p4c0591d4e5)">
     <use style="fill:#7f7f7f;stroke:#7f7f7f;" x="209.688031" xlink:href="#md4985463c7" y="169.912913"/>
    </g>
   </g>
   <g id="3A">
    <g clip-path="url(#p4c0591d4e5)">
     <use style="fill:#bcbd22;stroke:#bcbd22;" x="209.688031" xlink:href="#m2415be3ef6" y="188.246336"/>
    </g>
   </g>
   <g id="17A">
    <g clip-path="url(#p4c0591d4e5)">
     <use style="fill:#17becf;stroke:#17becf;" x="135.963231" xlink:href="#m7502881bff" y="169.912913"/>
    </g>
   </g>
   <g id="4A">
    <g clip-path="url(#p4c0591d4e5)">
     <use style="fill:#1f77b4;stroke:#1f77b4;" x="209.688031" xlink:href="#m0775ee1944" y="153.001465"/>
    </g>
   </g>
   <g id="13A">
    <g clip-path="url(#p4c0591d4e5)">
     <use style="fill:#ff7f0e;stroke:#ff7f0e;" x="191.256831" xlink:href="#mb7cdd1660c" y="169.912913"/>
    </g>
   </g>
   <g id="6A">
    <g clip-path="url(#p4c0591d4e5)">
     <use style="fill:#2ca02c;stroke:#2ca02c;" x="209.688031" xlink:href="#m54181483bd" y="169.912913"/>
    </g>
   </g>
   <g id="11A">
    <g clip-path="url(#p4c0591d4e5)">
     <use style="fill:#d62728;stroke:#d62728;" x="208.717968" xlink:href="#m0ddfa7f9c4" y="169.912913"/>
    </g>
   </g>
   <g id="1A">
    <g clip-path="url(#p4c0591d4e5)">
     <use style="fill:#9467bd;stroke:#9467bd;" x="208.717968" xlink:href="#mc16efd9c92" y="145.958699"/>
    </g>
   </g>
   <g id="18A">
    <g clip-path="url(#p4c0591d4e5)">
     <use style="fill:#8c564b;stroke:#8c564b;" x="209.688031" xlink:href="#m1293c5f455" y="169.912913"/>
    </g>
   </g>
   <g id="14A">
    <g clip-path="url(#p4c0591d4e5)">
     <use style="fill:#e377c2;stroke:#e377c2;" x="200.957463" xlink:href="#m91f8256416" y="133.640716"/>
    </g>
   </g>
   <g id="12A">
    <g clip-path="url(#p4c0591d4e5)">
     <use style="fill:#7f7f7f;stroke:#7f7f7f;" x="183.496326" xlink:href="#md4985463c7" y="158.810278"/>
    </g>
   </g>
   <g id="15A">
    <g clip-path="url(#p4c0591d4e5)">
     <use style="fill:#bcbd22;stroke:#bcbd22;" x="200.957463" xlink:href="#m2415be3ef6" y="177.374522"/>
    </g>
   </g>
   <g id="142A">
    <g clip-path="url(#p4c0591d4e5)">
     <use style="fill:#17becf;stroke:#17becf;" x="93.280452" xlink:href="#m7502881bff" y="169.912913"/>
    </g>
   </g>
   <g id="matplotlib.axis_1">
    <g id="xtick_1">
     <g id="line2d_1">
      <defs>
       <path d="M 0 0 
L 0 3.5 
" id="mda8231d118" style="stroke:#000000;stroke-width:0.8;"/>
      </defs>
      <g>
       <use style="stroke:#000000;stroke-width:0.8;" x="101.040958" xlink:href="#mda8231d118" y="303.64"/>
      </g>
     </g>
     <g id="text_1">
      <text style="font-family:DejaVu Sans;font-size:10px;font-style:normal;font-weight:normal;text-anchor:middle;" transform="rotate(-0, 101.040958, 318.238437)" x="101.040958" y="318.238437">50</text>
     </g>
    </g>
    <g id="xtick_2">
     <g id="line2d_2">
      <g>
       <use style="stroke:#000000;stroke-width:0.8;" x="149.544115" xlink:href="#mda8231d118" y="303.64"/>
      </g>
     </g>
     <g id="text_2">
      <text style="font-family:DejaVu Sans;font-size:10px;font-style:normal;font-weight:normal;text-anchor:middle;" transform="rotate(-0, 149.544115, 318.238437)" x="149.544115" y="318.238437">100</text>
     </g>
    </g>
    <g id="xtick_3">
     <g id="line2d_3">
      <g>
       <use style="stroke:#000000;stroke-width:0.8;" x="198.047273" xlink:href="#mda8231d118" y="303.64"/>
      </g>
     </g>
     <g id="text_3">
      <text style="font-family:DejaVu Sans;font-size:10px;font-style:normal;font-weight:normal;text-anchor:middle;" transform="rotate(-0, 198.047273, 318.238437)" x="198.047273" y="318.238437">150</text>
     </g>
    </g>
    <g id="xtick_4">
     <g id="line2d_4">
      <g>
       <use style="stroke:#000000;stroke-width:0.8;" x="246.550431" xlink:href="#mda8231d118" y="303.64"/>
      </g>
     </g>
     <g id="text_4">
      <text style="font-family:DejaVu Sans;font-size:10px;font-style:normal;font-weight:normal;text-anchor:middle;" transform="rotate(-0, 246.550431, 318.238437)" x="246.550431" y="318.238437">200</text>
     </g>
    </g>
    <g id="xtick_5">
     <g id="line2d_5">
      <g>
       <use style="stroke:#000000;stroke-width:0.8;" x="295.053589" xlink:href="#mda8231d118" y="303.64"/>
      </g>
     </g>
     <g id="text_5">
      <text style="font-family:DejaVu Sans;font-size:10px;font-style:normal;font-weight:normal;text-anchor:middle;" transform="rotate(-0, 295.053589, 318.238437)" x="295.053589" y="318.238437">250</text>
     </g>
    </g>
    <g id="xtick_6">
     <g id="line2d_6">
      <g>
       <use style="stroke:#000000;stroke-width:0.8;" x="343.556747" xlink:href="#mda8231d118" y="303.64"/>
      </g>
     </g>
     <g id="text_6">
      <text style="font-family:DejaVu Sans;font-size:10px;font-style:normal;font-weight:normal;text-anchor:middle;" transform="rotate(-0, 343.556747, 318.238437)" x="343.556747" y="318.238437">300</text>
     </g>
    </g>
    <g id="xtick_7">
     <g id="line2d_7">
      <g>
       <use style="stroke:#000000;stroke-width:0.8;" x="392.059905" xlink:href="#mda8231d118" y="303.64"/>
      </g>
     </g>
     <g id="text_7">
      <text style="font-family:DejaVu Sans;font-size:10px;font-style:normal;font-weight:normal;text-anchor:middle;" transform="rotate(-0, 392.059905, 318.238437)" x="392.059905" y="318.238437">350</text>
     </g>
    </g>
    <g id="xtick_8">
     <g id="line2d_8">
      <g>
       <use style="stroke:#000000;stroke-width:0.8;" x="440.563062" xlink:href="#mda8231d118" y="303.64"/>
      </g>
     </g>
     <g id="text_8">
      <text style="font-family:DejaVu Sans;font-size:10px;font-style:normal;font-weight:normal;text-anchor:middle;" transform="rotate(-0, 440.563062, 318.238437)" x="440.563062" y="318.238437">400</text>
     </g>
    </g>
    <g id="text_9">
     <text style="font-family:DejaVu Sans;font-size:10px;font-style:normal;font-weight:normal;text-anchor:middle;" transform="rotate(-0, 248.234149, 331.916562)" x="248.234149" y="331.916562">Amount of languages tested</text>
    </g>
   </g>
   <g id="matplotlib.axis_2">
    <g id="ytick_1">
     <g id="line2d_9">
      <defs>
       <path d="M 0 0 
L -3.5 0 
" id="m056247e141" style="stroke:#000000;stroke-width:0.8;"/>
      </defs>
      <g>
       <use style="stroke:#000000;stroke-width:0.8;" x="56.09" xlink:href="#m056247e141" y="277.360079"/>
      </g>
     </g>
     <g id="text_10">
      <text style="font-family:DejaVu Sans;font-size:10px;font-style:normal;font-weight:normal;text-anchor:end;" transform="rotate(-0, 49.09, 281.159298)" x="49.09" y="281.159298">−0.2</text>
     </g>
    </g>
    <g id="ytick_2">
     <g id="line2d_10">
      <g>
       <use style="stroke:#000000;stroke-width:0.8;" x="56.09" xlink:href="#m056247e141" y="223.636496"/>
      </g>
     </g>
     <g id="text_11">
      <text style="font-family:DejaVu Sans;font-size:10px;font-style:normal;font-weight:normal;text-anchor:end;" transform="rotate(-0, 49.09, 227.435715)" x="49.09" y="227.435715">−0.1</text>
     </g>
    </g>
    <g id="ytick_3">
     <g id="line2d_11">
      <g>
       <use style="stroke:#000000;stroke-width:0.8;" x="56.09" xlink:href="#m056247e141" y="169.912913"/>
      </g>
     </g>
     <g id="text_12">
      <text style="font-family:DejaVu Sans;font-size:10px;font-style:normal;font-weight:normal;text-anchor:end;" transform="rotate(-0, 49.09, 173.712132)" x="49.09" y="173.712132">0.0</text>
     </g>
    </g>
    <g id="ytick_4">
     <g id="line2d_12">
      <g>
       <use style="stroke:#000000;stroke-width:0.8;" x="56.09" xlink:href="#m056247e141" y="116.18933"/>
      </g>
     </g>
     <g id="text_13">
      <text style="font-family:DejaVu Sans;font-size:10px;font-style:normal;font-weight:normal;text-anchor:end;" transform="rotate(-0, 49.09, 119.988549)" x="49.09" y="119.988549">0.1</text>
     </g>
    </g>
    <g id="ytick_5">
     <g id="line2d_13">
      <g>
       <use style="stroke:#000000;stroke-width:0.8;" x="56.09" xlink:href="#m056247e141" y="62.465747"/>
      </g>
     </g>
     <g id="text_14">
      <text style="font-family:DejaVu Sans;font-size:10px;font-style:normal;font-weight:normal;text-anchor:end;" transform="rotate(-0, 49.09, 66.264966)" x="49.09" y="66.264966">0.2</text>
     </g>
    </g>
    <g id="text_15">
     <text style="font-family:DejaVu Sans;font-size:10px;font-style:normal;font-weight:normal;text-anchor:middle;" transform="rotate(-90, 18.7275, 158.48)" x="18.7275" y="158.48">Score - base</text>
    </g>
   </g>
   <g id="line2d_14">
    <path clip-path="url(#p4c0591d4e5)" d="M 75.819315 170.156862 
L 84.549884 169.659705 
L 91.340326 169.273027 
L 92.310389 169.217787 
L 93.280452 169.162547 
L 94.250515 169.107308 
L 96.190642 168.996828 
L 98.130768 168.886349 
L 99.100831 168.831109 
L 102.981084 168.61015 
L 106.861336 168.389192 
L 107.8314 168.333952 
L 109.771526 168.223473 
L 110.741589 168.168233 
L 111.711652 168.112993 
L 112.681715 168.057753 
L 113.651779 168.002514 
L 114.621842 167.947274 
L 115.591905 167.892034 
L 116.561968 167.836795 
L 117.532031 167.781555 
L 120.442221 167.615836 
L 124.322473 167.394877 
L 125.292536 167.339637 
L 126.2626 167.284398 
L 127.232663 167.229158 
L 128.202726 167.173918 
L 131.112915 167.008199 
L 132.082979 166.952959 
L 133.053042 166.89772 
L 134.023105 166.84248 
L 135.963231 166.732001 
L 136.933294 166.676761 
L 137.903357 166.621521 
L 143.723736 166.290083 
L 145.663863 166.179604 
L 150.514179 165.903405 
L 151.484242 165.848166 
L 154.394431 165.682446 
L 160.21481 165.351008 
L 164.095063 165.130049 
L 167.005252 164.96433 
L 168.945378 164.853851 
L 169.915442 164.798611 
L 170.885505 164.743372 
L 171.855568 164.688132 
L 172.825631 164.632892 
L 175.735821 164.467173 
L 179.616073 164.246214 
L 180.586136 164.190975 
L 181.5562 164.135735 
L 182.526263 164.080495 
L 183.496326 164.025255 
L 186.406515 163.859536 
L 191.256831 163.583338 
L 198.047273 163.19666 
L 200.957463 163.030941 
L 202.897589 162.920462 
L 208.717968 162.589023 
L 209.688031 162.533784 
L 213.568284 162.312825 
L 217.448536 162.091866 
L 218.418599 162.036626 
L 234.909673 161.097551 
L 241.700115 160.710874 
L 245.580368 160.489915 
L 247.520494 160.379435 
L 251.400747 160.158477 
L 255.280999 159.937518 
L 281.472705 158.446046 
L 287.293084 158.114608 
L 292.143399 157.838409 
L 293.113463 157.78317 
L 304.75422 157.120293 
L 311.544663 156.733615 
L 312.514726 156.678376 
L 328.035736 155.79454 
L 343.556747 154.910705 
L 345.496873 154.800226 
L 349.377126 154.579267 
L 355.197505 154.247829 
L 358.107694 154.08211 
L 362.95801 153.805911 
L 366.838262 153.584953 
L 383.329336 152.645878 
L 384.299399 152.590638 
L 392.059905 152.14872 
L 397.880284 151.817282 
L 419.221673 150.602009 
L 421.161799 150.491529 
" style="fill:none;stroke:#1f77b4;stroke-linecap:square;stroke-width:1.5;"/>
   </g>
   <g id="patch_3">
    <path d="M 56.09 303.64 
L 56.09 13.32 
" style="fill:none;stroke:#000000;stroke-linecap:square;stroke-linejoin:miter;stroke-width:0.8;"/>
   </g>
   <g id="patch_4">
    <path d="M 440.378298 303.64 
L 440.378298 13.32 
" style="fill:none;stroke:#000000;stroke-linecap:square;stroke-linejoin:miter;stroke-width:0.8;"/>
   </g>
   <g id="patch_5">
    <path d="M 56.09 303.64 
L 440.378298 303.64 
" style="fill:none;stroke:#000000;stroke-linecap:square;stroke-linejoin:miter;stroke-width:0.8;"/>
   </g>
   <g id="patch_6">
    <path d="M 56.09 13.32 
L 440.378298 13.32 
" style="fill:none;stroke:#000000;stroke-linecap:square;stroke-linejoin:miter;stroke-width:0.8;"/>
   </g>
  </g>
 </g>
 <defs>
  <clipPath id="p4c0591d4e5">
   <rect height="290.32" width="384.288298" x="56.09" y="13.32"/>
  </clipPath>
 </defs>
</svg>
