<?xml version="1.0" encoding="utf-8" standalone="no"?>
<!DOCTYPE svg PUBLIC "-//W3C//DTD SVG 1.1//EN"
  "http://www.w3.org/Graphics/SVG/1.1/DTD/svg11.dtd">
<!-- Created with matplotlib (http://matplotlib.org/) -->
<svg height="345.6pt" version="1.1" viewBox="0 0 460.8 345.6" width="460.8pt" xmlns="http://www.w3.org/2000/svg" xmlns:xlink="http://www.w3.org/1999/xlink">
 <defs>
  <style type="text/css">
*{stroke-linecap:butt;stroke-linejoin:round;}
  </style>
 </defs>
 <g id="figure_1">
  <g id="patch_1">
   <path d="M 0 345.6 
L 460.8 345.6 
L 460.8 0 
L 0 0 
z
" style="fill:#ffffff;"/>
  </g>
  <g id="axes_1">
   <g id="patch_2">
    <path d="M 57.6 307.584 
L 414.72 307.584 
L 414.72 41.472 
L 57.6 41.472 
z
" style="fill:#ffffff;"/>
   </g>
   <g id="63A">
    <defs>
     <path d="M 0 3 
C 0.795609 3 1.55874 2.683901 2.12132 2.12132 
C 2.683901 1.55874 3 0.795609 3 0 
C 3 -0.795609 2.683901 -1.55874 2.12132 -2.12132 
C 1.55874 -2.683901 0.795609 -3 0 -3 
C -0.795609 -3 -1.55874 -2.683901 -2.12132 -2.12132 
C -2.683901 -1.55874 -3 -0.795609 -3 0 
C -3 0.795609 -2.683901 1.55874 -2.12132 2.12132 
C -1.55874 2.683901 -0.795609 3 0 3 
z
" id="m1fd8a97f3b" style="stroke:#1f77b4;"/>
    </defs>
    <g clip-path="url(#p5b43ef93d7)">
     <use style="fill:#1f77b4;stroke:#1f77b4;" x="128.840004" xlink:href="#m1fd8a97f3b" y="173.498548"/>
    </g>
   </g>
   <g id="58A">
    <defs>
     <path d="M 0 3 
C 0.795609 3 1.55874 2.683901 2.12132 2.12132 
C 2.683901 1.55874 3 0.795609 3 0 
C 3 -0.795609 2.683901 -1.55874 2.12132 -2.12132 
C 1.55874 -2.683901 0.795609 -3 0 -3 
C -0.795609 -3 -1.55874 -2.683901 -2.12132 -2.12132 
C -2.683901 -1.55874 -3 -0.795609 -3 0 
C -3 0.795609 -2.683901 1.55874 -2.12132 2.12132 
C -1.55874 2.683901 -0.795609 3 0 3 
z
" id="ma035279949" style="stroke:#ff7f0e;"/>
    </defs>
    <g clip-path="url(#p5b43ef93d7)">
     <use style="fill:#ff7f0e;stroke:#ff7f0e;" x="111.716495" xlink:href="#ma035279949" y="186.415503"/>
    </g>
   </g>
   <g id="64A">
    <defs>
     <path d="M 0 3 
C 0.795609 3 1.55874 2.683901 2.12132 2.12132 
C 2.683901 1.55874 3 0.795609 3 0 
C 3 -0.795609 2.683901 -1.55874 2.12132 -2.12132 
C 1.55874 -2.683901 0.795609 -3 0 -3 
C -0.795609 -3 -1.55874 -2.683901 -2.12132 -2.12132 
C -2.683901 -1.55874 -3 -0.795609 -3 0 
C -3 0.795609 -2.683901 1.55874 -2.12132 2.12132 
C -1.55874 2.683901 -0.795609 3 0 3 
z
" id="m3014accfd7" style="stroke:#2ca02c;"/>
    </defs>
    <g clip-path="url(#p5b43ef93d7)">
     <use style="fill:#2ca02c;stroke:#2ca02c;" x="133.346191" xlink:href="#m3014accfd7" y="186.415503"/>
    </g>
   </g>
   <g id="61A">
    <defs>
     <path d="M 0 3 
C 0.795609 3 1.55874 2.683901 2.12132 2.12132 
C 2.683901 1.55874 3 0.795609 3 0 
C 3 -0.795609 2.683901 -1.55874 2.12132 -2.12132 
C 1.55874 -2.683901 0.795609 -3 0 -3 
C -0.795609 -3 -1.55874 -2.683901 -2.12132 -2.12132 
C -2.683901 -1.55874 -3 -0.795609 -3 0 
C -3 0.795609 -2.683901 1.55874 -2.12132 2.12132 
C -1.55874 2.683901 -0.795609 3 0 3 
z
" id="m730623e4a0" style="stroke:#d62728;"/>
    </defs>
    <g clip-path="url(#p5b43ef93d7)">
     <use style="fill:#d62728;stroke:#d62728;" x="92.790511" xlink:href="#m730623e4a0" y="186.415503"/>
    </g>
   </g>
   <g id="59A">
    <defs>
     <path d="M 0 3 
C 0.795609 3 1.55874 2.683901 2.12132 2.12132 
C 2.683901 1.55874 3 0.795609 3 0 
C 3 -0.795609 2.683901 -1.55874 2.12132 -2.12132 
C 1.55874 -2.683901 0.795609 -3 0 -3 
C -0.795609 -3 -1.55874 -2.683901 -2.12132 -2.12132 
C -2.683901 -1.55874 -3 -0.795609 -3 0 
C -3 0.795609 -2.683901 1.55874 -2.12132 2.12132 
C -1.55874 2.683901 -0.795609 3 0 3 
z
" id="m684df8af2b" style="stroke:#9467bd;"/>
    </defs>
    <g clip-path="url(#p5b43ef93d7)">
     <use style="fill:#9467bd;stroke:#9467bd;" x="111.716495" xlink:href="#m684df8af2b" y="186.415503"/>
    </g>
   </g>
   <g id="62A">
    <defs>
     <path d="M 0 3 
C 0.795609 3 1.55874 2.683901 2.12132 2.12132 
C 2.683901 1.55874 3 0.795609 3 0 
C 3 -0.795609 2.683901 -1.55874 2.12132 -2.12132 
C 1.55874 -2.683901 0.795609 -3 0 -3 
C -0.795609 -3 -1.55874 -2.683901 -2.12132 -2.12132 
C -2.683901 -1.55874 -3 -0.795609 -3 0 
C -3 0.795609 -2.683901 1.55874 -2.12132 2.12132 
C -1.55874 2.683901 -0.795609 3 0 3 
z
" id="md8ae9eb7ae" style="stroke:#8c564b;"/>
    </defs>
    <g clip-path="url(#p5b43ef93d7)">
     <use style="fill:#8c564b;stroke:#8c564b;" x="105.407834" xlink:href="#md8ae9eb7ae" y="196.129747"/>
    </g>
   </g>
   <g id="58B">
    <defs>
     <path d="M 0 3 
C 0.795609 3 1.55874 2.683901 2.12132 2.12132 
C 2.683901 1.55874 3 0.795609 3 0 
C 3 -0.795609 2.683901 -1.55874 2.12132 -2.12132 
C 1.55874 -2.683901 0.795609 -3 0 -3 
C -0.795609 -3 -1.55874 -2.683901 -2.12132 -2.12132 
C -2.683901 -1.55874 -3 -0.795609 -3 0 
C -3 0.795609 -2.683901 1.55874 -2.12132 2.12132 
C -1.55874 2.683901 -0.795609 3 0 3 
z
" id="m67dd87723e" style="stroke:#e377c2;"/>
    </defs>
    <g clip-path="url(#p5b43ef93d7)">
     <use style="fill:#e377c2;stroke:#e377c2;" x="110.815258" xlink:href="#m67dd87723e" y="186.415503"/>
    </g>
   </g>
   <g id="60A">
    <defs>
     <path d="M 0 3 
C 0.795609 3 1.55874 2.683901 2.12132 2.12132 
C 2.683901 1.55874 3 0.795609 3 0 
C 3 -0.795609 2.683901 -1.55874 2.12132 -2.12132 
C 1.55874 -2.683901 0.795609 -3 0 -3 
C -0.795609 -3 -1.55874 -2.683901 -2.12132 -2.12132 
C -2.683901 -1.55874 -3 -0.795609 -3 0 
C -3 0.795609 -2.683901 1.55874 -2.12132 2.12132 
C -1.55874 2.683901 -0.795609 3 0 3 
z
" id="m843efa5bdc" style="stroke:#7f7f7f;"/>
    </defs>
    <g clip-path="url(#p5b43ef93d7)">
     <use style="fill:#7f7f7f;stroke:#7f7f7f;" x="90.988037" xlink:href="#m843efa5bdc" y="211.693429"/>
    </g>
   </g>
   <g id="137A">
    <defs>
     <path d="M 0 3 
C 0.795609 3 1.55874 2.683901 2.12132 2.12132 
C 2.683901 1.55874 3 0.795609 3 0 
C 3 -0.795609 2.683901 -1.55874 2.12132 -2.12132 
C 1.55874 -2.683901 0.795609 -3 0 -3 
C -0.795609 -3 -1.55874 -2.683901 -2.12132 -2.12132 
C -2.683901 -1.55874 -3 -0.795609 -3 0 
C -3 0.795609 -2.683901 1.55874 -2.12132 2.12132 
C -1.55874 2.683901 -0.795609 3 0 3 
z
" id="mec146a6e91" style="stroke:#bcbd22;"/>
    </defs>
    <g clip-path="url(#p5b43ef93d7)">
     <use style="fill:#bcbd22;stroke:#bcbd22;" x="111.716495" xlink:href="#mec146a6e91" y="186.415503"/>
    </g>
   </g>
   <g id="134A">
    <defs>
     <path d="M 0 3 
C 0.795609 3 1.55874 2.683901 2.12132 2.12132 
C 2.683901 1.55874 3 0.795609 3 0 
C 3 -0.795609 2.683901 -1.55874 2.12132 -2.12132 
C 1.55874 -2.683901 0.795609 -3 0 -3 
C -0.795609 -3 -1.55874 -2.683901 -2.12132 -2.12132 
C -2.683901 -1.55874 -3 -0.795609 -3 0 
C -3 0.795609 -2.683901 1.55874 -2.12132 2.12132 
C -1.55874 2.683901 -0.795609 3 0 3 
z
" id="m276a980e35" style="stroke:#17becf;"/>
    </defs>
    <g clip-path="url(#p5b43ef93d7)">
     <use style="fill:#17becf;stroke:#17becf;" x="120.728868" xlink:href="#m276a980e35" y="138.226388"/>
    </g>
   </g>
   <g id="130A">
    <g clip-path="url(#p5b43ef93d7)">
     <use style="fill:#1f77b4;stroke:#1f77b4;" x="238.790956" xlink:href="#m1fd8a97f3b" y="186.415503"/>
    </g>
   </g>
   <g id="136B">
    <g clip-path="url(#p5b43ef93d7)">
     <use style="fill:#ff7f0e;stroke:#ff7f0e;" x="111.716495" xlink:href="#ma035279949" y="200.203463"/>
    </g>
   </g>
   <g id="132A">
    <g clip-path="url(#p5b43ef93d7)">
     <use style="fill:#2ca02c;stroke:#2ca02c;" x="120.728868" xlink:href="#m3014accfd7" y="161.275064"/>
    </g>
   </g>
   <g id="137B">
    <g clip-path="url(#p5b43ef93d7)">
     <use style="fill:#d62728;stroke:#d62728;" x="111.716495" xlink:href="#m730623e4a0" y="205.718647"/>
    </g>
   </g>
   <g id="131A">
    <g clip-path="url(#p5b43ef93d7)">
     <use style="fill:#9467bd;stroke:#9467bd;" x="109.91402" xlink:href="#m684df8af2b" y="186.415503"/>
    </g>
   </g>
   <g id="138A">
    <g clip-path="url(#p5b43ef93d7)">
     <use style="fill:#8c564b;stroke:#8c564b;" x="127.938767" xlink:href="#md8ae9eb7ae" y="194.334264"/>
    </g>
   </g>
   <g id="133A">
    <g clip-path="url(#p5b43ef93d7)">
     <use style="fill:#e377c2;stroke:#e377c2;" x="120.728868" xlink:href="#m67dd87723e" y="237.865019"/>
    </g>
   </g>
   <g id="129A">
    <g clip-path="url(#p5b43ef93d7)">
     <use style="fill:#7f7f7f;stroke:#7f7f7f;" x="242.395905" xlink:href="#m843efa5bdc" y="184.389104"/>
    </g>
   </g>
   <g id="135A">
    <g clip-path="url(#p5b43ef93d7)">
     <use style="fill:#bcbd22;stroke:#bcbd22;" x="120.728868" xlink:href="#mec146a6e91" y="186.415503"/>
    </g>
   </g>
   <g id="136A">
    <g clip-path="url(#p5b43ef93d7)">
     <use style="fill:#17becf;stroke:#17becf;" x="111.716495" xlink:href="#m276a980e35" y="186.415503"/>
    </g>
   </g>
   <g id="85A">
    <g clip-path="url(#p5b43ef93d7)">
     <use style="fill:#1f77b4;stroke:#1f77b4;" x="346.038196" xlink:href="#m1fd8a97f3b" y="160.13742"/>
    </g>
   </g>
   <g id="143F">
    <g clip-path="url(#p5b43ef93d7)">
     <use style="fill:#ff7f0e;stroke:#ff7f0e;" x="362.260468" xlink:href="#ma035279949" y="203.270587"/>
    </g>
   </g>
   <g id="96A">
    <g clip-path="url(#p5b43ef93d7)">
     <use style="fill:#2ca02c;stroke:#2ca02c;" x="272.136737" xlink:href="#m3014accfd7" y="187.492687"/>
    </g>
   </g>
   <g id="144X">
    <g clip-path="url(#p5b43ef93d7)">
     <use style="fill:#d62728;stroke:#d62728;" x="100.901647" xlink:href="#m730623e4a0" y="186.415503"/>
    </g>
   </g>
   <g id="144K">
    <g clip-path="url(#p5b43ef93d7)">
     <use style="fill:#9467bd;stroke:#9467bd;" x="173.000632" xlink:href="#m684df8af2b" y="186.415503"/>
    </g>
   </g>
   <g id="90B">
    <g clip-path="url(#p5b43ef93d7)">
     <use style="fill:#8c564b;stroke:#8c564b;" x="90.0868" xlink:href="#md8ae9eb7ae" y="186.415503"/>
    </g>
   </g>
   <g id="143B">
    <g clip-path="url(#p5b43ef93d7)">
     <use style="fill:#e377c2;stroke:#e377c2;" x="75.667003" xlink:href="#m67dd87723e" y="186.415503"/>
    </g>
   </g>
   <g id="144A">
    <g clip-path="url(#p5b43ef93d7)">
     <use style="fill:#7f7f7f;stroke:#7f7f7f;" x="335.223349" xlink:href="#m843efa5bdc" y="190.856859"/>
    </g>
   </g>
   <g id="89A">
    <g clip-path="url(#p5b43ef93d7)">
     <use style="fill:#bcbd22;stroke:#bcbd22;" x="329.815925" xlink:href="#mec146a6e91" y="125.10001"/>
    </g>
   </g>
   <g id="87A">
    <g clip-path="url(#p5b43ef93d7)">
     <use style="fill:#17becf;stroke:#17becf;" x="369.470367" xlink:href="#m276a980e35" y="181.706065"/>
    </g>
   </g>
   <g id="144I">
    <g clip-path="url(#p5b43ef93d7)">
     <use style="fill:#1f77b4;stroke:#1f77b4;" x="163.087022" xlink:href="#m1fd8a97f3b" y="185.981616"/>
    </g>
   </g>
   <g id="91A">
    <g clip-path="url(#p5b43ef93d7)">
     <use style="fill:#ff7f0e;stroke:#ff7f0e;" x="207.24765" xlink:href="#ma035279949" y="102.090092"/>
    </g>
   </g>
   <g id="143E">
    <g clip-path="url(#p5b43ef93d7)">
     <use style="fill:#2ca02c;stroke:#2ca02c;" x="362.260468" xlink:href="#m3014accfd7" y="179.612386"/>
    </g>
   </g>
   <g id="93A">
    <g clip-path="url(#p5b43ef93d7)">
     <use style="fill:#d62728;stroke:#d62728;" x="288.359008" xlink:href="#m730623e4a0" y="195.728662"/>
    </g>
   </g>
   <g id="144P">
    <g clip-path="url(#p5b43ef93d7)">
     <use style="fill:#9467bd;stroke:#9467bd;" x="145.062276" xlink:href="#m684df8af2b" y="186.415503"/>
    </g>
   </g>
   <g id="144L">
    <g clip-path="url(#p5b43ef93d7)">
     <use style="fill:#8c564b;stroke:#8c564b;" x="173.90187" xlink:href="#md8ae9eb7ae" y="209.674922"/>
    </g>
   </g>
   <g id="83A">
    <g clip-path="url(#p5b43ef93d7)">
     <use style="fill:#e377c2;stroke:#e377c2;" x="396.507486" xlink:href="#m67dd87723e" y="166.728895"/>
    </g>
   </g>
   <g id="144W">
    <g clip-path="url(#p5b43ef93d7)">
     <use style="fill:#7f7f7f;stroke:#7f7f7f;" x="100.901647" xlink:href="#m843efa5bdc" y="186.415503"/>
    </g>
   </g>
   <g id="95A">
    <g clip-path="url(#p5b43ef93d7)">
     <use style="fill:#bcbd22;stroke:#bcbd22;" x="337.927061" xlink:href="#mec146a6e91" y="169.939665"/>
    </g>
   </g>
   <g id="144Q">
    <g clip-path="url(#p5b43ef93d7)">
     <use style="fill:#17becf;stroke:#17becf;" x="145.062276" xlink:href="#m276a980e35" y="186.415503"/>
    </g>
   </g>
   <g id="144J">
    <g clip-path="url(#p5b43ef93d7)">
     <use style="fill:#1f77b4;stroke:#1f77b4;" x="173.000632" xlink:href="#m1fd8a97f3b" y="186.415503"/>
    </g>
   </g>
   <g id="144R">
    <g clip-path="url(#p5b43ef93d7)">
     <use style="fill:#ff7f0e;stroke:#ff7f0e;" x="145.062276" xlink:href="#ma035279949" y="186.415503"/>
    </g>
   </g>
   <g id="92A">
    <g clip-path="url(#p5b43ef93d7)">
     <use style="fill:#2ca02c;stroke:#2ca02c;" x="277.544161" xlink:href="#m3014accfd7" y="193.525155"/>
    </g>
   </g>
   <g id="94A">
    <g clip-path="url(#p5b43ef93d7)">
     <use style="fill:#d62728;stroke:#d62728;" x="233.383532" xlink:href="#m730623e4a0" y="186.415503"/>
    </g>
   </g>
   <g id="81A">
    <g clip-path="url(#p5b43ef93d7)">
     <use style="fill:#9467bd;stroke:#9467bd;" x="374.87779" xlink:href="#m684df8af2b" y="177.054947"/>
    </g>
   </g>
   <g id="144S">
    <g clip-path="url(#p5b43ef93d7)">
     <use style="fill:#8c564b;stroke:#8c564b;" x="164.889496" xlink:href="#md8ae9eb7ae" y="276.244531"/>
    </g>
   </g>
   <g id="84A">
    <g clip-path="url(#p5b43ef93d7)">
     <use style="fill:#e377c2;stroke:#e377c2;" x="189.222904" xlink:href="#m67dd87723e" y="186.415503"/>
    </g>
   </g>
   <g id="144V">
    <g clip-path="url(#p5b43ef93d7)">
     <use style="fill:#7f7f7f;stroke:#7f7f7f;" x="100.901647" xlink:href="#m843efa5bdc" y="186.415503"/>
    </g>
   </g>
   <g id="97A">
    <g clip-path="url(#p5b43ef93d7)">
     <use style="fill:#bcbd22;stroke:#bcbd22;" x="361.359231" xlink:href="#mec146a6e91" y="186.285899"/>
    </g>
   </g>
   <g id="90A">
    <g clip-path="url(#p5b43ef93d7)">
     <use style="fill:#17becf;stroke:#17becf;" x="266.729313" xlink:href="#m276a980e35" y="186.415503"/>
    </g>
   </g>
   <g id="88A">
    <g clip-path="url(#p5b43ef93d7)">
     <use style="fill:#1f77b4;stroke:#1f77b4;" x="342.433247" xlink:href="#m1fd8a97f3b" y="117.164093"/>
    </g>
   </g>
   <g id="86A">
    <g clip-path="url(#p5b43ef93d7)">
     <use style="fill:#ff7f0e;stroke:#ff7f0e;" x="361.359231" xlink:href="#ma035279949" y="122.065468"/>
    </g>
   </g>
   <g id="144D">
    <g clip-path="url(#p5b43ef93d7)">
     <use style="fill:#2ca02c;stroke:#2ca02c;" x="174.803107" xlink:href="#m3014accfd7" y="192.628729"/>
    </g>
   </g>
   <g id="144T">
    <g clip-path="url(#p5b43ef93d7)">
     <use style="fill:#d62728;stroke:#d62728;" x="100.901647" xlink:href="#m730623e4a0" y="186.415503"/>
    </g>
   </g>
   <g id="143G">
    <g clip-path="url(#p5b43ef93d7)">
     <use style="fill:#9467bd;stroke:#9467bd;" x="362.260468" xlink:href="#m684df8af2b" y="186.415503"/>
    </g>
   </g>
   <g id="82A">
    <g clip-path="url(#p5b43ef93d7)">
     <use style="fill:#8c564b;stroke:#8c564b;" x="394.705011" xlink:href="#md8ae9eb7ae" y="187.023795"/>
    </g>
   </g>
   <g id="144H">
    <g clip-path="url(#p5b43ef93d7)">
     <use style="fill:#e377c2;stroke:#e377c2;" x="163.087022" xlink:href="#m67dd87723e" y="186.415503"/>
    </g>
   </g>
   <g id="143A">
    <g clip-path="url(#p5b43ef93d7)">
     <use style="fill:#7f7f7f;stroke:#7f7f7f;" x="362.260468" xlink:href="#m843efa5bdc" y="182.15826"/>
    </g>
   </g>
   <g id="144B">
    <g clip-path="url(#p5b43ef93d7)">
     <use style="fill:#bcbd22;stroke:#bcbd22;" x="203.642701" xlink:href="#mec146a6e91" y="186.415503"/>
    </g>
   </g>
   <g id="90C">
    <g clip-path="url(#p5b43ef93d7)">
     <use style="fill:#17becf;stroke:#17becf;" x="229.778583" xlink:href="#m276a980e35" y="186.415503"/>
    </g>
   </g>
   <g id="20A">
    <g clip-path="url(#p5b43ef93d7)">
     <use style="fill:#1f77b4;stroke:#1f77b4;" x="97.296698" xlink:href="#m1fd8a97f3b" y="186.415503"/>
    </g>
   </g>
   <g id="27A">
    <g clip-path="url(#p5b43ef93d7)">
     <use style="fill:#ff7f0e;stroke:#ff7f0e;" x="154.074649" xlink:href="#ma035279949" y="182.787093"/>
    </g>
   </g>
   <g id="24A">
    <g clip-path="url(#p5b43ef93d7)">
     <use style="fill:#2ca02c;stroke:#2ca02c;" x="114.420207" xlink:href="#m3014accfd7" y="115.259783"/>
    </g>
   </g>
   <g id="21A">
    <g clip-path="url(#p5b43ef93d7)">
     <use style="fill:#d62728;stroke:#d62728;" x="96.395461" xlink:href="#m730623e4a0" y="193.372156"/>
    </g>
   </g>
   <g id="28A">
    <g clip-path="url(#p5b43ef93d7)">
     <use style="fill:#9467bd;stroke:#9467bd;" x="111.716495" xlink:href="#m684df8af2b" y="186.415503"/>
    </g>
   </g>
   <g id="23A">
    <g clip-path="url(#p5b43ef93d7)">
     <use style="fill:#8c564b;stroke:#8c564b;" x="114.420207" xlink:href="#md8ae9eb7ae" y="192.078415"/>
    </g>
   </g>
   <g id="21B">
    <g clip-path="url(#p5b43ef93d7)">
     <use style="fill:#e377c2;stroke:#e377c2;" x="96.395461" xlink:href="#m67dd87723e" y="186.415503"/>
    </g>
   </g>
   <g id="26A">
    <g clip-path="url(#p5b43ef93d7)">
     <use style="fill:#7f7f7f;stroke:#7f7f7f;" x="294.66767" xlink:href="#m843efa5bdc" y="183.7403"/>
    </g>
   </g>
   <g id="29A">
    <g clip-path="url(#p5b43ef93d7)">
     <use style="fill:#bcbd22;stroke:#bcbd22;" x="110.815258" xlink:href="#mec146a6e91" y="150.604687"/>
    </g>
   </g>
   <g id="25A">
    <g clip-path="url(#p5b43ef93d7)">
     <use style="fill:#17becf;stroke:#17becf;" x="114.420207" xlink:href="#m276a980e35" y="186.415503"/>
    </g>
   </g>
   <g id="25B">
    <g clip-path="url(#p5b43ef93d7)">
     <use style="fill:#1f77b4;stroke:#1f77b4;" x="114.420207" xlink:href="#m1fd8a97f3b" y="186.415503"/>
    </g>
   </g>
   <g id="22A">
    <g clip-path="url(#p5b43ef93d7)">
     <use style="fill:#ff7f0e;stroke:#ff7f0e;" x="94.592986" xlink:href="#ma035279949" y="186.415503"/>
    </g>
   </g>
   <g id="19A">
    <g clip-path="url(#p5b43ef93d7)">
     <use style="fill:#2ca02c;stroke:#2ca02c;" x="200.037752" xlink:href="#m3014accfd7" y="186.415503"/>
    </g>
   </g>
   <g id="14A">
    <g clip-path="url(#p5b43ef93d7)">
     <use style="fill:#d62728;stroke:#d62728;" x="191.926616" xlink:href="#m730623e4a0" y="184.342803"/>
    </g>
   </g>
   <g id="17A">
    <g clip-path="url(#p5b43ef93d7)">
     <use style="fill:#9467bd;stroke:#9467bd;" x="131.543716" xlink:href="#m684df8af2b" y="186.415503"/>
    </g>
   </g>
   <g id="11A">
    <g clip-path="url(#p5b43ef93d7)">
     <use style="fill:#8c564b;stroke:#8c564b;" x="199.136514" xlink:href="#md8ae9eb7ae" y="186.415503"/>
    </g>
   </g>
   <g id="5A">
    <g clip-path="url(#p5b43ef93d7)">
     <use style="fill:#e377c2;stroke:#e377c2;" x="200.037752" xlink:href="#m67dd87723e" y="92.576347"/>
    </g>
   </g>
   <g id="4A">
    <g clip-path="url(#p5b43ef93d7)">
     <use style="fill:#7f7f7f;stroke:#7f7f7f;" x="200.037752" xlink:href="#m843efa5bdc" y="196.154941"/>
    </g>
   </g>
   <g id="9A">
    <g clip-path="url(#p5b43ef93d7)">
     <use style="fill:#bcbd22;stroke:#bcbd22;" x="157.679598" xlink:href="#mec146a6e91" y="189.874274"/>
    </g>
   </g>
   <g id="12A">
    <g clip-path="url(#p5b43ef93d7)">
     <use style="fill:#17becf;stroke:#17becf;" x="175.704344" xlink:href="#m276a980e35" y="172.579157"/>
    </g>
   </g>
   <g id="6A">
    <g clip-path="url(#p5b43ef93d7)">
     <use style="fill:#1f77b4;stroke:#1f77b4;" x="200.037752" xlink:href="#m1fd8a97f3b" y="186.415503"/>
    </g>
   </g>
   <g id="2A">
    <g clip-path="url(#p5b43ef93d7)">
     <use style="fill:#ff7f0e;stroke:#ff7f0e;" x="200.037752" xlink:href="#ma035279949" y="179.061925"/>
    </g>
   </g>
   <g id="15A">
    <g clip-path="url(#p5b43ef93d7)">
     <use style="fill:#2ca02c;stroke:#2ca02c;" x="191.926616" xlink:href="#m3014accfd7" y="191.259312"/>
    </g>
   </g>
   <g id="3A">
    <g clip-path="url(#p5b43ef93d7)">
     <use style="fill:#d62728;stroke:#d62728;" x="200.037752" xlink:href="#m730623e4a0" y="195.583287"/>
    </g>
   </g>
   <g id="7A">
    <g clip-path="url(#p5b43ef93d7)">
     <use style="fill:#9467bd;stroke:#9467bd;" x="200.037752" xlink:href="#m684df8af2b" y="186.415503"/>
    </g>
   </g>
   <g id="13A">
    <g clip-path="url(#p5b43ef93d7)">
     <use style="fill:#8c564b;stroke:#8c564b;" x="182.914243" xlink:href="#md8ae9eb7ae" y="186.415503"/>
    </g>
   </g>
   <g id="8A">
    <g clip-path="url(#p5b43ef93d7)">
     <use style="fill:#e377c2;stroke:#e377c2;" x="200.037752" xlink:href="#m67dd87723e" y="186.415503"/>
    </g>
   </g>
   <g id="16A">
    <g clip-path="url(#p5b43ef93d7)">
     <use style="fill:#7f7f7f;stroke:#7f7f7f;" x="191.926616" xlink:href="#m843efa5bdc" y="192.160486"/>
    </g>
   </g>
   <g id="18A">
    <g clip-path="url(#p5b43ef93d7)">
     <use style="fill:#bcbd22;stroke:#bcbd22;" x="200.037752" xlink:href="#mec146a6e91" y="186.415503"/>
    </g>
   </g>
   <g id="10A">
    <g clip-path="url(#p5b43ef93d7)">
     <use style="fill:#17becf;stroke:#17becf;" x="120.728868" xlink:href="#m276a980e35" y="186.415503"/>
    </g>
   </g>
   <g id="1A">
    <g clip-path="url(#p5b43ef93d7)">
     <use style="fill:#1f77b4;stroke:#1f77b4;" x="199.136514" xlink:href="#m1fd8a97f3b" y="154.775764"/>
    </g>
   </g>
   <g id="80A">
    <g clip-path="url(#p5b43ef93d7)">
     <use style="fill:#ff7f0e;stroke:#ff7f0e;" x="111.716495" xlink:href="#ma035279949" y="186.415503"/>
    </g>
   </g>
   <g id="75A">
    <g clip-path="url(#p5b43ef93d7)">
     <use style="fill:#2ca02c;stroke:#2ca02c;" x="127.938767" xlink:href="#m3014accfd7" y="118.451287"/>
    </g>
   </g>
   <g id="66A">
    <g clip-path="url(#p5b43ef93d7)">
     <use style="fill:#d62728;stroke:#d62728;" x="127.037529" xlink:href="#m730623e4a0" y="266.370119"/>
    </g>
   </g>
   <g id="78A">
    <g clip-path="url(#p5b43ef93d7)">
     <use style="fill:#9467bd;stroke:#9467bd;" x="165.790734" xlink:href="#m684df8af2b" y="177.481112"/>
    </g>
   </g>
   <g id="77A">
    <g clip-path="url(#p5b43ef93d7)">
     <use style="fill:#8c564b;stroke:#8c564b;" x="165.790734" xlink:href="#md8ae9eb7ae" y="139.13254"/>
    </g>
   </g>
   <g id="71A">
    <g clip-path="url(#p5b43ef93d7)">
     <use style="fill:#e377c2;stroke:#e377c2;" x="178.408056" xlink:href="#m67dd87723e" y="184.423348"/>
    </g>
   </g>
   <g id="65A">
    <g clip-path="url(#p5b43ef93d7)">
     <use style="fill:#7f7f7f;stroke:#7f7f7f;" x="127.037529" xlink:href="#m843efa5bdc" y="102.646991"/>
    </g>
   </g>
   <g id="73A">
    <g clip-path="url(#p5b43ef93d7)">
     <use style="fill:#bcbd22;stroke:#bcbd22;" x="138.753614" xlink:href="#mec146a6e91" y="186.415503"/>
    </g>
   </g>
   <g id="74A">
    <g clip-path="url(#p5b43ef93d7)">
     <use style="fill:#17becf;stroke:#17becf;" x="129.741241" xlink:href="#m276a980e35" y="186.415503"/>
    </g>
   </g>
   <g id="72A">
    <g clip-path="url(#p5b43ef93d7)">
     <use style="fill:#1f77b4;stroke:#1f77b4;" x="168.494446" xlink:href="#m1fd8a97f3b" y="196.905655"/>
    </g>
   </g>
   <g id="76A">
    <g clip-path="url(#p5b43ef93d7)">
     <use style="fill:#ff7f0e;stroke:#ff7f0e;" x="121.630105" xlink:href="#ma035279949" y="136.598292"/>
    </g>
   </g>
   <g id="79B">
    <g clip-path="url(#p5b43ef93d7)">
     <use style="fill:#2ca02c;stroke:#2ca02c;" x="111.716495" xlink:href="#m3014accfd7" y="186.415503"/>
    </g>
   </g>
   <g id="67A">
    <g clip-path="url(#p5b43ef93d7)">
     <use style="fill:#d62728;stroke:#d62728;" x="127.037529" xlink:href="#m730623e4a0" y="265.421091"/>
    </g>
   </g>
   <g id="70A">
    <g clip-path="url(#p5b43ef93d7)">
     <use style="fill:#9467bd;stroke:#9467bd;" x="193.729091" xlink:href="#m684df8af2b" y="199.495874"/>
    </g>
   </g>
   <g id="79A">
    <g clip-path="url(#p5b43ef93d7)">
     <use style="fill:#8c564b;stroke:#8c564b;" x="111.716495" xlink:href="#md8ae9eb7ae" y="186.415503"/>
    </g>
   </g>
   <g id="69A">
    <g clip-path="url(#p5b43ef93d7)">
     <use style="fill:#e377c2;stroke:#e377c2;" x="326.210975" xlink:href="#m67dd87723e" y="189.017105"/>
    </g>
   </g>
   <g id="68A">
    <g clip-path="url(#p5b43ef93d7)">
     <use style="fill:#7f7f7f;stroke:#7f7f7f;" x="127.037529" xlink:href="#m843efa5bdc" y="224.513813"/>
    </g>
   </g>
   <g id="101A">
    <g clip-path="url(#p5b43ef93d7)">
     <use style="fill:#bcbd22;stroke:#bcbd22;" x="235.186007" xlink:href="#mec146a6e91" y="185.923076"/>
    </g>
   </g>
   <g id="113A">
    <g clip-path="url(#p5b43ef93d7)">
     <use style="fill:#17becf;stroke:#17becf;" x="133.346191" xlink:href="#m276a980e35" y="159.276306"/>
    </g>
   </g>
   <g id="104A">
    <g clip-path="url(#p5b43ef93d7)">
     <use style="fill:#1f77b4;stroke:#1f77b4;" x="162.185785" xlink:href="#m1fd8a97f3b" y="198.764452"/>
    </g>
   </g>
   <g id="105A">
    <g clip-path="url(#p5b43ef93d7)">
     <use style="fill:#ff7f0e;stroke:#ff7f0e;" x="148.667225" xlink:href="#ma035279949" y="216.021229"/>
    </g>
   </g>
   <g id="99A">
    <g clip-path="url(#p5b43ef93d7)">
     <use style="fill:#2ca02c;stroke:#2ca02c;" x="107.210308" xlink:href="#m3014accfd7" y="190.309465"/>
    </g>
   </g>
   <g id="116A">
    <g clip-path="url(#p5b43ef93d7)">
     <use style="fill:#d62728;stroke:#d62728;" x="295.568907" xlink:href="#m730623e4a0" y="183.351512"/>
    </g>
   </g>
   <g id="117A">
    <g clip-path="url(#p5b43ef93d7)">
     <use style="fill:#9467bd;stroke:#9467bd;" x="129.741241" xlink:href="#m684df8af2b" y="196.042886"/>
    </g>
   </g>
   <g id="119A">
    <g clip-path="url(#p5b43ef93d7)">
     <use style="fill:#8c564b;stroke:#8c564b;" x="172.099395" xlink:href="#md8ae9eb7ae" y="170.263893"/>
    </g>
   </g>
   <g id="98A">
    <g clip-path="url(#p5b43ef93d7)">
     <use style="fill:#e377c2;stroke:#e377c2;" x="110.815258" xlink:href="#m67dd87723e" y="186.415503"/>
    </g>
   </g>
   <g id="106A">
    <g clip-path="url(#p5b43ef93d7)">
     <use style="fill:#7f7f7f;stroke:#7f7f7f;" x="105.407834" xlink:href="#m843efa5bdc" y="186.415503"/>
    </g>
   </g>
   <g id="100A">
    <g clip-path="url(#p5b43ef93d7)">
     <use style="fill:#bcbd22;stroke:#bcbd22;" x="163.087022" xlink:href="#mec146a6e91" y="189.173095"/>
    </g>
   </g>
   <g id="112A">
    <g clip-path="url(#p5b43ef93d7)">
     <use style="fill:#17becf;stroke:#17becf;" x="324.408501" xlink:href="#m276a980e35" y="195.440259"/>
    </g>
   </g>
   <g id="118A">
    <g clip-path="url(#p5b43ef93d7)">
     <use style="fill:#1f77b4;stroke:#1f77b4;" x="172.099395" xlink:href="#m1fd8a97f3b" y="109.209707"/>
    </g>
   </g>
   <g id="103A">
    <g clip-path="url(#p5b43ef93d7)">
     <use style="fill:#ff7f0e;stroke:#ff7f0e;" x="163.087022" xlink:href="#ma035279949" y="189.173095"/>
    </g>
   </g>
   <g id="102A">
    <g clip-path="url(#p5b43ef93d7)">
     <use style="fill:#2ca02c;stroke:#2ca02c;" x="163.087022" xlink:href="#m3014accfd7" y="180.210921"/>
    </g>
   </g>
   <g id="110A">
    <g clip-path="url(#p5b43ef93d7)">
     <use style="fill:#d62728;stroke:#d62728;" x="92.790511" xlink:href="#m730623e4a0" y="213.747696"/>
    </g>
   </g>
   <g id="108A">
    <g clip-path="url(#p5b43ef93d7)">
     <use style="fill:#9467bd;stroke:#9467bd;" x="110.815258" xlink:href="#m684df8af2b" y="186.415503"/>
    </g>
   </g>
   <g id="115A">
    <g clip-path="url(#p5b43ef93d7)">
     <use style="fill:#8c564b;stroke:#8c564b;" x="113.51897" xlink:href="#md8ae9eb7ae" y="186.415503"/>
    </g>
   </g>
   <g id="121A">
    <g clip-path="url(#p5b43ef93d7)">
     <use style="fill:#e377c2;stroke:#e377c2;" x="107.210308" xlink:href="#m67dd87723e" y="145.506172"/>
    </g>
   </g>
   <g id="107A">
    <g clip-path="url(#p5b43ef93d7)">
     <use style="fill:#7f7f7f;stroke:#7f7f7f;" x="160.38331" xlink:href="#m843efa5bdc" y="179.205549"/>
    </g>
   </g>
   <g id="114A">
    <g clip-path="url(#p5b43ef93d7)">
     <use style="fill:#bcbd22;stroke:#bcbd22;" x="133.346191" xlink:href="#mec146a6e91" y="175.307556"/>
    </g>
   </g>
   <g id="108B">
    <g clip-path="url(#p5b43ef93d7)">
     <use style="fill:#17becf;stroke:#17becf;" x="108.111546" xlink:href="#m276a980e35" y="186.415503"/>
    </g>
   </g>
   <g id="109A">
    <g clip-path="url(#p5b43ef93d7)">
     <use style="fill:#1f77b4;stroke:#1f77b4;" x="109.012783" xlink:href="#m1fd8a97f3b" y="174.597252"/>
    </g>
   </g>
   <g id="109B">
    <g clip-path="url(#p5b43ef93d7)">
     <use style="fill:#ff7f0e;stroke:#ff7f0e;" x="109.012783" xlink:href="#ma035279949" y="186.415503"/>
    </g>
   </g>
   <g id="120A">
    <g clip-path="url(#p5b43ef93d7)">
     <use style="fill:#2ca02c;stroke:#2ca02c;" x="172.099395" xlink:href="#m3014accfd7" y="191.182676"/>
    </g>
   </g>
   <g id="111A">
    <g clip-path="url(#p5b43ef93d7)">
     <use style="fill:#d62728;stroke:#d62728;" x="138.753614" xlink:href="#m730623e4a0" y="186.415503"/>
    </g>
   </g>
   <g id="142A">
    <g clip-path="url(#p5b43ef93d7)">
     <use style="fill:#9467bd;stroke:#9467bd;" x="91.889274" xlink:href="#m684df8af2b" y="186.415503"/>
    </g>
   </g>
   <g id="32A">
    <g clip-path="url(#p5b43ef93d7)">
     <use style="fill:#8c564b;stroke:#8c564b;" x="117.123919" xlink:href="#md8ae9eb7ae" y="191.281842"/>
    </g>
   </g>
   <g id="37A">
    <g clip-path="url(#p5b43ef93d7)">
     <use style="fill:#e377c2;stroke:#e377c2;" x="223.469922" xlink:href="#m67dd87723e" y="201.98447"/>
    </g>
   </g>
   <g id="42A">
    <g clip-path="url(#p5b43ef93d7)">
     <use style="fill:#7f7f7f;stroke:#7f7f7f;" x="108.111546" xlink:href="#m843efa5bdc" y="186.415503"/>
    </g>
   </g>
   <g id="48A">
    <g clip-path="url(#p5b43ef93d7)">
     <use style="fill:#bcbd22;stroke:#bcbd22;" x="163.988259" xlink:href="#mec146a6e91" y="186.415503"/>
    </g>
   </g>
   <g id="56A">
    <g clip-path="url(#p5b43ef93d7)">
     <use style="fill:#17becf;stroke:#17becf;" x="83.778138" xlink:href="#m276a980e35" y="55.232915"/>
    </g>
   </g>
   <g id="45A">
    <g clip-path="url(#p5b43ef93d7)">
     <use style="fill:#1f77b4;stroke:#1f77b4;" x="124.333817" xlink:href="#m1fd8a97f3b" y="221.016716"/>
    </g>
   </g>
   <g id="33A">
    <g clip-path="url(#p5b43ef93d7)">
     <use style="fill:#ff7f0e;stroke:#ff7f0e;" x="309.988704" xlink:href="#ma035279949" y="203.373048"/>
    </g>
   </g>
   <g id="47A">
    <g clip-path="url(#p5b43ef93d7)">
     <use style="fill:#2ca02c;stroke:#2ca02c;" x="111.716495" xlink:href="#m3014accfd7" y="99.328215"/>
    </g>
   </g>
   <g id="53A">
    <g clip-path="url(#p5b43ef93d7)">
     <use style="fill:#d62728;stroke:#d62728;" x="154.074649" xlink:href="#m730623e4a0" y="200.755124"/>
    </g>
   </g>
   <g id="30A">
    <g clip-path="url(#p5b43ef93d7)">
     <use style="fill:#9467bd;stroke:#9467bd;" x="117.123919" xlink:href="#m684df8af2b" y="186.415503"/>
    </g>
   </g>
   <g id="46A">
    <g clip-path="url(#p5b43ef93d7)">
     <use style="fill:#8c564b;stroke:#8c564b;" x="129.741241" xlink:href="#md8ae9eb7ae" y="153.23349"/>
    </g>
   </g>
   <g id="55A">
    <g clip-path="url(#p5b43ef93d7)">
     <use style="fill:#e377c2;stroke:#e377c2;" x="145.963513" xlink:href="#m67dd87723e" y="181.549164"/>
    </g>
   </g>
   <g id="40A">
    <g clip-path="url(#p5b43ef93d7)">
     <use style="fill:#7f7f7f;stroke:#7f7f7f;" x="110.815258" xlink:href="#m843efa5bdc" y="199.646641"/>
    </g>
   </g>
   <g id="39A">
    <g clip-path="url(#p5b43ef93d7)">
     <use style="fill:#bcbd22;stroke:#bcbd22;" x="110.815258" xlink:href="#mec146a6e91" y="180.506378"/>
    </g>
   </g>
   <g id="57A">
    <g clip-path="url(#p5b43ef93d7)">
     <use style="fill:#17becf;stroke:#17becf;" x="276.642923" xlink:href="#m276a980e35" y="121.7903"/>
    </g>
   </g>
   <g id="41A">
    <g clip-path="url(#p5b43ef93d7)">
     <use style="fill:#1f77b4;stroke:#1f77b4;" x="112.617732" xlink:href="#m1fd8a97f3b" y="162.78321"/>
    </g>
   </g>
   <g id="51A">
    <g clip-path="url(#p5b43ef93d7)">
     <use style="fill:#ff7f0e;stroke:#ff7f0e;" x="288.359008" xlink:href="#ma035279949" y="129.47647"/>
    </g>
   </g>
   <g id="44A">
    <g clip-path="url(#p5b43ef93d7)">
     <use style="fill:#2ca02c;stroke:#2ca02c;" x="162.185785" xlink:href="#m3014accfd7" y="186.415503"/>
    </g>
   </g>
   <g id="31A">
    <g clip-path="url(#p5b43ef93d7)">
     <use style="fill:#d62728;stroke:#d62728;" x="117.123919" xlink:href="#m730623e4a0" y="186.145151"/>
    </g>
   </g>
   <g id="38A">
    <g clip-path="url(#p5b43ef93d7)">
     <use style="fill:#9467bd;stroke:#9467bd;" x="208.148888" xlink:href="#m684df8af2b" y="220.500907"/>
    </g>
   </g>
   <g id="54A">
    <g clip-path="url(#p5b43ef93d7)">
     <use style="fill:#8c564b;stroke:#8c564b;" x="113.51897" xlink:href="#md8ae9eb7ae" y="293.488859"/>
    </g>
   </g>
   <g id="35A">
    <g clip-path="url(#p5b43ef93d7)">
     <use style="fill:#e377c2;stroke:#e377c2;" x="123.43258" xlink:href="#m67dd87723e" y="186.415503"/>
    </g>
   </g>
   <g id="49A">
    <g clip-path="url(#p5b43ef93d7)">
     <use style="fill:#7f7f7f;stroke:#7f7f7f;" x="132.444953" xlink:href="#m843efa5bdc" y="186.415503"/>
    </g>
   </g>
   <g id="50A">
    <g clip-path="url(#p5b43ef93d7)">
     <use style="fill:#bcbd22;stroke:#bcbd22;" x="132.444953" xlink:href="#mec146a6e91" y="166.9244"/>
    </g>
   </g>
   <g id="43A">
    <g clip-path="url(#p5b43ef93d7)">
     <use style="fill:#17becf;stroke:#17becf;" x="114.420207" xlink:href="#m276a980e35" y="186.415503"/>
    </g>
   </g>
   <g id="52A">
    <g clip-path="url(#p5b43ef93d7)">
     <use style="fill:#1f77b4;stroke:#1f77b4;" x="140.556089" xlink:href="#m1fd8a97f3b" y="199.44483"/>
    </g>
   </g>
   <g id="36A">
    <g clip-path="url(#p5b43ef93d7)">
     <use style="fill:#ff7f0e;stroke:#ff7f0e;" x="122.531343" xlink:href="#ma035279949" y="227.779382"/>
    </g>
   </g>
   <g id="34A">
    <g clip-path="url(#p5b43ef93d7)">
     <use style="fill:#2ca02c;stroke:#2ca02c;" x="124.333817" xlink:href="#m3014accfd7" y="173.394521"/>
    </g>
   </g>
   <g id="126A">
    <g clip-path="url(#p5b43ef93d7)">
     <use style="fill:#d62728;stroke:#d62728;" x="109.012783" xlink:href="#m730623e4a0" y="186.415503"/>
    </g>
   </g>
   <g id="125A">
    <g clip-path="url(#p5b43ef93d7)">
     <use style="fill:#9467bd;stroke:#9467bd;" x="107.210308" xlink:href="#m684df8af2b" y="192.324629"/>
    </g>
   </g>
   <g id="122A">
    <g clip-path="url(#p5b43ef93d7)">
     <use style="fill:#8c564b;stroke:#8c564b;" x="104.506597" xlink:href="#md8ae9eb7ae" y="186.415503"/>
    </g>
   </g>
   <g id="127A">
    <g clip-path="url(#p5b43ef93d7)">
     <use style="fill:#e377c2;stroke:#e377c2;" x="108.111546" xlink:href="#m67dd87723e" y="192.324629"/>
    </g>
   </g>
   <g id="128A">
    <g clip-path="url(#p5b43ef93d7)">
     <use style="fill:#7f7f7f;stroke:#7f7f7f;" x="94.592986" xlink:href="#m843efa5bdc" y="186.415503"/>
    </g>
   </g>
   <g id="124A">
    <g clip-path="url(#p5b43ef93d7)">
     <use style="fill:#bcbd22;stroke:#bcbd22;" x="132.444953" xlink:href="#mec146a6e91" y="183.132656"/>
    </g>
   </g>
   <g id="123A">
    <g clip-path="url(#p5b43ef93d7)">
     <use style="fill:#17becf;stroke:#17becf;" x="92.790511" xlink:href="#m276a980e35" y="180.900319"/>
    </g>
   </g>
   <g id="matplotlib.axis_1">
    <g id="xtick_1">
     <g id="line2d_1">
      <defs>
       <path d="M 0 0 
L 0 3.5 
" id="m71eab5dc42" style="stroke:#000000;stroke-width:0.8;"/>
      </defs>
      <g>
       <use style="stroke:#000000;stroke-width:0.8;" x="99.099173" xlink:href="#m71eab5dc42" y="307.584"/>
      </g>
     </g>
     <g id="text_1">
      <text style="font-family:DejaVu Sans;font-size:10px;font-style:normal;font-weight:normal;text-anchor:middle;" transform="rotate(-0, 99.099173, 322.182437)" x="99.099173" y="322.182437">50</text>
     </g>
    </g>
    <g id="xtick_2">
     <g id="line2d_2">
      <g>
       <use style="stroke:#000000;stroke-width:0.8;" x="144.161038" xlink:href="#m71eab5dc42" y="307.584"/>
      </g>
     </g>
     <g id="text_2">
      <text style="font-family:DejaVu Sans;font-size:10px;font-style:normal;font-weight:normal;text-anchor:middle;" transform="rotate(-0, 144.161038, 322.182437)" x="144.161038" y="322.182437">100</text>
     </g>
    </g>
    <g id="xtick_3">
     <g id="line2d_3">
      <g>
       <use style="stroke:#000000;stroke-width:0.8;" x="189.222904" xlink:href="#m71eab5dc42" y="307.584"/>
      </g>
     </g>
     <g id="text_3">
      <text style="font-family:DejaVu Sans;font-size:10px;font-style:normal;font-weight:normal;text-anchor:middle;" transform="rotate(-0, 189.222904, 322.182437)" x="189.222904" y="322.182437">150</text>
     </g>
    </g>
    <g id="xtick_4">
     <g id="line2d_4">
      <g>
       <use style="stroke:#000000;stroke-width:0.8;" x="234.28477" xlink:href="#m71eab5dc42" y="307.584"/>
      </g>
     </g>
     <g id="text_4">
      <text style="font-family:DejaVu Sans;font-size:10px;font-style:normal;font-weight:normal;text-anchor:middle;" transform="rotate(-0, 234.28477, 322.182437)" x="234.28477" y="322.182437">200</text>
     </g>
    </g>
    <g id="xtick_5">
     <g id="line2d_5">
      <g>
       <use style="stroke:#000000;stroke-width:0.8;" x="279.346635" xlink:href="#m71eab5dc42" y="307.584"/>
      </g>
     </g>
     <g id="text_5">
      <text style="font-family:DejaVu Sans;font-size:10px;font-style:normal;font-weight:normal;text-anchor:middle;" transform="rotate(-0, 279.346635, 322.182437)" x="279.346635" y="322.182437">250</text>
     </g>
    </g>
    <g id="xtick_6">
     <g id="line2d_6">
      <g>
       <use style="stroke:#000000;stroke-width:0.8;" x="324.408501" xlink:href="#m71eab5dc42" y="307.584"/>
      </g>
     </g>
     <g id="text_6">
      <text style="font-family:DejaVu Sans;font-size:10px;font-style:normal;font-weight:normal;text-anchor:middle;" transform="rotate(-0, 324.408501, 322.182437)" x="324.408501" y="322.182437">300</text>
     </g>
    </g>
    <g id="xtick_7">
     <g id="line2d_7">
      <g>
       <use style="stroke:#000000;stroke-width:0.8;" x="369.470367" xlink:href="#m71eab5dc42" y="307.584"/>
      </g>
     </g>
     <g id="text_7">
      <text style="font-family:DejaVu Sans;font-size:10px;font-style:normal;font-weight:normal;text-anchor:middle;" transform="rotate(-0, 369.470367, 322.182437)" x="369.470367" y="322.182437">350</text>
     </g>
    </g>
    <g id="xtick_8">
     <g id="line2d_8">
      <g>
       <use style="stroke:#000000;stroke-width:0.8;" x="414.532232" xlink:href="#m71eab5dc42" y="307.584"/>
      </g>
     </g>
     <g id="text_8">
      <text style="font-family:DejaVu Sans;font-size:10px;font-style:normal;font-weight:normal;text-anchor:middle;" transform="rotate(-0, 414.532232, 322.182437)" x="414.532232" y="322.182437">400</text>
     </g>
    </g>
    <g id="text_9">
     <text style="font-family:DejaVu Sans;font-size:10px;font-style:normal;font-weight:normal;text-anchor:middle;" transform="rotate(-0, 236.16, 335.860562)" x="236.16" y="335.860562">Amount of languages tested</text>
    </g>
   </g>
   <g id="matplotlib.axis_2">
    <g id="ytick_1">
     <g id="line2d_9">
      <defs>
       <path d="M 0 0 
L -3.5 0 
" id="m0a814a4e00" style="stroke:#000000;stroke-width:0.8;"/>
      </defs>
      <g>
       <use style="stroke:#000000;stroke-width:0.8;" x="57.6" xlink:href="#m0a814a4e00" y="269.143261"/>
      </g>
     </g>
     <g id="text_10">
      <text style="font-family:DejaVu Sans;font-size:10px;font-style:normal;font-weight:normal;text-anchor:end;" transform="rotate(-0, 50.6, 272.94248)" x="50.6" y="272.94248">−0.2</text>
     </g>
    </g>
    <g id="ytick_2">
     <g id="line2d_10">
      <g>
       <use style="stroke:#000000;stroke-width:0.8;" x="57.6" xlink:href="#m0a814a4e00" y="227.779382"/>
      </g>
     </g>
     <g id="text_11">
      <text style="font-family:DejaVu Sans;font-size:10px;font-style:normal;font-weight:normal;text-anchor:end;" transform="rotate(-0, 50.6, 231.578601)" x="50.6" y="231.578601">−0.1</text>
     </g>
    </g>
    <g id="ytick_3">
     <g id="line2d_11">
      <g>
       <use style="stroke:#000000;stroke-width:0.8;" x="57.6" xlink:href="#m0a814a4e00" y="186.415503"/>
      </g>
     </g>
     <g id="text_12">
      <text style="font-family:DejaVu Sans;font-size:10px;font-style:normal;font-weight:normal;text-anchor:end;" transform="rotate(-0, 50.6, 190.214722)" x="50.6" y="190.214722">0.0</text>
     </g>
    </g>
    <g id="ytick_4">
     <g id="line2d_12">
      <g>
       <use style="stroke:#000000;stroke-width:0.8;" x="57.6" xlink:href="#m0a814a4e00" y="145.051624"/>
      </g>
     </g>
     <g id="text_13">
      <text style="font-family:DejaVu Sans;font-size:10px;font-style:normal;font-weight:normal;text-anchor:end;" transform="rotate(-0, 50.6, 148.850843)" x="50.6" y="148.850843">0.1</text>
     </g>
    </g>
    <g id="ytick_5">
     <g id="line2d_13">
      <g>
       <use style="stroke:#000000;stroke-width:0.8;" x="57.6" xlink:href="#m0a814a4e00" y="103.687745"/>
      </g>
     </g>
     <g id="text_14">
      <text style="font-family:DejaVu Sans;font-size:10px;font-style:normal;font-weight:normal;text-anchor:end;" transform="rotate(-0, 50.6, 107.486964)" x="50.6" y="107.486964">0.2</text>
     </g>
    </g>
    <g id="ytick_6">
     <g id="line2d_14">
      <g>
       <use style="stroke:#000000;stroke-width:0.8;" x="57.6" xlink:href="#m0a814a4e00" y="62.323866"/>
      </g>
     </g>
     <g id="text_15">
      <text style="font-family:DejaVu Sans;font-size:10px;font-style:normal;font-weight:normal;text-anchor:end;" transform="rotate(-0, 50.6, 66.123085)" x="50.6" y="66.123085">0.3</text>
     </g>
    </g>
    <g id="text_16">
     <text style="font-family:DejaVu Sans;font-size:10px;font-style:normal;font-weight:normal;text-anchor:middle;" transform="rotate(-90, 20.2375, 174.528)" x="20.2375" y="174.528">Score minus base</text>
    </g>
   </g>
   <g id="line2d_15">
    <path clip-path="url(#p5b43ef93d7)" d="M 75.667003 186.65073 
L 83.778138 186.294124 
L 90.0868 186.016763 
L 90.988037 185.97714 
L 91.889274 185.937517 
L 92.790511 185.897894 
L 94.592986 185.818648 
L 96.395461 185.739402 
L 97.296698 185.699779 
L 100.901647 185.541288 
L 104.506597 185.382796 
L 105.407834 185.343173 
L 107.210308 185.263927 
L 108.111546 185.224304 
L 109.012783 185.184681 
L 109.91402 185.145058 
L 110.815258 185.105435 
L 111.716495 185.065812 
L 112.617732 185.026189 
L 113.51897 184.986566 
L 114.420207 184.946944 
L 117.123919 184.828075 
L 120.728868 184.669583 
L 121.630105 184.62996 
L 122.531343 184.590337 
L 123.43258 184.550714 
L 124.333817 184.511091 
L 127.037529 184.392222 
L 127.938767 184.352599 
L 128.840004 184.312976 
L 129.741241 184.273354 
L 131.543716 184.194108 
L 132.444953 184.154485 
L 133.346191 184.114862 
L 138.753614 183.877124 
L 140.556089 183.797878 
L 145.062276 183.599763 
L 145.963513 183.560141 
L 148.667225 183.441272 
L 154.074649 183.203534 
L 157.679598 183.045042 
L 160.38331 182.926173 
L 162.185785 182.846928 
L 163.087022 182.807305 
L 163.988259 182.767682 
L 164.889496 182.728059 
L 165.790734 182.688436 
L 168.494446 182.569567 
L 172.099395 182.411075 
L 173.000632 182.371452 
L 173.90187 182.331829 
L 174.803107 182.292206 
L 175.704344 182.252583 
L 178.408056 182.133715 
L 182.914243 181.9356 
L 189.222904 181.658239 
L 191.926616 181.53937 
L 193.729091 181.460125 
L 199.136514 181.222387 
L 200.037752 181.182764 
L 203.642701 181.024272 
L 207.24765 180.86578 
L 208.148888 180.826157 
L 223.469922 180.152567 
L 229.778583 179.875207 
L 233.383532 179.716715 
L 235.186007 179.637469 
L 238.790956 179.478977 
L 242.395905 179.320486 
L 266.729313 178.250666 
L 272.136737 178.012928 
L 276.642923 177.814814 
L 277.544161 177.775191 
L 288.359008 177.299715 
L 294.66767 177.022355 
L 295.568907 176.982732 
L 309.988704 176.348765 
L 324.408501 175.714798 
L 326.210975 175.635552 
L 329.815925 175.47706 
L 335.223349 175.239322 
L 337.927061 175.120454 
L 342.433247 174.922339 
L 346.038196 174.763847 
L 361.359231 174.090257 
L 362.260468 174.050634 
L 369.470367 173.733651 
L 374.87779 173.495913 
L 394.705011 172.624208 
L 396.507486 172.544962 
" style="fill:none;stroke:#1f77b4;stroke-linecap:square;stroke-width:1.5;"/>
   </g>
   <g id="patch_3">
    <path d="M 57.6 307.584 
L 57.6 41.472 
" style="fill:none;stroke:#000000;stroke-linecap:square;stroke-linejoin:miter;stroke-width:0.8;"/>
   </g>
   <g id="patch_4">
    <path d="M 414.72 307.584 
L 414.72 41.472 
" style="fill:none;stroke:#000000;stroke-linecap:square;stroke-linejoin:miter;stroke-width:0.8;"/>
   </g>
   <g id="patch_5">
    <path d="M 57.6 307.584 
L 414.72 307.584 
" style="fill:none;stroke:#000000;stroke-linecap:square;stroke-linejoin:miter;stroke-width:0.8;"/>
   </g>
   <g id="patch_6">
    <path d="M 57.6 41.472 
L 414.72 41.472 
" style="fill:none;stroke:#000000;stroke-linecap:square;stroke-linejoin:miter;stroke-width:0.8;"/>
   </g>
  </g>
 </g>
 <defs>
  <clipPath id="p5b43ef93d7">
   <rect height="266.112" width="357.12" x="57.6" y="41.472"/>
  </clipPath>
 </defs>
</svg>
