<?xml version="1.0" encoding="utf-8" standalone="no"?>
<!DOCTYPE svg PUBLIC "-//W3C//DTD SVG 1.1//EN"
  "http://www.w3.org/Graphics/SVG/1.1/DTD/svg11.dtd">
<!-- Created with matplotlib (http://matplotlib.org/) -->
<svg height="345.6pt" version="1.1" viewBox="0 0 460.8 345.6" width="460.8pt" xmlns="http://www.w3.org/2000/svg" xmlns:xlink="http://www.w3.org/1999/xlink">
 <defs>
  <style type="text/css">
*{stroke-linecap:butt;stroke-linejoin:round;}
  </style>
 </defs>
 <g id="figure_1">
  <g id="patch_1">
   <path d="M 0 345.6 
L 460.8 345.6 
L 460.8 0 
L 0 0 
z
" style="fill:#ffffff;"/>
  </g>
  <g id="axes_1">
   <g id="patch_2">
    <path d="M 56.09 303.64 
L 440.928457 303.64 
L 440.928457 13.32 
L 56.09 13.32 
z
" style="fill:#ffffff;"/>
   </g>
   <g id="142A">
    <defs>
     <path d="M 0 3 
C 0.795609 3 1.55874 2.683901 2.12132 2.12132 
C 2.683901 1.55874 3 0.795609 3 0 
C 3 -0.795609 2.683901 -1.55874 2.12132 -2.12132 
C 1.55874 -2.683901 0.795609 -3 0 -3 
C -0.795609 -3 -1.55874 -2.683901 -2.12132 -2.12132 
C -2.683901 -1.55874 -3 -0.795609 -3 0 
C -3 0.795609 -2.683901 1.55874 -2.12132 2.12132 
C -1.55874 2.683901 -0.795609 3 0 3 
z
" id="me380950a76" style="stroke:#1f77b4;"/>
    </defs>
    <g clip-path="url(#pd9b8971984)">
     <use style="fill:#1f77b4;stroke:#1f77b4;" x="93.292635" xlink:href="#me380950a76" y="168.103774"/>
    </g>
   </g>
   <g id="25B">
    <defs>
     <path d="M 0 3 
C 0.795609 3 1.55874 2.683901 2.12132 2.12132 
C 2.683901 1.55874 3 0.795609 3 0 
C 3 -0.795609 2.683901 -1.55874 2.12132 -2.12132 
C 1.55874 -2.683901 0.795609 -3 0 -3 
C -0.795609 -3 -1.55874 -2.683901 -2.12132 -2.12132 
C -2.683901 -1.55874 -3 -0.795609 -3 0 
C -3 0.795609 -2.683901 1.55874 -2.12132 2.12132 
C -1.55874 2.683901 -0.795609 3 0 3 
z
" id="m0b1aa3490b" style="stroke:#ff7f0e;"/>
    </defs>
    <g clip-path="url(#pd9b8971984)">
     <use style="fill:#ff7f0e;stroke:#ff7f0e;" x="117.5404" xlink:href="#m0b1aa3490b" y="168.103774"/>
    </g>
   </g>
   <g id="29A">
    <defs>
     <path d="M 0 3 
C 0.795609 3 1.55874 2.683901 2.12132 2.12132 
C 2.683901 1.55874 3 0.795609 3 0 
C 3 -0.795609 2.683901 -1.55874 2.12132 -2.12132 
C 1.55874 -2.683901 0.795609 -3 0 -3 
C -0.795609 -3 -1.55874 -2.683901 -2.12132 -2.12132 
C -2.683901 -1.55874 -3 -0.795609 -3 0 
C -3 0.795609 -2.683901 1.55874 -2.12132 2.12132 
C -1.55874 2.683901 -0.795609 3 0 3 
z
" id="mbd6b88d4b1" style="stroke:#2ca02c;"/>
    </defs>
    <g clip-path="url(#pd9b8971984)">
     <use style="fill:#2ca02c;stroke:#2ca02c;" x="113.660757" xlink:href="#mbd6b88d4b1" y="102.053808"/>
    </g>
   </g>
   <g id="20A">
    <defs>
     <path d="M 0 3 
C 0.795609 3 1.55874 2.683901 2.12132 2.12132 
C 2.683901 1.55874 3 0.795609 3 0 
C 3 -0.795609 2.683901 -1.55874 2.12132 -2.12132 
C 1.55874 -2.683901 0.795609 -3 0 -3 
C -0.795609 -3 -1.55874 -2.683901 -2.12132 -2.12132 
C -2.683901 -1.55874 -3 -0.795609 -3 0 
C -3 0.795609 -2.683901 1.55874 -2.12132 2.12132 
C -1.55874 2.683901 -0.795609 3 0 3 
z
" id="m11332efeb1" style="stroke:#d62728;"/>
    </defs>
    <g clip-path="url(#pd9b8971984)">
     <use style="fill:#d62728;stroke:#d62728;" x="99.112098" xlink:href="#m11332efeb1" y="168.103774"/>
    </g>
   </g>
   <g id="27A">
    <defs>
     <path d="M 0 3 
C 0.795609 3 1.55874 2.683901 2.12132 2.12132 
C 2.683901 1.55874 3 0.795609 3 0 
C 3 -0.795609 2.683901 -1.55874 2.12132 -2.12132 
C 1.55874 -2.683901 0.795609 -3 0 -3 
C -0.795609 -3 -1.55874 -2.683901 -2.12132 -2.12132 
C -2.683901 -1.55874 -3 -0.795609 -3 0 
C -3 0.795609 -2.683901 1.55874 -2.12132 2.12132 
C -1.55874 2.683901 -0.795609 3 0 3 
z
" id="m33d91f91c7" style="stroke:#9467bd;"/>
    </defs>
    <g clip-path="url(#pd9b8971984)">
     <use style="fill:#9467bd;stroke:#9467bd;" x="160.216466" xlink:href="#m33d91f91c7" y="168.103774"/>
    </g>
   </g>
   <g id="24A">
    <defs>
     <path d="M 0 3 
C 0.795609 3 1.55874 2.683901 2.12132 2.12132 
C 2.683901 1.55874 3 0.795609 3 0 
C 3 -0.795609 2.683901 -1.55874 2.12132 -2.12132 
C 1.55874 -2.683901 0.795609 -3 0 -3 
C -0.795609 -3 -1.55874 -2.683901 -2.12132 -2.12132 
C -2.683901 -1.55874 -3 -0.795609 -3 0 
C -3 0.795609 -2.683901 1.55874 -2.12132 2.12132 
C -1.55874 2.683901 -0.795609 3 0 3 
z
" id="m7ad0b778a2" style="stroke:#8c564b;"/>
    </defs>
    <g clip-path="url(#pd9b8971984)">
     <use style="fill:#8c564b;stroke:#8c564b;" x="117.5404" xlink:href="#m7ad0b778a2" y="58.462768"/>
    </g>
   </g>
   <g id="21A">
    <defs>
     <path d="M 0 3 
C 0.795609 3 1.55874 2.683901 2.12132 2.12132 
C 2.683901 1.55874 3 0.795609 3 0 
C 3 -0.795609 2.683901 -1.55874 2.12132 -2.12132 
C 1.55874 -2.683901 0.795609 -3 0 -3 
C -0.795609 -3 -1.55874 -2.683901 -2.12132 -2.12132 
C -2.683901 -1.55874 -3 -0.795609 -3 0 
C -3 0.795609 -2.683901 1.55874 -2.12132 2.12132 
C -1.55874 2.683901 -0.795609 3 0 3 
z
" id="m89eea08fdb" style="stroke:#e377c2;"/>
    </defs>
    <g clip-path="url(#pd9b8971984)">
     <use style="fill:#e377c2;stroke:#e377c2;" x="98.142188" xlink:href="#m89eea08fdb" y="159.78082"/>
    </g>
   </g>
   <g id="21B">
    <defs>
     <path d="M 0 3 
C 0.795609 3 1.55874 2.683901 2.12132 2.12132 
C 2.683901 1.55874 3 0.795609 3 0 
C 3 -0.795609 2.683901 -1.55874 2.12132 -2.12132 
C 1.55874 -2.683901 0.795609 -3 0 -3 
C -0.795609 -3 -1.55874 -2.683901 -2.12132 -2.12132 
C -2.683901 -1.55874 -3 -0.795609 -3 0 
C -3 0.795609 -2.683901 1.55874 -2.12132 2.12132 
C -1.55874 2.683901 -0.795609 3 0 3 
z
" id="m4d6eeb1cbe" style="stroke:#7f7f7f;"/>
    </defs>
    <g clip-path="url(#pd9b8971984)">
     <use style="fill:#7f7f7f;stroke:#7f7f7f;" x="98.142188" xlink:href="#m4d6eeb1cbe" y="168.103774"/>
    </g>
   </g>
   <g id="26A">
    <defs>
     <path d="M 0 3 
C 0.795609 3 1.55874 2.683901 2.12132 2.12132 
C 2.683901 1.55874 3 0.795609 3 0 
C 3 -0.795609 2.683901 -1.55874 2.12132 -2.12132 
C 1.55874 -2.683901 0.795609 -3 0 -3 
C -0.795609 -3 -1.55874 -2.683901 -2.12132 -2.12132 
C -2.683901 -1.55874 -3 -0.795609 -3 0 
C -3 0.795609 -2.683901 1.55874 -2.12132 2.12132 
C -1.55874 2.683901 -0.795609 3 0 3 
z
" id="mfd2a1a32e6" style="stroke:#bcbd22;"/>
    </defs>
    <g clip-path="url(#pd9b8971984)">
     <use style="fill:#bcbd22;stroke:#bcbd22;" x="311.522517" xlink:href="#mfd2a1a32e6" y="154.425429"/>
    </g>
   </g>
   <g id="28A">
    <defs>
     <path d="M 0 3 
C 0.795609 3 1.55874 2.683901 2.12132 2.12132 
C 2.683901 1.55874 3 0.795609 3 0 
C 3 -0.795609 2.683901 -1.55874 2.12132 -2.12132 
C 1.55874 -2.683901 0.795609 -3 0 -3 
C -0.795609 -3 -1.55874 -2.683901 -2.12132 -2.12132 
C -2.683901 -1.55874 -3 -0.795609 -3 0 
C -3 0.795609 -2.683901 1.55874 -2.12132 2.12132 
C -1.55874 2.683901 -0.795609 3 0 3 
z
" id="m1903218eb5" style="stroke:#17becf;"/>
    </defs>
    <g clip-path="url(#pd9b8971984)">
     <use style="fill:#17becf;stroke:#17becf;" x="114.630668" xlink:href="#m1903218eb5" y="168.103774"/>
    </g>
   </g>
   <g id="22A">
    <g clip-path="url(#pd9b8971984)">
     <use style="fill:#1f77b4;stroke:#1f77b4;" x="96.202367" xlink:href="#me380950a76" y="168.103774"/>
    </g>
   </g>
   <g id="25A">
    <g clip-path="url(#pd9b8971984)">
     <use style="fill:#ff7f0e;stroke:#ff7f0e;" x="117.5404" xlink:href="#m0b1aa3490b" y="168.103774"/>
    </g>
   </g>
   <g id="23A">
    <g clip-path="url(#pd9b8971984)">
     <use style="fill:#2ca02c;stroke:#2ca02c;" x="117.5404" xlink:href="#mbd6b88d4b1" y="172.453417"/>
    </g>
   </g>
   <g id="108B">
    <g clip-path="url(#pd9b8971984)">
     <use style="fill:#d62728;stroke:#d62728;" x="110.751026" xlink:href="#m11332efeb1" y="168.103774"/>
    </g>
   </g>
   <g id="106A">
    <g clip-path="url(#pd9b8971984)">
     <use style="fill:#9467bd;stroke:#9467bd;" x="107.841294" xlink:href="#m33d91f91c7" y="168.103774"/>
    </g>
   </g>
   <g id="100A">
    <g clip-path="url(#pd9b8971984)">
     <use style="fill:#8c564b;stroke:#8c564b;" x="169.915571" xlink:href="#m7ad0b778a2" y="171.463498"/>
    </g>
   </g>
   <g id="102A">
    <g clip-path="url(#pd9b8971984)">
     <use style="fill:#e377c2;stroke:#e377c2;" x="169.915571" xlink:href="#m89eea08fdb" y="155.380539"/>
    </g>
   </g>
   <g id="116A">
    <g clip-path="url(#pd9b8971984)">
     <use style="fill:#7f7f7f;stroke:#7f7f7f;" x="312.492428" xlink:href="#m4d6eeb1cbe" y="171.720143"/>
    </g>
   </g>
   <g id="117A">
    <g clip-path="url(#pd9b8971984)">
     <use style="fill:#bcbd22;stroke:#bcbd22;" x="134.02888" xlink:href="#mfd2a1a32e6" y="194.252155"/>
    </g>
   </g>
   <g id="118A">
    <g clip-path="url(#pd9b8971984)">
     <use style="fill:#17becf;stroke:#17becf;" x="179.614677" xlink:href="#m1903218eb5" y="71.470649"/>
    </g>
   </g>
   <g id="121A">
    <g clip-path="url(#pd9b8971984)">
     <use style="fill:#1f77b4;stroke:#1f77b4;" x="109.781115" xlink:href="#me380950a76" y="110.213138"/>
    </g>
   </g>
   <g id="111A">
    <g clip-path="url(#pd9b8971984)">
     <use style="fill:#ff7f0e;stroke:#ff7f0e;" x="143.727986" xlink:href="#m0b1aa3490b" y="168.103774"/>
    </g>
   </g>
   <g id="99A">
    <g clip-path="url(#pd9b8971984)">
     <use style="fill:#2ca02c;stroke:#2ca02c;" x="109.781115" xlink:href="#mbd6b88d4b1" y="190.034282"/>
    </g>
   </g>
   <g id="108A">
    <g clip-path="url(#pd9b8971984)">
     <use style="fill:#d62728;stroke:#d62728;" x="113.660757" xlink:href="#m11332efeb1" y="168.103774"/>
    </g>
   </g>
   <g id="103A">
    <g clip-path="url(#pd9b8971984)">
     <use style="fill:#9467bd;stroke:#9467bd;" x="169.915571" xlink:href="#m33d91f91c7" y="164.744049"/>
    </g>
   </g>
   <g id="98A">
    <g clip-path="url(#pd9b8971984)">
     <use style="fill:#8c564b;stroke:#8c564b;" x="113.660757" xlink:href="#m7ad0b778a2" y="168.103774"/>
    </g>
   </g>
   <g id="115A">
    <g clip-path="url(#pd9b8971984)">
     <use style="fill:#e377c2;stroke:#e377c2;" x="116.570489" xlink:href="#m89eea08fdb" y="168.103774"/>
    </g>
   </g>
   <g id="120A">
    <g clip-path="url(#pd9b8971984)">
     <use style="fill:#7f7f7f;stroke:#7f7f7f;" x="179.614677" xlink:href="#m4d6eeb1cbe" y="188.81592"/>
    </g>
   </g>
   <g id="109B">
    <g clip-path="url(#pd9b8971984)">
     <use style="fill:#bcbd22;stroke:#bcbd22;" x="111.720936" xlink:href="#mfd2a1a32e6" y="174.823222"/>
    </g>
   </g>
   <g id="101A">
    <g clip-path="url(#pd9b8971984)">
     <use style="fill:#17becf;stroke:#17becf;" x="247.508418" xlink:href="#m1903218eb5" y="177.969631"/>
    </g>
   </g>
   <g id="109A">
    <g clip-path="url(#pd9b8971984)">
     <use style="fill:#1f77b4;stroke:#1f77b4;" x="111.720936" xlink:href="#me380950a76" y="178.902888"/>
    </g>
   </g>
   <g id="104A">
    <g clip-path="url(#pd9b8971984)">
     <use style="fill:#ff7f0e;stroke:#ff7f0e;" x="168.945661" xlink:href="#m0b1aa3490b" y="183.963649"/>
    </g>
   </g>
   <g id="105A">
    <g clip-path="url(#pd9b8971984)">
     <use style="fill:#2ca02c;stroke:#2ca02c;" x="154.397002" xlink:href="#mbd6b88d4b1" y="203.542971"/>
    </g>
   </g>
   <g id="114A">
    <g clip-path="url(#pd9b8971984)">
     <use style="fill:#d62728;stroke:#d62728;" x="137.908522" xlink:href="#m11332efeb1" y="156.090594"/>
    </g>
   </g>
   <g id="113A">
    <g clip-path="url(#pd9b8971984)">
     <use style="fill:#9467bd;stroke:#9467bd;" x="137.908522" xlink:href="#m33d91f91c7" y="117.621982"/>
    </g>
   </g>
   <g id="110A">
    <g clip-path="url(#pd9b8971984)">
     <use style="fill:#8c564b;stroke:#8c564b;" x="94.262546" xlink:href="#m7ad0b778a2" y="201.234389"/>
    </g>
   </g>
   <g id="107A">
    <g clip-path="url(#pd9b8971984)">
     <use style="fill:#e377c2;stroke:#e377c2;" x="167.00584" xlink:href="#m89eea08fdb" y="156.69471"/>
    </g>
   </g>
   <g id="119A">
    <g clip-path="url(#pd9b8971984)">
     <use style="fill:#7f7f7f;stroke:#7f7f7f;" x="179.614677" xlink:href="#m4d6eeb1cbe" y="160.677014"/>
    </g>
   </g>
   <g id="112A">
    <g clip-path="url(#pd9b8971984)">
     <use style="fill:#bcbd22;stroke:#bcbd22;" x="343.529567" xlink:href="#mfd2a1a32e6" y="132.515766"/>
    </g>
   </g>
   <g id="3A">
    <g clip-path="url(#pd9b8971984)">
     <use style="fill:#17becf;stroke:#17becf;" x="209.681906" xlink:href="#m1903218eb5" y="185.000186"/>
    </g>
   </g>
   <g id="11A">
    <g clip-path="url(#pd9b8971984)">
     <use style="fill:#1f77b4;stroke:#1f77b4;" x="208.711995" xlink:href="#me380950a76" y="168.103774"/>
    </g>
   </g>
   <g id="18A">
    <g clip-path="url(#pd9b8971984)">
     <use style="fill:#ff7f0e;stroke:#ff7f0e;" x="209.681906" xlink:href="#m0b1aa3490b" y="168.103774"/>
    </g>
   </g>
   <g id="17A">
    <g clip-path="url(#pd9b8971984)">
     <use style="fill:#2ca02c;stroke:#2ca02c;" x="135.968701" xlink:href="#mbd6b88d4b1" y="168.103774"/>
    </g>
   </g>
   <g id="8A">
    <g clip-path="url(#pd9b8971984)">
     <use style="fill:#d62728;stroke:#d62728;" x="209.681906" xlink:href="#m11332efeb1" y="168.103774"/>
    </g>
   </g>
   <g id="9A">
    <g clip-path="url(#pd9b8971984)">
     <use style="fill:#9467bd;stroke:#9467bd;" x="164.096108" xlink:href="#m33d91f91c7" y="178.357478"/>
    </g>
   </g>
   <g id="5A">
    <g clip-path="url(#pd9b8971984)">
     <use style="fill:#8c564b;stroke:#8c564b;" x="209.681906" xlink:href="#m7ad0b778a2" y="92.982156"/>
    </g>
   </g>
   <g id="10A">
    <g clip-path="url(#pd9b8971984)">
     <use style="fill:#e377c2;stroke:#e377c2;" x="124.329774" xlink:href="#m89eea08fdb" y="168.103774"/>
    </g>
   </g>
   <g id="2A">
    <g clip-path="url(#pd9b8971984)">
     <use style="fill:#7f7f7f;stroke:#7f7f7f;" x="209.681906" xlink:href="#m4d6eeb1cbe" y="166.652983"/>
    </g>
   </g>
   <g id="13A">
    <g clip-path="url(#pd9b8971984)">
     <use style="fill:#bcbd22;stroke:#bcbd22;" x="191.253604" xlink:href="#mfd2a1a32e6" y="168.103774"/>
    </g>
   </g>
   <g id="4A">
    <g clip-path="url(#pd9b8971984)">
     <use style="fill:#17becf;stroke:#17becf;" x="209.681906" xlink:href="#m1903218eb5" y="124.233988"/>
    </g>
   </g>
   <g id="6A">
    <g clip-path="url(#pd9b8971984)">
     <use style="fill:#1f77b4;stroke:#1f77b4;" x="209.681906" xlink:href="#me380950a76" y="168.103774"/>
    </g>
   </g>
   <g id="1A">
    <g clip-path="url(#pd9b8971984)">
     <use style="fill:#ff7f0e;stroke:#ff7f0e;" x="208.711995" xlink:href="#m0b1aa3490b" y="137.442869"/>
    </g>
   </g>
   <g id="7A">
    <g clip-path="url(#pd9b8971984)">
     <use style="fill:#2ca02c;stroke:#2ca02c;" x="209.681906" xlink:href="#mbd6b88d4b1" y="168.103774"/>
    </g>
   </g>
   <g id="19A">
    <g clip-path="url(#pd9b8971984)">
     <use style="fill:#d62728;stroke:#d62728;" x="209.681906" xlink:href="#m11332efeb1" y="168.103774"/>
    </g>
   </g>
   <g id="14A">
    <g clip-path="url(#pd9b8971984)">
     <use style="fill:#9467bd;stroke:#9467bd;" x="200.95271" xlink:href="#m33d91f91c7" y="143.366979"/>
    </g>
   </g>
   <g id="12A">
    <g clip-path="url(#pd9b8971984)">
     <use style="fill:#8c564b;stroke:#8c564b;" x="183.49432" xlink:href="#m7ad0b778a2" y="158.966154"/>
    </g>
   </g>
   <g id="16A">
    <g clip-path="url(#pd9b8971984)">
     <use style="fill:#e377c2;stroke:#e377c2;" x="200.95271" xlink:href="#m89eea08fdb" y="170.436915"/>
    </g>
   </g>
   <g id="15A">
    <g clip-path="url(#pd9b8971984)">
     <use style="fill:#7f7f7f;stroke:#7f7f7f;" x="200.95271" xlink:href="#m4d6eeb1cbe" y="168.103774"/>
    </g>
   </g>
   <g id="68A">
    <g clip-path="url(#pd9b8971984)">
     <use style="fill:#bcbd22;stroke:#bcbd22;" x="131.119148" xlink:href="#mfd2a1a32e6" y="211.541386"/>
    </g>
   </g>
   <g id="65A">
    <g clip-path="url(#pd9b8971984)">
     <use style="fill:#17becf;stroke:#17becf;" x="131.119148" xlink:href="#m1903218eb5" y="101.765563"/>
    </g>
   </g>
   <g id="66A">
    <g clip-path="url(#pd9b8971984)">
     <use style="fill:#1f77b4;stroke:#1f77b4;" x="131.119148" xlink:href="#me380950a76" y="269.937524"/>
    </g>
   </g>
   <g id="69A">
    <g clip-path="url(#pd9b8971984)">
     <use style="fill:#ff7f0e;stroke:#ff7f0e;" x="345.469388" xlink:href="#m0b1aa3490b" y="168.573561"/>
    </g>
   </g>
   <g id="73A">
    <g clip-path="url(#pd9b8971984)">
     <use style="fill:#2ca02c;stroke:#2ca02c;" x="143.727986" xlink:href="#mbd6b88d4b1" y="168.103774"/>
    </g>
   </g>
   <g id="76A">
    <g clip-path="url(#pd9b8971984)">
     <use style="fill:#d62728;stroke:#d62728;" x="125.299684" xlink:href="#m11332efeb1" y="91.610049"/>
    </g>
   </g>
   <g id="71A">
    <g clip-path="url(#pd9b8971984)">
     <use style="fill:#9467bd;stroke:#9467bd;" x="186.404051" xlink:href="#m33d91f91c7" y="150.594099"/>
    </g>
   </g>
   <g id="77A">
    <g clip-path="url(#pd9b8971984)">
     <use style="fill:#8c564b;stroke:#8c564b;" x="172.825303" xlink:href="#m7ad0b778a2" y="136.003677"/>
    </g>
   </g>
   <g id="74A">
    <g clip-path="url(#pd9b8971984)">
     <use style="fill:#e377c2;stroke:#e377c2;" x="134.02888" xlink:href="#m89eea08fdb" y="168.103774"/>
    </g>
   </g>
   <g id="72A">
    <g clip-path="url(#pd9b8971984)">
     <use style="fill:#7f7f7f;stroke:#7f7f7f;" x="175.735035" xlink:href="#m4d6eeb1cbe" y="189.648995"/>
    </g>
   </g>
   <g id="79B">
    <g clip-path="url(#pd9b8971984)">
     <use style="fill:#bcbd22;stroke:#bcbd22;" x="114.630668" xlink:href="#mfd2a1a32e6" y="168.103774"/>
    </g>
   </g>
   <g id="80A">
    <g clip-path="url(#pd9b8971984)">
     <use style="fill:#17becf;stroke:#17becf;" x="114.630668" xlink:href="#m1903218eb5" y="168.103774"/>
    </g>
   </g>
   <g id="75A">
    <g clip-path="url(#pd9b8971984)">
     <use style="fill:#1f77b4;stroke:#1f77b4;" x="132.089058" xlink:href="#me380950a76" y="42.54609"/>
    </g>
   </g>
   <g id="79A">
    <g clip-path="url(#pd9b8971984)">
     <use style="fill:#ff7f0e;stroke:#ff7f0e;" x="114.630668" xlink:href="#m0b1aa3490b" y="154.975439"/>
    </g>
   </g>
   <g id="70A">
    <g clip-path="url(#pd9b8971984)">
     <use style="fill:#2ca02c;stroke:#2ca02c;" x="202.892531" xlink:href="#mbd6b88d4b1" y="174.786323"/>
    </g>
   </g>
   <g id="67A">
    <g clip-path="url(#pd9b8971984)">
     <use style="fill:#d62728;stroke:#d62728;" x="131.119148" xlink:href="#m11332efeb1" y="279.740126"/>
    </g>
   </g>
   <g id="78A">
    <g clip-path="url(#pd9b8971984)">
     <use style="fill:#9467bd;stroke:#9467bd;" x="172.825303" xlink:href="#m33d91f91c7" y="162.435482"/>
    </g>
   </g>
   <g id="42A">
    <g clip-path="url(#pd9b8971984)">
     <use style="fill:#8c564b;stroke:#8c564b;" x="110.751026" xlink:href="#m7ad0b778a2" y="168.103774"/>
    </g>
   </g>
   <g id="45A">
    <g clip-path="url(#pd9b8971984)">
     <use style="fill:#e377c2;stroke:#e377c2;" x="128.209416" xlink:href="#m89eea08fdb" y="247.777237"/>
    </g>
   </g>
   <g id="48A">
    <g clip-path="url(#pd9b8971984)">
     <use style="fill:#7f7f7f;stroke:#7f7f7f;" x="170.885482" xlink:href="#m4d6eeb1cbe" y="171.463498"/>
    </g>
   </g>
   <g id="50A">
    <g clip-path="url(#pd9b8971984)">
     <use style="fill:#bcbd22;stroke:#bcbd22;" x="136.938611" xlink:href="#mfd2a1a32e6" y="141.592842"/>
    </g>
   </g>
   <g id="56A">
    <g clip-path="url(#pd9b8971984)">
     <use style="fill:#17becf;stroke:#17becf;" x="84.56344" xlink:href="#m1903218eb5" y="41.714142"/>
    </g>
   </g>
   <g id="37A">
    <g clip-path="url(#pd9b8971984)">
     <use style="fill:#1f77b4;stroke:#1f77b4;" x="234.899581" xlink:href="#me380950a76" y="196.967837"/>
    </g>
   </g>
   <g id="33A">
    <g clip-path="url(#pd9b8971984)">
     <use style="fill:#ff7f0e;stroke:#ff7f0e;" x="328.010997" xlink:href="#m0b1aa3490b" y="182.707419"/>
    </g>
   </g>
   <g id="40A">
    <g clip-path="url(#pd9b8971984)">
     <use style="fill:#2ca02c;stroke:#2ca02c;" x="113.660757" xlink:href="#mbd6b88d4b1" y="189.849682"/>
    </g>
   </g>
   <g id="53A">
    <g clip-path="url(#pd9b8971984)">
     <use style="fill:#d62728;stroke:#d62728;" x="160.216466" xlink:href="#m11332efeb1" y="187.923926"/>
    </g>
   </g>
   <g id="52A">
    <g clip-path="url(#pd9b8971984)">
     <use style="fill:#9467bd;stroke:#9467bd;" x="145.667807" xlink:href="#m33d91f91c7" y="180.523267"/>
    </g>
   </g>
   <g id="31A">
    <g clip-path="url(#pd9b8971984)">
     <use style="fill:#8c564b;stroke:#8c564b;" x="120.450131" xlink:href="#m7ad0b778a2" y="167.774389"/>
    </g>
   </g>
   <g id="39A">
    <g clip-path="url(#pd9b8971984)">
     <use style="fill:#e377c2;stroke:#e377c2;" x="113.660757" xlink:href="#m89eea08fdb" y="160.904364"/>
    </g>
   </g>
   <g id="43A">
    <g clip-path="url(#pd9b8971984)">
     <use style="fill:#7f7f7f;stroke:#7f7f7f;" x="117.5404" xlink:href="#m4d6eeb1cbe" y="168.103774"/>
    </g>
   </g>
   <g id="44A">
    <g clip-path="url(#pd9b8971984)">
     <use style="fill:#bcbd22;stroke:#bcbd22;" x="168.945661" xlink:href="#mfd2a1a32e6" y="168.103774"/>
    </g>
   </g>
   <g id="49A">
    <g clip-path="url(#pd9b8971984)">
     <use style="fill:#17becf;stroke:#17becf;" x="136.938611" xlink:href="#m1903218eb5" y="168.103774"/>
    </g>
   </g>
   <g id="38A">
    <g clip-path="url(#pd9b8971984)">
     <use style="fill:#1f77b4;stroke:#1f77b4;" x="218.411101" xlink:href="#me380950a76" y="208.131999"/>
    </g>
   </g>
   <g id="36A">
    <g clip-path="url(#pd9b8971984)">
     <use style="fill:#ff7f0e;stroke:#ff7f0e;" x="126.269595" xlink:href="#m0b1aa3490b" y="214.299984"/>
    </g>
   </g>
   <g id="30A">
    <g clip-path="url(#pd9b8971984)">
     <use style="fill:#2ca02c;stroke:#2ca02c;" x="120.450131" xlink:href="#mbd6b88d4b1" y="168.103774"/>
    </g>
   </g>
   <g id="35A">
    <g clip-path="url(#pd9b8971984)">
     <use style="fill:#d62728;stroke:#d62728;" x="127.239506" xlink:href="#m11332efeb1" y="168.103774"/>
    </g>
   </g>
   <g id="34A">
    <g clip-path="url(#pd9b8971984)">
     <use style="fill:#9467bd;stroke:#9467bd;" x="128.209416" xlink:href="#m33d91f91c7" y="173.78566"/>
    </g>
   </g>
   <g id="47A">
    <g clip-path="url(#pd9b8971984)">
     <use style="fill:#8c564b;stroke:#8c564b;" x="114.630668" xlink:href="#m7ad0b778a2" y="31.546585"/>
    </g>
   </g>
   <g id="51A">
    <g clip-path="url(#pd9b8971984)">
     <use style="fill:#e377c2;stroke:#e377c2;" x="304.733143" xlink:href="#m89eea08fdb" y="87.229155"/>
    </g>
   </g>
   <g id="32A">
    <g clip-path="url(#pd9b8971984)">
     <use style="fill:#7f7f7f;stroke:#7f7f7f;" x="120.450131" xlink:href="#m4d6eeb1cbe" y="179.632239"/>
    </g>
   </g>
   <g id="55A">
    <g clip-path="url(#pd9b8971984)">
     <use style="fill:#bcbd22;stroke:#bcbd22;" x="151.48727" xlink:href="#mfd2a1a32e6" y="162.174848"/>
    </g>
   </g>
   <g id="41A">
    <g clip-path="url(#pd9b8971984)">
     <use style="fill:#17becf;stroke:#17becf;" x="115.600578" xlink:href="#m1903218eb5" y="159.399359"/>
    </g>
   </g>
   <g id="54A">
    <g clip-path="url(#pd9b8971984)">
     <use style="fill:#1f77b4;stroke:#1f77b4;" x="116.570489" xlink:href="#me380950a76" y="288.189922"/>
    </g>
   </g>
   <g id="46A">
    <g clip-path="url(#pd9b8971984)">
     <use style="fill:#ff7f0e;stroke:#ff7f0e;" x="134.02888" xlink:href="#m0b1aa3490b" y="99.458123"/>
    </g>
   </g>
   <g id="57A">
    <g clip-path="url(#pd9b8971984)">
     <use style="fill:#2ca02c;stroke:#2ca02c;" x="292.124305" xlink:href="#mbd6b88d4b1" y="88.153383"/>
    </g>
   </g>
   <g id="84A">
    <g clip-path="url(#pd9b8971984)">
     <use style="fill:#d62728;stroke:#d62728;" x="198.042978" xlink:href="#m11332efeb1" y="168.103774"/>
    </g>
   </g>
   <g id="144P">
    <g clip-path="url(#pd9b8971984)">
     <use style="fill:#9467bd;stroke:#9467bd;" x="150.51736" xlink:href="#m33d91f91c7" y="168.103774"/>
    </g>
   </g>
   <g id="97A">
    <g clip-path="url(#pd9b8971984)">
     <use style="fill:#8c564b;stroke:#8c564b;" x="383.295901" xlink:href="#m7ad0b778a2" y="164.414994"/>
    </g>
   </g>
   <g id="144X">
    <g clip-path="url(#pd9b8971984)">
     <use style="fill:#e377c2;stroke:#e377c2;" x="102.991741" xlink:href="#m89eea08fdb" y="168.103774"/>
    </g>
   </g>
   <g id="144J">
    <g clip-path="url(#pd9b8971984)">
     <use style="fill:#7f7f7f;stroke:#7f7f7f;" x="180.584588" xlink:href="#m4d6eeb1cbe" y="168.103774"/>
    </g>
   </g>
   <g id="94A">
    <g clip-path="url(#pd9b8971984)">
     <use style="fill:#bcbd22;stroke:#bcbd22;" x="245.568597" xlink:href="#mfd2a1a32e6" y="168.103774"/>
    </g>
   </g>
   <g id="144I">
    <g clip-path="url(#pd9b8971984)">
     <use style="fill:#17becf;stroke:#17becf;" x="169.915571" xlink:href="#m1903218eb5" y="169.651898"/>
    </g>
   </g>
   <g id="144D">
    <g clip-path="url(#pd9b8971984)">
     <use style="fill:#1f77b4;stroke:#1f77b4;" x="182.524409" xlink:href="#me380950a76" y="184.072996"/>
    </g>
   </g>
   <g id="144S">
    <g clip-path="url(#pd9b8971984)">
     <use style="fill:#ff7f0e;stroke:#ff7f0e;" x="171.855393" xlink:href="#m0b1aa3490b" y="221.934452"/>
    </g>
   </g>
   <g id="81A">
    <g clip-path="url(#pd9b8971984)">
     <use style="fill:#2ca02c;stroke:#2ca02c;" x="397.84456" xlink:href="#mbd6b88d4b1" y="125.224667"/>
    </g>
   </g>
   <g id="90A">
    <g clip-path="url(#pd9b8971984)">
     <use style="fill:#d62728;stroke:#d62728;" x="281.455289" xlink:href="#m11332efeb1" y="168.103774"/>
    </g>
   </g>
   <g id="143F">
    <g clip-path="url(#pd9b8971984)">
     <use style="fill:#9467bd;stroke:#9467bd;" x="384.265811" xlink:href="#m33d91f91c7" y="187.025407"/>
    </g>
   </g>
   <g id="82A">
    <g clip-path="url(#pd9b8971984)">
     <use style="fill:#8c564b;stroke:#8c564b;" x="419.182593" xlink:href="#m7ad0b778a2" y="164.548566"/>
    </g>
   </g>
   <g id="87A">
    <g clip-path="url(#pd9b8971984)">
     <use style="fill:#e377c2;stroke:#e377c2;" x="392.025096" xlink:href="#m89eea08fdb" y="159.341218"/>
    </g>
   </g>
   <g id="89A">
    <g clip-path="url(#pd9b8971984)">
     <use style="fill:#7f7f7f;stroke:#7f7f7f;" x="349.34903" xlink:href="#m4d6eeb1cbe" y="28.847256"/>
    </g>
   </g>
   <g id="144R">
    <g clip-path="url(#pd9b8971984)">
     <use style="fill:#bcbd22;stroke:#bcbd22;" x="150.51736" xlink:href="#mfd2a1a32e6" y="168.103774"/>
    </g>
   </g>
   <g id="144T">
    <g clip-path="url(#pd9b8971984)">
     <use style="fill:#17becf;stroke:#17becf;" x="102.991741" xlink:href="#m1903218eb5" y="168.103774"/>
    </g>
   </g>
   <g id="95A">
    <g clip-path="url(#pd9b8971984)">
     <use style="fill:#1f77b4;stroke:#1f77b4;" x="358.078225" xlink:href="#me380950a76" y="153.783218"/>
    </g>
   </g>
   <g id="96A">
    <g clip-path="url(#pd9b8971984)">
     <use style="fill:#ff7f0e;stroke:#ff7f0e;" x="287.274753" xlink:href="#m0b1aa3490b" y="169.416166"/>
    </g>
   </g>
   <g id="144B">
    <g clip-path="url(#pd9b8971984)">
     <use style="fill:#2ca02c;stroke:#2ca02c;" x="213.561548" xlink:href="#mbd6b88d4b1" y="171.703478"/>
    </g>
   </g>
   <g id="86A">
    <g clip-path="url(#pd9b8971984)">
     <use style="fill:#d62728;stroke:#d62728;" x="383.295901" xlink:href="#m11332efeb1" y="88.982289"/>
    </g>
   </g>
   <g id="90C">
    <g clip-path="url(#pd9b8971984)">
     <use style="fill:#9467bd;stroke:#9467bd;" x="241.688955" xlink:href="#m33d91f91c7" y="168.103774"/>
    </g>
   </g>
   <g id="143A">
    <g clip-path="url(#pd9b8971984)">
     <use style="fill:#8c564b;stroke:#8c564b;" x="384.265811" xlink:href="#m7ad0b778a2" y="162.99994"/>
    </g>
   </g>
   <g id="85A">
    <g clip-path="url(#pd9b8971984)">
     <use style="fill:#e377c2;stroke:#e377c2;" x="366.807421" xlink:href="#m89eea08fdb" y="138.978564"/>
    </g>
   </g>
   <g id="90B">
    <g clip-path="url(#pd9b8971984)">
     <use style="fill:#7f7f7f;stroke:#7f7f7f;" x="91.352814" xlink:href="#m4d6eeb1cbe" y="179.302855"/>
    </g>
   </g>
   <g id="144Q">
    <g clip-path="url(#pd9b8971984)">
     <use style="fill:#bcbd22;stroke:#bcbd22;" x="150.51736" xlink:href="#mfd2a1a32e6" y="168.103774"/>
    </g>
   </g>
   <g id="91A">
    <g clip-path="url(#pd9b8971984)">
     <use style="fill:#17becf;stroke:#17becf;" x="217.44119" xlink:href="#m1903218eb5" y="84.337312"/>
    </g>
   </g>
   <g id="143E">
    <g clip-path="url(#pd9b8971984)">
     <use style="fill:#1f77b4;stroke:#1f77b4;" x="384.265811" xlink:href="#me380950a76" y="154.575967"/>
    </g>
   </g>
   <g id="143G">
    <g clip-path="url(#pd9b8971984)">
     <use style="fill:#ff7f0e;stroke:#ff7f0e;" x="384.265811" xlink:href="#m0b1aa3490b" y="168.103774"/>
    </g>
   </g>
   <g id="143B">
    <g clip-path="url(#pd9b8971984)">
     <use style="fill:#2ca02c;stroke:#2ca02c;" x="75.834244" xlink:href="#mbd6b88d4b1" y="168.103774"/>
    </g>
   </g>
   <g id="92A">
    <g clip-path="url(#pd9b8971984)">
     <use style="fill:#d62728;stroke:#d62728;" x="293.094216" xlink:href="#m11332efeb1" y="191.625316"/>
    </g>
   </g>
   <g id="83A">
    <g clip-path="url(#pd9b8971984)">
     <use style="fill:#9467bd;stroke:#9467bd;" x="421.122414" xlink:href="#m33d91f91c7" y="140.466633"/>
    </g>
   </g>
   <g id="144K">
    <g clip-path="url(#pd9b8971984)">
     <use style="fill:#8c564b;stroke:#8c564b;" x="180.584588" xlink:href="#m7ad0b778a2" y="168.103774"/>
    </g>
   </g>
   <g id="144A">
    <g clip-path="url(#pd9b8971984)">
     <use style="fill:#e377c2;stroke:#e377c2;" x="355.168494" xlink:href="#m89eea08fdb" y="186.076993"/>
    </g>
   </g>
   <g id="88A">
    <g clip-path="url(#pd9b8971984)">
     <use style="fill:#7f7f7f;stroke:#7f7f7f;" x="362.927778" xlink:href="#m4d6eeb1cbe" y="109.398074"/>
    </g>
   </g>
   <g id="93A">
    <g clip-path="url(#pd9b8971984)">
     <use style="fill:#bcbd22;stroke:#bcbd22;" x="304.733143" xlink:href="#mfd2a1a32e6" y="118.154374"/>
    </g>
   </g>
   <g id="144V">
    <g clip-path="url(#pd9b8971984)">
     <use style="fill:#17becf;stroke:#17becf;" x="102.991741" xlink:href="#m1903218eb5" y="168.103774"/>
    </g>
   </g>
   <g id="144W">
    <g clip-path="url(#pd9b8971984)">
     <use style="fill:#1f77b4;stroke:#1f77b4;" x="102.991741" xlink:href="#me380950a76" y="168.103774"/>
    </g>
   </g>
   <g id="144H">
    <g clip-path="url(#pd9b8971984)">
     <use style="fill:#ff7f0e;stroke:#ff7f0e;" x="169.915571" xlink:href="#m0b1aa3490b" y="168.103774"/>
    </g>
   </g>
   <g id="144L">
    <g clip-path="url(#pd9b8971984)">
     <use style="fill:#2ca02c;stroke:#2ca02c;" x="181.554498" xlink:href="#mbd6b88d4b1" y="205.181813"/>
    </g>
   </g>
   <g id="64A">
    <g clip-path="url(#pd9b8971984)">
     <use style="fill:#d62728;stroke:#d62728;" x="137.908522" xlink:href="#m11332efeb1" y="168.103774"/>
    </g>
   </g>
   <g id="63A">
    <g clip-path="url(#pd9b8971984)">
     <use style="fill:#9467bd;stroke:#9467bd;" x="133.058969" xlink:href="#m33d91f91c7" y="139.669994"/>
    </g>
   </g>
   <g id="61A">
    <g clip-path="url(#pd9b8971984)">
     <use style="fill:#8c564b;stroke:#8c564b;" x="94.262546" xlink:href="#m7ad0b778a2" y="174.103281"/>
    </g>
   </g>
   <g id="59A">
    <g clip-path="url(#pd9b8971984)">
     <use style="fill:#e377c2;stroke:#e377c2;" x="114.630668" xlink:href="#m89eea08fdb" y="168.103774"/>
    </g>
   </g>
   <g id="60A">
    <g clip-path="url(#pd9b8971984)">
     <use style="fill:#7f7f7f;stroke:#7f7f7f;" x="92.322724" xlink:href="#m4d6eeb1cbe" y="168.103774"/>
    </g>
   </g>
   <g id="62A">
    <g clip-path="url(#pd9b8971984)">
     <use style="fill:#bcbd22;stroke:#bcbd22;" x="107.841294" xlink:href="#mfd2a1a32e6" y="140.321437"/>
    </g>
   </g>
   <g id="58A">
    <g clip-path="url(#pd9b8971984)">
     <use style="fill:#17becf;stroke:#17becf;" x="114.630668" xlink:href="#m1903218eb5" y="168.103774"/>
    </g>
   </g>
   <g id="58B">
    <g clip-path="url(#pd9b8971984)">
     <use style="fill:#1f77b4;stroke:#1f77b4;" x="113.660757" xlink:href="#me380950a76" y="168.103774"/>
    </g>
   </g>
   <g id="129A">
    <g clip-path="url(#pd9b8971984)">
     <use style="fill:#ff7f0e;stroke:#ff7f0e;" x="255.267703" xlink:href="#m0b1aa3490b" y="169.286775"/>
    </g>
   </g>
   <g id="135A">
    <g clip-path="url(#pd9b8971984)">
     <use style="fill:#2ca02c;stroke:#2ca02c;" x="124.329774" xlink:href="#mbd6b88d4b1" y="168.103774"/>
    </g>
   </g>
   <g id="136B">
    <g clip-path="url(#pd9b8971984)">
     <use style="fill:#d62728;stroke:#d62728;" x="114.630668" xlink:href="#m11332efeb1" y="178.182947"/>
    </g>
   </g>
   <g id="134A">
    <g clip-path="url(#pd9b8971984)">
     <use style="fill:#9467bd;stroke:#9467bd;" x="124.329774" xlink:href="#m33d91f91c7" y="172.23164"/>
    </g>
   </g>
   <g id="138A">
    <g clip-path="url(#pd9b8971984)">
     <use style="fill:#8c564b;stroke:#8c564b;" x="132.089058" xlink:href="#m7ad0b778a2" y="164.108426"/>
    </g>
   </g>
   <g id="136A">
    <g clip-path="url(#pd9b8971984)">
     <use style="fill:#e377c2;stroke:#e377c2;" x="114.630668" xlink:href="#m89eea08fdb" y="168.103774"/>
    </g>
   </g>
   <g id="131A">
    <g clip-path="url(#pd9b8971984)">
     <use style="fill:#7f7f7f;stroke:#7f7f7f;" x="112.690847" xlink:href="#m4d6eeb1cbe" y="168.103774"/>
    </g>
   </g>
   <g id="137A">
    <g clip-path="url(#pd9b8971984)">
     <use style="fill:#bcbd22;stroke:#bcbd22;" x="114.630668" xlink:href="#mfd2a1a32e6" y="168.103774"/>
    </g>
   </g>
   <g id="130A">
    <g clip-path="url(#pd9b8971984)">
     <use style="fill:#17becf;stroke:#17becf;" x="251.388061" xlink:href="#m1903218eb5" y="168.103774"/>
    </g>
   </g>
   <g id="132A">
    <g clip-path="url(#pd9b8971984)">
     <use style="fill:#1f77b4;stroke:#1f77b4;" x="124.329774" xlink:href="#me380950a76" y="90.571673"/>
    </g>
   </g>
   <g id="137B">
    <g clip-path="url(#pd9b8971984)">
     <use style="fill:#ff7f0e;stroke:#ff7f0e;" x="114.630668" xlink:href="#m0b1aa3490b" y="230.258674"/>
    </g>
   </g>
   <g id="133A">
    <g clip-path="url(#pd9b8971984)">
     <use style="fill:#2ca02c;stroke:#2ca02c;" x="124.329774" xlink:href="#mbd6b88d4b1" y="240.359384"/>
    </g>
   </g>
   <g id="125A">
    <g clip-path="url(#pd9b8971984)">
     <use style="fill:#d62728;stroke:#d62728;" x="109.781115" xlink:href="#m11332efeb1" y="182.022632"/>
    </g>
   </g>
   <g id="123A">
    <g clip-path="url(#pd9b8971984)">
     <use style="fill:#9467bd;stroke:#9467bd;" x="94.262546" xlink:href="#m33d91f91c7" y="161.384325"/>
    </g>
   </g>
   <g id="126A">
    <g clip-path="url(#pd9b8971984)">
     <use style="fill:#8c564b;stroke:#8c564b;" x="111.720936" xlink:href="#m7ad0b778a2" y="174.823222"/>
    </g>
   </g>
   <g id="127A">
    <g clip-path="url(#pd9b8971984)">
     <use style="fill:#e377c2;stroke:#e377c2;" x="110.751026" xlink:href="#m89eea08fdb" y="168.103774"/>
    </g>
   </g>
   <g id="128A">
    <g clip-path="url(#pd9b8971984)">
     <use style="fill:#7f7f7f;stroke:#7f7f7f;" x="96.202367" xlink:href="#m4d6eeb1cbe" y="168.103774"/>
    </g>
   </g>
   <g id="124A">
    <g clip-path="url(#pd9b8971984)">
     <use style="fill:#bcbd22;stroke:#bcbd22;" x="136.938611" xlink:href="#mfd2a1a32e6" y="168.103774"/>
    </g>
   </g>
   <g id="122A">
    <g clip-path="url(#pd9b8971984)">
     <use style="fill:#17becf;stroke:#17becf;" x="106.871383" xlink:href="#m1903218eb5" y="168.103774"/>
    </g>
   </g>
   <g id="matplotlib.axis_1">
    <g id="xtick_1">
     <g id="line2d_1">
      <defs>
       <path d="M 0 0 
L 0 3.5 
" id="mfe5d6fb252" style="stroke:#000000;stroke-width:0.8;"/>
      </defs>
      <g>
       <use style="stroke:#000000;stroke-width:0.8;" x="101.05192" xlink:href="#mfe5d6fb252" y="303.64"/>
      </g>
     </g>
     <g id="text_1">
      <text style="font-family:DejaVu Sans;font-size:10px;font-style:normal;font-weight:normal;text-anchor:middle;" transform="rotate(-0, 101.05192, 318.238437)" x="101.05192" y="318.238437">50</text>
     </g>
    </g>
    <g id="xtick_2">
     <g id="line2d_2">
      <g>
       <use style="stroke:#000000;stroke-width:0.8;" x="149.547449" xlink:href="#mfe5d6fb252" y="303.64"/>
      </g>
     </g>
     <g id="text_2">
      <text style="font-family:DejaVu Sans;font-size:10px;font-style:normal;font-weight:normal;text-anchor:middle;" transform="rotate(-0, 149.547449, 318.238437)" x="149.547449" y="318.238437">100</text>
     </g>
    </g>
    <g id="xtick_3">
     <g id="line2d_3">
      <g>
       <use style="stroke:#000000;stroke-width:0.8;" x="198.042978" xlink:href="#mfe5d6fb252" y="303.64"/>
      </g>
     </g>
     <g id="text_3">
      <text style="font-family:DejaVu Sans;font-size:10px;font-style:normal;font-weight:normal;text-anchor:middle;" transform="rotate(-0, 198.042978, 318.238437)" x="198.042978" y="318.238437">150</text>
     </g>
    </g>
    <g id="xtick_4">
     <g id="line2d_4">
      <g>
       <use style="stroke:#000000;stroke-width:0.8;" x="246.538508" xlink:href="#mfe5d6fb252" y="303.64"/>
      </g>
     </g>
     <g id="text_4">
      <text style="font-family:DejaVu Sans;font-size:10px;font-style:normal;font-weight:normal;text-anchor:middle;" transform="rotate(-0, 246.538508, 318.238437)" x="246.538508" y="318.238437">200</text>
     </g>
    </g>
    <g id="xtick_5">
     <g id="line2d_5">
      <g>
       <use style="stroke:#000000;stroke-width:0.8;" x="295.034037" xlink:href="#mfe5d6fb252" y="303.64"/>
      </g>
     </g>
     <g id="text_5">
      <text style="font-family:DejaVu Sans;font-size:10px;font-style:normal;font-weight:normal;text-anchor:middle;" transform="rotate(-0, 295.034037, 318.238437)" x="295.034037" y="318.238437">250</text>
     </g>
    </g>
    <g id="xtick_6">
     <g id="line2d_6">
      <g>
       <use style="stroke:#000000;stroke-width:0.8;" x="343.529567" xlink:href="#mfe5d6fb252" y="303.64"/>
      </g>
     </g>
     <g id="text_6">
      <text style="font-family:DejaVu Sans;font-size:10px;font-style:normal;font-weight:normal;text-anchor:middle;" transform="rotate(-0, 343.529567, 318.238437)" x="343.529567" y="318.238437">300</text>
     </g>
    </g>
    <g id="xtick_7">
     <g id="line2d_7">
      <g>
       <use style="stroke:#000000;stroke-width:0.8;" x="392.025096" xlink:href="#mfe5d6fb252" y="303.64"/>
      </g>
     </g>
     <g id="text_7">
      <text style="font-family:DejaVu Sans;font-size:10px;font-style:normal;font-weight:normal;text-anchor:middle;" transform="rotate(-0, 392.025096, 318.238437)" x="392.025096" y="318.238437">350</text>
     </g>
    </g>
    <g id="xtick_8">
     <g id="line2d_8">
      <g>
       <use style="stroke:#000000;stroke-width:0.8;" x="440.520625" xlink:href="#mfe5d6fb252" y="303.64"/>
      </g>
     </g>
     <g id="text_8">
      <text style="font-family:DejaVu Sans;font-size:10px;font-style:normal;font-weight:normal;text-anchor:middle;" transform="rotate(-0, 440.520625, 318.238437)" x="440.520625" y="318.238437">400</text>
     </g>
    </g>
    <g id="text_9">
     <text style="font-family:DejaVu Sans;font-size:10px;font-style:normal;font-weight:normal;text-anchor:middle;" transform="rotate(-0, 248.509228, 331.916562)" x="248.509228" y="331.916562">Amount of languages tested</text>
    </g>
   </g>
   <g id="matplotlib.axis_2">
    <g id="ytick_1">
     <g id="line2d_9">
      <defs>
       <path d="M 0 0 
L -3.5 0 
" id="ma8490db6aa" style="stroke:#000000;stroke-width:0.8;"/>
      </defs>
      <g>
       <use style="stroke:#000000;stroke-width:0.8;" x="56.09" xlink:href="#ma8490db6aa" y="268.895505"/>
      </g>
     </g>
     <g id="text_10">
      <text style="font-family:DejaVu Sans;font-size:10px;font-style:normal;font-weight:normal;text-anchor:end;" transform="rotate(-0, 49.09, 272.694723)" x="49.09" y="272.694723">−0.2</text>
     </g>
    </g>
    <g id="ytick_2">
     <g id="line2d_10">
      <g>
       <use style="stroke:#000000;stroke-width:0.8;" x="56.09" xlink:href="#ma8490db6aa" y="218.499639"/>
      </g>
     </g>
     <g id="text_11">
      <text style="font-family:DejaVu Sans;font-size:10px;font-style:normal;font-weight:normal;text-anchor:end;" transform="rotate(-0, 49.09, 222.298858)" x="49.09" y="222.298858">−0.1</text>
     </g>
    </g>
    <g id="ytick_3">
     <g id="line2d_11">
      <g>
       <use style="stroke:#000000;stroke-width:0.8;" x="56.09" xlink:href="#ma8490db6aa" y="168.103774"/>
      </g>
     </g>
     <g id="text_12">
      <text style="font-family:DejaVu Sans;font-size:10px;font-style:normal;font-weight:normal;text-anchor:end;" transform="rotate(-0, 49.09, 171.902992)" x="49.09" y="171.902992">0.0</text>
     </g>
    </g>
    <g id="ytick_4">
     <g id="line2d_12">
      <g>
       <use style="stroke:#000000;stroke-width:0.8;" x="56.09" xlink:href="#ma8490db6aa" y="117.707908"/>
      </g>
     </g>
     <g id="text_13">
      <text style="font-family:DejaVu Sans;font-size:10px;font-style:normal;font-weight:normal;text-anchor:end;" transform="rotate(-0, 49.09, 121.507127)" x="49.09" y="121.507127">0.1</text>
     </g>
    </g>
    <g id="ytick_5">
     <g id="line2d_13">
      <g>
       <use style="stroke:#000000;stroke-width:0.8;" x="56.09" xlink:href="#ma8490db6aa" y="67.312042"/>
      </g>
     </g>
     <g id="text_14">
      <text style="font-family:DejaVu Sans;font-size:10px;font-style:normal;font-weight:normal;text-anchor:end;" transform="rotate(-0, 49.09, 71.111261)" x="49.09" y="71.111261">0.2</text>
     </g>
    </g>
    <g id="ytick_6">
     <g id="line2d_14">
      <g>
       <use style="stroke:#000000;stroke-width:0.8;" x="56.09" xlink:href="#ma8490db6aa" y="16.916177"/>
      </g>
     </g>
     <g id="text_15">
      <text style="font-family:DejaVu Sans;font-size:10px;font-style:normal;font-weight:normal;text-anchor:end;" transform="rotate(-0, 49.09, 20.715396)" x="49.09" y="20.715396">0.3</text>
     </g>
    </g>
    <g id="text_16">
     <text style="font-family:DejaVu Sans;font-size:10px;font-style:normal;font-weight:normal;text-anchor:middle;" transform="rotate(-90, 18.7275, 158.48)" x="18.7275" y="158.48">Score - base</text>
    </g>
   </g>
   <g id="line2d_15">
    <path clip-path="url(#pd9b8971984)" d="M 75.834244 169.846908 
L 84.56344 169.200358 
L 91.352814 168.697485 
L 92.322724 168.625646 
L 93.292635 168.553808 
L 94.262546 168.481969 
L 96.202367 168.338291 
L 98.142188 168.194613 
L 99.112098 168.122774 
L 102.991741 167.835419 
L 106.871383 167.548063 
L 107.841294 167.476224 
L 109.781115 167.332547 
L 110.751026 167.260708 
L 111.720936 167.188869 
L 112.690847 167.11703 
L 113.660757 167.045191 
L 114.630668 166.973352 
L 115.600578 166.901513 
L 116.570489 166.829674 
L 117.5404 166.757835 
L 120.450131 166.542319 
L 124.329774 166.254963 
L 125.299684 166.183124 
L 126.269595 166.111285 
L 127.239506 166.039447 
L 128.209416 165.967608 
L 131.119148 165.752091 
L 132.089058 165.680252 
L 133.058969 165.608413 
L 134.02888 165.536574 
L 135.968701 165.392897 
L 136.938611 165.321058 
L 137.908522 165.249219 
L 143.727986 164.818186 
L 145.667807 164.674508 
L 150.51736 164.315313 
L 151.48727 164.243474 
L 154.397002 164.027958 
L 160.216466 163.596924 
L 164.096108 163.309569 
L 167.00584 163.094052 
L 168.945661 162.950375 
L 169.915571 162.878536 
L 170.885482 162.806697 
L 171.855393 162.734858 
L 172.825303 162.663019 
L 175.735035 162.447502 
L 179.614677 162.160147 
L 180.584588 162.088308 
L 181.554498 162.016469 
L 182.524409 161.94463 
L 183.49432 161.872791 
L 186.404051 161.657275 
L 191.253604 161.29808 
L 198.042978 160.795208 
L 200.95271 160.579691 
L 202.892531 160.436014 
L 208.711995 160.00498 
L 209.681906 159.933141 
L 213.561548 159.645786 
L 217.44119 159.35843 
L 218.411101 159.286591 
L 234.899581 158.06533 
L 241.688955 157.562458 
L 245.568597 157.275103 
L 247.508418 157.131425 
L 251.388061 156.844069 
L 255.267703 156.556714 
L 281.455289 154.617064 
L 287.274753 154.186031 
L 292.124305 153.826836 
L 293.094216 153.754997 
L 304.733143 152.892931 
L 311.522517 152.390058 
L 312.492428 152.31822 
L 328.010997 151.168797 
L 343.529567 150.019375 
L 345.469388 149.875697 
L 349.34903 149.588342 
L 355.168494 149.157309 
L 358.078225 148.941792 
L 362.927778 148.582598 
L 366.807421 148.295242 
L 383.295901 147.073981 
L 384.265811 147.002142 
L 392.025096 146.427431 
L 397.84456 145.996398 
L 419.182593 144.415942 
L 421.122414 144.272264 
" style="fill:none;stroke:#1f77b4;stroke-linecap:square;stroke-width:1.5;"/>
   </g>
   <g id="patch_3">
    <path d="M 56.09 303.64 
L 56.09 13.32 
" style="fill:none;stroke:#000000;stroke-linecap:square;stroke-linejoin:miter;stroke-width:0.8;"/>
   </g>
   <g id="patch_4">
    <path d="M 440.928457 303.64 
L 440.928457 13.32 
" style="fill:none;stroke:#000000;stroke-linecap:square;stroke-linejoin:miter;stroke-width:0.8;"/>
   </g>
   <g id="patch_5">
    <path d="M 56.09 303.64 
L 440.928457 303.64 
" style="fill:none;stroke:#000000;stroke-linecap:square;stroke-linejoin:miter;stroke-width:0.8;"/>
   </g>
   <g id="patch_6">
    <path d="M 56.09 13.32 
L 440.928457 13.32 
" style="fill:none;stroke:#000000;stroke-linecap:square;stroke-linejoin:miter;stroke-width:0.8;"/>
   </g>
  </g>
 </g>
 <defs>
  <clipPath id="pd9b8971984">
   <rect height="290.32" width="384.838457" x="56.09" y="13.32"/>
  </clipPath>
 </defs>
</svg>
