<?xml version="1.0" encoding="utf-8" standalone="no"?>
<!DOCTYPE svg PUBLIC "-//W3C//DTD SVG 1.1//EN"
  "http://www.w3.org/Graphics/SVG/1.1/DTD/svg11.dtd">
<!-- Created with matplotlib (http://matplotlib.org/) -->
<svg height="345.6pt" version="1.1" viewBox="0 0 460.8 345.6" width="460.8pt" xmlns="http://www.w3.org/2000/svg" xmlns:xlink="http://www.w3.org/1999/xlink">
 <defs>
  <style type="text/css">
*{stroke-linecap:butt;stroke-linejoin:round;}
  </style>
 </defs>
 <g id="figure_1">
  <g id="patch_1">
   <path d="M 0 345.6 
L 460.8 345.6 
L 460.8 0 
L 0 0 
z
" style="fill:#ffffff;"/>
  </g>
  <g id="axes_1">
   <g id="patch_2">
    <path d="M 56.09 303.64 
L 447.48 303.64 
L 447.48 14.53648 
L 56.09 14.53648 
z
" style="fill:#ffffff;"/>
   </g>
   <g id="42A">
    <defs>
     <path d="M 0 3 
C 0.795609 3 1.55874 2.683901 2.12132 2.12132 
C 2.683901 1.55874 3 0.795609 3 0 
C 3 -0.795609 2.683901 -1.55874 2.12132 -2.12132 
C 1.55874 -2.683901 0.795609 -3 0 -3 
C -0.795609 -3 -1.55874 -2.683901 -2.12132 -2.12132 
C -2.683901 -1.55874 -3 -0.795609 -3 0 
C -3 0.795609 -2.683901 1.55874 -2.12132 2.12132 
C -1.55874 2.683901 -0.795609 3 0 3 
z
" id="m5564cf1464" style="stroke:#1f77b4;"/>
    </defs>
    <g clip-path="url(#p1ef9dbd86a)">
     <use style="fill:#1f77b4;stroke:#1f77b4;" x="112.517271" xlink:href="#m5564cf1464" y="167.349226"/>
    </g>
   </g>
   <g id="45A">
    <defs>
     <path d="M 0 3 
C 0.795609 3 1.55874 2.683901 2.12132 2.12132 
C 2.683901 1.55874 3 0.795609 3 0 
C 3 -0.795609 2.683901 -1.55874 2.12132 -2.12132 
C 1.55874 -2.683901 0.795609 -3 0 -3 
C -0.795609 -3 -1.55874 -2.683901 -2.12132 -2.12132 
C -2.683901 -1.55874 -3 -0.795609 -3 0 
C -3 0.795609 -2.683901 1.55874 -2.12132 2.12132 
C -1.55874 2.683901 -0.795609 3 0 3 
z
" id="m355ab2ecf1" style="stroke:#ff7f0e;"/>
    </defs>
    <g clip-path="url(#p1ef9dbd86a)">
     <use style="fill:#ff7f0e;stroke:#ff7f0e;" x="137.886773" xlink:href="#m355ab2ecf1" y="247.75115"/>
    </g>
   </g>
   <g id="48A">
    <defs>
     <path d="M 0 3 
C 0.795609 3 1.55874 2.683901 2.12132 2.12132 
C 2.683901 1.55874 3 0.795609 3 0 
C 3 -0.795609 2.683901 -1.55874 2.12132 -2.12132 
C 1.55874 -2.683901 0.795609 -3 0 -3 
C -0.795609 -3 -1.55874 -2.683901 -2.12132 -2.12132 
C -2.683901 -1.55874 -3 -0.795609 -3 0 
C -3 0.795609 -2.683901 1.55874 -2.12132 2.12132 
C -1.55874 2.683901 -0.795609 3 0 3 
z
" id="m6e1af5f8d7" style="stroke:#2ca02c;"/>
    </defs>
    <g clip-path="url(#p1ef9dbd86a)">
     <use style="fill:#2ca02c;stroke:#2ca02c;" x="199.90111" xlink:href="#m6e1af5f8d7" y="170.739669"/>
    </g>
   </g>
   <g id="50A">
    <defs>
     <path d="M 0 3 
C 0.795609 3 1.55874 2.683901 2.12132 2.12132 
C 2.683901 1.55874 3 0.795609 3 0 
C 3 -0.795609 2.683901 -1.55874 2.12132 -2.12132 
C 1.55874 -2.683901 0.795609 -3 0 -3 
C -0.795609 -3 -1.55874 -2.683901 -2.12132 -2.12132 
C -2.683901 -1.55874 -3 -0.795609 -3 0 
C -3 0.795609 -2.683901 1.55874 -2.12132 2.12132 
C -1.55874 2.683901 -0.795609 3 0 3 
z
" id="mcb72aa9339" style="stroke:#d62728;"/>
    </defs>
    <g clip-path="url(#p1ef9dbd86a)">
     <use style="fill:#d62728;stroke:#d62728;" x="150.571523" xlink:href="#mcb72aa9339" y="140.595904"/>
    </g>
   </g>
   <g id="56A">
    <defs>
     <path d="M 0 3 
C 0.795609 3 1.55874 2.683901 2.12132 2.12132 
C 2.683901 1.55874 3 0.795609 3 0 
C 3 -0.795609 2.683901 -1.55874 2.12132 -2.12132 
C 1.55874 -2.683901 0.795609 -3 0 -3 
C -0.795609 -3 -1.55874 -2.683901 -2.12132 -2.12132 
C -2.683901 -1.55874 -3 -0.795609 -3 0 
C -3 0.795609 -2.683901 1.55874 -2.12132 2.12132 
C -1.55874 2.683901 -0.795609 3 0 3 
z
" id="mc8934a3992" style="stroke:#9467bd;"/>
    </defs>
    <g clip-path="url(#p1ef9dbd86a)">
     <use style="fill:#9467bd;stroke:#9467bd;" x="74.463019" xlink:href="#mc8934a3992" y="39.804007"/>
    </g>
   </g>
   <g id="37A">
    <defs>
     <path d="M 0 3 
C 0.795609 3 1.55874 2.683901 2.12132 2.12132 
C 2.683901 1.55874 3 0.795609 3 0 
C 3 -0.795609 2.683901 -1.55874 2.12132 -2.12132 
C 1.55874 -2.683901 0.795609 -3 0 -3 
C -0.795609 -3 -1.55874 -2.683901 -2.12132 -2.12132 
C -2.683901 -1.55874 -3 -0.795609 -3 0 
C -3 0.795609 -2.683901 1.55874 -2.12132 2.12132 
C -1.55874 2.683901 -0.795609 3 0 3 
z
" id="m3abb7390c1" style="stroke:#8c564b;"/>
    </defs>
    <g clip-path="url(#p1ef9dbd86a)">
     <use style="fill:#8c564b;stroke:#8c564b;" x="292.922615" xlink:href="#m3abb7390c1" y="196.477196"/>
    </g>
   </g>
   <g id="33A">
    <defs>
     <path d="M 0 3 
C 0.795609 3 1.55874 2.683901 2.12132 2.12132 
C 2.683901 1.55874 3 0.795609 3 0 
C 3 -0.795609 2.683901 -1.55874 2.12132 -2.12132 
C 1.55874 -2.683901 0.795609 -3 0 -3 
C -0.795609 -3 -1.55874 -2.683901 -2.12132 -2.12132 
C -2.683901 -1.55874 -3 -0.795609 -3 0 
C -3 0.795609 -2.683901 1.55874 -2.12132 2.12132 
C -1.55874 2.683901 -0.795609 3 0 3 
z
" id="me8849eac54" style="stroke:#e377c2;"/>
    </defs>
    <g clip-path="url(#p1ef9dbd86a)">
     <use style="fill:#e377c2;stroke:#e377c2;" x="428.226623" xlink:href="#me8849eac54" y="182.086393"/>
    </g>
   </g>
   <g id="40A">
    <defs>
     <path d="M 0 3 
C 0.795609 3 1.55874 2.683901 2.12132 2.12132 
C 2.683901 1.55874 3 0.795609 3 0 
C 3 -0.795609 2.683901 -1.55874 2.12132 -2.12132 
C 1.55874 -2.683901 0.795609 -3 0 -3 
C -0.795609 -3 -1.55874 -2.683901 -2.12132 -2.12132 
C -2.683901 -1.55874 -3 -0.795609 -3 0 
C -3 0.795609 -2.683901 1.55874 -2.12132 2.12132 
C -1.55874 2.683901 -0.795609 3 0 3 
z
" id="m3668b442b1" style="stroke:#7f7f7f;"/>
    </defs>
    <g clip-path="url(#p1ef9dbd86a)">
     <use style="fill:#7f7f7f;stroke:#7f7f7f;" x="116.745521" xlink:href="#m3668b442b1" y="189.293959"/>
    </g>
   </g>
   <g id="53A">
    <defs>
     <path d="M 0 3 
C 0.795609 3 1.55874 2.683901 2.12132 2.12132 
C 2.683901 1.55874 3 0.795609 3 0 
C 3 -0.795609 2.683901 -1.55874 2.12132 -2.12132 
C 1.55874 -2.683901 0.795609 -3 0 -3 
C -0.795609 -3 -1.55874 -2.683901 -2.12132 -2.12132 
C -2.683901 -1.55874 -3 -0.795609 -3 0 
C -3 0.795609 -2.683901 1.55874 -2.12132 2.12132 
C -1.55874 2.683901 -0.795609 3 0 3 
z
" id="m856a0610d2" style="stroke:#bcbd22;"/>
    </defs>
    <g clip-path="url(#p1ef9dbd86a)">
     <use style="fill:#bcbd22;stroke:#bcbd22;" x="184.397525" xlink:href="#m856a0610d2" y="187.350596"/>
    </g>
   </g>
   <g id="52A">
    <defs>
     <path d="M 0 3 
C 0.795609 3 1.55874 2.683901 2.12132 2.12132 
C 2.683901 1.55874 3 0.795609 3 0 
C 3 -0.795609 2.683901 -1.55874 2.12132 -2.12132 
C 1.55874 -2.683901 0.795609 -3 0 -3 
C -0.795609 -3 -1.55874 -2.683901 -2.12132 -2.12132 
C -2.683901 -1.55874 -3 -0.795609 -3 0 
C -3 0.795609 -2.683901 1.55874 -2.12132 2.12132 
C -1.55874 2.683901 -0.795609 3 0 3 
z
" id="m0629d0ad79" style="stroke:#17becf;"/>
    </defs>
    <g clip-path="url(#p1ef9dbd86a)">
     <use style="fill:#17becf;stroke:#17becf;" x="163.256274" xlink:href="#m0629d0ad79" y="179.882272"/>
    </g>
   </g>
   <g id="31A">
    <g clip-path="url(#p1ef9dbd86a)">
     <use style="fill:#1f77b4;stroke:#1f77b4;" x="126.611439" xlink:href="#m5564cf1464" y="167.01683"/>
    </g>
   </g>
   <g id="39A">
    <g clip-path="url(#p1ef9dbd86a)">
     <use style="fill:#ff7f0e;stroke:#ff7f0e;" x="116.745521" xlink:href="#m355ab2ecf1" y="160.083992"/>
    </g>
   </g>
   <g id="43A">
    <g clip-path="url(#p1ef9dbd86a)">
     <use style="fill:#2ca02c;stroke:#2ca02c;" x="122.383188" xlink:href="#m6e1af5f8d7" y="167.349226"/>
    </g>
   </g>
   <g id="44A">
    <g clip-path="url(#p1ef9dbd86a)">
     <use style="fill:#d62728;stroke:#d62728;" x="197.082276" xlink:href="#mcb72aa9339" y="167.349226"/>
    </g>
   </g>
   <g id="49A">
    <g clip-path="url(#p1ef9dbd86a)">
     <use style="fill:#9467bd;stroke:#9467bd;" x="150.571523" xlink:href="#mc8934a3992" y="167.349226"/>
    </g>
   </g>
   <g id="38A">
    <g clip-path="url(#p1ef9dbd86a)">
     <use style="fill:#8c564b;stroke:#8c564b;" x="268.96253" xlink:href="#m3abb7390c1" y="207.743433"/>
    </g>
   </g>
   <g id="36A">
    <g clip-path="url(#p1ef9dbd86a)">
     <use style="fill:#e377c2;stroke:#e377c2;" x="135.067939" xlink:href="#me8849eac54" y="213.967811"/>
    </g>
   </g>
   <g id="30A">
    <g clip-path="url(#p1ef9dbd86a)">
     <use style="fill:#7f7f7f;stroke:#7f7f7f;" x="126.611439" xlink:href="#m3668b442b1" y="167.349226"/>
    </g>
   </g>
   <g id="35A">
    <g clip-path="url(#p1ef9dbd86a)">
     <use style="fill:#bcbd22;stroke:#bcbd22;" x="136.477356" xlink:href="#m856a0610d2" y="167.349226"/>
    </g>
   </g>
   <g id="34A">
    <g clip-path="url(#p1ef9dbd86a)">
     <use style="fill:#17becf;stroke:#17becf;" x="137.886773" xlink:href="#m0629d0ad79" y="173.083063"/>
    </g>
   </g>
   <g id="47A">
    <g clip-path="url(#p1ef9dbd86a)">
     <use style="fill:#1f77b4;stroke:#1f77b4;" x="118.154938" xlink:href="#m5564cf1464" y="29.543487"/>
    </g>
   </g>
   <g id="51A">
    <g clip-path="url(#p1ef9dbd86a)">
     <use style="fill:#ff7f0e;stroke:#ff7f0e;" x="394.400621" xlink:href="#m355ab2ecf1" y="85.735166"/>
    </g>
   </g>
   <g id="32A">
    <g clip-path="url(#p1ef9dbd86a)">
     <use style="fill:#2ca02c;stroke:#2ca02c;" x="126.611439" xlink:href="#m6e1af5f8d7" y="178.983098"/>
    </g>
   </g>
   <g id="55A">
    <g clip-path="url(#p1ef9dbd86a)">
     <use style="fill:#d62728;stroke:#d62728;" x="171.712775" xlink:href="#mcb72aa9339" y="161.366092"/>
    </g>
   </g>
   <g id="41A">
    <g clip-path="url(#p1ef9dbd86a)">
     <use style="fill:#9467bd;stroke:#9467bd;" x="119.564355" xlink:href="#mc8934a3992" y="158.565227"/>
    </g>
   </g>
   <g id="54A">
    <g clip-path="url(#p1ef9dbd86a)">
     <use style="fill:#8c564b;stroke:#8c564b;" x="120.973772" xlink:href="#m3abb7390c1" y="288.53333"/>
    </g>
   </g>
   <g id="46A">
    <g clip-path="url(#p1ef9dbd86a)">
     <use style="fill:#e377c2;stroke:#e377c2;" x="146.343273" xlink:href="#me8849eac54" y="98.075944"/>
    </g>
   </g>
   <g id="57A">
    <g clip-path="url(#p1ef9dbd86a)">
     <use style="fill:#7f7f7f;stroke:#7f7f7f;" x="376.078203" xlink:href="#m3668b442b1" y="86.667844"/>
    </g>
   </g>
   <g id="matplotlib.axis_1">
    <g id="xtick_1">
     <g id="line2d_1">
      <defs>
       <path d="M 0 0 
L 0 3.5 
" id="m59c9f5493c" style="stroke:#000000;stroke-width:0.8;"/>
      </defs>
      <g>
       <use style="stroke:#000000;stroke-width:0.8;" x="98.423104" xlink:href="#m59c9f5493c" y="303.64"/>
      </g>
     </g>
     <g id="text_1">
      <text style="font-family:DejaVu Sans;font-size:10px;font-style:normal;font-weight:normal;text-anchor:middle;" transform="rotate(-0, 98.423104, 318.238437)" x="98.423104" y="318.238437">50</text>
     </g>
    </g>
    <g id="xtick_2">
     <g id="line2d_2">
      <g>
       <use style="stroke:#000000;stroke-width:0.8;" x="168.893941" xlink:href="#m59c9f5493c" y="303.64"/>
      </g>
     </g>
     <g id="text_2">
      <text style="font-family:DejaVu Sans;font-size:10px;font-style:normal;font-weight:normal;text-anchor:middle;" transform="rotate(-0, 168.893941, 318.238437)" x="168.893941" y="318.238437">100</text>
     </g>
    </g>
    <g id="xtick_3">
     <g id="line2d_3">
      <g>
       <use style="stroke:#000000;stroke-width:0.8;" x="239.364779" xlink:href="#m59c9f5493c" y="303.64"/>
      </g>
     </g>
     <g id="text_3">
      <text style="font-family:DejaVu Sans;font-size:10px;font-style:normal;font-weight:normal;text-anchor:middle;" transform="rotate(-0, 239.364779, 318.238437)" x="239.364779" y="318.238437">150</text>
     </g>
    </g>
    <g id="xtick_4">
     <g id="line2d_4">
      <g>
       <use style="stroke:#000000;stroke-width:0.8;" x="309.835616" xlink:href="#m59c9f5493c" y="303.64"/>
      </g>
     </g>
     <g id="text_4">
      <text style="font-family:DejaVu Sans;font-size:10px;font-style:normal;font-weight:normal;text-anchor:middle;" transform="rotate(-0, 309.835616, 318.238437)" x="309.835616" y="318.238437">200</text>
     </g>
    </g>
    <g id="xtick_5">
     <g id="line2d_5">
      <g>
       <use style="stroke:#000000;stroke-width:0.8;" x="380.306453" xlink:href="#m59c9f5493c" y="303.64"/>
      </g>
     </g>
     <g id="text_5">
      <text style="font-family:DejaVu Sans;font-size:10px;font-style:normal;font-weight:normal;text-anchor:middle;" transform="rotate(-0, 380.306453, 318.238437)" x="380.306453" y="318.238437">250</text>
     </g>
    </g>
    <g id="text_6">
     <text style="font-family:DejaVu Sans;font-size:10px;font-style:normal;font-weight:normal;text-anchor:middle;" transform="rotate(-0, 251.785, 331.916562)" x="251.785" y="331.916562">Amount of languages tested</text>
    </g>
   </g>
   <g id="matplotlib.axis_2">
    <g id="ytick_1">
     <g id="line2d_6">
      <defs>
       <path d="M 0 0 
L -3.5 0 
" id="m7297a1b68c" style="stroke:#000000;stroke-width:0.8;"/>
      </defs>
      <g>
       <use style="stroke:#000000;stroke-width:0.8;" x="56.09" xlink:href="#m7297a1b68c" y="269.062503"/>
      </g>
     </g>
     <g id="text_7">
      <text style="font-family:DejaVu Sans;font-size:10px;font-style:normal;font-weight:normal;text-anchor:end;" transform="rotate(-0, 49.09, 272.861721)" x="49.09" y="272.861721">−0.2</text>
     </g>
    </g>
    <g id="ytick_2">
     <g id="line2d_7">
      <g>
       <use style="stroke:#000000;stroke-width:0.8;" x="56.09" xlink:href="#m7297a1b68c" y="218.205864"/>
      </g>
     </g>
     <g id="text_8">
      <text style="font-family:DejaVu Sans;font-size:10px;font-style:normal;font-weight:normal;text-anchor:end;" transform="rotate(-0, 49.09, 222.005083)" x="49.09" y="222.005083">−0.1</text>
     </g>
    </g>
    <g id="ytick_3">
     <g id="line2d_8">
      <g>
       <use style="stroke:#000000;stroke-width:0.8;" x="56.09" xlink:href="#m7297a1b68c" y="167.349226"/>
      </g>
     </g>
     <g id="text_9">
      <text style="font-family:DejaVu Sans;font-size:10px;font-style:normal;font-weight:normal;text-anchor:end;" transform="rotate(-0, 49.09, 171.148445)" x="49.09" y="171.148445">0.0</text>
     </g>
    </g>
    <g id="ytick_4">
     <g id="line2d_9">
      <g>
       <use style="stroke:#000000;stroke-width:0.8;" x="56.09" xlink:href="#m7297a1b68c" y="116.492588"/>
      </g>
     </g>
     <g id="text_10">
      <text style="font-family:DejaVu Sans;font-size:10px;font-style:normal;font-weight:normal;text-anchor:end;" transform="rotate(-0, 49.09, 120.291807)" x="49.09" y="120.291807">0.1</text>
     </g>
    </g>
    <g id="ytick_5">
     <g id="line2d_10">
      <g>
       <use style="stroke:#000000;stroke-width:0.8;" x="56.09" xlink:href="#m7297a1b68c" y="65.63595"/>
      </g>
     </g>
     <g id="text_11">
      <text style="font-family:DejaVu Sans;font-size:10px;font-style:normal;font-weight:normal;text-anchor:end;" transform="rotate(-0, 49.09, 69.435169)" x="49.09" y="69.435169">0.2</text>
     </g>
    </g>
    <g id="ytick_6">
     <g id="line2d_11">
      <g>
       <use style="stroke:#000000;stroke-width:0.8;" x="56.09" xlink:href="#m7297a1b68c" y="14.779312"/>
      </g>
     </g>
     <g id="text_12">
      <text style="font-family:DejaVu Sans;font-size:10px;font-style:normal;font-weight:normal;text-anchor:end;" transform="rotate(-0, 49.09, 18.57853)" x="49.09" y="18.57853">0.3</text>
     </g>
    </g>
    <g id="text_13">
     <text style="font-family:DejaVu Sans;font-size:10px;font-style:normal;font-weight:normal;text-anchor:middle;" transform="rotate(-90, 18.7275, 159.08824)" x="18.7275" y="159.08824">Score - base</text>
    </g>
   </g>
   <g id="line2d_12">
    <path clip-path="url(#p1ef9dbd86a)" d="M 74.463019 167.881212 
L 112.517271 165.848157 
L 116.745521 165.622262 
L 118.154938 165.546964 
L 119.564355 165.471665 
L 120.973772 165.396367 
L 122.383188 165.321069 
L 126.611439 165.095174 
L 135.067939 164.643384 
L 136.477356 164.568085 
L 137.886773 164.492787 
L 146.343273 164.040997 
L 150.571523 163.815102 
L 163.256274 163.137417 
L 171.712775 162.685627 
L 184.397525 162.007942 
L 197.082276 161.330257 
L 199.90111 161.17966 
L 268.96253 157.490041 
L 292.922615 156.20997 
L 376.078203 151.767368 
L 394.400621 150.788489 
L 428.226623 148.981329 
" style="fill:none;stroke:#1f77b4;stroke-linecap:square;stroke-width:1.5;"/>
   </g>
   <g id="patch_3">
    <path d="M 56.09 303.64 
L 56.09 14.53648 
" style="fill:none;stroke:#000000;stroke-linecap:square;stroke-linejoin:miter;stroke-width:0.8;"/>
   </g>
   <g id="patch_4">
    <path d="M 447.48 303.64 
L 447.48 14.53648 
" style="fill:none;stroke:#000000;stroke-linecap:square;stroke-linejoin:miter;stroke-width:0.8;"/>
   </g>
   <g id="patch_5">
    <path d="M 56.09 303.64 
L 447.48 303.64 
" style="fill:none;stroke:#000000;stroke-linecap:square;stroke-linejoin:miter;stroke-width:0.8;"/>
   </g>
   <g id="patch_6">
    <path d="M 56.09 14.53648 
L 447.48 14.53648 
" style="fill:none;stroke:#000000;stroke-linecap:square;stroke-linejoin:miter;stroke-width:0.8;"/>
   </g>
  </g>
 </g>
 <defs>
  <clipPath id="p1ef9dbd86a">
   <rect height="289.10352" width="391.39" x="56.09" y="14.53648"/>
  </clipPath>
 </defs>
</svg>
