<?xml version="1.0" encoding="utf-8" standalone="no"?>
<!DOCTYPE svg PUBLIC "-//W3C//DTD SVG 1.1//EN"
  "http://www.w3.org/Graphics/SVG/1.1/DTD/svg11.dtd">
<!-- Created with matplotlib (http://matplotlib.org/) -->
<svg height="345.6pt" version="1.1" viewBox="0 0 460.8 345.6" width="460.8pt" xmlns="http://www.w3.org/2000/svg" xmlns:xlink="http://www.w3.org/1999/xlink">
 <defs>
  <style type="text/css">
*{stroke-linecap:butt;stroke-linejoin:round;}
  </style>
 </defs>
 <g id="figure_1">
  <g id="patch_1">
   <path d="M 0 345.6 
L 460.8 345.6 
L 460.8 0 
L 0 0 
z
" style="fill:#ffffff;"/>
  </g>
  <g id="axes_1">
   <g id="patch_2">
    <path d="M 56.09 303.64 
L 447.48 303.64 
L 447.48 13.32 
L 56.09 13.32 
z
" style="fill:#ffffff;"/>
   </g>
   <g id="44A">
    <defs>
     <path d="M 0 3 
C 0.795609 3 1.55874 2.683901 2.12132 2.12132 
C 2.683901 1.55874 3 0.795609 3 0 
C 3 -0.795609 2.683901 -1.55874 2.12132 -2.12132 
C 1.55874 -2.683901 0.795609 -3 0 -3 
C -0.795609 -3 -1.55874 -2.683901 -2.12132 -2.12132 
C -2.683901 -1.55874 -3 -0.795609 -3 0 
C -3 0.795609 -2.683901 1.55874 -2.12132 2.12132 
C -1.55874 2.683901 -0.795609 3 0 3 
z
" id="m07bce5bdae" style="stroke:#1f77b4;"/>
    </defs>
    <g clip-path="url(#pcff485f2e7)">
     <use style="fill:#1f77b4;stroke:#1f77b4;" x="197.690417" xlink:href="#m07bce5bdae" y="170.29706"/>
    </g>
   </g>
   <g id="42A">
    <defs>
     <path d="M 0 3 
C 0.795609 3 1.55874 2.683901 2.12132 2.12132 
C 2.683901 1.55874 3 0.795609 3 0 
C 3 -0.795609 2.683901 -1.55874 2.12132 -2.12132 
C 1.55874 -2.683901 0.795609 -3 0 -3 
C -0.795609 -3 -1.55874 -2.683901 -2.12132 -2.12132 
C -2.683901 -1.55874 -3 -0.795609 -3 0 
C -3 0.795609 -2.683901 1.55874 -2.12132 2.12132 
C -1.55874 2.683901 -0.795609 3 0 3 
z
" id="m0540f8fac5" style="stroke:#ff7f0e;"/>
    </defs>
    <g clip-path="url(#pcff485f2e7)">
     <use style="fill:#ff7f0e;stroke:#ff7f0e;" x="113.593054" xlink:href="#m0540f8fac5" y="170.29706"/>
    </g>
   </g>
   <g id="39A">
    <defs>
     <path d="M 0 3 
C 0.795609 3 1.55874 2.683901 2.12132 2.12132 
C 2.683901 1.55874 3 0.795609 3 0 
C 3 -0.795609 2.683901 -1.55874 2.12132 -2.12132 
C 1.55874 -2.683901 0.795609 -3 0 -3 
C -0.795609 -3 -1.55874 -2.683901 -2.12132 -2.12132 
C -2.683901 -1.55874 -3 -0.795609 -3 0 
C -3 0.795609 -2.683901 1.55874 -2.12132 2.12132 
C -1.55874 2.683901 -0.795609 3 0 3 
z
" id="m520bc62fce" style="stroke:#2ca02c;"/>
    </defs>
    <g clip-path="url(#pcff485f2e7)">
     <use style="fill:#2ca02c;stroke:#2ca02c;" x="117.797922" xlink:href="#m520bc62fce" y="155.418036"/>
    </g>
   </g>
   <g id="30A">
    <defs>
     <path d="M 0 3 
C 0.795609 3 1.55874 2.683901 2.12132 2.12132 
C 2.683901 1.55874 3 0.795609 3 0 
C 3 -0.795609 2.683901 -1.55874 2.12132 -2.12132 
C 1.55874 -2.683901 0.795609 -3 0 -3 
C -0.795609 -3 -1.55874 -2.683901 -2.12132 -2.12132 
C -2.683901 -1.55874 -3 -0.795609 -3 0 
C -3 0.795609 -2.683901 1.55874 -2.12132 2.12132 
C -1.55874 2.683901 -0.795609 3 0 3 
z
" id="m7f5986c7ed" style="stroke:#d62728;"/>
    </defs>
    <g clip-path="url(#pcff485f2e7)">
     <use style="fill:#d62728;stroke:#d62728;" x="127.609281" xlink:href="#m7f5986c7ed" y="163.959139"/>
    </g>
   </g>
   <g id="41A">
    <defs>
     <path d="M 0 3 
C 0.795609 3 1.55874 2.683901 2.12132 2.12132 
C 2.683901 1.55874 3 0.795609 3 0 
C 3 -0.795609 2.683901 -1.55874 2.12132 -2.12132 
C 1.55874 -2.683901 0.795609 -3 0 -3 
C -0.795609 -3 -1.55874 -2.683901 -2.12132 -2.12132 
C -2.683901 -1.55874 -3 -0.795609 -3 0 
C -3 0.795609 -2.683901 1.55874 -2.12132 2.12132 
C -1.55874 2.683901 -0.795609 3 0 3 
z
" id="m8a5f31f9b9" style="stroke:#9467bd;"/>
    </defs>
    <g clip-path="url(#pcff485f2e7)">
     <use style="fill:#9467bd;stroke:#9467bd;" x="120.601168" xlink:href="#m8a5f31f9b9" y="111.644853"/>
    </g>
   </g>
   <g id="53A">
    <defs>
     <path d="M 0 3 
C 0.795609 3 1.55874 2.683901 2.12132 2.12132 
C 2.683901 1.55874 3 0.795609 3 0 
C 3 -0.795609 2.683901 -1.55874 2.12132 -2.12132 
C 1.55874 -2.683901 0.795609 -3 0 -3 
C -0.795609 -3 -1.55874 -2.683901 -2.12132 -2.12132 
C -2.683901 -1.55874 -3 -0.795609 -3 0 
C -3 0.795609 -2.683901 1.55874 -2.12132 2.12132 
C -1.55874 2.683901 -0.795609 3 0 3 
z
" id="m3204ac31bd" style="stroke:#8c564b;"/>
    </defs>
    <g clip-path="url(#pcff485f2e7)">
     <use style="fill:#8c564b;stroke:#8c564b;" x="185.075813" xlink:href="#m3204ac31bd" y="189.648837"/>
    </g>
   </g>
   <g id="47A">
    <defs>
     <path d="M 0 3 
C 0.795609 3 1.55874 2.683901 2.12132 2.12132 
C 2.683901 1.55874 3 0.795609 3 0 
C 3 -0.795609 2.683901 -1.55874 2.12132 -2.12132 
C 1.55874 -2.683901 0.795609 -3 0 -3 
C -0.795609 -3 -1.55874 -2.683901 -2.12132 -2.12132 
C -2.683901 -1.55874 -3 -0.795609 -3 0 
C -3 0.795609 -2.683901 1.55874 -2.12132 2.12132 
C -1.55874 2.683901 -0.795609 3 0 3 
z
" id="ma771a90221" style="stroke:#e377c2;"/>
    </defs>
    <g clip-path="url(#pcff485f2e7)">
     <use style="fill:#e377c2;stroke:#e377c2;" x="119.199545" xlink:href="#ma771a90221" y="45.505396"/>
    </g>
   </g>
   <g id="45A">
    <defs>
     <path d="M 0 3 
C 0.795609 3 1.55874 2.683901 2.12132 2.12132 
C 2.683901 1.55874 3 0.795609 3 0 
C 3 -0.795609 2.683901 -1.55874 2.12132 -2.12132 
C 1.55874 -2.683901 0.795609 -3 0 -3 
C -0.795609 -3 -1.55874 -2.683901 -2.12132 -2.12132 
C -2.683901 -1.55874 -3 -0.795609 -3 0 
C -3 0.795609 -2.683901 1.55874 -2.12132 2.12132 
C -1.55874 2.683901 -0.795609 3 0 3 
z
" id="mc89e45f7bd" style="stroke:#7f7f7f;"/>
    </defs>
    <g clip-path="url(#pcff485f2e7)">
     <use style="fill:#7f7f7f;stroke:#7f7f7f;" x="138.822263" xlink:href="#mc89e45f7bd" y="207.238083"/>
    </g>
   </g>
   <g id="51A">
    <defs>
     <path d="M 0 3 
C 0.795609 3 1.55874 2.683901 2.12132 2.12132 
C 2.683901 1.55874 3 0.795609 3 0 
C 3 -0.795609 2.683901 -1.55874 2.12132 -2.12132 
C 1.55874 -2.683901 0.795609 -3 0 -3 
C -0.795609 -3 -1.55874 -2.683901 -2.12132 -2.12132 
C -2.683901 -1.55874 -3 -0.795609 -3 0 
C -3 0.795609 -2.683901 1.55874 -2.12132 2.12132 
C -1.55874 2.683901 -0.795609 3 0 3 
z
" id="m0f7a1393ec" style="stroke:#bcbd22;"/>
    </defs>
    <g clip-path="url(#pcff485f2e7)">
     <use style="fill:#bcbd22;stroke:#bcbd22;" x="393.917598" xlink:href="#m0f7a1393ec" y="73.475004"/>
    </g>
   </g>
   <g id="31A">
    <defs>
     <path d="M 0 3 
C 0.795609 3 1.55874 2.683901 2.12132 2.12132 
C 2.683901 1.55874 3 0.795609 3 0 
C 3 -0.795609 2.683901 -1.55874 2.12132 -2.12132 
C 1.55874 -2.683901 0.795609 -3 0 -3 
C -0.795609 -3 -1.55874 -2.683901 -2.12132 -2.12132 
C -2.683901 -1.55874 -3 -0.795609 -3 0 
C -3 0.795609 -2.683901 1.55874 -2.12132 2.12132 
C -1.55874 2.683901 -0.795609 3 0 3 
z
" id="m768ad9a14f" style="stroke:#17becf;"/>
    </defs>
    <g clip-path="url(#pcff485f2e7)">
     <use style="fill:#17becf;stroke:#17becf;" x="127.609281" xlink:href="#m768ad9a14f" y="175.930767"/>
    </g>
   </g>
   <g id="40A">
    <g clip-path="url(#pcff485f2e7)">
     <use style="fill:#1f77b4;stroke:#1f77b4;" x="117.797922" xlink:href="#m07bce5bdae" y="199.172034"/>
    </g>
   </g>
   <g id="52A">
    <g clip-path="url(#pcff485f2e7)">
     <use style="fill:#ff7f0e;stroke:#ff7f0e;" x="164.051472" xlink:href="#m0540f8fac5" y="194.422576"/>
    </g>
   </g>
   <g id="57A">
    <g clip-path="url(#pcff485f2e7)">
     <use style="fill:#2ca02c;stroke:#2ca02c;" x="375.696503" xlink:href="#m520bc62fce" y="75.325825"/>
    </g>
   </g>
   <g id="34A">
    <g clip-path="url(#pcff485f2e7)">
     <use style="fill:#d62728;stroke:#d62728;" x="138.822263" xlink:href="#m7f5986c7ed" y="185.349621"/>
    </g>
   </g>
   <g id="49A">
    <g clip-path="url(#pcff485f2e7)">
     <use style="fill:#9467bd;stroke:#9467bd;" x="151.436868" xlink:href="#m8a5f31f9b9" y="170.29706"/>
    </g>
   </g>
   <g id="55A">
    <g clip-path="url(#pcff485f2e7)">
     <use style="fill:#8c564b;stroke:#8c564b;" x="172.461208" xlink:href="#m3204ac31bd" y="167.128099"/>
    </g>
   </g>
   <g id="32A">
    <g clip-path="url(#pcff485f2e7)">
     <use style="fill:#e377c2;stroke:#e377c2;" x="127.609281" xlink:href="#ma771a90221" y="182.620794"/>
    </g>
   </g>
   <g id="35A">
    <g clip-path="url(#pcff485f2e7)">
     <use style="fill:#7f7f7f;stroke:#7f7f7f;" x="137.42064" xlink:href="#mc89e45f7bd" y="170.29706"/>
    </g>
   </g>
   <g id="56A">
    <g clip-path="url(#pcff485f2e7)">
     <use style="fill:#bcbd22;stroke:#bcbd22;" x="75.749241" xlink:href="#m0f7a1393ec" y="33.991525"/>
    </g>
   </g>
   <g id="33A">
    <g clip-path="url(#pcff485f2e7)">
     <use style="fill:#17becf;stroke:#17becf;" x="427.556543" xlink:href="#m768ad9a14f" y="161.872703"/>
    </g>
   </g>
   <g id="43A">
    <g clip-path="url(#pcff485f2e7)">
     <use style="fill:#1f77b4;stroke:#1f77b4;" x="123.404413" xlink:href="#m07bce5bdae" y="163.114083"/>
    </g>
   </g>
   <g id="37A">
    <g clip-path="url(#pcff485f2e7)">
     <use style="fill:#ff7f0e;stroke:#ff7f0e;" x="293.000762" xlink:href="#m0540f8fac5" y="199.430996"/>
    </g>
   </g>
   <g id="50A">
    <g clip-path="url(#pcff485f2e7)">
     <use style="fill:#2ca02c;stroke:#2ca02c;" x="151.436868" xlink:href="#m520bc62fce" y="160.303936"/>
    </g>
   </g>
   <g id="38A">
    <g clip-path="url(#pcff485f2e7)">
     <use style="fill:#d62728;stroke:#d62728;" x="269.173176" xlink:href="#m7f5986c7ed" y="197.233222"/>
    </g>
   </g>
   <g id="48A">
    <g clip-path="url(#pcff485f2e7)">
     <use style="fill:#9467bd;stroke:#9467bd;" x="200.493663" xlink:href="#m8a5f31f9b9" y="173.888548"/>
    </g>
   </g>
   <g id="54A">
    <g clip-path="url(#pcff485f2e7)">
     <use style="fill:#8c564b;stroke:#8c564b;" x="122.00279" xlink:href="#m3204ac31bd" y="288.872147"/>
    </g>
   </g>
   <g id="36A">
    <g clip-path="url(#pcff485f2e7)">
     <use style="fill:#e377c2;stroke:#e377c2;" x="136.019018" xlink:href="#ma771a90221" y="194.988542"/>
    </g>
   </g>
   <g id="46A">
    <g clip-path="url(#pcff485f2e7)">
     <use style="fill:#7f7f7f;stroke:#7f7f7f;" x="147.231999" xlink:href="#mc89e45f7bd" y="28.819167"/>
    </g>
   </g>
   <g id="matplotlib.axis_1">
    <g id="xtick_1">
     <g id="line2d_1">
      <defs>
       <path d="M 0 0 
L 0 3.5 
" id="m438135c95c" style="stroke:#000000;stroke-width:0.8;"/>
      </defs>
      <g>
       <use style="stroke:#000000;stroke-width:0.8;" x="99.576827" xlink:href="#m438135c95c" y="303.64"/>
      </g>
     </g>
     <g id="text_1">
      <text style="font-family:DejaVu Sans;font-size:10px;font-style:normal;font-weight:normal;text-anchor:middle;" transform="rotate(-0, 99.576827, 318.238437)" x="99.576827" y="318.238437">50</text>
     </g>
    </g>
    <g id="xtick_2">
     <g id="line2d_2">
      <g>
       <use style="stroke:#000000;stroke-width:0.8;" x="169.657963" xlink:href="#m438135c95c" y="303.64"/>
      </g>
     </g>
     <g id="text_2">
      <text style="font-family:DejaVu Sans;font-size:10px;font-style:normal;font-weight:normal;text-anchor:middle;" transform="rotate(-0, 169.657963, 318.238437)" x="169.657963" y="318.238437">100</text>
     </g>
    </g>
    <g id="xtick_3">
     <g id="line2d_3">
      <g>
       <use style="stroke:#000000;stroke-width:0.8;" x="239.739099" xlink:href="#m438135c95c" y="303.64"/>
      </g>
     </g>
     <g id="text_3">
      <text style="font-family:DejaVu Sans;font-size:10px;font-style:normal;font-weight:normal;text-anchor:middle;" transform="rotate(-0, 239.739099, 318.238437)" x="239.739099" y="318.238437">150</text>
     </g>
    </g>
    <g id="xtick_4">
     <g id="line2d_4">
      <g>
       <use style="stroke:#000000;stroke-width:0.8;" x="309.820235" xlink:href="#m438135c95c" y="303.64"/>
      </g>
     </g>
     <g id="text_4">
      <text style="font-family:DejaVu Sans;font-size:10px;font-style:normal;font-weight:normal;text-anchor:middle;" transform="rotate(-0, 309.820235, 318.238437)" x="309.820235" y="318.238437">200</text>
     </g>
    </g>
    <g id="xtick_5">
     <g id="line2d_5">
      <g>
       <use style="stroke:#000000;stroke-width:0.8;" x="379.901371" xlink:href="#m438135c95c" y="303.64"/>
      </g>
     </g>
     <g id="text_5">
      <text style="font-family:DejaVu Sans;font-size:10px;font-style:normal;font-weight:normal;text-anchor:middle;" transform="rotate(-0, 379.901371, 318.238437)" x="379.901371" y="318.238437">250</text>
     </g>
    </g>
    <g id="text_6">
     <text style="font-family:DejaVu Sans;font-size:10px;font-style:normal;font-weight:normal;text-anchor:middle;" transform="rotate(-0, 251.785, 331.916562)" x="251.785" y="331.916562">Amount of languages tested</text>
    </g>
   </g>
   <g id="matplotlib.axis_2">
    <g id="ytick_1">
     <g id="line2d_6">
      <defs>
       <path d="M 0 0 
L -3.5 0 
" id="md83d602c6a" style="stroke:#000000;stroke-width:0.8;"/>
      </defs>
      <g>
       <use style="stroke:#000000;stroke-width:0.8;" x="56.09" xlink:href="#md83d602c6a" y="278.041711"/>
      </g>
     </g>
     <g id="text_7">
      <text style="font-family:DejaVu Sans;font-size:10px;font-style:normal;font-weight:normal;text-anchor:end;" transform="rotate(-0, 49.09, 281.84093)" x="49.09" y="281.84093">−0.2</text>
     </g>
    </g>
    <g id="ytick_2">
     <g id="line2d_7">
      <g>
       <use style="stroke:#000000;stroke-width:0.8;" x="56.09" xlink:href="#md83d602c6a" y="224.169385"/>
      </g>
     </g>
     <g id="text_8">
      <text style="font-family:DejaVu Sans;font-size:10px;font-style:normal;font-weight:normal;text-anchor:end;" transform="rotate(-0, 49.09, 227.968604)" x="49.09" y="227.968604">−0.1</text>
     </g>
    </g>
    <g id="ytick_3">
     <g id="line2d_8">
      <g>
       <use style="stroke:#000000;stroke-width:0.8;" x="56.09" xlink:href="#md83d602c6a" y="170.29706"/>
      </g>
     </g>
     <g id="text_9">
      <text style="font-family:DejaVu Sans;font-size:10px;font-style:normal;font-weight:normal;text-anchor:end;" transform="rotate(-0, 49.09, 174.096278)" x="49.09" y="174.096278">0.0</text>
     </g>
    </g>
    <g id="ytick_4">
     <g id="line2d_9">
      <g>
       <use style="stroke:#000000;stroke-width:0.8;" x="56.09" xlink:href="#md83d602c6a" y="116.424734"/>
      </g>
     </g>
     <g id="text_10">
      <text style="font-family:DejaVu Sans;font-size:10px;font-style:normal;font-weight:normal;text-anchor:end;" transform="rotate(-0, 49.09, 120.223953)" x="49.09" y="120.223953">0.1</text>
     </g>
    </g>
    <g id="ytick_5">
     <g id="line2d_10">
      <g>
       <use style="stroke:#000000;stroke-width:0.8;" x="56.09" xlink:href="#md83d602c6a" y="62.552408"/>
      </g>
     </g>
     <g id="text_11">
      <text style="font-family:DejaVu Sans;font-size:10px;font-style:normal;font-weight:normal;text-anchor:end;" transform="rotate(-0, 49.09, 66.351627)" x="49.09" y="66.351627">0.2</text>
     </g>
    </g>
    <g id="text_12">
     <text style="font-family:DejaVu Sans;font-size:10px;font-style:normal;font-weight:normal;text-anchor:middle;" transform="rotate(-90, 18.7275, 158.48)" x="18.7275" y="158.48">Score - base</text>
    </g>
   </g>
   <g id="line2d_11">
    <path clip-path="url(#pcff485f2e7)" d="M 75.749241 165.648478 
L 113.593054 162.628522 
L 117.797922 162.292971 
L 119.199545 162.181121 
L 120.601168 162.069271 
L 122.00279 161.957421 
L 123.404413 161.84557 
L 127.609281 161.51002 
L 136.019018 160.838918 
L 137.42064 160.727068 
L 138.822263 160.615218 
L 147.231999 159.944117 
L 151.436868 159.608566 
L 164.051472 158.601914 
L 172.461208 157.930812 
L 185.075813 156.92416 
L 197.690417 155.917508 
L 200.493663 155.693808 
L 269.173176 150.213147 
L 293.000762 148.311693 
L 375.696503 141.712529 
L 393.917598 140.258476 
L 427.556543 137.574071 
" style="fill:none;stroke:#1f77b4;stroke-linecap:square;stroke-width:1.5;"/>
   </g>
   <g id="patch_3">
    <path d="M 56.09 303.64 
L 56.09 13.32 
" style="fill:none;stroke:#000000;stroke-linecap:square;stroke-linejoin:miter;stroke-width:0.8;"/>
   </g>
   <g id="patch_4">
    <path d="M 447.48 303.64 
L 447.48 13.32 
" style="fill:none;stroke:#000000;stroke-linecap:square;stroke-linejoin:miter;stroke-width:0.8;"/>
   </g>
   <g id="patch_5">
    <path d="M 56.09 303.64 
L 447.48 303.64 
" style="fill:none;stroke:#000000;stroke-linecap:square;stroke-linejoin:miter;stroke-width:0.8;"/>
   </g>
   <g id="patch_6">
    <path d="M 56.09 13.32 
L 447.48 13.32 
" style="fill:none;stroke:#000000;stroke-linecap:square;stroke-linejoin:miter;stroke-width:0.8;"/>
   </g>
  </g>
 </g>
 <defs>
  <clipPath id="pcff485f2e7">
   <rect height="290.32" width="391.39" x="56.09" y="13.32"/>
  </clipPath>
 </defs>
</svg>
