<?xml version="1.0" encoding="utf-8" standalone="no"?>
<!DOCTYPE svg PUBLIC "-//W3C//DTD SVG 1.1//EN"
  "http://www.w3.org/Graphics/SVG/1.1/DTD/svg11.dtd">
<!-- Created with matplotlib (http://matplotlib.org/) -->
<svg height="345.6pt" version="1.1" viewBox="0 0 460.8 345.6" width="460.8pt" xmlns="http://www.w3.org/2000/svg" xmlns:xlink="http://www.w3.org/1999/xlink">
 <defs>
  <style type="text/css">
*{stroke-linecap:butt;stroke-linejoin:round;}
  </style>
 </defs>
 <g id="figure_1">
  <g id="patch_1">
   <path d="M 0 345.6 
L 460.8 345.6 
L 460.8 0 
L 0 0 
z
" style="fill:#ffffff;"/>
  </g>
  <g id="axes_1">
   <g id="patch_2">
    <path d="M 54.11 303.64 
L 447.48 303.64 
L 447.48 13.32 
L 54.11 13.32 
z
" style="fill:#ffffff;"/>
   </g>
   <g id="2A">
    <defs>
     <path d="M 0 3 
C 0.795609 3 1.55874 2.683901 2.12132 2.12132 
C 2.683901 1.55874 3 0.795609 3 0 
C 3 -0.795609 2.683901 -1.55874 2.12132 -2.12132 
C 1.55874 -2.683901 0.795609 -3 0 -3 
C -0.795609 -3 -1.55874 -2.683901 -2.12132 -2.12132 
C -2.683901 -1.55874 -3 -0.795609 -3 0 
C -3 0.795609 -2.683901 1.55874 -2.12132 2.12132 
C -1.55874 2.683901 -0.795609 3 0 3 
z
" id="m018dc22d11" style="stroke:#1f77b4;"/>
    </defs>
    <g clip-path="url(#p8ab966930a)">
     <use style="fill:#1f77b4;stroke:#1f77b4;" x="427.220291" xlink:href="#m018dc22d11" y="231.177273"/>
    </g>
   </g>
   <g id="9A">
    <defs>
     <path d="M 0 3 
C 0.795609 3 1.55874 2.683901 2.12132 2.12132 
C 2.683901 1.55874 3 0.795609 3 0 
C 3 -0.795609 2.683901 -1.55874 2.12132 -2.12132 
C 1.55874 -2.683901 0.795609 -3 0 -3 
C -0.795609 -3 -1.55874 -2.683901 -2.12132 -2.12132 
C -2.683901 -1.55874 -3 -0.795609 -3 0 
C -3 0.795609 -2.683901 1.55874 -2.12132 2.12132 
C -1.55874 2.683901 -0.795609 3 0 3 
z
" id="md14669d809" style="stroke:#ff7f0e;"/>
    </defs>
    <g clip-path="url(#p8ab966930a)">
     <use style="fill:#ff7f0e;stroke:#ff7f0e;" x="238.171507" xlink:href="#md14669d809" y="264.083984"/>
    </g>
   </g>
   <g id="19A">
    <defs>
     <path d="M 0 3 
C 0.795609 3 1.55874 2.683901 2.12132 2.12132 
C 2.683901 1.55874 3 0.795609 3 0 
C 3 -0.795609 2.683901 -1.55874 2.12132 -2.12132 
C 1.55874 -2.683901 0.795609 -3 0 -3 
C -0.795609 -3 -1.55874 -2.683901 -2.12132 -2.12132 
C -2.683901 -1.55874 -3 -0.795609 -3 0 
C -3 0.795609 -2.683901 1.55874 -2.12132 2.12132 
C -1.55874 2.683901 -0.795609 3 0 3 
z
" id="m2d8ac03813" style="stroke:#2ca02c;"/>
    </defs>
    <g clip-path="url(#p8ab966930a)">
     <use style="fill:#2ca02c;stroke:#2ca02c;" x="427.220291" xlink:href="#m2d8ac03813" y="250.743425"/>
    </g>
   </g>
   <g id="10A">
    <defs>
     <path d="M 0 3 
C 0.795609 3 1.55874 2.683901 2.12132 2.12132 
C 2.683901 1.55874 3 0.795609 3 0 
C 3 -0.795609 2.683901 -1.55874 2.12132 -2.12132 
C 1.55874 -2.683901 0.795609 -3 0 -3 
C -0.795609 -3 -1.55874 -2.683901 -2.12132 -2.12132 
C -2.683901 -1.55874 -3 -0.795609 -3 0 
C -3 0.795609 -2.683901 1.55874 -2.12132 2.12132 
C -1.55874 2.683901 -0.795609 3 0 3 
z
" id="m969f1a4417" style="stroke:#d62728;"/>
    </defs>
    <g clip-path="url(#p8ab966930a)">
     <use style="fill:#d62728;stroke:#d62728;" x="73.25661" xlink:href="#m969f1a4417" y="250.743425"/>
    </g>
   </g>
   <g id="16A">
    <defs>
     <path d="M 0 3 
C 0.795609 3 1.55874 2.683901 2.12132 2.12132 
C 2.683901 1.55874 3 0.795609 3 0 
C 3 -0.795609 2.683901 -1.55874 2.12132 -2.12132 
C 1.55874 -2.683901 0.795609 -3 0 -3 
C -0.795609 -3 -1.55874 -2.683901 -2.12132 -2.12132 
C -2.683901 -1.55874 -3 -0.795609 -3 0 
C -3 0.795609 -2.683901 1.55874 -2.12132 2.12132 
C -1.55874 2.683901 -0.795609 3 0 3 
z
" id="m12aa0ec87e" style="stroke:#9467bd;"/>
    </defs>
    <g clip-path="url(#p8ab966930a)">
     <use style="fill:#9467bd;stroke:#9467bd;" x="391.01946" xlink:href="#m12aa0ec87e" y="266.029482"/>
    </g>
   </g>
   <g id="5A">
    <defs>
     <path d="M 0 3 
C 0.795609 3 1.55874 2.683901 2.12132 2.12132 
C 2.683901 1.55874 3 0.795609 3 0 
C 3 -0.795609 2.683901 -1.55874 2.12132 -2.12132 
C 1.55874 -2.683901 0.795609 -3 0 -3 
C -0.795609 -3 -1.55874 -2.683901 -2.12132 -2.12132 
C -2.683901 -1.55874 -3 -0.795609 -3 0 
C -3 0.795609 -2.683901 1.55874 -2.12132 2.12132 
C -1.55874 2.683901 -0.795609 3 0 3 
z
" id="m985b7679ae" style="stroke:#8c564b;"/>
    </defs>
    <g clip-path="url(#p8ab966930a)">
     <use style="fill:#8c564b;stroke:#8c564b;" x="427.220291" xlink:href="#m985b7679ae" y="26.910655"/>
    </g>
   </g>
   <g id="8A">
    <defs>
     <path d="M 0 3 
C 0.795609 3 1.55874 2.683901 2.12132 2.12132 
C 2.683901 1.55874 3 0.795609 3 0 
C 3 -0.795609 2.683901 -1.55874 2.12132 -2.12132 
C 1.55874 -2.683901 0.795609 -3 0 -3 
C -0.795609 -3 -1.55874 -2.683901 -2.12132 -2.12132 
C -2.683901 -1.55874 -3 -0.795609 -3 0 
C -3 0.795609 -2.683901 1.55874 -2.12132 2.12132 
C -1.55874 2.683901 -0.795609 3 0 3 
z
" id="me95a84c396" style="stroke:#e377c2;"/>
    </defs>
    <g clip-path="url(#p8ab966930a)">
     <use style="fill:#e377c2;stroke:#e377c2;" x="427.220291" xlink:href="#me95a84c396" y="245.916249"/>
    </g>
   </g>
   <g id="7A">
    <defs>
     <path d="M 0 3 
C 0.795609 3 1.55874 2.683901 2.12132 2.12132 
C 2.683901 1.55874 3 0.795609 3 0 
C 3 -0.795609 2.683901 -1.55874 2.12132 -2.12132 
C 1.55874 -2.683901 0.795609 -3 0 -3 
C -0.795609 -3 -1.55874 -2.683901 -2.12132 -2.12132 
C -2.683901 -1.55874 -3 -0.795609 -3 0 
C -3 0.795609 -2.683901 1.55874 -2.12132 2.12132 
C -1.55874 2.683901 -0.795609 3 0 3 
z
" id="m64eec4cf1d" style="stroke:#7f7f7f;"/>
    </defs>
    <g clip-path="url(#p8ab966930a)">
     <use style="fill:#7f7f7f;stroke:#7f7f7f;" x="427.220291" xlink:href="#m64eec4cf1d" y="250.743425"/>
    </g>
   </g>
   <g id="3A">
    <defs>
     <path d="M 0 3 
C 0.795609 3 1.55874 2.683901 2.12132 2.12132 
C 2.683901 1.55874 3 0.795609 3 0 
C 3 -0.795609 2.683901 -1.55874 2.12132 -2.12132 
C 1.55874 -2.683901 0.795609 -3 0 -3 
C -0.795609 -3 -1.55874 -2.683901 -2.12132 -2.12132 
C -2.683901 -1.55874 -3 -0.795609 -3 0 
C -3 0.795609 -2.683901 1.55874 -2.12132 2.12132 
C -1.55874 2.683901 -0.795609 3 0 3 
z
" id="m8cec03611d" style="stroke:#bcbd22;"/>
    </defs>
    <g clip-path="url(#p8ab966930a)">
     <use style="fill:#bcbd22;stroke:#bcbd22;" x="427.220291" xlink:href="#m8cec03611d" y="288.301778"/>
    </g>
   </g>
   <g id="17A">
    <defs>
     <path d="M 0 3 
C 0.795609 3 1.55874 2.683901 2.12132 2.12132 
C 2.683901 1.55874 3 0.795609 3 0 
C 3 -0.795609 2.683901 -1.55874 2.12132 -2.12132 
C 1.55874 -2.683901 0.795609 -3 0 -3 
C -0.795609 -3 -1.55874 -2.683901 -2.12132 -2.12132 
C -2.683901 -1.55874 -3 -0.795609 -3 0 
C -3 0.795609 -2.683901 1.55874 -2.12132 2.12132 
C -1.55874 2.683901 -0.795609 3 0 3 
z
" id="m18fa03c01a" style="stroke:#17becf;"/>
    </defs>
    <g clip-path="url(#p8ab966930a)">
     <use style="fill:#17becf;stroke:#17becf;" x="121.524385" xlink:href="#m18fa03c01a" y="250.743425"/>
    </g>
   </g>
   <g id="4A">
    <g clip-path="url(#p8ab966930a)">
     <use style="fill:#1f77b4;stroke:#1f77b4;" x="427.220291" xlink:href="#m018dc22d11" y="216.098168"/>
    </g>
   </g>
   <g id="13A">
    <g clip-path="url(#p8ab966930a)">
     <use style="fill:#ff7f0e;stroke:#ff7f0e;" x="350.796315" xlink:href="#md14669d809" y="250.743425"/>
    </g>
   </g>
   <g id="6A">
    <g clip-path="url(#p8ab966930a)">
     <use style="fill:#2ca02c;stroke:#2ca02c;" x="427.220291" xlink:href="#m2d8ac03813" y="250.743425"/>
    </g>
   </g>
   <g id="11A">
    <g clip-path="url(#p8ab966930a)">
     <use style="fill:#d62728;stroke:#d62728;" x="423.197977" xlink:href="#m969f1a4417" y="250.743425"/>
    </g>
   </g>
   <g id="1A">
    <g clip-path="url(#p8ab966930a)">
     <use style="fill:#9467bd;stroke:#9467bd;" x="423.197977" xlink:href="#m12aa0ec87e" y="201.670164"/>
    </g>
   </g>
   <g id="18A">
    <g clip-path="url(#p8ab966930a)">
     <use style="fill:#8c564b;stroke:#8c564b;" x="427.220291" xlink:href="#m985b7679ae" y="250.743425"/>
    </g>
   </g>
   <g id="14A">
    <g clip-path="url(#p8ab966930a)">
     <use style="fill:#e377c2;stroke:#e377c2;" x="391.01946" xlink:href="#me95a84c396" y="176.435206"/>
    </g>
   </g>
   <g id="12A">
    <g clip-path="url(#p8ab966930a)">
     <use style="fill:#7f7f7f;stroke:#7f7f7f;" x="318.617798" xlink:href="#m64eec4cf1d" y="227.998263"/>
    </g>
   </g>
   <g id="15A">
    <g clip-path="url(#p8ab966930a)">
     <use style="fill:#bcbd22;stroke:#bcbd22;" x="391.01946" xlink:href="#m8cec03611d" y="266.029482"/>
    </g>
   </g>
   <g id="matplotlib.axis_1">
    <g id="xtick_1">
     <g id="line2d_1">
      <defs>
       <path d="M 0 0 
L 0 3.5 
" id="m9174114cab" style="stroke:#000000;stroke-width:0.8;"/>
      </defs>
      <g>
       <use style="stroke:#000000;stroke-width:0.8;" x="97.390498" xlink:href="#m9174114cab" y="303.64"/>
      </g>
     </g>
     <g id="text_1">
      <text style="font-family:DejaVu Sans;font-size:10px;font-style:normal;font-weight:normal;text-anchor:middle;" transform="rotate(-0, 97.390498, 318.238437)" x="97.390498" y="318.238437">80</text>
     </g>
    </g>
    <g id="xtick_2">
     <g id="line2d_2">
      <g>
       <use style="stroke:#000000;stroke-width:0.8;" x="177.836789" xlink:href="#m9174114cab" y="303.64"/>
      </g>
     </g>
     <g id="text_2">
      <text style="font-family:DejaVu Sans;font-size:10px;font-style:normal;font-weight:normal;text-anchor:middle;" transform="rotate(-0, 177.836789, 318.238437)" x="177.836789" y="318.238437">100</text>
     </g>
    </g>
    <g id="xtick_3">
     <g id="line2d_3">
      <g>
       <use style="stroke:#000000;stroke-width:0.8;" x="258.28308" xlink:href="#m9174114cab" y="303.64"/>
      </g>
     </g>
     <g id="text_3">
      <text style="font-family:DejaVu Sans;font-size:10px;font-style:normal;font-weight:normal;text-anchor:middle;" transform="rotate(-0, 258.28308, 318.238437)" x="258.28308" y="318.238437">120</text>
     </g>
    </g>
    <g id="xtick_4">
     <g id="line2d_4">
      <g>
       <use style="stroke:#000000;stroke-width:0.8;" x="338.729371" xlink:href="#m9174114cab" y="303.64"/>
      </g>
     </g>
     <g id="text_4">
      <text style="font-family:DejaVu Sans;font-size:10px;font-style:normal;font-weight:normal;text-anchor:middle;" transform="rotate(-0, 338.729371, 318.238437)" x="338.729371" y="318.238437">140</text>
     </g>
    </g>
    <g id="xtick_5">
     <g id="line2d_5">
      <g>
       <use style="stroke:#000000;stroke-width:0.8;" x="419.175662" xlink:href="#m9174114cab" y="303.64"/>
      </g>
     </g>
     <g id="text_5">
      <text style="font-family:DejaVu Sans;font-size:10px;font-style:normal;font-weight:normal;text-anchor:middle;" transform="rotate(-0, 419.175662, 318.238437)" x="419.175662" y="318.238437">160</text>
     </g>
    </g>
    <g id="text_6">
     <text style="font-family:DejaVu Sans;font-size:10px;font-style:normal;font-weight:normal;text-anchor:middle;" transform="rotate(-0, 250.795, 331.916562)" x="250.795" y="331.916562">Amount of languages tested</text>
    </g>
   </g>
   <g id="matplotlib.axis_2">
    <g id="ytick_1">
     <g id="line2d_6">
      <defs>
       <path d="M 0 0 
L -3.5 0 
" id="m34c2dbe737" style="stroke:#000000;stroke-width:0.8;"/>
      </defs>
      <g>
       <use style="stroke:#000000;stroke-width:0.8;" x="54.11" xlink:href="#m34c2dbe737" y="250.743425"/>
      </g>
     </g>
     <g id="text_7">
      <text style="font-family:DejaVu Sans;font-size:10px;font-style:normal;font-weight:normal;text-anchor:end;" transform="rotate(-0, 47.11, 254.542644)" x="47.11" y="254.542644">0.00</text>
     </g>
    </g>
    <g id="ytick_2">
     <g id="line2d_7">
      <g>
       <use style="stroke:#000000;stroke-width:0.8;" x="54.11" xlink:href="#m34c2dbe737" y="195.713621"/>
      </g>
     </g>
     <g id="text_8">
      <text style="font-family:DejaVu Sans;font-size:10px;font-style:normal;font-weight:normal;text-anchor:end;" transform="rotate(-0, 47.11, 199.51284)" x="47.11" y="199.51284">0.05</text>
     </g>
    </g>
    <g id="ytick_3">
     <g id="line2d_8">
      <g>
       <use style="stroke:#000000;stroke-width:0.8;" x="54.11" xlink:href="#m34c2dbe737" y="140.683817"/>
      </g>
     </g>
     <g id="text_9">
      <text style="font-family:DejaVu Sans;font-size:10px;font-style:normal;font-weight:normal;text-anchor:end;" transform="rotate(-0, 47.11, 144.483036)" x="47.11" y="144.483036">0.10</text>
     </g>
    </g>
    <g id="ytick_4">
     <g id="line2d_9">
      <g>
       <use style="stroke:#000000;stroke-width:0.8;" x="54.11" xlink:href="#m34c2dbe737" y="85.654013"/>
      </g>
     </g>
     <g id="text_10">
      <text style="font-family:DejaVu Sans;font-size:10px;font-style:normal;font-weight:normal;text-anchor:end;" transform="rotate(-0, 47.11, 89.453232)" x="47.11" y="89.453232">0.15</text>
     </g>
    </g>
    <g id="ytick_5">
     <g id="line2d_10">
      <g>
       <use style="stroke:#000000;stroke-width:0.8;" x="54.11" xlink:href="#m34c2dbe737" y="30.624209"/>
      </g>
     </g>
     <g id="text_11">
      <text style="font-family:DejaVu Sans;font-size:10px;font-style:normal;font-weight:normal;text-anchor:end;" transform="rotate(-0, 47.11, 34.423428)" x="47.11" y="34.423428">0.20</text>
     </g>
    </g>
    <g id="text_12">
     <text style="font-family:DejaVu Sans;font-size:10px;font-style:normal;font-weight:normal;text-anchor:middle;" transform="rotate(-90, 18.764688, 158.48)" x="18.764688" y="158.48">Score - base</text>
    </g>
   </g>
   <g id="line2d_11">
    <path clip-path="url(#p8ab966930a)" d="M 73.25661 259.903726 
L 121.524385 255.387945 
L 238.171507 244.474808 
L 318.617798 236.948507 
L 350.796315 233.937986 
L 391.01946 230.174835 
L 423.197977 227.164315 
L 427.220291 226.788 
" style="fill:none;stroke:#1f77b4;stroke-linecap:square;stroke-width:1.5;"/>
   </g>
   <g id="patch_3">
    <path d="M 54.11 303.64 
L 54.11 13.32 
" style="fill:none;stroke:#000000;stroke-linecap:square;stroke-linejoin:miter;stroke-width:0.8;"/>
   </g>
   <g id="patch_4">
    <path d="M 447.48 303.64 
L 447.48 13.32 
" style="fill:none;stroke:#000000;stroke-linecap:square;stroke-linejoin:miter;stroke-width:0.8;"/>
   </g>
   <g id="patch_5">
    <path d="M 54.11 303.64 
L 447.48 303.64 
" style="fill:none;stroke:#000000;stroke-linecap:square;stroke-linejoin:miter;stroke-width:0.8;"/>
   </g>
   <g id="patch_6">
    <path d="M 54.11 13.32 
L 447.48 13.32 
" style="fill:none;stroke:#000000;stroke-linecap:square;stroke-linejoin:miter;stroke-width:0.8;"/>
   </g>
  </g>
 </g>
 <defs>
  <clipPath id="p8ab966930a">
   <rect height="290.32" width="393.37" x="54.11" y="13.32"/>
  </clipPath>
 </defs>
</svg>
