<?xml version="1.0" encoding="utf-8" standalone="no"?>
<!DOCTYPE svg PUBLIC "-//W3C//DTD SVG 1.1//EN"
  "http://www.w3.org/Graphics/SVG/1.1/DTD/svg11.dtd">
<!-- Created with matplotlib (http://matplotlib.org/) -->
<svg height="345.6pt" version="1.1" viewBox="0 0 460.8 345.6" width="460.8pt" xmlns="http://www.w3.org/2000/svg" xmlns:xlink="http://www.w3.org/1999/xlink">
 <defs>
  <style type="text/css">
*{stroke-linecap:butt;stroke-linejoin:round;}
  </style>
 </defs>
 <g id="figure_1">
  <g id="patch_1">
   <path d="M 0 345.6 
L 460.8 345.6 
L 460.8 0 
L 0 0 
z
" style="fill:#ffffff;"/>
  </g>
  <g id="axes_1">
   <g id="patch_2">
    <path d="M 57.6 307.584 
L 414.72 307.584 
L 414.72 41.472 
L 57.6 41.472 
z
" style="fill:#ffffff;"/>
   </g>
   <g id="101A">
    <defs>
     <path d="M 0 3 
C 0.795609 3 1.55874 2.683901 2.12132 2.12132 
C 2.683901 1.55874 3 0.795609 3 0 
C 3 -0.795609 2.683901 -1.55874 2.12132 -2.12132 
C 1.55874 -2.683901 0.795609 -3 0 -3 
C -0.795609 -3 -1.55874 -2.683901 -2.12132 -2.12132 
C -2.683901 -1.55874 -3 -0.795609 -3 0 
C -3 0.795609 -2.683901 1.55874 -2.12132 2.12132 
C -1.55874 2.683901 -0.795609 3 0 3 
z
" id="m7a29c5656b" style="stroke:#1f77b4;"/>
    </defs>
    <g clip-path="url(#pe84be06cfb)">
     <use style="fill:#1f77b4;stroke:#1f77b4;" x="273.122862" xlink:href="#m7a29c5656b" y="227.067424"/>
    </g>
   </g>
   <g id="113A">
    <defs>
     <path d="M 0 3 
C 0.795609 3 1.55874 2.683901 2.12132 2.12132 
C 2.683901 1.55874 3 0.795609 3 0 
C 3 -0.795609 2.683901 -1.55874 2.12132 -2.12132 
C 1.55874 -2.683901 0.795609 -3 0 -3 
C -0.795609 -3 -1.55874 -2.683901 -2.12132 -2.12132 
C -2.683901 -1.55874 -3 -0.795609 -3 0 
C -3 0.795609 -2.683901 1.55874 -2.12132 2.12132 
C -1.55874 2.683901 -0.795609 3 0 3 
z
" id="m1c7f14d836" style="stroke:#ff7f0e;"/>
    </defs>
    <g clip-path="url(#pe84be06cfb)">
     <use style="fill:#ff7f0e;stroke:#ff7f0e;" x="132.052833" xlink:href="#m1c7f14d836" y="167.199826"/>
    </g>
   </g>
   <g id="104A">
    <defs>
     <path d="M 0 3 
C 0.795609 3 1.55874 2.683901 2.12132 2.12132 
C 2.683901 1.55874 3 0.795609 3 0 
C 3 -0.795609 2.683901 -1.55874 2.12132 -2.12132 
C 1.55874 -2.683901 0.795609 -3 0 -3 
C -0.795609 -3 -1.55874 -2.683901 -2.12132 -2.12132 
C -2.683901 -1.55874 -3 -0.795609 -3 0 
C -3 0.795609 -2.683901 1.55874 -2.12132 2.12132 
C -1.55874 2.683901 -0.795609 3 0 3 
z
" id="m5231935765" style="stroke:#2ca02c;"/>
    </defs>
    <g clip-path="url(#pe84be06cfb)">
     <use style="fill:#2ca02c;stroke:#2ca02c;" x="172.001868" xlink:href="#m5231935765" y="255.918288"/>
    </g>
   </g>
   <g id="105A">
    <defs>
     <path d="M 0 3 
C 0.795609 3 1.55874 2.683901 2.12132 2.12132 
C 2.683901 1.55874 3 0.795609 3 0 
C 3 -0.795609 2.683901 -1.55874 2.12132 -2.12132 
C 1.55874 -2.683901 0.795609 -3 0 -3 
C -0.795609 -3 -1.55874 -2.683901 -2.12132 -2.12132 
C -2.683901 -1.55874 -3 -0.795609 -3 0 
C -3 0.795609 -2.683901 1.55874 -2.12132 2.12132 
C -1.55874 2.683901 -0.795609 3 0 3 
z
" id="m0ef0f8d7fa" style="stroke:#d62728;"/>
    </defs>
    <g clip-path="url(#pe84be06cfb)">
     <use style="fill:#d62728;stroke:#d62728;" x="153.275758" xlink:href="#m0ef0f8d7fa" y="294.689284"/>
    </g>
   </g>
   <g id="99A">
    <defs>
     <path d="M 0 3 
C 0.795609 3 1.55874 2.683901 2.12132 2.12132 
C 2.683901 1.55874 3 0.795609 3 0 
C 3 -0.795609 2.683901 -1.55874 2.12132 -2.12132 
C 1.55874 -2.683901 0.795609 -3 0 -3 
C -0.795609 -3 -1.55874 -2.683901 -2.12132 -2.12132 
C -2.683901 -1.55874 -3 -0.795609 -3 0 
C -3 0.795609 -2.683901 1.55874 -2.12132 2.12132 
C -1.55874 2.683901 -0.795609 3 0 3 
z
" id="mfbc9993408" style="stroke:#9467bd;"/>
    </defs>
    <g clip-path="url(#pe84be06cfb)">
     <use style="fill:#9467bd;stroke:#9467bd;" x="95.849021" xlink:href="#mfbc9993408" y="236.922374"/>
    </g>
   </g>
   <g id="116A">
    <defs>
     <path d="M 0 3 
C 0.795609 3 1.55874 2.683901 2.12132 2.12132 
C 2.683901 1.55874 3 0.795609 3 0 
C 3 -0.795609 2.683901 -1.55874 2.12132 -2.12132 
C 1.55874 -2.683901 0.795609 -3 0 -3 
C -0.795609 -3 -1.55874 -2.683901 -2.12132 -2.12132 
C -2.683901 -1.55874 -3 -0.795609 -3 0 
C -3 0.795609 -2.683901 1.55874 -2.12132 2.12132 
C -1.55874 2.683901 -0.795609 3 0 3 
z
" id="m461cb4db67" style="stroke:#8c564b;"/>
    </defs>
    <g clip-path="url(#pe84be06cfb)">
     <use style="fill:#8c564b;stroke:#8c564b;" x="356.766153" xlink:href="#m461cb4db67" y="221.289862"/>
    </g>
   </g>
   <g id="117A">
    <defs>
     <path d="M 0 3 
C 0.795609 3 1.55874 2.683901 2.12132 2.12132 
C 2.683901 1.55874 3 0.795609 3 0 
C 3 -0.795609 2.683901 -1.55874 2.12132 -2.12132 
C 1.55874 -2.683901 0.795609 -3 0 -3 
C -0.795609 -3 -1.55874 -2.683901 -2.12132 -2.12132 
C -2.683901 -1.55874 -3 -0.795609 -3 0 
C -3 0.795609 -2.683901 1.55874 -2.12132 2.12132 
C -1.55874 2.683901 -0.795609 3 0 3 
z
" id="m074c1621b5" style="stroke:#e377c2;"/>
    </defs>
    <g clip-path="url(#pe84be06cfb)">
     <use style="fill:#e377c2;stroke:#e377c2;" x="127.059204" xlink:href="#m074c1621b5" y="249.803714"/>
    </g>
   </g>
   <g id="119A">
    <defs>
     <path d="M 0 3 
C 0.795609 3 1.55874 2.683901 2.12132 2.12132 
C 2.683901 1.55874 3 0.795609 3 0 
C 3 -0.795609 2.683901 -1.55874 2.12132 -2.12132 
C 1.55874 -2.683901 0.795609 -3 0 -3 
C -0.795609 -3 -1.55874 -2.683901 -2.12132 -2.12132 
C -2.683901 -1.55874 -3 -0.795609 -3 0 
C -3 0.795609 -2.683901 1.55874 -2.12132 2.12132 
C -1.55874 2.683901 -0.795609 3 0 3 
z
" id="ma3289c25be" style="stroke:#7f7f7f;"/>
    </defs>
    <g clip-path="url(#pe84be06cfb)">
     <use style="fill:#7f7f7f;stroke:#7f7f7f;" x="185.734349" xlink:href="#ma3289c25be" y="191.885761"/>
    </g>
   </g>
   <g id="98A">
    <defs>
     <path d="M 0 3 
C 0.795609 3 1.55874 2.683901 2.12132 2.12132 
C 2.683901 1.55874 3 0.795609 3 0 
C 3 -0.795609 2.683901 -1.55874 2.12132 -2.12132 
C 1.55874 -2.683901 0.795609 -3 0 -3 
C -0.795609 -3 -1.55874 -2.683901 -2.12132 -2.12132 
C -2.683901 -1.55874 -3 -0.795609 -3 0 
C -3 0.795609 -2.683901 1.55874 -2.12132 2.12132 
C -1.55874 2.683901 -0.795609 3 0 3 
z
" id="m653863d91a" style="stroke:#bcbd22;"/>
    </defs>
    <g clip-path="url(#pe84be06cfb)">
     <use style="fill:#bcbd22;stroke:#bcbd22;" x="100.84265" xlink:href="#m653863d91a" y="228.173765"/>
    </g>
   </g>
   <g id="106A">
    <defs>
     <path d="M 0 3 
C 0.795609 3 1.55874 2.683901 2.12132 2.12132 
C 2.683901 1.55874 3 0.795609 3 0 
C 3 -0.795609 2.683901 -1.55874 2.12132 -2.12132 
C 1.55874 -2.683901 0.795609 -3 0 -3 
C -0.795609 -3 -1.55874 -2.683901 -2.12132 -2.12132 
C -2.683901 -1.55874 -3 -0.795609 -3 0 
C -3 0.795609 -2.683901 1.55874 -2.12132 2.12132 
C -1.55874 2.683901 -0.795609 3 0 3 
z
" id="m0c5428db41" style="stroke:#17becf;"/>
    </defs>
    <g clip-path="url(#pe84be06cfb)">
     <use style="fill:#17becf;stroke:#17becf;" x="93.352206" xlink:href="#m0c5428db41" y="228.173765"/>
    </g>
   </g>
   <g id="100A">
    <g clip-path="url(#pe84be06cfb)">
     <use style="fill:#1f77b4;stroke:#1f77b4;" x="173.250275" xlink:href="#m7a29c5656b" y="234.369278"/>
    </g>
   </g>
   <g id="112A">
    <g clip-path="url(#pe84be06cfb)">
     <use style="fill:#ff7f0e;stroke:#ff7f0e;" x="396.715188" xlink:href="#m1c7f14d836" y="248.449787"/>
    </g>
   </g>
   <g id="118A">
    <g clip-path="url(#pe84be06cfb)">
     <use style="fill:#2ca02c;stroke:#2ca02c;" x="185.734349" xlink:href="#m5231935765" y="54.714633"/>
    </g>
   </g>
   <g id="103A">
    <g clip-path="url(#pe84be06cfb)">
     <use style="fill:#d62728;stroke:#d62728;" x="173.250275" xlink:href="#m0ef0f8d7fa" y="234.369278"/>
    </g>
   </g>
   <g id="102A">
    <g clip-path="url(#pe84be06cfb)">
     <use style="fill:#9467bd;stroke:#9467bd;" x="173.250275" xlink:href="#mfbc9993408" y="214.233861"/>
    </g>
   </g>
   <g id="110A">
    <g clip-path="url(#pe84be06cfb)">
     <use style="fill:#8c564b;stroke:#8c564b;" x="75.874503" xlink:href="#m461cb4db67" y="289.581311"/>
    </g>
   </g>
   <g id="108A">
    <g clip-path="url(#pe84be06cfb)">
     <use style="fill:#e377c2;stroke:#e377c2;" x="100.84265" xlink:href="#m074c1621b5" y="228.173765"/>
    </g>
   </g>
   <g id="115A">
    <g clip-path="url(#pe84be06cfb)">
     <use style="fill:#7f7f7f;stroke:#7f7f7f;" x="104.587872" xlink:href="#ma3289c25be" y="228.173765"/>
    </g>
   </g>
   <g id="121A">
    <g clip-path="url(#pe84be06cfb)">
     <use style="fill:#bcbd22;stroke:#bcbd22;" x="95.849021" xlink:href="#m653863d91a" y="136.26231"/>
    </g>
   </g>
   <g id="107A">
    <g clip-path="url(#pe84be06cfb)">
     <use style="fill:#17becf;stroke:#17becf;" x="169.505053" xlink:href="#m0c5428db41" y="211.975081"/>
    </g>
   </g>
   <g id="114A">
    <g clip-path="url(#pe84be06cfb)">
     <use style="fill:#1f77b4;stroke:#1f77b4;" x="132.052833" xlink:href="#m7a29c5656b" y="203.217415"/>
    </g>
   </g>
   <g id="108B">
    <g clip-path="url(#pe84be06cfb)">
     <use style="fill:#ff7f0e;stroke:#ff7f0e;" x="97.097428" xlink:href="#m1c7f14d836" y="228.173765"/>
    </g>
   </g>
   <g id="109A">
    <g clip-path="url(#pe84be06cfb)">
     <use style="fill:#2ca02c;stroke:#2ca02c;" x="98.345835" xlink:href="#m5231935765" y="201.621567"/>
    </g>
   </g>
   <g id="109B">
    <g clip-path="url(#pe84be06cfb)">
     <use style="fill:#d62728;stroke:#d62728;" x="98.345835" xlink:href="#m0ef0f8d7fa" y="228.173765"/>
    </g>
   </g>
   <g id="120A">
    <g clip-path="url(#pe84be06cfb)">
     <use style="fill:#9467bd;stroke:#9467bd;" x="185.734349" xlink:href="#mfbc9993408" y="238.884227"/>
    </g>
   </g>
   <g id="111A">
    <g clip-path="url(#pe84be06cfb)">
     <use style="fill:#8c564b;stroke:#8c564b;" x="139.543277" xlink:href="#m461cb4db67" y="228.173765"/>
    </g>
   </g>
   <g id="matplotlib.axis_1">
    <g id="xtick_1">
     <g id="line2d_1">
      <defs>
       <path d="M 0 0 
L 0 3.5 
" id="m74c3392d23" style="stroke:#000000;stroke-width:0.8;"/>
      </defs>
      <g>
       <use style="stroke:#000000;stroke-width:0.8;" x="84.613355" xlink:href="#m74c3392d23" y="307.584"/>
      </g>
     </g>
     <g id="text_1">
      <text style="font-family:DejaVu Sans;font-size:10px;font-style:normal;font-weight:normal;text-anchor:middle;" transform="rotate(-0, 84.613355, 322.182437)" x="84.613355" y="322.182437">50</text>
     </g>
    </g>
    <g id="xtick_2">
     <g id="line2d_2">
      <g>
       <use style="stroke:#000000;stroke-width:0.8;" x="147.033721" xlink:href="#m74c3392d23" y="307.584"/>
      </g>
     </g>
     <g id="text_2">
      <text style="font-family:DejaVu Sans;font-size:10px;font-style:normal;font-weight:normal;text-anchor:middle;" transform="rotate(-0, 147.033721, 322.182437)" x="147.033721" y="322.182437">100</text>
     </g>
    </g>
    <g id="xtick_3">
     <g id="line2d_3">
      <g>
       <use style="stroke:#000000;stroke-width:0.8;" x="209.454088" xlink:href="#m74c3392d23" y="307.584"/>
      </g>
     </g>
     <g id="text_3">
      <text style="font-family:DejaVu Sans;font-size:10px;font-style:normal;font-weight:normal;text-anchor:middle;" transform="rotate(-0, 209.454088, 322.182437)" x="209.454088" y="322.182437">150</text>
     </g>
    </g>
    <g id="xtick_4">
     <g id="line2d_4">
      <g>
       <use style="stroke:#000000;stroke-width:0.8;" x="271.874454" xlink:href="#m74c3392d23" y="307.584"/>
      </g>
     </g>
     <g id="text_4">
      <text style="font-family:DejaVu Sans;font-size:10px;font-style:normal;font-weight:normal;text-anchor:middle;" transform="rotate(-0, 271.874454, 322.182437)" x="271.874454" y="322.182437">200</text>
     </g>
    </g>
    <g id="xtick_5">
     <g id="line2d_5">
      <g>
       <use style="stroke:#000000;stroke-width:0.8;" x="334.294821" xlink:href="#m74c3392d23" y="307.584"/>
      </g>
     </g>
     <g id="text_5">
      <text style="font-family:DejaVu Sans;font-size:10px;font-style:normal;font-weight:normal;text-anchor:middle;" transform="rotate(-0, 334.294821, 322.182437)" x="334.294821" y="322.182437">250</text>
     </g>
    </g>
    <g id="xtick_6">
     <g id="line2d_6">
      <g>
       <use style="stroke:#000000;stroke-width:0.8;" x="396.715188" xlink:href="#m74c3392d23" y="307.584"/>
      </g>
     </g>
     <g id="text_6">
      <text style="font-family:DejaVu Sans;font-size:10px;font-style:normal;font-weight:normal;text-anchor:middle;" transform="rotate(-0, 396.715188, 322.182437)" x="396.715188" y="322.182437">300</text>
     </g>
    </g>
    <g id="text_7">
     <text style="font-family:DejaVu Sans;font-size:10px;font-style:normal;font-weight:normal;text-anchor:middle;" transform="rotate(-0, 236.16, 335.860562)" x="236.16" y="335.860562">Amount of languages tested</text>
    </g>
   </g>
   <g id="matplotlib.axis_2">
    <g id="ytick_1">
     <g id="line2d_7">
      <defs>
       <path d="M 0 0 
L -3.5 0 
" id="m0b3b34ae26" style="stroke:#000000;stroke-width:0.8;"/>
      </defs>
      <g>
       <use style="stroke:#000000;stroke-width:0.8;" x="57.6" xlink:href="#m0b3b34ae26" y="274.640112"/>
      </g>
     </g>
     <g id="text_8">
      <text style="font-family:DejaVu Sans;font-size:10px;font-style:normal;font-weight:normal;text-anchor:end;" transform="rotate(-0, 50.6, 278.439331)" x="50.6" y="278.439331">−0.05</text>
     </g>
    </g>
    <g id="ytick_2">
     <g id="line2d_8">
      <g>
       <use style="stroke:#000000;stroke-width:0.8;" x="57.6" xlink:href="#m0b3b34ae26" y="228.173765"/>
      </g>
     </g>
     <g id="text_9">
      <text style="font-family:DejaVu Sans;font-size:10px;font-style:normal;font-weight:normal;text-anchor:end;" transform="rotate(-0, 50.6, 231.972984)" x="50.6" y="231.972984">0.00</text>
     </g>
    </g>
    <g id="ytick_3">
     <g id="line2d_9">
      <g>
       <use style="stroke:#000000;stroke-width:0.8;" x="57.6" xlink:href="#m0b3b34ae26" y="181.707419"/>
      </g>
     </g>
     <g id="text_10">
      <text style="font-family:DejaVu Sans;font-size:10px;font-style:normal;font-weight:normal;text-anchor:end;" transform="rotate(-0, 50.6, 185.506637)" x="50.6" y="185.506637">0.05</text>
     </g>
    </g>
    <g id="ytick_4">
     <g id="line2d_10">
      <g>
       <use style="stroke:#000000;stroke-width:0.8;" x="57.6" xlink:href="#m0b3b34ae26" y="135.241072"/>
      </g>
     </g>
     <g id="text_11">
      <text style="font-family:DejaVu Sans;font-size:10px;font-style:normal;font-weight:normal;text-anchor:end;" transform="rotate(-0, 50.6, 139.04029)" x="50.6" y="139.04029">0.10</text>
     </g>
    </g>
    <g id="ytick_5">
     <g id="line2d_11">
      <g>
       <use style="stroke:#000000;stroke-width:0.8;" x="57.6" xlink:href="#m0b3b34ae26" y="88.774725"/>
      </g>
     </g>
     <g id="text_12">
      <text style="font-family:DejaVu Sans;font-size:10px;font-style:normal;font-weight:normal;text-anchor:end;" transform="rotate(-0, 50.6, 92.573944)" x="50.6" y="92.573944">0.15</text>
     </g>
    </g>
    <g id="ytick_6">
     <g id="line2d_12">
      <g>
       <use style="stroke:#000000;stroke-width:0.8;" x="57.6" xlink:href="#m0b3b34ae26" y="42.308378"/>
      </g>
     </g>
     <g id="text_13">
      <text style="font-family:DejaVu Sans;font-size:10px;font-style:normal;font-weight:normal;text-anchor:end;" transform="rotate(-0, 50.6, 46.107597)" x="50.6" y="46.107597">0.20</text>
     </g>
    </g>
    <g id="text_14">
     <text style="font-family:DejaVu Sans;font-size:10px;font-style:normal;font-weight:normal;text-anchor:middle;" transform="rotate(-90, 13.875, 174.528)" x="13.875" y="174.528">Score minus base</text>
    </g>
   </g>
   <g id="line2d_13">
    <path clip-path="url(#pe84be06cfb)" d="M 75.874503 219.178956 
L 93.352206 219.269913 
L 95.849021 219.282907 
L 97.097428 219.289404 
L 98.345835 219.295901 
L 100.84265 219.308895 
L 104.587872 219.328386 
L 127.059204 219.44533 
L 132.052833 219.471318 
L 139.543277 219.510299 
L 153.275758 219.581765 
L 169.505053 219.666225 
L 172.001868 219.679219 
L 173.250275 219.685716 
L 185.734349 219.750685 
L 273.122862 220.205469 
L 356.766153 220.640763 
L 396.715188 220.848664 
" style="fill:none;stroke:#1f77b4;stroke-linecap:square;stroke-width:1.5;"/>
   </g>
   <g id="patch_3">
    <path d="M 57.6 307.584 
L 57.6 41.472 
" style="fill:none;stroke:#000000;stroke-linecap:square;stroke-linejoin:miter;stroke-width:0.8;"/>
   </g>
   <g id="patch_4">
    <path d="M 414.72 307.584 
L 414.72 41.472 
" style="fill:none;stroke:#000000;stroke-linecap:square;stroke-linejoin:miter;stroke-width:0.8;"/>
   </g>
   <g id="patch_5">
    <path d="M 57.6 307.584 
L 414.72 307.584 
" style="fill:none;stroke:#000000;stroke-linecap:square;stroke-linejoin:miter;stroke-width:0.8;"/>
   </g>
   <g id="patch_6">
    <path d="M 57.6 41.472 
L 414.72 41.472 
" style="fill:none;stroke:#000000;stroke-linecap:square;stroke-linejoin:miter;stroke-width:0.8;"/>
   </g>
   <g id="text_15">
    <text style="font-family:DejaVu Sans;font-size:12px;font-style:normal;font-weight:normal;text-anchor:middle;" transform="rotate(-0, 236.16, 35.472)" x="236.16" y="35.472">Amount of languages in features vs. score in Simple Clauses</text>
   </g>
  </g>
 </g>
 <defs>
  <clipPath id="pe84be06cfb">
   <rect height="266.112" width="357.12" x="57.6" y="41.472"/>
  </clipPath>
 </defs>
</svg>
