<?xml version="1.0" encoding="utf-8" standalone="no"?>
<!DOCTYPE svg PUBLIC "-//W3C//DTD SVG 1.1//EN"
  "http://www.w3.org/Graphics/SVG/1.1/DTD/svg11.dtd">
<!-- Created with matplotlib (http://matplotlib.org/) -->
<svg height="345.6pt" version="1.1" viewBox="0 0 460.8 345.6" width="460.8pt" xmlns="http://www.w3.org/2000/svg" xmlns:xlink="http://www.w3.org/1999/xlink">
 <defs>
  <style type="text/css">
*{stroke-linecap:butt;stroke-linejoin:round;}
  </style>
 </defs>
 <g id="figure_1">
  <g id="patch_1">
   <path d="M 0 345.6 
L 460.8 345.6 
L 460.8 0 
L 0 0 
z
" style="fill:#ffffff;"/>
  </g>
  <g id="axes_1">
   <g id="patch_2">
    <path d="M 62.39 303.64 
L 447.48 303.64 
L 447.48 13.32 
L 62.39 13.32 
z
" style="fill:#ffffff;"/>
   </g>
   <g id="98A">
    <defs>
     <path d="M 0 3 
C 0.795609 3 1.55874 2.683901 2.12132 2.12132 
C 2.683901 1.55874 3 0.795609 3 0 
C 3 -0.795609 2.683901 -1.55874 2.12132 -2.12132 
C 1.55874 -2.683901 0.795609 -3 0 -3 
C -0.795609 -3 -1.55874 -2.683901 -2.12132 -2.12132 
C -2.683901 -1.55874 -3 -0.795609 -3 0 
C -3 0.795609 -2.683901 1.55874 -2.12132 2.12132 
C -1.55874 2.683901 -0.795609 3 0 3 
z
" id="mf6fb7dbe06" style="stroke:#1f77b4;"/>
    </defs>
    <g clip-path="url(#pdecb58c14f)">
     <use style="fill:#1f77b4;stroke:#1f77b4;" x="109.169227" xlink:href="#mf6fb7dbe06" y="201.534795"/>
    </g>
   </g>
   <g id="112A">
    <defs>
     <path d="M 0 3 
C 0.795609 3 1.55874 2.683901 2.12132 2.12132 
C 2.683901 1.55874 3 0.795609 3 0 
C 3 -0.795609 2.683901 -1.55874 2.12132 -2.12132 
C 1.55874 -2.683901 0.795609 -3 0 -3 
C -0.795609 -3 -1.55874 -2.683901 -2.12132 -2.12132 
C -2.683901 -1.55874 -3 -0.795609 -3 0 
C -3 0.795609 -2.683901 1.55874 -2.12132 2.12132 
C -1.55874 2.683901 -0.795609 3 0 3 
z
" id="m1ff6a2d358" style="stroke:#ff7f0e;"/>
    </defs>
    <g clip-path="url(#pdecb58c14f)">
     <use style="fill:#ff7f0e;stroke:#ff7f0e;" x="429.9758" xlink:href="#m1ff6a2d358" y="182.46567"/>
    </g>
   </g>
   <g id="120A">
    <defs>
     <path d="M 0 3 
C 0.795609 3 1.55874 2.683901 2.12132 2.12132 
C 2.683901 1.55874 3 0.795609 3 0 
C 3 -0.795609 2.683901 -1.55874 2.12132 -2.12132 
C 1.55874 -2.683901 0.795609 -3 0 -3 
C -0.795609 -3 -1.55874 -2.683901 -2.12132 -2.12132 
C -2.683901 -1.55874 -3 -0.795609 -3 0 
C -3 0.795609 -2.683901 1.55874 -2.12132 2.12132 
C -1.55874 2.683901 -0.795609 3 0 3 
z
" id="mc504b5efc8" style="stroke:#2ca02c;"/>
    </defs>
    <g clip-path="url(#pdecb58c14f)">
     <use style="fill:#2ca02c;stroke:#2ca02c;" x="201.214995" xlink:href="#mc504b5efc8" y="199.403487"/>
    </g>
   </g>
   <g id="109B">
    <defs>
     <path d="M 0 3 
C 0.795609 3 1.55874 2.683901 2.12132 2.12132 
C 2.683901 1.55874 3 0.795609 3 0 
C 3 -0.795609 2.683901 -1.55874 2.12132 -2.12132 
C 1.55874 -2.683901 0.795609 -3 0 -3 
C -0.795609 -3 -1.55874 -2.683901 -2.12132 -2.12132 
C -2.683901 -1.55874 -3 -0.795609 -3 0 
C -3 0.795609 -2.683901 1.55874 -2.12132 2.12132 
C -1.55874 2.683901 -0.795609 3 0 3 
z
" id="m226259bac6" style="stroke:#d62728;"/>
    </defs>
    <g clip-path="url(#pdecb58c14f)">
     <use style="fill:#d62728;stroke:#d62728;" x="106.461998" xlink:href="#m226259bac6" y="191.507498"/>
    </g>
   </g>
   <g id="109A">
    <defs>
     <path d="M 0 3 
C 0.795609 3 1.55874 2.683901 2.12132 2.12132 
C 2.683901 1.55874 3 0.795609 3 0 
C 3 -0.795609 2.683901 -1.55874 2.12132 -2.12132 
C 1.55874 -2.683901 0.795609 -3 0 -3 
C -0.795609 -3 -1.55874 -2.683901 -2.12132 -2.12132 
C -2.683901 -1.55874 -3 -0.795609 -3 0 
C -3 0.795609 -2.683901 1.55874 -2.12132 2.12132 
C -1.55874 2.683901 -0.795609 3 0 3 
z
" id="m86f5d22652" style="stroke:#9467bd;"/>
    </defs>
    <g clip-path="url(#pdecb58c14f)">
     <use style="fill:#9467bd;stroke:#9467bd;" x="106.461998" xlink:href="#m86f5d22652" y="158.560665"/>
    </g>
   </g>
   <g id="106A">
    <defs>
     <path d="M 0 3 
C 0.795609 3 1.55874 2.683901 2.12132 2.12132 
C 2.683901 1.55874 3 0.795609 3 0 
C 3 -0.795609 2.683901 -1.55874 2.12132 -2.12132 
C 1.55874 -2.683901 0.795609 -3 0 -3 
C -0.795609 -3 -1.55874 -2.683901 -2.12132 -2.12132 
C -2.683901 -1.55874 -3 -0.795609 -3 0 
C -3 0.795609 -2.683901 1.55874 -2.12132 2.12132 
C -1.55874 2.683901 -0.795609 3 0 3 
z
" id="mdde10add79" style="stroke:#8c564b;"/>
    </defs>
    <g clip-path="url(#pdecb58c14f)">
     <use style="fill:#8c564b;stroke:#8c564b;" x="101.047541" xlink:href="#mdde10add79" y="191.507498"/>
    </g>
   </g>
   <g id="113A">
    <defs>
     <path d="M 0 3 
C 0.795609 3 1.55874 2.683901 2.12132 2.12132 
C 2.683901 1.55874 3 0.795609 3 0 
C 3 -0.795609 2.683901 -1.55874 2.12132 -2.12132 
C 1.55874 -2.683901 0.795609 -3 0 -3 
C -0.795609 -3 -1.55874 -2.683901 -2.12132 -2.12132 
C -2.683901 -1.55874 -3 -0.795609 -3 0 
C -3 0.795609 -2.683901 1.55874 -2.12132 2.12132 
C -1.55874 2.683901 -0.795609 3 0 3 
z
" id="maf221afff9" style="stroke:#e377c2;"/>
    </defs>
    <g clip-path="url(#pdecb58c14f)">
     <use style="fill:#e377c2;stroke:#e377c2;" x="143.009583" xlink:href="#maf221afff9" y="159.845464"/>
    </g>
   </g>
   <g id="100A">
    <defs>
     <path d="M 0 3 
C 0.795609 3 1.55874 2.683901 2.12132 2.12132 
C 2.683901 1.55874 3 0.795609 3 0 
C 3 -0.795609 2.683901 -1.55874 2.12132 -2.12132 
C 1.55874 -2.683901 0.795609 -3 0 -3 
C -0.795609 -3 -1.55874 -2.683901 -2.12132 -2.12132 
C -2.683901 -1.55874 -3 -0.795609 -3 0 
C -3 0.795609 -2.683901 1.55874 -2.12132 2.12132 
C -1.55874 2.683901 -0.795609 3 0 3 
z
" id="mdad3989be2" style="stroke:#7f7f7f;"/>
    </defs>
    <g clip-path="url(#pdecb58c14f)">
     <use style="fill:#7f7f7f;stroke:#7f7f7f;" x="187.678852" xlink:href="#mdad3989be2" y="196.521147"/>
    </g>
   </g>
   <g id="107A">
    <defs>
     <path d="M 0 3 
C 0.795609 3 1.55874 2.683901 2.12132 2.12132 
C 2.683901 1.55874 3 0.795609 3 0 
C 3 -0.795609 2.683901 -1.55874 2.12132 -2.12132 
C 1.55874 -2.683901 0.795609 -3 0 -3 
C -0.795609 -3 -1.55874 -2.683901 -2.12132 -2.12132 
C -2.683901 -1.55874 -3 -0.795609 -3 0 
C -3 0.795609 -2.683901 1.55874 -2.12132 2.12132 
C -1.55874 2.683901 -0.795609 3 0 3 
z
" id="m959ff52765" style="stroke:#bcbd22;"/>
    </defs>
    <g clip-path="url(#pdecb58c14f)">
     <use style="fill:#bcbd22;stroke:#bcbd22;" x="183.61801" xlink:href="#m959ff52765" y="191.194145"/>
    </g>
   </g>
   <g id="114A">
    <defs>
     <path d="M 0 3 
C 0.795609 3 1.55874 2.683901 2.12132 2.12132 
C 2.683901 1.55874 3 0.795609 3 0 
C 3 -0.795609 2.683901 -1.55874 2.12132 -2.12132 
C 1.55874 -2.683901 0.795609 -3 0 -3 
C -0.795609 -3 -1.55874 -2.683901 -2.12132 -2.12132 
C -2.683901 -1.55874 -3 -0.795609 -3 0 
C -3 0.795609 -2.683901 1.55874 -2.12132 2.12132 
C -1.55874 2.683901 -0.795609 3 0 3 
z
" id="m89d0396782" style="stroke:#17becf;"/>
    </defs>
    <g clip-path="url(#pdecb58c14f)">
     <use style="fill:#17becf;stroke:#17becf;" x="143.009583" xlink:href="#m89d0396782" y="188.326499"/>
    </g>
   </g>
   <g id="110A">
    <g clip-path="url(#pdecb58c14f)">
     <use style="fill:#1f77b4;stroke:#1f77b4;" x="82.096942" xlink:href="#mf6fb7dbe06" y="203.155368"/>
    </g>
   </g>
   <g id="103A">
    <g clip-path="url(#pdecb58c14f)">
     <use style="fill:#ff7f0e;stroke:#ff7f0e;" x="187.678852" xlink:href="#m1ff6a2d358" y="196.521147"/>
    </g>
   </g>
   <g id="99A">
    <g clip-path="url(#pdecb58c14f)">
     <use style="fill:#2ca02c;stroke:#2ca02c;" x="103.75477" xlink:href="#mc504b5efc8" y="224.233951"/>
    </g>
   </g>
   <g id="104A">
    <g clip-path="url(#pdecb58c14f)">
     <use style="fill:#d62728;stroke:#d62728;" x="186.325238" xlink:href="#m226259bac6" y="217.548755"/>
    </g>
   </g>
   <g id="119A">
    <g clip-path="url(#pdecb58c14f)">
     <use style="fill:#9467bd;stroke:#9467bd;" x="201.214995" xlink:href="#m86f5d22652" y="173.262341"/>
    </g>
   </g>
   <g id="102A">
    <g clip-path="url(#pdecb58c14f)">
     <use style="fill:#8c564b;stroke:#8c564b;" x="187.678852" xlink:href="#mdde10add79" y="173.99771"/>
    </g>
   </g>
   <g id="118A">
    <g clip-path="url(#pdecb58c14f)">
     <use style="fill:#e377c2;stroke:#e377c2;" x="201.214995" xlink:href="#maf221afff9" y="88.499711"/>
    </g>
   </g>
   <g id="115A">
    <g clip-path="url(#pdecb58c14f)">
     <use style="fill:#7f7f7f;stroke:#7f7f7f;" x="113.230069" xlink:href="#mdad3989be2" y="191.507498"/>
    </g>
   </g>
   <g id="116A">
    <g clip-path="url(#pdecb58c14f)">
     <use style="fill:#bcbd22;stroke:#bcbd22;" x="386.660145" xlink:href="#m959ff52765" y="191.507498"/>
    </g>
   </g>
   <g id="101A">
    <g clip-path="url(#pdecb58c14f)">
     <use style="fill:#17becf;stroke:#17becf;" x="295.967991" xlink:href="#m89d0396782" y="196.282401"/>
    </g>
   </g>
   <g id="108B">
    <g clip-path="url(#pdecb58c14f)">
     <use style="fill:#1f77b4;stroke:#1f77b4;" x="105.108384" xlink:href="#mf6fb7dbe06" y="191.507498"/>
    </g>
   </g>
   <g id="121A">
    <g clip-path="url(#pdecb58c14f)">
     <use style="fill:#ff7f0e;stroke:#ff7f0e;" x="103.75477" xlink:href="#m1ff6a2d358" y="27.737496"/>
    </g>
   </g>
   <g id="117A">
    <g clip-path="url(#pdecb58c14f)">
     <use style="fill:#2ca02c;stroke:#2ca02c;" x="137.595126" xlink:href="#mc504b5efc8" y="255.156646"/>
    </g>
   </g>
   <g id="108A">
    <g clip-path="url(#pdecb58c14f)">
     <use style="fill:#d62728;stroke:#d62728;" x="109.169227" xlink:href="#m226259bac6" y="191.507498"/>
    </g>
   </g>
   <g id="105A">
    <g clip-path="url(#pdecb58c14f)">
     <use style="fill:#9467bd;stroke:#9467bd;" x="166.021025" xlink:href="#m86f5d22652" y="288.386408"/>
    </g>
   </g>
   <g id="111A">
    <g clip-path="url(#pdecb58c14f)">
     <use style="fill:#8c564b;stroke:#8c564b;" x="151.131268" xlink:href="#mdde10add79" y="191.507498"/>
    </g>
   </g>
   <g id="matplotlib.axis_1">
    <g id="xtick_1">
     <g id="line2d_1">
      <defs>
       <path d="M 0 0 
L 0 3.5 
" id="m7e6b0ceb25" style="stroke:#000000;stroke-width:0.8;"/>
      </defs>
      <g>
       <use style="stroke:#000000;stroke-width:0.8;" x="91.572242" xlink:href="#m7e6b0ceb25" y="303.64"/>
      </g>
     </g>
     <g id="text_1">
      <text style="font-family:DejaVu Sans;font-size:10px;font-style:normal;font-weight:normal;text-anchor:middle;" transform="rotate(-0, 91.572242, 318.238437)" x="91.572242" y="318.238437">50</text>
     </g>
    </g>
    <g id="xtick_2">
     <g id="line2d_2">
      <g>
       <use style="stroke:#000000;stroke-width:0.8;" x="159.252953" xlink:href="#m7e6b0ceb25" y="303.64"/>
      </g>
     </g>
     <g id="text_2">
      <text style="font-family:DejaVu Sans;font-size:10px;font-style:normal;font-weight:normal;text-anchor:middle;" transform="rotate(-0, 159.252953, 318.238437)" x="159.252953" y="318.238437">100</text>
     </g>
    </g>
    <g id="xtick_3">
     <g id="line2d_3">
      <g>
       <use style="stroke:#000000;stroke-width:0.8;" x="226.933665" xlink:href="#m7e6b0ceb25" y="303.64"/>
      </g>
     </g>
     <g id="text_3">
      <text style="font-family:DejaVu Sans;font-size:10px;font-style:normal;font-weight:normal;text-anchor:middle;" transform="rotate(-0, 226.933665, 318.238437)" x="226.933665" y="318.238437">150</text>
     </g>
    </g>
    <g id="xtick_4">
     <g id="line2d_4">
      <g>
       <use style="stroke:#000000;stroke-width:0.8;" x="294.614377" xlink:href="#m7e6b0ceb25" y="303.64"/>
      </g>
     </g>
     <g id="text_4">
      <text style="font-family:DejaVu Sans;font-size:10px;font-style:normal;font-weight:normal;text-anchor:middle;" transform="rotate(-0, 294.614377, 318.238437)" x="294.614377" y="318.238437">200</text>
     </g>
    </g>
    <g id="xtick_5">
     <g id="line2d_5">
      <g>
       <use style="stroke:#000000;stroke-width:0.8;" x="362.295088" xlink:href="#m7e6b0ceb25" y="303.64"/>
      </g>
     </g>
     <g id="text_5">
      <text style="font-family:DejaVu Sans;font-size:10px;font-style:normal;font-weight:normal;text-anchor:middle;" transform="rotate(-0, 362.295088, 318.238437)" x="362.295088" y="318.238437">250</text>
     </g>
    </g>
    <g id="xtick_6">
     <g id="line2d_6">
      <g>
       <use style="stroke:#000000;stroke-width:0.8;" x="429.9758" xlink:href="#m7e6b0ceb25" y="303.64"/>
      </g>
     </g>
     <g id="text_6">
      <text style="font-family:DejaVu Sans;font-size:10px;font-style:normal;font-weight:normal;text-anchor:middle;" transform="rotate(-0, 429.9758, 318.238437)" x="429.9758" y="318.238437">300</text>
     </g>
    </g>
    <g id="text_7">
     <text style="font-family:DejaVu Sans;font-size:10px;font-style:normal;font-weight:normal;text-anchor:middle;" transform="rotate(-0, 254.935, 331.916562)" x="254.935" y="331.916562">Amount of languages tested</text>
    </g>
   </g>
   <g id="matplotlib.axis_2">
    <g id="ytick_1">
     <g id="line2d_7">
      <defs>
       <path d="M 0 0 
L -3.5 0 
" id="m404c89bd93" style="stroke:#000000;stroke-width:0.8;"/>
      </defs>
      <g>
       <use style="stroke:#000000;stroke-width:0.8;" x="62.39" xlink:href="#m404c89bd93" y="266.712226"/>
      </g>
     </g>
     <g id="text_8">
      <text style="font-family:DejaVu Sans;font-size:10px;font-style:normal;font-weight:normal;text-anchor:end;" transform="rotate(-0, 55.39, 270.511445)" x="55.39" y="270.511445">−0.10</text>
     </g>
    </g>
    <g id="ytick_2">
     <g id="line2d_8">
      <g>
       <use style="stroke:#000000;stroke-width:0.8;" x="62.39" xlink:href="#m404c89bd93" y="229.109862"/>
      </g>
     </g>
     <g id="text_9">
      <text style="font-family:DejaVu Sans;font-size:10px;font-style:normal;font-weight:normal;text-anchor:end;" transform="rotate(-0, 55.39, 232.909081)" x="55.39" y="232.909081">−0.05</text>
     </g>
    </g>
    <g id="ytick_3">
     <g id="line2d_9">
      <g>
       <use style="stroke:#000000;stroke-width:0.8;" x="62.39" xlink:href="#m404c89bd93" y="191.507498"/>
      </g>
     </g>
     <g id="text_10">
      <text style="font-family:DejaVu Sans;font-size:10px;font-style:normal;font-weight:normal;text-anchor:end;" transform="rotate(-0, 55.39, 195.306717)" x="55.39" y="195.306717">0.00</text>
     </g>
    </g>
    <g id="ytick_4">
     <g id="line2d_10">
      <g>
       <use style="stroke:#000000;stroke-width:0.8;" x="62.39" xlink:href="#m404c89bd93" y="153.905134"/>
      </g>
     </g>
     <g id="text_11">
      <text style="font-family:DejaVu Sans;font-size:10px;font-style:normal;font-weight:normal;text-anchor:end;" transform="rotate(-0, 55.39, 157.704353)" x="55.39" y="157.704353">0.05</text>
     </g>
    </g>
    <g id="ytick_5">
     <g id="line2d_11">
      <g>
       <use style="stroke:#000000;stroke-width:0.8;" x="62.39" xlink:href="#m404c89bd93" y="116.30277"/>
      </g>
     </g>
     <g id="text_12">
      <text style="font-family:DejaVu Sans;font-size:10px;font-style:normal;font-weight:normal;text-anchor:end;" transform="rotate(-0, 55.39, 120.101989)" x="55.39" y="120.101989">0.10</text>
     </g>
    </g>
    <g id="ytick_6">
     <g id="line2d_12">
      <g>
       <use style="stroke:#000000;stroke-width:0.8;" x="62.39" xlink:href="#m404c89bd93" y="78.700406"/>
      </g>
     </g>
     <g id="text_13">
      <text style="font-family:DejaVu Sans;font-size:10px;font-style:normal;font-weight:normal;text-anchor:end;" transform="rotate(-0, 55.39, 82.499625)" x="55.39" y="82.499625">0.15</text>
     </g>
    </g>
    <g id="ytick_7">
     <g id="line2d_13">
      <g>
       <use style="stroke:#000000;stroke-width:0.8;" x="62.39" xlink:href="#m404c89bd93" y="41.098042"/>
      </g>
     </g>
     <g id="text_14">
      <text style="font-family:DejaVu Sans;font-size:10px;font-style:normal;font-weight:normal;text-anchor:end;" transform="rotate(-0, 55.39, 44.897261)" x="55.39" y="44.897261">0.20</text>
     </g>
    </g>
    <g id="text_15">
     <text style="font-family:DejaVu Sans;font-size:10px;font-style:normal;font-weight:normal;text-anchor:middle;" transform="rotate(-90, 18.665, 158.48)" x="18.665" y="158.48">Score - base</text>
    </g>
   </g>
   <g id="line2d_14">
    <path clip-path="url(#pdecb58c14f)" d="M 82.096942 185.743818 
L 101.047541 186.023215 
L 103.75477 186.063129 
L 105.108384 186.083086 
L 106.461998 186.103043 
L 109.169227 186.142957 
L 113.230069 186.202828 
L 137.595126 186.562054 
L 143.009583 186.641882 
L 151.131268 186.761624 
L 166.021025 186.98115 
L 183.61801 187.240591 
L 186.325238 187.280505 
L 187.678852 187.300462 
L 201.214995 187.500032 
L 295.967991 188.89702 
L 386.660145 190.234138 
L 429.9758 190.872762 
" style="fill:none;stroke:#1f77b4;stroke-linecap:square;stroke-width:1.5;"/>
   </g>
   <g id="patch_3">
    <path d="M 62.39 303.64 
L 62.39 13.32 
" style="fill:none;stroke:#000000;stroke-linecap:square;stroke-linejoin:miter;stroke-width:0.8;"/>
   </g>
   <g id="patch_4">
    <path d="M 447.48 303.64 
L 447.48 13.32 
" style="fill:none;stroke:#000000;stroke-linecap:square;stroke-linejoin:miter;stroke-width:0.8;"/>
   </g>
   <g id="patch_5">
    <path d="M 62.39 303.64 
L 447.48 303.64 
" style="fill:none;stroke:#000000;stroke-linecap:square;stroke-linejoin:miter;stroke-width:0.8;"/>
   </g>
   <g id="patch_6">
    <path d="M 62.39 13.32 
L 447.48 13.32 
" style="fill:none;stroke:#000000;stroke-linecap:square;stroke-linejoin:miter;stroke-width:0.8;"/>
   </g>
  </g>
 </g>
 <defs>
  <clipPath id="pdecb58c14f">
   <rect height="290.32" width="385.09" x="62.39" y="13.32"/>
  </clipPath>
 </defs>
</svg>
