<?xml version="1.0" encoding="utf-8" standalone="no"?>
<!DOCTYPE svg PUBLIC "-//W3C//DTD SVG 1.1//EN"
  "http://www.w3.org/Graphics/SVG/1.1/DTD/svg11.dtd">
<!-- Created with matplotlib (http://matplotlib.org/) -->
<svg height="345.6pt" version="1.1" viewBox="0 0 460.8 345.6" width="460.8pt" xmlns="http://www.w3.org/2000/svg" xmlns:xlink="http://www.w3.org/1999/xlink">
 <defs>
  <style type="text/css">
*{stroke-linecap:butt;stroke-linejoin:round;}
  </style>
 </defs>
 <g id="figure_1">
  <g id="patch_1">
   <path d="M 0 345.6 
L 460.8 345.6 
L 460.8 0 
L 0 0 
z
" style="fill:#ffffff;"/>
  </g>
  <g id="axes_1">
   <g id="patch_2">
    <path d="M 62.39 303.64 
L 447.48 303.64 
L 447.48 13.32 
L 62.39 13.32 
z
" style="fill:#ffffff;"/>
   </g>
   <g id="98A">
    <defs>
     <path d="M 0 3 
C 0.795609 3 1.55874 2.683901 2.12132 2.12132 
C 2.683901 1.55874 3 0.795609 3 0 
C 3 -0.795609 2.683901 -1.55874 2.12132 -2.12132 
C 1.55874 -2.683901 0.795609 -3 0 -3 
C -0.795609 -3 -1.55874 -2.683901 -2.12132 -2.12132 
C -2.683901 -1.55874 -3 -0.795609 -3 0 
C -3 0.795609 -2.683901 1.55874 -2.12132 2.12132 
C -1.55874 2.683901 -0.795609 3 0 3 
z
" id="m3b430bf243" style="stroke:#1f77b4;"/>
    </defs>
    <g clip-path="url(#pdc4eba8409)">
     <use style="fill:#1f77b4;stroke:#1f77b4;" x="108.231643" xlink:href="#m3b430bf243" y="202.866647"/>
    </g>
   </g>
   <g id="99A">
    <defs>
     <path d="M 0 3 
C 0.795609 3 1.55874 2.683901 2.12132 2.12132 
C 2.683901 1.55874 3 0.795609 3 0 
C 3 -0.795609 2.683901 -1.55874 2.12132 -2.12132 
C 1.55874 -2.683901 0.795609 -3 0 -3 
C -0.795609 -3 -1.55874 -2.683901 -2.12132 -2.12132 
C -2.683901 -1.55874 -3 -0.795609 -3 0 
C -3 0.795609 -2.683901 1.55874 -2.12132 2.12132 
C -1.55874 2.683901 -0.795609 3 0 3 
z
" id="m286a9a39a0" style="stroke:#ff7f0e;"/>
    </defs>
    <g clip-path="url(#pdc4eba8409)">
     <use style="fill:#ff7f0e;stroke:#ff7f0e;" x="102.825548" xlink:href="#m286a9a39a0" y="190.110692"/>
    </g>
   </g>
   <g id="100A">
    <defs>
     <path d="M 0 3 
C 0.795609 3 1.55874 2.683901 2.12132 2.12132 
C 2.683901 1.55874 3 0.795609 3 0 
C 3 -0.795609 2.683901 -1.55874 2.12132 -2.12132 
C 1.55874 -2.683901 0.795609 -3 0 -3 
C -0.795609 -3 -1.55874 -2.683901 -2.12132 -2.12132 
C -2.683901 -1.55874 -3 -0.795609 -3 0 
C -3 0.795609 -2.683901 1.55874 -2.12132 2.12132 
C -1.55874 2.683901 -0.795609 3 0 3 
z
" id="m663380008e" style="stroke:#2ca02c;"/>
    </defs>
    <g clip-path="url(#pdc4eba8409)">
     <use style="fill:#2ca02c;stroke:#2ca02c;" x="186.62002" xlink:href="#m663380008e" y="217.639968"/>
    </g>
   </g>
   <g id="101A">
    <defs>
     <path d="M 0 3 
C 0.795609 3 1.55874 2.683901 2.12132 2.12132 
C 2.683901 1.55874 3 0.795609 3 0 
C 3 -0.795609 2.683901 -1.55874 2.12132 -2.12132 
C 1.55874 -2.683901 0.795609 -3 0 -3 
C -0.795609 -3 -1.55874 -2.683901 -2.12132 -2.12132 
C -2.683901 -1.55874 -3 -0.795609 -3 0 
C -3 0.795609 -2.683901 1.55874 -2.12132 2.12132 
C -1.55874 2.683901 -0.795609 3 0 3 
z
" id="mdcb1762310" style="stroke:#d62728;"/>
    </defs>
    <g clip-path="url(#pdc4eba8409)">
     <use style="fill:#d62728;stroke:#d62728;" x="294.741918" xlink:href="#mdcb1762310" y="244.702549"/>
    </g>
   </g>
   <g id="102A">
    <defs>
     <path d="M 0 3 
C 0.795609 3 1.55874 2.683901 2.12132 2.12132 
C 2.683901 1.55874 3 0.795609 3 0 
C 3 -0.795609 2.683901 -1.55874 2.12132 -2.12132 
C 1.55874 -2.683901 0.795609 -3 0 -3 
C -0.795609 -3 -1.55874 -2.683901 -2.12132 -2.12132 
C -2.683901 -1.55874 -3 -0.795609 -3 0 
C -3 0.795609 -2.683901 1.55874 -2.12132 2.12132 
C -1.55874 2.683901 -0.795609 3 0 3 
z
" id="m578cf155e0" style="stroke:#9467bd;"/>
    </defs>
    <g clip-path="url(#pdc4eba8409)">
     <use style="fill:#9467bd;stroke:#9467bd;" x="186.62002" xlink:href="#m578cf155e0" y="226.070109"/>
    </g>
   </g>
   <g id="103A">
    <defs>
     <path d="M 0 3 
C 0.795609 3 1.55874 2.683901 2.12132 2.12132 
C 2.683901 1.55874 3 0.795609 3 0 
C 3 -0.795609 2.683901 -1.55874 2.12132 -2.12132 
C 1.55874 -2.683901 0.795609 -3 0 -3 
C -0.795609 -3 -1.55874 -2.683901 -2.12132 -2.12132 
C -2.683901 -1.55874 -3 -0.795609 -3 0 
C -3 0.795609 -2.683901 1.55874 -2.12132 2.12132 
C -1.55874 2.683901 -0.795609 3 0 3 
z
" id="mf16df78da8" style="stroke:#8c564b;"/>
    </defs>
    <g clip-path="url(#pdc4eba8409)">
     <use style="fill:#8c564b;stroke:#8c564b;" x="186.62002" xlink:href="#mf16df78da8" y="207.963807"/>
    </g>
   </g>
   <g id="104A">
    <defs>
     <path d="M 0 3 
C 0.795609 3 1.55874 2.683901 2.12132 2.12132 
C 2.683901 1.55874 3 0.795609 3 0 
C 3 -0.795609 2.683901 -1.55874 2.12132 -2.12132 
C 1.55874 -2.683901 0.795609 -3 0 -3 
C -0.795609 -3 -1.55874 -2.683901 -2.12132 -2.12132 
C -2.683901 -1.55874 -3 -0.795609 -3 0 
C -3 0.795609 -2.683901 1.55874 -2.12132 2.12132 
C -1.55874 2.683901 -0.795609 3 0 3 
z
" id="m4650f9f144" style="stroke:#e377c2;"/>
    </defs>
    <g clip-path="url(#pdc4eba8409)">
     <use style="fill:#e377c2;stroke:#e377c2;" x="185.268496" xlink:href="#m4650f9f144" y="206.551651"/>
    </g>
   </g>
   <g id="105A">
    <defs>
     <path d="M 0 3 
C 0.795609 3 1.55874 2.683901 2.12132 2.12132 
C 2.683901 1.55874 3 0.795609 3 0 
C 3 -0.795609 2.683901 -1.55874 2.12132 -2.12132 
C 1.55874 -2.683901 0.795609 -3 0 -3 
C -0.795609 -3 -1.55874 -2.683901 -2.12132 -2.12132 
C -2.683901 -1.55874 -3 -0.795609 -3 0 
C -3 0.795609 -2.683901 1.55874 -2.12132 2.12132 
C -1.55874 2.683901 -0.795609 3 0 3 
z
" id="m25e88a3227" style="stroke:#7f7f7f;"/>
    </defs>
    <g clip-path="url(#pdc4eba8409)">
     <use style="fill:#7f7f7f;stroke:#7f7f7f;" x="164.99564" xlink:href="#m25e88a3227" y="289.952894"/>
    </g>
   </g>
   <g id="106A">
    <defs>
     <path d="M 0 3 
C 0.795609 3 1.55874 2.683901 2.12132 2.12132 
C 2.683901 1.55874 3 0.795609 3 0 
C 3 -0.795609 2.683901 -1.55874 2.12132 -2.12132 
C 1.55874 -2.683901 0.795609 -3 0 -3 
C -0.795609 -3 -1.55874 -2.683901 -2.12132 -2.12132 
C -2.683901 -1.55874 -3 -0.795609 -3 0 
C -3 0.795609 -2.683901 1.55874 -2.12132 2.12132 
C -1.55874 2.683901 -0.795609 3 0 3 
z
" id="md17c8f1af7" style="stroke:#bcbd22;"/>
    </defs>
    <g clip-path="url(#pdc4eba8409)">
     <use style="fill:#bcbd22;stroke:#bcbd22;" x="100.122501" xlink:href="#md17c8f1af7" y="228.937213"/>
    </g>
   </g>
   <g id="107A">
    <defs>
     <path d="M 0 3 
C 0.795609 3 1.55874 2.683901 2.12132 2.12132 
C 2.683901 1.55874 3 0.795609 3 0 
C 3 -0.795609 2.683901 -1.55874 2.12132 -2.12132 
C 1.55874 -2.683901 0.795609 -3 0 -3 
C -0.795609 -3 -1.55874 -2.683901 -2.12132 -2.12132 
C -2.683901 -1.55874 -3 -0.795609 -3 0 
C -3 0.795609 -2.683901 1.55874 -2.12132 2.12132 
C -1.55874 2.683901 -0.795609 3 0 3 
z
" id="mb25e5cf824" style="stroke:#17becf;"/>
    </defs>
    <g clip-path="url(#pdc4eba8409)">
     <use style="fill:#17becf;stroke:#17becf;" x="182.565448" xlink:href="#mb25e5cf824" y="257.415686"/>
    </g>
   </g>
   <g id="108A">
    <g clip-path="url(#pdc4eba8409)">
     <use style="fill:#1f77b4;stroke:#1f77b4;" x="108.231643" xlink:href="#m3b430bf243" y="228.937213"/>
    </g>
   </g>
   <g id="109A">
    <g clip-path="url(#pdc4eba8409)">
     <use style="fill:#ff7f0e;stroke:#ff7f0e;" x="105.528596" xlink:href="#m286a9a39a0" y="275.740087"/>
    </g>
   </g>
   <g id="110A">
    <g clip-path="url(#pdc4eba8409)">
     <use style="fill:#2ca02c;stroke:#2ca02c;" x="81.201169" xlink:href="#m663380008e" y="269.518858"/>
    </g>
   </g>
   <g id="111A">
    <g clip-path="url(#pdc4eba8409)">
     <use style="fill:#d62728;stroke:#d62728;" x="150.128879" xlink:href="#mdcb1762310" y="228.937213"/>
    </g>
   </g>
   <g id="112A">
    <g clip-path="url(#pdc4eba8409)">
     <use style="fill:#9467bd;stroke:#9467bd;" x="428.542767" xlink:href="#m578cf155e0" y="197.371781"/>
    </g>
   </g>
   <g id="113A">
    <g clip-path="url(#pdc4eba8409)">
     <use style="fill:#8c564b;stroke:#8c564b;" x="142.019736" xlink:href="#mf16df78da8" y="165.038767"/>
    </g>
   </g>
   <g id="114A">
    <g clip-path="url(#pdc4eba8409)">
     <use style="fill:#e377c2;stroke:#e377c2;" x="142.019736" xlink:href="#m4650f9f144" y="262.9423"/>
    </g>
   </g>
   <g id="115A">
    <g clip-path="url(#pdc4eba8409)">
     <use style="fill:#7f7f7f;stroke:#7f7f7f;" x="112.286214" xlink:href="#m25e88a3227" y="242.493908"/>
    </g>
   </g>
   <g id="116A">
    <g clip-path="url(#pdc4eba8409)">
     <use style="fill:#bcbd22;stroke:#bcbd22;" x="385.294008" xlink:href="#md17c8f1af7" y="236.164704"/>
    </g>
   </g>
   <g id="117A">
    <g clip-path="url(#pdc4eba8409)">
     <use style="fill:#17becf;stroke:#17becf;" x="136.613642" xlink:href="#mb25e5cf824" y="274.56506"/>
    </g>
   </g>
   <g id="118A">
    <g clip-path="url(#pdc4eba8409)">
     <use style="fill:#1f77b4;stroke:#1f77b4;" x="200.135257" xlink:href="#m3b430bf243" y="68.931565"/>
    </g>
   </g>
   <g id="119A">
    <g clip-path="url(#pdc4eba8409)">
     <use style="fill:#ff7f0e;stroke:#ff7f0e;" x="200.135257" xlink:href="#m286a9a39a0" y="199.080208"/>
    </g>
   </g>
   <g id="120A">
    <g clip-path="url(#pdc4eba8409)">
     <use style="fill:#2ca02c;stroke:#2ca02c;" x="200.135257" xlink:href="#m663380008e" y="213.138058"/>
    </g>
   </g>
   <g id="121A">
    <g clip-path="url(#pdc4eba8409)">
     <use style="fill:#d62728;stroke:#d62728;" x="102.825548" xlink:href="#mdcb1762310" y="28.504219"/>
    </g>
   </g>
   <g id="109B">
    <g clip-path="url(#pdc4eba8409)">
     <use style="fill:#9467bd;stroke:#9467bd;" x="105.528596" xlink:href="#m578cf155e0" y="263.635895"/>
    </g>
   </g>
   <g id="108B">
    <g clip-path="url(#pdc4eba8409)">
     <use style="fill:#8c564b;stroke:#8c564b;" x="104.177072" xlink:href="#mf16df78da8" y="228.937213"/>
    </g>
   </g>
   <g id="matplotlib.axis_1">
    <g id="xtick_1">
     <g id="line2d_1">
      <defs>
       <path d="M 0 0 
L 0 3.5 
" id="mc8a52d9781" style="stroke:#000000;stroke-width:0.8;"/>
      </defs>
      <g>
       <use style="stroke:#000000;stroke-width:0.8;" x="90.661835" xlink:href="#mc8a52d9781" y="303.64"/>
      </g>
     </g>
     <g id="text_1">
      <text style="font-family:DejaVu Sans;font-size:10px;font-style:normal;font-weight:normal;text-anchor:middle;" transform="rotate(-0, 90.661835, 318.238437)" x="90.661835" y="318.238437">50</text>
     </g>
    </g>
    <g id="xtick_2">
     <g id="line2d_2">
      <g>
       <use style="stroke:#000000;stroke-width:0.8;" x="158.238021" xlink:href="#mc8a52d9781" y="303.64"/>
      </g>
     </g>
     <g id="text_2">
      <text style="font-family:DejaVu Sans;font-size:10px;font-style:normal;font-weight:normal;text-anchor:middle;" transform="rotate(-0, 158.238021, 318.238437)" x="158.238021" y="318.238437">100</text>
     </g>
    </g>
    <g id="xtick_3">
     <g id="line2d_3">
      <g>
       <use style="stroke:#000000;stroke-width:0.8;" x="225.814208" xlink:href="#mc8a52d9781" y="303.64"/>
      </g>
     </g>
     <g id="text_3">
      <text style="font-family:DejaVu Sans;font-size:10px;font-style:normal;font-weight:normal;text-anchor:middle;" transform="rotate(-0, 225.814208, 318.238437)" x="225.814208" y="318.238437">150</text>
     </g>
    </g>
    <g id="xtick_4">
     <g id="line2d_4">
      <g>
       <use style="stroke:#000000;stroke-width:0.8;" x="293.390394" xlink:href="#mc8a52d9781" y="303.64"/>
      </g>
     </g>
     <g id="text_4">
      <text style="font-family:DejaVu Sans;font-size:10px;font-style:normal;font-weight:normal;text-anchor:middle;" transform="rotate(-0, 293.390394, 318.238437)" x="293.390394" y="318.238437">200</text>
     </g>
    </g>
    <g id="xtick_5">
     <g id="line2d_5">
      <g>
       <use style="stroke:#000000;stroke-width:0.8;" x="360.966581" xlink:href="#mc8a52d9781" y="303.64"/>
      </g>
     </g>
     <g id="text_5">
      <text style="font-family:DejaVu Sans;font-size:10px;font-style:normal;font-weight:normal;text-anchor:middle;" transform="rotate(-0, 360.966581, 318.238437)" x="360.966581" y="318.238437">250</text>
     </g>
    </g>
    <g id="xtick_6">
     <g id="line2d_6">
      <g>
       <use style="stroke:#000000;stroke-width:0.8;" x="428.542767" xlink:href="#mc8a52d9781" y="303.64"/>
      </g>
     </g>
     <g id="text_6">
      <text style="font-family:DejaVu Sans;font-size:10px;font-style:normal;font-weight:normal;text-anchor:middle;" transform="rotate(-0, 428.542767, 318.238437)" x="428.542767" y="318.238437">300</text>
     </g>
    </g>
    <g id="text_7">
     <text style="font-family:DejaVu Sans;font-size:10px;font-style:normal;font-weight:normal;text-anchor:middle;" transform="rotate(-0, 254.935, 331.916562)" x="254.935" y="331.916562">Amount of languages tested</text>
    </g>
   </g>
   <g id="matplotlib.axis_2">
    <g id="ytick_1">
     <g id="line2d_7">
      <defs>
       <path d="M 0 0 
L -3.5 0 
" id="med720e61d9" style="stroke:#000000;stroke-width:0.8;"/>
      </defs>
      <g>
       <use style="stroke:#000000;stroke-width:0.8;" x="62.39" xlink:href="#med720e61d9" y="271.301883"/>
      </g>
     </g>
     <g id="text_8">
      <text style="font-family:DejaVu Sans;font-size:10px;font-style:normal;font-weight:normal;text-anchor:end;" transform="rotate(-0, 55.39, 275.101102)" x="55.39" y="275.101102">−0.05</text>
     </g>
    </g>
    <g id="ytick_2">
     <g id="line2d_8">
      <g>
       <use style="stroke:#000000;stroke-width:0.8;" x="62.39" xlink:href="#med720e61d9" y="228.937213"/>
      </g>
     </g>
     <g id="text_9">
      <text style="font-family:DejaVu Sans;font-size:10px;font-style:normal;font-weight:normal;text-anchor:end;" transform="rotate(-0, 55.39, 232.736432)" x="55.39" y="232.736432">0.00</text>
     </g>
    </g>
    <g id="ytick_3">
     <g id="line2d_9">
      <g>
       <use style="stroke:#000000;stroke-width:0.8;" x="62.39" xlink:href="#med720e61d9" y="186.572544"/>
      </g>
     </g>
     <g id="text_10">
      <text style="font-family:DejaVu Sans;font-size:10px;font-style:normal;font-weight:normal;text-anchor:end;" transform="rotate(-0, 55.39, 190.371762)" x="55.39" y="190.371762">0.05</text>
     </g>
    </g>
    <g id="ytick_4">
     <g id="line2d_10">
      <g>
       <use style="stroke:#000000;stroke-width:0.8;" x="62.39" xlink:href="#med720e61d9" y="144.207874"/>
      </g>
     </g>
     <g id="text_11">
      <text style="font-family:DejaVu Sans;font-size:10px;font-style:normal;font-weight:normal;text-anchor:end;" transform="rotate(-0, 55.39, 148.007092)" x="55.39" y="148.007092">0.10</text>
     </g>
    </g>
    <g id="ytick_5">
     <g id="line2d_11">
      <g>
       <use style="stroke:#000000;stroke-width:0.8;" x="62.39" xlink:href="#med720e61d9" y="101.843204"/>
      </g>
     </g>
     <g id="text_12">
      <text style="font-family:DejaVu Sans;font-size:10px;font-style:normal;font-weight:normal;text-anchor:end;" transform="rotate(-0, 55.39, 105.642423)" x="55.39" y="105.642423">0.15</text>
     </g>
    </g>
    <g id="ytick_6">
     <g id="line2d_12">
      <g>
       <use style="stroke:#000000;stroke-width:0.8;" x="62.39" xlink:href="#med720e61d9" y="59.478534"/>
      </g>
     </g>
     <g id="text_13">
      <text style="font-family:DejaVu Sans;font-size:10px;font-style:normal;font-weight:normal;text-anchor:end;" transform="rotate(-0, 55.39, 63.277753)" x="55.39" y="63.277753">0.20</text>
     </g>
    </g>
    <g id="ytick_7">
     <g id="line2d_13">
      <g>
       <use style="stroke:#000000;stroke-width:0.8;" x="62.39" xlink:href="#med720e61d9" y="17.113864"/>
      </g>
     </g>
     <g id="text_14">
      <text style="font-family:DejaVu Sans;font-size:10px;font-style:normal;font-weight:normal;text-anchor:end;" transform="rotate(-0, 55.39, 20.913083)" x="55.39" y="20.913083">0.25</text>
     </g>
    </g>
    <g id="text_15">
     <text style="font-family:DejaVu Sans;font-size:10px;font-style:normal;font-weight:normal;text-anchor:middle;" transform="rotate(-90, 18.665, 158.48)" x="18.665" y="158.48">Score - base</text>
    </g>
   </g>
   <g id="line2d_14">
    <path clip-path="url(#pdc4eba8409)" d="M 81.201169 219.754767 
L 100.122501 219.280321 
L 102.825548 219.212543 
L 104.177072 219.178655 
L 105.528596 219.144766 
L 108.231643 219.076988 
L 112.286214 218.975321 
L 136.613642 218.36532 
L 142.019736 218.229764 
L 150.128879 218.02643 
L 164.99564 217.653652 
L 182.565448 217.213095 
L 185.268496 217.145317 
L 186.62002 217.111428 
L 200.135257 216.772539 
L 294.741918 214.400312 
L 385.294008 212.129752 
L 428.542767 211.045305 
" style="fill:none;stroke:#1f77b4;stroke-linecap:square;stroke-width:1.5;"/>
   </g>
   <g id="patch_3">
    <path d="M 62.39 303.64 
L 62.39 13.32 
" style="fill:none;stroke:#000000;stroke-linecap:square;stroke-linejoin:miter;stroke-width:0.8;"/>
   </g>
   <g id="patch_4">
    <path d="M 447.48 303.64 
L 447.48 13.32 
" style="fill:none;stroke:#000000;stroke-linecap:square;stroke-linejoin:miter;stroke-width:0.8;"/>
   </g>
   <g id="patch_5">
    <path d="M 62.39 303.64 
L 447.48 303.64 
" style="fill:none;stroke:#000000;stroke-linecap:square;stroke-linejoin:miter;stroke-width:0.8;"/>
   </g>
   <g id="patch_6">
    <path d="M 62.39 13.32 
L 447.48 13.32 
" style="fill:none;stroke:#000000;stroke-linecap:square;stroke-linejoin:miter;stroke-width:0.8;"/>
   </g>
  </g>
 </g>
 <defs>
  <clipPath id="pdc4eba8409">
   <rect height="290.32" width="385.09" x="62.39" y="13.32"/>
  </clipPath>
 </defs>
</svg>
