<?xml version="1.0" encoding="utf-8" standalone="no"?>
<!DOCTYPE svg PUBLIC "-//W3C//DTD SVG 1.1//EN"
  "http://www.w3.org/Graphics/SVG/1.1/DTD/svg11.dtd">
<!-- Created with matplotlib (http://matplotlib.org/) -->
<svg height="345.6pt" version="1.1" viewBox="0 0 460.8 345.6" width="460.8pt" xmlns="http://www.w3.org/2000/svg" xmlns:xlink="http://www.w3.org/1999/xlink">
 <defs>
  <style type="text/css">
*{stroke-linecap:butt;stroke-linejoin:round;}
  </style>
 </defs>
 <g id="figure_1">
  <g id="patch_1">
   <path d="M 0 345.6 
L 460.8 345.6 
L 460.8 0 
L 0 0 
z
" style="fill:#ffffff;"/>
  </g>
  <g id="axes_1">
   <g id="patch_2">
    <path d="M 56.09 303.64 
L 447.48 303.64 
L 447.48 13.32 
L 56.09 13.32 
z
" style="fill:#ffffff;"/>
   </g>
   <g id="66A">
    <defs>
     <path d="M 0 3 
C 0.795609 3 1.55874 2.683901 2.12132 2.12132 
C 2.683901 1.55874 3 0.795609 3 0 
C 3 -0.795609 2.683901 -1.55874 2.12132 -2.12132 
C 1.55874 -2.683901 0.795609 -3 0 -3 
C -0.795609 -3 -1.55874 -2.683901 -2.12132 -2.12132 
C -2.683901 -1.55874 -3 -0.795609 -3 0 
C -3 0.795609 -2.683901 1.55874 -2.12132 2.12132 
C -1.55874 2.683901 -0.795609 3 0 3 
z
" id="mc2f64bb39f" style="stroke:#1f77b4;"/>
    </defs>
    <g clip-path="url(#pbaab6ee771)">
     <use style="fill:#1f77b4;stroke:#1f77b4;" x="101.456898" xlink:href="#mc2f64bb39f" y="285.466637"/>
    </g>
   </g>
   <g id="67A">
    <defs>
     <path d="M 0 3 
C 0.795609 3 1.55874 2.683901 2.12132 2.12132 
C 2.683901 1.55874 3 0.795609 3 0 
C 3 -0.795609 2.683901 -1.55874 2.12132 -2.12132 
C 1.55874 -2.683901 0.795609 -3 0 -3 
C -0.795609 -3 -1.55874 -2.683901 -2.12132 -2.12132 
C -2.683901 -1.55874 -3 -0.795609 -3 0 
C -3 0.795609 -2.683901 1.55874 -2.12132 2.12132 
C -1.55874 2.683901 -0.795609 3 0 3 
z
" id="me217857362" style="stroke:#ff7f0e;"/>
    </defs>
    <g clip-path="url(#pbaab6ee771)">
     <use style="fill:#ff7f0e;stroke:#ff7f0e;" x="101.456898" xlink:href="#me217857362" y="284.811254"/>
    </g>
   </g>
   <g id="76A">
    <defs>
     <path d="M 0 3 
C 0.795609 3 1.55874 2.683901 2.12132 2.12132 
C 2.683901 1.55874 3 0.795609 3 0 
C 3 -0.795609 2.683901 -1.55874 2.12132 -2.12132 
C 1.55874 -2.683901 0.795609 -3 0 -3 
C -0.795609 -3 -1.55874 -2.683901 -2.12132 -2.12132 
C -2.683901 -1.55874 -3 -0.795609 -3 0 
C -3 0.795609 -2.683901 1.55874 -2.12132 2.12132 
C -1.55874 2.683901 -0.795609 3 0 3 
z
" id="m6e0f166820" style="stroke:#2ca02c;"/>
    </defs>
    <g clip-path="url(#pbaab6ee771)">
     <use style="fill:#2ca02c;stroke:#2ca02c;" x="92.559544" xlink:href="#m6e0f166820" y="26.605239"/>
    </g>
   </g>
   <g id="65A">
    <defs>
     <path d="M 0 3 
C 0.795609 3 1.55874 2.683901 2.12132 2.12132 
C 2.683901 1.55874 3 0.795609 3 0 
C 3 -0.795609 2.683901 -1.55874 2.12132 -2.12132 
C 1.55874 -2.683901 0.795609 -3 0 -3 
C -0.795609 -3 -1.55874 -2.683901 -2.12132 -2.12132 
C -2.683901 -1.55874 -3 -0.795609 -3 0 
C -3 0.795609 -2.683901 1.55874 -2.12132 2.12132 
C -1.55874 2.683901 -0.795609 3 0 3 
z
" id="m07557f6ba3" style="stroke:#d62728;"/>
    </defs>
    <g clip-path="url(#pbaab6ee771)">
     <use style="fill:#d62728;stroke:#d62728;" x="101.456898" xlink:href="#m07557f6ba3" y="92.855886"/>
    </g>
   </g>
   <g id="72A">
    <defs>
     <path d="M 0 3 
C 0.795609 3 1.55874 2.683901 2.12132 2.12132 
C 2.683901 1.55874 3 0.795609 3 0 
C 3 -0.795609 2.683901 -1.55874 2.12132 -2.12132 
C 1.55874 -2.683901 0.795609 -3 0 -3 
C -0.795609 -3 -1.55874 -2.683901 -2.12132 -2.12132 
C -2.683901 -1.55874 -3 -0.795609 -3 0 
C -3 0.795609 -2.683901 1.55874 -2.12132 2.12132 
C -1.55874 2.683901 -0.795609 3 0 3 
z
" id="mcf4f034f2f" style="stroke:#9467bd;"/>
    </defs>
    <g clip-path="url(#pbaab6ee771)">
     <use style="fill:#9467bd;stroke:#9467bd;" x="169.669948" xlink:href="#mcf4f034f2f" y="193.377913"/>
    </g>
   </g>
   <g id="69A">
    <defs>
     <path d="M 0 3 
C 0.795609 3 1.55874 2.683901 2.12132 2.12132 
C 2.683901 1.55874 3 0.795609 3 0 
C 3 -0.795609 2.683901 -1.55874 2.12132 -2.12132 
C 1.55874 -2.683901 0.795609 -3 0 -3 
C -0.795609 -3 -1.55874 -2.683901 -2.12132 -2.12132 
C -2.683901 -1.55874 -3 -0.795609 -3 0 
C -3 0.795609 -2.683901 1.55874 -2.12132 2.12132 
C -1.55874 2.683901 -0.795609 3 0 3 
z
" id="mcaaa7011a6" style="stroke:#8c564b;"/>
    </defs>
    <g clip-path="url(#pbaab6ee771)">
     <use style="fill:#8c564b;stroke:#8c564b;" x="429.176115" xlink:href="#mcaaa7011a6" y="154.933279"/>
    </g>
   </g>
   <g id="78A">
    <defs>
     <path d="M 0 3 
C 0.795609 3 1.55874 2.683901 2.12132 2.12132 
C 2.683901 1.55874 3 0.795609 3 0 
C 3 -0.795609 2.683901 -1.55874 2.12132 -2.12132 
C 1.55874 -2.683901 0.795609 -3 0 -3 
C -0.795609 -3 -1.55874 -2.683901 -2.12132 -2.12132 
C -2.683901 -1.55874 -3 -0.795609 -3 0 
C -3 0.795609 -2.683901 1.55874 -2.12132 2.12132 
C -1.55874 2.683901 -0.795609 3 0 3 
z
" id="m4889f74c52" style="stroke:#e377c2;"/>
    </defs>
    <g clip-path="url(#pbaab6ee771)">
     <use style="fill:#e377c2;stroke:#e377c2;" x="165.22127" xlink:href="#m4889f74c52" y="159.425418"/>
    </g>
   </g>
   <g id="68A">
    <defs>
     <path d="M 0 3 
C 0.795609 3 1.55874 2.683901 2.12132 2.12132 
C 2.683901 1.55874 3 0.795609 3 0 
C 3 -0.795609 2.683901 -1.55874 2.12132 -2.12132 
C 1.55874 -2.683901 0.795609 -3 0 -3 
C -0.795609 -3 -1.55874 -2.683901 -2.12132 -2.12132 
C -2.683901 -1.55874 -3 -0.795609 -3 0 
C -3 0.795609 -2.683901 1.55874 -2.12132 2.12132 
C -1.55874 2.683901 -0.795609 3 0 3 
z
" id="m84efea4a35" style="stroke:#7f7f7f;"/>
    </defs>
    <g clip-path="url(#pbaab6ee771)">
     <use style="fill:#7f7f7f;stroke:#7f7f7f;" x="101.456898" xlink:href="#m84efea4a35" y="191.050193"/>
    </g>
   </g>
   <g id="79A">
    <defs>
     <path d="M 0 3 
C 0.795609 3 1.55874 2.683901 2.12132 2.12132 
C 2.683901 1.55874 3 0.795609 3 0 
C 3 -0.795609 2.683901 -1.55874 2.12132 -2.12132 
C 1.55874 -2.683901 0.795609 -3 0 -3 
C -0.795609 -3 -1.55874 -2.683901 -2.12132 -2.12132 
C -2.683901 -1.55874 -3 -0.795609 -3 0 
C -3 0.795609 -2.683901 1.55874 -2.12132 2.12132 
C -1.55874 2.683901 -0.795609 3 0 3 
z
" id="ma49bd605de" style="stroke:#bcbd22;"/>
    </defs>
    <g clip-path="url(#pbaab6ee771)">
     <use style="fill:#bcbd22;stroke:#bcbd22;" x="76.247727" xlink:href="#ma49bd605de" y="150.56604"/>
    </g>
   </g>
   <g id="77A">
    <defs>
     <path d="M 0 3 
C 0.795609 3 1.55874 2.683901 2.12132 2.12132 
C 2.683901 1.55874 3 0.795609 3 0 
C 3 -0.795609 2.683901 -1.55874 2.12132 -2.12132 
C 1.55874 -2.683901 0.795609 -3 0 -3 
C -0.795609 -3 -1.55874 -2.683901 -2.12132 -2.12132 
C -2.683901 -1.55874 -3 -0.795609 -3 0 
C -3 0.795609 -2.683901 1.55874 -2.12132 2.12132 
C -1.55874 2.683901 -0.795609 3 0 3 
z
" id="m8ce79a3250" style="stroke:#17becf;"/>
    </defs>
    <g clip-path="url(#pbaab6ee771)">
     <use style="fill:#17becf;stroke:#17becf;" x="165.22127" xlink:href="#m8ce79a3250" y="134.053219"/>
    </g>
   </g>
   <g id="75A">
    <g clip-path="url(#pbaab6ee771)">
     <use style="fill:#1f77b4;stroke:#1f77b4;" x="102.93979" xlink:href="#mc2f64bb39f" y="40.345653"/>
    </g>
   </g>
   <g id="71A">
    <g clip-path="url(#pbaab6ee771)">
     <use style="fill:#ff7f0e;stroke:#ff7f0e;" x="185.981764" xlink:href="#me217857362" y="141.634765"/>
    </g>
   </g>
   <g id="74A">
    <g clip-path="url(#pbaab6ee771)">
     <use style="fill:#2ca02c;stroke:#2ca02c;" x="105.905575" xlink:href="#m6e0f166820" y="156.233965"/>
    </g>
   </g>
   <g id="70A">
    <g clip-path="url(#pbaab6ee771)">
     <use style="fill:#d62728;stroke:#d62728;" x="211.190934" xlink:href="#m07557f6ba3" y="165.915539"/>
    </g>
   </g>
   <g id="79B">
    <g clip-path="url(#pbaab6ee771)">
     <use style="fill:#9467bd;stroke:#9467bd;" x="76.247727" xlink:href="#mcf4f034f2f" y="156.233965"/>
    </g>
   </g>
   <g id="80A">
    <g clip-path="url(#pbaab6ee771)">
     <use style="fill:#8c564b;stroke:#8c564b;" x="76.247727" xlink:href="#mcaaa7011a6" y="156.233965"/>
    </g>
   </g>
   <g id="73A">
    <g clip-path="url(#pbaab6ee771)">
     <use style="fill:#e377c2;stroke:#e377c2;" x="120.734499" xlink:href="#m4889f74c52" y="156.233965"/>
    </g>
   </g>
   <g id="matplotlib.axis_1">
    <g id="xtick_1">
     <g id="line2d_1">
      <defs>
       <path d="M 0 0 
L 0 3.5 
" id="m6bb3262808" style="stroke:#000000;stroke-width:0.8;"/>
      </defs>
      <g>
       <use style="stroke:#000000;stroke-width:0.8;" x="129.631853" xlink:href="#m6bb3262808" y="303.64"/>
      </g>
     </g>
     <g id="text_1">
      <text style="font-family:DejaVu Sans;font-size:10px;font-style:normal;font-weight:normal;text-anchor:middle;" transform="rotate(-0, 129.631853, 318.238437)" x="129.631853" y="318.238437">100</text>
     </g>
    </g>
    <g id="xtick_2">
     <g id="line2d_2">
      <g>
       <use style="stroke:#000000;stroke-width:0.8;" x="203.776473" xlink:href="#m6bb3262808" y="303.64"/>
      </g>
     </g>
     <g id="text_2">
      <text style="font-family:DejaVu Sans;font-size:10px;font-style:normal;font-weight:normal;text-anchor:middle;" transform="rotate(-0, 203.776473, 318.238437)" x="203.776473" y="318.238437">150</text>
     </g>
    </g>
    <g id="xtick_3">
     <g id="line2d_3">
      <g>
       <use style="stroke:#000000;stroke-width:0.8;" x="277.921092" xlink:href="#m6bb3262808" y="303.64"/>
      </g>
     </g>
     <g id="text_3">
      <text style="font-family:DejaVu Sans;font-size:10px;font-style:normal;font-weight:normal;text-anchor:middle;" transform="rotate(-0, 277.921092, 318.238437)" x="277.921092" y="318.238437">200</text>
     </g>
    </g>
    <g id="xtick_4">
     <g id="line2d_4">
      <g>
       <use style="stroke:#000000;stroke-width:0.8;" x="352.065711" xlink:href="#m6bb3262808" y="303.64"/>
      </g>
     </g>
     <g id="text_4">
      <text style="font-family:DejaVu Sans;font-size:10px;font-style:normal;font-weight:normal;text-anchor:middle;" transform="rotate(-0, 352.065711, 318.238437)" x="352.065711" y="318.238437">250</text>
     </g>
    </g>
    <g id="xtick_5">
     <g id="line2d_5">
      <g>
       <use style="stroke:#000000;stroke-width:0.8;" x="426.21033" xlink:href="#m6bb3262808" y="303.64"/>
      </g>
     </g>
     <g id="text_5">
      <text style="font-family:DejaVu Sans;font-size:10px;font-style:normal;font-weight:normal;text-anchor:middle;" transform="rotate(-0, 426.21033, 318.238437)" x="426.21033" y="318.238437">300</text>
     </g>
    </g>
    <g id="text_6">
     <text style="font-family:DejaVu Sans;font-size:10px;font-style:normal;font-weight:normal;text-anchor:middle;" transform="rotate(-0, 251.785, 331.916562)" x="251.785" y="331.916562">Amount of languages tested</text>
    </g>
   </g>
   <g id="matplotlib.axis_2">
    <g id="ytick_1">
     <g id="line2d_6">
      <defs>
       <path d="M 0 0 
L -3.5 0 
" id="m4e557b43d8" style="stroke:#000000;stroke-width:0.8;"/>
      </defs>
      <g>
       <use style="stroke:#000000;stroke-width:0.8;" x="56.09" xlink:href="#m4e557b43d8" y="278.867241"/>
      </g>
     </g>
     <g id="text_7">
      <text style="font-family:DejaVu Sans;font-size:10px;font-style:normal;font-weight:normal;text-anchor:end;" transform="rotate(-0, 49.09, 282.66646)" x="49.09" y="282.66646">−0.2</text>
     </g>
    </g>
    <g id="ytick_2">
     <g id="line2d_7">
      <g>
       <use style="stroke:#000000;stroke-width:0.8;" x="56.09" xlink:href="#m4e557b43d8" y="217.550603"/>
      </g>
     </g>
     <g id="text_8">
      <text style="font-family:DejaVu Sans;font-size:10px;font-style:normal;font-weight:normal;text-anchor:end;" transform="rotate(-0, 49.09, 221.349822)" x="49.09" y="221.349822">−0.1</text>
     </g>
    </g>
    <g id="ytick_3">
     <g id="line2d_8">
      <g>
       <use style="stroke:#000000;stroke-width:0.8;" x="56.09" xlink:href="#m4e557b43d8" y="156.233965"/>
      </g>
     </g>
     <g id="text_9">
      <text style="font-family:DejaVu Sans;font-size:10px;font-style:normal;font-weight:normal;text-anchor:end;" transform="rotate(-0, 49.09, 160.033183)" x="49.09" y="160.033183">0.0</text>
     </g>
    </g>
    <g id="ytick_4">
     <g id="line2d_9">
      <g>
       <use style="stroke:#000000;stroke-width:0.8;" x="56.09" xlink:href="#m4e557b43d8" y="94.917327"/>
      </g>
     </g>
     <g id="text_10">
      <text style="font-family:DejaVu Sans;font-size:10px;font-style:normal;font-weight:normal;text-anchor:end;" transform="rotate(-0, 49.09, 98.716545)" x="49.09" y="98.716545">0.1</text>
     </g>
    </g>
    <g id="ytick_5">
     <g id="line2d_10">
      <g>
       <use style="stroke:#000000;stroke-width:0.8;" x="56.09" xlink:href="#m4e557b43d8" y="33.600688"/>
      </g>
     </g>
     <g id="text_11">
      <text style="font-family:DejaVu Sans;font-size:10px;font-style:normal;font-weight:normal;text-anchor:end;" transform="rotate(-0, 49.09, 37.399907)" x="49.09" y="37.399907">0.2</text>
     </g>
    </g>
    <g id="text_12">
     <text style="font-family:DejaVu Sans;font-size:10px;font-style:normal;font-weight:normal;text-anchor:middle;" transform="rotate(-90, 18.7275, 158.48)" x="18.7275" y="158.48">Score - base</text>
    </g>
   </g>
   <g id="line2d_11">
    <path clip-path="url(#pbaab6ee771)" d="M 76.247727 154.415487 
L 92.559544 154.729334 
L 101.456898 154.900523 
L 102.93979 154.929055 
L 105.905575 154.986118 
L 120.734499 155.271433 
L 165.22127 156.127379 
L 169.669948 156.212973 
L 185.981764 156.52682 
L 211.190934 157.011856 
L 429.176115 161.205991 
" style="fill:none;stroke:#1f77b4;stroke-linecap:square;stroke-width:1.5;"/>
   </g>
   <g id="patch_3">
    <path d="M 56.09 303.64 
L 56.09 13.32 
" style="fill:none;stroke:#000000;stroke-linecap:square;stroke-linejoin:miter;stroke-width:0.8;"/>
   </g>
   <g id="patch_4">
    <path d="M 447.48 303.64 
L 447.48 13.32 
" style="fill:none;stroke:#000000;stroke-linecap:square;stroke-linejoin:miter;stroke-width:0.8;"/>
   </g>
   <g id="patch_5">
    <path d="M 56.09 303.64 
L 447.48 303.64 
" style="fill:none;stroke:#000000;stroke-linecap:square;stroke-linejoin:miter;stroke-width:0.8;"/>
   </g>
   <g id="patch_6">
    <path d="M 56.09 13.32 
L 447.48 13.32 
" style="fill:none;stroke:#000000;stroke-linecap:square;stroke-linejoin:miter;stroke-width:0.8;"/>
   </g>
  </g>
 </g>
 <defs>
  <clipPath id="pbaab6ee771">
   <rect height="290.32" width="391.39" x="56.09" y="13.32"/>
  </clipPath>
 </defs>
</svg>
