<?xml version="1.0" encoding="utf-8" standalone="no"?>
<!DOCTYPE svg PUBLIC "-//W3C//DTD SVG 1.1//EN"
  "http://www.w3.org/Graphics/SVG/1.1/DTD/svg11.dtd">
<!-- Created with matplotlib (http://matplotlib.org/) -->
<svg height="345.6pt" version="1.1" viewBox="0 0 460.8 345.6" width="460.8pt" xmlns="http://www.w3.org/2000/svg" xmlns:xlink="http://www.w3.org/1999/xlink">
 <defs>
  <style type="text/css">
*{stroke-linecap:butt;stroke-linejoin:round;}
  </style>
 </defs>
 <g id="figure_1">
  <g id="patch_1">
   <path d="M 0 345.6 
L 460.8 345.6 
L 460.8 0 
L 0 0 
z
" style="fill:#ffffff;"/>
  </g>
  <g id="axes_1">
   <g id="patch_2">
    <path d="M 62.39 303.64 
L 447.48 303.64 
L 447.48 13.32 
L 62.39 13.32 
z
" style="fill:#ffffff;"/>
   </g>
   <g id="90C">
    <defs>
     <path d="M 0 3 
C 0.795609 3 1.55874 2.683901 2.12132 2.12132 
C 2.683901 1.55874 3 0.795609 3 0 
C 3 -0.795609 2.683901 -1.55874 2.12132 -2.12132 
C 1.55874 -2.683901 0.795609 -3 0 -3 
C -0.795609 -3 -1.55874 -2.683901 -2.12132 -2.12132 
C -2.683901 -1.55874 -3 -0.795609 -3 0 
C -3 0.795609 -2.683901 1.55874 -2.12132 2.12132 
C -1.55874 2.683901 -0.795609 3 0 3 
z
" id="m2606b800dc" style="stroke:#1f77b4;"/>
    </defs>
    <g clip-path="url(#p011cb9f5a6)">
     <use style="fill:#1f77b4;stroke:#1f77b4;" x="248.597678" xlink:href="#m2606b800dc" y="214.123987"/>
    </g>
   </g>
   <g id="144B">
    <defs>
     <path d="M 0 3 
C 0.795609 3 1.55874 2.683901 2.12132 2.12132 
C 2.683901 1.55874 3 0.795609 3 0 
C 3 -0.795609 2.683901 -1.55874 2.12132 -2.12132 
C 1.55874 -2.683901 0.795609 -3 0 -3 
C -0.795609 -3 -1.55874 -2.683901 -2.12132 -2.12132 
C -2.683901 -1.55874 -3 -0.795609 -3 0 
C -3 0.795609 -2.683901 1.55874 -2.12132 2.12132 
C -1.55874 2.683901 -0.795609 3 0 3 
z
" id="m4d5d747355" style="stroke:#ff7f0e;"/>
    </defs>
    <g clip-path="url(#p011cb9f5a6)">
     <use style="fill:#ff7f0e;stroke:#ff7f0e;" x="220.223591" xlink:href="#m4d5d747355" y="214.123987"/>
    </g>
   </g>
   <g id="83A">
    <defs>
     <path d="M 0 3 
C 0.795609 3 1.55874 2.683901 2.12132 2.12132 
C 2.683901 1.55874 3 0.795609 3 0 
C 3 -0.795609 2.683901 -1.55874 2.12132 -2.12132 
C 1.55874 -2.683901 0.795609 -3 0 -3 
C -0.795609 -3 -1.55874 -2.683901 -2.12132 -2.12132 
C -2.683901 -1.55874 -3 -0.795609 -3 0 
C -3 0.795609 -2.683901 1.55874 -2.12132 2.12132 
C -1.55874 2.683901 -0.795609 3 0 3 
z
" id="m9a12234f13" style="stroke:#2ca02c;"/>
    </defs>
    <g clip-path="url(#p011cb9f5a6)">
     <use style="fill:#2ca02c;stroke:#2ca02c;" x="429.604782" xlink:href="#m9a12234f13" y="179.054218"/>
    </g>
   </g>
   <g id="87A">
    <defs>
     <path d="M 0 3 
C 0.795609 3 1.55874 2.683901 2.12132 2.12132 
C 2.683901 1.55874 3 0.795609 3 0 
C 3 -0.795609 2.683901 -1.55874 2.12132 -2.12132 
C 1.55874 -2.683901 0.795609 -3 0 -3 
C -0.795609 -3 -1.55874 -2.683901 -2.12132 -2.12132 
C -2.683901 -1.55874 -3 -0.795609 -3 0 
C -3 0.795609 -2.683901 1.55874 -2.12132 2.12132 
C -1.55874 2.683901 -0.795609 3 0 3 
z
" id="ma164f4b2f2" style="stroke:#d62728;"/>
    </defs>
    <g clip-path="url(#p011cb9f5a6)">
     <use style="fill:#d62728;stroke:#d62728;" x="400.252279" xlink:href="#ma164f4b2f2" y="208.980316"/>
    </g>
   </g>
   <g id="144A">
    <defs>
     <path d="M 0 3 
C 0.795609 3 1.55874 2.683901 2.12132 2.12132 
C 2.683901 1.55874 3 0.795609 3 0 
C 3 -0.795609 2.683901 -1.55874 2.12132 -2.12132 
C 1.55874 -2.683901 0.795609 -3 0 -3 
C -0.795609 -3 -1.55874 -2.683901 -2.12132 -2.12132 
C -2.683901 -1.55874 -3 -0.795609 -3 0 
C -3 0.795609 -2.683901 1.55874 -2.12132 2.12132 
C -1.55874 2.683901 -0.795609 3 0 3 
z
" id="m28230be1ef" style="stroke:#9467bd;"/>
    </defs>
    <g clip-path="url(#p011cb9f5a6)">
     <use style="fill:#9467bd;stroke:#9467bd;" x="363.072441" xlink:href="#m28230be1ef" y="223.064617"/>
    </g>
   </g>
   <g id="97A">
    <defs>
     <path d="M 0 3 
C 0.795609 3 1.55874 2.683901 2.12132 2.12132 
C 2.683901 1.55874 3 0.795609 3 0 
C 3 -0.795609 2.683901 -1.55874 2.12132 -2.12132 
C 1.55874 -2.683901 0.795609 -3 0 -3 
C -0.795609 -3 -1.55874 -2.683901 -2.12132 -2.12132 
C -2.683901 -1.55874 -3 -0.795609 -3 0 
C -3 0.795609 -2.683901 1.55874 -2.12132 2.12132 
C -1.55874 2.683901 -0.795609 3 0 3 
z
" id="m081dd1946b" style="stroke:#8c564b;"/>
    </defs>
    <g clip-path="url(#p011cb9f5a6)">
     <use style="fill:#8c564b;stroke:#8c564b;" x="391.446528" xlink:href="#m081dd1946b" y="196.639746"/>
    </g>
   </g>
   <g id="143B">
    <defs>
     <path d="M 0 3 
C 0.795609 3 1.55874 2.683901 2.12132 2.12132 
C 2.683901 1.55874 3 0.795609 3 0 
C 3 -0.795609 2.683901 -1.55874 2.12132 -2.12132 
C 1.55874 -2.683901 0.795609 -3 0 -3 
C -0.795609 -3 -1.55874 -2.683901 -2.12132 -2.12132 
C -2.683901 -1.55874 -3 -0.795609 -3 0 
C -3 0.795609 -2.683901 1.55874 -2.12132 2.12132 
C -1.55874 2.683901 -0.795609 3 0 3 
z
" id="m5247947552" style="stroke:#e377c2;"/>
    </defs>
    <g clip-path="url(#p011cb9f5a6)">
     <use style="fill:#e377c2;stroke:#e377c2;" x="81.288408" xlink:href="#m5247947552" y="214.123987"/>
    </g>
   </g>
   <g id="95A">
    <defs>
     <path d="M 0 3 
C 0.795609 3 1.55874 2.683901 2.12132 2.12132 
C 2.683901 1.55874 3 0.795609 3 0 
C 3 -0.795609 2.683901 -1.55874 2.12132 -2.12132 
C 1.55874 -2.683901 0.795609 -3 0 -3 
C -0.795609 -3 -1.55874 -2.683901 -2.12132 -2.12132 
C -2.683901 -1.55874 -3 -0.795609 -3 0 
C -3 0.795609 -2.683901 1.55874 -2.12132 2.12132 
C -1.55874 2.683901 -0.795609 3 0 3 
z
" id="ma50481975b" style="stroke:#7f7f7f;"/>
    </defs>
    <g clip-path="url(#p011cb9f5a6)">
     <use style="fill:#7f7f7f;stroke:#7f7f7f;" x="366.007691" xlink:href="#ma50481975b" y="184.101273"/>
    </g>
   </g>
   <g id="144S">
    <defs>
     <path d="M 0 3 
C 0.795609 3 1.55874 2.683901 2.12132 2.12132 
C 2.683901 1.55874 3 0.795609 3 0 
C 3 -0.795609 2.683901 -1.55874 2.12132 -2.12132 
C 1.55874 -2.683901 0.795609 -3 0 -3 
C -0.795609 -3 -1.55874 -2.683901 -2.12132 -2.12132 
C -2.683901 -1.55874 -3 -0.795609 -3 0 
C -3 0.795609 -2.683901 1.55874 -2.12132 2.12132 
C -1.55874 2.683901 -0.795609 3 0 3 
z
" id="mbf956907ce" style="stroke:#bcbd22;"/>
    </defs>
    <g clip-path="url(#p011cb9f5a6)">
     <use style="fill:#bcbd22;stroke:#bcbd22;" x="178.151669" xlink:href="#mbf956907ce" y="290.046339"/>
    </g>
   </g>
   <g id="93A">
    <defs>
     <path d="M 0 3 
C 0.795609 3 1.55874 2.683901 2.12132 2.12132 
C 2.683901 1.55874 3 0.795609 3 0 
C 3 -0.795609 2.683901 -1.55874 2.12132 -2.12132 
C 1.55874 -2.683901 0.795609 -3 0 -3 
C -0.795609 -3 -1.55874 -2.683901 -2.12132 -2.12132 
C -2.683901 -1.55874 -3 -0.795609 -3 0 
C -3 0.795609 -2.683901 1.55874 -2.12132 2.12132 
C -1.55874 2.683901 -0.795609 3 0 3 
z
" id="m30a6ee85ee" style="stroke:#17becf;"/>
    </defs>
    <g clip-path="url(#p011cb9f5a6)">
     <use style="fill:#17becf;stroke:#17becf;" x="312.194768" xlink:href="#m30a6ee85ee" y="250.770076"/>
    </g>
   </g>
   <g id="144K">
    <g clip-path="url(#p011cb9f5a6)">
     <use style="fill:#1f77b4;stroke:#1f77b4;" x="186.95742" xlink:href="#m2606b800dc" y="214.123987"/>
    </g>
   </g>
   <g id="144X">
    <g clip-path="url(#p011cb9f5a6)">
     <use style="fill:#ff7f0e;stroke:#ff7f0e;" x="108.684078" xlink:href="#m4d5d747355" y="214.123987"/>
    </g>
   </g>
   <g id="86A">
    <g clip-path="url(#p011cb9f5a6)">
     <use style="fill:#2ca02c;stroke:#2ca02c;" x="391.446528" xlink:href="#m9a12234f13" y="105.238875"/>
    </g>
   </g>
   <g id="143A">
    <g clip-path="url(#p011cb9f5a6)">
     <use style="fill:#d62728;stroke:#d62728;" x="392.424945" xlink:href="#ma164f4b2f2" y="207.414167"/>
    </g>
   </g>
   <g id="144V">
    <g clip-path="url(#p011cb9f5a6)">
     <use style="fill:#9467bd;stroke:#9467bd;" x="108.684078" xlink:href="#m28230be1ef" y="214.123987"/>
    </g>
   </g>
   <g id="143G">
    <g clip-path="url(#p011cb9f5a6)">
     <use style="fill:#8c564b;stroke:#8c564b;" x="392.424945" xlink:href="#m081dd1946b" y="214.123987"/>
    </g>
   </g>
   <g id="144H">
    <g clip-path="url(#p011cb9f5a6)">
     <use style="fill:#e377c2;stroke:#e377c2;" x="176.194836" xlink:href="#m5247947552" y="214.123987"/>
    </g>
   </g>
   <g id="90B">
    <g clip-path="url(#p011cb9f5a6)">
     <use style="fill:#7f7f7f;stroke:#7f7f7f;" x="96.943077" xlink:href="#ma50481975b" y="214.123987"/>
    </g>
   </g>
   <g id="92A">
    <g clip-path="url(#p011cb9f5a6)">
     <use style="fill:#bcbd22;stroke:#bcbd22;" x="300.453767" xlink:href="#mbf956907ce" y="233.310936"/>
    </g>
   </g>
   <g id="144D">
    <g clip-path="url(#p011cb9f5a6)">
     <use style="fill:#17becf;stroke:#17becf;" x="188.914254" xlink:href="#m30a6ee85ee" y="227.598833"/>
    </g>
   </g>
   <g id="84A">
    <g clip-path="url(#p011cb9f5a6)">
     <use style="fill:#1f77b4;stroke:#1f77b4;" x="204.568922" xlink:href="#m2606b800dc" y="214.123987"/>
    </g>
   </g>
   <g id="143E">
    <g clip-path="url(#p011cb9f5a6)">
     <use style="fill:#ff7f0e;stroke:#ff7f0e;" x="392.424945" xlink:href="#m4d5d747355" y="200.420851"/>
    </g>
   </g>
   <g id="143F">
    <g clip-path="url(#p011cb9f5a6)">
     <use style="fill:#2ca02c;stroke:#2ca02c;" x="392.424945" xlink:href="#m9a12234f13" y="215.92606"/>
    </g>
   </g>
   <g id="144T">
    <g clip-path="url(#p011cb9f5a6)">
     <use style="fill:#d62728;stroke:#d62728;" x="108.684078" xlink:href="#ma164f4b2f2" y="214.123987"/>
    </g>
   </g>
   <g id="81A">
    <g clip-path="url(#p011cb9f5a6)">
     <use style="fill:#9467bd;stroke:#9467bd;" x="406.122779" xlink:href="#m28230be1ef" y="216.070066"/>
    </g>
   </g>
   <g id="144L">
    <g clip-path="url(#p011cb9f5a6)">
     <use style="fill:#8c564b;stroke:#8c564b;" x="187.935837" xlink:href="#m081dd1946b" y="267.462964"/>
    </g>
   </g>
   <g id="91A">
    <g clip-path="url(#p011cb9f5a6)">
     <use style="fill:#e377c2;stroke:#e377c2;" x="224.137258" xlink:href="#m5247947552" y="167.035979"/>
    </g>
   </g>
   <g id="96A">
    <g clip-path="url(#p011cb9f5a6)">
     <use style="fill:#7f7f7f;stroke:#7f7f7f;" x="294.583266" xlink:href="#ma50481975b" y="218.263505"/>
    </g>
   </g>
   <g id="144I">
    <g clip-path="url(#p011cb9f5a6)">
     <use style="fill:#bcbd22;stroke:#bcbd22;" x="176.194836" xlink:href="#mbf956907ce" y="215.692124"/>
    </g>
   </g>
   <g id="90A">
    <g clip-path="url(#p011cb9f5a6)">
     <use style="fill:#17becf;stroke:#17becf;" x="288.712766" xlink:href="#m30a6ee85ee" y="214.123987"/>
    </g>
   </g>
   <g id="89A">
    <g clip-path="url(#p011cb9f5a6)">
     <use style="fill:#1f77b4;stroke:#1f77b4;" x="357.20194" xlink:href="#m2606b800dc" y="28.178867"/>
    </g>
   </g>
   <g id="144Q">
    <g clip-path="url(#p011cb9f5a6)">
     <use style="fill:#ff7f0e;stroke:#ff7f0e;" x="156.6265" xlink:href="#m4d5d747355" y="214.123987"/>
    </g>
   </g>
   <g id="82A">
    <g clip-path="url(#p011cb9f5a6)">
     <use style="fill:#2ca02c;stroke:#2ca02c;" x="427.647949" xlink:href="#m9a12234f13" y="215.541234"/>
    </g>
   </g>
   <g id="144P">
    <g clip-path="url(#p011cb9f5a6)">
     <use style="fill:#d62728;stroke:#d62728;" x="156.6265" xlink:href="#ma164f4b2f2" y="214.123987"/>
    </g>
   </g>
   <g id="144R">
    <g clip-path="url(#p011cb9f5a6)">
     <use style="fill:#9467bd;stroke:#9467bd;" x="156.6265" xlink:href="#m28230be1ef" y="214.123987"/>
    </g>
   </g>
   <g id="85A">
    <g clip-path="url(#p011cb9f5a6)">
     <use style="fill:#8c564b;stroke:#8c564b;" x="374.813442" xlink:href="#m081dd1946b" y="164.713505"/>
    </g>
   </g>
   <g id="144W">
    <g clip-path="url(#p011cb9f5a6)">
     <use style="fill:#e377c2;stroke:#e377c2;" x="108.684078" xlink:href="#m5247947552" y="214.123987"/>
    </g>
   </g>
   <g id="88A">
    <g clip-path="url(#p011cb9f5a6)">
     <use style="fill:#7f7f7f;stroke:#7f7f7f;" x="370.899775" xlink:href="#ma50481975b" y="117.225783"/>
    </g>
   </g>
   <g id="94A">
    <g clip-path="url(#p011cb9f5a6)">
     <use style="fill:#bcbd22;stroke:#bcbd22;" x="252.511345" xlink:href="#mbf956907ce" y="214.123987"/>
    </g>
   </g>
   <g id="144J">
    <g clip-path="url(#p011cb9f5a6)">
     <use style="fill:#17becf;stroke:#17becf;" x="186.95742" xlink:href="#m30a6ee85ee" y="214.123987"/>
    </g>
   </g>
   <g id="matplotlib.axis_1">
    <g id="xtick_1">
     <g id="line2d_1">
      <defs>
       <path d="M 0 0 
L 0 3.5 
" id="m7897a45599" style="stroke:#000000;stroke-width:0.8;"/>
      </defs>
      <g>
       <use style="stroke:#000000;stroke-width:0.8;" x="106.727244" xlink:href="#m7897a45599" y="303.64"/>
      </g>
     </g>
     <g id="text_1">
      <text style="font-family:DejaVu Sans;font-size:10px;font-style:normal;font-weight:normal;text-anchor:middle;" transform="rotate(-0, 106.727244, 318.238437)" x="106.727244" y="318.238437">50</text>
     </g>
    </g>
    <g id="xtick_2">
     <g id="line2d_2">
      <g>
       <use style="stroke:#000000;stroke-width:0.8;" x="155.648083" xlink:href="#m7897a45599" y="303.64"/>
      </g>
     </g>
     <g id="text_2">
      <text style="font-family:DejaVu Sans;font-size:10px;font-style:normal;font-weight:normal;text-anchor:middle;" transform="rotate(-0, 155.648083, 318.238437)" x="155.648083" y="318.238437">100</text>
     </g>
    </g>
    <g id="xtick_3">
     <g id="line2d_3">
      <g>
       <use style="stroke:#000000;stroke-width:0.8;" x="204.568922" xlink:href="#m7897a45599" y="303.64"/>
      </g>
     </g>
     <g id="text_3">
      <text style="font-family:DejaVu Sans;font-size:10px;font-style:normal;font-weight:normal;text-anchor:middle;" transform="rotate(-0, 204.568922, 318.238437)" x="204.568922" y="318.238437">150</text>
     </g>
    </g>
    <g id="xtick_4">
     <g id="line2d_4">
      <g>
       <use style="stroke:#000000;stroke-width:0.8;" x="253.489762" xlink:href="#m7897a45599" y="303.64"/>
      </g>
     </g>
     <g id="text_4">
      <text style="font-family:DejaVu Sans;font-size:10px;font-style:normal;font-weight:normal;text-anchor:middle;" transform="rotate(-0, 253.489762, 318.238437)" x="253.489762" y="318.238437">200</text>
     </g>
    </g>
    <g id="xtick_5">
     <g id="line2d_5">
      <g>
       <use style="stroke:#000000;stroke-width:0.8;" x="302.410601" xlink:href="#m7897a45599" y="303.64"/>
      </g>
     </g>
     <g id="text_5">
      <text style="font-family:DejaVu Sans;font-size:10px;font-style:normal;font-weight:normal;text-anchor:middle;" transform="rotate(-0, 302.410601, 318.238437)" x="302.410601" y="318.238437">250</text>
     </g>
    </g>
    <g id="xtick_6">
     <g id="line2d_6">
      <g>
       <use style="stroke:#000000;stroke-width:0.8;" x="351.33144" xlink:href="#m7897a45599" y="303.64"/>
      </g>
     </g>
     <g id="text_6">
      <text style="font-family:DejaVu Sans;font-size:10px;font-style:normal;font-weight:normal;text-anchor:middle;" transform="rotate(-0, 351.33144, 318.238437)" x="351.33144" y="318.238437">300</text>
     </g>
    </g>
    <g id="xtick_7">
     <g id="line2d_7">
      <g>
       <use style="stroke:#000000;stroke-width:0.8;" x="400.252279" xlink:href="#m7897a45599" y="303.64"/>
      </g>
     </g>
     <g id="text_7">
      <text style="font-family:DejaVu Sans;font-size:10px;font-style:normal;font-weight:normal;text-anchor:middle;" transform="rotate(-0, 400.252279, 318.238437)" x="400.252279" y="318.238437">350</text>
     </g>
    </g>
    <g id="text_8">
     <text style="font-family:DejaVu Sans;font-size:10px;font-style:normal;font-weight:normal;text-anchor:middle;" transform="rotate(-0, 254.935, 331.916562)" x="254.935" y="331.916562">Amount of languages tested</text>
    </g>
   </g>
   <g id="matplotlib.axis_2">
    <g id="ytick_1">
     <g id="line2d_8">
      <defs>
       <path d="M 0 0 
L -3.5 0 
" id="mf589668069" style="stroke:#000000;stroke-width:0.8;"/>
      </defs>
      <g>
       <use style="stroke:#000000;stroke-width:0.8;" x="62.39" xlink:href="#mf589668069" y="293.602741"/>
      </g>
     </g>
     <g id="text_9">
      <text style="font-family:DejaVu Sans;font-size:10px;font-style:normal;font-weight:normal;text-anchor:end;" transform="rotate(-0, 55.39, 297.40196)" x="55.39" y="297.40196">−0.10</text>
     </g>
    </g>
    <g id="ytick_2">
     <g id="line2d_9">
      <g>
       <use style="stroke:#000000;stroke-width:0.8;" x="62.39" xlink:href="#mf589668069" y="253.863364"/>
      </g>
     </g>
     <g id="text_10">
      <text style="font-family:DejaVu Sans;font-size:10px;font-style:normal;font-weight:normal;text-anchor:end;" transform="rotate(-0, 55.39, 257.662583)" x="55.39" y="257.662583">−0.05</text>
     </g>
    </g>
    <g id="ytick_3">
     <g id="line2d_10">
      <g>
       <use style="stroke:#000000;stroke-width:0.8;" x="62.39" xlink:href="#mf589668069" y="214.123987"/>
      </g>
     </g>
     <g id="text_11">
      <text style="font-family:DejaVu Sans;font-size:10px;font-style:normal;font-weight:normal;text-anchor:end;" transform="rotate(-0, 55.39, 217.923205)" x="55.39" y="217.923205">0.00</text>
     </g>
    </g>
    <g id="ytick_4">
     <g id="line2d_11">
      <g>
       <use style="stroke:#000000;stroke-width:0.8;" x="62.39" xlink:href="#mf589668069" y="174.384609"/>
      </g>
     </g>
     <g id="text_12">
      <text style="font-family:DejaVu Sans;font-size:10px;font-style:normal;font-weight:normal;text-anchor:end;" transform="rotate(-0, 55.39, 178.183828)" x="55.39" y="178.183828">0.05</text>
     </g>
    </g>
    <g id="ytick_5">
     <g id="line2d_12">
      <g>
       <use style="stroke:#000000;stroke-width:0.8;" x="62.39" xlink:href="#mf589668069" y="134.645232"/>
      </g>
     </g>
     <g id="text_13">
      <text style="font-family:DejaVu Sans;font-size:10px;font-style:normal;font-weight:normal;text-anchor:end;" transform="rotate(-0, 55.39, 138.444451)" x="55.39" y="138.444451">0.10</text>
     </g>
    </g>
    <g id="ytick_6">
     <g id="line2d_13">
      <g>
       <use style="stroke:#000000;stroke-width:0.8;" x="62.39" xlink:href="#mf589668069" y="94.905855"/>
      </g>
     </g>
     <g id="text_14">
      <text style="font-family:DejaVu Sans;font-size:10px;font-style:normal;font-weight:normal;text-anchor:end;" transform="rotate(-0, 55.39, 98.705074)" x="55.39" y="98.705074">0.15</text>
     </g>
    </g>
    <g id="ytick_7">
     <g id="line2d_14">
      <g>
       <use style="stroke:#000000;stroke-width:0.8;" x="62.39" xlink:href="#mf589668069" y="55.166478"/>
      </g>
     </g>
     <g id="text_15">
      <text style="font-family:DejaVu Sans;font-size:10px;font-style:normal;font-weight:normal;text-anchor:end;" transform="rotate(-0, 55.39, 58.965697)" x="55.39" y="58.965697">0.20</text>
     </g>
    </g>
    <g id="ytick_8">
     <g id="line2d_15">
      <g>
       <use style="stroke:#000000;stroke-width:0.8;" x="62.39" xlink:href="#mf589668069" y="15.427101"/>
      </g>
     </g>
     <g id="text_16">
      <text style="font-family:DejaVu Sans;font-size:10px;font-style:normal;font-weight:normal;text-anchor:end;" transform="rotate(-0, 55.39, 19.226319)" x="55.39" y="19.226319">0.25</text>
     </g>
    </g>
    <g id="text_17">
     <text style="font-family:DejaVu Sans;font-size:10px;font-style:normal;font-weight:normal;text-anchor:middle;" transform="rotate(-90, 18.665, 158.48)" x="18.665" y="158.48">Score - base</text>
    </g>
   </g>
   <g id="line2d_16">
    <path clip-path="url(#p011cb9f5a6)" d="M 81.288408 229.434189 
L 96.943077 227.312313 
L 108.684078 225.720906 
L 156.6265 219.222662 
L 176.194836 216.570318 
L 178.151669 216.305083 
L 186.95742 215.111528 
L 187.935837 214.978911 
L 188.914254 214.846294 
L 204.568922 212.724418 
L 220.223591 210.602542 
L 224.137258 210.072073 
L 248.597678 206.756643 
L 252.511345 206.226174 
L 288.712766 201.319336 
L 294.583266 200.523633 
L 300.453767 199.72793 
L 312.194768 198.136523 
L 357.20194 192.036131 
L 363.072441 191.240427 
L 366.007691 190.842575 
L 370.899775 190.179489 
L 374.813442 189.64902 
L 391.446528 187.394528 
L 392.424945 187.26191 
L 400.252279 186.200973 
L 406.122779 185.405269 
L 427.647949 182.48769 
L 429.604782 182.222456 
" style="fill:none;stroke:#1f77b4;stroke-linecap:square;stroke-width:1.5;"/>
   </g>
   <g id="patch_3">
    <path d="M 62.39 303.64 
L 62.39 13.32 
" style="fill:none;stroke:#000000;stroke-linecap:square;stroke-linejoin:miter;stroke-width:0.8;"/>
   </g>
   <g id="patch_4">
    <path d="M 447.48 303.64 
L 447.48 13.32 
" style="fill:none;stroke:#000000;stroke-linecap:square;stroke-linejoin:miter;stroke-width:0.8;"/>
   </g>
   <g id="patch_5">
    <path d="M 62.39 303.64 
L 447.48 303.64 
" style="fill:none;stroke:#000000;stroke-linecap:square;stroke-linejoin:miter;stroke-width:0.8;"/>
   </g>
   <g id="patch_6">
    <path d="M 62.39 13.32 
L 447.48 13.32 
" style="fill:none;stroke:#000000;stroke-linecap:square;stroke-linejoin:miter;stroke-width:0.8;"/>
   </g>
  </g>
 </g>
 <defs>
  <clipPath id="p011cb9f5a6">
   <rect height="290.32" width="385.09" x="62.39" y="13.32"/>
  </clipPath>
 </defs>
</svg>
