<?xml version="1.0" encoding="utf-8" standalone="no"?>
<!DOCTYPE svg PUBLIC "-//W3C//DTD SVG 1.1//EN"
  "http://www.w3.org/Graphics/SVG/1.1/DTD/svg11.dtd">
<!-- Created with matplotlib (http://matplotlib.org/) -->
<svg height="345.6pt" version="1.1" viewBox="0 0 460.8 345.6" width="460.8pt" xmlns="http://www.w3.org/2000/svg" xmlns:xlink="http://www.w3.org/1999/xlink">
 <defs>
  <style type="text/css">
*{stroke-linecap:butt;stroke-linejoin:round;}
  </style>
 </defs>
 <g id="figure_1">
  <g id="patch_1">
   <path d="M 0 345.6 
L 460.8 345.6 
L 460.8 0 
L 0 0 
z
" style="fill:#ffffff;"/>
  </g>
  <g id="axes_1">
   <g id="patch_2">
    <path d="M 57.6 307.584 
L 414.72 307.584 
L 414.72 41.472 
L 57.6 41.472 
z
" style="fill:#ffffff;"/>
   </g>
   <g id="85A">
    <defs>
     <path d="M 0 3 
C 0.795609 3 1.55874 2.683901 2.12132 2.12132 
C 2.683901 1.55874 3 0.795609 3 0 
C 3 -0.795609 2.683901 -1.55874 2.12132 -2.12132 
C 1.55874 -2.683901 0.795609 -3 0 -3 
C -0.795609 -3 -1.55874 -2.683901 -2.12132 -2.12132 
C -2.683901 -1.55874 -3 -0.795609 -3 0 
C -3 0.795609 -2.683901 1.55874 -2.12132 2.12132 
C -1.55874 2.683901 -0.795609 3 0 3 
z
" id="mbb9afbe581" style="stroke:#1f77b4;"/>
    </defs>
    <g clip-path="url(#p69249578cf)">
     <use style="fill:#1f77b4;stroke:#1f77b4;" x="346.036412" xlink:href="#mbb9afbe581" y="134.399229"/>
    </g>
   </g>
   <g id="143F">
    <defs>
     <path d="M 0 3 
C 0.795609 3 1.55874 2.683901 2.12132 2.12132 
C 2.683901 1.55874 3 0.795609 3 0 
C 3 -0.795609 2.683901 -1.55874 2.12132 -2.12132 
C 1.55874 -2.683901 0.795609 -3 0 -3 
C -0.795609 -3 -1.55874 -2.683901 -2.12132 -2.12132 
C -2.683901 -1.55874 -3 -0.795609 -3 0 
C -3 0.795609 -2.683901 1.55874 -2.12132 2.12132 
C -1.55874 2.683901 -0.795609 3 0 3 
z
" id="m453fbbc931" style="stroke:#ff7f0e;"/>
    </defs>
    <g clip-path="url(#p69249578cf)">
     <use style="fill:#ff7f0e;stroke:#ff7f0e;" x="362.259284" xlink:href="#m453fbbc931" y="193.744506"/>
    </g>
   </g>
   <g id="96A">
    <defs>
     <path d="M 0 3 
C 0.795609 3 1.55874 2.683901 2.12132 2.12132 
C 2.683901 1.55874 3 0.795609 3 0 
C 3 -0.795609 2.683901 -1.55874 2.12132 -2.12132 
C 1.55874 -2.683901 0.795609 -3 0 -3 
C -0.795609 -3 -1.55874 -2.683901 -2.12132 -2.12132 
C -2.683901 -1.55874 -3 -0.795609 -3 0 
C -3 0.795609 -2.683901 1.55874 -2.12132 2.12132 
C -1.55874 2.683901 -0.795609 3 0 3 
z
" id="m5b9867fa27" style="stroke:#2ca02c;"/>
    </defs>
    <g clip-path="url(#p69249578cf)">
     <use style="fill:#2ca02c;stroke:#2ca02c;" x="272.132221" xlink:href="#m5b9867fa27" y="172.036296"/>
    </g>
   </g>
   <g id="144X">
    <defs>
     <path d="M 0 3 
C 0.795609 3 1.55874 2.683901 2.12132 2.12132 
C 2.683901 1.55874 3 0.795609 3 0 
C 3 -0.795609 2.683901 -1.55874 2.12132 -2.12132 
C 1.55874 -2.683901 0.795609 -3 0 -3 
C -0.795609 -3 -1.55874 -2.683901 -2.12132 -2.12132 
C -2.683901 -1.55874 -3 -0.795609 -3 0 
C -3 0.795609 -2.683901 1.55874 -2.12132 2.12132 
C -1.55874 2.683901 -0.795609 3 0 3 
z
" id="mb7ecb6c7f3" style="stroke:#d62728;"/>
    </defs>
    <g clip-path="url(#p69249578cf)">
     <use style="fill:#d62728;stroke:#d62728;" x="100.890801" xlink:href="#mb7ecb6c7f3" y="170.554239"/>
    </g>
   </g>
   <g id="144K">
    <defs>
     <path d="M 0 3 
C 0.795609 3 1.55874 2.683901 2.12132 2.12132 
C 2.683901 1.55874 3 0.795609 3 0 
C 3 -0.795609 2.683901 -1.55874 2.12132 -2.12132 
C 1.55874 -2.683901 0.795609 -3 0 -3 
C -0.795609 -3 -1.55874 -2.683901 -2.12132 -2.12132 
C -2.683901 -1.55874 -3 -0.795609 -3 0 
C -3 0.795609 -2.683901 1.55874 -2.12132 2.12132 
C -1.55874 2.683901 -0.795609 3 0 3 
z
" id="m62ad8781c1" style="stroke:#9467bd;"/>
    </defs>
    <g clip-path="url(#p69249578cf)">
     <use style="fill:#9467bd;stroke:#9467bd;" x="172.992452" xlink:href="#m62ad8781c1" y="170.554239"/>
    </g>
   </g>
   <g id="90B">
    <defs>
     <path d="M 0 3 
C 0.795609 3 1.55874 2.683901 2.12132 2.12132 
C 2.683901 1.55874 3 0.795609 3 0 
C 3 -0.795609 2.683901 -1.55874 2.12132 -2.12132 
C 1.55874 -2.683901 0.795609 -3 0 -3 
C -0.795609 -3 -1.55874 -2.683901 -2.12132 -2.12132 
C -2.683901 -1.55874 -3 -0.795609 -3 0 
C -3 0.795609 -2.683901 1.55874 -2.12132 2.12132 
C -1.55874 2.683901 -0.795609 3 0 3 
z
" id="m3b6a304704" style="stroke:#8c564b;"/>
    </defs>
    <g clip-path="url(#p69249578cf)">
     <use style="fill:#8c564b;stroke:#8c564b;" x="90.075554" xlink:href="#m3b6a304704" y="170.554239"/>
    </g>
   </g>
   <g id="143B">
    <defs>
     <path d="M 0 3 
C 0.795609 3 1.55874 2.683901 2.12132 2.12132 
C 2.683901 1.55874 3 0.795609 3 0 
C 3 -0.795609 2.683901 -1.55874 2.12132 -2.12132 
C 1.55874 -2.683901 0.795609 -3 0 -3 
C -0.795609 -3 -1.55874 -2.683901 -2.12132 -2.12132 
C -2.683901 -1.55874 -3 -0.795609 -3 0 
C -3 0.795609 -2.683901 1.55874 -2.12132 2.12132 
C -1.55874 2.683901 -0.795609 3 0 3 
z
" id="m1df58f5a7f" style="stroke:#e377c2;"/>
    </defs>
    <g clip-path="url(#p69249578cf)">
     <use style="fill:#e377c2;stroke:#e377c2;" x="75.655224" xlink:href="#m1df58f5a7f" y="170.554239"/>
    </g>
   </g>
   <g id="144A">
    <defs>
     <path d="M 0 3 
C 0.795609 3 1.55874 2.683901 2.12132 2.12132 
C 2.683901 1.55874 3 0.795609 3 0 
C 3 -0.795609 2.683901 -1.55874 2.12132 -2.12132 
C 1.55874 -2.683901 0.795609 -3 0 -3 
C -0.795609 -3 -1.55874 -2.683901 -2.12132 -2.12132 
C -2.683901 -1.55874 -3 -0.795609 -3 0 
C -3 0.795609 -2.683901 1.55874 -2.12132 2.12132 
C -1.55874 2.683901 -0.795609 3 0 3 
z
" id="m2ccf1d9737" style="stroke:#7f7f7f;"/>
    </defs>
    <g clip-path="url(#p69249578cf)">
     <use style="fill:#7f7f7f;stroke:#7f7f7f;" x="335.221165" xlink:href="#m2ccf1d9737" y="176.664931"/>
    </g>
   </g>
   <g id="89A">
    <defs>
     <path d="M 0 3 
C 0.795609 3 1.55874 2.683901 2.12132 2.12132 
C 2.683901 1.55874 3 0.795609 3 0 
C 3 -0.795609 2.683901 -1.55874 2.12132 -2.12132 
C 1.55874 -2.683901 0.795609 -3 0 -3 
C -0.795609 -3 -1.55874 -2.683901 -2.12132 -2.12132 
C -2.683901 -1.55874 -3 -0.795609 -3 0 
C -3 0.795609 -2.683901 1.55874 -2.12132 2.12132 
C -1.55874 2.683901 -0.795609 3 0 3 
z
" id="m1542c37c27" style="stroke:#bcbd22;"/>
    </defs>
    <g clip-path="url(#p69249578cf)">
     <use style="fill:#bcbd22;stroke:#bcbd22;" x="329.813541" xlink:href="#m1542c37c27" y="86.192594"/>
    </g>
   </g>
   <g id="87A">
    <defs>
     <path d="M 0 3 
C 0.795609 3 1.55874 2.683901 2.12132 2.12132 
C 2.683901 1.55874 3 0.795609 3 0 
C 3 -0.795609 2.683901 -1.55874 2.12132 -2.12132 
C 1.55874 -2.683901 0.795609 -3 0 -3 
C -0.795609 -3 -1.55874 -2.683901 -2.12132 -2.12132 
C -2.683901 -1.55874 -3 -0.795609 -3 0 
C -3 0.795609 -2.683901 1.55874 -2.12132 2.12132 
C -1.55874 2.683901 -0.795609 3 0 3 
z
" id="m14e2c57d1b" style="stroke:#17becf;"/>
    </defs>
    <g clip-path="url(#p69249578cf)">
     <use style="fill:#17becf;stroke:#17becf;" x="369.469449" xlink:href="#m14e2c57d1b" y="164.074704"/>
    </g>
   </g>
   <g id="144I">
    <g clip-path="url(#p69249578cf)">
     <use style="fill:#1f77b4;stroke:#1f77b4;" x="163.078475" xlink:href="#mbb9afbe581" y="169.957271"/>
    </g>
   </g>
   <g id="91A">
    <g clip-path="url(#p69249578cf)">
     <use style="fill:#ff7f0e;stroke:#ff7f0e;" x="207.240736" xlink:href="#m453fbbc931" y="54.534127"/>
    </g>
   </g>
   <g id="143E">
    <g clip-path="url(#p69249578cf)">
     <use style="fill:#2ca02c;stroke:#2ca02c;" x="362.259284" xlink:href="#m5b9867fa27" y="161.19409"/>
    </g>
   </g>
   <g id="93A">
    <g clip-path="url(#p69249578cf)">
     <use style="fill:#d62728;stroke:#d62728;" x="288.355092" xlink:href="#mb7ecb6c7f3" y="183.367858"/>
    </g>
   </g>
   <g id="144P">
    <g clip-path="url(#p69249578cf)">
     <use style="fill:#9467bd;stroke:#9467bd;" x="145.053062" xlink:href="#m62ad8781c1" y="170.554239"/>
    </g>
   </g>
   <g id="144L">
    <g clip-path="url(#p69249578cf)">
     <use style="fill:#8c564b;stroke:#8c564b;" x="173.893722" xlink:href="#m3b6a304704" y="202.555985"/>
    </g>
   </g>
   <g id="83A">
    <g clip-path="url(#p69249578cf)">
     <use style="fill:#e377c2;stroke:#e377c2;" x="396.507568" xlink:href="#m1df58f5a7f" y="143.468187"/>
    </g>
   </g>
   <g id="144W">
    <g clip-path="url(#p69249578cf)">
     <use style="fill:#7f7f7f;stroke:#7f7f7f;" x="100.890801" xlink:href="#m2ccf1d9737" y="170.554239"/>
    </g>
   </g>
   <g id="95A">
    <g clip-path="url(#p69249578cf)">
     <use style="fill:#bcbd22;stroke:#bcbd22;" x="337.924977" xlink:href="#m1542c37c27" y="147.885762"/>
    </g>
   </g>
   <g id="144Q">
    <g clip-path="url(#p69249578cf)">
     <use style="fill:#17becf;stroke:#17becf;" x="145.053062" xlink:href="#m14e2c57d1b" y="170.554239"/>
    </g>
   </g>
   <g id="144J">
    <g clip-path="url(#p69249578cf)">
     <use style="fill:#1f77b4;stroke:#1f77b4;" x="172.992452" xlink:href="#mbb9afbe581" y="170.554239"/>
    </g>
   </g>
   <g id="144R">
    <g clip-path="url(#p69249578cf)">
     <use style="fill:#ff7f0e;stroke:#ff7f0e;" x="145.053062" xlink:href="#m453fbbc931" y="170.554239"/>
    </g>
   </g>
   <g id="92A">
    <g clip-path="url(#p69249578cf)">
     <use style="fill:#2ca02c;stroke:#2ca02c;" x="277.539845" xlink:href="#m5b9867fa27" y="180.336138"/>
    </g>
   </g>
   <g id="94A">
    <g clip-path="url(#p69249578cf)">
     <use style="fill:#d62728;stroke:#d62728;" x="233.377584" xlink:href="#mb7ecb6c7f3" y="170.554239"/>
    </g>
   </g>
   <g id="81A">
    <g clip-path="url(#p69249578cf)">
     <use style="fill:#9467bd;stroke:#9467bd;" x="374.877072" xlink:href="#m62ad8781c1" y="157.675407"/>
    </g>
   </g>
   <g id="144S">
    <g clip-path="url(#p69249578cf)">
     <use style="fill:#8c564b;stroke:#8c564b;" x="164.881016" xlink:href="#m3b6a304704" y="294.146569"/>
    </g>
   </g>
   <g id="84A">
    <g clip-path="url(#p69249578cf)">
     <use style="fill:#e377c2;stroke:#e377c2;" x="189.215323" xlink:href="#m1df58f5a7f" y="170.554239"/>
    </g>
   </g>
   <g id="144V">
    <g clip-path="url(#p69249578cf)">
     <use style="fill:#7f7f7f;stroke:#7f7f7f;" x="100.890801" xlink:href="#m2ccf1d9737" y="170.554239"/>
    </g>
   </g>
   <g id="97A">
    <g clip-path="url(#p69249578cf)">
     <use style="fill:#bcbd22;stroke:#bcbd22;" x="361.358013" xlink:href="#m1542c37c27" y="170.375922"/>
    </g>
   </g>
   <g id="90A">
    <g clip-path="url(#p69249578cf)">
     <use style="fill:#17becf;stroke:#17becf;" x="266.724597" xlink:href="#m14e2c57d1b" y="170.554239"/>
    </g>
   </g>
   <g id="88A">
    <g clip-path="url(#p69249578cf)">
     <use style="fill:#1f77b4;stroke:#1f77b4;" x="342.43133" xlink:href="#mbb9afbe581" y="75.273869"/>
    </g>
   </g>
   <g id="86A">
    <g clip-path="url(#p69249578cf)">
     <use style="fill:#ff7f0e;stroke:#ff7f0e;" x="361.358013" xlink:href="#m453fbbc931" y="82.017483"/>
    </g>
   </g>
   <g id="144D">
    <g clip-path="url(#p69249578cf)">
     <use style="fill:#2ca02c;stroke:#2ca02c;" x="174.794993" xlink:href="#m5b9867fa27" y="179.10278"/>
    </g>
   </g>
   <g id="144T">
    <g clip-path="url(#p69249578cf)">
     <use style="fill:#d62728;stroke:#d62728;" x="100.890801" xlink:href="#mb7ecb6c7f3" y="170.554239"/>
    </g>
   </g>
   <g id="143G">
    <g clip-path="url(#p69249578cf)">
     <use style="fill:#9467bd;stroke:#9467bd;" x="362.259284" xlink:href="#m62ad8781c1" y="170.554239"/>
    </g>
   </g>
   <g id="82A">
    <g clip-path="url(#p69249578cf)">
     <use style="fill:#8c564b;stroke:#8c564b;" x="394.705026" xlink:href="#m3b6a304704" y="171.391166"/>
    </g>
   </g>
   <g id="144H">
    <g clip-path="url(#p69249578cf)">
     <use style="fill:#e377c2;stroke:#e377c2;" x="163.078475" xlink:href="#m1df58f5a7f" y="170.554239"/>
    </g>
   </g>
   <g id="143A">
    <g clip-path="url(#p69249578cf)">
     <use style="fill:#7f7f7f;stroke:#7f7f7f;" x="362.259284" xlink:href="#m2ccf1d9737" y="164.696861"/>
    </g>
   </g>
   <g id="144B">
    <g clip-path="url(#p69249578cf)">
     <use style="fill:#bcbd22;stroke:#bcbd22;" x="203.635653" xlink:href="#m1542c37c27" y="170.554239"/>
    </g>
   </g>
   <g id="90C">
    <g clip-path="url(#p69249578cf)">
     <use style="fill:#17becf;stroke:#17becf;" x="229.772501" xlink:href="#m14e2c57d1b" y="170.554239"/>
    </g>
   </g>
   <g id="matplotlib.axis_1">
    <g id="xtick_1">
     <g id="line2d_1">
      <defs>
       <path d="M 0 0 
L 0 3.5 
" id="md0cb4d05bb" style="stroke:#000000;stroke-width:0.8;"/>
      </defs>
      <g>
       <use style="stroke:#000000;stroke-width:0.8;" x="99.08826" xlink:href="#md0cb4d05bb" y="307.584"/>
      </g>
     </g>
     <g id="text_1">
      <text style="font-family:DejaVu Sans;font-size:10px;font-style:normal;font-weight:normal;text-anchor:middle;" transform="rotate(-0, 99.08826, 322.182437)" x="99.08826" y="322.182437">50</text>
     </g>
    </g>
    <g id="xtick_2">
     <g id="line2d_2">
      <g>
       <use style="stroke:#000000;stroke-width:0.8;" x="144.151792" xlink:href="#md0cb4d05bb" y="307.584"/>
      </g>
     </g>
     <g id="text_2">
      <text style="font-family:DejaVu Sans;font-size:10px;font-style:normal;font-weight:normal;text-anchor:middle;" transform="rotate(-0, 144.151792, 322.182437)" x="144.151792" y="322.182437">100</text>
     </g>
    </g>
    <g id="xtick_3">
     <g id="line2d_3">
      <g>
       <use style="stroke:#000000;stroke-width:0.8;" x="189.215323" xlink:href="#md0cb4d05bb" y="307.584"/>
      </g>
     </g>
     <g id="text_3">
      <text style="font-family:DejaVu Sans;font-size:10px;font-style:normal;font-weight:normal;text-anchor:middle;" transform="rotate(-0, 189.215323, 322.182437)" x="189.215323" y="322.182437">150</text>
     </g>
    </g>
    <g id="xtick_4">
     <g id="line2d_4">
      <g>
       <use style="stroke:#000000;stroke-width:0.8;" x="234.278854" xlink:href="#md0cb4d05bb" y="307.584"/>
      </g>
     </g>
     <g id="text_4">
      <text style="font-family:DejaVu Sans;font-size:10px;font-style:normal;font-weight:normal;text-anchor:middle;" transform="rotate(-0, 234.278854, 322.182437)" x="234.278854" y="322.182437">200</text>
     </g>
    </g>
    <g id="xtick_5">
     <g id="line2d_5">
      <g>
       <use style="stroke:#000000;stroke-width:0.8;" x="279.342386" xlink:href="#md0cb4d05bb" y="307.584"/>
      </g>
     </g>
     <g id="text_5">
      <text style="font-family:DejaVu Sans;font-size:10px;font-style:normal;font-weight:normal;text-anchor:middle;" transform="rotate(-0, 279.342386, 322.182437)" x="279.342386" y="322.182437">250</text>
     </g>
    </g>
    <g id="xtick_6">
     <g id="line2d_6">
      <g>
       <use style="stroke:#000000;stroke-width:0.8;" x="324.405917" xlink:href="#md0cb4d05bb" y="307.584"/>
      </g>
     </g>
     <g id="text_6">
      <text style="font-family:DejaVu Sans;font-size:10px;font-style:normal;font-weight:normal;text-anchor:middle;" transform="rotate(-0, 324.405917, 322.182437)" x="324.405917" y="322.182437">300</text>
     </g>
    </g>
    <g id="xtick_7">
     <g id="line2d_7">
      <g>
       <use style="stroke:#000000;stroke-width:0.8;" x="369.469449" xlink:href="#md0cb4d05bb" y="307.584"/>
      </g>
     </g>
     <g id="text_7">
      <text style="font-family:DejaVu Sans;font-size:10px;font-style:normal;font-weight:normal;text-anchor:middle;" transform="rotate(-0, 369.469449, 322.182437)" x="369.469449" y="322.182437">350</text>
     </g>
    </g>
    <g id="xtick_8">
     <g id="line2d_8">
      <g>
       <use style="stroke:#000000;stroke-width:0.8;" x="414.53298" xlink:href="#md0cb4d05bb" y="307.584"/>
      </g>
     </g>
     <g id="text_8">
      <text style="font-family:DejaVu Sans;font-size:10px;font-style:normal;font-weight:normal;text-anchor:middle;" transform="rotate(-0, 414.53298, 322.182437)" x="414.53298" y="322.182437">400</text>
     </g>
    </g>
    <g id="text_9">
     <text style="font-family:DejaVu Sans;font-size:10px;font-style:normal;font-weight:normal;text-anchor:middle;" transform="rotate(-0, 236.16, 335.860562)" x="236.16" y="335.860562">Amount of languages tested</text>
    </g>
   </g>
   <g id="matplotlib.axis_2">
    <g id="ytick_1">
     <g id="line2d_9">
      <defs>
       <path d="M 0 0 
L -3.5 0 
" id="m4560d0be76" style="stroke:#000000;stroke-width:0.8;"/>
      </defs>
      <g>
       <use style="stroke:#000000;stroke-width:0.8;" x="57.6" xlink:href="#m4560d0be76" y="284.376202"/>
      </g>
     </g>
     <g id="text_10">
      <text style="font-family:DejaVu Sans;font-size:10px;font-style:normal;font-weight:normal;text-anchor:end;" transform="rotate(-0, 50.6, 288.175421)" x="50.6" y="288.175421">−0.2</text>
     </g>
    </g>
    <g id="ytick_2">
     <g id="line2d_10">
      <g>
       <use style="stroke:#000000;stroke-width:0.8;" x="57.6" xlink:href="#m4560d0be76" y="227.465221"/>
      </g>
     </g>
     <g id="text_11">
      <text style="font-family:DejaVu Sans;font-size:10px;font-style:normal;font-weight:normal;text-anchor:end;" transform="rotate(-0, 50.6, 231.26444)" x="50.6" y="231.26444">−0.1</text>
     </g>
    </g>
    <g id="ytick_3">
     <g id="line2d_11">
      <g>
       <use style="stroke:#000000;stroke-width:0.8;" x="57.6" xlink:href="#m4560d0be76" y="170.554239"/>
      </g>
     </g>
     <g id="text_12">
      <text style="font-family:DejaVu Sans;font-size:10px;font-style:normal;font-weight:normal;text-anchor:end;" transform="rotate(-0, 50.6, 174.353458)" x="50.6" y="174.353458">0.0</text>
     </g>
    </g>
    <g id="ytick_4">
     <g id="line2d_12">
      <g>
       <use style="stroke:#000000;stroke-width:0.8;" x="57.6" xlink:href="#m4560d0be76" y="113.643258"/>
      </g>
     </g>
     <g id="text_13">
      <text style="font-family:DejaVu Sans;font-size:10px;font-style:normal;font-weight:normal;text-anchor:end;" transform="rotate(-0, 50.6, 117.442477)" x="50.6" y="117.442477">0.1</text>
     </g>
    </g>
    <g id="ytick_5">
     <g id="line2d_13">
      <g>
       <use style="stroke:#000000;stroke-width:0.8;" x="57.6" xlink:href="#m4560d0be76" y="56.732276"/>
      </g>
     </g>
     <g id="text_14">
      <text style="font-family:DejaVu Sans;font-size:10px;font-style:normal;font-weight:normal;text-anchor:end;" transform="rotate(-0, 50.6, 60.531495)" x="50.6" y="60.531495">0.2</text>
     </g>
    </g>
    <g id="text_15">
     <text style="font-family:DejaVu Sans;font-size:10px;font-style:normal;font-weight:normal;text-anchor:middle;" transform="rotate(-90, 20.2375, 174.528)" x="20.2375" y="174.528">Score minus base</text>
    </g>
   </g>
   <g id="line2d_14">
    <path clip-path="url(#p69249578cf)" d="M 75.655224 181.495127 
L 90.075554 179.942396 
L 100.890801 178.777848 
L 145.053062 174.02261 
L 163.078475 172.081697 
L 164.881016 171.887606 
L 172.992452 171.014195 
L 173.893722 170.917149 
L 174.794993 170.820104 
L 189.215323 169.267373 
L 203.635653 167.714642 
L 207.240736 167.32646 
L 229.772501 164.900318 
L 233.377584 164.512135 
L 266.724597 160.921446 
L 272.132221 160.339172 
L 277.539845 159.756898 
L 288.355092 158.59235 
L 329.813541 154.128249 
L 335.221165 153.545975 
L 337.924977 153.254838 
L 342.43133 152.76961 
L 346.036412 152.381427 
L 361.358013 150.731651 
L 362.259284 150.634605 
L 369.469449 149.85824 
L 374.877072 149.275966 
L 394.705026 147.140961 
L 396.507568 146.94687 
" style="fill:none;stroke:#1f77b4;stroke-linecap:square;stroke-width:1.5;"/>
   </g>
   <g id="patch_3">
    <path d="M 57.6 307.584 
L 57.6 41.472 
" style="fill:none;stroke:#000000;stroke-linecap:square;stroke-linejoin:miter;stroke-width:0.8;"/>
   </g>
   <g id="patch_4">
    <path d="M 414.72 307.584 
L 414.72 41.472 
" style="fill:none;stroke:#000000;stroke-linecap:square;stroke-linejoin:miter;stroke-width:0.8;"/>
   </g>
   <g id="patch_5">
    <path d="M 57.6 307.584 
L 414.72 307.584 
" style="fill:none;stroke:#000000;stroke-linecap:square;stroke-linejoin:miter;stroke-width:0.8;"/>
   </g>
   <g id="patch_6">
    <path d="M 57.6 41.472 
L 414.72 41.472 
" style="fill:none;stroke:#000000;stroke-linecap:square;stroke-linejoin:miter;stroke-width:0.8;"/>
   </g>
   <g id="text_16">
    <text style="font-family:DejaVu Sans;font-size:12px;font-style:normal;font-weight:normal;text-anchor:middle;" transform="rotate(-0, 236.16, 35.472)" x="236.16" y="35.472">Amount of languages in features vs. score in Word Order</text>
   </g>
  </g>
 </g>
 <defs>
  <clipPath id="p69249578cf">
   <rect height="266.112" width="357.12" x="57.6" y="41.472"/>
  </clipPath>
 </defs>
</svg>
