<?xml version="1.0" encoding="utf-8" standalone="no"?>
<!DOCTYPE svg PUBLIC "-//W3C//DTD SVG 1.1//EN"
  "http://www.w3.org/Graphics/SVG/1.1/DTD/svg11.dtd">
<!-- Created with matplotlib (http://matplotlib.org/) -->
<svg height="345.6pt" version="1.1" viewBox="0 0 460.8 345.6" width="460.8pt" xmlns="http://www.w3.org/2000/svg" xmlns:xlink="http://www.w3.org/1999/xlink">
 <defs>
  <style type="text/css">
*{stroke-linecap:butt;stroke-linejoin:round;}
  </style>
 </defs>
 <g id="figure_1">
  <g id="patch_1">
   <path d="M 0 345.6 
L 460.8 345.6 
L 460.8 0 
L 0 0 
z
" style="fill:#ffffff;"/>
  </g>
  <g id="axes_1">
   <g id="patch_2">
    <path d="M 62.48 303.64 
L 447.48 303.64 
L 447.48 13.32 
L 62.48 13.32 
z
" style="fill:#ffffff;"/>
   </g>
   <g id="81A">
    <defs>
     <path d="M 0 3 
C 0.795609 3 1.55874 2.683901 2.12132 2.12132 
C 2.683901 1.55874 3 0.795609 3 0 
C 3 -0.795609 2.683901 -1.55874 2.12132 -2.12132 
C 1.55874 -2.683901 0.795609 -3 0 -3 
C -0.795609 -3 -1.55874 -2.683901 -2.12132 -2.12132 
C -2.683901 -1.55874 -3 -0.795609 -3 0 
C -3 0.795609 -2.683901 1.55874 -2.12132 2.12132 
C -1.55874 2.683901 -0.795609 3 0 3 
z
" id="mb6e18db7f9" style="stroke:#1f77b4;"/>
    </defs>
    <g clip-path="url(#pa29e237c31)">
     <use style="fill:#1f77b4;stroke:#1f77b4;" x="407.354722" xlink:href="#mb6e18db7f9" y="144.715244"/>
    </g>
   </g>
   <g id="82A">
    <defs>
     <path d="M 0 3 
C 0.795609 3 1.55874 2.683901 2.12132 2.12132 
C 2.683901 1.55874 3 0.795609 3 0 
C 3 -0.795609 2.683901 -1.55874 2.12132 -2.12132 
C 1.55874 -2.683901 0.795609 -3 0 -3 
C -0.795609 -3 -1.55874 -2.683901 -2.12132 -2.12132 
C -2.683901 -1.55874 -3 -0.795609 -3 0 
C -3 0.795609 -2.683901 1.55874 -2.12132 2.12132 
C -1.55874 2.683901 -0.795609 3 0 3 
z
" id="mf7ea3d8e47" style="stroke:#ff7f0e;"/>
    </defs>
    <g clip-path="url(#pa29e237c31)">
     <use style="fill:#ff7f0e;stroke:#ff7f0e;" x="427.968804" xlink:href="#mf7ea3d8e47" y="143.646247"/>
    </g>
   </g>
   <g id="83A">
    <defs>
     <path d="M 0 3 
C 0.795609 3 1.55874 2.683901 2.12132 2.12132 
C 2.683901 1.55874 3 0.795609 3 0 
C 3 -0.795609 2.683901 -1.55874 2.12132 -2.12132 
C 1.55874 -2.683901 0.795609 -3 0 -3 
C -0.795609 -3 -1.55874 -2.683901 -2.12132 -2.12132 
C -2.683901 -1.55874 -3 -0.795609 -3 0 
C -3 0.795609 -2.683901 1.55874 -2.12132 2.12132 
C -1.55874 2.683901 -0.795609 3 0 3 
z
" id="m93446878f3" style="stroke:#2ca02c;"/>
    </defs>
    <g clip-path="url(#pa29e237c31)">
     <use style="fill:#2ca02c;stroke:#2ca02c;" x="429.842812" xlink:href="#m93446878f3" y="85.286759"/>
    </g>
   </g>
   <g id="84A">
    <defs>
     <path d="M 0 3 
C 0.795609 3 1.55874 2.683901 2.12132 2.12132 
C 2.683901 1.55874 3 0.795609 3 0 
C 3 -0.795609 2.683901 -1.55874 2.12132 -2.12132 
C 1.55874 -2.683901 0.795609 -3 0 -3 
C -0.795609 -3 -1.55874 -2.683901 -2.12132 -2.12132 
C -2.683901 -1.55874 -3 -0.795609 -3 0 
C -3 0.795609 -2.683901 1.55874 -2.12132 2.12132 
C -1.55874 2.683901 -0.795609 3 0 3 
z
" id="m873309567f" style="stroke:#d62728;"/>
    </defs>
    <g clip-path="url(#pa29e237c31)">
     <use style="fill:#d62728;stroke:#d62728;" x="214.331951" xlink:href="#m873309567f" y="134.504469"/>
    </g>
   </g>
   <g id="85A">
    <defs>
     <path d="M 0 3 
C 0.795609 3 1.55874 2.683901 2.12132 2.12132 
C 2.683901 1.55874 3 0.795609 3 0 
C 3 -0.795609 2.683901 -1.55874 2.12132 -2.12132 
C 1.55874 -2.683901 0.795609 -3 0 -3 
C -0.795609 -3 -1.55874 -2.683901 -2.12132 -2.12132 
C -2.683901 -1.55874 -3 -0.795609 -3 0 
C -3 0.795609 -2.683901 1.55874 -2.12132 2.12132 
C -1.55874 2.683901 -0.795609 3 0 3 
z
" id="m8af6a51f9a" style="stroke:#9467bd;"/>
    </defs>
    <g clip-path="url(#pa29e237c31)">
     <use style="fill:#9467bd;stroke:#9467bd;" x="377.370602" xlink:href="#m8af6a51f9a" y="78.969928"/>
    </g>
   </g>
   <g id="86A">
    <defs>
     <path d="M 0 3 
C 0.795609 3 1.55874 2.683901 2.12132 2.12132 
C 2.683901 1.55874 3 0.795609 3 0 
C 3 -0.795609 2.683901 -1.55874 2.12132 -2.12132 
C 1.55874 -2.683901 0.795609 -3 0 -3 
C -0.795609 -3 -1.55874 -2.683901 -2.12132 -2.12132 
C -2.683901 -1.55874 -3 -0.795609 -3 0 
C -3 0.795609 -2.683901 1.55874 -2.12132 2.12132 
C -1.55874 2.683901 -0.795609 3 0 3 
z
" id="m9c043127c3" style="stroke:#8c564b;"/>
    </defs>
    <g clip-path="url(#pa29e237c31)">
     <use style="fill:#8c564b;stroke:#8c564b;" x="393.299666" xlink:href="#m9c043127c3" y="39.745861"/>
    </g>
   </g>
   <g id="87A">
    <defs>
     <path d="M 0 3 
C 0.795609 3 1.55874 2.683901 2.12132 2.12132 
C 2.683901 1.55874 3 0.795609 3 0 
C 3 -0.795609 2.683901 -1.55874 2.12132 -2.12132 
C 1.55874 -2.683901 0.795609 -3 0 -3 
C -0.795609 -3 -1.55874 -2.683901 -2.12132 -2.12132 
C -2.683901 -1.55874 -3 -0.795609 -3 0 
C -3 0.795609 -2.683901 1.55874 -2.12132 2.12132 
C -1.55874 2.683901 -0.795609 3 0 3 
z
" id="m0eb6f9a499" style="stroke:#e377c2;"/>
    </defs>
    <g clip-path="url(#pa29e237c31)">
     <use style="fill:#e377c2;stroke:#e377c2;" x="401.732699" xlink:href="#m0eb6f9a499" y="126.71279"/>
    </g>
   </g>
   <g id="88A">
    <defs>
     <path d="M 0 3 
C 0.795609 3 1.55874 2.683901 2.12132 2.12132 
C 2.683901 1.55874 3 0.795609 3 0 
C 3 -0.795609 2.683901 -1.55874 2.12132 -2.12132 
C 1.55874 -2.683901 0.795609 -3 0 -3 
C -0.795609 -3 -1.55874 -2.683901 -2.12132 -2.12132 
C -2.683901 -1.55874 -3 -0.795609 -3 0 
C -3 0.795609 -2.683901 1.55874 -2.12132 2.12132 
C -1.55874 2.683901 -0.795609 3 0 3 
z
" id="m3cc039f722" style="stroke:#7f7f7f;"/>
    </defs>
    <g clip-path="url(#pa29e237c31)">
     <use style="fill:#7f7f7f;stroke:#7f7f7f;" x="373.622587" xlink:href="#m3cc039f722" y="45.656098"/>
    </g>
   </g>
   <g id="89A">
    <defs>
     <path d="M 0 3 
C 0.795609 3 1.55874 2.683901 2.12132 2.12132 
C 2.683901 1.55874 3 0.795609 3 0 
C 3 -0.795609 2.683901 -1.55874 2.12132 -2.12132 
C 1.55874 -2.683901 0.795609 -3 0 -3 
C -0.795609 -3 -1.55874 -2.683901 -2.12132 -2.12132 
C -2.683901 -1.55874 -3 -0.795609 -3 0 
C -3 0.795609 -2.683901 1.55874 -2.12132 2.12132 
C -1.55874 2.683901 -0.795609 3 0 3 
z
" id="ma785afc4a9" style="stroke:#bcbd22;"/>
    </defs>
    <g clip-path="url(#pa29e237c31)">
     <use style="fill:#bcbd22;stroke:#bcbd22;" x="360.504535" xlink:href="#ma785afc4a9" y="39.579315"/>
    </g>
   </g>
   <g id="90A">
    <defs>
     <path d="M 0 3 
C 0.795609 3 1.55874 2.683901 2.12132 2.12132 
C 2.683901 1.55874 3 0.795609 3 0 
C 3 -0.795609 2.683901 -1.55874 2.12132 -2.12132 
C 1.55874 -2.683901 0.795609 -3 0 -3 
C -0.795609 -3 -1.55874 -2.683901 -2.12132 -2.12132 
C -2.683901 -1.55874 -3 -0.795609 -3 0 
C -3 0.795609 -2.683901 1.55874 -2.12132 2.12132 
C -1.55874 2.683901 -0.795609 3 0 3 
z
" id="m99cc97d9c6" style="stroke:#17becf;"/>
    </defs>
    <g clip-path="url(#pa29e237c31)">
     <use style="fill:#17becf;stroke:#17becf;" x="294.914273" xlink:href="#m99cc97d9c6" y="135.206412"/>
    </g>
   </g>
   <g id="91A">
    <g clip-path="url(#pa29e237c31)">
     <use style="fill:#1f77b4;stroke:#1f77b4;" x="233.072026" xlink:href="#mb6e18db7f9" y="81.222303"/>
    </g>
   </g>
   <g id="92A">
    <g clip-path="url(#pa29e237c31)">
     <use style="fill:#ff7f0e;stroke:#ff7f0e;" x="306.158318" xlink:href="#mf7ea3d8e47" y="145.258657"/>
    </g>
   </g>
   <g id="93A">
    <g clip-path="url(#pa29e237c31)">
     <use style="fill:#2ca02c;stroke:#2ca02c;" x="317.402363" xlink:href="#m93446878f3" y="27.515233"/>
    </g>
   </g>
   <g id="94A">
    <g clip-path="url(#pa29e237c31)">
     <use style="fill:#d62728;stroke:#d62728;" x="260.245134" xlink:href="#m873309567f" y="129.7682"/>
    </g>
   </g>
   <g id="95A">
    <g clip-path="url(#pa29e237c31)">
     <use style="fill:#9467bd;stroke:#9467bd;" x="368.937568" xlink:href="#m8af6a51f9a" y="78.779327"/>
    </g>
   </g>
   <g id="96A">
    <g clip-path="url(#pa29e237c31)">
     <use style="fill:#8c564b;stroke:#8c564b;" x="300.536295" xlink:href="#m9c043127c3" y="132.39864"/>
    </g>
   </g>
   <g id="97A">
    <g clip-path="url(#pa29e237c31)">
     <use style="fill:#e377c2;stroke:#e377c2;" x="393.299666" xlink:href="#m0eb6f9a499" y="127.820042"/>
    </g>
   </g>
   <g id="143F">
    <g clip-path="url(#pa29e237c31)">
     <use style="fill:#7f7f7f;stroke:#7f7f7f;" x="394.236669" xlink:href="#m3cc039f722" y="136.130991"/>
    </g>
   </g>
   <g id="90B">
    <g clip-path="url(#pa29e237c31)">
     <use style="fill:#bcbd22;stroke:#bcbd22;" x="111.261539" xlink:href="#ma785afc4a9" y="135.206412"/>
    </g>
   </g>
   <g id="90C">
    <g clip-path="url(#pa29e237c31)">
     <use style="fill:#17becf;stroke:#17becf;" x="256.497119" xlink:href="#m99cc97d9c6" y="135.206412"/>
    </g>
   </g>
   <g id="144P">
    <g clip-path="url(#pa29e237c31)">
     <use style="fill:#1f77b4;stroke:#1f77b4;" x="168.418768" xlink:href="#mb6e18db7f9" y="135.206412"/>
    </g>
   </g>
   <g id="144J">
    <g clip-path="url(#pa29e237c31)">
     <use style="fill:#ff7f0e;stroke:#ff7f0e;" x="197.465884" xlink:href="#mf7ea3d8e47" y="141.102735"/>
    </g>
   </g>
   <g id="144S">
    <g clip-path="url(#pa29e237c31)">
     <use style="fill:#2ca02c;stroke:#2ca02c;" x="189.03285" xlink:href="#m93446878f3" y="241.887257"/>
    </g>
   </g>
   <g id="144X">
    <g clip-path="url(#pa29e237c31)">
     <use style="fill:#d62728;stroke:#d62728;" x="122.505584" xlink:href="#m873309567f" y="135.206412"/>
    </g>
   </g>
   <g id="144A">
    <g clip-path="url(#pa29e237c31)">
     <use style="fill:#9467bd;stroke:#9467bd;" x="366.126557" xlink:href="#m8af6a51f9a" y="153.622177"/>
    </g>
   </g>
   <g id="144V">
    <g clip-path="url(#pa29e237c31)">
     <use style="fill:#8c564b;stroke:#8c564b;" x="122.505584" xlink:href="#m9c043127c3" y="135.206412"/>
    </g>
   </g>
   <g id="144I">
    <g clip-path="url(#pa29e237c31)">
     <use style="fill:#e377c2;stroke:#e377c2;" x="187.158842" xlink:href="#m0eb6f9a499" y="158.214441"/>
    </g>
   </g>
   <g id="144R">
    <g clip-path="url(#pa29e237c31)">
     <use style="fill:#7f7f7f;stroke:#7f7f7f;" x="168.418768" xlink:href="#m3cc039f722" y="159.837726"/>
    </g>
   </g>
   <g id="143B">
    <g clip-path="url(#pa29e237c31)">
     <use style="fill:#bcbd22;stroke:#bcbd22;" x="96.269479" xlink:href="#ma785afc4a9" y="288.510801"/>
    </g>
   </g>
   <g id="144K">
    <g clip-path="url(#pa29e237c31)">
     <use style="fill:#17becf;stroke:#17becf;" x="197.465884" xlink:href="#m99cc97d9c6" y="135.206412"/>
    </g>
   </g>
   <g id="144B">
    <g clip-path="url(#pa29e237c31)">
     <use style="fill:#1f77b4;stroke:#1f77b4;" x="229.324011" xlink:href="#mb6e18db7f9" y="138.834919"/>
    </g>
   </g>
   <g id="144F">
    <g clip-path="url(#pa29e237c31)">
     <use style="fill:#ff7f0e;stroke:#ff7f0e;" x="82.214423" xlink:href="#mf7ea3d8e47" y="95.897595"/>
    </g>
   </g>
   <g id="144E">
    <g clip-path="url(#pa29e237c31)">
     <use style="fill:#2ca02c;stroke:#2ca02c;" x="90.647457" xlink:href="#m93446878f3" y="135.206412"/>
    </g>
   </g>
   <g id="144D">
    <g clip-path="url(#pa29e237c31)">
     <use style="fill:#d62728;stroke:#d62728;" x="199.339891" xlink:href="#m873309567f" y="143.827243"/>
    </g>
   </g>
   <g id="81B">
    <g clip-path="url(#pa29e237c31)">
     <use style="fill:#9467bd;stroke:#9467bd;" x="88.773449" xlink:href="#m8af6a51f9a" y="135.206412"/>
    </g>
   </g>
   <g id="143E">
    <g clip-path="url(#pa29e237c31)">
     <use style="fill:#8c564b;stroke:#8c564b;" x="394.236669" xlink:href="#m9c043127c3" y="141.741923"/>
    </g>
   </g>
   <g id="143C">
    <g clip-path="url(#pa29e237c31)">
     <use style="fill:#e377c2;stroke:#e377c2;" x="88.773449" xlink:href="#m0eb6f9a499" y="88.035831"/>
    </g>
   </g>
   <g id="143A">
    <g clip-path="url(#pa29e237c31)">
     <use style="fill:#7f7f7f;stroke:#7f7f7f;" x="394.236669" xlink:href="#m3cc039f722" y="121.875955"/>
    </g>
   </g>
   <g id="144W">
    <g clip-path="url(#pa29e237c31)">
     <use style="fill:#bcbd22;stroke:#bcbd22;" x="122.505584" xlink:href="#ma785afc4a9" y="135.206412"/>
    </g>
   </g>
   <g id="144Q">
    <g clip-path="url(#pa29e237c31)">
     <use style="fill:#17becf;stroke:#17becf;" x="168.418768" xlink:href="#m99cc97d9c6" y="135.206412"/>
    </g>
   </g>
   <g id="144L">
    <g clip-path="url(#pa29e237c31)">
     <use style="fill:#1f77b4;stroke:#1f77b4;" x="198.402887" xlink:href="#mb6e18db7f9" y="151.861166"/>
    </g>
   </g>
   <g id="144H">
    <g clip-path="url(#pa29e237c31)">
     <use style="fill:#ff7f0e;stroke:#ff7f0e;" x="187.158842" xlink:href="#mf7ea3d8e47" y="135.206412"/>
    </g>
   </g>
   <g id="144T">
    <g clip-path="url(#pa29e237c31)">
     <use style="fill:#2ca02c;stroke:#2ca02c;" x="122.505584" xlink:href="#m93446878f3" y="135.206412"/>
    </g>
   </g>
   <g id="143G">
    <g clip-path="url(#pa29e237c31)">
     <use style="fill:#d62728;stroke:#d62728;" x="394.236669" xlink:href="#m873309567f" y="135.206412"/>
    </g>
   </g>
   <g id="matplotlib.axis_1">
    <g id="xtick_1">
     <g id="line2d_1">
      <defs>
       <path d="M 0 0 
L 0 3.5 
" id="mbfdc914577" style="stroke:#000000;stroke-width:0.8;"/>
      </defs>
      <g>
       <use style="stroke:#000000;stroke-width:0.8;" x="73.78139" xlink:href="#mbfdc914577" y="303.64"/>
      </g>
     </g>
     <g id="text_1">
      <text style="font-family:DejaVu Sans;font-size:10px;font-style:normal;font-weight:normal;text-anchor:middle;" transform="rotate(-0, 73.78139, 318.238437)" x="73.78139" y="318.238437">0</text>
     </g>
    </g>
    <g id="xtick_2">
     <g id="line2d_2">
      <g>
       <use style="stroke:#000000;stroke-width:0.8;" x="120.631577" xlink:href="#mbfdc914577" y="303.64"/>
      </g>
     </g>
     <g id="text_2">
      <text style="font-family:DejaVu Sans;font-size:10px;font-style:normal;font-weight:normal;text-anchor:middle;" transform="rotate(-0, 120.631577, 318.238437)" x="120.631577" y="318.238437">50</text>
     </g>
    </g>
    <g id="xtick_3">
     <g id="line2d_3">
      <g>
       <use style="stroke:#000000;stroke-width:0.8;" x="167.481764" xlink:href="#mbfdc914577" y="303.64"/>
      </g>
     </g>
     <g id="text_3">
      <text style="font-family:DejaVu Sans;font-size:10px;font-style:normal;font-weight:normal;text-anchor:middle;" transform="rotate(-0, 167.481764, 318.238437)" x="167.481764" y="318.238437">100</text>
     </g>
    </g>
    <g id="xtick_4">
     <g id="line2d_4">
      <g>
       <use style="stroke:#000000;stroke-width:0.8;" x="214.331951" xlink:href="#mbfdc914577" y="303.64"/>
      </g>
     </g>
     <g id="text_4">
      <text style="font-family:DejaVu Sans;font-size:10px;font-style:normal;font-weight:normal;text-anchor:middle;" transform="rotate(-0, 214.331951, 318.238437)" x="214.331951" y="318.238437">150</text>
     </g>
    </g>
    <g id="xtick_5">
     <g id="line2d_5">
      <g>
       <use style="stroke:#000000;stroke-width:0.8;" x="261.182138" xlink:href="#mbfdc914577" y="303.64"/>
      </g>
     </g>
     <g id="text_5">
      <text style="font-family:DejaVu Sans;font-size:10px;font-style:normal;font-weight:normal;text-anchor:middle;" transform="rotate(-0, 261.182138, 318.238437)" x="261.182138" y="318.238437">200</text>
     </g>
    </g>
    <g id="xtick_6">
     <g id="line2d_6">
      <g>
       <use style="stroke:#000000;stroke-width:0.8;" x="308.032325" xlink:href="#mbfdc914577" y="303.64"/>
      </g>
     </g>
     <g id="text_6">
      <text style="font-family:DejaVu Sans;font-size:10px;font-style:normal;font-weight:normal;text-anchor:middle;" transform="rotate(-0, 308.032325, 318.238437)" x="308.032325" y="318.238437">250</text>
     </g>
    </g>
    <g id="xtick_7">
     <g id="line2d_7">
      <g>
       <use style="stroke:#000000;stroke-width:0.8;" x="354.882512" xlink:href="#mbfdc914577" y="303.64"/>
      </g>
     </g>
     <g id="text_7">
      <text style="font-family:DejaVu Sans;font-size:10px;font-style:normal;font-weight:normal;text-anchor:middle;" transform="rotate(-0, 354.882512, 318.238437)" x="354.882512" y="318.238437">300</text>
     </g>
    </g>
    <g id="xtick_8">
     <g id="line2d_8">
      <g>
       <use style="stroke:#000000;stroke-width:0.8;" x="401.732699" xlink:href="#mbfdc914577" y="303.64"/>
      </g>
     </g>
     <g id="text_8">
      <text style="font-family:DejaVu Sans;font-size:10px;font-style:normal;font-weight:normal;text-anchor:middle;" transform="rotate(-0, 401.732699, 318.238437)" x="401.732699" y="318.238437">350</text>
     </g>
    </g>
    <g id="text_9">
     <text style="font-family:DejaVu Sans;font-size:10px;font-style:normal;font-weight:normal;text-anchor:middle;" transform="rotate(-0, 254.98, 331.916562)" x="254.98" y="331.916562">Amount of languages tested</text>
    </g>
   </g>
   <g id="matplotlib.axis_2">
    <g id="ytick_1">
     <g id="line2d_9">
      <defs>
       <path d="M 0 0 
L -3.5 0 
" id="m607d2d2791" style="stroke:#000000;stroke-width:0.8;"/>
      </defs>
      <g>
       <use style="stroke:#000000;stroke-width:0.8;" x="62.48" xlink:href="#m607d2d2791" y="276.718156"/>
      </g>
     </g>
     <g id="text_10">
      <text style="font-family:DejaVu Sans;font-size:10px;font-style:normal;font-weight:normal;text-anchor:end;" transform="rotate(-0, 55.48, 280.517375)" x="55.48" y="280.517375">−0.20</text>
     </g>
    </g>
    <g id="ytick_2">
     <g id="line2d_10">
      <g>
       <use style="stroke:#000000;stroke-width:0.8;" x="62.48" xlink:href="#m607d2d2791" y="241.34022"/>
      </g>
     </g>
     <g id="text_11">
      <text style="font-family:DejaVu Sans;font-size:10px;font-style:normal;font-weight:normal;text-anchor:end;" transform="rotate(-0, 55.48, 245.139439)" x="55.48" y="245.139439">−0.15</text>
     </g>
    </g>
    <g id="ytick_3">
     <g id="line2d_11">
      <g>
       <use style="stroke:#000000;stroke-width:0.8;" x="62.48" xlink:href="#m607d2d2791" y="205.962284"/>
      </g>
     </g>
     <g id="text_12">
      <text style="font-family:DejaVu Sans;font-size:10px;font-style:normal;font-weight:normal;text-anchor:end;" transform="rotate(-0, 55.48, 209.761503)" x="55.48" y="209.761503">−0.10</text>
     </g>
    </g>
    <g id="ytick_4">
     <g id="line2d_12">
      <g>
       <use style="stroke:#000000;stroke-width:0.8;" x="62.48" xlink:href="#m607d2d2791" y="170.584348"/>
      </g>
     </g>
     <g id="text_13">
      <text style="font-family:DejaVu Sans;font-size:10px;font-style:normal;font-weight:normal;text-anchor:end;" transform="rotate(-0, 55.48, 174.383567)" x="55.48" y="174.383567">−0.05</text>
     </g>
    </g>
    <g id="ytick_5">
     <g id="line2d_13">
      <g>
       <use style="stroke:#000000;stroke-width:0.8;" x="62.48" xlink:href="#m607d2d2791" y="135.206412"/>
      </g>
     </g>
     <g id="text_14">
      <text style="font-family:DejaVu Sans;font-size:10px;font-style:normal;font-weight:normal;text-anchor:end;" transform="rotate(-0, 55.48, 139.005631)" x="55.48" y="139.005631">0.00</text>
     </g>
    </g>
    <g id="ytick_6">
     <g id="line2d_14">
      <g>
       <use style="stroke:#000000;stroke-width:0.8;" x="62.48" xlink:href="#m607d2d2791" y="99.828477"/>
      </g>
     </g>
     <g id="text_15">
      <text style="font-family:DejaVu Sans;font-size:10px;font-style:normal;font-weight:normal;text-anchor:end;" transform="rotate(-0, 55.48, 103.627695)" x="55.48" y="103.627695">0.05</text>
     </g>
    </g>
    <g id="ytick_7">
     <g id="line2d_15">
      <g>
       <use style="stroke:#000000;stroke-width:0.8;" x="62.48" xlink:href="#m607d2d2791" y="64.450541"/>
      </g>
     </g>
     <g id="text_16">
      <text style="font-family:DejaVu Sans;font-size:10px;font-style:normal;font-weight:normal;text-anchor:end;" transform="rotate(-0, 55.48, 68.249759)" x="55.48" y="68.249759">0.10</text>
     </g>
    </g>
    <g id="ytick_8">
     <g id="line2d_16">
      <g>
       <use style="stroke:#000000;stroke-width:0.8;" x="62.48" xlink:href="#m607d2d2791" y="29.072605"/>
      </g>
     </g>
     <g id="text_17">
      <text style="font-family:DejaVu Sans;font-size:10px;font-style:normal;font-weight:normal;text-anchor:end;" transform="rotate(-0, 55.48, 32.871824)" x="55.48" y="32.871824">0.15</text>
     </g>
    </g>
    <g id="text_18">
     <text style="font-family:DejaVu Sans;font-size:10px;font-style:normal;font-weight:normal;text-anchor:middle;" transform="rotate(-90, 18.755, 158.48)" x="18.755" y="158.48">Score - base</text>
    </g>
   </g>
   <g id="line2d_17">
    <path clip-path="url(#pa29e237c31)" d="M 82.214423 152.036898 
L 88.773449 151.107913 
L 90.647457 150.842489 
L 96.269479 150.046216 
L 111.261539 147.922822 
L 122.505584 146.330276 
L 168.418768 139.827382 
L 187.158842 137.173139 
L 189.03285 136.907715 
L 197.465884 135.713306 
L 198.402887 135.580594 
L 199.339891 135.447882 
L 214.331951 133.324487 
L 229.324011 131.201093 
L 233.072026 130.670245 
L 256.497119 127.352441 
L 260.245134 126.821593 
L 294.914273 121.911244 
L 300.536295 121.114971 
L 306.158318 120.318698 
L 317.402363 118.726153 
L 360.504535 112.621395 
L 366.126557 111.825122 
L 368.937568 111.426985 
L 373.622587 110.763425 
L 377.370602 110.232576 
L 393.299666 107.97647 
L 394.236669 107.843758 
L 401.732699 106.782061 
L 407.354722 105.985788 
L 427.968804 103.066121 
L 429.842812 102.800697 
" style="fill:none;stroke:#1f77b4;stroke-linecap:square;stroke-width:1.5;"/>
   </g>
   <g id="patch_3">
    <path d="M 62.48 303.64 
L 62.48 13.32 
" style="fill:none;stroke:#000000;stroke-linecap:square;stroke-linejoin:miter;stroke-width:0.8;"/>
   </g>
   <g id="patch_4">
    <path d="M 447.48 303.64 
L 447.48 13.32 
" style="fill:none;stroke:#000000;stroke-linecap:square;stroke-linejoin:miter;stroke-width:0.8;"/>
   </g>
   <g id="patch_5">
    <path d="M 62.48 303.64 
L 447.48 303.64 
" style="fill:none;stroke:#000000;stroke-linecap:square;stroke-linejoin:miter;stroke-width:0.8;"/>
   </g>
   <g id="patch_6">
    <path d="M 62.48 13.32 
L 447.48 13.32 
" style="fill:none;stroke:#000000;stroke-linecap:square;stroke-linejoin:miter;stroke-width:0.8;"/>
   </g>
  </g>
 </g>
 <defs>
  <clipPath id="pa29e237c31">
   <rect height="290.32" width="385" x="62.48" y="13.32"/>
  </clipPath>
 </defs>
</svg>
