<?xml version="1.0" encoding="utf-8" standalone="no"?>
<!DOCTYPE svg PUBLIC "-//W3C//DTD SVG 1.1//EN"
  "http://www.w3.org/Graphics/SVG/1.1/DTD/svg11.dtd">
<!-- Created with matplotlib (http://matplotlib.org/) -->
<svg height="345.6pt" version="1.1" viewBox="0 0 460.8 345.6" width="460.8pt" xmlns="http://www.w3.org/2000/svg" xmlns:xlink="http://www.w3.org/1999/xlink">
 <defs>
  <style type="text/css">
*{stroke-linecap:butt;stroke-linejoin:round;}
  </style>
 </defs>
 <g id="figure_1">
  <g id="patch_1">
   <path d="M 0 345.6 
L 460.8 345.6 
L 460.8 0 
L 0 0 
z
" style="fill:#ffffff;"/>
  </g>
  <g id="axes_1">
   <g id="patch_2">
    <path d="M 33.64 311.635539 
L 447.48 311.635539 
L 447.48 13.32 
L 33.64 13.32 
z
" style="fill:#ffffff;"/>
   </g>
   <g id="patch_3">
    <path clip-path="url(#pa532e1990f)" d="M 52.450909 311.635539 
L 56.329447 311.635539 
L 56.329447 115.777199 
L 52.450909 115.777199 
z
" style="fill:#1f77b4;"/>
   </g>
   <g id="patch_4">
    <path clip-path="url(#pa532e1990f)" d="M 71.843599 311.635539 
L 75.722137 311.635539 
L 75.722137 244.246289 
L 71.843599 244.246289 
z
" style="fill:#1f77b4;"/>
   </g>
   <g id="patch_5">
    <path clip-path="url(#pa532e1990f)" d="M 91.236289 311.635539 
L 95.114827 311.635539 
L 95.114827 28.876371 
L 91.236289 28.876371 
z
" style="fill:#1f77b4;"/>
   </g>
   <g id="patch_6">
    <path clip-path="url(#pa532e1990f)" d="M 110.628978 311.635539 
L 114.507516 311.635539 
L 114.507516 138.268053 
L 110.628978 138.268053 
z
" style="fill:#1f77b4;"/>
   </g>
   <g id="patch_7">
    <path clip-path="url(#pa532e1990f)" d="M 130.021668 311.635539 
L 133.900206 311.635539 
L 133.900206 109.370792 
L 130.021668 109.370792 
z
" style="fill:#1f77b4;"/>
   </g>
   <g id="patch_8">
    <path clip-path="url(#pa532e1990f)" d="M 149.414358 311.635539 
L 153.292896 311.635539 
L 153.292896 202.775473 
L 149.414358 202.775473 
z
" style="fill:#1f77b4;"/>
   </g>
   <g id="patch_9">
    <path clip-path="url(#pa532e1990f)" d="M 168.807048 311.635539 
L 172.685586 311.635539 
L 172.685586 110.947709 
L 168.807048 110.947709 
z
" style="fill:#1f77b4;"/>
   </g>
   <g id="patch_10">
    <path clip-path="url(#pa532e1990f)" d="M 188.199738 311.635539 
L 192.078276 311.635539 
L 192.078276 128.719972 
L 188.199738 128.719972 
z
" style="fill:#1f77b4;"/>
   </g>
   <g id="patch_11">
    <path clip-path="url(#pa532e1990f)" d="M 207.592427 311.635539 
L 211.470965 311.635539 
L 211.470965 152.724278 
L 207.592427 152.724278 
z
" style="fill:#1f77b4;"/>
   </g>
   <g id="patch_12">
    <path clip-path="url(#pa532e1990f)" d="M 226.985117 311.635539 
L 230.863655 311.635539 
L 230.863655 78.316382 
L 226.985117 78.316382 
z
" style="fill:#1f77b4;"/>
   </g>
   <g id="patch_13">
    <path clip-path="url(#pa532e1990f)" d="M 246.377807 311.635539 
L 250.256345 311.635539 
L 250.256345 62.306949 
L 246.377807 62.306949 
z
" style="fill:#1f77b4;"/>
   </g>
   <g id="patch_14">
    <path clip-path="url(#pa532e1990f)" d="M 265.770497 311.635539 
L 269.649035 311.635539 
L 269.649035 188.765796 
L 265.770497 188.765796 
z
" style="fill:#1f77b4;"/>
   </g>
   <g id="patch_15">
    <path clip-path="url(#pa532e1990f)" d="M 285.163187 311.635539 
L 289.041724 311.635539 
L 289.041724 153.73164 
L 285.163187 153.73164 
z
" style="fill:#1f77b4;"/>
   </g>
   <g id="patch_16">
    <path clip-path="url(#pa532e1990f)" d="M 304.555876 311.635539 
L 308.434414 311.635539 
L 308.434414 185.043529 
L 304.555876 185.043529 
z
" style="fill:#1f77b4;"/>
   </g>
   <g id="patch_17">
    <path clip-path="url(#pa532e1990f)" d="M 323.948566 311.635539 
L 327.827104 311.635539 
L 327.827104 226.564251 
L 323.948566 226.564251 
z
" style="fill:#1f77b4;"/>
   </g>
   <g id="patch_18">
    <path clip-path="url(#pa532e1990f)" d="M 343.341256 311.635539 
L 347.219794 311.635539 
L 347.219794 121.255089 
L 343.341256 121.255089 
z
" style="fill:#1f77b4;"/>
   </g>
   <g id="patch_19">
    <path clip-path="url(#pa532e1990f)" d="M 362.733946 311.635539 
L 366.612484 311.635539 
L 366.612484 27.525502 
L 362.733946 27.525502 
z
" style="fill:#1f77b4;"/>
   </g>
   <g id="patch_20">
    <path clip-path="url(#pa532e1990f)" d="M 382.126635 311.635539 
L 386.005173 311.635539 
L 386.005173 49.527314 
L 382.126635 49.527314 
z
" style="fill:#1f77b4;"/>
   </g>
   <g id="patch_21">
    <path clip-path="url(#pa532e1990f)" d="M 401.519325 311.635539 
L 405.397863 311.635539 
L 405.397863 86.870169 
L 401.519325 86.870169 
z
" style="fill:#1f77b4;"/>
   </g>
   <g id="patch_22">
    <path clip-path="url(#pa532e1990f)" d="M 420.912015 311.635539 
L 424.790553 311.635539 
L 424.790553 135.271712 
L 420.912015 135.271712 
z
" style="fill:#1f77b4;"/>
   </g>
   <g id="patch_23">
    <path clip-path="url(#pa532e1990f)" d="M 56.329447 311.635539 
L 60.207985 311.635539 
L 60.207985 111.156222 
L 56.329447 111.156222 
z
" style="fill:#ff7f0e;"/>
   </g>
   <g id="patch_24">
    <path clip-path="url(#pa532e1990f)" d="M 75.722137 311.635539 
L 79.600675 311.635539 
L 79.600675 311.635539 
L 75.722137 311.635539 
z
" style="fill:#ff7f0e;"/>
   </g>
   <g id="patch_25">
    <path clip-path="url(#pa532e1990f)" d="M 95.114827 311.635539 
L 98.993365 311.635539 
L 98.993365 28.876371 
L 95.114827 28.876371 
z
" style="fill:#ff7f0e;"/>
   </g>
   <g id="patch_26">
    <path clip-path="url(#pa532e1990f)" d="M 114.507516 311.635539 
L 118.386054 311.635539 
L 118.386054 143.234407 
L 114.507516 143.234407 
z
" style="fill:#ff7f0e;"/>
   </g>
   <g id="patch_27">
    <path clip-path="url(#pa532e1990f)" d="M 133.900206 311.635539 
L 137.778744 311.635539 
L 137.778744 109.370792 
L 133.900206 109.370792 
z
" style="fill:#ff7f0e;"/>
   </g>
   <g id="patch_28">
    <path clip-path="url(#pa532e1990f)" d="M 153.292896 311.635539 
L 157.171434 311.635539 
L 157.171434 219.72519 
L 153.292896 219.72519 
z
" style="fill:#ff7f0e;"/>
   </g>
   <g id="patch_29">
    <path clip-path="url(#pa532e1990f)" d="M 172.685586 311.635539 
L 176.564124 311.635539 
L 176.564124 100.294261 
L 172.685586 100.294261 
z
" style="fill:#ff7f0e;"/>
   </g>
   <g id="patch_30">
    <path clip-path="url(#pa532e1990f)" d="M 192.078276 311.635539 
L 195.956813 311.635539 
L 195.956813 113.194017 
L 192.078276 113.194017 
z
" style="fill:#ff7f0e;"/>
   </g>
   <g id="patch_31">
    <path clip-path="url(#pa532e1990f)" d="M 211.470965 311.635539 
L 215.349503 311.635539 
L 215.349503 148.98043 
L 211.470965 148.98043 
z
" style="fill:#ff7f0e;"/>
   </g>
   <g id="patch_32">
    <path clip-path="url(#pa532e1990f)" d="M 230.863655 311.635539 
L 234.742193 311.635539 
L 234.742193 78.316382 
L 230.863655 78.316382 
z
" style="fill:#ff7f0e;"/>
   </g>
   <g id="patch_33">
    <path clip-path="url(#pa532e1990f)" d="M 250.256345 311.635539 
L 254.134883 311.635539 
L 254.134883 62.306949 
L 250.256345 62.306949 
z
" style="fill:#ff7f0e;"/>
   </g>
   <g id="patch_34">
    <path clip-path="url(#pa532e1990f)" d="M 269.649035 311.635539 
L 273.527573 311.635539 
L 273.527573 209.619651 
L 269.649035 209.619651 
z
" style="fill:#ff7f0e;"/>
   </g>
   <g id="patch_35">
    <path clip-path="url(#pa532e1990f)" d="M 289.041724 311.635539 
L 292.920262 311.635539 
L 292.920262 153.754946 
L 289.041724 153.754946 
z
" style="fill:#ff7f0e;"/>
   </g>
   <g id="patch_36">
    <path clip-path="url(#pa532e1990f)" d="M 308.434414 311.635539 
L 312.312952 311.635539 
L 312.312952 148.679724 
L 308.434414 148.679724 
z
" style="fill:#ff7f0e;"/>
   </g>
   <g id="patch_37">
    <path clip-path="url(#pa532e1990f)" d="M 327.827104 311.635539 
L 331.705642 311.635539 
L 331.705642 201.178747 
L 327.827104 201.178747 
z
" style="fill:#ff7f0e;"/>
   </g>
   <g id="patch_38">
    <path clip-path="url(#pa532e1990f)" d="M 347.219794 311.635539 
L 351.098332 311.635539 
L 351.098332 182.67008 
L 347.219794 182.67008 
z
" style="fill:#ff7f0e;"/>
   </g>
   <g id="patch_39">
    <path clip-path="url(#pa532e1990f)" d="M 366.612484 311.635539 
L 370.491022 311.635539 
L 370.491022 27.525502 
L 366.612484 27.525502 
z
" style="fill:#ff7f0e;"/>
   </g>
   <g id="patch_40">
    <path clip-path="url(#pa532e1990f)" d="M 386.005173 311.635539 
L 389.883711 311.635539 
L 389.883711 49.527314 
L 386.005173 49.527314 
z
" style="fill:#ff7f0e;"/>
   </g>
   <g id="patch_41">
    <path clip-path="url(#pa532e1990f)" d="M 405.397863 311.635539 
L 409.276401 311.635539 
L 409.276401 88.01885 
L 405.397863 88.01885 
z
" style="fill:#ff7f0e;"/>
   </g>
   <g id="patch_42">
    <path clip-path="url(#pa532e1990f)" d="M 424.790553 311.635539 
L 428.669091 311.635539 
L 428.669091 135.325768 
L 424.790553 135.325768 
z
" style="fill:#ff7f0e;"/>
   </g>
   <g id="matplotlib.axis_1">
    <g id="xtick_1">
     <g id="line2d_1">
      <defs>
       <path d="M 0 0 
L 0 3.5 
" id="m630fe68e50" style="stroke:#000000;stroke-width:0.8;"/>
      </defs>
      <g>
       <use style="stroke:#000000;stroke-width:0.8;" x="56.329447" xlink:href="#m630fe68e50" y="311.635539"/>
      </g>
     </g>
     <g id="text_1">
      <text style="font-family:DejaVu Sans;font-size:8px;font-style:normal;font-weight:normal;" transform="translate(52.356391 334.001853)rotate(-45)">10A</text>
     </g>
    </g>
    <g id="xtick_2">
     <g id="line2d_2">
      <g>
       <use style="stroke:#000000;stroke-width:0.8;" x="75.722137" xlink:href="#m630fe68e50" y="311.635539"/>
      </g>
     </g>
     <g id="text_2">
      <text style="font-family:DejaVu Sans;font-size:8px;font-style:normal;font-weight:normal;" transform="translate(71.743335 334.013344)rotate(-45)">10B</text>
     </g>
    </g>
    <g id="xtick_3">
     <g id="line2d_3">
      <g>
       <use style="stroke:#000000;stroke-width:0.8;" x="95.114827" xlink:href="#m630fe68e50" y="311.635539"/>
      </g>
     </g>
     <g id="text_3">
      <text style="font-family:DejaVu Sans;font-size:8px;font-style:normal;font-weight:normal;" transform="translate(91.14177 334.001853)rotate(-45)">11A</text>
     </g>
    </g>
    <g id="xtick_4">
     <g id="line2d_4">
      <g>
       <use style="stroke:#000000;stroke-width:0.8;" x="114.507516" xlink:href="#m630fe68e50" y="311.635539"/>
      </g>
     </g>
     <g id="text_4">
      <text style="font-family:DejaVu Sans;font-size:8px;font-style:normal;font-weight:normal;" transform="translate(110.53446 334.001853)rotate(-45)">12A</text>
     </g>
    </g>
    <g id="xtick_5">
     <g id="line2d_5">
      <g>
       <use style="stroke:#000000;stroke-width:0.8;" x="133.900206" xlink:href="#m630fe68e50" y="311.635539"/>
      </g>
     </g>
     <g id="text_5">
      <text style="font-family:DejaVu Sans;font-size:8px;font-style:normal;font-weight:normal;" transform="translate(129.92715 334.001853)rotate(-45)">13A</text>
     </g>
    </g>
    <g id="xtick_6">
     <g id="line2d_6">
      <g>
       <use style="stroke:#000000;stroke-width:0.8;" x="153.292896" xlink:href="#m630fe68e50" y="311.635539"/>
      </g>
     </g>
     <g id="text_6">
      <text style="font-family:DejaVu Sans;font-size:8px;font-style:normal;font-weight:normal;" transform="translate(149.31984 334.001853)rotate(-45)">14A</text>
     </g>
    </g>
    <g id="xtick_7">
     <g id="line2d_7">
      <g>
       <use style="stroke:#000000;stroke-width:0.8;" x="172.685586" xlink:href="#m630fe68e50" y="311.635539"/>
      </g>
     </g>
     <g id="text_7">
      <text style="font-family:DejaVu Sans;font-size:8px;font-style:normal;font-weight:normal;" transform="translate(168.71253 334.001853)rotate(-45)">15A</text>
     </g>
    </g>
    <g id="xtick_8">
     <g id="line2d_8">
      <g>
       <use style="stroke:#000000;stroke-width:0.8;" x="192.078276" xlink:href="#m630fe68e50" y="311.635539"/>
      </g>
     </g>
     <g id="text_8">
      <text style="font-family:DejaVu Sans;font-size:8px;font-style:normal;font-weight:normal;" transform="translate(188.105219 334.001853)rotate(-45)">16A</text>
     </g>
    </g>
    <g id="xtick_9">
     <g id="line2d_9">
      <g>
       <use style="stroke:#000000;stroke-width:0.8;" x="211.470965" xlink:href="#m630fe68e50" y="311.635539"/>
      </g>
     </g>
     <g id="text_9">
      <text style="font-family:DejaVu Sans;font-size:8px;font-style:normal;font-weight:normal;" transform="translate(207.497909 334.001853)rotate(-45)">17A</text>
     </g>
    </g>
    <g id="xtick_10">
     <g id="line2d_10">
      <g>
       <use style="stroke:#000000;stroke-width:0.8;" x="230.863655" xlink:href="#m630fe68e50" y="311.635539"/>
      </g>
     </g>
     <g id="text_10">
      <text style="font-family:DejaVu Sans;font-size:8px;font-style:normal;font-weight:normal;" transform="translate(226.890599 334.001853)rotate(-45)">18A</text>
     </g>
    </g>
    <g id="xtick_11">
     <g id="line2d_11">
      <g>
       <use style="stroke:#000000;stroke-width:0.8;" x="250.256345" xlink:href="#m630fe68e50" y="311.635539"/>
      </g>
     </g>
     <g id="text_11">
      <text style="font-family:DejaVu Sans;font-size:8px;font-style:normal;font-weight:normal;" transform="translate(246.283289 334.001853)rotate(-45)">19A</text>
     </g>
    </g>
    <g id="xtick_12">
     <g id="line2d_12">
      <g>
       <use style="stroke:#000000;stroke-width:0.8;" x="269.649035" xlink:href="#m630fe68e50" y="311.635539"/>
      </g>
     </g>
     <g id="text_12">
      <text style="font-family:DejaVu Sans;font-size:8px;font-style:normal;font-weight:normal;" transform="translate(267.475565 330.40268)rotate(-45)">1A</text>
     </g>
    </g>
    <g id="xtick_13">
     <g id="line2d_13">
      <g>
       <use style="stroke:#000000;stroke-width:0.8;" x="289.041724" xlink:href="#m630fe68e50" y="311.635539"/>
      </g>
     </g>
     <g id="text_13">
      <text style="font-family:DejaVu Sans;font-size:8px;font-style:normal;font-weight:normal;" transform="translate(286.868255 330.40268)rotate(-45)">2A</text>
     </g>
    </g>
    <g id="xtick_14">
     <g id="line2d_14">
      <g>
       <use style="stroke:#000000;stroke-width:0.8;" x="308.434414" xlink:href="#m630fe68e50" y="311.635539"/>
      </g>
     </g>
     <g id="text_14">
      <text style="font-family:DejaVu Sans;font-size:8px;font-style:normal;font-weight:normal;" transform="translate(306.260945 330.40268)rotate(-45)">3A</text>
     </g>
    </g>
    <g id="xtick_15">
     <g id="line2d_15">
      <g>
       <use style="stroke:#000000;stroke-width:0.8;" x="327.827104" xlink:href="#m630fe68e50" y="311.635539"/>
      </g>
     </g>
     <g id="text_15">
      <text style="font-family:DejaVu Sans;font-size:8px;font-style:normal;font-weight:normal;" transform="translate(325.653635 330.40268)rotate(-45)">4A</text>
     </g>
    </g>
    <g id="xtick_16">
     <g id="line2d_16">
      <g>
       <use style="stroke:#000000;stroke-width:0.8;" x="347.219794" xlink:href="#m630fe68e50" y="311.635539"/>
      </g>
     </g>
     <g id="text_16">
      <text style="font-family:DejaVu Sans;font-size:8px;font-style:normal;font-weight:normal;" transform="translate(345.046324 330.40268)rotate(-45)">5A</text>
     </g>
    </g>
    <g id="xtick_17">
     <g id="line2d_17">
      <g>
       <use style="stroke:#000000;stroke-width:0.8;" x="366.612484" xlink:href="#m630fe68e50" y="311.635539"/>
      </g>
     </g>
     <g id="text_17">
      <text style="font-family:DejaVu Sans;font-size:8px;font-style:normal;font-weight:normal;" transform="translate(364.439014 330.40268)rotate(-45)">6A</text>
     </g>
    </g>
    <g id="xtick_18">
     <g id="line2d_18">
      <g>
       <use style="stroke:#000000;stroke-width:0.8;" x="386.005173" xlink:href="#m630fe68e50" y="311.635539"/>
      </g>
     </g>
     <g id="text_18">
      <text style="font-family:DejaVu Sans;font-size:8px;font-style:normal;font-weight:normal;" transform="translate(383.831704 330.40268)rotate(-45)">7A</text>
     </g>
    </g>
    <g id="xtick_19">
     <g id="line2d_19">
      <g>
       <use style="stroke:#000000;stroke-width:0.8;" x="405.397863" xlink:href="#m630fe68e50" y="311.635539"/>
      </g>
     </g>
     <g id="text_19">
      <text style="font-family:DejaVu Sans;font-size:8px;font-style:normal;font-weight:normal;" transform="translate(403.224394 330.40268)rotate(-45)">8A</text>
     </g>
    </g>
    <g id="xtick_20">
     <g id="line2d_20">
      <g>
       <use style="stroke:#000000;stroke-width:0.8;" x="424.790553" xlink:href="#m630fe68e50" y="311.635539"/>
      </g>
     </g>
     <g id="text_20">
      <text style="font-family:DejaVu Sans;font-size:8px;font-style:normal;font-weight:normal;" transform="translate(422.617083 330.40268)rotate(-45)">9A</text>
     </g>
    </g>
   </g>
   <g id="matplotlib.axis_2">
    <g id="ytick_1">
     <g id="line2d_21">
      <defs>
       <path d="M 0 0 
L -3.5 0 
" id="ma82b9c7df7" style="stroke:#000000;stroke-width:0.8;"/>
      </defs>
      <g>
       <use style="stroke:#000000;stroke-width:0.8;" x="33.64" xlink:href="#ma82b9c7df7" y="311.635539"/>
      </g>
     </g>
     <g id="text_21">
      <text style="font-family:DejaVu Sans;font-size:10px;font-style:normal;font-weight:normal;text-anchor:end;" transform="rotate(-0, 26.64, 315.434758)" x="26.64" y="315.434758">0.0</text>
     </g>
    </g>
    <g id="ytick_2">
     <g id="line2d_22">
      <g>
       <use style="stroke:#000000;stroke-width:0.8;" x="33.64" xlink:href="#ma82b9c7df7" y="250.985214"/>
      </g>
     </g>
     <g id="text_22">
      <text style="font-family:DejaVu Sans;font-size:10px;font-style:normal;font-weight:normal;text-anchor:end;" transform="rotate(-0, 26.64, 254.784432)" x="26.64" y="254.784432">0.2</text>
     </g>
    </g>
    <g id="ytick_3">
     <g id="line2d_23">
      <g>
       <use style="stroke:#000000;stroke-width:0.8;" x="33.64" xlink:href="#ma82b9c7df7" y="190.334888"/>
      </g>
     </g>
     <g id="text_23">
      <text style="font-family:DejaVu Sans;font-size:10px;font-style:normal;font-weight:normal;text-anchor:end;" transform="rotate(-0, 26.64, 194.134107)" x="26.64" y="194.134107">0.4</text>
     </g>
    </g>
    <g id="ytick_4">
     <g id="line2d_24">
      <g>
       <use style="stroke:#000000;stroke-width:0.8;" x="33.64" xlink:href="#ma82b9c7df7" y="129.684563"/>
      </g>
     </g>
     <g id="text_24">
      <text style="font-family:DejaVu Sans;font-size:10px;font-style:normal;font-weight:normal;text-anchor:end;" transform="rotate(-0, 26.64, 133.483782)" x="26.64" y="133.483782">0.6</text>
     </g>
    </g>
    <g id="ytick_5">
     <g id="line2d_25">
      <g>
       <use style="stroke:#000000;stroke-width:0.8;" x="33.64" xlink:href="#ma82b9c7df7" y="69.034238"/>
      </g>
     </g>
     <g id="text_25">
      <text style="font-family:DejaVu Sans;font-size:10px;font-style:normal;font-weight:normal;text-anchor:end;" transform="rotate(-0, 26.64, 72.833457)" x="26.64" y="72.833457">0.8</text>
     </g>
    </g>
   </g>
   <g id="patch_43">
    <path d="M 33.64 311.635539 
L 33.64 13.32 
" style="fill:none;stroke:#000000;stroke-linecap:square;stroke-linejoin:miter;stroke-width:0.8;"/>
   </g>
   <g id="patch_44">
    <path d="M 447.48 311.635539 
L 447.48 13.32 
" style="fill:none;stroke:#000000;stroke-linecap:square;stroke-linejoin:miter;stroke-width:0.8;"/>
   </g>
   <g id="patch_45">
    <path d="M 33.64 311.635539 
L 447.48 311.635539 
" style="fill:none;stroke:#000000;stroke-linecap:square;stroke-linejoin:miter;stroke-width:0.8;"/>
   </g>
   <g id="patch_46">
    <path d="M 33.64 13.32 
L 447.48 13.32 
" style="fill:none;stroke:#000000;stroke-linecap:square;stroke-linejoin:miter;stroke-width:0.8;"/>
   </g>
   <g id="legend_1">
    <g id="patch_47">
     <path d="M 207.842031 50.67625 
L 273.277969 50.67625 
Q 275.277969 50.67625 275.277969 48.67625 
L 275.277969 20.32 
Q 275.277969 18.32 273.277969 18.32 
L 207.842031 18.32 
Q 205.842031 18.32 205.842031 20.32 
L 205.842031 48.67625 
Q 205.842031 50.67625 207.842031 50.67625 
z
" style="fill:#ffffff;opacity:0.8;stroke:#cccccc;stroke-linejoin:miter;"/>
    </g>
    <g id="patch_48">
     <path d="M 209.842031 29.918437 
L 229.842031 29.918437 
L 229.842031 22.918437 
L 209.842031 22.918437 
z
" style="fill:#1f77b4;"/>
    </g>
    <g id="text_26">
     <text style="font-family:DejaVu Sans;font-size:10px;font-style:normal;font-weight:normal;text-anchor:start;" transform="rotate(-0, 237.842031, 29.918437)" x="237.842031" y="29.918437">Scores</text>
    </g>
    <g id="patch_49">
     <path d="M 209.842031 44.596562 
L 229.842031 44.596562 
L 229.842031 37.596562 
L 209.842031 37.596562 
z
" style="fill:#ff7f0e;"/>
    </g>
    <g id="text_27">
     <text style="font-family:DejaVu Sans;font-size:10px;font-style:normal;font-weight:normal;text-anchor:start;" transform="rotate(-0, 237.842031, 44.596562)" x="237.842031" y="44.596562">Bases</text>
    </g>
   </g>
  </g>
 </g>
 <defs>
  <clipPath id="pa532e1990f">
   <rect height="298.315539" width="413.84" x="33.64" y="13.32"/>
  </clipPath>
 </defs>
</svg>
