<?xml version="1.0" encoding="utf-8" standalone="no"?>
<!DOCTYPE svg PUBLIC "-//W3C//DTD SVG 1.1//EN"
  "http://www.w3.org/Graphics/SVG/1.1/DTD/svg11.dtd">
<!-- Created with matplotlib (http://matplotlib.org/) -->
<svg height="345.6pt" version="1.1" viewBox="0 0 460.8 345.6" width="460.8pt" xmlns="http://www.w3.org/2000/svg" xmlns:xlink="http://www.w3.org/1999/xlink">
 <defs>
  <style type="text/css">
*{stroke-linecap:butt;stroke-linejoin:round;}
  </style>
 </defs>
 <g id="figure_1">
  <g id="patch_1">
   <path d="M 0 345.6 
L 460.8 345.6 
L 460.8 0 
L 0 0 
z
" style="fill:#ffffff;"/>
  </g>
  <g id="axes_1">
   <g id="patch_2">
    <path d="M 33.64 311.861973 
L 447.48 311.861973 
L 447.48 13.32 
L 33.64 13.32 
z
" style="fill:#ffffff;"/>
   </g>
   <g id="patch_3">
    <path clip-path="url(#pe95f40327d)" d="M 52.450909 311.861973 
L 58.066106 311.861973 
L 58.066106 84.401422 
L 52.450909 84.401422 
z
" style="fill:#1f77b4;"/>
   </g>
   <g id="patch_4">
    <path clip-path="url(#pe95f40327d)" d="M 80.526893 311.861973 
L 86.14209 311.861973 
L 86.14209 198.131698 
L 80.526893 198.131698 
z
" style="fill:#1f77b4;"/>
   </g>
   <g id="patch_5">
    <path clip-path="url(#pe95f40327d)" d="M 108.602877 311.861973 
L 114.218073 311.861973 
L 114.218073 198.131698 
L 108.602877 198.131698 
z
" style="fill:#1f77b4;"/>
   </g>
   <g id="patch_6">
    <path clip-path="url(#pe95f40327d)" d="M 136.67886 311.861973 
L 142.294057 311.861973 
L 142.294057 84.401422 
L 136.67886 84.401422 
z
" style="fill:#1f77b4;"/>
   </g>
   <g id="patch_7">
    <path clip-path="url(#pe95f40327d)" d="M 164.754844 311.861973 
L 170.370041 311.861973 
L 170.370041 145.80126 
L 164.754844 145.80126 
z
" style="fill:#1f77b4;"/>
   </g>
   <g id="patch_8">
    <path clip-path="url(#pe95f40327d)" d="M 192.830828 311.861973 
L 198.446024 311.861973 
L 198.446024 188.654175 
L 192.830828 188.654175 
z
" style="fill:#1f77b4;"/>
   </g>
   <g id="patch_9">
    <path clip-path="url(#pe95f40327d)" d="M 220.906811 311.861973 
L 226.522008 311.861973 
L 226.522008 177.82272 
L 220.906811 177.82272 
z
" style="fill:#1f77b4;"/>
   </g>
   <g id="patch_10">
    <path clip-path="url(#pe95f40327d)" d="M 248.982795 311.861973 
L 254.597992 311.861973 
L 254.597992 131.112071 
L 248.982795 131.112071 
z
" style="fill:#1f77b4;"/>
   </g>
   <g id="patch_11">
    <path clip-path="url(#pe95f40327d)" d="M 277.058779 311.861973 
L 282.673976 311.861973 
L 282.673976 27.536284 
L 277.058779 27.536284 
z
" style="fill:#1f77b4;"/>
   </g>
   <g id="patch_12">
    <path clip-path="url(#pe95f40327d)" d="M 305.134763 311.861973 
L 310.749959 311.861973 
L 310.749959 74.923899 
L 305.134763 74.923899 
z
" style="fill:#1f77b4;"/>
   </g>
   <g id="patch_13">
    <path clip-path="url(#pe95f40327d)" d="M 333.210746 311.861973 
L 338.825943 311.861973 
L 338.825943 169.699129 
L 333.210746 169.699129 
z
" style="fill:#1f77b4;"/>
   </g>
   <g id="patch_14">
    <path clip-path="url(#pe95f40327d)" d="M 361.28673 311.861973 
L 366.901927 311.861973 
L 366.901927 169.699129 
L 361.28673 169.699129 
z
" style="fill:#1f77b4;"/>
   </g>
   <g id="patch_15">
    <path clip-path="url(#pe95f40327d)" d="M 389.362714 311.861973 
L 394.97791 311.861973 
L 394.97791 149.954289 
L 389.362714 149.954289 
z
" style="fill:#1f77b4;"/>
   </g>
   <g id="patch_16">
    <path clip-path="url(#pe95f40327d)" d="M 417.438697 311.861973 
L 423.053894 311.861973 
L 423.053894 179.966445 
L 417.438697 179.966445 
z
" style="fill:#1f77b4;"/>
   </g>
   <g id="patch_17">
    <path clip-path="url(#pe95f40327d)" d="M 58.066106 311.861973 
L 63.681303 311.861973 
L 63.681303 84.401422 
L 58.066106 84.401422 
z
" style="fill:#ff7f0e;"/>
   </g>
   <g id="patch_18">
    <path clip-path="url(#pe95f40327d)" d="M 86.14209 311.861973 
L 91.757286 311.861973 
L 91.757286 198.131698 
L 86.14209 198.131698 
z
" style="fill:#ff7f0e;"/>
   </g>
   <g id="patch_19">
    <path clip-path="url(#pe95f40327d)" d="M 114.218073 311.861973 
L 119.83327 311.861973 
L 119.83327 198.131698 
L 114.218073 198.131698 
z
" style="fill:#ff7f0e;"/>
   </g>
   <g id="patch_20">
    <path clip-path="url(#pe95f40327d)" d="M 142.294057 311.861973 
L 147.909254 311.861973 
L 147.909254 84.401422 
L 142.294057 84.401422 
z
" style="fill:#ff7f0e;"/>
   </g>
   <g id="patch_21">
    <path clip-path="url(#pe95f40327d)" d="M 170.370041 311.861973 
L 175.985237 311.861973 
L 175.985237 153.532923 
L 170.370041 153.532923 
z
" style="fill:#ff7f0e;"/>
   </g>
   <g id="patch_22">
    <path clip-path="url(#pe95f40327d)" d="M 198.446024 311.861973 
L 204.061221 311.861973 
L 204.061221 165.552712 
L 198.446024 165.552712 
z
" style="fill:#ff7f0e;"/>
   </g>
   <g id="patch_23">
    <path clip-path="url(#pe95f40327d)" d="M 226.522008 311.861973 
L 232.137205 311.861973 
L 232.137205 198.131698 
L 226.522008 198.131698 
z
" style="fill:#ff7f0e;"/>
   </g>
   <g id="patch_24">
    <path clip-path="url(#pe95f40327d)" d="M 254.597992 311.861973 
L 260.213189 311.861973 
L 260.213189 127.050275 
L 254.597992 127.050275 
z
" style="fill:#ff7f0e;"/>
   </g>
   <g id="patch_25">
    <path clip-path="url(#pe95f40327d)" d="M 282.673976 311.861973 
L 288.289172 311.861973 
L 288.289172 27.536284 
L 282.673976 27.536284 
z
" style="fill:#ff7f0e;"/>
   </g>
   <g id="patch_26">
    <path clip-path="url(#pe95f40327d)" d="M 310.749959 311.861973 
L 316.365156 311.861973 
L 316.365156 74.923899 
L 310.749959 74.923899 
z
" style="fill:#ff7f0e;"/>
   </g>
   <g id="patch_27">
    <path clip-path="url(#pe95f40327d)" d="M 338.825943 311.861973 
L 344.44114 311.861973 
L 344.44114 169.699129 
L 338.825943 169.699129 
z
" style="fill:#ff7f0e;"/>
   </g>
   <g id="patch_28">
    <path clip-path="url(#pe95f40327d)" d="M 366.901927 311.861973 
L 372.517123 311.861973 
L 372.517123 122.311514 
L 366.901927 122.311514 
z
" style="fill:#ff7f0e;"/>
   </g>
   <g id="patch_29">
    <path clip-path="url(#pe95f40327d)" d="M 394.97791 311.861973 
L 400.593107 311.861973 
L 400.593107 165.750161 
L 394.97791 165.750161 
z
" style="fill:#ff7f0e;"/>
   </g>
   <g id="patch_30">
    <path clip-path="url(#pe95f40327d)" d="M 423.053894 311.861973 
L 428.669091 311.861973 
L 428.669091 195.762317 
L 423.053894 195.762317 
z
" style="fill:#ff7f0e;"/>
   </g>
   <g id="matplotlib.axis_1">
    <g id="xtick_1">
     <g id="line2d_1">
      <defs>
       <path d="M 0 0 
L 0 3.5 
" id="mc88981221f" style="stroke:#000000;stroke-width:0.8;"/>
      </defs>
      <g>
       <use style="stroke:#000000;stroke-width:0.8;" x="58.066106" xlink:href="#mc88981221f" y="311.861973"/>
      </g>
     </g>
     <g id="text_1">
      <text style="font-family:DejaVu Sans;font-size:9px;font-style:normal;font-weight:normal;" transform="translate(51.136037 332.501755)rotate(-25)">65A</text>
     </g>
    </g>
    <g id="xtick_2">
     <g id="line2d_2">
      <g>
       <use style="stroke:#000000;stroke-width:0.8;" x="86.14209" xlink:href="#mc88981221f" y="311.861973"/>
      </g>
     </g>
     <g id="text_2">
      <text style="font-family:DejaVu Sans;font-size:9px;font-style:normal;font-weight:normal;" transform="translate(79.21202 332.501755)rotate(-25)">66A</text>
     </g>
    </g>
    <g id="xtick_3">
     <g id="line2d_3">
      <g>
       <use style="stroke:#000000;stroke-width:0.8;" x="114.218073" xlink:href="#mc88981221f" y="311.861973"/>
      </g>
     </g>
     <g id="text_3">
      <text style="font-family:DejaVu Sans;font-size:9px;font-style:normal;font-weight:normal;" transform="translate(107.288004 332.501755)rotate(-25)">67A</text>
     </g>
    </g>
    <g id="xtick_4">
     <g id="line2d_4">
      <g>
       <use style="stroke:#000000;stroke-width:0.8;" x="142.294057" xlink:href="#mc88981221f" y="311.861973"/>
      </g>
     </g>
     <g id="text_4">
      <text style="font-family:DejaVu Sans;font-size:9px;font-style:normal;font-weight:normal;" transform="translate(135.363988 332.501755)rotate(-25)">68A</text>
     </g>
    </g>
    <g id="xtick_5">
     <g id="line2d_5">
      <g>
       <use style="stroke:#000000;stroke-width:0.8;" x="170.370041" xlink:href="#mc88981221f" y="311.861973"/>
      </g>
     </g>
     <g id="text_5">
      <text style="font-family:DejaVu Sans;font-size:9px;font-style:normal;font-weight:normal;" transform="translate(163.439972 332.501755)rotate(-25)">69A</text>
     </g>
    </g>
    <g id="xtick_6">
     <g id="line2d_6">
      <g>
       <use style="stroke:#000000;stroke-width:0.8;" x="198.446024" xlink:href="#mc88981221f" y="311.861973"/>
      </g>
     </g>
     <g id="text_6">
      <text style="font-family:DejaVu Sans;font-size:9px;font-style:normal;font-weight:normal;" transform="translate(191.515955 332.501755)rotate(-25)">70A</text>
     </g>
    </g>
    <g id="xtick_7">
     <g id="line2d_7">
      <g>
       <use style="stroke:#000000;stroke-width:0.8;" x="226.522008" xlink:href="#mc88981221f" y="311.861973"/>
      </g>
     </g>
     <g id="text_7">
      <text style="font-family:DejaVu Sans;font-size:9px;font-style:normal;font-weight:normal;" transform="translate(219.591939 332.501755)rotate(-25)">71A</text>
     </g>
    </g>
    <g id="xtick_8">
     <g id="line2d_8">
      <g>
       <use style="stroke:#000000;stroke-width:0.8;" x="254.597992" xlink:href="#mc88981221f" y="311.861973"/>
      </g>
     </g>
     <g id="text_8">
      <text style="font-family:DejaVu Sans;font-size:9px;font-style:normal;font-weight:normal;" transform="translate(247.667923 332.501755)rotate(-25)">72A</text>
     </g>
    </g>
    <g id="xtick_9">
     <g id="line2d_9">
      <g>
       <use style="stroke:#000000;stroke-width:0.8;" x="282.673976" xlink:href="#mc88981221f" y="311.861973"/>
      </g>
     </g>
     <g id="text_9">
      <text style="font-family:DejaVu Sans;font-size:9px;font-style:normal;font-weight:normal;" transform="translate(275.743906 332.501755)rotate(-25)">73A</text>
     </g>
    </g>
    <g id="xtick_10">
     <g id="line2d_10">
      <g>
       <use style="stroke:#000000;stroke-width:0.8;" x="310.749959" xlink:href="#mc88981221f" y="311.861973"/>
      </g>
     </g>
     <g id="text_10">
      <text style="font-family:DejaVu Sans;font-size:9px;font-style:normal;font-weight:normal;" transform="translate(303.81989 332.501755)rotate(-25)">74A</text>
     </g>
    </g>
    <g id="xtick_11">
     <g id="line2d_11">
      <g>
       <use style="stroke:#000000;stroke-width:0.8;" x="338.825943" xlink:href="#mc88981221f" y="311.861973"/>
      </g>
     </g>
     <g id="text_11">
      <text style="font-family:DejaVu Sans;font-size:9px;font-style:normal;font-weight:normal;" transform="translate(331.895874 332.501755)rotate(-25)">75A</text>
     </g>
    </g>
    <g id="xtick_12">
     <g id="line2d_12">
      <g>
       <use style="stroke:#000000;stroke-width:0.8;" x="366.901927" xlink:href="#mc88981221f" y="311.861973"/>
      </g>
     </g>
     <g id="text_12">
      <text style="font-family:DejaVu Sans;font-size:9px;font-style:normal;font-weight:normal;" transform="translate(359.971858 332.501755)rotate(-25)">76A</text>
     </g>
    </g>
    <g id="xtick_13">
     <g id="line2d_13">
      <g>
       <use style="stroke:#000000;stroke-width:0.8;" x="394.97791" xlink:href="#mc88981221f" y="311.861973"/>
      </g>
     </g>
     <g id="text_13">
      <text style="font-family:DejaVu Sans;font-size:9px;font-style:normal;font-weight:normal;" transform="translate(388.047841 332.501755)rotate(-25)">77A</text>
     </g>
    </g>
    <g id="xtick_14">
     <g id="line2d_14">
      <g>
       <use style="stroke:#000000;stroke-width:0.8;" x="423.053894" xlink:href="#mc88981221f" y="311.861973"/>
      </g>
     </g>
     <g id="text_14">
      <text style="font-family:DejaVu Sans;font-size:9px;font-style:normal;font-weight:normal;" transform="translate(416.123825 332.501755)rotate(-25)">78A</text>
     </g>
    </g>
   </g>
   <g id="matplotlib.axis_2">
    <g id="ytick_1">
     <g id="line2d_15">
      <defs>
       <path d="M 0 0 
L -3.5 0 
" id="m3a8af00514" style="stroke:#000000;stroke-width:0.8;"/>
      </defs>
      <g>
       <use style="stroke:#000000;stroke-width:0.8;" x="33.64" xlink:href="#m3a8af00514" y="311.861973"/>
      </g>
     </g>
     <g id="text_15">
      <text style="font-family:DejaVu Sans;font-size:10px;font-style:normal;font-weight:normal;text-anchor:end;" transform="rotate(-0, 26.64, 315.661192)" x="26.64" y="315.661192">0.0</text>
     </g>
    </g>
    <g id="ytick_2">
     <g id="line2d_16">
      <g>
       <use style="stroke:#000000;stroke-width:0.8;" x="33.64" xlink:href="#m3a8af00514" y="254.996835"/>
      </g>
     </g>
     <g id="text_16">
      <text style="font-family:DejaVu Sans;font-size:10px;font-style:normal;font-weight:normal;text-anchor:end;" transform="rotate(-0, 26.64, 258.796054)" x="26.64" y="258.796054">0.2</text>
     </g>
    </g>
    <g id="ytick_3">
     <g id="line2d_17">
      <g>
       <use style="stroke:#000000;stroke-width:0.8;" x="33.64" xlink:href="#m3a8af00514" y="198.131698"/>
      </g>
     </g>
     <g id="text_17">
      <text style="font-family:DejaVu Sans;font-size:10px;font-style:normal;font-weight:normal;text-anchor:end;" transform="rotate(-0, 26.64, 201.930916)" x="26.64" y="201.930916">0.4</text>
     </g>
    </g>
    <g id="ytick_4">
     <g id="line2d_18">
      <g>
       <use style="stroke:#000000;stroke-width:0.8;" x="33.64" xlink:href="#m3a8af00514" y="141.26656"/>
      </g>
     </g>
     <g id="text_18">
      <text style="font-family:DejaVu Sans;font-size:10px;font-style:normal;font-weight:normal;text-anchor:end;" transform="rotate(-0, 26.64, 145.065779)" x="26.64" y="145.065779">0.6</text>
     </g>
    </g>
    <g id="ytick_5">
     <g id="line2d_19">
      <g>
       <use style="stroke:#000000;stroke-width:0.8;" x="33.64" xlink:href="#m3a8af00514" y="84.401422"/>
      </g>
     </g>
     <g id="text_19">
      <text style="font-family:DejaVu Sans;font-size:10px;font-style:normal;font-weight:normal;text-anchor:end;" transform="rotate(-0, 26.64, 88.200641)" x="26.64" y="88.200641">0.8</text>
     </g>
    </g>
    <g id="ytick_6">
     <g id="line2d_20">
      <g>
       <use style="stroke:#000000;stroke-width:0.8;" x="33.64" xlink:href="#m3a8af00514" y="27.536284"/>
      </g>
     </g>
     <g id="text_20">
      <text style="font-family:DejaVu Sans;font-size:10px;font-style:normal;font-weight:normal;text-anchor:end;" transform="rotate(-0, 26.64, 31.335503)" x="26.64" y="31.335503">1.0</text>
     </g>
    </g>
   </g>
   <g id="patch_31">
    <path d="M 33.64 311.861973 
L 33.64 13.32 
" style="fill:none;stroke:#000000;stroke-linecap:square;stroke-linejoin:miter;stroke-width:0.8;"/>
   </g>
   <g id="patch_32">
    <path d="M 447.48 311.861973 
L 447.48 13.32 
" style="fill:none;stroke:#000000;stroke-linecap:square;stroke-linejoin:miter;stroke-width:0.8;"/>
   </g>
   <g id="patch_33">
    <path d="M 33.64 311.861973 
L 447.48 311.861973 
" style="fill:none;stroke:#000000;stroke-linecap:square;stroke-linejoin:miter;stroke-width:0.8;"/>
   </g>
   <g id="patch_34">
    <path d="M 33.64 13.32 
L 447.48 13.32 
" style="fill:none;stroke:#000000;stroke-linecap:square;stroke-linejoin:miter;stroke-width:0.8;"/>
   </g>
   <g id="legend_1">
    <g id="patch_35">
     <path d="M 375.044062 50.67625 
L 440.48 50.67625 
Q 442.48 50.67625 442.48 48.67625 
L 442.48 20.32 
Q 442.48 18.32 440.48 18.32 
L 375.044062 18.32 
Q 373.044062 18.32 373.044062 20.32 
L 373.044062 48.67625 
Q 373.044062 50.67625 375.044062 50.67625 
z
" style="fill:#ffffff;opacity:0.8;stroke:#cccccc;stroke-linejoin:miter;"/>
    </g>
    <g id="patch_36">
     <path d="M 377.044062 29.918437 
L 397.044062 29.918437 
L 397.044062 22.918437 
L 377.044062 22.918437 
z
" style="fill:#1f77b4;"/>
    </g>
    <g id="text_21">
     <text style="font-family:DejaVu Sans;font-size:10px;font-style:normal;font-weight:normal;text-anchor:start;" transform="rotate(-0, 405.044062, 29.918437)" x="405.044062" y="29.918437">Scores</text>
    </g>
    <g id="patch_37">
     <path d="M 377.044062 44.596563 
L 397.044062 44.596563 
L 397.044062 37.596563 
L 377.044062 37.596563 
z
" style="fill:#ff7f0e;"/>
    </g>
    <g id="text_22">
     <text style="font-family:DejaVu Sans;font-size:10px;font-style:normal;font-weight:normal;text-anchor:start;" transform="rotate(-0, 405.044062, 44.596563)" x="405.044062" y="44.596563">Bases</text>
    </g>
   </g>
  </g>
 </g>
 <defs>
  <clipPath id="pe95f40327d">
   <rect height="298.541973" width="413.84" x="33.64" y="13.32"/>
  </clipPath>
 </defs>
</svg>
