<?xml version="1.0" encoding="utf-8" standalone="no"?>
<!DOCTYPE svg PUBLIC "-//W3C//DTD SVG 1.1//EN"
  "http://www.w3.org/Graphics/SVG/1.1/DTD/svg11.dtd">
<!-- Created with matplotlib (http://matplotlib.org/) -->
<svg height="345.6pt" version="1.1" viewBox="0 0 460.8 345.6" width="460.8pt" xmlns="http://www.w3.org/2000/svg" xmlns:xlink="http://www.w3.org/1999/xlink">
 <defs>
  <style type="text/css">
*{stroke-linecap:butt;stroke-linejoin:round;}
  </style>
 </defs>
 <g id="figure_1">
  <g id="patch_1">
   <path d="M 0 345.6 
L 460.8 345.6 
L 460.8 0 
L 0 0 
z
" style="fill:#ffffff;"/>
  </g>
  <g id="axes_1">
   <g id="patch_2">
    <path d="M 33.64 314.193366 
L 447.48 314.193366 
L 447.48 13.32 
L 33.64 13.32 
z
" style="fill:#ffffff;"/>
   </g>
   <g id="patch_3">
    <path clip-path="url(#p43f8808349)" d="M 52.450909 314.193366 
L 58.066106 314.193366 
L 58.066106 84.956516 
L 52.450909 84.956516 
z
" style="fill:#1f77b4;"/>
   </g>
   <g id="patch_4">
    <path clip-path="url(#p43f8808349)" d="M 80.526893 314.193366 
L 86.14209 314.193366 
L 86.14209 199.574941 
L 80.526893 199.574941 
z
" style="fill:#1f77b4;"/>
   </g>
   <g id="patch_5">
    <path clip-path="url(#p43f8808349)" d="M 108.602877 314.193366 
L 114.218073 314.193366 
L 114.218073 199.574941 
L 108.602877 199.574941 
z
" style="fill:#1f77b4;"/>
   </g>
   <g id="patch_6">
    <path clip-path="url(#p43f8808349)" d="M 136.67886 314.193366 
L 142.294057 314.193366 
L 142.294057 84.956516 
L 136.67886 84.956516 
z
" style="fill:#1f77b4;"/>
   </g>
   <g id="patch_7">
    <path clip-path="url(#p43f8808349)" d="M 164.754844 314.193366 
L 170.370041 314.193366 
L 170.370041 146.835841 
L 164.754844 146.835841 
z
" style="fill:#1f77b4;"/>
   </g>
   <g id="patch_8">
    <path clip-path="url(#p43f8808349)" d="M 192.830828 314.193366 
L 198.446024 314.193366 
L 198.446024 190.023406 
L 192.830828 190.023406 
z
" style="fill:#1f77b4;"/>
   </g>
   <g id="patch_9">
    <path clip-path="url(#p43f8808349)" d="M 220.906811 314.193366 
L 226.522008 314.193366 
L 226.522008 179.107365 
L 220.906811 179.107365 
z
" style="fill:#1f77b4;"/>
   </g>
   <g id="patch_10">
    <path clip-path="url(#p43f8808349)" d="M 248.982795 314.193366 
L 254.597992 314.193366 
L 254.597992 132.03194 
L 248.982795 132.03194 
z
" style="fill:#1f77b4;"/>
   </g>
   <g id="patch_11">
    <path clip-path="url(#p43f8808349)" d="M 277.058779 314.193366 
L 282.673976 314.193366 
L 282.673976 27.647303 
L 277.058779 27.647303 
z
" style="fill:#1f77b4;"/>
   </g>
   <g id="patch_12">
    <path clip-path="url(#p43f8808349)" d="M 305.134763 314.193366 
L 310.749959 314.193366 
L 310.749959 75.40498 
L 305.134763 75.40498 
z
" style="fill:#1f77b4;"/>
   </g>
   <g id="patch_13">
    <path clip-path="url(#p43f8808349)" d="M 333.210746 314.193366 
L 338.825943 314.193366 
L 338.825943 170.920335 
L 333.210746 170.920335 
z
" style="fill:#1f77b4;"/>
   </g>
   <g id="patch_14">
    <path clip-path="url(#p43f8808349)" d="M 361.28673 314.193366 
L 366.901927 314.193366 
L 366.901927 170.920335 
L 361.28673 170.920335 
z
" style="fill:#1f77b4;"/>
   </g>
   <g id="patch_15">
    <path clip-path="url(#p43f8808349)" d="M 389.362714 314.193366 
L 394.97791 314.193366 
L 394.97791 151.021303 
L 389.362714 151.021303 
z
" style="fill:#1f77b4;"/>
   </g>
   <g id="patch_16">
    <path clip-path="url(#p43f8808349)" d="M 417.438697 314.193366 
L 423.053894 314.193366 
L 423.053894 181.267831 
L 417.438697 181.267831 
z
" style="fill:#1f77b4;"/>
   </g>
   <g id="patch_17">
    <path clip-path="url(#p43f8808349)" d="M 58.066106 314.193366 
L 63.681303 314.193366 
L 63.681303 84.956516 
L 58.066106 84.956516 
z
" style="fill:#ff7f0e;"/>
   </g>
   <g id="patch_18">
    <path clip-path="url(#p43f8808349)" d="M 86.14209 314.193366 
L 91.757286 314.193366 
L 91.757286 199.574941 
L 86.14209 199.574941 
z
" style="fill:#ff7f0e;"/>
   </g>
   <g id="patch_19">
    <path clip-path="url(#p43f8808349)" d="M 114.218073 314.193366 
L 119.83327 314.193366 
L 119.83327 199.574941 
L 114.218073 199.574941 
z
" style="fill:#ff7f0e;"/>
   </g>
   <g id="patch_20">
    <path clip-path="url(#p43f8808349)" d="M 142.294057 314.193366 
L 147.909254 314.193366 
L 147.909254 84.956516 
L 142.294057 84.956516 
z
" style="fill:#ff7f0e;"/>
   </g>
   <g id="patch_21">
    <path clip-path="url(#p43f8808349)" d="M 170.370041 314.193366 
L 175.985237 314.193366 
L 175.985237 154.627883 
L 170.370041 154.627883 
z
" style="fill:#ff7f0e;"/>
   </g>
   <g id="patch_22">
    <path clip-path="url(#p43f8808349)" d="M 198.446024 314.193366 
L 204.061221 314.193366 
L 204.061221 166.741538 
L 198.446024 166.741538 
z
" style="fill:#ff7f0e;"/>
   </g>
   <g id="patch_23">
    <path clip-path="url(#p43f8808349)" d="M 226.522008 314.193366 
L 232.137205 314.193366 
L 232.137205 199.574941 
L 226.522008 199.574941 
z
" style="fill:#ff7f0e;"/>
   </g>
   <g id="patch_24">
    <path clip-path="url(#p43f8808349)" d="M 254.597992 314.193366 
L 260.213189 314.193366 
L 260.213189 127.938425 
L 254.597992 127.938425 
z
" style="fill:#ff7f0e;"/>
   </g>
   <g id="patch_25">
    <path clip-path="url(#p43f8808349)" d="M 282.673976 314.193366 
L 288.289172 314.193366 
L 288.289172 27.647303 
L 282.673976 27.647303 
z
" style="fill:#ff7f0e;"/>
   </g>
   <g id="patch_26">
    <path clip-path="url(#p43f8808349)" d="M 310.749959 314.193366 
L 316.365156 314.193366 
L 316.365156 75.40498 
L 310.749959 75.40498 
z
" style="fill:#ff7f0e;"/>
   </g>
   <g id="patch_27">
    <path clip-path="url(#p43f8808349)" d="M 338.825943 314.193366 
L 344.44114 314.193366 
L 344.44114 170.920335 
L 338.825943 170.920335 
z
" style="fill:#ff7f0e;"/>
   </g>
   <g id="patch_28">
    <path clip-path="url(#p43f8808349)" d="M 366.901927 314.193366 
L 372.517123 314.193366 
L 372.517123 123.162658 
L 366.901927 123.162658 
z
" style="fill:#ff7f0e;"/>
   </g>
   <g id="patch_29">
    <path clip-path="url(#p43f8808349)" d="M 394.97791 314.193366 
L 400.593107 314.193366 
L 400.593107 166.940528 
L 394.97791 166.940528 
z
" style="fill:#ff7f0e;"/>
   </g>
   <g id="patch_30">
    <path clip-path="url(#p43f8808349)" d="M 423.053894 314.193366 
L 428.669091 314.193366 
L 428.669091 197.187057 
L 423.053894 197.187057 
z
" style="fill:#ff7f0e;"/>
   </g>
   <g id="matplotlib.axis_1">
    <g id="xtick_1">
     <g id="line2d_1">
      <defs>
       <path d="M 0 0 
L 0 3.5 
" id="mdf1db2a8eb" style="stroke:#000000;stroke-width:0.8;"/>
      </defs>
      <g>
       <use style="stroke:#000000;stroke-width:0.8;" x="58.066106" xlink:href="#mdf1db2a8eb" y="314.193366"/>
      </g>
     </g>
     <g id="text_1">
      <text style="font-family:DejaVu Sans;font-size:9px;font-style:normal;font-weight:normal;" transform="translate(50.204343 332.356501)rotate(-15)">65A</text>
     </g>
    </g>
    <g id="xtick_2">
     <g id="line2d_2">
      <g>
       <use style="stroke:#000000;stroke-width:0.8;" x="86.14209" xlink:href="#mdf1db2a8eb" y="314.193366"/>
      </g>
     </g>
     <g id="text_2">
      <text style="font-family:DejaVu Sans;font-size:9px;font-style:normal;font-weight:normal;" transform="translate(78.280326 332.356501)rotate(-15)">66A</text>
     </g>
    </g>
    <g id="xtick_3">
     <g id="line2d_3">
      <g>
       <use style="stroke:#000000;stroke-width:0.8;" x="114.218073" xlink:href="#mdf1db2a8eb" y="314.193366"/>
      </g>
     </g>
     <g id="text_3">
      <text style="font-family:DejaVu Sans;font-size:9px;font-style:normal;font-weight:normal;" transform="translate(106.35631 332.356501)rotate(-15)">67A</text>
     </g>
    </g>
    <g id="xtick_4">
     <g id="line2d_4">
      <g>
       <use style="stroke:#000000;stroke-width:0.8;" x="142.294057" xlink:href="#mdf1db2a8eb" y="314.193366"/>
      </g>
     </g>
     <g id="text_4">
      <text style="font-family:DejaVu Sans;font-size:9px;font-style:normal;font-weight:normal;" transform="translate(134.432294 332.356501)rotate(-15)">68A</text>
     </g>
    </g>
    <g id="xtick_5">
     <g id="line2d_5">
      <g>
       <use style="stroke:#000000;stroke-width:0.8;" x="170.370041" xlink:href="#mdf1db2a8eb" y="314.193366"/>
      </g>
     </g>
     <g id="text_5">
      <text style="font-family:DejaVu Sans;font-size:9px;font-style:normal;font-weight:normal;" transform="translate(162.508278 332.356501)rotate(-15)">69A</text>
     </g>
    </g>
    <g id="xtick_6">
     <g id="line2d_6">
      <g>
       <use style="stroke:#000000;stroke-width:0.8;" x="198.446024" xlink:href="#mdf1db2a8eb" y="314.193366"/>
      </g>
     </g>
     <g id="text_6">
      <text style="font-family:DejaVu Sans;font-size:9px;font-style:normal;font-weight:normal;" transform="translate(190.584261 332.356501)rotate(-15)">70A</text>
     </g>
    </g>
    <g id="xtick_7">
     <g id="line2d_7">
      <g>
       <use style="stroke:#000000;stroke-width:0.8;" x="226.522008" xlink:href="#mdf1db2a8eb" y="314.193366"/>
      </g>
     </g>
     <g id="text_7">
      <text style="font-family:DejaVu Sans;font-size:9px;font-style:normal;font-weight:normal;" transform="translate(218.660245 332.356501)rotate(-15)">71A</text>
     </g>
    </g>
    <g id="xtick_8">
     <g id="line2d_8">
      <g>
       <use style="stroke:#000000;stroke-width:0.8;" x="254.597992" xlink:href="#mdf1db2a8eb" y="314.193366"/>
      </g>
     </g>
     <g id="text_8">
      <text style="font-family:DejaVu Sans;font-size:9px;font-style:normal;font-weight:normal;" transform="translate(246.736229 332.356501)rotate(-15)">72A</text>
     </g>
    </g>
    <g id="xtick_9">
     <g id="line2d_9">
      <g>
       <use style="stroke:#000000;stroke-width:0.8;" x="282.673976" xlink:href="#mdf1db2a8eb" y="314.193366"/>
      </g>
     </g>
     <g id="text_9">
      <text style="font-family:DejaVu Sans;font-size:9px;font-style:normal;font-weight:normal;" transform="translate(274.812212 332.356501)rotate(-15)">73A</text>
     </g>
    </g>
    <g id="xtick_10">
     <g id="line2d_10">
      <g>
       <use style="stroke:#000000;stroke-width:0.8;" x="310.749959" xlink:href="#mdf1db2a8eb" y="314.193366"/>
      </g>
     </g>
     <g id="text_10">
      <text style="font-family:DejaVu Sans;font-size:9px;font-style:normal;font-weight:normal;" transform="translate(302.888196 332.356501)rotate(-15)">74A</text>
     </g>
    </g>
    <g id="xtick_11">
     <g id="line2d_11">
      <g>
       <use style="stroke:#000000;stroke-width:0.8;" x="338.825943" xlink:href="#mdf1db2a8eb" y="314.193366"/>
      </g>
     </g>
     <g id="text_11">
      <text style="font-family:DejaVu Sans;font-size:9px;font-style:normal;font-weight:normal;" transform="translate(330.96418 332.356501)rotate(-15)">75A</text>
     </g>
    </g>
    <g id="xtick_12">
     <g id="line2d_12">
      <g>
       <use style="stroke:#000000;stroke-width:0.8;" x="366.901927" xlink:href="#mdf1db2a8eb" y="314.193366"/>
      </g>
     </g>
     <g id="text_12">
      <text style="font-family:DejaVu Sans;font-size:9px;font-style:normal;font-weight:normal;" transform="translate(359.040164 332.356501)rotate(-15)">76A</text>
     </g>
    </g>
    <g id="xtick_13">
     <g id="line2d_13">
      <g>
       <use style="stroke:#000000;stroke-width:0.8;" x="394.97791" xlink:href="#mdf1db2a8eb" y="314.193366"/>
      </g>
     </g>
     <g id="text_13">
      <text style="font-family:DejaVu Sans;font-size:9px;font-style:normal;font-weight:normal;" transform="translate(387.116147 332.356501)rotate(-15)">77A</text>
     </g>
    </g>
    <g id="xtick_14">
     <g id="line2d_14">
      <g>
       <use style="stroke:#000000;stroke-width:0.8;" x="423.053894" xlink:href="#mdf1db2a8eb" y="314.193366"/>
      </g>
     </g>
     <g id="text_14">
      <text style="font-family:DejaVu Sans;font-size:9px;font-style:normal;font-weight:normal;" transform="translate(415.192131 332.356501)rotate(-15)">78A</text>
     </g>
    </g>
   </g>
   <g id="matplotlib.axis_2">
    <g id="ytick_1">
     <g id="line2d_15">
      <defs>
       <path d="M 0 0 
L -3.5 0 
" id="m90a07ffe28" style="stroke:#000000;stroke-width:0.8;"/>
      </defs>
      <g>
       <use style="stroke:#000000;stroke-width:0.8;" x="33.64" xlink:href="#m90a07ffe28" y="314.193366"/>
      </g>
     </g>
     <g id="text_15">
      <text style="font-family:DejaVu Sans;font-size:10px;font-style:normal;font-weight:normal;text-anchor:end;" transform="rotate(-0, 26.64, 317.992585)" x="26.64" y="317.992585">0.0</text>
     </g>
    </g>
    <g id="ytick_2">
     <g id="line2d_16">
      <g>
       <use style="stroke:#000000;stroke-width:0.8;" x="33.64" xlink:href="#m90a07ffe28" y="256.884154"/>
      </g>
     </g>
     <g id="text_16">
      <text style="font-family:DejaVu Sans;font-size:10px;font-style:normal;font-weight:normal;text-anchor:end;" transform="rotate(-0, 26.64, 260.683372)" x="26.64" y="260.683372">0.2</text>
     </g>
    </g>
    <g id="ytick_3">
     <g id="line2d_17">
      <g>
       <use style="stroke:#000000;stroke-width:0.8;" x="33.64" xlink:href="#m90a07ffe28" y="199.574941"/>
      </g>
     </g>
     <g id="text_17">
      <text style="font-family:DejaVu Sans;font-size:10px;font-style:normal;font-weight:normal;text-anchor:end;" transform="rotate(-0, 26.64, 203.37416)" x="26.64" y="203.37416">0.4</text>
     </g>
    </g>
    <g id="ytick_4">
     <g id="line2d_18">
      <g>
       <use style="stroke:#000000;stroke-width:0.8;" x="33.64" xlink:href="#m90a07ffe28" y="142.265728"/>
      </g>
     </g>
     <g id="text_18">
      <text style="font-family:DejaVu Sans;font-size:10px;font-style:normal;font-weight:normal;text-anchor:end;" transform="rotate(-0, 26.64, 146.064947)" x="26.64" y="146.064947">0.6</text>
     </g>
    </g>
    <g id="ytick_5">
     <g id="line2d_19">
      <g>
       <use style="stroke:#000000;stroke-width:0.8;" x="33.64" xlink:href="#m90a07ffe28" y="84.956516"/>
      </g>
     </g>
     <g id="text_19">
      <text style="font-family:DejaVu Sans;font-size:10px;font-style:normal;font-weight:normal;text-anchor:end;" transform="rotate(-0, 26.64, 88.755735)" x="26.64" y="88.755735">0.8</text>
     </g>
    </g>
    <g id="ytick_6">
     <g id="line2d_20">
      <g>
       <use style="stroke:#000000;stroke-width:0.8;" x="33.64" xlink:href="#m90a07ffe28" y="27.647303"/>
      </g>
     </g>
     <g id="text_20">
      <text style="font-family:DejaVu Sans;font-size:10px;font-style:normal;font-weight:normal;text-anchor:end;" transform="rotate(-0, 26.64, 31.446522)" x="26.64" y="31.446522">1.0</text>
     </g>
    </g>
   </g>
   <g id="patch_31">
    <path d="M 33.64 314.193366 
L 33.64 13.32 
" style="fill:none;stroke:#000000;stroke-linecap:square;stroke-linejoin:miter;stroke-width:0.8;"/>
   </g>
   <g id="patch_32">
    <path d="M 447.48 314.193366 
L 447.48 13.32 
" style="fill:none;stroke:#000000;stroke-linecap:square;stroke-linejoin:miter;stroke-width:0.8;"/>
   </g>
   <g id="patch_33">
    <path d="M 33.64 314.193366 
L 447.48 314.193366 
" style="fill:none;stroke:#000000;stroke-linecap:square;stroke-linejoin:miter;stroke-width:0.8;"/>
   </g>
   <g id="patch_34">
    <path d="M 33.64 13.32 
L 447.48 13.32 
" style="fill:none;stroke:#000000;stroke-linecap:square;stroke-linejoin:miter;stroke-width:0.8;"/>
   </g>
   <g id="legend_1">
    <g id="patch_35">
     <path d="M 375.044062 50.67625 
L 440.48 50.67625 
Q 442.48 50.67625 442.48 48.67625 
L 442.48 20.32 
Q 442.48 18.32 440.48 18.32 
L 375.044062 18.32 
Q 373.044062 18.32 373.044062 20.32 
L 373.044062 48.67625 
Q 373.044062 50.67625 375.044062 50.67625 
z
" style="fill:#ffffff;opacity:0.8;stroke:#cccccc;stroke-linejoin:miter;"/>
    </g>
    <g id="patch_36">
     <path d="M 377.044062 29.918437 
L 397.044062 29.918437 
L 397.044062 22.918437 
L 377.044062 22.918437 
z
" style="fill:#1f77b4;"/>
    </g>
    <g id="text_21">
     <text style="font-family:DejaVu Sans;font-size:10px;font-style:normal;font-weight:normal;text-anchor:start;" transform="rotate(-0, 405.044062, 29.918437)" x="405.044062" y="29.918437">Scores</text>
    </g>
    <g id="patch_37">
     <path d="M 377.044062 44.596563 
L 397.044062 44.596563 
L 397.044062 37.596563 
L 377.044062 37.596563 
z
" style="fill:#ff7f0e;"/>
    </g>
    <g id="text_22">
     <text style="font-family:DejaVu Sans;font-size:10px;font-style:normal;font-weight:normal;text-anchor:start;" transform="rotate(-0, 405.044062, 44.596563)" x="405.044062" y="44.596563">Bases</text>
    </g>
   </g>
  </g>
 </g>
 <defs>
  <clipPath id="p43f8808349">
   <rect height="300.873366" width="413.84" x="33.64" y="13.32"/>
  </clipPath>
 </defs>
</svg>
