<?xml version="1.0" encoding="utf-8" standalone="no"?>
<!DOCTYPE svg PUBLIC "-//W3C//DTD SVG 1.1//EN"
  "http://www.w3.org/Graphics/SVG/1.1/DTD/svg11.dtd">
<!-- Created with matplotlib (http://matplotlib.org/) -->
<svg height="345.6pt" version="1.1" viewBox="0 0 460.8 345.6" width="460.8pt" xmlns="http://www.w3.org/2000/svg" xmlns:xlink="http://www.w3.org/1999/xlink">
 <defs>
  <style type="text/css">
*{stroke-linecap:butt;stroke-linejoin:round;}
  </style>
 </defs>
 <g id="figure_1">
  <g id="patch_1">
   <path d="M 0 345.6 
L 460.8 345.6 
L 460.8 0 
L 0 0 
z
" style="fill:#ffffff;"/>
  </g>
  <g id="axes_1">
   <g id="patch_2">
    <path d="M 57.6 307.584 
L 414.72 307.584 
L 414.72 41.472 
L 57.6 41.472 
z
" style="fill:#ffffff;"/>
   </g>
   <g id="patch_3">
    <path clip-path="url(#pe8b5d288eb)" d="M 73.832727 307.584 
L 75.48072 307.584 
L 75.48072 178.122574 
L 73.832727 178.122574 
z
" style="fill:#1f77b4;"/>
   </g>
   <g id="patch_4">
    <path clip-path="url(#pe8b5d288eb)" d="M 82.07269 307.584 
L 83.720683 307.584 
L 83.720683 171.529194 
L 82.07269 171.529194 
z
" style="fill:#1f77b4;"/>
   </g>
   <g id="patch_5">
    <path clip-path="url(#pe8b5d288eb)" d="M 90.312653 307.584 
L 91.960646 307.584 
L 91.960646 73.511944 
L 90.312653 73.511944 
z
" style="fill:#1f77b4;"/>
   </g>
   <g id="patch_6">
    <path clip-path="url(#pe8b5d288eb)" d="M 98.552617 307.584 
L 100.200609 307.584 
L 100.200609 94.523265 
L 98.552617 94.523265 
z
" style="fill:#1f77b4;"/>
   </g>
   <g id="patch_7">
    <path clip-path="url(#pe8b5d288eb)" d="M 106.79258 307.584 
L 108.440572 307.584 
L 108.440572 128.920305 
L 106.79258 128.920305 
z
" style="fill:#1f77b4;"/>
   </g>
   <g id="patch_8">
    <path clip-path="url(#pe8b5d288eb)" d="M 115.032543 307.584 
L 116.680535 307.584 
L 116.680535 156.376398 
L 115.032543 156.376398 
z
" style="fill:#1f77b4;"/>
   </g>
   <g id="patch_9">
    <path clip-path="url(#pe8b5d288eb)" d="M 123.272506 307.584 
L 124.920498 307.584 
L 124.920498 173.700653 
L 123.272506 173.700653 
z
" style="fill:#1f77b4;"/>
   </g>
   <g id="patch_10">
    <path clip-path="url(#pe8b5d288eb)" d="M 131.512469 307.584 
L 133.160461 307.584 
L 133.160461 156.44605 
L 131.512469 156.44605 
z
" style="fill:#1f77b4;"/>
   </g>
   <g id="patch_11">
    <path clip-path="url(#pe8b5d288eb)" d="M 139.752432 307.584 
L 141.400425 307.584 
L 141.400425 245.666991 
L 139.752432 245.666991 
z
" style="fill:#1f77b4;"/>
   </g>
   <g id="patch_12">
    <path clip-path="url(#pe8b5d288eb)" d="M 147.992395 307.584 
L 149.640388 307.584 
L 149.640388 253.613754 
L 147.992395 253.613754 
z
" style="fill:#1f77b4;"/>
   </g>
   <g id="patch_13">
    <path clip-path="url(#pe8b5d288eb)" d="M 156.232358 307.584 
L 157.880351 307.584 
L 157.880351 178.657501 
L 156.232358 178.657501 
z
" style="fill:#1f77b4;"/>
   </g>
   <g id="patch_14">
    <path clip-path="url(#pe8b5d288eb)" d="M 164.472321 307.584 
L 166.120314 307.584 
L 166.120314 201.53929 
L 164.472321 201.53929 
z
" style="fill:#1f77b4;"/>
   </g>
   <g id="patch_15">
    <path clip-path="url(#pe8b5d288eb)" d="M 172.712284 307.584 
L 174.360277 307.584 
L 174.360277 227.536959 
L 172.712284 227.536959 
z
" style="fill:#1f77b4;"/>
   </g>
   <g id="patch_16">
    <path clip-path="url(#pe8b5d288eb)" d="M 180.952247 307.584 
L 182.60024 307.584 
L 182.60024 68.18111 
L 180.952247 68.18111 
z
" style="fill:#1f77b4;"/>
   </g>
   <g id="patch_17">
    <path clip-path="url(#pe8b5d288eb)" d="M 189.19221 307.584 
L 190.840203 307.584 
L 190.840203 114.560754 
L 189.19221 114.560754 
z
" style="fill:#1f77b4;"/>
   </g>
   <g id="patch_18">
    <path clip-path="url(#pe8b5d288eb)" d="M 197.432174 307.584 
L 199.080166 307.584 
L 199.080166 228.195662 
L 197.432174 228.195662 
z
" style="fill:#1f77b4;"/>
   </g>
   <g id="patch_19">
    <path clip-path="url(#pe8b5d288eb)" d="M 205.672137 307.584 
L 207.320129 307.584 
L 207.320129 181.454197 
L 205.672137 181.454197 
z
" style="fill:#1f77b4;"/>
   </g>
   <g id="patch_20">
    <path clip-path="url(#pe8b5d288eb)" d="M 213.9121 307.584 
L 215.560092 307.584 
L 215.560092 202.660987 
L 213.9121 202.660987 
z
" style="fill:#1f77b4;"/>
   </g>
   <g id="patch_21">
    <path clip-path="url(#pe8b5d288eb)" d="M 222.152063 307.584 
L 223.800055 307.584 
L 223.800055 107.920052 
L 222.152063 107.920052 
z
" style="fill:#1f77b4;"/>
   </g>
   <g id="patch_22">
    <path clip-path="url(#pe8b5d288eb)" d="M 230.392026 307.584 
L 232.040018 307.584 
L 232.040018 93.930057 
L 230.392026 93.930057 
z
" style="fill:#1f77b4;"/>
   </g>
   <g id="patch_23">
    <path clip-path="url(#pe8b5d288eb)" d="M 238.631989 307.584 
L 240.279982 307.584 
L 240.279982 65.757967 
L 238.631989 65.757967 
z
" style="fill:#1f77b4;"/>
   </g>
   <g id="patch_24">
    <path clip-path="url(#pe8b5d288eb)" d="M 246.871952 307.584 
L 248.519945 307.584 
L 248.519945 129.611978 
L 246.871952 129.611978 
z
" style="fill:#1f77b4;"/>
   </g>
   <g id="patch_25">
    <path clip-path="url(#pe8b5d288eb)" d="M 255.111915 307.584 
L 256.759908 307.584 
L 256.759908 186.989608 
L 255.111915 186.989608 
z
" style="fill:#1f77b4;"/>
   </g>
   <g id="patch_26">
    <path clip-path="url(#pe8b5d288eb)" d="M 263.351878 307.584 
L 264.999871 307.584 
L 264.999871 238.083742 
L 263.351878 238.083742 
z
" style="fill:#1f77b4;"/>
   </g>
   <g id="patch_27">
    <path clip-path="url(#pe8b5d288eb)" d="M 271.591841 307.584 
L 273.239834 307.584 
L 273.239834 118.856926 
L 271.591841 118.856926 
z
" style="fill:#1f77b4;"/>
   </g>
   <g id="patch_28">
    <path clip-path="url(#pe8b5d288eb)" d="M 279.831804 307.584 
L 281.479797 307.584 
L 281.479797 211.871306 
L 279.831804 211.871306 
z
" style="fill:#1f77b4;"/>
   </g>
   <g id="patch_29">
    <path clip-path="url(#pe8b5d288eb)" d="M 288.071767 307.584 
L 289.71976 307.584 
L 289.71976 139.468475 
L 288.071767 139.468475 
z
" style="fill:#1f77b4;"/>
   </g>
   <g id="patch_30">
    <path clip-path="url(#pe8b5d288eb)" d="M 296.311731 307.584 
L 297.959723 307.584 
L 297.959723 173.527346 
L 296.311731 173.527346 
z
" style="fill:#1f77b4;"/>
   </g>
   <g id="patch_31">
    <path clip-path="url(#pe8b5d288eb)" d="M 304.551694 307.584 
L 306.199686 307.584 
L 306.199686 73.53609 
L 304.551694 73.53609 
z
" style="fill:#1f77b4;"/>
   </g>
   <g id="patch_32">
    <path clip-path="url(#pe8b5d288eb)" d="M 312.791657 307.584 
L 314.439649 307.584 
L 314.439649 65.184298 
L 312.791657 65.184298 
z
" style="fill:#1f77b4;"/>
   </g>
   <g id="patch_33">
    <path clip-path="url(#pe8b5d288eb)" d="M 321.03162 307.584 
L 322.679612 307.584 
L 322.679612 134.246409 
L 321.03162 134.246409 
z
" style="fill:#1f77b4;"/>
   </g>
   <g id="patch_34">
    <path clip-path="url(#pe8b5d288eb)" d="M 329.271583 307.584 
L 330.919575 307.584 
L 330.919575 98.97044 
L 329.271583 98.97044 
z
" style="fill:#1f77b4;"/>
   </g>
   <g id="patch_35">
    <path clip-path="url(#pe8b5d288eb)" d="M 337.511546 307.584 
L 339.159539 307.584 
L 339.159539 54.144 
L 337.511546 54.144 
z
" style="fill:#1f77b4;"/>
   </g>
   <g id="patch_36">
    <path clip-path="url(#pe8b5d288eb)" d="M 345.751509 307.584 
L 347.399502 307.584 
L 347.399502 159.946058 
L 345.751509 159.946058 
z
" style="fill:#1f77b4;"/>
   </g>
   <g id="patch_37">
    <path clip-path="url(#pe8b5d288eb)" d="M 353.991472 307.584 
L 355.639465 307.584 
L 355.639465 160.742176 
L 353.991472 160.742176 
z
" style="fill:#1f77b4;"/>
   </g>
   <g id="patch_38">
    <path clip-path="url(#pe8b5d288eb)" d="M 362.231435 307.584 
L 363.879428 307.584 
L 363.879428 237.772091 
L 362.231435 237.772091 
z
" style="fill:#1f77b4;"/>
   </g>
   <g id="patch_39">
    <path clip-path="url(#pe8b5d288eb)" d="M 370.471398 307.584 
L 372.119391 307.584 
L 372.119391 153.088986 
L 370.471398 153.088986 
z
" style="fill:#1f77b4;"/>
   </g>
   <g id="patch_40">
    <path clip-path="url(#pe8b5d288eb)" d="M 378.711361 307.584 
L 380.359354 307.584 
L 380.359354 198.364503 
L 378.711361 198.364503 
z
" style="fill:#1f77b4;"/>
   </g>
   <g id="patch_41">
    <path clip-path="url(#pe8b5d288eb)" d="M 386.951324 307.584 
L 388.599317 307.584 
L 388.599317 181.294867 
L 386.951324 181.294867 
z
" style="fill:#1f77b4;"/>
   </g>
   <g id="patch_42">
    <path clip-path="url(#pe8b5d288eb)" d="M 395.191287 307.584 
L 396.83928 307.584 
L 396.83928 150.837294 
L 395.191287 150.837294 
z
" style="fill:#1f77b4;"/>
   </g>
   <g id="patch_43">
    <path clip-path="url(#pe8b5d288eb)" d="M 75.48072 307.584 
L 77.128713 307.584 
L 77.128713 194.286028 
L 75.48072 194.286028 
z
" style="fill:#ff7f0e;"/>
   </g>
   <g id="patch_44">
    <path clip-path="url(#pe8b5d288eb)" d="M 83.720683 307.584 
L 85.368676 307.584 
L 85.368676 161.161757 
L 83.720683 161.161757 
z
" style="fill:#ff7f0e;"/>
   </g>
   <g id="patch_45">
    <path clip-path="url(#pe8b5d288eb)" d="M 91.960646 307.584 
L 93.608639 307.584 
L 93.608639 73.511944 
L 91.960646 73.511944 
z
" style="fill:#ff7f0e;"/>
   </g>
   <g id="patch_46">
    <path clip-path="url(#pe8b5d288eb)" d="M 100.200609 307.584 
L 101.848602 307.584 
L 101.848602 94.523265 
L 100.200609 94.523265 
z
" style="fill:#ff7f0e;"/>
   </g>
   <g id="patch_47">
    <path clip-path="url(#pe8b5d288eb)" d="M 108.440572 307.584 
L 110.088565 307.584 
L 110.088565 128.920305 
L 108.440572 128.920305 
z
" style="fill:#ff7f0e;"/>
   </g>
   <g id="patch_48">
    <path clip-path="url(#pe8b5d288eb)" d="M 116.680535 307.584 
L 118.328528 307.584 
L 118.328528 194.091103 
L 116.680535 194.091103 
z
" style="fill:#ff7f0e;"/>
   </g>
   <g id="patch_49">
    <path clip-path="url(#pe8b5d288eb)" d="M 124.920498 307.584 
L 126.568491 307.584 
L 126.568491 225.568587 
L 124.920498 225.568587 
z
" style="fill:#ff7f0e;"/>
   </g>
   <g id="patch_50">
    <path clip-path="url(#pe8b5d288eb)" d="M 133.160461 307.584 
L 134.808454 307.584 
L 134.808454 150.717595 
L 133.160461 150.717595 
z
" style="fill:#ff7f0e;"/>
   </g>
   <g id="patch_51">
    <path clip-path="url(#pe8b5d288eb)" d="M 141.400425 307.584 
L 143.048417 307.584 
L 143.048417 241.845282 
L 141.400425 241.845282 
z
" style="fill:#ff7f0e;"/>
   </g>
   <g id="patch_52">
    <path clip-path="url(#pe8b5d288eb)" d="M 149.640388 307.584 
L 151.28838 307.584 
L 151.28838 239.307058 
L 149.640388 239.307058 
z
" style="fill:#ff7f0e;"/>
   </g>
   <g id="patch_53">
    <path clip-path="url(#pe8b5d288eb)" d="M 157.880351 307.584 
L 159.528343 307.584 
L 159.528343 190.766588 
L 157.880351 190.766588 
z
" style="fill:#ff7f0e;"/>
   </g>
   <g id="patch_54">
    <path clip-path="url(#pe8b5d288eb)" d="M 166.120314 307.584 
L 167.768306 307.584 
L 167.768306 211.673456 
L 166.120314 211.673456 
z
" style="fill:#ff7f0e;"/>
   </g>
   <g id="patch_55">
    <path clip-path="url(#pe8b5d288eb)" d="M 174.360277 307.584 
L 176.008269 307.584 
L 176.008269 227.616678 
L 174.360277 227.616678 
z
" style="fill:#ff7f0e;"/>
   </g>
   <g id="patch_56">
    <path clip-path="url(#pe8b5d288eb)" d="M 182.60024 307.584 
L 184.248233 307.584 
L 184.248233 68.18111 
L 182.60024 68.18111 
z
" style="fill:#ff7f0e;"/>
   </g>
   <g id="patch_57">
    <path clip-path="url(#pe8b5d288eb)" d="M 190.840203 307.584 
L 192.488196 307.584 
L 192.488196 114.560754 
L 190.840203 114.560754 
z
" style="fill:#ff7f0e;"/>
   </g>
   <g id="patch_58">
    <path clip-path="url(#pe8b5d288eb)" d="M 199.080166 307.584 
L 200.728159 307.584 
L 200.728159 223.822568 
L 199.080166 223.822568 
z
" style="fill:#ff7f0e;"/>
   </g>
   <g id="patch_59">
    <path clip-path="url(#pe8b5d288eb)" d="M 207.320129 307.584 
L 208.968122 307.584 
L 208.968122 181.454197 
L 207.320129 181.454197 
z
" style="fill:#ff7f0e;"/>
   </g>
   <g id="patch_60">
    <path clip-path="url(#pe8b5d288eb)" d="M 215.560092 307.584 
L 217.208085 307.584 
L 217.208085 208.418595 
L 215.560092 208.418595 
z
" style="fill:#ff7f0e;"/>
   </g>
   <g id="patch_61">
    <path clip-path="url(#pe8b5d288eb)" d="M 223.800055 307.584 
L 225.448048 307.584 
L 225.448048 107.920052 
L 223.800055 107.920052 
z
" style="fill:#ff7f0e;"/>
   </g>
   <g id="patch_62">
    <path clip-path="url(#pe8b5d288eb)" d="M 232.040018 307.584 
L 233.688011 307.584 
L 233.688011 93.930057 
L 232.040018 93.930057 
z
" style="fill:#ff7f0e;"/>
   </g>
   <g id="patch_63">
    <path clip-path="url(#pe8b5d288eb)" d="M 240.279982 307.584 
L 241.927974 307.584 
L 241.927974 65.757967 
L 240.279982 65.757967 
z
" style="fill:#ff7f0e;"/>
   </g>
   <g id="patch_64">
    <path clip-path="url(#pe8b5d288eb)" d="M 248.519945 307.584 
L 250.167937 307.584 
L 250.167937 129.611978 
L 248.519945 129.611978 
z
" style="fill:#ff7f0e;"/>
   </g>
   <g id="patch_65">
    <path clip-path="url(#pe8b5d288eb)" d="M 256.759908 307.584 
L 258.4079 307.584 
L 258.4079 186.32704 
L 256.759908 186.32704 
z
" style="fill:#ff7f0e;"/>
   </g>
   <g id="patch_66">
    <path clip-path="url(#pe8b5d288eb)" d="M 264.999871 307.584 
L 266.647863 307.584 
L 266.647863 182.830574 
L 264.999871 182.830574 
z
" style="fill:#ff7f0e;"/>
   </g>
   <g id="patch_67">
    <path clip-path="url(#pe8b5d288eb)" d="M 273.239834 307.584 
L 274.887826 307.584 
L 274.887826 118.856926 
L 273.239834 118.856926 
z
" style="fill:#ff7f0e;"/>
   </g>
   <g id="patch_68">
    <path clip-path="url(#pe8b5d288eb)" d="M 281.479797 307.584 
L 283.12779 307.584 
L 283.12779 211.871306 
L 281.479797 211.871306 
z
" style="fill:#ff7f0e;"/>
   </g>
   <g id="patch_69">
    <path clip-path="url(#pe8b5d288eb)" d="M 289.71976 307.584 
L 291.367753 307.584 
L 291.367753 142.365215 
L 289.71976 142.365215 
z
" style="fill:#ff7f0e;"/>
   </g>
   <g id="patch_70">
    <path clip-path="url(#pe8b5d288eb)" d="M 297.959723 307.584 
L 299.607716 307.584 
L 299.607716 173.794226 
L 297.959723 173.794226 
z
" style="fill:#ff7f0e;"/>
   </g>
   <g id="patch_71">
    <path clip-path="url(#pe8b5d288eb)" d="M 306.199686 307.584 
L 307.847679 307.584 
L 307.847679 73.53609 
L 306.199686 73.53609 
z
" style="fill:#ff7f0e;"/>
   </g>
   <g id="patch_72">
    <path clip-path="url(#pe8b5d288eb)" d="M 314.439649 307.584 
L 316.087642 307.584 
L 316.087642 65.184298 
L 314.439649 65.184298 
z
" style="fill:#ff7f0e;"/>
   </g>
   <g id="patch_73">
    <path clip-path="url(#pe8b5d288eb)" d="M 322.679612 307.584 
L 324.327605 307.584 
L 324.327605 133.872253 
L 322.679612 133.872253 
z
" style="fill:#ff7f0e;"/>
   </g>
   <g id="patch_74">
    <path clip-path="url(#pe8b5d288eb)" d="M 330.919575 307.584 
L 332.567568 307.584 
L 332.567568 98.97044 
L 330.919575 98.97044 
z
" style="fill:#ff7f0e;"/>
   </g>
   <g id="patch_75">
    <path clip-path="url(#pe8b5d288eb)" d="M 339.159539 307.584 
L 340.807531 307.584 
L 340.807531 54.144 
L 339.159539 54.144 
z
" style="fill:#ff7f0e;"/>
   </g>
   <g id="patch_76">
    <path clip-path="url(#pe8b5d288eb)" d="M 347.399502 307.584 
L 349.047494 307.584 
L 349.047494 202.542086 
L 347.399502 202.542086 
z
" style="fill:#ff7f0e;"/>
   </g>
   <g id="patch_77">
    <path clip-path="url(#pe8b5d288eb)" d="M 355.639465 307.584 
L 357.287457 307.584 
L 357.287457 200.323405 
L 355.639465 200.323405 
z
" style="fill:#ff7f0e;"/>
   </g>
   <g id="patch_78">
    <path clip-path="url(#pe8b5d288eb)" d="M 363.879428 307.584 
L 365.52742 307.584 
L 365.52742 235.040246 
L 363.879428 235.040246 
z
" style="fill:#ff7f0e;"/>
   </g>
   <g id="patch_79">
    <path clip-path="url(#pe8b5d288eb)" d="M 372.119391 307.584 
L 373.767383 307.584 
L 373.767383 157.273533 
L 372.119391 157.273533 
z
" style="fill:#ff7f0e;"/>
   </g>
   <g id="patch_80">
    <path clip-path="url(#pe8b5d288eb)" d="M 380.359354 307.584 
L 382.007347 307.584 
L 382.007347 198.364503 
L 380.359354 198.364503 
z
" style="fill:#ff7f0e;"/>
   </g>
   <g id="patch_81">
    <path clip-path="url(#pe8b5d288eb)" d="M 388.599317 307.584 
L 390.24731 307.584 
L 390.24731 183.913465 
L 388.599317 183.913465 
z
" style="fill:#ff7f0e;"/>
   </g>
   <g id="patch_82">
    <path clip-path="url(#pe8b5d288eb)" d="M 396.83928 307.584 
L 398.487273 307.584 
L 398.487273 150.837294 
L 396.83928 150.837294 
z
" style="fill:#ff7f0e;"/>
   </g>
   <g id="matplotlib.axis_1">
    <g id="xtick_1">
     <g id="line2d_1">
      <defs>
       <path d="M 0 0 
L 0 3.5 
" id="m4c9e966719" style="stroke:#000000;stroke-width:0.8;"/>
      </defs>
      <g>
       <use style="stroke:#000000;stroke-width:0.8;" x="75.48072" xlink:href="#m4c9e966719" y="307.584"/>
      </g>
     </g>
     <g id="text_1">
      <text style="font-family:DejaVu Sans;font-size:6px;font-style:normal;font-weight:normal;" transform="translate(72.500928 326.108736)rotate(-45)">85A</text>
     </g>
    </g>
    <g id="xtick_2">
     <g id="line2d_2">
      <g>
       <use style="stroke:#000000;stroke-width:0.8;" x="83.720683" xlink:href="#m4c9e966719" y="307.584"/>
      </g>
     </g>
     <g id="text_2">
      <text style="font-family:DejaVu Sans;font-size:6px;font-style:normal;font-weight:normal;" transform="translate(79.622226 328.346066)rotate(-45)">143F</text>
     </g>
    </g>
    <g id="xtick_3">
     <g id="line2d_3">
      <g>
       <use style="stroke:#000000;stroke-width:0.8;" x="91.960646" xlink:href="#m4c9e966719" y="307.584"/>
      </g>
     </g>
     <g id="text_3">
      <text style="font-family:DejaVu Sans;font-size:6px;font-style:normal;font-weight:normal;" transform="translate(87.629175 328.812093)rotate(-45)">144X</text>
     </g>
    </g>
    <g id="xtick_4">
     <g id="line2d_4">
      <g>
       <use style="stroke:#000000;stroke-width:0.8;" x="100.200609" xlink:href="#m4c9e966719" y="307.584"/>
      </g>
     </g>
     <g id="text_4">
      <text style="font-family:DejaVu Sans;font-size:6px;font-style:normal;font-weight:normal;" transform="translate(95.93112 328.688129)rotate(-45)">144K</text>
     </g>
    </g>
    <g id="xtick_5">
     <g id="line2d_5">
      <g>
       <use style="stroke:#000000;stroke-width:0.8;" x="108.440572" xlink:href="#m4c9e966719" y="307.584"/>
      </g>
     </g>
     <g id="text_5">
      <text style="font-family:DejaVu Sans;font-size:6px;font-style:normal;font-weight:normal;" transform="translate(105.456471 326.117354)rotate(-45)">90B</text>
     </g>
    </g>
    <g id="xtick_6">
     <g id="line2d_6">
      <g>
       <use style="stroke:#000000;stroke-width:0.8;" x="116.680535" xlink:href="#m4c9e966719" y="307.584"/>
      </g>
     </g>
     <g id="text_6">
      <text style="font-family:DejaVu Sans;font-size:6px;font-style:normal;font-weight:normal;" transform="translate(113.700743 326.108736)rotate(-45)">89A</text>
     </g>
    </g>
    <g id="xtick_7">
     <g id="line2d_7">
      <g>
       <use style="stroke:#000000;stroke-width:0.8;" x="124.920498" xlink:href="#m4c9e966719" y="307.584"/>
      </g>
     </g>
     <g id="text_7">
      <text style="font-family:DejaVu Sans;font-size:6px;font-style:normal;font-weight:normal;" transform="translate(121.940706 326.108736)rotate(-45)">91A</text>
     </g>
    </g>
    <g id="xtick_8">
     <g id="line2d_8">
      <g>
       <use style="stroke:#000000;stroke-width:0.8;" x="133.160461" xlink:href="#m4c9e966719" y="307.584"/>
      </g>
     </g>
     <g id="text_8">
      <text style="font-family:DejaVu Sans;font-size:6px;font-style:normal;font-weight:normal;" transform="translate(130.180669 326.108736)rotate(-45)">93A</text>
     </g>
    </g>
    <g id="xtick_9">
     <g id="line2d_9">
      <g>
       <use style="stroke:#000000;stroke-width:0.8;" x="141.400425" xlink:href="#m4c9e966719" y="307.584"/>
      </g>
     </g>
     <g id="text_9">
      <text style="font-family:DejaVu Sans;font-size:6px;font-style:normal;font-weight:normal;" transform="translate(136.888641 329.172718)rotate(-45)">144D</text>
     </g>
    </g>
    <g id="xtick_10">
     <g id="line2d_10">
      <g>
       <use style="stroke:#000000;stroke-width:0.8;" x="149.640388" xlink:href="#m4c9e966719" y="307.584"/>
      </g>
     </g>
     <g id="text_10">
      <text style="font-family:DejaVu Sans;font-size:6px;font-style:normal;font-weight:normal;" transform="translate(145.580048 328.269831)rotate(-45)">144L</text>
     </g>
    </g>
    <g id="xtick_11">
     <g id="line2d_11">
      <g>
       <use style="stroke:#000000;stroke-width:0.8;" x="157.880351" xlink:href="#m4c9e966719" y="307.584"/>
      </g>
     </g>
     <g id="text_11">
      <text style="font-family:DejaVu Sans;font-size:6px;font-style:normal;font-weight:normal;" transform="translate(154.900559 326.108736)rotate(-45)">83A</text>
     </g>
    </g>
    <g id="xtick_12">
     <g id="line2d_12">
      <g>
       <use style="stroke:#000000;stroke-width:0.8;" x="166.120314" xlink:href="#m4c9e966719" y="307.584"/>
      </g>
     </g>
     <g id="text_12">
      <text style="font-family:DejaVu Sans;font-size:6px;font-style:normal;font-weight:normal;" transform="translate(163.140522 326.108736)rotate(-45)">95A</text>
     </g>
    </g>
    <g id="xtick_13">
     <g id="line2d_13">
      <g>
       <use style="stroke:#000000;stroke-width:0.8;" x="174.360277" xlink:href="#m4c9e966719" y="307.584"/>
      </g>
     </g>
     <g id="text_13">
      <text style="font-family:DejaVu Sans;font-size:6px;font-style:normal;font-weight:normal;" transform="translate(171.380485 326.108736)rotate(-45)">97A</text>
     </g>
    </g>
    <g id="xtick_14">
     <g id="line2d_14">
      <g>
       <use style="stroke:#000000;stroke-width:0.8;" x="182.60024" xlink:href="#m4c9e966719" y="307.584"/>
      </g>
     </g>
     <g id="text_14">
      <text style="font-family:DejaVu Sans;font-size:6px;font-style:normal;font-weight:normal;" transform="translate(177.624418 330.100795)rotate(-45)">144W</text>
     </g>
    </g>
    <g id="xtick_15">
     <g id="line2d_15">
      <g>
       <use style="stroke:#000000;stroke-width:0.8;" x="190.840203" xlink:href="#m4c9e966719" y="307.584"/>
      </g>
     </g>
     <g id="text_15">
      <text style="font-family:DejaVu Sans;font-size:6px;font-style:normal;font-weight:normal;" transform="translate(186.48785 328.853857)rotate(-45)">144R</text>
     </g>
    </g>
    <g id="xtick_16">
     <g id="line2d_16">
      <g>
       <use style="stroke:#000000;stroke-width:0.8;" x="199.080166" xlink:href="#m4c9e966719" y="307.584"/>
      </g>
     </g>
     <g id="text_16">
      <text style="font-family:DejaVu Sans;font-size:6px;font-style:normal;font-weight:normal;" transform="translate(196.100374 326.108736)rotate(-45)">92A</text>
     </g>
    </g>
    <g id="xtick_17">
     <g id="line2d_17">
      <g>
       <use style="stroke:#000000;stroke-width:0.8;" x="207.320129" xlink:href="#m4c9e966719" y="307.584"/>
      </g>
     </g>
     <g id="text_17">
      <text style="font-family:DejaVu Sans;font-size:6px;font-style:normal;font-weight:normal;" transform="translate(203.1461 328.49721)rotate(-45)">144T</text>
     </g>
    </g>
    <g id="xtick_18">
     <g id="line2d_18">
      <g>
       <use style="stroke:#000000;stroke-width:0.8;" x="215.560092" xlink:href="#m4c9e966719" y="307.584"/>
      </g>
     </g>
     <g id="text_18">
      <text style="font-family:DejaVu Sans;font-size:6px;font-style:normal;font-weight:normal;" transform="translate(212.5803 326.108736)rotate(-45)">81A</text>
     </g>
    </g>
    <g id="xtick_19">
     <g id="line2d_19">
      <g>
       <use style="stroke:#000000;stroke-width:0.8;" x="223.800055" xlink:href="#m4c9e966719" y="307.584"/>
      </g>
     </g>
     <g id="text_19">
      <text style="font-family:DejaVu Sans;font-size:6px;font-style:normal;font-weight:normal;" transform="translate(219.470573 328.808116)rotate(-45)">144V</text>
     </g>
    </g>
    <g id="xtick_20">
     <g id="line2d_20">
      <g>
       <use style="stroke:#000000;stroke-width:0.8;" x="232.040018" xlink:href="#m4c9e966719" y="307.584"/>
      </g>
     </g>
     <g id="text_20">
      <text style="font-family:DejaVu Sans;font-size:6px;font-style:normal;font-weight:normal;" transform="translate(227.491775 329.245638)rotate(-45)">144Q</text>
     </g>
    </g>
    <g id="xtick_21">
     <g id="line2d_21">
      <g>
       <use style="stroke:#000000;stroke-width:0.8;" x="240.279982" xlink:href="#m4c9e966719" y="307.584"/>
      </g>
     </g>
     <g id="text_21">
      <text style="font-family:DejaVu Sans;font-size:6px;font-style:normal;font-weight:normal;" transform="translate(236.122525 328.464064)rotate(-45)">144P</text>
     </g>
    </g>
    <g id="xtick_22">
     <g id="line2d_22">
      <g>
       <use style="stroke:#000000;stroke-width:0.8;" x="248.519945" xlink:href="#m4c9e966719" y="307.584"/>
      </g>
     </g>
     <g id="text_22">
      <text style="font-family:DejaVu Sans;font-size:6px;font-style:normal;font-weight:normal;" transform="translate(245.540152 326.108736)rotate(-45)">94A</text>
     </g>
    </g>
    <g id="xtick_23">
     <g id="line2d_23">
      <g>
       <use style="stroke:#000000;stroke-width:0.8;" x="256.759908" xlink:href="#m4c9e966719" y="307.584"/>
      </g>
     </g>
     <g id="text_23">
      <text style="font-family:DejaVu Sans;font-size:6px;font-style:normal;font-weight:normal;" transform="translate(253.780116 326.108736)rotate(-45)">96A</text>
     </g>
    </g>
    <g id="xtick_24">
     <g id="line2d_24">
      <g>
       <use style="stroke:#000000;stroke-width:0.8;" x="264.999871" xlink:href="#m4c9e966719" y="307.584"/>
      </g>
     </g>
     <g id="text_24">
      <text style="font-family:DejaVu Sans;font-size:6px;font-style:normal;font-weight:normal;" transform="translate(260.774797 328.599298)rotate(-45)">144S</text>
     </g>
    </g>
    <g id="xtick_25">
     <g id="line2d_25">
      <g>
       <use style="stroke:#000000;stroke-width:0.8;" x="273.239834" xlink:href="#m4c9e966719" y="307.584"/>
      </g>
     </g>
     <g id="text_25">
      <text style="font-family:DejaVu Sans;font-size:6px;font-style:normal;font-weight:normal;" transform="translate(270.260042 326.108736)rotate(-45)">90A</text>
     </g>
    </g>
    <g id="xtick_26">
     <g id="line2d_26">
      <g>
       <use style="stroke:#000000;stroke-width:0.8;" x="281.479797" xlink:href="#m4c9e966719" y="307.584"/>
      </g>
     </g>
     <g id="text_26">
      <text style="font-family:DejaVu Sans;font-size:6px;font-style:normal;font-weight:normal;" transform="translate(277.146006 328.816734)rotate(-45)">143B</text>
     </g>
    </g>
    <g id="xtick_27">
     <g id="line2d_27">
      <g>
       <use style="stroke:#000000;stroke-width:0.8;" x="289.71976" xlink:href="#m4c9e966719" y="307.584"/>
      </g>
     </g>
     <g id="text_27">
      <text style="font-family:DejaVu Sans;font-size:6px;font-style:normal;font-weight:normal;" transform="translate(286.739968 326.108736)rotate(-45)">87A</text>
     </g>
    </g>
    <g id="xtick_28">
     <g id="line2d_28">
      <g>
       <use style="stroke:#000000;stroke-width:0.8;" x="297.959723" xlink:href="#m4c9e966719" y="307.584"/>
      </g>
     </g>
     <g id="text_28">
      <text style="font-family:DejaVu Sans;font-size:6px;font-style:normal;font-weight:normal;" transform="translate(294.455567 327.157463)rotate(-45)">144I</text>
     </g>
    </g>
    <g id="xtick_29">
     <g id="line2d_29">
      <g>
       <use style="stroke:#000000;stroke-width:0.8;" x="306.199686" xlink:href="#m4c9e966719" y="307.584"/>
      </g>
     </g>
     <g id="text_29">
      <text style="font-family:DejaVu Sans;font-size:6px;font-style:normal;font-weight:normal;" transform="translate(301.72602 329.096483)rotate(-45)">144H</text>
     </g>
    </g>
    <g id="xtick_30">
     <g id="line2d_30">
      <g>
       <use style="stroke:#000000;stroke-width:0.8;" x="314.439649" xlink:href="#m4c9e966719" y="307.584"/>
      </g>
     </g>
     <g id="text_30">
      <text style="font-family:DejaVu Sans;font-size:6px;font-style:normal;font-weight:normal;" transform="translate(311.429695 326.169061)rotate(-45)">90C</text>
     </g>
    </g>
    <g id="xtick_31">
     <g id="line2d_31">
      <g>
       <use style="stroke:#000000;stroke-width:0.8;" x="322.679612" xlink:href="#m4c9e966719" y="307.584"/>
      </g>
     </g>
     <g id="text_31">
      <text style="font-family:DejaVu Sans;font-size:6px;font-style:normal;font-weight:normal;" transform="translate(319.69982 326.108736)rotate(-45)">82A</text>
     </g>
    </g>
    <g id="xtick_32">
     <g id="line2d_32">
      <g>
       <use style="stroke:#000000;stroke-width:0.8;" x="330.919575" xlink:href="#m4c9e966719" y="307.584"/>
      </g>
     </g>
     <g id="text_32">
      <text style="font-family:DejaVu Sans;font-size:6px;font-style:normal;font-weight:normal;" transform="translate(327.415419 327.157463)rotate(-45)">144J</text>
     </g>
    </g>
    <g id="xtick_33">
     <g id="line2d_33">
      <g>
       <use style="stroke:#000000;stroke-width:0.8;" x="339.159539" xlink:href="#m4c9e966719" y="307.584"/>
      </g>
     </g>
     <g id="text_33">
      <text style="font-family:DejaVu Sans;font-size:6px;font-style:normal;font-weight:normal;" transform="translate(334.63748 329.193268)rotate(-45)">143G</text>
     </g>
    </g>
    <g id="xtick_34">
     <g id="line2d_34">
      <g>
       <use style="stroke:#000000;stroke-width:0.8;" x="347.399502" xlink:href="#m4c9e966719" y="307.584"/>
      </g>
     </g>
     <g id="text_34">
      <text style="font-family:DejaVu Sans;font-size:6px;font-style:normal;font-weight:normal;" transform="translate(344.419709 326.108736)rotate(-45)">88A</text>
     </g>
    </g>
    <g id="xtick_35">
     <g id="line2d_35">
      <g>
       <use style="stroke:#000000;stroke-width:0.8;" x="355.639465" xlink:href="#m4c9e966719" y="307.584"/>
      </g>
     </g>
     <g id="text_35">
      <text style="font-family:DejaVu Sans;font-size:6px;font-style:normal;font-weight:normal;" transform="translate(352.659673 326.108736)rotate(-45)">86A</text>
     </g>
    </g>
    <g id="xtick_36">
     <g id="line2d_36">
      <g>
       <use style="stroke:#000000;stroke-width:0.8;" x="363.879428" xlink:href="#m4c9e966719" y="307.584"/>
      </g>
     </g>
     <g id="text_36">
      <text style="font-family:DejaVu Sans;font-size:6px;font-style:normal;font-weight:normal;" transform="translate(359.549946 328.808116)rotate(-45)">144A</text>
     </g>
    </g>
    <g id="xtick_37">
     <g id="line2d_37">
      <g>
       <use style="stroke:#000000;stroke-width:0.8;" x="372.119391" xlink:href="#m4c9e966719" y="307.584"/>
      </g>
     </g>
     <g id="text_37">
      <text style="font-family:DejaVu Sans;font-size:6px;font-style:normal;font-weight:normal;" transform="translate(367.900615 328.586703)rotate(-45)">143E</text>
     </g>
    </g>
    <g id="xtick_38">
     <g id="line2d_38">
      <g>
       <use style="stroke:#000000;stroke-width:0.8;" x="380.359354" xlink:href="#m4c9e966719" y="307.584"/>
      </g>
     </g>
     <g id="text_38">
      <text style="font-family:DejaVu Sans;font-size:6px;font-style:normal;font-weight:normal;" transform="translate(377.379562 326.108736)rotate(-45)">84A</text>
     </g>
    </g>
    <g id="xtick_39">
     <g id="line2d_39">
      <g>
       <use style="stroke:#000000;stroke-width:0.8;" x="388.599317" xlink:href="#m4c9e966719" y="307.584"/>
      </g>
     </g>
     <g id="text_39">
      <text style="font-family:DejaVu Sans;font-size:6px;font-style:normal;font-weight:normal;" transform="translate(384.269835 328.808116)rotate(-45)">143A</text>
     </g>
    </g>
    <g id="xtick_40">
     <g id="line2d_40">
      <g>
       <use style="stroke:#000000;stroke-width:0.8;" x="396.83928" xlink:href="#m4c9e966719" y="307.584"/>
      </g>
     </g>
     <g id="text_40">
      <text style="font-family:DejaVu Sans;font-size:6px;font-style:normal;font-weight:normal;" transform="translate(392.505489 328.816734)rotate(-45)">144B</text>
     </g>
    </g>
   </g>
   <g id="matplotlib.axis_2">
    <g id="ytick_1">
     <g id="line2d_41">
      <defs>
       <path d="M 0 0 
L -3.5 0 
" id="mfec80a525f" style="stroke:#000000;stroke-width:0.8;"/>
      </defs>
      <g>
       <use style="stroke:#000000;stroke-width:0.8;" x="57.6" xlink:href="#mfec80a525f" y="307.584"/>
      </g>
     </g>
     <g id="text_41">
      <text style="font-family:DejaVu Sans;font-size:10px;font-style:normal;font-weight:normal;text-anchor:end;" transform="rotate(-0, 50.6, 311.383219)" x="50.6" y="311.383219">0.0</text>
     </g>
    </g>
    <g id="ytick_2">
     <g id="line2d_42">
      <g>
       <use style="stroke:#000000;stroke-width:0.8;" x="57.6" xlink:href="#mfec80a525f" y="256.69877"/>
      </g>
     </g>
     <g id="text_42">
      <text style="font-family:DejaVu Sans;font-size:10px;font-style:normal;font-weight:normal;text-anchor:end;" transform="rotate(-0, 50.6, 260.497989)" x="50.6" y="260.497989">0.2</text>
     </g>
    </g>
    <g id="ytick_3">
     <g id="line2d_43">
      <g>
       <use style="stroke:#000000;stroke-width:0.8;" x="57.6" xlink:href="#mfec80a525f" y="205.813541"/>
      </g>
     </g>
     <g id="text_43">
      <text style="font-family:DejaVu Sans;font-size:10px;font-style:normal;font-weight:normal;text-anchor:end;" transform="rotate(-0, 50.6, 209.61276)" x="50.6" y="209.61276">0.4</text>
     </g>
    </g>
    <g id="ytick_4">
     <g id="line2d_44">
      <g>
       <use style="stroke:#000000;stroke-width:0.8;" x="57.6" xlink:href="#mfec80a525f" y="154.928311"/>
      </g>
     </g>
     <g id="text_44">
      <text style="font-family:DejaVu Sans;font-size:10px;font-style:normal;font-weight:normal;text-anchor:end;" transform="rotate(-0, 50.6, 158.72753)" x="50.6" y="158.72753">0.6</text>
     </g>
    </g>
    <g id="ytick_5">
     <g id="line2d_45">
      <g>
       <use style="stroke:#000000;stroke-width:0.8;" x="57.6" xlink:href="#mfec80a525f" y="104.043082"/>
      </g>
     </g>
     <g id="text_45">
      <text style="font-family:DejaVu Sans;font-size:10px;font-style:normal;font-weight:normal;text-anchor:end;" transform="rotate(-0, 50.6, 107.8423)" x="50.6" y="107.8423">0.8</text>
     </g>
    </g>
    <g id="ytick_6">
     <g id="line2d_46">
      <g>
       <use style="stroke:#000000;stroke-width:0.8;" x="57.6" xlink:href="#mfec80a525f" y="53.157852"/>
      </g>
     </g>
     <g id="text_46">
      <text style="font-family:DejaVu Sans;font-size:10px;font-style:normal;font-weight:normal;text-anchor:end;" transform="rotate(-0, 50.6, 56.957071)" x="50.6" y="56.957071">1.0</text>
     </g>
    </g>
   </g>
   <g id="patch_83">
    <path d="M 57.6 307.584 
L 57.6 41.472 
" style="fill:none;stroke:#000000;stroke-linecap:square;stroke-linejoin:miter;stroke-width:0.8;"/>
   </g>
   <g id="patch_84">
    <path d="M 414.72 307.584 
L 414.72 41.472 
" style="fill:none;stroke:#000000;stroke-linecap:square;stroke-linejoin:miter;stroke-width:0.8;"/>
   </g>
   <g id="patch_85">
    <path d="M 57.6 307.584 
L 414.72 307.584 
" style="fill:none;stroke:#000000;stroke-linecap:square;stroke-linejoin:miter;stroke-width:0.8;"/>
   </g>
   <g id="patch_86">
    <path d="M 57.6 41.472 
L 414.72 41.472 
" style="fill:none;stroke:#000000;stroke-linecap:square;stroke-linejoin:miter;stroke-width:0.8;"/>
   </g>
   <g id="legend_1">
    <g id="patch_87">
     <path d="M 342.284063 78.82825 
L 407.72 78.82825 
Q 409.72 78.82825 409.72 76.82825 
L 409.72 48.472 
Q 409.72 46.472 407.72 46.472 
L 342.284063 46.472 
Q 340.284063 46.472 340.284063 48.472 
L 340.284063 76.82825 
Q 340.284063 78.82825 342.284063 78.82825 
z
" style="fill:#ffffff;opacity:0.8;stroke:#cccccc;stroke-linejoin:miter;"/>
    </g>
    <g id="patch_88">
     <path d="M 344.284063 58.070437 
L 364.284063 58.070437 
L 364.284063 51.070437 
L 344.284063 51.070437 
z
" style="fill:#1f77b4;"/>
    </g>
    <g id="text_47">
     <text style="font-family:DejaVu Sans;font-size:10px;font-style:normal;font-weight:normal;text-anchor:start;" transform="rotate(-0, 372.284063, 58.070437)" x="372.284063" y="58.070437">Scores</text>
    </g>
    <g id="patch_89">
     <path d="M 344.284063 72.748562 
L 364.284063 72.748562 
L 364.284063 65.748562 
L 344.284063 65.748562 
z
" style="fill:#ff7f0e;"/>
    </g>
    <g id="text_48">
     <text style="font-family:DejaVu Sans;font-size:10px;font-style:normal;font-weight:normal;text-anchor:start;" transform="rotate(-0, 372.284063, 72.748562)" x="372.284063" y="72.748562">Bases</text>
    </g>
   </g>
  </g>
 </g>
 <defs>
  <clipPath id="pe8b5d288eb">
   <rect height="266.112" width="357.12" x="57.6" y="41.472"/>
  </clipPath>
 </defs>
</svg>
