<?xml version="1.0" encoding="utf-8" standalone="no"?>
<!DOCTYPE svg PUBLIC "-//W3C//DTD SVG 1.1//EN"
  "http://www.w3.org/Graphics/SVG/1.1/DTD/svg11.dtd">
<!-- Created with matplotlib (http://matplotlib.org/) -->
<svg height="345.6pt" version="1.1" viewBox="0 0 460.8 345.6" width="460.8pt" xmlns="http://www.w3.org/2000/svg" xmlns:xlink="http://www.w3.org/1999/xlink">
 <defs>
  <style type="text/css">
*{stroke-linecap:butt;stroke-linejoin:round;}
  </style>
 </defs>
 <g id="figure_1">
  <g id="patch_1">
   <path d="M 0 345.6 
L 460.8 345.6 
L 460.8 0 
L 0 0 
z
" style="fill:#ffffff;"/>
  </g>
  <g id="axes_1">
   <g id="patch_2">
    <path d="M 33.64 291.322725 
L 446.262202 291.322725 
L 446.262202 13.32 
L 33.64 13.32 
z
" style="fill:#ffffff;"/>
   </g>
   <g id="patch_3">
    <path clip-path="url(#p32b00cfb15)" d="M 52.395555 291.322725 
L 66.288558 291.322725 
L 66.288558 54.284516 
L 52.395555 54.284516 
z
" style="fill:#1f77b4;"/>
   </g>
   <g id="patch_4">
    <path clip-path="url(#p32b00cfb15)" d="M 121.860572 291.322725 
L 135.753575 291.322725 
L 135.753575 114.74422 
L 121.860572 114.74422 
z
" style="fill:#1f77b4;"/>
   </g>
   <g id="patch_5">
    <path clip-path="url(#p32b00cfb15)" d="M 191.325589 291.322725 
L 205.218593 291.322725 
L 205.218593 36.940356 
L 191.325589 36.940356 
z
" style="fill:#1f77b4;"/>
   </g>
   <g id="patch_6">
    <path clip-path="url(#p32b00cfb15)" d="M 260.790606 291.322725 
L 274.68361 291.322725 
L 274.68361 26.558225 
L 260.790606 26.558225 
z
" style="fill:#1f77b4;"/>
   </g>
   <g id="patch_7">
    <path clip-path="url(#p32b00cfb15)" d="M 330.255624 291.322725 
L 344.148627 291.322725 
L 344.148627 42.780431 
L 330.255624 42.780431 
z
" style="fill:#1f77b4;"/>
   </g>
   <g id="patch_8">
    <path clip-path="url(#p32b00cfb15)" d="M 399.720641 291.322725 
L 413.613644 291.322725 
L 413.613644 84.003083 
L 399.720641 84.003083 
z
" style="fill:#1f77b4;"/>
   </g>
   <g id="patch_9">
    <path clip-path="url(#p32b00cfb15)" d="M 66.288558 291.322725 
L 80.181562 291.322725 
L 80.181562 56.82271 
L 66.288558 56.82271 
z
" style="fill:#ff7f0e;"/>
   </g>
   <g id="patch_10">
    <path clip-path="url(#p32b00cfb15)" d="M 135.753575 291.322725 
L 149.646579 291.322725 
L 149.646579 75.118335 
L 135.753575 75.118335 
z
" style="fill:#ff7f0e;"/>
   </g>
   <g id="patch_11">
    <path clip-path="url(#p32b00cfb15)" d="M 205.218593 291.322725 
L 219.111596 291.322725 
L 219.111596 56.759517 
L 205.218593 56.759517 
z
" style="fill:#ff7f0e;"/>
   </g>
   <g id="patch_12">
    <path clip-path="url(#p32b00cfb15)" d="M 274.68361 291.322725 
L 288.576613 291.322725 
L 288.576613 48.7836 
L 274.68361 48.7836 
z
" style="fill:#ff7f0e;"/>
   </g>
   <g id="patch_13">
    <path clip-path="url(#p32b00cfb15)" d="M 344.148627 291.322725 
L 358.04163 291.322725 
L 358.04163 41.92682 
L 344.148627 41.92682 
z
" style="fill:#ff7f0e;"/>
   </g>
   <g id="patch_14">
    <path clip-path="url(#p32b00cfb15)" d="M 413.613644 291.322725 
L 427.506648 291.322725 
L 427.506648 95.967717 
L 413.613644 95.967717 
z
" style="fill:#ff7f0e;"/>
   </g>
   <g id="matplotlib.axis_1">
    <g id="xtick_1">
     <g id="line2d_1">
      <defs>
       <path d="M 0 0 
L 0 3.5 
" id="ma95e70db72" style="stroke:#000000;stroke-width:0.8;"/>
      </defs>
      <g>
       <use style="stroke:#000000;stroke-width:0.8;" x="66.288558" xlink:href="#ma95e70db72" y="291.322725"/>
      </g>
     </g>
     <g id="text_1">
      <text style="font-family:DejaVu Sans;font-size:9px;font-style:normal;font-weight:normal;" transform="translate(55.563042 315.5022)rotate(-25)">Africa</text>
     </g>
    </g>
    <g id="xtick_2">
     <g id="line2d_2">
      <g>
       <use style="stroke:#000000;stroke-width:0.8;" x="135.753575" xlink:href="#ma95e70db72" y="291.322725"/>
      </g>
     </g>
     <g id="text_2">
      <text style="font-family:DejaVu Sans;font-size:9px;font-style:normal;font-weight:normal;" transform="translate(118.763915 321.344237)rotate(-25)">Australia</text>
     </g>
    </g>
    <g id="xtick_3">
     <g id="line2d_3">
      <g>
       <use style="stroke:#000000;stroke-width:0.8;" x="205.218593" xlink:href="#ma95e70db72" y="291.322725"/>
      </g>
     </g>
     <g id="text_3">
      <text style="font-family:DejaVu Sans;font-size:9px;font-style:normal;font-weight:normal;" transform="translate(191.173653 318.597944)rotate(-25)">Eurasia</text>
     </g>
    </g>
    <g id="xtick_4">
     <g id="line2d_4">
      <g>
       <use style="stroke:#000000;stroke-width:0.8;" x="274.68361" xlink:href="#ma95e70db72" y="291.322725"/>
      </g>
     </g>
     <g id="text_4">
      <text style="font-family:DejaVu Sans;font-size:9px;font-style:normal;font-weight:normal;" transform="translate(246.206923 332.057214)rotate(-25)">North America</text>
     </g>
    </g>
    <g id="xtick_5">
     <g id="line2d_5">
      <g>
       <use style="stroke:#000000;stroke-width:0.8;" x="344.148627" xlink:href="#ma95e70db72" y="291.322725"/>
      </g>
     </g>
     <g id="text_5">
      <text style="font-family:DejaVu Sans;font-size:9px;font-style:normal;font-weight:normal;" transform="translate(324.217431 324.087558)rotate(-25)">Papunesia</text>
     </g>
    </g>
    <g id="xtick_6">
     <g id="line2d_6">
      <g>
       <use style="stroke:#000000;stroke-width:0.8;" x="413.613644" xlink:href="#ma95e70db72" y="291.322725"/>
      </g>
     </g>
     <g id="text_6">
      <text style="font-family:DejaVu Sans;font-size:9px;font-style:normal;font-weight:normal;" transform="translate(384.690884 332.473228)rotate(-25)">South America</text>
     </g>
    </g>
   </g>
   <g id="matplotlib.axis_2">
    <g id="ytick_1">
     <g id="line2d_7">
      <defs>
       <path d="M 0 0 
L -3.5 0 
" id="ma5be6be90c" style="stroke:#000000;stroke-width:0.8;"/>
      </defs>
      <g>
       <use style="stroke:#000000;stroke-width:0.8;" x="33.64" xlink:href="#ma5be6be90c" y="291.322725"/>
      </g>
     </g>
     <g id="text_7">
      <text style="font-family:DejaVu Sans;font-size:10px;font-style:normal;font-weight:normal;text-anchor:end;" transform="rotate(-0, 26.64, 295.121944)" x="26.64" y="295.121944">0.0</text>
     </g>
    </g>
    <g id="ytick_2">
     <g id="line2d_8">
      <g>
       <use style="stroke:#000000;stroke-width:0.8;" x="33.64" xlink:href="#ma5be6be90c" y="252.392031"/>
      </g>
     </g>
     <g id="text_8">
      <text style="font-family:DejaVu Sans;font-size:10px;font-style:normal;font-weight:normal;text-anchor:end;" transform="rotate(-0, 26.64, 256.19125)" x="26.64" y="256.19125">0.1</text>
     </g>
    </g>
    <g id="ytick_3">
     <g id="line2d_9">
      <g>
       <use style="stroke:#000000;stroke-width:0.8;" x="33.64" xlink:href="#ma5be6be90c" y="213.461337"/>
      </g>
     </g>
     <g id="text_9">
      <text style="font-family:DejaVu Sans;font-size:10px;font-style:normal;font-weight:normal;text-anchor:end;" transform="rotate(-0, 26.64, 217.260556)" x="26.64" y="217.260556">0.2</text>
     </g>
    </g>
    <g id="ytick_4">
     <g id="line2d_10">
      <g>
       <use style="stroke:#000000;stroke-width:0.8;" x="33.64" xlink:href="#ma5be6be90c" y="174.530643"/>
      </g>
     </g>
     <g id="text_10">
      <text style="font-family:DejaVu Sans;font-size:10px;font-style:normal;font-weight:normal;text-anchor:end;" transform="rotate(-0, 26.64, 178.329862)" x="26.64" y="178.329862">0.3</text>
     </g>
    </g>
    <g id="ytick_5">
     <g id="line2d_11">
      <g>
       <use style="stroke:#000000;stroke-width:0.8;" x="33.64" xlink:href="#ma5be6be90c" y="135.599949"/>
      </g>
     </g>
     <g id="text_11">
      <text style="font-family:DejaVu Sans;font-size:10px;font-style:normal;font-weight:normal;text-anchor:end;" transform="rotate(-0, 26.64, 139.399168)" x="26.64" y="139.399168">0.4</text>
     </g>
    </g>
    <g id="ytick_6">
     <g id="line2d_12">
      <g>
       <use style="stroke:#000000;stroke-width:0.8;" x="33.64" xlink:href="#ma5be6be90c" y="96.669255"/>
      </g>
     </g>
     <g id="text_12">
      <text style="font-family:DejaVu Sans;font-size:10px;font-style:normal;font-weight:normal;text-anchor:end;" transform="rotate(-0, 26.64, 100.468474)" x="26.64" y="100.468474">0.5</text>
     </g>
    </g>
    <g id="ytick_7">
     <g id="line2d_13">
      <g>
       <use style="stroke:#000000;stroke-width:0.8;" x="33.64" xlink:href="#ma5be6be90c" y="57.738561"/>
      </g>
     </g>
     <g id="text_13">
      <text style="font-family:DejaVu Sans;font-size:10px;font-style:normal;font-weight:normal;text-anchor:end;" transform="rotate(-0, 26.64, 61.53778)" x="26.64" y="61.53778">0.6</text>
     </g>
    </g>
    <g id="ytick_8">
     <g id="line2d_14">
      <g>
       <use style="stroke:#000000;stroke-width:0.8;" x="33.64" xlink:href="#ma5be6be90c" y="18.807867"/>
      </g>
     </g>
     <g id="text_14">
      <text style="font-family:DejaVu Sans;font-size:10px;font-style:normal;font-weight:normal;text-anchor:end;" transform="rotate(-0, 26.64, 22.607086)" x="26.64" y="22.607086">0.7</text>
     </g>
    </g>
   </g>
   <g id="patch_15">
    <path d="M 33.64 291.322725 
L 33.64 13.32 
" style="fill:none;stroke:#000000;stroke-linecap:square;stroke-linejoin:miter;stroke-width:0.8;"/>
   </g>
   <g id="patch_16">
    <path d="M 446.262202 291.322725 
L 446.262202 13.32 
" style="fill:none;stroke:#000000;stroke-linecap:square;stroke-linejoin:miter;stroke-width:0.8;"/>
   </g>
   <g id="patch_17">
    <path d="M 33.64 291.322725 
L 446.262202 291.322725 
" style="fill:none;stroke:#000000;stroke-linecap:square;stroke-linejoin:miter;stroke-width:0.8;"/>
   </g>
   <g id="patch_18">
    <path d="M 33.64 13.32 
L 446.262202 13.32 
" style="fill:none;stroke:#000000;stroke-linecap:square;stroke-linejoin:miter;stroke-width:0.8;"/>
   </g>
   <g id="legend_1">
    <g id="patch_19">
     <path d="M 373.826265 50.67625 
L 439.262202 50.67625 
Q 441.262202 50.67625 441.262202 48.67625 
L 441.262202 20.32 
Q 441.262202 18.32 439.262202 18.32 
L 373.826265 18.32 
Q 371.826265 18.32 371.826265 20.32 
L 371.826265 48.67625 
Q 371.826265 50.67625 373.826265 50.67625 
z
" style="fill:#ffffff;opacity:0.8;stroke:#cccccc;stroke-linejoin:miter;"/>
    </g>
    <g id="patch_20">
     <path d="M 375.826265 29.918437 
L 395.826265 29.918437 
L 395.826265 22.918437 
L 375.826265 22.918437 
z
" style="fill:#1f77b4;"/>
    </g>
    <g id="text_15">
     <text style="font-family:DejaVu Sans;font-size:10px;font-style:normal;font-weight:normal;text-anchor:start;" transform="rotate(-0, 403.826265, 29.918437)" x="403.826265" y="29.918437">Scores</text>
    </g>
    <g id="patch_21">
     <path d="M 375.826265 44.596563 
L 395.826265 44.596563 
L 395.826265 37.596563 
L 375.826265 37.596563 
z
" style="fill:#ff7f0e;"/>
    </g>
    <g id="text_16">
     <text style="font-family:DejaVu Sans;font-size:10px;font-style:normal;font-weight:normal;text-anchor:start;" transform="rotate(-0, 403.826265, 44.596563)" x="403.826265" y="44.596563">Bases</text>
    </g>
   </g>
  </g>
 </g>
 <defs>
  <clipPath id="p32b00cfb15">
   <rect height="278.002725" width="412.622202" x="33.64" y="13.32"/>
  </clipPath>
 </defs>
</svg>
