<?xml version="1.0" encoding="utf-8" standalone="no"?>
<!DOCTYPE svg PUBLIC "-//W3C//DTD SVG 1.1//EN"
  "http://www.w3.org/Graphics/SVG/1.1/DTD/svg11.dtd">
<!-- Created with matplotlib (http://matplotlib.org/) -->
<svg height="345.6pt" version="1.1" viewBox="0 0 460.8 345.6" width="460.8pt" xmlns="http://www.w3.org/2000/svg" xmlns:xlink="http://www.w3.org/1999/xlink">
 <defs>
  <style type="text/css">
*{stroke-linecap:butt;stroke-linejoin:round;}
  </style>
 </defs>
 <g id="figure_1">
  <g id="patch_1">
   <path d="M 0 345.6 
L 460.8 345.6 
L 460.8 0 
L 0 0 
z
" style="fill:#ffffff;"/>
  </g>
  <g id="axes_1">
   <g id="patch_2">
    <path d="M 33.64 295.581689 
L 447.48 295.581689 
L 447.48 13.32 
L 33.64 13.32 
z
" style="fill:#ffffff;"/>
   </g>
   <g id="patch_3">
    <path clip-path="url(#p89292a2912)" d="M 52.450909 295.581689 
L 62.618968 295.581689 
L 62.618968 26.761033 
L 52.450909 26.761033 
z
" style="fill:#1f77b4;"/>
   </g>
   <g id="patch_4">
    <path clip-path="url(#p89292a2912)" d="M 103.291204 295.581689 
L 113.459263 295.581689 
L 113.459263 205.974803 
L 103.291204 205.974803 
z
" style="fill:#1f77b4;"/>
   </g>
   <g id="patch_5">
    <path clip-path="url(#p89292a2912)" d="M 154.131499 295.581689 
L 164.299558 295.581689 
L 164.299558 188.053426 
L 154.131499 188.053426 
z
" style="fill:#1f77b4;"/>
   </g>
   <g id="patch_6">
    <path clip-path="url(#p89292a2912)" d="M 204.971794 295.581689 
L 215.139853 295.581689 
L 215.139853 161.998091 
L 204.971794 161.998091 
z
" style="fill:#1f77b4;"/>
   </g>
   <g id="patch_7">
    <path clip-path="url(#p89292a2912)" d="M 255.812088 295.581689 
L 265.980147 295.581689 
L 265.980147 119.568164 
L 255.812088 119.568164 
z
" style="fill:#1f77b4;"/>
   </g>
   <g id="patch_8">
    <path clip-path="url(#p89292a2912)" d="M 306.652383 295.581689 
L 316.820442 295.581689 
L 316.820442 131.388559 
L 306.652383 131.388559 
z
" style="fill:#1f77b4;"/>
   </g>
   <g id="patch_9">
    <path clip-path="url(#p89292a2912)" d="M 357.492678 295.581689 
L 367.660737 295.581689 
L 367.660737 127.888803 
L 357.492678 127.888803 
z
" style="fill:#1f77b4;"/>
   </g>
   <g id="patch_10">
    <path clip-path="url(#p89292a2912)" d="M 408.332973 295.581689 
L 418.501032 295.581689 
L 418.501032 124.758393 
L 408.332973 124.758393 
z
" style="fill:#1f77b4;"/>
   </g>
   <g id="patch_11">
    <path clip-path="url(#p89292a2912)" d="M 62.618968 295.581689 
L 72.787027 295.581689 
L 72.787027 26.761033 
L 62.618968 26.761033 
z
" style="fill:#ff7f0e;"/>
   </g>
   <g id="patch_12">
    <path clip-path="url(#p89292a2912)" d="M 113.459263 295.581689 
L 123.627322 295.581689 
L 123.627322 152.210672 
L 113.459263 152.210672 
z
" style="fill:#ff7f0e;"/>
   </g>
   <g id="patch_13">
    <path clip-path="url(#p89292a2912)" d="M 164.299558 295.581689 
L 174.467617 295.581689 
L 174.467617 201.494459 
L 164.299558 201.494459 
z
" style="fill:#ff7f0e;"/>
   </g>
   <g id="patch_14">
    <path clip-path="url(#p89292a2912)" d="M 215.139853 295.581689 
L 225.307912 295.581689 
L 225.307912 164.398275 
L 215.139853 164.398275 
z
" style="fill:#ff7f0e;"/>
   </g>
   <g id="patch_15">
    <path clip-path="url(#p89292a2912)" d="M 265.980147 295.581689 
L 276.148206 295.581689 
L 276.148206 129.808951 
L 265.980147 129.808951 
z
" style="fill:#ff7f0e;"/>
   </g>
   <g id="patch_16">
    <path clip-path="url(#p89292a2912)" d="M 316.820442 295.581689 
L 326.988501 295.581689 
L 326.988501 132.882008 
L 316.820442 132.882008 
z
" style="fill:#ff7f0e;"/>
   </g>
   <g id="patch_17">
    <path clip-path="url(#p89292a2912)" d="M 367.660737 295.581689 
L 377.828796 295.581689 
L 377.828796 155.410918 
L 367.660737 155.410918 
z
" style="fill:#ff7f0e;"/>
   </g>
   <g id="patch_18">
    <path clip-path="url(#p89292a2912)" d="M 418.501032 295.581689 
L 428.669091 295.581689 
L 428.669091 127.872514 
L 418.501032 127.872514 
z
" style="fill:#ff7f0e;"/>
   </g>
   <g id="matplotlib.axis_1">
    <g id="xtick_1">
     <g id="line2d_1">
      <defs>
       <path d="M 0 0 
L 0 3.5 
" id="m428131c597" style="stroke:#000000;stroke-width:0.8;"/>
      </defs>
      <g>
       <use style="stroke:#000000;stroke-width:0.8;" x="62.618968" xlink:href="#m428131c597" y="295.581689"/>
      </g>
     </g>
     <g id="text_1">
      <text style="font-family:DejaVu Sans;font-size:9px;font-style:normal;font-weight:normal;" transform="translate(20.087108 332.324473)rotate(-15)">Complex Sentences</text>
     </g>
    </g>
    <g id="xtick_2">
     <g id="line2d_2">
      <g>
       <use style="stroke:#000000;stroke-width:0.8;" x="113.459263" xlink:href="#m428131c597" y="295.581689"/>
      </g>
     </g>
     <g id="text_2">
      <text style="font-family:DejaVu Sans;font-size:9px;font-style:normal;font-weight:normal;" transform="translate(97.422371 318.125862)rotate(-15)">Lexicon</text>
     </g>
    </g>
    <g id="xtick_3">
     <g id="line2d_3">
      <g>
       <use style="stroke:#000000;stroke-width:0.8;" x="164.299558" xlink:href="#m428131c597" y="295.581689"/>
      </g>
     </g>
     <g id="text_3">
      <text style="font-family:DejaVu Sans;font-size:9px;font-style:normal;font-weight:normal;" transform="translate(139.372375 322.890154)rotate(-15)">Morphology</text>
     </g>
    </g>
    <g id="xtick_4">
     <g id="line2d_4">
      <g>
       <use style="stroke:#000000;stroke-width:0.8;" x="215.139853" xlink:href="#m428131c597" y="295.581689"/>
      </g>
     </g>
     <g id="text_4">
      <text style="font-family:DejaVu Sans;font-size:9px;font-style:normal;font-weight:normal;" transform="translate(172.992401 332.118469)rotate(-15)">Nominal Categories</text>
     </g>
    </g>
    <g id="xtick_5">
     <g id="line2d_5">
      <g>
       <use style="stroke:#000000;stroke-width:0.8;" x="265.980147" xlink:href="#m428131c597" y="295.581689"/>
      </g>
     </g>
     <g id="text_5">
      <text style="font-family:DejaVu Sans;font-size:9px;font-style:normal;font-weight:normal;" transform="translate(243.974061 321.324744)rotate(-15)">Phonology</text>
     </g>
    </g>
    <g id="xtick_6">
     <g id="line2d_6">
      <g>
       <use style="stroke:#000000;stroke-width:0.8;" x="316.820442" xlink:href="#m428131c597" y="295.581689"/>
      </g>
     </g>
     <g id="text_6">
      <text style="font-family:DejaVu Sans;font-size:9px;font-style:normal;font-weight:normal;" transform="translate(284.374886 326.919239)rotate(-15)">Simple Clauses</text>
     </g>
    </g>
    <g id="xtick_7">
     <g id="line2d_7">
      <g>
       <use style="stroke:#000000;stroke-width:0.8;" x="367.660737" xlink:href="#m428131c597" y="295.581689"/>
      </g>
     </g>
     <g id="text_7">
      <text style="font-family:DejaVu Sans;font-size:9px;font-style:normal;font-weight:normal;" transform="translate(329.431398 330.018759)rotate(-15)">Verbal Categories</text>
     </g>
    </g>
    <g id="xtick_8">
     <g id="line2d_8">
      <g>
       <use style="stroke:#000000;stroke-width:0.8;" x="418.501032" xlink:href="#m428131c597" y="295.581689"/>
      </g>
     </g>
     <g id="text_8">
      <text style="font-family:DejaVu Sans;font-size:9px;font-style:normal;font-weight:normal;" transform="translate(393.83397 322.750756)rotate(-15)">Word Order</text>
     </g>
    </g>
   </g>
   <g id="matplotlib.axis_2">
    <g id="ytick_1">
     <g id="line2d_9">
      <defs>
       <path d="M 0 0 
L -3.5 0 
" id="m4f253468cb" style="stroke:#000000;stroke-width:0.8;"/>
      </defs>
      <g>
       <use style="stroke:#000000;stroke-width:0.8;" x="33.64" xlink:href="#m4f253468cb" y="295.581689"/>
      </g>
     </g>
     <g id="text_9">
      <text style="font-family:DejaVu Sans;font-size:10px;font-style:normal;font-weight:normal;text-anchor:end;" transform="rotate(-0, 26.64, 299.380908)" x="26.64" y="299.380908">0.0</text>
     </g>
    </g>
    <g id="ytick_2">
     <g id="line2d_10">
      <g>
       <use style="stroke:#000000;stroke-width:0.8;" x="33.64" xlink:href="#m4f253468cb" y="241.817558"/>
      </g>
     </g>
     <g id="text_10">
      <text style="font-family:DejaVu Sans;font-size:10px;font-style:normal;font-weight:normal;text-anchor:end;" transform="rotate(-0, 26.64, 245.616776)" x="26.64" y="245.616776">0.2</text>
     </g>
    </g>
    <g id="ytick_3">
     <g id="line2d_11">
      <g>
       <use style="stroke:#000000;stroke-width:0.8;" x="33.64" xlink:href="#m4f253468cb" y="188.053426"/>
      </g>
     </g>
     <g id="text_11">
      <text style="font-family:DejaVu Sans;font-size:10px;font-style:normal;font-weight:normal;text-anchor:end;" transform="rotate(-0, 26.64, 191.852645)" x="26.64" y="191.852645">0.4</text>
     </g>
    </g>
    <g id="ytick_4">
     <g id="line2d_12">
      <g>
       <use style="stroke:#000000;stroke-width:0.8;" x="33.64" xlink:href="#m4f253468cb" y="134.289295"/>
      </g>
     </g>
     <g id="text_12">
      <text style="font-family:DejaVu Sans;font-size:10px;font-style:normal;font-weight:normal;text-anchor:end;" transform="rotate(-0, 26.64, 138.088514)" x="26.64" y="138.088514">0.6</text>
     </g>
    </g>
    <g id="ytick_5">
     <g id="line2d_13">
      <g>
       <use style="stroke:#000000;stroke-width:0.8;" x="33.64" xlink:href="#m4f253468cb" y="80.525164"/>
      </g>
     </g>
     <g id="text_13">
      <text style="font-family:DejaVu Sans;font-size:10px;font-style:normal;font-weight:normal;text-anchor:end;" transform="rotate(-0, 26.64, 84.324383)" x="26.64" y="84.324383">0.8</text>
     </g>
    </g>
    <g id="ytick_6">
     <g id="line2d_14">
      <g>
       <use style="stroke:#000000;stroke-width:0.8;" x="33.64" xlink:href="#m4f253468cb" y="26.761033"/>
      </g>
     </g>
     <g id="text_14">
      <text style="font-family:DejaVu Sans;font-size:10px;font-style:normal;font-weight:normal;text-anchor:end;" transform="rotate(-0, 26.64, 30.560252)" x="26.64" y="30.560252">1.0</text>
     </g>
    </g>
   </g>
   <g id="patch_19">
    <path d="M 33.64 295.581689 
L 33.64 13.32 
" style="fill:none;stroke:#000000;stroke-linecap:square;stroke-linejoin:miter;stroke-width:0.8;"/>
   </g>
   <g id="patch_20">
    <path d="M 447.48 295.581689 
L 447.48 13.32 
" style="fill:none;stroke:#000000;stroke-linecap:square;stroke-linejoin:miter;stroke-width:0.8;"/>
   </g>
   <g id="patch_21">
    <path d="M 33.64 295.581689 
L 447.48 295.581689 
" style="fill:none;stroke:#000000;stroke-linecap:square;stroke-linejoin:miter;stroke-width:0.8;"/>
   </g>
   <g id="patch_22">
    <path d="M 33.64 13.32 
L 447.48 13.32 
" style="fill:none;stroke:#000000;stroke-linecap:square;stroke-linejoin:miter;stroke-width:0.8;"/>
   </g>
   <g id="legend_1">
    <g id="patch_23">
     <path d="M 375.044062 50.67625 
L 440.48 50.67625 
Q 442.48 50.67625 442.48 48.67625 
L 442.48 20.32 
Q 442.48 18.32 440.48 18.32 
L 375.044062 18.32 
Q 373.044062 18.32 373.044062 20.32 
L 373.044062 48.67625 
Q 373.044062 50.67625 375.044062 50.67625 
z
" style="fill:#ffffff;opacity:0.8;stroke:#cccccc;stroke-linejoin:miter;"/>
    </g>
    <g id="patch_24">
     <path d="M 377.044062 29.918437 
L 397.044062 29.918437 
L 397.044062 22.918437 
L 377.044062 22.918437 
z
" style="fill:#1f77b4;"/>
    </g>
    <g id="text_15">
     <text style="font-family:DejaVu Sans;font-size:10px;font-style:normal;font-weight:normal;text-anchor:start;" transform="rotate(-0, 405.044062, 29.918437)" x="405.044062" y="29.918437">Scores</text>
    </g>
    <g id="patch_25">
     <path d="M 377.044062 44.596563 
L 397.044062 44.596563 
L 397.044062 37.596563 
L 377.044062 37.596563 
z
" style="fill:#ff7f0e;"/>
    </g>
    <g id="text_16">
     <text style="font-family:DejaVu Sans;font-size:10px;font-style:normal;font-weight:normal;text-anchor:start;" transform="rotate(-0, 405.044062, 44.596563)" x="405.044062" y="44.596563">Bases</text>
    </g>
   </g>
  </g>
 </g>
 <defs>
  <clipPath id="p89292a2912">
   <rect height="282.261689" width="413.84" x="33.64" y="13.32"/>
  </clipPath>
 </defs>
</svg>
