<?xml version="1.0" encoding="utf-8" standalone="no"?>
<!DOCTYPE svg PUBLIC "-//W3C//DTD SVG 1.1//EN"
  "http://www.w3.org/Graphics/SVG/1.1/DTD/svg11.dtd">
<!-- Created with matplotlib (http://matplotlib.org/) -->
<svg height="345.6pt" version="1.1" viewBox="0 0 460.8 345.6" width="460.8pt" xmlns="http://www.w3.org/2000/svg" xmlns:xlink="http://www.w3.org/1999/xlink">
 <defs>
  <style type="text/css">
*{stroke-linecap:butt;stroke-linejoin:round;}
  </style>
 </defs>
 <g id="figure_1">
  <g id="patch_1">
   <path d="M 0 345.6 
L 460.8 345.6 
L 460.8 0 
L 0 0 
z
" style="fill:#ffffff;"/>
  </g>
  <g id="axes_1">
   <g id="patch_2">
    <path d="M 33.64 281.471494 
L 447.48 281.471494 
L 447.48 13.32 
L 33.64 13.32 
z
" style="fill:#ffffff;"/>
   </g>
   <g id="patch_3">
    <path clip-path="url(#p9f1d2fb07f)" d="M 52.450909 281.471494 
L 61.408485 281.471494 
L 61.408485 93.740079 
L 52.450909 93.740079 
z
" style="fill:#1f77b4;"/>
   </g>
   <g id="patch_4">
    <path clip-path="url(#p9f1d2fb07f)" d="M 97.238788 281.471494 
L 106.196364 281.471494 
L 106.196364 116.572278 
L 97.238788 116.572278 
z
" style="fill:#1f77b4;"/>
   </g>
   <g id="patch_5">
    <path clip-path="url(#p9f1d2fb07f)" d="M 142.026667 281.471494 
L 150.984242 281.471494 
L 150.984242 149.775966 
L 142.026667 149.775966 
z
" style="fill:#1f77b4;"/>
   </g>
   <g id="patch_6">
    <path clip-path="url(#p9f1d2fb07f)" d="M 186.814545 281.471494 
L 195.772121 281.471494 
L 195.772121 137.596662 
L 186.814545 137.596662 
z
" style="fill:#1f77b4;"/>
   </g>
   <g id="patch_7">
    <path clip-path="url(#p9f1d2fb07f)" d="M 231.602424 281.471494 
L 240.56 281.471494 
L 240.56 26.089119 
L 231.602424 26.089119 
z
" style="fill:#1f77b4;"/>
   </g>
   <g id="patch_8">
    <path clip-path="url(#p9f1d2fb07f)" d="M 276.390303 281.471494 
L 285.347879 281.471494 
L 285.347879 55.152327 
L 276.390303 55.152327 
z
" style="fill:#1f77b4;"/>
   </g>
   <g id="patch_9">
    <path clip-path="url(#p9f1d2fb07f)" d="M 321.178182 281.471494 
L 330.135758 281.471494 
L 330.135758 109.042759 
L 321.178182 109.042759 
z
" style="fill:#1f77b4;"/>
   </g>
   <g id="patch_10">
    <path clip-path="url(#p9f1d2fb07f)" d="M 365.966061 281.471494 
L 374.923636 281.471494 
L 374.923636 107.500661 
L 365.966061 107.500661 
z
" style="fill:#1f77b4;"/>
   </g>
   <g id="patch_11">
    <path clip-path="url(#p9f1d2fb07f)" d="M 410.753939 281.471494 
L 419.711515 281.471494 
L 419.711515 76.882345 
L 410.753939 76.882345 
z
" style="fill:#1f77b4;"/>
   </g>
   <g id="patch_12">
    <path clip-path="url(#p9f1d2fb07f)" d="M 61.408485 281.471494 
L 70.366061 281.471494 
L 70.366061 93.740079 
L 61.408485 93.740079 
z
" style="fill:#ff7f0e;"/>
   </g>
   <g id="patch_13">
    <path clip-path="url(#p9f1d2fb07f)" d="M 106.196364 281.471494 
L 115.153939 281.471494 
L 115.153939 110.230001 
L 106.196364 110.230001 
z
" style="fill:#ff7f0e;"/>
   </g>
   <g id="patch_14">
    <path clip-path="url(#p9f1d2fb07f)" d="M 150.984242 281.471494 
L 159.941818 281.471494 
L 159.941818 115.826128 
L 150.984242 115.826128 
z
" style="fill:#ff7f0e;"/>
   </g>
   <g id="patch_15">
    <path clip-path="url(#p9f1d2fb07f)" d="M 195.772121 281.471494 
L 204.729697 281.471494 
L 204.729697 136.783571 
L 195.772121 136.783571 
z
" style="fill:#ff7f0e;"/>
   </g>
   <g id="patch_16">
    <path clip-path="url(#p9f1d2fb07f)" d="M 240.56 281.471494 
L 249.517576 281.471494 
L 249.517576 26.089119 
L 240.56 26.089119 
z
" style="fill:#ff7f0e;"/>
   </g>
   <g id="patch_17">
    <path clip-path="url(#p9f1d2fb07f)" d="M 285.347879 281.471494 
L 294.305455 281.471494 
L 294.305455 64.212724 
L 285.347879 64.212724 
z
" style="fill:#ff7f0e;"/>
   </g>
   <g id="patch_18">
    <path clip-path="url(#p9f1d2fb07f)" d="M 330.135758 281.471494 
L 339.093333 281.471494 
L 339.093333 99.723494 
L 330.135758 99.723494 
z
" style="fill:#ff7f0e;"/>
   </g>
   <g id="patch_19">
    <path clip-path="url(#p9f1d2fb07f)" d="M 374.923636 281.471494 
L 383.881212 281.471494 
L 383.881212 104.358976 
L 374.923636 104.358976 
z
" style="fill:#ff7f0e;"/>
   </g>
   <g id="patch_20">
    <path clip-path="url(#p9f1d2fb07f)" d="M 419.711515 281.471494 
L 428.669091 281.471494 
L 428.669091 75.96911 
L 419.711515 75.96911 
z
" style="fill:#ff7f0e;"/>
   </g>
   <g id="matplotlib.axis_1">
    <g id="xtick_1">
     <g id="line2d_1">
      <defs>
       <path d="M 0 0 
L 0 3.5 
" id="m67362cd3d0" style="stroke:#000000;stroke-width:0.8;"/>
      </defs>
      <g>
       <use style="stroke:#000000;stroke-width:0.8;" x="61.408485" xlink:href="#m67362cd3d0" y="281.471494"/>
      </g>
     </g>
     <g id="text_1">
      <text style="font-family:DejaVu Sans;font-size:9px;font-style:normal;font-weight:normal;" transform="translate(21.948197 332.449456)rotate(-25)">Complex Sentences</text>
     </g>
    </g>
    <g id="xtick_2">
     <g id="line2d_2">
      <g>
       <use style="stroke:#000000;stroke-width:0.8;" x="106.196364" xlink:href="#m67362cd3d0" y="281.471494"/>
      </g>
     </g>
     <g id="text_2">
      <text style="font-family:DejaVu Sans;font-size:9px;font-style:normal;font-weight:normal;" transform="translate(91.595744 309.264948)rotate(-25)">Lexicon</text>
     </g>
    </g>
    <g id="xtick_3">
     <g id="line2d_3">
      <g>
       <use style="stroke:#000000;stroke-width:0.8;" x="150.984242" xlink:href="#m67362cd3d0" y="281.471494"/>
      </g>
     </g>
     <g id="text_3">
      <text style="font-family:DejaVu Sans;font-size:9px;font-style:normal;font-weight:normal;" transform="translate(128.042051 317.044426)rotate(-25)">Morphology</text>
     </g>
    </g>
    <g id="xtick_4">
     <g id="line2d_4">
      <g>
       <use style="stroke:#000000;stroke-width:0.8;" x="195.772121" xlink:href="#m67362cd3d0" y="281.471494"/>
      </g>
     </g>
     <g id="text_4">
      <text style="font-family:DejaVu Sans;font-size:9px;font-style:normal;font-weight:normal;" transform="translate(156.672516 332.113078)rotate(-25)">Nominal Categories</text>
     </g>
    </g>
    <g id="xtick_5">
     <g id="line2d_5">
      <g>
       <use style="stroke:#000000;stroke-width:0.8;" x="240.56" xlink:href="#m67362cd3d0" y="281.471494"/>
      </g>
     </g>
     <g id="text_5">
      <text style="font-family:DejaVu Sans;font-size:9px;font-style:normal;font-weight:normal;" transform="translate(209.344422 324.760313)rotate(-25)">Nominal Syntax</text>
     </g>
    </g>
    <g id="xtick_6">
     <g id="line2d_6">
      <g>
       <use style="stroke:#000000;stroke-width:0.8;" x="285.347879" xlink:href="#m67362cd3d0" y="281.471494"/>
      </g>
     </g>
     <g id="text_6">
      <text style="font-family:DejaVu Sans;font-size:9px;font-style:normal;font-weight:normal;" transform="translate(265.14649 314.488312)rotate(-25)">Phonology</text>
     </g>
    </g>
    <g id="xtick_7">
     <g id="line2d_7">
      <g>
       <use style="stroke:#000000;stroke-width:0.8;" x="330.135758" xlink:href="#m67362cd3d0" y="281.471494"/>
      </g>
     </g>
     <g id="text_7">
      <text style="font-family:DejaVu Sans;font-size:9px;font-style:normal;font-weight:normal;" transform="translate(300.139235 323.623404)rotate(-25)">Simple Clauses</text>
     </g>
    </g>
    <g id="xtick_8">
     <g id="line2d_8">
      <g>
       <use style="stroke:#000000;stroke-width:0.8;" x="374.923636" xlink:href="#m67362cd3d0" y="281.471494"/>
      </g>
     </g>
     <g id="text_8">
      <text style="font-family:DejaVu Sans;font-size:9px;font-style:normal;font-weight:normal;" transform="translate(339.500312 328.684522)rotate(-25)">Verbal Categories</text>
     </g>
    </g>
    <g id="xtick_9">
     <g id="line2d_9">
      <g>
       <use style="stroke:#000000;stroke-width:0.8;" x="419.711515" xlink:href="#m67362cd3d0" y="281.471494"/>
      </g>
     </g>
     <g id="text_9">
      <text style="font-family:DejaVu Sans;font-size:9px;font-style:normal;font-weight:normal;" transform="translate(397.01339 316.816807)rotate(-25)">Word Order</text>
     </g>
    </g>
   </g>
   <g id="matplotlib.axis_2">
    <g id="ytick_1">
     <g id="line2d_10">
      <defs>
       <path d="M 0 0 
L -3.5 0 
" id="m8927b62b20" style="stroke:#000000;stroke-width:0.8;"/>
      </defs>
      <g>
       <use style="stroke:#000000;stroke-width:0.8;" x="33.64" xlink:href="#m8927b62b20" y="281.471494"/>
      </g>
     </g>
     <g id="text_10">
      <text style="font-family:DejaVu Sans;font-size:10px;font-style:normal;font-weight:normal;text-anchor:end;" transform="rotate(-0, 26.64, 285.270713)" x="26.64" y="285.270713">0.0</text>
     </g>
    </g>
    <g id="ytick_2">
     <g id="line2d_11">
      <g>
       <use style="stroke:#000000;stroke-width:0.8;" x="33.64" xlink:href="#m8927b62b20" y="251.028562"/>
      </g>
     </g>
     <g id="text_11">
      <text style="font-family:DejaVu Sans;font-size:10px;font-style:normal;font-weight:normal;text-anchor:end;" transform="rotate(-0, 26.64, 254.82778)" x="26.64" y="254.82778">0.1</text>
     </g>
    </g>
    <g id="ytick_3">
     <g id="line2d_12">
      <g>
       <use style="stroke:#000000;stroke-width:0.8;" x="33.64" xlink:href="#m8927b62b20" y="220.58563"/>
      </g>
     </g>
     <g id="text_12">
      <text style="font-family:DejaVu Sans;font-size:10px;font-style:normal;font-weight:normal;text-anchor:end;" transform="rotate(-0, 26.64, 224.384848)" x="26.64" y="224.384848">0.2</text>
     </g>
    </g>
    <g id="ytick_4">
     <g id="line2d_13">
      <g>
       <use style="stroke:#000000;stroke-width:0.8;" x="33.64" xlink:href="#m8927b62b20" y="190.142697"/>
      </g>
     </g>
     <g id="text_13">
      <text style="font-family:DejaVu Sans;font-size:10px;font-style:normal;font-weight:normal;text-anchor:end;" transform="rotate(-0, 26.64, 193.941916)" x="26.64" y="193.941916">0.3</text>
     </g>
    </g>
    <g id="ytick_5">
     <g id="line2d_14">
      <g>
       <use style="stroke:#000000;stroke-width:0.8;" x="33.64" xlink:href="#m8927b62b20" y="159.699765"/>
      </g>
     </g>
     <g id="text_14">
      <text style="font-family:DejaVu Sans;font-size:10px;font-style:normal;font-weight:normal;text-anchor:end;" transform="rotate(-0, 26.64, 163.498984)" x="26.64" y="163.498984">0.4</text>
     </g>
    </g>
    <g id="ytick_6">
     <g id="line2d_15">
      <g>
       <use style="stroke:#000000;stroke-width:0.8;" x="33.64" xlink:href="#m8927b62b20" y="129.256833"/>
      </g>
     </g>
     <g id="text_15">
      <text style="font-family:DejaVu Sans;font-size:10px;font-style:normal;font-weight:normal;text-anchor:end;" transform="rotate(-0, 26.64, 133.056052)" x="26.64" y="133.056052">0.5</text>
     </g>
    </g>
    <g id="ytick_7">
     <g id="line2d_16">
      <g>
       <use style="stroke:#000000;stroke-width:0.8;" x="33.64" xlink:href="#m8927b62b20" y="98.813901"/>
      </g>
     </g>
     <g id="text_16">
      <text style="font-family:DejaVu Sans;font-size:10px;font-style:normal;font-weight:normal;text-anchor:end;" transform="rotate(-0, 26.64, 102.61312)" x="26.64" y="102.61312">0.6</text>
     </g>
    </g>
    <g id="ytick_8">
     <g id="line2d_17">
      <g>
       <use style="stroke:#000000;stroke-width:0.8;" x="33.64" xlink:href="#m8927b62b20" y="68.370969"/>
      </g>
     </g>
     <g id="text_17">
      <text style="font-family:DejaVu Sans;font-size:10px;font-style:normal;font-weight:normal;text-anchor:end;" transform="rotate(-0, 26.64, 72.170188)" x="26.64" y="72.170188">0.7</text>
     </g>
    </g>
    <g id="ytick_9">
     <g id="line2d_18">
      <g>
       <use style="stroke:#000000;stroke-width:0.8;" x="33.64" xlink:href="#m8927b62b20" y="37.928037"/>
      </g>
     </g>
     <g id="text_18">
      <text style="font-family:DejaVu Sans;font-size:10px;font-style:normal;font-weight:normal;text-anchor:end;" transform="rotate(-0, 26.64, 41.727256)" x="26.64" y="41.727256">0.8</text>
     </g>
    </g>
   </g>
   <g id="patch_21">
    <path d="M 33.64 281.471494 
L 33.64 13.32 
" style="fill:none;stroke:#000000;stroke-linecap:square;stroke-linejoin:miter;stroke-width:0.8;"/>
   </g>
   <g id="patch_22">
    <path d="M 447.48 281.471494 
L 447.48 13.32 
" style="fill:none;stroke:#000000;stroke-linecap:square;stroke-linejoin:miter;stroke-width:0.8;"/>
   </g>
   <g id="patch_23">
    <path d="M 33.64 281.471494 
L 447.48 281.471494 
" style="fill:none;stroke:#000000;stroke-linecap:square;stroke-linejoin:miter;stroke-width:0.8;"/>
   </g>
   <g id="patch_24">
    <path d="M 33.64 13.32 
L 447.48 13.32 
" style="fill:none;stroke:#000000;stroke-linecap:square;stroke-linejoin:miter;stroke-width:0.8;"/>
   </g>
   <g id="legend_1">
    <g id="patch_25">
     <path d="M 375.044062 50.67625 
L 440.48 50.67625 
Q 442.48 50.67625 442.48 48.67625 
L 442.48 20.32 
Q 442.48 18.32 440.48 18.32 
L 375.044062 18.32 
Q 373.044062 18.32 373.044062 20.32 
L 373.044062 48.67625 
Q 373.044062 50.67625 375.044062 50.67625 
z
" style="fill:#ffffff;opacity:0.8;stroke:#cccccc;stroke-linejoin:miter;"/>
    </g>
    <g id="patch_26">
     <path d="M 377.044062 29.918437 
L 397.044062 29.918437 
L 397.044062 22.918437 
L 377.044062 22.918437 
z
" style="fill:#1f77b4;"/>
    </g>
    <g id="text_19">
     <text style="font-family:DejaVu Sans;font-size:10px;font-style:normal;font-weight:normal;text-anchor:start;" transform="rotate(-0, 405.044062, 29.918437)" x="405.044062" y="29.918437">Scores</text>
    </g>
    <g id="patch_27">
     <path d="M 377.044062 44.596563 
L 397.044062 44.596563 
L 397.044062 37.596563 
L 377.044062 37.596563 
z
" style="fill:#ff7f0e;"/>
    </g>
    <g id="text_20">
     <text style="font-family:DejaVu Sans;font-size:10px;font-style:normal;font-weight:normal;text-anchor:start;" transform="rotate(-0, 405.044062, 44.596563)" x="405.044062" y="44.596563">Bases</text>
    </g>
   </g>
  </g>
 </g>
 <defs>
  <clipPath id="p9f1d2fb07f">
   <rect height="268.151494" width="413.84" x="33.64" y="13.32"/>
  </clipPath>
 </defs>
</svg>
