<?xml version="1.0" encoding="utf-8" standalone="no"?>
<!DOCTYPE svg PUBLIC "-//W3C//DTD SVG 1.1//EN"
  "http://www.w3.org/Graphics/SVG/1.1/DTD/svg11.dtd">
<!-- Created with matplotlib (http://matplotlib.org/) -->
<svg height="345.6pt" version="1.1" viewBox="0 0 460.8 345.6" width="460.8pt" xmlns="http://www.w3.org/2000/svg" xmlns:xlink="http://www.w3.org/1999/xlink">
 <defs>
  <style type="text/css">
*{stroke-linecap:butt;stroke-linejoin:round;}
  </style>
 </defs>
 <g id="figure_1">
  <g id="patch_1">
   <path d="M 0 345.6 
L 460.8 345.6 
L 460.8 0 
L 0 0 
z
" style="fill:#ffffff;"/>
  </g>
  <g id="axes_1">
   <g id="patch_2">
    <path d="M 33.64 295.581689 
L 446.544467 295.581689 
L 446.544467 13.32 
L 33.64 13.32 
z
" style="fill:#ffffff;"/>
   </g>
   <g id="patch_3">
    <path clip-path="url(#pd799dc25ee)" d="M 52.408385 295.581689 
L 60.394932 295.581689 
L 60.394932 29.637375 
L 52.408385 29.637375 
z
" style="fill:#1f77b4;"/>
   </g>
   <g id="patch_4">
    <path clip-path="url(#pd799dc25ee)" d="M 92.341119 295.581689 
L 100.327665 295.581689 
L 100.327665 77.787576 
L 92.341119 77.787576 
z
" style="fill:#1f77b4;"/>
   </g>
   <g id="patch_5">
    <path clip-path="url(#pd799dc25ee)" d="M 132.273852 295.581689 
L 140.260399 295.581689 
L 140.260399 75.641259 
L 132.273852 75.641259 
z
" style="fill:#1f77b4;"/>
   </g>
   <g id="patch_6">
    <path clip-path="url(#pd799dc25ee)" d="M 172.206586 295.581689 
L 180.193133 295.581689 
L 180.193133 115.634596 
L 172.206586 115.634596 
z
" style="fill:#1f77b4;"/>
   </g>
   <g id="patch_7">
    <path clip-path="url(#pd799dc25ee)" d="M 212.13932 295.581689 
L 220.125867 295.581689 
L 220.125867 57.394496 
L 212.13932 57.394496 
z
" style="fill:#1f77b4;"/>
   </g>
   <g id="patch_8">
    <path clip-path="url(#pd799dc25ee)" d="M 252.072054 295.581689 
L 260.0586 295.581689 
L 260.0586 46.904833 
L 252.072054 46.904833 
z
" style="fill:#1f77b4;"/>
   </g>
   <g id="patch_9">
    <path clip-path="url(#pd799dc25ee)" d="M 292.004787 295.581689 
L 299.991334 295.581689 
L 299.991334 54.567738 
L 292.004787 54.567738 
z
" style="fill:#1f77b4;"/>
   </g>
   <g id="patch_10">
    <path clip-path="url(#pd799dc25ee)" d="M 331.937521 295.581689 
L 339.924068 295.581689 
L 339.924068 103.623188 
L 331.937521 103.623188 
z
" style="fill:#1f77b4;"/>
   </g>
   <g id="patch_11">
    <path clip-path="url(#pd799dc25ee)" d="M 371.870255 295.581689 
L 379.856802 295.581689 
L 379.856802 110.143037 
L 371.870255 110.143037 
z
" style="fill:#1f77b4;"/>
   </g>
   <g id="patch_12">
    <path clip-path="url(#pd799dc25ee)" d="M 411.802989 295.581689 
L 419.789535 295.581689 
L 419.789535 79.763553 
L 411.802989 79.763553 
z
" style="fill:#1f77b4;"/>
   </g>
   <g id="patch_13">
    <path clip-path="url(#pd799dc25ee)" d="M 60.394932 295.581689 
L 68.381478 295.581689 
L 68.381478 26.761033 
L 60.394932 26.761033 
z
" style="fill:#ff7f0e;"/>
   </g>
   <g id="patch_14">
    <path clip-path="url(#pd799dc25ee)" d="M 100.327665 295.581689 
L 108.314212 295.581689 
L 108.314212 59.755005 
L 100.327665 59.755005 
z
" style="fill:#ff7f0e;"/>
   </g>
   <g id="patch_15">
    <path clip-path="url(#pd799dc25ee)" d="M 140.260399 295.581689 
L 148.246946 295.581689 
L 148.246946 80.677606 
L 140.260399 80.677606 
z
" style="fill:#ff7f0e;"/>
   </g>
   <g id="patch_16">
    <path clip-path="url(#pd799dc25ee)" d="M 180.193133 295.581689 
L 188.17968 295.581689 
L 188.17968 108.149058 
L 180.193133 108.149058 
z
" style="fill:#ff7f0e;"/>
   </g>
   <g id="patch_17">
    <path clip-path="url(#pd799dc25ee)" d="M 220.125867 295.581689 
L 228.112413 295.581689 
L 228.112413 55.575466 
L 220.125867 55.575466 
z
" style="fill:#ff7f0e;"/>
   </g>
   <g id="patch_18">
    <path clip-path="url(#pd799dc25ee)" d="M 260.0586 295.581689 
L 268.045147 295.581689 
L 268.045147 46.904833 
L 260.0586 46.904833 
z
" style="fill:#ff7f0e;"/>
   </g>
   <g id="patch_19">
    <path clip-path="url(#pd799dc25ee)" d="M 299.991334 295.581689 
L 307.977881 295.581689 
L 307.977881 60.242933 
L 299.991334 60.242933 
z
" style="fill:#ff7f0e;"/>
   </g>
   <g id="patch_20">
    <path clip-path="url(#pd799dc25ee)" d="M 339.924068 295.581689 
L 347.910615 295.581689 
L 347.910615 95.269275 
L 339.924068 95.269275 
z
" style="fill:#ff7f0e;"/>
   </g>
   <g id="patch_21">
    <path clip-path="url(#pd799dc25ee)" d="M 379.856802 295.581689 
L 387.843348 295.581689 
L 387.843348 94.561278 
L 379.856802 94.561278 
z
" style="fill:#ff7f0e;"/>
   </g>
   <g id="patch_22">
    <path clip-path="url(#pd799dc25ee)" d="M 419.789535 295.581689 
L 427.776082 295.581689 
L 427.776082 81.929057 
L 419.789535 81.929057 
z
" style="fill:#ff7f0e;"/>
   </g>
   <g id="matplotlib.axis_1">
    <g id="xtick_1">
     <g id="line2d_1">
      <defs>
       <path d="M 0 0 
L 0 3.5 
" id="m94027b42dc" style="stroke:#000000;stroke-width:0.8;"/>
      </defs>
      <g>
       <use style="stroke:#000000;stroke-width:0.8;" x="60.394932" xlink:href="#m94027b42dc" y="295.581689"/>
      </g>
     </g>
     <g id="text_1">
      <text style="font-family:DejaVu Sans;font-size:9px;font-style:normal;font-weight:normal;" transform="translate(17.863072 332.324473)rotate(-15)">Complex Sentences</text>
     </g>
    </g>
    <g id="xtick_2">
     <g id="line2d_2">
      <g>
       <use style="stroke:#000000;stroke-width:0.8;" x="100.327665" xlink:href="#m94027b42dc" y="295.581689"/>
      </g>
     </g>
     <g id="text_2">
      <text style="font-family:DejaVu Sans;font-size:9px;font-style:normal;font-weight:normal;" transform="translate(84.290774 318.125862)rotate(-15)">Lexicon</text>
     </g>
    </g>
    <g id="xtick_3">
     <g id="line2d_3">
      <g>
       <use style="stroke:#000000;stroke-width:0.8;" x="140.260399" xlink:href="#m94027b42dc" y="295.581689"/>
      </g>
     </g>
     <g id="text_3">
      <text style="font-family:DejaVu Sans;font-size:9px;font-style:normal;font-weight:normal;" transform="translate(115.333217 322.890154)rotate(-15)">Morphology</text>
     </g>
    </g>
    <g id="xtick_4">
     <g id="line2d_4">
      <g>
       <use style="stroke:#000000;stroke-width:0.8;" x="180.193133" xlink:href="#m94027b42dc" y="295.581689"/>
      </g>
     </g>
     <g id="text_4">
      <text style="font-family:DejaVu Sans;font-size:9px;font-style:normal;font-weight:normal;" transform="translate(138.045682 332.118469)rotate(-15)">Nominal Categories</text>
     </g>
    </g>
    <g id="xtick_5">
     <g id="line2d_5">
      <g>
       <use style="stroke:#000000;stroke-width:0.8;" x="220.125867" xlink:href="#m94027b42dc" y="295.581689"/>
      </g>
     </g>
     <g id="text_5">
      <text style="font-family:DejaVu Sans;font-size:9px;font-style:normal;font-weight:normal;" transform="translate(186.381064 327.615503)rotate(-15)">Nominal Syntax</text>
     </g>
    </g>
    <g id="xtick_6">
     <g id="line2d_6">
      <g>
       <use style="stroke:#000000;stroke-width:0.8;" x="260.0586" xlink:href="#m94027b42dc" y="295.581689"/>
      </g>
     </g>
     <g id="text_6">
      <text style="font-family:DejaVu Sans;font-size:9px;font-style:normal;font-weight:normal;" transform="translate(248.359546 315.801222)rotate(-15)">Other</text>
     </g>
    </g>
    <g id="xtick_7">
     <g id="line2d_7">
      <g>
       <use style="stroke:#000000;stroke-width:0.8;" x="299.991334" xlink:href="#m94027b42dc" y="295.581689"/>
      </g>
     </g>
     <g id="text_7">
      <text style="font-family:DejaVu Sans;font-size:9px;font-style:normal;font-weight:normal;" transform="translate(277.985247 321.324744)rotate(-15)">Phonology</text>
     </g>
    </g>
    <g id="xtick_8">
     <g id="line2d_8">
      <g>
       <use style="stroke:#000000;stroke-width:0.8;" x="339.924068" xlink:href="#m94027b42dc" y="295.581689"/>
      </g>
     </g>
     <g id="text_8">
      <text style="font-family:DejaVu Sans;font-size:9px;font-style:normal;font-weight:normal;" transform="translate(307.478511 326.919239)rotate(-15)">Simple Clauses</text>
     </g>
    </g>
    <g id="xtick_9">
     <g id="line2d_9">
      <g>
       <use style="stroke:#000000;stroke-width:0.8;" x="379.856802" xlink:href="#m94027b42dc" y="295.581689"/>
      </g>
     </g>
     <g id="text_9">
      <text style="font-family:DejaVu Sans;font-size:9px;font-style:normal;font-weight:normal;" transform="translate(341.627462 330.018759)rotate(-15)">Verbal Categories</text>
     </g>
    </g>
    <g id="xtick_10">
     <g id="line2d_10">
      <g>
       <use style="stroke:#000000;stroke-width:0.8;" x="419.789535" xlink:href="#m94027b42dc" y="295.581689"/>
      </g>
     </g>
     <g id="text_10">
      <text style="font-family:DejaVu Sans;font-size:9px;font-style:normal;font-weight:normal;" transform="translate(395.122474 322.750756)rotate(-15)">Word Order</text>
     </g>
    </g>
   </g>
   <g id="matplotlib.axis_2">
    <g id="ytick_1">
     <g id="line2d_11">
      <defs>
       <path d="M 0 0 
L -3.5 0 
" id="medcb0d0186" style="stroke:#000000;stroke-width:0.8;"/>
      </defs>
      <g>
       <use style="stroke:#000000;stroke-width:0.8;" x="33.64" xlink:href="#medcb0d0186" y="295.581689"/>
      </g>
     </g>
     <g id="text_11">
      <text style="font-family:DejaVu Sans;font-size:10px;font-style:normal;font-weight:normal;text-anchor:end;" transform="rotate(-0, 26.64, 299.380908)" x="26.64" y="299.380908">0.0</text>
     </g>
    </g>
    <g id="ytick_2">
     <g id="line2d_12">
      <g>
       <use style="stroke:#000000;stroke-width:0.8;" x="33.64" xlink:href="#medcb0d0186" y="256.414985"/>
      </g>
     </g>
     <g id="text_12">
      <text style="font-family:DejaVu Sans;font-size:10px;font-style:normal;font-weight:normal;text-anchor:end;" transform="rotate(-0, 26.64, 260.214204)" x="26.64" y="260.214204">0.1</text>
     </g>
    </g>
    <g id="ytick_3">
     <g id="line2d_13">
      <g>
       <use style="stroke:#000000;stroke-width:0.8;" x="33.64" xlink:href="#medcb0d0186" y="217.248281"/>
      </g>
     </g>
     <g id="text_13">
      <text style="font-family:DejaVu Sans;font-size:10px;font-style:normal;font-weight:normal;text-anchor:end;" transform="rotate(-0, 26.64, 221.0475)" x="26.64" y="221.0475">0.2</text>
     </g>
    </g>
    <g id="ytick_4">
     <g id="line2d_14">
      <g>
       <use style="stroke:#000000;stroke-width:0.8;" x="33.64" xlink:href="#medcb0d0186" y="178.081577"/>
      </g>
     </g>
     <g id="text_14">
      <text style="font-family:DejaVu Sans;font-size:10px;font-style:normal;font-weight:normal;text-anchor:end;" transform="rotate(-0, 26.64, 181.880796)" x="26.64" y="181.880796">0.3</text>
     </g>
    </g>
    <g id="ytick_5">
     <g id="line2d_15">
      <g>
       <use style="stroke:#000000;stroke-width:0.8;" x="33.64" xlink:href="#medcb0d0186" y="138.914873"/>
      </g>
     </g>
     <g id="text_15">
      <text style="font-family:DejaVu Sans;font-size:10px;font-style:normal;font-weight:normal;text-anchor:end;" transform="rotate(-0, 26.64, 142.714092)" x="26.64" y="142.714092">0.4</text>
     </g>
    </g>
    <g id="ytick_6">
     <g id="line2d_16">
      <g>
       <use style="stroke:#000000;stroke-width:0.8;" x="33.64" xlink:href="#medcb0d0186" y="99.74817"/>
      </g>
     </g>
     <g id="text_16">
      <text style="font-family:DejaVu Sans;font-size:10px;font-style:normal;font-weight:normal;text-anchor:end;" transform="rotate(-0, 26.64, 103.547388)" x="26.64" y="103.547388">0.5</text>
     </g>
    </g>
    <g id="ytick_7">
     <g id="line2d_17">
      <g>
       <use style="stroke:#000000;stroke-width:0.8;" x="33.64" xlink:href="#medcb0d0186" y="60.581466"/>
      </g>
     </g>
     <g id="text_17">
      <text style="font-family:DejaVu Sans;font-size:10px;font-style:normal;font-weight:normal;text-anchor:end;" transform="rotate(-0, 26.64, 64.380684)" x="26.64" y="64.380684">0.6</text>
     </g>
    </g>
    <g id="ytick_8">
     <g id="line2d_18">
      <g>
       <use style="stroke:#000000;stroke-width:0.8;" x="33.64" xlink:href="#medcb0d0186" y="21.414762"/>
      </g>
     </g>
     <g id="text_18">
      <text style="font-family:DejaVu Sans;font-size:10px;font-style:normal;font-weight:normal;text-anchor:end;" transform="rotate(-0, 26.64, 25.213981)" x="26.64" y="25.213981">0.7</text>
     </g>
    </g>
   </g>
   <g id="patch_23">
    <path d="M 33.64 295.581689 
L 33.64 13.32 
" style="fill:none;stroke:#000000;stroke-linecap:square;stroke-linejoin:miter;stroke-width:0.8;"/>
   </g>
   <g id="patch_24">
    <path d="M 446.544467 295.581689 
L 446.544467 13.32 
" style="fill:none;stroke:#000000;stroke-linecap:square;stroke-linejoin:miter;stroke-width:0.8;"/>
   </g>
   <g id="patch_25">
    <path d="M 33.64 295.581689 
L 446.544467 295.581689 
" style="fill:none;stroke:#000000;stroke-linecap:square;stroke-linejoin:miter;stroke-width:0.8;"/>
   </g>
   <g id="patch_26">
    <path d="M 33.64 13.32 
L 446.544467 13.32 
" style="fill:none;stroke:#000000;stroke-linecap:square;stroke-linejoin:miter;stroke-width:0.8;"/>
   </g>
   <g id="legend_1">
    <g id="patch_27">
     <path d="M 374.108529 50.67625 
L 439.544467 50.67625 
Q 441.544467 50.67625 441.544467 48.67625 
L 441.544467 20.32 
Q 441.544467 18.32 439.544467 18.32 
L 374.108529 18.32 
Q 372.108529 18.32 372.108529 20.32 
L 372.108529 48.67625 
Q 372.108529 50.67625 374.108529 50.67625 
z
" style="fill:#ffffff;opacity:0.8;stroke:#cccccc;stroke-linejoin:miter;"/>
    </g>
    <g id="patch_28">
     <path d="M 376.108529 29.918437 
L 396.108529 29.918437 
L 396.108529 22.918437 
L 376.108529 22.918437 
z
" style="fill:#1f77b4;"/>
    </g>
    <g id="text_19">
     <text style="font-family:DejaVu Sans;font-size:10px;font-style:normal;font-weight:normal;text-anchor:start;" transform="rotate(-0, 404.108529, 29.918437)" x="404.108529" y="29.918437">Scores</text>
    </g>
    <g id="patch_29">
     <path d="M 376.108529 44.596563 
L 396.108529 44.596563 
L 396.108529 37.596563 
L 376.108529 37.596563 
z
" style="fill:#ff7f0e;"/>
    </g>
    <g id="text_20">
     <text style="font-family:DejaVu Sans;font-size:10px;font-style:normal;font-weight:normal;text-anchor:start;" transform="rotate(-0, 404.108529, 44.596563)" x="404.108529" y="44.596563">Bases</text>
    </g>
   </g>
  </g>
 </g>
 <defs>
  <clipPath id="pd799dc25ee">
   <rect height="282.261689" width="412.904467" x="33.64" y="13.32"/>
  </clipPath>
 </defs>
</svg>
