<?xml version="1.0" encoding="utf-8" standalone="no"?>
<!DOCTYPE svg PUBLIC "-//W3C//DTD SVG 1.1//EN"
  "http://www.w3.org/Graphics/SVG/1.1/DTD/svg11.dtd">
<!-- Created with matplotlib (http://matplotlib.org/) -->
<svg height="345.6pt" version="1.1" viewBox="0 0 460.8 345.6" width="460.8pt" xmlns="http://www.w3.org/2000/svg" xmlns:xlink="http://www.w3.org/1999/xlink">
 <defs>
  <style type="text/css">
*{stroke-linecap:butt;stroke-linejoin:round;}
  </style>
 </defs>
 <g id="figure_1">
  <g id="patch_1">
   <path d="M 0 345.6 
L 460.8 345.6 
L 460.8 0 
L 0 0 
z
" style="fill:#ffffff;"/>
  </g>
  <g id="axes_1">
   <g id="patch_2">
    <path d="M 33.64 281.471494 
L 447.344649 281.471494 
L 447.344649 13.32 
L 33.64 13.32 
z
" style="fill:#ffffff;"/>
   </g>
   <g id="patch_3">
    <path clip-path="url(#p0a48060a15)" d="M 52.444757 281.471494 
L 60.446781 281.471494 
L 60.446781 28.821674 
L 52.444757 28.821674 
z
" style="fill:#1f77b4;"/>
   </g>
   <g id="patch_4">
    <path clip-path="url(#p0a48060a15)" d="M 92.454878 281.471494 
L 100.456902 281.471494 
L 100.456902 74.564857 
L 92.454878 74.564857 
z
" style="fill:#1f77b4;"/>
   </g>
   <g id="patch_5">
    <path clip-path="url(#p0a48060a15)" d="M 132.464998 281.471494 
L 140.467022 281.471494 
L 140.467022 72.525834 
L 132.464998 72.525834 
z
" style="fill:#1f77b4;"/>
   </g>
   <g id="patch_6">
    <path clip-path="url(#p0a48060a15)" d="M 172.475119 281.471494 
L 180.477143 281.471494 
L 180.477143 110.519914 
L 172.475119 110.519914 
z
" style="fill:#1f77b4;"/>
   </g>
   <g id="patch_7">
    <path clip-path="url(#p0a48060a15)" d="M 212.48524 281.471494 
L 220.487264 281.471494 
L 220.487264 55.191223 
L 212.48524 55.191223 
z
" style="fill:#1f77b4;"/>
   </g>
   <g id="patch_8">
    <path clip-path="url(#p0a48060a15)" d="M 252.495361 281.471494 
L 260.497385 281.471494 
L 260.497385 45.225935 
L 252.495361 45.225935 
z
" style="fill:#1f77b4;"/>
   </g>
   <g id="patch_9">
    <path clip-path="url(#p0a48060a15)" d="M 292.505481 281.471494 
L 300.507505 281.471494 
L 300.507505 52.505774 
L 292.505481 52.505774 
z
" style="fill:#1f77b4;"/>
   </g>
   <g id="patch_10">
    <path clip-path="url(#p0a48060a15)" d="M 332.515602 281.471494 
L 340.517626 281.471494 
L 340.517626 99.108953 
L 332.515602 99.108953 
z
" style="fill:#1f77b4;"/>
   </g>
   <g id="patch_11">
    <path clip-path="url(#p0a48060a15)" d="M 372.525723 281.471494 
L 380.527747 281.471494 
L 380.527747 105.302877 
L 372.525723 105.302877 
z
" style="fill:#1f77b4;"/>
   </g>
   <g id="patch_12">
    <path clip-path="url(#p0a48060a15)" d="M 412.535844 281.471494 
L 420.537868 281.471494 
L 420.537868 76.442055 
L 412.535844 76.442055 
z
" style="fill:#1f77b4;"/>
   </g>
   <g id="patch_13">
    <path clip-path="url(#p0a48060a15)" d="M 60.446781 281.471494 
L 68.448805 281.471494 
L 68.448805 26.089119 
L 60.446781 26.089119 
z
" style="fill:#ff7f0e;"/>
   </g>
   <g id="patch_14">
    <path clip-path="url(#p0a48060a15)" d="M 100.456902 281.471494 
L 108.458926 281.471494 
L 108.458926 57.43373 
L 100.456902 57.43373 
z
" style="fill:#ff7f0e;"/>
   </g>
   <g id="patch_15">
    <path clip-path="url(#p0a48060a15)" d="M 140.467022 281.471494 
L 148.469047 281.471494 
L 148.469047 77.310415 
L 140.467022 77.310415 
z
" style="fill:#ff7f0e;"/>
   </g>
   <g id="patch_16">
    <path clip-path="url(#p0a48060a15)" d="M 180.477143 281.471494 
L 188.479167 281.471494 
L 188.479167 103.408576 
L 180.477143 103.408576 
z
" style="fill:#ff7f0e;"/>
   </g>
   <g id="patch_17">
    <path clip-path="url(#p0a48060a15)" d="M 220.487264 281.471494 
L 228.489288 281.471494 
L 228.489288 53.463126 
L 220.487264 53.463126 
z
" style="fill:#ff7f0e;"/>
   </g>
   <g id="patch_18">
    <path clip-path="url(#p0a48060a15)" d="M 260.497385 281.471494 
L 268.499409 281.471494 
L 268.499409 45.225935 
L 260.497385 45.225935 
z
" style="fill:#ff7f0e;"/>
   </g>
   <g id="patch_19">
    <path clip-path="url(#p0a48060a15)" d="M 300.507505 281.471494 
L 308.50953 281.471494 
L 308.50953 57.897267 
L 300.507505 57.897267 
z
" style="fill:#ff7f0e;"/>
   </g>
   <g id="patch_20">
    <path clip-path="url(#p0a48060a15)" d="M 340.517626 281.471494 
L 348.51965 281.471494 
L 348.51965 91.17265 
L 340.517626 91.17265 
z
" style="fill:#ff7f0e;"/>
   </g>
   <g id="patch_21">
    <path clip-path="url(#p0a48060a15)" d="M 380.527747 281.471494 
L 388.529771 281.471494 
L 388.529771 90.500046 
L 380.527747 90.500046 
z
" style="fill:#ff7f0e;"/>
   </g>
   <g id="patch_22">
    <path clip-path="url(#p0a48060a15)" d="M 420.537868 281.471494 
L 428.539892 281.471494 
L 428.539892 78.499307 
L 420.537868 78.499307 
z
" style="fill:#ff7f0e;"/>
   </g>
   <g id="matplotlib.axis_1">
    <g id="xtick_1">
     <g id="line2d_1">
      <defs>
       <path d="M 0 0 
L 0 3.5 
" id="m7f1428ac2f" style="stroke:#000000;stroke-width:0.8;"/>
      </defs>
      <g>
       <use style="stroke:#000000;stroke-width:0.8;" x="60.446781" xlink:href="#m7f1428ac2f" y="281.471494"/>
      </g>
     </g>
     <g id="text_1">
      <text style="font-family:DejaVu Sans;font-size:9px;font-style:normal;font-weight:normal;" transform="translate(20.986493 332.449456)rotate(-25)">Complex Sentences</text>
     </g>
    </g>
    <g id="xtick_2">
     <g id="line2d_2">
      <g>
       <use style="stroke:#000000;stroke-width:0.8;" x="100.456902" xlink:href="#m7f1428ac2f" y="281.471494"/>
      </g>
     </g>
     <g id="text_2">
      <text style="font-family:DejaVu Sans;font-size:9px;font-style:normal;font-weight:normal;" transform="translate(85.856282 309.264948)rotate(-25)">Lexicon</text>
     </g>
    </g>
    <g id="xtick_3">
     <g id="line2d_3">
      <g>
       <use style="stroke:#000000;stroke-width:0.8;" x="140.467022" xlink:href="#m7f1428ac2f" y="281.471494"/>
      </g>
     </g>
     <g id="text_3">
      <text style="font-family:DejaVu Sans;font-size:9px;font-style:normal;font-weight:normal;" transform="translate(117.524831 317.044426)rotate(-25)">Morphology</text>
     </g>
    </g>
    <g id="xtick_4">
     <g id="line2d_4">
      <g>
       <use style="stroke:#000000;stroke-width:0.8;" x="180.477143" xlink:href="#m7f1428ac2f" y="281.471494"/>
      </g>
     </g>
     <g id="text_4">
      <text style="font-family:DejaVu Sans;font-size:9px;font-style:normal;font-weight:normal;" transform="translate(141.377537 332.113078)rotate(-25)">Nominal Categories</text>
     </g>
    </g>
    <g id="xtick_5">
     <g id="line2d_5">
      <g>
       <use style="stroke:#000000;stroke-width:0.8;" x="220.487264" xlink:href="#m7f1428ac2f" y="281.471494"/>
      </g>
     </g>
     <g id="text_5">
      <text style="font-family:DejaVu Sans;font-size:9px;font-style:normal;font-weight:normal;" transform="translate(189.271686 324.760313)rotate(-25)">Nominal Syntax</text>
     </g>
    </g>
    <g id="xtick_6">
     <g id="line2d_6">
      <g>
       <use style="stroke:#000000;stroke-width:0.8;" x="260.497385" xlink:href="#m7f1428ac2f" y="281.471494"/>
      </g>
     </g>
     <g id="text_6">
      <text style="font-family:DejaVu Sans;font-size:9px;font-style:normal;font-weight:normal;" transform="translate(249.966866 305.46911)rotate(-25)">Other</text>
     </g>
    </g>
    <g id="xtick_7">
     <g id="line2d_7">
      <g>
       <use style="stroke:#000000;stroke-width:0.8;" x="300.507505" xlink:href="#m7f1428ac2f" y="281.471494"/>
      </g>
     </g>
     <g id="text_7">
      <text style="font-family:DejaVu Sans;font-size:9px;font-style:normal;font-weight:normal;" transform="translate(280.306116 314.488312)rotate(-25)">Phonology</text>
     </g>
    </g>
    <g id="xtick_8">
     <g id="line2d_8">
      <g>
       <use style="stroke:#000000;stroke-width:0.8;" x="340.517626" xlink:href="#m7f1428ac2f" y="281.471494"/>
      </g>
     </g>
     <g id="text_8">
      <text style="font-family:DejaVu Sans;font-size:9px;font-style:normal;font-weight:normal;" transform="translate(310.521103 323.623404)rotate(-25)">Simple Clauses</text>
     </g>
    </g>
    <g id="xtick_9">
     <g id="line2d_9">
      <g>
       <use style="stroke:#000000;stroke-width:0.8;" x="380.527747" xlink:href="#m7f1428ac2f" y="281.471494"/>
      </g>
     </g>
     <g id="text_9">
      <text style="font-family:DejaVu Sans;font-size:9px;font-style:normal;font-weight:normal;" transform="translate(345.104423 328.684522)rotate(-25)">Verbal Categories</text>
     </g>
    </g>
    <g id="xtick_10">
     <g id="line2d_10">
      <g>
       <use style="stroke:#000000;stroke-width:0.8;" x="420.537868" xlink:href="#m7f1428ac2f" y="281.471494"/>
      </g>
     </g>
     <g id="text_10">
      <text style="font-family:DejaVu Sans;font-size:9px;font-style:normal;font-weight:normal;" transform="translate(397.839742 316.816807)rotate(-25)">Word Order</text>
     </g>
    </g>
   </g>
   <g id="matplotlib.axis_2">
    <g id="ytick_1">
     <g id="line2d_11">
      <defs>
       <path d="M 0 0 
L -3.5 0 
" id="mcf9d5e827b" style="stroke:#000000;stroke-width:0.8;"/>
      </defs>
      <g>
       <use style="stroke:#000000;stroke-width:0.8;" x="33.64" xlink:href="#mcf9d5e827b" y="281.471494"/>
      </g>
     </g>
     <g id="text_11">
      <text style="font-family:DejaVu Sans;font-size:10px;font-style:normal;font-weight:normal;text-anchor:end;" transform="rotate(-0, 26.64, 285.270713)" x="26.64" y="285.270713">0.0</text>
     </g>
    </g>
    <g id="ytick_2">
     <g id="line2d_12">
      <g>
       <use style="stroke:#000000;stroke-width:0.8;" x="33.64" xlink:href="#mcf9d5e827b" y="244.262724"/>
      </g>
     </g>
     <g id="text_12">
      <text style="font-family:DejaVu Sans;font-size:10px;font-style:normal;font-weight:normal;text-anchor:end;" transform="rotate(-0, 26.64, 248.061943)" x="26.64" y="248.061943">0.1</text>
     </g>
    </g>
    <g id="ytick_3">
     <g id="line2d_13">
      <g>
       <use style="stroke:#000000;stroke-width:0.8;" x="33.64" xlink:href="#mcf9d5e827b" y="207.053955"/>
      </g>
     </g>
     <g id="text_13">
      <text style="font-family:DejaVu Sans;font-size:10px;font-style:normal;font-weight:normal;text-anchor:end;" transform="rotate(-0, 26.64, 210.853173)" x="26.64" y="210.853173">0.2</text>
     </g>
    </g>
    <g id="ytick_4">
     <g id="line2d_14">
      <g>
       <use style="stroke:#000000;stroke-width:0.8;" x="33.64" xlink:href="#mcf9d5e827b" y="169.845185"/>
      </g>
     </g>
     <g id="text_14">
      <text style="font-family:DejaVu Sans;font-size:10px;font-style:normal;font-weight:normal;text-anchor:end;" transform="rotate(-0, 26.64, 173.644404)" x="26.64" y="173.644404">0.3</text>
     </g>
    </g>
    <g id="ytick_5">
     <g id="line2d_15">
      <g>
       <use style="stroke:#000000;stroke-width:0.8;" x="33.64" xlink:href="#mcf9d5e827b" y="132.636415"/>
      </g>
     </g>
     <g id="text_15">
      <text style="font-family:DejaVu Sans;font-size:10px;font-style:normal;font-weight:normal;text-anchor:end;" transform="rotate(-0, 26.64, 136.435634)" x="26.64" y="136.435634">0.4</text>
     </g>
    </g>
    <g id="ytick_6">
     <g id="line2d_16">
      <g>
       <use style="stroke:#000000;stroke-width:0.8;" x="33.64" xlink:href="#mcf9d5e827b" y="95.427646"/>
      </g>
     </g>
     <g id="text_16">
      <text style="font-family:DejaVu Sans;font-size:10px;font-style:normal;font-weight:normal;text-anchor:end;" transform="rotate(-0, 26.64, 99.226865)" x="26.64" y="99.226865">0.5</text>
     </g>
    </g>
    <g id="ytick_7">
     <g id="line2d_17">
      <g>
       <use style="stroke:#000000;stroke-width:0.8;" x="33.64" xlink:href="#mcf9d5e827b" y="58.218876"/>
      </g>
     </g>
     <g id="text_17">
      <text style="font-family:DejaVu Sans;font-size:10px;font-style:normal;font-weight:normal;text-anchor:end;" transform="rotate(-0, 26.64, 62.018095)" x="26.64" y="62.018095">0.6</text>
     </g>
    </g>
    <g id="ytick_8">
     <g id="line2d_18">
      <g>
       <use style="stroke:#000000;stroke-width:0.8;" x="33.64" xlink:href="#mcf9d5e827b" y="21.010107"/>
      </g>
     </g>
     <g id="text_18">
      <text style="font-family:DejaVu Sans;font-size:10px;font-style:normal;font-weight:normal;text-anchor:end;" transform="rotate(-0, 26.64, 24.809325)" x="26.64" y="24.809325">0.7</text>
     </g>
    </g>
   </g>
   <g id="patch_23">
    <path d="M 33.64 281.471494 
L 33.64 13.32 
" style="fill:none;stroke:#000000;stroke-linecap:square;stroke-linejoin:miter;stroke-width:0.8;"/>
   </g>
   <g id="patch_24">
    <path d="M 447.344649 281.471494 
L 447.344649 13.32 
" style="fill:none;stroke:#000000;stroke-linecap:square;stroke-linejoin:miter;stroke-width:0.8;"/>
   </g>
   <g id="patch_25">
    <path d="M 33.64 281.471494 
L 447.344649 281.471494 
" style="fill:none;stroke:#000000;stroke-linecap:square;stroke-linejoin:miter;stroke-width:0.8;"/>
   </g>
   <g id="patch_26">
    <path d="M 33.64 13.32 
L 447.344649 13.32 
" style="fill:none;stroke:#000000;stroke-linecap:square;stroke-linejoin:miter;stroke-width:0.8;"/>
   </g>
   <g id="legend_1">
    <g id="patch_27">
     <path d="M 374.908711 50.67625 
L 440.344649 50.67625 
Q 442.344649 50.67625 442.344649 48.67625 
L 442.344649 20.32 
Q 442.344649 18.32 440.344649 18.32 
L 374.908711 18.32 
Q 372.908711 18.32 372.908711 20.32 
L 372.908711 48.67625 
Q 372.908711 50.67625 374.908711 50.67625 
z
" style="fill:#ffffff;opacity:0.8;stroke:#cccccc;stroke-linejoin:miter;"/>
    </g>
    <g id="patch_28">
     <path d="M 376.908711 29.918437 
L 396.908711 29.918437 
L 396.908711 22.918437 
L 376.908711 22.918437 
z
" style="fill:#1f77b4;"/>
    </g>
    <g id="text_19">
     <text style="font-family:DejaVu Sans;font-size:10px;font-style:normal;font-weight:normal;text-anchor:start;" transform="rotate(-0, 404.908711, 29.918437)" x="404.908711" y="29.918437">Scores</text>
    </g>
    <g id="patch_29">
     <path d="M 376.908711 44.596563 
L 396.908711 44.596563 
L 396.908711 37.596563 
L 376.908711 37.596563 
z
" style="fill:#ff7f0e;"/>
    </g>
    <g id="text_20">
     <text style="font-family:DejaVu Sans;font-size:10px;font-style:normal;font-weight:normal;text-anchor:start;" transform="rotate(-0, 404.908711, 44.596563)" x="404.908711" y="44.596563">Bases</text>
    </g>
   </g>
  </g>
 </g>
 <defs>
  <clipPath id="p0a48060a15">
   <rect height="268.151494" width="413.704649" x="33.64" y="13.32"/>
  </clipPath>
 </defs>
</svg>
